M48
;Layer_Color=6321
;FILE_FORMAT=2:5
INCH,LZ
;TYPE=PLATED
T1F00S00C0.02756
T2F00S00C0.02800
T3F00S00C0.02953
T4F00S00C0.03000
T5F00S00C0.03500
T6F00S00C0.03543
T7F00S00C0.03937
T8F00S00C0.04331
T9F00S00C0.15748
%
T01
X0346063Y0298819
Y0308662
T02
X0098425Y0112992
X0111024Y0122835
X0087795Y0131496
X0170079Y0142913
X0173622Y0083071
X0205512Y005748
X0262598Y0047244
X0279921Y0051181
X0294882Y0112992
X032126Y0085827
X0340945Y0087795
X0355906Y0072835
X0320079Y0043307
X0429921Y0115748
X0431102Y0211024
X0430709Y0258268
X040315Y0268504
X036811Y0272047
X0374331Y0218189
X0271866Y0224858
X0223228Y0240551
X0216142Y0167717
X0109055Y0170866
X0044882Y0209842
X005748Y0266929
X0087008Y0265354
X0075984Y0337795
X0111811Y0378346
X0131496Y0384646
X014685Y0429528
X016063Y0351181
X0173622Y0317323
X0236221Y032559
X0282283Y0335039
X0266929Y0414961
X0254331Y0422835
X0208268Y0363386
X0351181Y038937
X0379528Y0356693
X0361811Y0330709
X032559Y0427953
T03
X0384646Y0298819
X0431102Y0309941
X0441102Y0319941
X0421102
X0384646Y0338819
T04
X0102181Y0063961
X0109252Y005689
X0261653Y0019685
X0271654
X040848Y0102181
X0415551Y0109252
X0452756Y0261653
Y0271654
X0019685Y0210787
Y0200787
X005689Y0363189
X0063961Y037026
X0200787Y0452756
X0210787
X0363189Y0415551
X037026Y040848
T05
X0064362Y0101779
X0057291Y0108851
X0199724Y0019685
X0209724
X0363591Y0057291
X0370661Y0064362
X0452756Y0199724
Y0209724
X0019685Y0262717
Y0272716
X0101779Y0408079
X0108851Y041515
X0262717Y0452756
X0272716
X0408079Y0370661
X041515Y0363591
T06
X0176063Y0224724
Y0234724
Y0244724
Y0254724
Y0264724
Y0274724
Y0284724
Y0294724
X0208661Y0295669
Y0285669
Y0275669
Y0265669
Y0255669
Y0245669
Y0235669
Y0225669
X0238661
Y0235669
Y0245669
Y0255669
Y0265669
Y0275669
Y0285669
Y0295669
X0146063Y0294724
Y0284724
Y0274724
Y0264724
Y0254724
Y0244724
Y0234724
Y0224724
T07
X045Y0295276
T08
X0314331Y0232677
X0324331
X0334331
X0344331
X0354331
Y0242677
X0344331
X0334331
X0324331
X0314331
X0364331
X0374331
X0384331
X0394331
X0404331
Y0232677
X0394331
X0384331
X0374331
X0364331
X0414331
Y0242677
X0304331
Y0232677
T09
X0083071Y0083071
X0236221Y0019685
X038937Y0083071
X0452756Y0236221
X0019685
X0083071Y038937
X0236221Y0452756
X038937Y038937
M30
