<?xml version="1.0" encoding="utf-8"?>
<!-- Generator: Adobe Illustrator 16.0.3, SVG Export Plug-In . SVG Version: 6.00 Build 0)  -->
<!DOCTYPE svg PUBLIC "-//W3C//DTD SVG 1.1//EN" "http://www.w3.org/Graphics/SVG/1.1/DTD/svg11.dtd">
<svg version="1.1" id="Ebene_1" xmlns="http://www.w3.org/2000/svg" xmlns:xlink="http://www.w3.org/1999/xlink" x="0px" y="0px"
	 width="755.499px" height="233.5px" viewBox="0 0 755.499 233.5" enable-background="new 0 0 755.499 233.5" xml:space="preserve">
<g id="Ebene_x0020_1">
	<g id="UNI_LOGO_positiv.eps">
		<path fill="#57A0C7" d="M168.898,20.193v165.198c0,19.294,15.624,34.948,34.917,34.948s34.948-15.654,34.948-34.948V20.193
			H168.898z"/>
		<path fill="#497284" d="M162.11,216.243V48.628c0-19.568-15.869-35.467-35.468-35.467c-19.568,0-35.437,15.899-35.437,35.467
			v167.615H162.11z"/>
		<path fill="#497284" d="M84.417,216.243V48.628c0-19.568-15.868-35.467-35.436-35.467c-19.6,0-35.468,15.899-35.468,35.467
			v167.615H84.417z"/>
		<path fill="#497284" d="M282.729,147.387c-5.228,0-9.54-1.622-12.994-4.893c-3.455-3.24-5.167-7.46-5.167-12.627V96.264h7.704
			V129.5c0,3.394,0.917,6.054,2.813,8.011c1.866,1.988,4.403,2.966,7.644,2.966c3.18,0,5.749-0.979,7.644-2.966
			c1.927-1.957,2.905-4.617,2.905-8.011V96.264h7.705v33.603c0,5.167-1.743,9.388-5.198,12.627
			C292.361,145.766,287.988,147.387,282.729,147.387z"/>
		<polygon fill="#497284" points="349.415,147.019 325.963,111.278 325.963,147.019 318.289,147.019 318.289,96.264 325.321,96.264 
			348.772,131.885 348.772,96.264 356.447,96.264 356.447,147.019 		"/>
		<polygon fill="#497284" points="374.548,147.019 382.222,147.019 382.222,96.264 374.548,96.264 		"/>
		<polygon fill="#497284" points="416.71,147.019 410.718,147.019 394.054,96.264 402.004,96.264 413.684,133.23 425.425,96.264 
			433.528,96.264 		"/>
		<polygon fill="#497284" points="445.33,147.019 445.33,96.264 477.739,96.264 477.739,103.174 453.034,103.174 453.034,117.973 
			474.131,117.973 474.131,124.823 453.034,124.823 453.034,140.11 477.739,140.11 477.739,147.019 		"/>
		<path fill="#497284" d="M512.228,103.174h-11.404v15.931h11.404c2.568,0,4.648-0.704,6.238-2.11
			c1.59-1.406,2.385-3.333,2.385-5.809c0-2.477-0.795-4.433-2.355-5.872C516.937,103.878,514.827,103.174,512.228,103.174z
			 M521.126,147.019l-10.671-21.434h-9.631v21.434h-7.705V96.264h19.66c4.77,0,8.563,1.375,11.436,4.098
			c2.873,2.721,4.311,6.298,4.311,10.702c0,3.486-0.918,6.39-2.813,8.744c-1.865,2.324-4.311,3.915-7.277,4.709l11.68,22.502
			H521.126z"/>
		<path fill="#497284" d="M558.091,147.387c-3.883,0-7.246-0.521-10.121-1.53c-2.842-1.039-5.441-2.751-7.826-5.167l5.137-5.045
			c1.742,1.744,3.699,2.997,5.809,3.731c2.109,0.733,4.494,1.101,7.154,1.101c3.305,0,5.902-0.673,7.736-2.019
			c1.803-1.375,2.723-3.271,2.723-5.748c0-2.324-0.492-3.914-1.469-4.8c-0.947-0.887-1.865-1.499-2.662-1.835
			c-0.793-0.306-1.955-0.582-3.422-0.765l-5.963-0.856c-4.129-0.581-7.398-1.956-9.785-4.188c-2.354-2.232-3.545-5.412-3.545-9.541
			c0-4.464,1.527-8.072,4.555-10.792c3.059-2.722,7.186-4.097,12.414-4.097c6.328,0,11.586,1.927,15.717,5.748l-4.924,4.861
			c-1.469-1.437-3.088-2.446-4.893-3.026c-1.803-0.582-3.852-0.887-6.145-0.887c-2.875,0-5.139,0.733-6.789,2.232
			c-1.65,1.498-2.445,3.394-2.445,5.656c0,1.988,0.643,3.577,1.957,4.739c1.283,1.162,3.18,1.927,5.656,2.324l5.779,0.856
			c2.262,0.336,4.127,0.795,5.596,1.375c1.438,0.612,3.117,1.744,5.076,3.455c1.955,1.713,2.904,4.832,2.904,9.326
			c0,4.617-1.652,8.225-5.016,10.884C567.966,146.042,563.564,147.387,558.091,147.387z"/>
		<polygon fill="#497284" points="591.511,147.019 599.185,147.019 599.185,96.264 591.511,96.264 		"/>
		<polygon fill="#497284" points="634.439,103.174 634.439,147.019 626.765,147.019 626.765,103.174 612.79,103.174 612.79,96.264 
			648.411,96.264 648.411,103.174 		"/>
		<path fill="#497284" d="M681.892,91.006v-7.706h6.543v7.706H681.892z M677.855,107.791l-7.887,22.505h15.5L677.855,107.791z
			 M666.513,91.006v-7.706h6.541v7.706H666.513z M691.156,147.019l-3.455-10.243h-20.027l-3.516,10.243h-8.195l18.592-50.755h6.207
			l18.59,50.755H691.156z"/>
		<polygon fill="#497284" points="728.548,103.174 728.548,147.019 720.845,147.019 720.845,103.174 706.902,103.174 
			706.902,96.264 742.37,96.264 742.37,103.174 		"/>
		<polygon fill="#57A0C7" points="295.02,216.335 280.773,191.263 272.272,201.536 272.272,216.304 264.568,216.304 
			264.568,165.549 272.272,165.549 272.272,191.048 292.973,165.549 302.359,165.549 285.939,185.391 304.101,216.304 		"/>
		<polygon fill="#57A0C7" points="315.629,216.304 315.629,165.549 323.302,165.549 323.302,209.425 347.733,209.425 
			347.733,216.304 		"/>
		<path fill="#57A0C7" d="M376.505,177.075l-7.858,22.503h15.5L376.505,177.075z M389.804,216.304l-3.455-10.243h-19.996
			l-3.516,10.243h-8.195l18.56-50.755h6.207l18.59,50.755H389.804z"/>
		<path fill="#57A0C7" d="M439.704,210.923c-1.896,1.987-3.975,3.455-6.299,4.372c-2.293,0.918-4.861,1.376-7.644,1.376
			c-5.258,0-9.387-1.468-12.322-4.403c-2.935-2.965-4.648-5.748-5.167-8.408c-0.489-2.661-0.734-6.971-0.734-12.964
			c0-5.932,0.245-10.243,0.734-12.902c0.519-2.69,2.232-5.504,5.167-8.439c2.966-2.965,7.063-4.432,12.352-4.432
			c5.199,0,9.357,1.467,12.567,4.402c3.18,2.936,5.137,6.726,5.902,11.404h-7.767c-0.642-2.813-1.896-5.014-3.7-6.573
			c-1.803-1.529-4.127-2.324-7.002-2.324c-1.467,0-2.873,0.275-4.188,0.855c-1.285,0.582-2.477,1.438-3.548,2.569
			c-1.07,1.131-1.833,2.751-2.232,4.861c-0.397,2.11-0.611,5.657-0.611,10.579c0,5.168,0.214,8.775,0.581,10.763
			c0.367,1.988,1.376,3.853,2.966,5.535c1.589,1.711,3.915,2.568,7.001,2.568c3.424,0,6.085-1.07,7.98-3.271
			c1.896-2.171,2.844-4.922,2.844-8.255v-2.844h-10.824v-6.481h18.499v7.734c0,3.333-0.337,6.085-1.04,8.287
			C442.547,207.132,441.385,209.119,439.704,210.923z"/>
		<polygon fill="#57A0C7" points="459.792,216.304 459.792,165.549 492.171,165.549 492.171,172.459 467.466,172.459 
			467.466,187.257 488.563,187.257 488.563,194.106 467.466,194.106 467.466,209.425 492.171,209.425 492.171,216.304 		"/>
		<polygon fill="#57A0C7" points="538.034,216.304 514.615,180.592 514.615,216.304 506.908,216.304 506.908,165.549 
			513.941,165.549 537.392,201.169 537.392,165.549 545.066,165.549 545.066,216.304 		"/>
		<polygon fill="#57A0C7" points="570.198,172.459 570.198,187.9 591.267,187.9 591.267,194.809 570.198,194.809 570.198,216.304 
			562.525,216.304 562.525,165.549 594.906,165.549 594.906,172.459 		"/>
		<path fill="#57A0C7" d="M625.724,216.671c-5.197,0-9.539-1.62-12.994-4.861c-3.424-3.271-5.137-7.491-5.137-12.658v-33.603h7.676
			v33.266c0,3.363,0.947,6.024,2.811,8.011c1.865,1.957,4.436,2.936,7.645,2.936c3.18,0,5.748-0.979,7.674-2.936
			c1.928-1.986,2.875-4.647,2.875-8.011v-33.266h7.676v33.603c0,5.167-1.713,9.387-5.139,12.658
			C635.355,215.051,631.013,216.671,625.724,216.671z"/>
		<path fill="#57A0C7" d="M679.691,172.459h-11.375v15.96h11.375c2.568,0,4.646-0.703,6.238-2.11
			c1.588-1.406,2.385-3.363,2.385-5.839s-0.797-4.434-2.355-5.87C684.398,173.162,682.32,172.459,679.691,172.459z M688.587,216.335
			l-10.639-21.464l-9.633,0.031v21.403h-7.705v-50.755h19.66c4.738,0,8.561,1.376,11.436,4.098
			c2.873,2.721,4.311,6.298,4.311,10.701c0,3.485-0.947,6.39-2.844,8.745c-1.865,2.354-4.281,3.913-7.277,4.739l11.68,22.473
			L688.587,216.335z"/>
		<polygon fill="#57A0C7" points="728.609,172.459 728.609,216.304 720.906,216.304 720.906,172.459 706.962,172.459 
			706.962,165.549 742.37,165.549 742.37,172.459 		"/>
	</g>
</g>
</svg>
