G04*
G04 #@! TF.GenerationSoftware,Altium Limited,CircuitMaker,2.2.1 (6)*
G04*
G04 Layer_Color=8150272*
%FSLAX44Y44*%
%MOMM*%
G71*
G04*
G04 #@! TF.SameCoordinates,9E674738-4F13-4C75-B363-8A9F2A517ECE*
G04*
G04*
G04 #@! TF.FilePolarity,Negative*
G04*
G01*
G75*
%ADD10C,0.0500*%
%ADD13C,0.1000*%
%ADD14C,0.2540*%
%ADD15C,0.0000*%
%ADD16C,2.3032*%
%ADD17R,2.3032X2.3032*%
%ADD18C,1.9032*%
%ADD19R,1.9032X1.9032*%
%ADD20C,5.0032*%
%ADD21C,2.2352*%
%ADD22C,7.8232*%
%ADD23C,1.7272*%
%ADD24R,1.7272X1.7272*%
%ADD25C,1.7032*%
%ADD26R,1.7032X1.7032*%
%ADD27R,1.9532X1.9532*%
%ADD28C,1.9532*%
%ADD29P,1.8435X8X202.5*%
%ADD30C,1.4732*%
D10*
X892510Y844090D02*
Y927910D01*
X859490Y844090D02*
X892510D01*
X859490D02*
Y927910D01*
X892510D01*
X83490Y358090D02*
Y441910D01*
X116510D01*
Y358090D02*
Y441910D01*
X83490Y358090D02*
X116510D01*
X1083490D02*
Y441910D01*
X1116510D01*
Y358090D02*
Y441910D01*
X1083490Y358090D02*
X1116510D01*
X1035490Y928600D02*
X1068510D01*
X1035490Y869400D02*
Y928600D01*
Y869400D02*
X1068510D01*
Y928600D01*
D13*
X863300Y924100D02*
X888700D01*
X863300Y847900D02*
Y924100D01*
Y847900D02*
X888700D01*
Y924100D01*
X87300Y361900D02*
X112700D01*
Y438100D01*
X87300D02*
X112700D01*
X87300Y361900D02*
Y438100D01*
X1087300Y361900D02*
X1112700D01*
Y438100D01*
X1087300D02*
X1112700D01*
X1087300Y361900D02*
Y438100D01*
X1039300Y924400D02*
X1064700D01*
X1039300Y873600D02*
Y924400D01*
Y873600D02*
X1064700D01*
Y924400D01*
X876000Y883460D02*
Y888540D01*
X873460Y886000D02*
X878540D01*
X100000Y397460D02*
Y402540D01*
X97460Y400000D02*
X102540D01*
X1100000Y397460D02*
Y402540D01*
X1097460Y400000D02*
X1102540D01*
X1052000Y896460D02*
Y901540D01*
X1049460Y899000D02*
X1054540D01*
X826000Y778000D02*
Y788000D01*
X821000Y783000D02*
X831000D01*
X768998Y775581D02*
X769261D01*
X200000Y417580D02*
X200263D01*
X1000000D02*
X1000263D01*
D14*
X1200000Y600000D02*
G03*
X1200000Y600000I-600000J0D01*
G01*
D15*
X701600Y290300D02*
Y315700D01*
X498400D02*
X701600D01*
X498400Y290300D02*
Y315700D01*
Y290300D02*
X701600D01*
X498400D02*
X701600D01*
X498400D02*
Y315700D01*
X701600D01*
Y290300D02*
Y315700D01*
Y290300D02*
Y315700D01*
X498400D02*
X701600D01*
X498400Y290300D02*
Y315700D01*
Y290300D02*
X701600D01*
D16*
X876000Y860400D02*
D03*
Y886000D02*
D03*
X100000Y425600D02*
D03*
Y400000D02*
D03*
X1100000Y425600D02*
D03*
Y400000D02*
D03*
X1052000Y886200D02*
D03*
D17*
X876000Y911600D02*
D03*
X100000Y374400D02*
D03*
X1100000D02*
D03*
X1052000Y911800D02*
D03*
D18*
X235600Y500000D02*
D03*
X134000D02*
D03*
X963400D02*
D03*
X1065000D02*
D03*
X900000Y616400D02*
D03*
Y591000D02*
D03*
X874600Y616400D02*
D03*
Y591000D02*
D03*
X849200Y616400D02*
D03*
Y591000D02*
D03*
X823800Y616400D02*
D03*
Y591000D02*
D03*
X798400Y616400D02*
D03*
Y591000D02*
D03*
X773000Y616400D02*
D03*
X1027000D02*
D03*
Y591000D02*
D03*
X1001600Y616400D02*
D03*
Y591000D02*
D03*
X976200Y616400D02*
D03*
Y591000D02*
D03*
X950800Y616400D02*
D03*
Y591000D02*
D03*
X925400Y616400D02*
D03*
Y591000D02*
D03*
X1052400Y616400D02*
D03*
Y591000D02*
D03*
D19*
X773000D02*
D03*
D20*
X1150000Y600000D02*
D03*
X989000Y211000D02*
D03*
X770000Y100000D02*
D03*
X600000Y50000D02*
D03*
X430000Y100000D02*
D03*
X50000Y600000D02*
D03*
X211000Y211000D02*
D03*
X989000Y989000D02*
D03*
X211000D02*
D03*
X430000Y1000000D02*
D03*
X770000D02*
D03*
X600000Y1150000D02*
D03*
D21*
X826000Y808400D02*
D03*
Y783000D02*
D03*
Y757600D02*
D03*
D22*
X993132Y783000D02*
D03*
D23*
X769000Y783000D02*
D03*
X200002Y424999D02*
D03*
X1000002D02*
D03*
D24*
X769000Y758000D02*
D03*
X200002Y399999D02*
D03*
X1000002D02*
D03*
D25*
X676200Y823800D02*
D03*
Y849200D02*
D03*
Y874600D02*
D03*
Y798400D02*
D03*
Y773000D02*
D03*
Y747600D02*
D03*
Y595200D02*
D03*
Y620600D02*
D03*
Y646000D02*
D03*
Y722200D02*
D03*
Y696800D02*
D03*
Y671400D02*
D03*
Y493600D02*
D03*
Y519000D02*
D03*
Y544400D02*
D03*
Y468200D02*
D03*
Y442800D02*
D03*
Y417400D02*
D03*
Y569800D02*
D03*
X523800Y823800D02*
D03*
Y849200D02*
D03*
Y874600D02*
D03*
Y798400D02*
D03*
Y773000D02*
D03*
Y747600D02*
D03*
Y595200D02*
D03*
Y620600D02*
D03*
Y646000D02*
D03*
Y722200D02*
D03*
Y696800D02*
D03*
Y671400D02*
D03*
Y493600D02*
D03*
Y519000D02*
D03*
Y544400D02*
D03*
Y468200D02*
D03*
Y442800D02*
D03*
Y417400D02*
D03*
Y569800D02*
D03*
X395000Y715200D02*
D03*
Y740600D02*
D03*
Y766000D02*
D03*
Y791400D02*
D03*
X420400D02*
D03*
Y766000D02*
D03*
Y740600D02*
D03*
D26*
X676200Y900000D02*
D03*
X523800D02*
D03*
D27*
X688900Y303000D02*
D03*
D28*
X663500D02*
D03*
X638100D02*
D03*
X612700D02*
D03*
X587300D02*
D03*
X561900D02*
D03*
X536500D02*
D03*
X511100D02*
D03*
D29*
X420400Y715200D02*
D03*
D30*
X831000Y381000D02*
D03*
X959000Y866000D02*
D03*
X291000Y758000D02*
D03*
X296000Y522000D02*
D03*
X920000Y437000D02*
D03*
X1081000Y818000D02*
D03*
X891000Y1011000D02*
D03*
X517000Y1013000D02*
D03*
X632000Y1021000D02*
D03*
X277000Y907000D02*
D03*
X150000Y768000D02*
D03*
X161000Y549000D02*
D03*
X818000Y228000D02*
D03*
X555000Y523000D02*
D03*
X1126000Y506000D02*
D03*
X774000Y452000D02*
D03*
X628000Y181000D02*
D03*
X433340Y329556D02*
D03*
X379000Y623000D02*
D03*
X579366Y717312D02*
D03*
X1107000Y746000D02*
D03*
X1040000Y569000D02*
D03*
X1016000Y665000D02*
D03*
X618000Y468000D02*
D03*
X899000Y688000D02*
D03*
X925000Y674000D02*
D03*
X950000Y658000D02*
D03*
M02*
