G04*
G04 #@! TF.GenerationSoftware,Altium Limited,CircuitMaker,2.2.1 (6)*
G04*
G04 Layer_Color=2752767*
%FSLAX44Y44*%
%MOMM*%
G71*
G04*
G04 #@! TF.SameCoordinates,9E674738-4F13-4C75-B363-8A9F2A517ECE*
G04*
G04*
G04 #@! TF.FilePolarity,Positive*
G04*
G01*
G75*
%ADD10C,0.0500*%
%ADD13C,0.1000*%
%ADD14C,0.2540*%
%ADD15C,0.0000*%
%ADD49C,0.0508*%
%ADD50C,0.0677*%
D10*
X892510Y844090D02*
Y927910D01*
X859490Y844090D02*
X892510D01*
X859490D02*
Y927910D01*
X892510D01*
X83490Y358090D02*
Y441910D01*
X116510D01*
Y358090D02*
Y441910D01*
X83490Y358090D02*
X116510D01*
X1083490D02*
Y441910D01*
X1116510D01*
Y358090D02*
Y441910D01*
X1083490Y358090D02*
X1116510D01*
X1035490Y928600D02*
X1068510D01*
X1035490Y869400D02*
Y928600D01*
Y869400D02*
X1068510D01*
Y928600D01*
D13*
X863300Y924100D02*
X888700D01*
X863300Y847900D02*
Y924100D01*
Y847900D02*
X888700D01*
Y924100D01*
X87300Y361900D02*
X112700D01*
Y438100D01*
X87300D02*
X112700D01*
X87300Y361900D02*
Y438100D01*
X1087300Y361900D02*
X1112700D01*
Y438100D01*
X1087300D02*
X1112700D01*
X1087300Y361900D02*
Y438100D01*
X1039300Y924400D02*
X1064700D01*
X1039300Y873600D02*
Y924400D01*
Y873600D02*
X1064700D01*
Y924400D01*
X876000Y883460D02*
Y888540D01*
X873460Y886000D02*
X878540D01*
X100000Y397460D02*
Y402540D01*
X97460Y400000D02*
X102540D01*
X1100000Y397460D02*
Y402540D01*
X1097460Y400000D02*
X1102540D01*
X1052000Y896460D02*
Y901540D01*
X1049460Y899000D02*
X1054540D01*
X826000Y778000D02*
Y788000D01*
X821000Y783000D02*
X831000D01*
X768998Y775581D02*
X769261D01*
X200000Y417580D02*
X200263D01*
X1000000D02*
X1000263D01*
D14*
X1200000Y600000D02*
G03*
X1200000Y600000I-600000J0D01*
G01*
D15*
X701600Y290300D02*
Y315700D01*
X498400D02*
X701600D01*
X498400Y290300D02*
Y315700D01*
Y290300D02*
X701600D01*
X498400D02*
X701600D01*
X498400D02*
Y315700D01*
X701600D01*
Y290300D02*
Y315700D01*
Y290300D02*
Y315700D01*
X498400D02*
X701600D01*
X498400Y290300D02*
Y315700D01*
Y290300D02*
X701600D01*
D49*
X873968Y858368D02*
Y862432D01*
X878032D01*
Y858368D01*
X873968D01*
Y883968D02*
Y888032D01*
X878032D01*
Y883968D01*
X873968D01*
Y909568D02*
Y913632D01*
X878032D01*
Y909568D01*
X873968D01*
X97968Y423568D02*
Y427632D01*
X102032D01*
Y423568D01*
X97968D01*
Y397968D02*
Y402032D01*
X102032D01*
Y397968D01*
X97968D01*
Y372368D02*
Y376432D01*
X102032D01*
Y372368D01*
X97968D01*
X1097968Y423568D02*
Y427632D01*
X1102032D01*
Y423568D01*
X1097968D01*
Y397968D02*
Y402032D01*
X1102032D01*
Y397968D01*
X1097968D01*
Y372368D02*
Y376432D01*
X1102032D01*
Y372368D01*
X1097968D01*
X1049968Y909768D02*
Y913832D01*
X1054032D01*
Y909768D01*
X1049968D01*
Y884168D02*
Y888232D01*
X1054032D01*
Y884168D01*
X1049968D01*
X900000Y614368D02*
X897968Y618432D01*
X902032D01*
X900000Y614368D01*
Y588968D02*
X897968Y593032D01*
X902032D01*
X900000Y588968D01*
X874600Y614368D02*
X872568Y618432D01*
X876632D01*
X874600Y614368D01*
Y588968D02*
X872568Y593032D01*
X876632D01*
X874600Y588968D01*
X849200Y614368D02*
X847168Y618432D01*
X851232D01*
X849200Y614368D01*
Y588968D02*
X847168Y593032D01*
X851232D01*
X849200Y588968D01*
X823800Y614368D02*
X821768Y618432D01*
X825832D01*
X823800Y614368D01*
Y588968D02*
X821768Y593032D01*
X825832D01*
X823800Y588968D01*
X798400Y614368D02*
X796368Y618432D01*
X800432D01*
X798400Y614368D01*
Y588968D02*
X796368Y593032D01*
X800432D01*
X798400Y588968D01*
X773000Y614368D02*
X770968Y618432D01*
X775032D01*
X773000Y614368D01*
Y588968D02*
X770968Y593032D01*
X775032D01*
X773000Y588968D01*
X1027000Y614368D02*
X1024968Y618432D01*
X1029032D01*
X1027000Y614368D01*
Y588968D02*
X1024968Y593032D01*
X1029032D01*
X1027000Y588968D01*
X1001600Y614368D02*
X999568Y618432D01*
X1003632D01*
X1001600Y614368D01*
Y588968D02*
X999568Y593032D01*
X1003632D01*
X1001600Y588968D01*
X976200Y614368D02*
X974168Y618432D01*
X978232D01*
X976200Y614368D01*
Y588968D02*
X974168Y593032D01*
X978232D01*
X976200Y588968D01*
X950800Y614368D02*
X948768Y618432D01*
X952832D01*
X950800Y614368D01*
Y588968D02*
X948768Y593032D01*
X952832D01*
X950800Y588968D01*
X925400Y614368D02*
X923368Y618432D01*
X927432D01*
X925400Y614368D01*
Y588968D02*
X923368Y593032D01*
X927432D01*
X925400Y588968D01*
X1052400Y614368D02*
X1050368Y618432D01*
X1054432D01*
X1052400Y614368D01*
Y588968D02*
X1050368Y593032D01*
X1054432D01*
X1052400Y588968D01*
X1150000Y597968D02*
X1151016Y598984D01*
X1152032D01*
X1151016Y600000D01*
X1152032Y601016D01*
X1151016D01*
X1150000Y602032D01*
X1148984Y601016D01*
X1147968D01*
X1148984Y600000D01*
X1147968Y598984D01*
X1148984D01*
X1150000Y597968D01*
X989000Y208968D02*
X990016Y209984D01*
X991032D01*
X990016Y211000D01*
X991032Y212016D01*
X990016D01*
X989000Y213032D01*
X987984Y212016D01*
X986968D01*
X987984Y211000D01*
X986968Y209984D01*
X987984D01*
X989000Y208968D01*
X770000Y97968D02*
X771016Y98984D01*
X772032D01*
X771016Y100000D01*
X772032Y101016D01*
X771016D01*
X770000Y102032D01*
X768984Y101016D01*
X767968D01*
X768984Y100000D01*
X767968Y98984D01*
X768984D01*
X770000Y97968D01*
X600000Y47968D02*
X601016Y48984D01*
X602032D01*
X601016Y50000D01*
X602032Y51016D01*
X601016D01*
X600000Y52032D01*
X598984Y51016D01*
X597968D01*
X598984Y50000D01*
X597968Y48984D01*
X598984D01*
X600000Y47968D01*
X430000Y97968D02*
X431016Y98984D01*
X432032D01*
X431016Y100000D01*
X432032Y101016D01*
X431016D01*
X430000Y102032D01*
X428984Y101016D01*
X427968D01*
X428984Y100000D01*
X427968Y98984D01*
X428984D01*
X430000Y97968D01*
X50000Y597968D02*
X51016Y598984D01*
X52032D01*
X51016Y600000D01*
X52032Y601016D01*
X51016D01*
X50000Y602032D01*
X48984Y601016D01*
X47968D01*
X48984Y600000D01*
X47968Y598984D01*
X48984D01*
X50000Y597968D01*
X211000Y208968D02*
X212016Y209984D01*
X213032D01*
X212016Y211000D01*
X213032Y212016D01*
X212016D01*
X211000Y213032D01*
X209984Y212016D01*
X208968D01*
X209984Y211000D01*
X208968Y209984D01*
X209984D01*
X211000Y208968D01*
X989000Y986968D02*
X990016Y987984D01*
X991032D01*
X990016Y989000D01*
X991032Y990016D01*
X990016D01*
X989000Y991032D01*
X987984Y990016D01*
X986968D01*
X987984Y989000D01*
X986968Y987984D01*
X987984D01*
X989000Y986968D01*
X211000D02*
X212016Y987984D01*
X213032D01*
X212016Y989000D01*
X213032Y990016D01*
X212016D01*
X211000Y991032D01*
X209984Y990016D01*
X208968D01*
X209984Y989000D01*
X208968Y987984D01*
X209984D01*
X211000Y986968D01*
X430000Y997968D02*
X431016Y998984D01*
X432032D01*
X431016Y1000000D01*
X432032Y1001016D01*
X431016D01*
X430000Y1002032D01*
X428984Y1001016D01*
X427968D01*
X428984Y1000000D01*
X427968Y998984D01*
X428984D01*
X430000Y997968D01*
X770000D02*
X771016Y998984D01*
X772032D01*
X771016Y1000000D01*
X772032Y1001016D01*
X771016D01*
X770000Y1002032D01*
X768984Y1001016D01*
X767968D01*
X768984Y1000000D01*
X767968Y998984D01*
X768984D01*
X770000Y997968D01*
X600000Y1147968D02*
X601016Y1148984D01*
X602032D01*
X601016Y1150000D01*
X602032Y1151016D01*
X601016D01*
X600000Y1152032D01*
X598984Y1151016D01*
X597968D01*
X598984Y1150000D01*
X597968Y1148984D01*
X598984D01*
X600000Y1147968D01*
X823968Y806368D02*
X824984Y808400D01*
X823968Y810432D01*
X826000Y809416D01*
X828032Y810432D01*
X827016Y808400D01*
X828032Y806368D01*
X826000Y807384D01*
X823968Y806368D01*
Y780968D02*
X824984Y783000D01*
X823968Y785032D01*
X826000Y784016D01*
X828032Y785032D01*
X827016Y783000D01*
X828032Y780968D01*
X826000Y781984D01*
X823968Y780968D01*
Y755568D02*
X824984Y757600D01*
X823968Y759632D01*
X826000Y758616D01*
X828032Y759632D01*
X827016Y757600D01*
X828032Y755568D01*
X826000Y756584D01*
X823968Y755568D01*
X992116Y781984D02*
Y780968D01*
X994148D01*
Y781984D01*
X995164D01*
Y784016D01*
X994148D01*
Y785032D01*
X992116D01*
Y784016D01*
X991100D01*
Y781984D01*
X992116D01*
X766968Y780968D02*
X767984D01*
X769000Y781984D01*
X770016Y780968D01*
X771032D01*
Y781984D01*
X770016Y783000D01*
X771032Y784016D01*
Y785032D01*
X770016D01*
X769000Y784016D01*
X767984Y785032D01*
X766968D01*
Y784016D01*
X767984Y783000D01*
X766968Y781984D01*
Y780968D01*
Y755968D02*
X767984D01*
X769000Y756984D01*
X770016Y755968D01*
X771032D01*
Y756984D01*
X770016Y758000D01*
X771032Y759016D01*
Y760032D01*
X770016D01*
X769000Y759016D01*
X767984Y760032D01*
X766968D01*
Y759016D01*
X767984Y758000D01*
X766968Y756984D01*
Y755968D01*
X674168Y823800D02*
X676200Y825832D01*
X678232Y823800D01*
X676200Y821768D01*
X674168Y823800D01*
Y849200D02*
X676200Y851232D01*
X678232Y849200D01*
X676200Y847168D01*
X674168Y849200D01*
Y900000D02*
X676200Y902032D01*
X678232Y900000D01*
X676200Y897968D01*
X674168Y900000D01*
Y874600D02*
X676200Y876632D01*
X678232Y874600D01*
X676200Y872568D01*
X674168Y874600D01*
Y798400D02*
X676200Y800432D01*
X678232Y798400D01*
X676200Y796368D01*
X674168Y798400D01*
Y773000D02*
X676200Y775032D01*
X678232Y773000D01*
X676200Y770968D01*
X674168Y773000D01*
Y747600D02*
X676200Y749632D01*
X678232Y747600D01*
X676200Y745568D01*
X674168Y747600D01*
Y595200D02*
X676200Y597232D01*
X678232Y595200D01*
X676200Y593168D01*
X674168Y595200D01*
Y620600D02*
X676200Y622632D01*
X678232Y620600D01*
X676200Y618568D01*
X674168Y620600D01*
Y646000D02*
X676200Y648032D01*
X678232Y646000D01*
X676200Y643968D01*
X674168Y646000D01*
Y722200D02*
X676200Y724232D01*
X678232Y722200D01*
X676200Y720168D01*
X674168Y722200D01*
Y696800D02*
X676200Y698832D01*
X678232Y696800D01*
X676200Y694768D01*
X674168Y696800D01*
Y671400D02*
X676200Y673432D01*
X678232Y671400D01*
X676200Y669368D01*
X674168Y671400D01*
Y493600D02*
X676200Y495632D01*
X678232Y493600D01*
X676200Y491568D01*
X674168Y493600D01*
Y519000D02*
X676200Y521032D01*
X678232Y519000D01*
X676200Y516968D01*
X674168Y519000D01*
Y544400D02*
X676200Y546432D01*
X678232Y544400D01*
X676200Y542368D01*
X674168Y544400D01*
Y468200D02*
X676200Y470232D01*
X678232Y468200D01*
X676200Y466168D01*
X674168Y468200D01*
Y442800D02*
X676200Y444832D01*
X678232Y442800D01*
X676200Y440768D01*
X674168Y442800D01*
Y417400D02*
X676200Y419432D01*
X678232Y417400D01*
X676200Y415368D01*
X674168Y417400D01*
Y569800D02*
X676200Y571832D01*
X678232Y569800D01*
X676200Y567768D01*
X674168Y569800D01*
X521768Y823800D02*
X523800Y825832D01*
X525832Y823800D01*
X523800Y821768D01*
X521768Y823800D01*
Y849200D02*
X523800Y851232D01*
X525832Y849200D01*
X523800Y847168D01*
X521768Y849200D01*
Y900000D02*
X523800Y902032D01*
X525832Y900000D01*
X523800Y897968D01*
X521768Y900000D01*
Y874600D02*
X523800Y876632D01*
X525832Y874600D01*
X523800Y872568D01*
X521768Y874600D01*
Y798400D02*
X523800Y800432D01*
X525832Y798400D01*
X523800Y796368D01*
X521768Y798400D01*
Y773000D02*
X523800Y775032D01*
X525832Y773000D01*
X523800Y770968D01*
X521768Y773000D01*
Y747600D02*
X523800Y749632D01*
X525832Y747600D01*
X523800Y745568D01*
X521768Y747600D01*
Y595200D02*
X523800Y597232D01*
X525832Y595200D01*
X523800Y593168D01*
X521768Y595200D01*
Y620600D02*
X523800Y622632D01*
X525832Y620600D01*
X523800Y618568D01*
X521768Y620600D01*
Y646000D02*
X523800Y648032D01*
X525832Y646000D01*
X523800Y643968D01*
X521768Y646000D01*
Y722200D02*
X523800Y724232D01*
X525832Y722200D01*
X523800Y720168D01*
X521768Y722200D01*
Y696800D02*
X523800Y698832D01*
X525832Y696800D01*
X523800Y694768D01*
X521768Y696800D01*
Y671400D02*
X523800Y673432D01*
X525832Y671400D01*
X523800Y669368D01*
X521768Y671400D01*
Y493600D02*
X523800Y495632D01*
X525832Y493600D01*
X523800Y491568D01*
X521768Y493600D01*
Y519000D02*
X523800Y521032D01*
X525832Y519000D01*
X523800Y516968D01*
X521768Y519000D01*
Y544400D02*
X523800Y546432D01*
X525832Y544400D01*
X523800Y542368D01*
X521768Y544400D01*
Y468200D02*
X523800Y470232D01*
X525832Y468200D01*
X523800Y466168D01*
X521768Y468200D01*
Y442800D02*
X523800Y444832D01*
X525832Y442800D01*
X523800Y440768D01*
X521768Y442800D01*
Y417400D02*
X523800Y419432D01*
X525832Y417400D01*
X523800Y415368D01*
X521768Y417400D01*
Y569800D02*
X523800Y571832D01*
X525832Y569800D01*
X523800Y567768D01*
X521768Y569800D01*
X688900Y300968D02*
X686868Y305032D01*
X690932D01*
X688900Y300968D01*
X663500D02*
X661468Y305032D01*
X665532D01*
X663500Y300968D01*
X638100D02*
X636068Y305032D01*
X640132D01*
X638100Y300968D01*
X612700D02*
X610668Y305032D01*
X614732D01*
X612700Y300968D01*
X587300D02*
X585268Y305032D01*
X589332D01*
X587300Y300968D01*
X561900D02*
X559868Y305032D01*
X563932D01*
X561900Y300968D01*
X536500D02*
X534468Y305032D01*
X538532D01*
X536500Y300968D01*
X511100D02*
X509068Y305032D01*
X513132D01*
X511100Y300968D01*
X392968Y715200D02*
X395000Y717232D01*
X397032Y715200D01*
X395000Y713168D01*
X392968Y715200D01*
Y740600D02*
X395000Y742632D01*
X397032Y740600D01*
X395000Y738568D01*
X392968Y740600D01*
Y766000D02*
X395000Y768032D01*
X397032Y766000D01*
X395000Y763968D01*
X392968Y766000D01*
Y791400D02*
X395000Y793432D01*
X397032Y791400D01*
X395000Y789368D01*
X392968Y791400D01*
X418368D02*
X420400Y793432D01*
X422432Y791400D01*
X420400Y789368D01*
X418368Y791400D01*
Y766000D02*
X420400Y768032D01*
X422432Y766000D01*
X420400Y763968D01*
X418368Y766000D01*
Y740600D02*
X420400Y742632D01*
X422432Y740600D01*
X420400Y738568D01*
X418368Y740600D01*
Y715200D02*
X420400Y717232D01*
X422432Y715200D01*
X420400Y713168D01*
X418368Y715200D01*
X197970Y422967D02*
X198986D01*
X200002Y423983D01*
X201018Y422967D01*
X202034D01*
Y423983D01*
X201018Y424999D01*
X202034Y426015D01*
Y427031D01*
X201018D01*
X200002Y426015D01*
X198986Y427031D01*
X197970D01*
Y426015D01*
X198986Y424999D01*
X197970Y423983D01*
Y422967D01*
Y397967D02*
X198986D01*
X200002Y398983D01*
X201018Y397967D01*
X202034D01*
Y398983D01*
X201018Y399999D01*
X202034Y401015D01*
Y402031D01*
X201018D01*
X200002Y401015D01*
X198986Y402031D01*
X197970D01*
Y401015D01*
X198986Y399999D01*
X197970Y398983D01*
Y397967D01*
X997970Y422967D02*
X998986D01*
X1000002Y423983D01*
X1001018Y422967D01*
X1002034D01*
Y423983D01*
X1001018Y424999D01*
X1002034Y426015D01*
Y427031D01*
X1001018D01*
X1000002Y426015D01*
X998986Y427031D01*
X997970D01*
Y426015D01*
X998986Y424999D01*
X997970Y423983D01*
Y422967D01*
Y397967D02*
X998986D01*
X1000002Y398983D01*
X1001018Y397967D01*
X1002034D01*
Y398983D01*
X1001018Y399999D01*
X1002034Y401015D01*
Y402031D01*
X1001018D01*
X1000002Y401015D01*
X998986Y402031D01*
X997970D01*
Y401015D01*
X998986Y399999D01*
X997970Y398983D01*
Y397967D01*
X828968Y378968D02*
Y383032D01*
X833032D01*
Y378968D01*
X828968D01*
X829984Y379984D02*
Y382016D01*
X832016D01*
Y379984D01*
X829984D01*
X956968Y863968D02*
Y868032D01*
X961032D01*
Y863968D01*
X956968D01*
X957984Y864984D02*
Y867016D01*
X960016D01*
Y864984D01*
X957984D01*
X288968Y755968D02*
Y760032D01*
X293032D01*
Y755968D01*
X288968D01*
X289984Y756984D02*
Y759016D01*
X292016D01*
Y756984D01*
X289984D01*
X293968Y519968D02*
Y524032D01*
X298032D01*
Y519968D01*
X293968D01*
X294984Y520984D02*
Y523016D01*
X297016D01*
Y520984D01*
X294984D01*
X917968Y434968D02*
Y439032D01*
X922032D01*
Y434968D01*
X917968D01*
X918984Y435984D02*
Y438016D01*
X921016D01*
Y435984D01*
X918984D01*
X1078968Y815968D02*
Y820032D01*
X1083032D01*
Y815968D01*
X1078968D01*
X1079984Y816984D02*
Y819016D01*
X1082016D01*
Y816984D01*
X1079984D01*
X888968Y1008968D02*
Y1013032D01*
X893032D01*
Y1008968D01*
X888968D01*
X889984Y1009984D02*
Y1012016D01*
X892016D01*
Y1009984D01*
X889984D01*
X514968Y1010968D02*
Y1015032D01*
X519032D01*
Y1010968D01*
X514968D01*
X515984Y1011984D02*
Y1014016D01*
X518016D01*
Y1011984D01*
X515984D01*
X629968Y1018968D02*
Y1023032D01*
X634032D01*
Y1018968D01*
X629968D01*
X630984Y1019984D02*
Y1022016D01*
X633016D01*
Y1019984D01*
X630984D01*
X274968Y904968D02*
Y909032D01*
X279032D01*
Y904968D01*
X274968D01*
X275984Y905984D02*
Y908016D01*
X278016D01*
Y905984D01*
X275984D01*
X147968Y765968D02*
Y770032D01*
X152032D01*
Y765968D01*
X147968D01*
X148984Y766984D02*
Y769016D01*
X151016D01*
Y766984D01*
X148984D01*
X158968Y546968D02*
Y551032D01*
X163032D01*
Y546968D01*
X158968D01*
X159984Y547984D02*
Y550016D01*
X162016D01*
Y547984D01*
X159984D01*
X815968Y225968D02*
Y230032D01*
X820032D01*
Y225968D01*
X815968D01*
X816984Y226984D02*
Y229016D01*
X819016D01*
Y226984D01*
X816984D01*
X552968Y520968D02*
Y525032D01*
X557032D01*
Y520968D01*
X552968D01*
X553984Y521984D02*
Y524016D01*
X556016D01*
Y521984D01*
X553984D01*
X1123968Y503968D02*
Y508032D01*
X1128032D01*
Y503968D01*
X1123968D01*
X1124984Y504984D02*
Y507016D01*
X1127016D01*
Y504984D01*
X1124984D01*
X771968Y449968D02*
Y454032D01*
X776032D01*
Y449968D01*
X771968D01*
X772984Y450984D02*
Y453016D01*
X775016D01*
Y450984D01*
X772984D01*
X625968Y178968D02*
Y183032D01*
X630032D01*
Y178968D01*
X625968D01*
X626984Y179984D02*
Y182016D01*
X629016D01*
Y179984D01*
X626984D01*
X431308Y327524D02*
Y331588D01*
X435372D01*
Y327524D01*
X431308D01*
X432324Y328540D02*
Y330572D01*
X434356D01*
Y328540D01*
X432324D01*
X376968Y620968D02*
Y625032D01*
X381032D01*
Y620968D01*
X376968D01*
X377984Y621984D02*
Y624016D01*
X380016D01*
Y621984D01*
X377984D01*
X577334Y715281D02*
Y719344D01*
X581398D01*
Y715281D01*
X577334D01*
X578350Y716296D02*
Y718328D01*
X580382D01*
Y716296D01*
X578350D01*
X1104968Y743968D02*
Y748032D01*
X1109032D01*
Y743968D01*
X1104968D01*
X1105984Y744984D02*
Y747016D01*
X1108016D01*
Y744984D01*
X1105984D01*
X1037968Y566968D02*
Y571032D01*
X1042032D01*
Y566968D01*
X1037968D01*
X1038984Y567984D02*
Y570016D01*
X1041016D01*
Y567984D01*
X1038984D01*
X1013968Y662968D02*
Y667032D01*
X1018032D01*
Y662968D01*
X1013968D01*
X1014984Y663984D02*
Y666016D01*
X1017016D01*
Y663984D01*
X1014984D01*
X615968Y465968D02*
Y470032D01*
X620032D01*
Y465968D01*
X615968D01*
X616984Y466984D02*
Y469016D01*
X619016D01*
Y466984D01*
X616984D01*
X896968Y685968D02*
Y690032D01*
X901032D01*
Y685968D01*
X896968D01*
X897984Y686984D02*
Y689016D01*
X900016D01*
Y686984D01*
X897984D01*
X922968Y671968D02*
Y676032D01*
X927032D01*
Y671968D01*
X922968D01*
X923984Y672984D02*
Y675016D01*
X926016D01*
Y672984D01*
X923984D01*
X947968Y655968D02*
Y660032D01*
X952032D01*
Y655968D01*
X947968D01*
X948984Y656984D02*
Y659016D01*
X951016D01*
Y656984D01*
X948984D01*
D50*
X237632Y500000D02*
G03*
X237632Y500000I-2032J0D01*
G01*
X136032D02*
G03*
X136032Y500000I-2032J0D01*
G01*
X965432D02*
G03*
X965432Y500000I-2032J0D01*
G01*
X1067032D02*
G03*
X1067032Y500000I-2032J0D01*
G01*
M02*
