G04*
G04 #@! TF.GenerationSoftware,Altium Limited,CircuitMaker,2.2.1 (6)*
G04*
G04 Layer_Physical_Order=1*
G04 Layer_Color=25308*
%FSLAX44Y44*%
%MOMM*%
G71*
G04*
G04 #@! TF.SameCoordinates,9E674738-4F13-4C75-B363-8A9F2A517ECE*
G04*
G04*
G04 #@! TF.FilePolarity,Positive*
G04*
G01*
G75*
%ADD10C,0.0500*%
%ADD13C,0.1000*%
%ADD14C,0.2540*%
%ADD15C,0.0000*%
%ADD31C,0.5000*%
%ADD32C,2.0000*%
%ADD33C,1.0000*%
%ADD34C,2.1000*%
%ADD35R,2.1000X2.1000*%
%ADD36C,1.7000*%
%ADD37R,1.7000X1.7000*%
%ADD38C,4.8000*%
%ADD39C,2.0320*%
%ADD40C,7.6200*%
%ADD41C,1.5240*%
%ADD42R,1.5240X1.5240*%
%ADD43C,1.5000*%
%ADD44R,1.5000X1.5000*%
%ADD45R,1.7500X1.7500*%
%ADD46C,1.7500*%
%ADD47P,1.6236X8X202.5*%
%ADD48C,1.2700*%
G36*
X635329Y1199075D02*
X658822Y1197226D01*
X682223Y1194456D01*
X705498Y1190770D01*
X728610Y1186172D01*
X751524Y1180671D01*
X774204Y1174275D01*
X796616Y1166993D01*
X818724Y1158837D01*
X840496Y1149819D01*
X861896Y1139953D01*
X882893Y1129255D01*
X903453Y1117740D01*
X923545Y1105428D01*
X943139Y1092336D01*
X962203Y1078485D01*
X980709Y1063896D01*
X998628Y1048592D01*
X1015933Y1032596D01*
X1032596Y1015933D01*
X1048592Y998628D01*
X1063896Y980709D01*
X1078485Y962203D01*
X1092336Y943139D01*
X1105428Y923545D01*
X1117740Y903453D01*
X1129255Y882893D01*
X1139953Y861896D01*
X1149819Y840496D01*
X1158837Y818724D01*
X1166993Y796616D01*
X1174275Y774204D01*
X1180671Y751524D01*
X1186172Y728610D01*
X1190770Y705498D01*
X1194456Y682223D01*
X1197226Y658822D01*
X1199075Y635329D01*
X1200000Y611782D01*
Y600000D01*
Y588218D01*
X1199075Y564671D01*
X1197226Y541178D01*
X1194456Y517777D01*
X1190770Y494502D01*
X1186172Y471390D01*
X1180671Y448476D01*
X1174275Y425796D01*
X1166993Y403384D01*
X1158837Y381275D01*
X1149819Y359504D01*
X1139953Y338104D01*
X1129255Y317107D01*
X1117740Y296547D01*
X1105428Y276455D01*
X1092336Y256861D01*
X1078485Y237797D01*
X1063896Y219291D01*
X1048592Y201372D01*
X1032596Y184067D01*
X1015933Y167404D01*
X998628Y151409D01*
X980709Y136104D01*
X962203Y121515D01*
X943139Y107664D01*
X923545Y94572D01*
X903453Y82260D01*
X882893Y70745D01*
X861896Y60047D01*
X840496Y50181D01*
X818724Y41163D01*
X796616Y33007D01*
X774204Y25725D01*
X751524Y19329D01*
X728610Y13828D01*
X705498Y9230D01*
X682223Y5544D01*
X658822Y2774D01*
X635329Y925D01*
X611782Y0D01*
X588218D01*
X564671Y925D01*
X541178Y2774D01*
X517777Y5544D01*
X494502Y9230D01*
X471390Y13828D01*
X448476Y19329D01*
X425796Y25725D01*
X403384Y33007D01*
X381275Y41163D01*
X359504Y50181D01*
X338104Y60047D01*
X317107Y70745D01*
X296547Y82260D01*
X276455Y94572D01*
X256861Y107664D01*
X237797Y121515D01*
X219291Y136104D01*
X201372Y151409D01*
X184067Y167404D01*
X167404Y184067D01*
X151409Y201372D01*
X136104Y219291D01*
X121515Y237797D01*
X107664Y256861D01*
X94572Y276455D01*
X82260Y296547D01*
X70745Y317107D01*
X60047Y338104D01*
X50181Y359504D01*
X41163Y381275D01*
X33007Y403384D01*
X25725Y425796D01*
X19329Y448476D01*
X13828Y471390D01*
X9230Y494502D01*
X5544Y517777D01*
X2774Y541178D01*
X925Y564671D01*
X0Y588218D01*
Y600000D01*
Y611782D01*
X925Y635329D01*
X2774Y658822D01*
X5544Y682223D01*
X9230Y705498D01*
X13828Y728610D01*
X19329Y751524D01*
X25725Y774204D01*
X33007Y796616D01*
X41163Y818724D01*
X50181Y840496D01*
X60047Y861896D01*
X70745Y882893D01*
X82260Y903453D01*
X94572Y923545D01*
X107664Y943139D01*
X121515Y962203D01*
X136104Y980709D01*
X151409Y998628D01*
X167404Y1015933D01*
X184067Y1032596D01*
X201372Y1048592D01*
X219291Y1063896D01*
X237797Y1078485D01*
X256861Y1092336D01*
X276455Y1105428D01*
X296547Y1117740D01*
X317107Y1129255D01*
X338104Y1139953D01*
X359504Y1149819D01*
X381275Y1158837D01*
X403384Y1166993D01*
X425796Y1174275D01*
X448476Y1180671D01*
X471390Y1186172D01*
X494502Y1190770D01*
X517777Y1194456D01*
X541178Y1197226D01*
X564671Y1199075D01*
X588218Y1200000D01*
X611782D01*
X635329Y1199075D01*
D02*
G37*
%LPC*%
G36*
X602089Y1176540D02*
X601270D01*
Y1151270D01*
X626540D01*
Y1152089D01*
X625886Y1156215D01*
X624596Y1160188D01*
X622699Y1163910D01*
X620244Y1167290D01*
X617290Y1170244D01*
X613910Y1172699D01*
X610188Y1174596D01*
X606215Y1175887D01*
X602089Y1176540D01*
D02*
G37*
G36*
X598730D02*
X597911D01*
X593785Y1175887D01*
X589812Y1174596D01*
X586090Y1172699D01*
X582710Y1170244D01*
X579756Y1167290D01*
X577301Y1163910D01*
X575404Y1160188D01*
X574114Y1156215D01*
X573460Y1152089D01*
Y1151270D01*
X598730D01*
Y1176540D01*
D02*
G37*
G36*
X626540Y1148730D02*
X601270D01*
Y1123460D01*
X602089D01*
X606215Y1124113D01*
X610188Y1125404D01*
X613910Y1127301D01*
X617290Y1129756D01*
X620244Y1132710D01*
X622699Y1136090D01*
X624596Y1139812D01*
X625886Y1143785D01*
X626540Y1147911D01*
Y1148730D01*
D02*
G37*
G36*
X598730D02*
X573460D01*
Y1147911D01*
X574114Y1143785D01*
X575404Y1139812D01*
X577301Y1136090D01*
X579756Y1132710D01*
X582710Y1129756D01*
X586090Y1127301D01*
X589812Y1125404D01*
X593785Y1124113D01*
X597911Y1123460D01*
X598730D01*
Y1148730D01*
D02*
G37*
G36*
X633270Y1029863D02*
Y1022270D01*
X640863D01*
X640284Y1024431D01*
X639114Y1026459D01*
X637459Y1028114D01*
X635431Y1029284D01*
X633270Y1029863D01*
D02*
G37*
G36*
X630730D02*
X628569Y1029284D01*
X626541Y1028114D01*
X624886Y1026459D01*
X623716Y1024431D01*
X623137Y1022270D01*
X630730D01*
Y1029863D01*
D02*
G37*
G36*
X518270Y1021863D02*
Y1014270D01*
X525863D01*
X525284Y1016431D01*
X524114Y1018459D01*
X522459Y1020114D01*
X520431Y1021284D01*
X518270Y1021863D01*
D02*
G37*
G36*
X515730D02*
X513569Y1021284D01*
X511541Y1020114D01*
X509886Y1018459D01*
X508716Y1016431D01*
X508137Y1014270D01*
X515730D01*
Y1021863D01*
D02*
G37*
G36*
X892270Y1019863D02*
Y1012270D01*
X899863D01*
X899284Y1014431D01*
X898114Y1016459D01*
X896459Y1018114D01*
X894431Y1019284D01*
X892270Y1019863D01*
D02*
G37*
G36*
X889730D02*
X887569Y1019284D01*
X885541Y1018114D01*
X883886Y1016459D01*
X882716Y1014431D01*
X882137Y1012270D01*
X889730D01*
Y1019863D01*
D02*
G37*
G36*
X640863Y1019730D02*
X633270D01*
Y1012137D01*
X635431Y1012716D01*
X637459Y1013886D01*
X639114Y1015541D01*
X640284Y1017569D01*
X640863Y1019730D01*
D02*
G37*
G36*
X630730D02*
X623137D01*
X623716Y1017569D01*
X624886Y1015541D01*
X626541Y1013886D01*
X628569Y1012716D01*
X630730Y1012137D01*
Y1019730D01*
D02*
G37*
G36*
X525863Y1011730D02*
X518270D01*
Y1004137D01*
X520431Y1004716D01*
X522459Y1005886D01*
X524114Y1007541D01*
X525284Y1009569D01*
X525863Y1011730D01*
D02*
G37*
G36*
X515730D02*
X508137D01*
X508716Y1009569D01*
X509886Y1007541D01*
X511541Y1005886D01*
X513569Y1004716D01*
X515730Y1004137D01*
Y1011730D01*
D02*
G37*
G36*
X899863Y1009730D02*
X892270D01*
Y1002137D01*
X894431Y1002716D01*
X896459Y1003886D01*
X898114Y1005541D01*
X899284Y1007569D01*
X899863Y1009730D01*
D02*
G37*
G36*
X889730D02*
X882137D01*
X882716Y1007569D01*
X883886Y1005541D01*
X885541Y1003886D01*
X887569Y1002716D01*
X889730Y1002137D01*
Y1009730D01*
D02*
G37*
G36*
X772089Y1026540D02*
X771270D01*
Y1001270D01*
X796540D01*
Y1002089D01*
X795887Y1006215D01*
X794596Y1010188D01*
X792699Y1013910D01*
X790244Y1017290D01*
X787290Y1020244D01*
X783910Y1022699D01*
X780188Y1024596D01*
X776215Y1025887D01*
X772089Y1026540D01*
D02*
G37*
G36*
X768730D02*
X767911D01*
X763785Y1025887D01*
X759812Y1024596D01*
X756090Y1022699D01*
X752710Y1020244D01*
X749756Y1017290D01*
X747301Y1013910D01*
X745404Y1010188D01*
X744113Y1006215D01*
X743460Y1002089D01*
Y1001270D01*
X768730D01*
Y1026540D01*
D02*
G37*
G36*
X432089D02*
X431270D01*
Y1001270D01*
X456540D01*
Y1002089D01*
X455886Y1006215D01*
X454596Y1010188D01*
X452699Y1013910D01*
X450244Y1017290D01*
X447290Y1020244D01*
X443910Y1022699D01*
X440188Y1024596D01*
X436215Y1025887D01*
X432089Y1026540D01*
D02*
G37*
G36*
X428730D02*
X427911D01*
X423785Y1025887D01*
X419812Y1024596D01*
X416090Y1022699D01*
X412710Y1020244D01*
X409756Y1017290D01*
X407301Y1013910D01*
X405404Y1010188D01*
X404114Y1006215D01*
X403460Y1002089D01*
Y1001270D01*
X428730D01*
Y1026540D01*
D02*
G37*
G36*
X991089Y1015540D02*
X990270D01*
Y990270D01*
X1015540D01*
Y991089D01*
X1014886Y995215D01*
X1013596Y999188D01*
X1011699Y1002910D01*
X1009244Y1006290D01*
X1006290Y1009244D01*
X1002910Y1011699D01*
X999188Y1013596D01*
X995215Y1014886D01*
X991089Y1015540D01*
D02*
G37*
G36*
X987730D02*
X986911D01*
X982785Y1014886D01*
X978812Y1013596D01*
X975090Y1011699D01*
X971710Y1009244D01*
X968756Y1006290D01*
X966301Y1002910D01*
X964404Y999188D01*
X963113Y995215D01*
X962460Y991089D01*
Y990270D01*
X987730D01*
Y1015540D01*
D02*
G37*
G36*
X213089D02*
X212270D01*
Y990270D01*
X237540D01*
Y991089D01*
X236887Y995215D01*
X235596Y999188D01*
X233699Y1002910D01*
X231244Y1006290D01*
X228290Y1009244D01*
X224910Y1011699D01*
X221188Y1013596D01*
X217215Y1014886D01*
X213089Y1015540D01*
D02*
G37*
G36*
X209730D02*
X208911D01*
X204785Y1014886D01*
X200812Y1013596D01*
X197090Y1011699D01*
X193710Y1009244D01*
X190756Y1006290D01*
X188301Y1002910D01*
X186404Y999188D01*
X185114Y995215D01*
X184460Y991089D01*
Y990270D01*
X209730D01*
Y1015540D01*
D02*
G37*
G36*
X796540Y998730D02*
X771270D01*
Y973460D01*
X772089D01*
X776215Y974113D01*
X780188Y975404D01*
X783910Y977301D01*
X787290Y979756D01*
X790244Y982710D01*
X792699Y986090D01*
X794596Y989812D01*
X795887Y993785D01*
X796540Y997911D01*
Y998730D01*
D02*
G37*
G36*
X768730D02*
X743460D01*
Y997911D01*
X744113Y993785D01*
X745404Y989812D01*
X747301Y986090D01*
X749756Y982710D01*
X752710Y979756D01*
X756090Y977301D01*
X759812Y975404D01*
X763785Y974113D01*
X767911Y973460D01*
X768730D01*
Y998730D01*
D02*
G37*
G36*
X456540D02*
X431270D01*
Y973460D01*
X432089D01*
X436215Y974113D01*
X440188Y975404D01*
X443910Y977301D01*
X447290Y979756D01*
X450244Y982710D01*
X452699Y986090D01*
X454596Y989812D01*
X455886Y993785D01*
X456540Y997911D01*
Y998730D01*
D02*
G37*
G36*
X428730D02*
X403460D01*
Y997911D01*
X404114Y993785D01*
X405404Y989812D01*
X407301Y986090D01*
X409756Y982710D01*
X412710Y979756D01*
X416090Y977301D01*
X419812Y975404D01*
X423785Y974113D01*
X427911Y973460D01*
X428730D01*
Y998730D01*
D02*
G37*
G36*
X1015540Y987730D02*
X990270D01*
Y962460D01*
X991089D01*
X995215Y963113D01*
X999188Y964404D01*
X1002910Y966301D01*
X1006290Y968756D01*
X1009244Y971710D01*
X1011699Y975090D01*
X1013596Y978812D01*
X1014886Y982785D01*
X1015540Y986911D01*
Y987730D01*
D02*
G37*
G36*
X987730D02*
X962460D01*
Y986911D01*
X963113Y982785D01*
X964404Y978812D01*
X966301Y975090D01*
X968756Y971710D01*
X971710Y968756D01*
X975090Y966301D01*
X978812Y964404D01*
X982785Y963113D01*
X986911Y962460D01*
X987730D01*
Y987730D01*
D02*
G37*
G36*
X237540D02*
X212270D01*
Y962460D01*
X213089D01*
X217215Y963113D01*
X221188Y964404D01*
X224910Y966301D01*
X228290Y968756D01*
X231244Y971710D01*
X233699Y975090D01*
X235596Y978812D01*
X236887Y982785D01*
X237540Y986911D01*
Y987730D01*
D02*
G37*
G36*
X209730D02*
X184460D01*
Y986911D01*
X185114Y982785D01*
X186404Y978812D01*
X188301Y975090D01*
X190756Y971710D01*
X193710Y968756D01*
X197090Y966301D01*
X200812Y964404D01*
X204785Y963113D01*
X208911Y962460D01*
X209730D01*
Y987730D01*
D02*
G37*
G36*
X618000Y951648D02*
X618000Y951648D01*
X439000D01*
X439000Y951648D01*
X435726Y951217D01*
X432676Y949954D01*
X430056Y947944D01*
X430056Y947943D01*
X411456Y929344D01*
X409446Y926724D01*
X408183Y923674D01*
X407752Y920400D01*
X407752Y920400D01*
Y791400D01*
X408183Y788126D01*
X409446Y785076D01*
X411456Y782456D01*
X414076Y780446D01*
X417126Y779183D01*
X420400Y778752D01*
X423674Y779183D01*
X426724Y780446D01*
X429344Y782456D01*
X431354Y785076D01*
X432617Y788126D01*
X433048Y791400D01*
Y915161D01*
X444239Y926352D01*
X612761D01*
X619352Y919761D01*
Y871200D01*
X619352Y871200D01*
X619783Y867926D01*
X621046Y864876D01*
X623056Y862256D01*
X645056Y840257D01*
X645056Y840256D01*
X647676Y838246D01*
X650726Y836983D01*
X654000Y836552D01*
X686561D01*
X697352Y825761D01*
Y729000D01*
X697352Y729000D01*
X697783Y725726D01*
X699046Y722676D01*
X701056Y720056D01*
X722056Y699056D01*
X722056Y699056D01*
X724676Y697046D01*
X727726Y695783D01*
X731000Y695352D01*
X891983D01*
X892509Y694082D01*
X891886Y693459D01*
X890716Y691431D01*
X890110Y689170D01*
Y686830D01*
X890716Y684569D01*
X891886Y682541D01*
X893541Y680886D01*
X895569Y679716D01*
X897830Y679110D01*
X900170D01*
X902431Y679716D01*
X904459Y680886D01*
X906114Y682541D01*
X907284Y684569D01*
X907890Y686830D01*
Y689170D01*
X907284Y691431D01*
X906114Y693459D01*
X905491Y694082D01*
X906017Y695352D01*
X937761D01*
X963552Y669561D01*
Y616400D01*
Y591000D01*
Y575439D01*
X773761Y385648D01*
X573439D01*
X532744Y426344D01*
X530124Y428354D01*
X527074Y429617D01*
X523800Y430048D01*
X520526Y429617D01*
X517476Y428354D01*
X514856Y426344D01*
X512846Y423724D01*
X511583Y420674D01*
X511152Y417400D01*
X511583Y414126D01*
X512846Y411076D01*
X514856Y408456D01*
X559256Y364056D01*
X559256Y364056D01*
X561876Y362046D01*
X564926Y360783D01*
X568200Y360352D01*
X568200Y360352D01*
X779000D01*
X779000Y360352D01*
X782274Y360783D01*
X785324Y362046D01*
X787944Y364056D01*
X985144Y561256D01*
X987154Y563876D01*
X988417Y566926D01*
X988848Y570200D01*
X988848Y570200D01*
Y591000D01*
Y603752D01*
X1001600D01*
X1004874Y604183D01*
X1007924Y605446D01*
X1010544Y607456D01*
X1012554Y610076D01*
X1013817Y613126D01*
X1014248Y616400D01*
X1013817Y619674D01*
X1012554Y622724D01*
X1010544Y625344D01*
X1007924Y627354D01*
X1004874Y628617D01*
X1001600Y629048D01*
X988848D01*
Y674800D01*
X988848Y674800D01*
X988417Y678074D01*
X987154Y681124D01*
X985144Y683744D01*
X985144Y683744D01*
X951944Y716944D01*
X949324Y718954D01*
X946274Y720217D01*
X943000Y720648D01*
X943000Y720648D01*
X736239D01*
X722648Y734239D01*
Y831000D01*
X722648Y831000D01*
X722217Y834274D01*
X720954Y837324D01*
X718944Y839944D01*
X700744Y858144D01*
X698124Y860154D01*
X695074Y861417D01*
X691800Y861848D01*
X691800Y861848D01*
X659239D01*
X644648Y876439D01*
Y925000D01*
X644648Y925000D01*
X644217Y928274D01*
X642954Y931324D01*
X640944Y933944D01*
X640944Y933944D01*
X626944Y947944D01*
X624324Y949954D01*
X621274Y951217D01*
X618000Y951648D01*
D02*
G37*
G36*
X1065040Y924840D02*
X1038960D01*
Y924448D01*
X889040D01*
Y924640D01*
X862960D01*
Y898560D01*
X869135D01*
X869475Y897290D01*
X867993Y896435D01*
X865565Y894007D01*
X863849Y891033D01*
X862960Y887717D01*
Y887270D01*
X876000D01*
X889040D01*
Y887717D01*
X888151Y891033D01*
X886435Y894007D01*
X884007Y896435D01*
X882525Y897290D01*
X882866Y898560D01*
X889040D01*
Y899152D01*
X1038960D01*
Y898760D01*
X1045135D01*
X1045475Y897490D01*
X1043993Y896635D01*
X1041565Y894207D01*
X1039849Y891233D01*
X1038960Y887917D01*
Y887470D01*
X1052000D01*
X1065040D01*
Y887917D01*
X1064151Y891233D01*
X1062435Y894207D01*
X1060007Y896635D01*
X1058525Y897490D01*
X1058866Y898760D01*
X1065040D01*
Y924840D01*
D02*
G37*
G36*
X278270Y915863D02*
Y908270D01*
X285863D01*
X285284Y910431D01*
X284114Y912459D01*
X282459Y914114D01*
X280431Y915284D01*
X278270Y915863D01*
D02*
G37*
G36*
X275730D02*
X273569Y915284D01*
X271541Y914114D01*
X269886Y912459D01*
X268716Y910431D01*
X268137Y908270D01*
X275730D01*
Y915863D01*
D02*
G37*
G36*
X285863Y905730D02*
X278270D01*
Y898137D01*
X280431Y898716D01*
X282459Y899886D01*
X284114Y901541D01*
X285284Y903569D01*
X285863Y905730D01*
D02*
G37*
G36*
X275730D02*
X268137D01*
X268716Y903569D01*
X269886Y901541D01*
X271541Y899886D01*
X273569Y898716D01*
X275730Y898137D01*
Y905730D01*
D02*
G37*
G36*
X533840Y910040D02*
X513760D01*
Y889960D01*
X533840D01*
Y910040D01*
D02*
G37*
G36*
X677522Y884640D02*
X677470D01*
Y875870D01*
X686240D01*
Y875922D01*
X685556Y878475D01*
X684234Y880765D01*
X682365Y882634D01*
X680075Y883956D01*
X677522Y884640D01*
D02*
G37*
G36*
X674930D02*
X674878D01*
X672325Y883956D01*
X670035Y882634D01*
X668166Y880765D01*
X666844Y878475D01*
X666160Y875922D01*
Y875870D01*
X674930D01*
Y884640D01*
D02*
G37*
G36*
X1065040Y884930D02*
X1053270D01*
Y873160D01*
X1053717D01*
X1057033Y874049D01*
X1060007Y875765D01*
X1062435Y878193D01*
X1064151Y881167D01*
X1065040Y884483D01*
Y884930D01*
D02*
G37*
G36*
X1050730D02*
X1038960D01*
Y884483D01*
X1039849Y881167D01*
X1041565Y878193D01*
X1043993Y875765D01*
X1046967Y874049D01*
X1050283Y873160D01*
X1050730D01*
Y884930D01*
D02*
G37*
G36*
X960270Y874863D02*
Y867270D01*
X967863D01*
X967284Y869431D01*
X966114Y871459D01*
X964459Y873114D01*
X962431Y874284D01*
X960270Y874863D01*
D02*
G37*
G36*
X957730D02*
X955569Y874284D01*
X953541Y873114D01*
X951886Y871459D01*
X950716Y869431D01*
X950137Y867270D01*
X957730D01*
Y874863D01*
D02*
G37*
G36*
X686240Y873330D02*
X677470D01*
Y864560D01*
X677522D01*
X680075Y865244D01*
X682365Y866566D01*
X684234Y868435D01*
X685556Y870725D01*
X686240Y873278D01*
Y873330D01*
D02*
G37*
G36*
X674930D02*
X666160D01*
Y873278D01*
X666844Y870725D01*
X668166Y868435D01*
X670035Y866566D01*
X672325Y865244D01*
X674878Y864560D01*
X674930D01*
Y873330D01*
D02*
G37*
G36*
X525122Y884640D02*
X522478D01*
X519925Y883956D01*
X517635Y882634D01*
X515766Y880765D01*
X514444Y878475D01*
X513760Y875922D01*
Y873278D01*
X514444Y870725D01*
X515766Y868435D01*
X517635Y866566D01*
X519925Y865244D01*
X522478Y864560D01*
X525122D01*
X527675Y865244D01*
X529965Y866566D01*
X531834Y868435D01*
X533156Y870725D01*
X533840Y873278D01*
Y875922D01*
X533156Y878475D01*
X531834Y880765D01*
X529965Y882634D01*
X527675Y883956D01*
X525122Y884640D01*
D02*
G37*
G36*
X967863Y864730D02*
X960270D01*
Y857137D01*
X962431Y857716D01*
X964459Y858886D01*
X966114Y860541D01*
X967284Y862569D01*
X967863Y864730D01*
D02*
G37*
G36*
X957730D02*
X950137D01*
X950716Y862569D01*
X951886Y860541D01*
X953541Y858886D01*
X955569Y857716D01*
X957730Y857137D01*
Y864730D01*
D02*
G37*
G36*
X889040Y884730D02*
X876000D01*
X862960D01*
Y884283D01*
X863849Y880967D01*
X865565Y877993D01*
X867993Y875565D01*
X870153Y874318D01*
X869813Y873048D01*
X847400D01*
X844126Y872617D01*
X841076Y871354D01*
X838456Y869344D01*
X838456Y869343D01*
X817056Y847944D01*
X815046Y845324D01*
X813783Y842274D01*
X813352Y839000D01*
X813352Y839000D01*
Y810265D01*
X813300Y810072D01*
Y806728D01*
X814165Y803498D01*
X815837Y800602D01*
X818202Y798238D01*
X821098Y796565D01*
X821875Y796357D01*
Y795043D01*
X821098Y794835D01*
X818202Y793163D01*
X815837Y790798D01*
X814165Y787902D01*
X813300Y784672D01*
Y784270D01*
X826000D01*
X838700D01*
Y784672D01*
X837834Y787902D01*
X836162Y790798D01*
X833798Y793163D01*
X830902Y794835D01*
X830125Y795043D01*
Y796357D01*
X830902Y796565D01*
X833798Y798238D01*
X836162Y800602D01*
X837834Y803498D01*
X838700Y806728D01*
Y810072D01*
X838648Y810265D01*
Y833761D01*
X852639Y847752D01*
X872821D01*
X874283Y847360D01*
X877717D01*
X881033Y848249D01*
X884007Y849965D01*
X886435Y852393D01*
X888151Y855367D01*
X889040Y858683D01*
Y862117D01*
X888151Y865433D01*
X886435Y868407D01*
X884007Y870835D01*
X881054Y872539D01*
X880982Y872828D01*
Y873572D01*
X881054Y873861D01*
X884007Y875565D01*
X886435Y877993D01*
X888151Y880967D01*
X889040Y884283D01*
Y884730D01*
D02*
G37*
G36*
X525122Y859240D02*
X522478D01*
X519925Y858556D01*
X517635Y857234D01*
X515766Y855365D01*
X514444Y853075D01*
X513760Y850522D01*
Y847878D01*
X514444Y845325D01*
X515766Y843035D01*
X517635Y841166D01*
X519925Y839844D01*
X522478Y839160D01*
X525122D01*
X527675Y839844D01*
X529965Y841166D01*
X531834Y843035D01*
X533156Y845325D01*
X533840Y847878D01*
Y850522D01*
X533156Y853075D01*
X531834Y855365D01*
X529965Y857234D01*
X527675Y858556D01*
X525122Y859240D01*
D02*
G37*
G36*
X1082270Y826863D02*
Y819270D01*
X1089863D01*
X1089284Y821431D01*
X1088114Y823459D01*
X1086459Y825114D01*
X1084431Y826284D01*
X1082270Y826863D01*
D02*
G37*
G36*
X1079730D02*
X1077569Y826284D01*
X1075541Y825114D01*
X1073886Y823459D01*
X1072716Y821431D01*
X1072137Y819270D01*
X1079730D01*
Y826863D01*
D02*
G37*
G36*
X677522Y833840D02*
X674878D01*
X672325Y833156D01*
X670035Y831834D01*
X668166Y829965D01*
X666844Y827675D01*
X666160Y825122D01*
Y822478D01*
X666844Y819925D01*
X668166Y817635D01*
X670035Y815766D01*
X672325Y814444D01*
X674878Y813760D01*
X677522D01*
X680075Y814444D01*
X682365Y815766D01*
X684234Y817635D01*
X685556Y819925D01*
X686240Y822478D01*
Y825122D01*
X685556Y827675D01*
X684234Y829965D01*
X682365Y831834D01*
X680075Y833156D01*
X677522Y833840D01*
D02*
G37*
G36*
X525122D02*
X522478D01*
X519925Y833156D01*
X517635Y831834D01*
X515766Y829965D01*
X514444Y827675D01*
X513760Y825122D01*
Y822478D01*
X514444Y819925D01*
X515766Y817635D01*
X517635Y815766D01*
X519925Y814444D01*
X522478Y813760D01*
X525122D01*
X527675Y814444D01*
X529965Y815766D01*
X531834Y817635D01*
X533156Y819925D01*
X533840Y822478D01*
Y825122D01*
X533156Y827675D01*
X531834Y829965D01*
X529965Y831834D01*
X527675Y833156D01*
X525122Y833840D01*
D02*
G37*
G36*
X1089863Y816730D02*
X1082270D01*
Y809137D01*
X1084431Y809716D01*
X1086459Y810886D01*
X1088114Y812541D01*
X1089284Y814569D01*
X1089863Y816730D01*
D02*
G37*
G36*
X1079730D02*
X1072137D01*
X1072716Y814569D01*
X1073886Y812541D01*
X1075541Y810886D01*
X1077569Y809716D01*
X1079730Y809137D01*
Y816730D01*
D02*
G37*
G36*
X677522Y808440D02*
X674878D01*
X672325Y807756D01*
X670035Y806434D01*
X668166Y804565D01*
X666844Y802275D01*
X666160Y799722D01*
Y797078D01*
X666844Y794525D01*
X668166Y792235D01*
X670035Y790366D01*
X672325Y789044D01*
X674878Y788360D01*
X677522D01*
X680075Y789044D01*
X682365Y790366D01*
X684234Y792235D01*
X685556Y794525D01*
X686240Y797078D01*
Y799722D01*
X685556Y802275D01*
X684234Y804565D01*
X682365Y806434D01*
X680075Y807756D01*
X677522Y808440D01*
D02*
G37*
G36*
X525122D02*
X522478D01*
X519925Y807756D01*
X517635Y806434D01*
X515766Y804565D01*
X515174Y803539D01*
X495400D01*
X493433Y803148D01*
X491766Y802034D01*
X480366Y790634D01*
X479252Y788967D01*
X478861Y787000D01*
Y543129D01*
X440872Y505139D01*
X245381D01*
X244434Y506779D01*
X242379Y508834D01*
X239861Y510288D01*
X237054Y511040D01*
X234147D01*
X231339Y510288D01*
X228821Y508834D01*
X226766Y506779D01*
X225312Y504261D01*
X224560Y501453D01*
Y498547D01*
X225312Y495739D01*
X226766Y493221D01*
X228821Y491166D01*
X231339Y489712D01*
X234147Y488960D01*
X237054D01*
X239861Y489712D01*
X242379Y491166D01*
X244434Y493221D01*
X245381Y494861D01*
X443000D01*
X444967Y495252D01*
X446634Y496366D01*
X487634Y537366D01*
X488748Y539034D01*
X489139Y541000D01*
Y784872D01*
X497528Y793261D01*
X515174D01*
X515766Y792235D01*
X517635Y790366D01*
X519925Y789044D01*
X522478Y788360D01*
X525122D01*
X527675Y789044D01*
X529965Y790366D01*
X531834Y792235D01*
X533156Y794525D01*
X533840Y797078D01*
Y799722D01*
X533156Y802275D01*
X531834Y804565D01*
X529965Y806434D01*
X527675Y807756D01*
X525122Y808440D01*
D02*
G37*
G36*
X770338Y793160D02*
X770270D01*
Y784270D01*
X779160D01*
Y784338D01*
X778468Y786922D01*
X777130Y789239D01*
X775238Y791130D01*
X772922Y792468D01*
X770338Y793160D01*
D02*
G37*
G36*
X767730D02*
X767662D01*
X765078Y792468D01*
X762762Y791130D01*
X760870Y789239D01*
X759532Y786922D01*
X758840Y784338D01*
Y784270D01*
X767730D01*
Y793160D01*
D02*
G37*
G36*
X996330Y823640D02*
X994402D01*
Y784270D01*
X1033772D01*
Y786199D01*
X1032771Y792517D01*
X1030795Y798600D01*
X1027890Y804300D01*
X1024130Y809475D01*
X1019607Y813998D01*
X1014432Y817758D01*
X1008732Y820663D01*
X1002649Y822639D01*
X996330Y823640D01*
D02*
G37*
G36*
X991862D02*
X989934D01*
X983615Y822639D01*
X977532Y820663D01*
X971832Y817758D01*
X966657Y813998D01*
X962133Y809475D01*
X958373Y804300D01*
X955469Y798600D01*
X953493Y792517D01*
X952492Y786199D01*
Y784270D01*
X991862D01*
Y823640D01*
D02*
G37*
G36*
X396322Y801440D02*
X393678D01*
X391125Y800756D01*
X388835Y799434D01*
X386966Y797565D01*
X385644Y795275D01*
X384960Y792722D01*
Y790078D01*
X385644Y787525D01*
X386966Y785235D01*
X388835Y783366D01*
X391125Y782044D01*
X393678Y781360D01*
X396322D01*
X398875Y782044D01*
X401165Y783366D01*
X403034Y785235D01*
X404356Y787525D01*
X405040Y790078D01*
Y792722D01*
X404356Y795275D01*
X403034Y797565D01*
X401165Y799434D01*
X398875Y800756D01*
X396322Y801440D01*
D02*
G37*
G36*
X779160Y781730D02*
X770270D01*
Y772840D01*
X770338D01*
X772922Y773532D01*
X775238Y774870D01*
X777130Y776762D01*
X778468Y779079D01*
X779160Y781663D01*
Y781730D01*
D02*
G37*
G36*
X767730D02*
X758840D01*
Y781663D01*
X759532Y779079D01*
X760870Y776762D01*
X762762Y774870D01*
X765078Y773532D01*
X767662Y772840D01*
X767730D01*
Y781730D01*
D02*
G37*
G36*
X151270Y776863D02*
Y769270D01*
X158863D01*
X158284Y771431D01*
X157114Y773459D01*
X155459Y775114D01*
X153431Y776284D01*
X151270Y776863D01*
D02*
G37*
G36*
X148730D02*
X146569Y776284D01*
X144541Y775114D01*
X142886Y773459D01*
X141716Y771431D01*
X141137Y769270D01*
X148730D01*
Y776863D01*
D02*
G37*
G36*
X677522Y783040D02*
X674878D01*
X672325Y782356D01*
X670035Y781034D01*
X668166Y779165D01*
X666844Y776875D01*
X666160Y774322D01*
Y771678D01*
X666844Y769125D01*
X668166Y766835D01*
X670035Y764966D01*
X672325Y763644D01*
X674878Y762960D01*
X677522D01*
X680075Y763644D01*
X682365Y764966D01*
X684234Y766835D01*
X685556Y769125D01*
X686240Y771678D01*
Y774322D01*
X685556Y776875D01*
X684234Y779165D01*
X682365Y781034D01*
X680075Y782356D01*
X677522Y783040D01*
D02*
G37*
G36*
X525122D02*
X522478D01*
X519925Y782356D01*
X517635Y781034D01*
X515766Y779165D01*
X514444Y776875D01*
X513760Y774322D01*
Y771678D01*
X514444Y769125D01*
X515766Y766835D01*
X517635Y764966D01*
X519925Y763644D01*
X522478Y762960D01*
X525122D01*
X527675Y763644D01*
X529965Y764966D01*
X531834Y766835D01*
X533156Y769125D01*
X533840Y771678D01*
Y774322D01*
X533156Y776875D01*
X531834Y779165D01*
X529965Y781034D01*
X527675Y782356D01*
X525122Y783040D01*
D02*
G37*
G36*
X292270Y766863D02*
Y759270D01*
X299863D01*
X299284Y761431D01*
X298114Y763459D01*
X296459Y765114D01*
X294431Y766284D01*
X292270Y766863D01*
D02*
G37*
G36*
X289730D02*
X287569Y766284D01*
X285541Y765114D01*
X283886Y763459D01*
X282716Y761431D01*
X282137Y759270D01*
X289730D01*
Y766863D01*
D02*
G37*
G36*
X158863Y766730D02*
X151270D01*
Y759137D01*
X153431Y759716D01*
X155459Y760886D01*
X157114Y762541D01*
X158284Y764569D01*
X158863Y766730D01*
D02*
G37*
G36*
X148730D02*
X141137D01*
X141716Y764569D01*
X142886Y762541D01*
X144541Y760886D01*
X146569Y759716D01*
X148730Y759137D01*
Y766730D01*
D02*
G37*
G36*
X421722Y776040D02*
X419078D01*
X416525Y775356D01*
X414235Y774034D01*
X412366Y772165D01*
X411044Y769875D01*
X410360Y767322D01*
Y764678D01*
X411044Y762125D01*
X412366Y759835D01*
X414235Y757966D01*
X416525Y756644D01*
X419078Y755960D01*
X421722D01*
X424275Y756644D01*
X426565Y757966D01*
X428434Y759835D01*
X429756Y762125D01*
X430440Y764678D01*
Y767322D01*
X429756Y769875D01*
X428434Y772165D01*
X426565Y774034D01*
X424275Y775356D01*
X421722Y776040D01*
D02*
G37*
G36*
X396322D02*
X393678D01*
X391125Y775356D01*
X388835Y774034D01*
X386966Y772165D01*
X385644Y769875D01*
X384960Y767322D01*
Y764678D01*
X385644Y762125D01*
X386966Y759835D01*
X388835Y757966D01*
X391125Y756644D01*
X393678Y755960D01*
X396322D01*
X398875Y756644D01*
X401165Y757966D01*
X403034Y759835D01*
X404356Y762125D01*
X405040Y764678D01*
Y767322D01*
X404356Y769875D01*
X403034Y772165D01*
X401165Y774034D01*
X398875Y775356D01*
X396322Y776040D01*
D02*
G37*
G36*
X299863Y756730D02*
X292270D01*
Y749137D01*
X294431Y749716D01*
X296459Y750886D01*
X298114Y752541D01*
X299284Y754569D01*
X299863Y756730D01*
D02*
G37*
G36*
X289730D02*
X282137D01*
X282716Y754569D01*
X283886Y752541D01*
X285541Y750886D01*
X287569Y749716D01*
X289730Y749137D01*
Y756730D01*
D02*
G37*
G36*
X1108270Y754863D02*
Y747270D01*
X1115863D01*
X1115284Y749431D01*
X1114114Y751459D01*
X1112459Y753114D01*
X1110431Y754284D01*
X1108270Y754863D01*
D02*
G37*
G36*
X1105730D02*
X1103569Y754284D01*
X1101541Y753114D01*
X1099886Y751459D01*
X1098716Y749431D01*
X1098137Y747270D01*
X1105730D01*
Y754863D01*
D02*
G37*
G36*
X705000Y912648D02*
X705000Y912648D01*
X676200D01*
X672926Y912217D01*
X669876Y910954D01*
X668685Y910040D01*
X666160D01*
Y907515D01*
X665246Y906324D01*
X663983Y903274D01*
X663552Y900000D01*
X663983Y896726D01*
X665246Y893676D01*
X666160Y892485D01*
Y889960D01*
X668685D01*
X669876Y889046D01*
X672926Y887783D01*
X676200Y887352D01*
X699761D01*
X727352Y859761D01*
Y775000D01*
X727352Y775000D01*
X727783Y771726D01*
X729046Y768676D01*
X731056Y766056D01*
X748056Y749056D01*
X748056Y749056D01*
X750676Y747046D01*
X753726Y745783D01*
X757000Y745352D01*
X766362D01*
X769400Y744952D01*
X824135D01*
X824328Y744900D01*
X827672D01*
X830902Y745766D01*
X833798Y747438D01*
X836162Y749802D01*
X837834Y752698D01*
X838700Y755928D01*
Y759272D01*
X837834Y762502D01*
X836162Y765398D01*
X833798Y767763D01*
X830902Y769435D01*
X830042Y769665D01*
Y770935D01*
X830902Y771165D01*
X833798Y772838D01*
X836162Y775202D01*
X837834Y778098D01*
X838700Y781328D01*
Y781730D01*
X826000D01*
X813300D01*
Y781328D01*
X814165Y778098D01*
X815837Y775202D01*
X818202Y772838D01*
X820487Y771518D01*
X820147Y770248D01*
X772038D01*
X769000Y770648D01*
X762239D01*
X752648Y780239D01*
Y865000D01*
X752648Y865000D01*
X752217Y868274D01*
X750954Y871324D01*
X748944Y873944D01*
X748943Y873944D01*
X713944Y908944D01*
X711324Y910954D01*
X708274Y912217D01*
X705000Y912648D01*
D02*
G37*
G36*
X1033772Y781730D02*
X994402D01*
Y742360D01*
X996330D01*
X1002649Y743361D01*
X1008732Y745337D01*
X1014432Y748242D01*
X1019607Y752001D01*
X1024130Y756525D01*
X1027890Y761700D01*
X1030795Y767400D01*
X1032771Y773483D01*
X1033772Y779802D01*
Y781730D01*
D02*
G37*
G36*
X991862D02*
X952492D01*
Y779802D01*
X953493Y773483D01*
X955469Y767400D01*
X958373Y761700D01*
X962133Y756525D01*
X966657Y752001D01*
X971832Y748242D01*
X977532Y745337D01*
X983615Y743361D01*
X989934Y742360D01*
X991862D01*
Y781730D01*
D02*
G37*
G36*
X677522Y757640D02*
X674878D01*
X672325Y756956D01*
X670035Y755634D01*
X668166Y753765D01*
X666844Y751475D01*
X666160Y748922D01*
Y746278D01*
X666844Y743725D01*
X668166Y741435D01*
X670035Y739566D01*
X672325Y738244D01*
X674878Y737560D01*
X677522D01*
X680075Y738244D01*
X682365Y739566D01*
X684234Y741435D01*
X685556Y743725D01*
X686240Y746278D01*
Y748922D01*
X685556Y751475D01*
X684234Y753765D01*
X682365Y755634D01*
X680075Y756956D01*
X677522Y757640D01*
D02*
G37*
G36*
X525122D02*
X522478D01*
X519925Y756956D01*
X517635Y755634D01*
X515766Y753765D01*
X514444Y751475D01*
X513760Y748922D01*
Y746278D01*
X514444Y743725D01*
X515766Y741435D01*
X517635Y739566D01*
X519925Y738244D01*
X522478Y737560D01*
X525122D01*
X527675Y738244D01*
X529965Y739566D01*
X531834Y741435D01*
X533156Y743725D01*
X533840Y746278D01*
Y748922D01*
X533156Y751475D01*
X531834Y753765D01*
X529965Y755634D01*
X527675Y756956D01*
X525122Y757640D01*
D02*
G37*
G36*
X1115863Y744730D02*
X1108270D01*
Y737137D01*
X1110431Y737716D01*
X1112459Y738886D01*
X1114114Y740541D01*
X1115284Y742569D01*
X1115863Y744730D01*
D02*
G37*
G36*
X1105730D02*
X1098137D01*
X1098716Y742569D01*
X1099886Y740541D01*
X1101541Y738886D01*
X1103569Y737716D01*
X1105730Y737137D01*
Y744730D01*
D02*
G37*
G36*
X421722Y750640D02*
X419078D01*
X416525Y749956D01*
X414235Y748634D01*
X412366Y746765D01*
X411044Y744475D01*
X410360Y741922D01*
Y739278D01*
X411044Y736725D01*
X412366Y734435D01*
X414235Y732566D01*
X416525Y731244D01*
X419078Y730560D01*
X421722D01*
X424275Y731244D01*
X426565Y732566D01*
X428434Y734435D01*
X429756Y736725D01*
X430440Y739278D01*
Y741922D01*
X429756Y744475D01*
X428434Y746765D01*
X426565Y748634D01*
X424275Y749956D01*
X421722Y750640D01*
D02*
G37*
G36*
X396322D02*
X393678D01*
X391125Y749956D01*
X388835Y748634D01*
X386966Y746765D01*
X385644Y744475D01*
X384960Y741922D01*
Y739278D01*
X385644Y736725D01*
X386966Y734435D01*
X388835Y732566D01*
X391125Y731244D01*
X393678Y730560D01*
X396322D01*
X398875Y731244D01*
X401165Y732566D01*
X403034Y734435D01*
X404356Y736725D01*
X405040Y739278D01*
Y741922D01*
X404356Y744475D01*
X403034Y746765D01*
X401165Y748634D01*
X398875Y749956D01*
X396322Y750640D01*
D02*
G37*
G36*
X580636Y726176D02*
Y718583D01*
X588229D01*
X587650Y720744D01*
X586479Y722771D01*
X584824Y724426D01*
X582797Y725597D01*
X580636Y726176D01*
D02*
G37*
G36*
X578096D02*
X575934Y725597D01*
X573907Y724426D01*
X572252Y722771D01*
X571082Y720744D01*
X570502Y718583D01*
X578096D01*
Y726176D01*
D02*
G37*
G36*
X396322Y725240D02*
X396270D01*
Y716470D01*
X405040D01*
Y716522D01*
X404356Y719075D01*
X403034Y721365D01*
X401165Y723234D01*
X398875Y724556D01*
X396322Y725240D01*
D02*
G37*
G36*
X393730D02*
X393678D01*
X391125Y724556D01*
X388835Y723234D01*
X386966Y721365D01*
X385644Y719075D01*
X384960Y716522D01*
Y716470D01*
X393730D01*
Y725240D01*
D02*
G37*
G36*
X677522Y732240D02*
X674878D01*
X672325Y731556D01*
X670035Y730234D01*
X668166Y728365D01*
X666844Y726075D01*
X666160Y723522D01*
Y720878D01*
X666844Y718325D01*
X668166Y716035D01*
X670035Y714166D01*
X672325Y712844D01*
X674878Y712160D01*
X677522D01*
X680075Y712844D01*
X682365Y714166D01*
X684234Y716035D01*
X685556Y718325D01*
X686240Y720878D01*
Y723522D01*
X685556Y726075D01*
X684234Y728365D01*
X682365Y730234D01*
X680075Y731556D01*
X677522Y732240D01*
D02*
G37*
G36*
X525122D02*
X522478D01*
X519925Y731556D01*
X517635Y730234D01*
X515766Y728365D01*
X514444Y726075D01*
X513760Y723522D01*
Y720878D01*
X514444Y718325D01*
X515766Y716035D01*
X517635Y714166D01*
X519925Y712844D01*
X522478Y712160D01*
X525122D01*
X527675Y712844D01*
X529965Y714166D01*
X531834Y716035D01*
X533156Y718325D01*
X533840Y720878D01*
Y723522D01*
X533156Y726075D01*
X531834Y728365D01*
X529965Y730234D01*
X527675Y731556D01*
X525122Y732240D01*
D02*
G37*
G36*
X588229Y716042D02*
X580636D01*
Y708449D01*
X582797Y709028D01*
X584824Y710199D01*
X586479Y711854D01*
X587650Y713881D01*
X588229Y716042D01*
D02*
G37*
G36*
X578096D02*
X570502D01*
X571082Y713881D01*
X572252Y711854D01*
X573907Y710199D01*
X575934Y709028D01*
X578096Y708449D01*
Y716042D01*
D02*
G37*
G36*
X425420Y725240D02*
X415380D01*
X410360Y720220D01*
Y710180D01*
X415380Y705160D01*
X425420D01*
X430440Y710180D01*
Y720220D01*
X425420Y725240D01*
D02*
G37*
G36*
X405040Y713930D02*
X396270D01*
Y705160D01*
X396322D01*
X398875Y705844D01*
X401165Y707166D01*
X403034Y709035D01*
X404356Y711325D01*
X405040Y713878D01*
Y713930D01*
D02*
G37*
G36*
X393730D02*
X384960D01*
Y713878D01*
X385644Y711325D01*
X386966Y709035D01*
X388835Y707166D01*
X391125Y705844D01*
X393678Y705160D01*
X393730D01*
Y713930D01*
D02*
G37*
G36*
X677522Y706840D02*
X674878D01*
X672325Y706156D01*
X670035Y704834D01*
X668166Y702965D01*
X666844Y700675D01*
X666160Y698122D01*
Y695478D01*
X666844Y692925D01*
X668166Y690635D01*
X670035Y688766D01*
X672325Y687444D01*
X674878Y686760D01*
X677522D01*
X680075Y687444D01*
X682365Y688766D01*
X684234Y690635D01*
X685556Y692925D01*
X686240Y695478D01*
Y698122D01*
X685556Y700675D01*
X684234Y702965D01*
X682365Y704834D01*
X680075Y706156D01*
X677522Y706840D01*
D02*
G37*
G36*
X525122D02*
X522478D01*
X519925Y706156D01*
X517635Y704834D01*
X515766Y702965D01*
X514444Y700675D01*
X513760Y698122D01*
Y695478D01*
X514444Y692925D01*
X515766Y690635D01*
X517635Y688766D01*
X519925Y687444D01*
X522478Y686760D01*
X525122D01*
X527675Y687444D01*
X529965Y688766D01*
X531834Y690635D01*
X533156Y692925D01*
X533840Y695478D01*
Y698122D01*
X533156Y700675D01*
X531834Y702965D01*
X529965Y704834D01*
X527675Y706156D01*
X525122Y706840D01*
D02*
G37*
G36*
X1017270Y673863D02*
Y666270D01*
X1024863D01*
X1024284Y668431D01*
X1023114Y670459D01*
X1021459Y672114D01*
X1019431Y673284D01*
X1017270Y673863D01*
D02*
G37*
G36*
X1014730D02*
X1012569Y673284D01*
X1010541Y672114D01*
X1008886Y670459D01*
X1007716Y668431D01*
X1007137Y666270D01*
X1014730D01*
Y673863D01*
D02*
G37*
G36*
X876000Y686139D02*
X738000D01*
X736033Y685748D01*
X734366Y684634D01*
X713411Y663679D01*
X684337D01*
X683851Y664852D01*
X684234Y665235D01*
X685556Y667525D01*
X686240Y670078D01*
Y672722D01*
X685556Y675275D01*
X684234Y677565D01*
X682365Y679434D01*
X680075Y680756D01*
X677522Y681440D01*
X674878D01*
X672325Y680756D01*
X670035Y679434D01*
X668166Y677565D01*
X666844Y675275D01*
X666160Y672722D01*
Y670078D01*
X666844Y667525D01*
X668166Y665235D01*
X668549Y664852D01*
X668063Y663679D01*
X591540D01*
X589574Y663288D01*
X587906Y662174D01*
X576871Y651139D01*
X532426D01*
X531834Y652165D01*
X529965Y654034D01*
X527675Y655356D01*
X525122Y656040D01*
X522478D01*
X519925Y655356D01*
X517635Y654034D01*
X515766Y652165D01*
X514444Y649875D01*
X513760Y647322D01*
Y644678D01*
X514444Y642125D01*
X515766Y639835D01*
X517635Y637966D01*
X519925Y636644D01*
X522478Y635960D01*
X525122D01*
X527675Y636644D01*
X529965Y637966D01*
X531834Y639835D01*
X532426Y640861D01*
X579000D01*
X580966Y641252D01*
X582634Y642366D01*
X593669Y653401D01*
X667743D01*
X668229Y652228D01*
X668166Y652165D01*
X666844Y649875D01*
X666160Y647322D01*
Y644678D01*
X666844Y642125D01*
X668166Y639835D01*
X668229Y639772D01*
X667743Y638599D01*
X594460D01*
X592494Y638208D01*
X590826Y637094D01*
X578871Y625139D01*
X532773D01*
X531834Y626765D01*
X529965Y628634D01*
X527675Y629956D01*
X525122Y630640D01*
X522478D01*
X519925Y629956D01*
X517635Y628634D01*
X515766Y626765D01*
X514444Y624475D01*
X513760Y621922D01*
Y619278D01*
X514444Y616725D01*
X515766Y614435D01*
X517635Y612566D01*
X519925Y611244D01*
X522478Y610560D01*
X525122D01*
X527675Y611244D01*
X529965Y612566D01*
X531834Y614435D01*
X532080Y614861D01*
X581000D01*
X582966Y615252D01*
X584634Y616366D01*
X596589Y628321D01*
X668063D01*
X668549Y627148D01*
X668166Y626765D01*
X666844Y624475D01*
X666160Y621922D01*
Y619278D01*
X666844Y616725D01*
X668166Y614435D01*
X668289Y614312D01*
X667803Y613139D01*
X597000D01*
X595033Y612748D01*
X593366Y611634D01*
X582071Y600339D01*
X532426D01*
X531834Y601365D01*
X529965Y603234D01*
X527675Y604556D01*
X525122Y605240D01*
X522478D01*
X519925Y604556D01*
X517635Y603234D01*
X515766Y601365D01*
X514444Y599075D01*
X513760Y596522D01*
Y593878D01*
X514444Y591325D01*
X515766Y589035D01*
X517635Y587166D01*
X519925Y585844D01*
X522478Y585160D01*
X525122D01*
X527675Y585844D01*
X529965Y587166D01*
X531834Y589035D01*
X532426Y590061D01*
X584200D01*
X586166Y590452D01*
X587834Y591566D01*
X599128Y602861D01*
X668003D01*
X668489Y601688D01*
X668166Y601365D01*
X666844Y599075D01*
X666160Y596522D01*
Y593878D01*
X666844Y591325D01*
X668166Y589035D01*
X668549Y588652D01*
X668063Y587479D01*
X596340D01*
X594374Y587088D01*
X592706Y585974D01*
X580872Y574139D01*
X532888D01*
X531834Y575965D01*
X529965Y577834D01*
X527675Y579156D01*
X525122Y579840D01*
X522478D01*
X519925Y579156D01*
X517635Y577834D01*
X515766Y575965D01*
X514444Y573675D01*
X513760Y571122D01*
Y568478D01*
X514444Y565925D01*
X515766Y563635D01*
X517635Y561766D01*
X519925Y560444D01*
X522478Y559760D01*
X525122D01*
X527675Y560444D01*
X529965Y561766D01*
X531834Y563635D01*
X531964Y563861D01*
X583000D01*
X584967Y564252D01*
X586634Y565366D01*
X598469Y577201D01*
X667743D01*
X668229Y576028D01*
X668166Y575965D01*
X666844Y573675D01*
X666160Y571122D01*
Y568478D01*
X666844Y565925D01*
X668166Y563635D01*
X668489Y563312D01*
X668003Y562139D01*
X599000D01*
X597034Y561748D01*
X595366Y560634D01*
X583871Y549139D01*
X532657D01*
X531834Y550565D01*
X529965Y552434D01*
X527675Y553756D01*
X525122Y554440D01*
X522478D01*
X519925Y553756D01*
X517635Y552434D01*
X515766Y550565D01*
X514444Y548275D01*
X513760Y545722D01*
Y543078D01*
X514444Y540525D01*
X515766Y538235D01*
X517635Y536366D01*
X519925Y535044D01*
X522478Y534360D01*
X525122D01*
X527675Y535044D01*
X529965Y536366D01*
X531834Y538235D01*
X532195Y538861D01*
X586000D01*
X587966Y539252D01*
X589634Y540366D01*
X601129Y551861D01*
X667803D01*
X668289Y550688D01*
X668166Y550565D01*
X666844Y548275D01*
X666160Y545722D01*
Y543078D01*
X666844Y540525D01*
X668066Y538409D01*
X667668Y537139D01*
X579000D01*
X577034Y536748D01*
X575366Y535634D01*
X567872Y528139D01*
X562299D01*
X562114Y528459D01*
X560459Y530114D01*
X558431Y531284D01*
X556170Y531890D01*
X553830D01*
X551569Y531284D01*
X549541Y530114D01*
X547886Y528459D01*
X546716Y526431D01*
X546110Y524170D01*
Y521830D01*
X546716Y519569D01*
X547886Y517541D01*
X549541Y515886D01*
X551569Y514716D01*
X553830Y514110D01*
X556170D01*
X558431Y514716D01*
X560459Y515886D01*
X562114Y517541D01*
X562299Y517861D01*
X570000D01*
X571967Y518252D01*
X573634Y519366D01*
X581129Y526861D01*
X668203D01*
X668689Y525688D01*
X668166Y525165D01*
X666844Y522875D01*
X666160Y520322D01*
Y517678D01*
X666844Y515125D01*
X668166Y512835D01*
X670035Y510966D01*
X672325Y509644D01*
X674878Y508960D01*
X677522D01*
X680075Y509644D01*
X682365Y510966D01*
X684234Y512835D01*
X685556Y515125D01*
X686240Y517678D01*
Y520322D01*
X685556Y522875D01*
X684234Y525165D01*
X683851Y525548D01*
X684337Y526721D01*
X732860D01*
X734827Y527112D01*
X736494Y528226D01*
X755634Y547366D01*
X756748Y549034D01*
X757139Y551000D01*
Y604871D01*
X762595Y610327D01*
X763854Y610162D01*
X764166Y609621D01*
X766221Y607566D01*
X768739Y606112D01*
X771547Y605360D01*
X774453D01*
X777261Y606112D01*
X779779Y607566D01*
X781834Y609621D01*
X783288Y612139D01*
X784040Y614947D01*
Y617854D01*
X783288Y620661D01*
X781834Y623179D01*
X779779Y625234D01*
X779194Y625572D01*
X779541Y626725D01*
X780686Y626847D01*
X787850Y619683D01*
X787360Y617854D01*
Y614947D01*
X788112Y612139D01*
X789566Y609621D01*
X791621Y607566D01*
X794139Y606112D01*
X796947Y605360D01*
X799853D01*
X802661Y606112D01*
X805179Y607566D01*
X807234Y609621D01*
X808688Y612139D01*
X809440Y614947D01*
Y617854D01*
X808688Y620661D01*
X807234Y623179D01*
X805179Y625234D01*
X802661Y626688D01*
X799853Y627440D01*
X796947D01*
X795117Y626950D01*
X787476Y634591D01*
X788002Y635861D01*
X807871D01*
X817220Y626512D01*
X817054Y625253D01*
X817021Y625234D01*
X814966Y623179D01*
X813512Y620661D01*
X812760Y617854D01*
Y614947D01*
X813512Y612139D01*
X814966Y609621D01*
X817021Y607566D01*
X819539Y606112D01*
X822347Y605360D01*
X825253D01*
X828061Y606112D01*
X830579Y607566D01*
X832634Y609621D01*
X834088Y612139D01*
X834840Y614947D01*
Y617854D01*
X834088Y620661D01*
X832634Y623179D01*
X830579Y625234D01*
X828939Y626181D01*
Y627200D01*
X828548Y629166D01*
X827434Y630834D01*
X813634Y644634D01*
X811966Y645748D01*
X810000Y646139D01*
X750000D01*
X748034Y645748D01*
X746366Y644634D01*
X708366Y606634D01*
X707252Y604967D01*
X706861Y603000D01*
Y591129D01*
X703212Y587479D01*
X684337D01*
X683851Y588652D01*
X684234Y589035D01*
X685556Y591325D01*
X686240Y593878D01*
Y596522D01*
X685556Y599075D01*
X684234Y601365D01*
X683911Y601688D01*
X684397Y602861D01*
X697000D01*
X698967Y603252D01*
X700634Y604366D01*
X745128Y648861D01*
X840872D01*
X844061Y645671D01*
Y626181D01*
X842421Y625234D01*
X840366Y623179D01*
X838912Y620661D01*
X838160Y617854D01*
Y614947D01*
X838912Y612139D01*
X840366Y609621D01*
X842421Y607566D01*
X844939Y606112D01*
X847747Y605360D01*
X850653D01*
X853461Y606112D01*
X855979Y607566D01*
X858034Y609621D01*
X859488Y612139D01*
X860240Y614947D01*
Y617854D01*
X859488Y620661D01*
X858034Y623179D01*
X855979Y625234D01*
X854339Y626181D01*
Y647800D01*
X853948Y649766D01*
X852834Y651434D01*
X846634Y657634D01*
X844967Y658748D01*
X843000Y659139D01*
X743000D01*
X741033Y658748D01*
X739366Y657634D01*
X694872Y613139D01*
X684597D01*
X684111Y614312D01*
X684234Y614435D01*
X685556Y616725D01*
X686240Y619278D01*
Y621922D01*
X685556Y624475D01*
X684234Y626765D01*
X683851Y627148D01*
X684337Y628321D01*
X705460D01*
X707427Y628712D01*
X709094Y629826D01*
X740128Y660861D01*
X859872D01*
X869461Y651272D01*
Y626181D01*
X867821Y625234D01*
X865766Y623179D01*
X864312Y620661D01*
X863560Y617854D01*
Y614947D01*
X864312Y612139D01*
X865766Y609621D01*
X867821Y607566D01*
X870339Y606112D01*
X873147Y605360D01*
X876053D01*
X878861Y606112D01*
X881379Y607566D01*
X883434Y609621D01*
X884888Y612139D01*
X885640Y614947D01*
Y617854D01*
X884888Y620661D01*
X883434Y623179D01*
X881379Y625234D01*
X879739Y626181D01*
Y653400D01*
X879348Y655367D01*
X878234Y657034D01*
X865634Y669634D01*
X863967Y670748D01*
X862000Y671139D01*
X738000D01*
X737004Y670941D01*
X736378Y672111D01*
X740128Y675861D01*
X873872D01*
X894861Y654872D01*
Y626181D01*
X893221Y625234D01*
X891166Y623179D01*
X889712Y620661D01*
X888960Y617854D01*
Y614947D01*
X889712Y612139D01*
X891166Y609621D01*
X893221Y607566D01*
X895739Y606112D01*
X898547Y605360D01*
X901453D01*
X904261Y606112D01*
X906779Y607566D01*
X908834Y609621D01*
X910288Y612139D01*
X911040Y614947D01*
Y617854D01*
X910288Y620661D01*
X908834Y623179D01*
X906779Y625234D01*
X905139Y626181D01*
Y657000D01*
X904748Y658967D01*
X903634Y660634D01*
X879634Y684634D01*
X877967Y685748D01*
X876000Y686139D01*
D02*
G37*
G36*
X525122Y681440D02*
X522478D01*
X519925Y680756D01*
X517635Y679434D01*
X515766Y677565D01*
X514444Y675275D01*
X513760Y672722D01*
Y670078D01*
X514444Y667525D01*
X515766Y665235D01*
X517635Y663366D01*
X519925Y662044D01*
X522478Y661360D01*
X525122D01*
X527675Y662044D01*
X529965Y663366D01*
X531834Y665235D01*
X533156Y667525D01*
X533840Y670078D01*
Y672722D01*
X533156Y675275D01*
X531834Y677565D01*
X529965Y679434D01*
X527675Y680756D01*
X525122Y681440D01*
D02*
G37*
G36*
X1024863Y663730D02*
X1017270D01*
Y656137D01*
X1019431Y656716D01*
X1021459Y657886D01*
X1023114Y659541D01*
X1024284Y661569D01*
X1024863Y663730D01*
D02*
G37*
G36*
X1014730D02*
X1007137D01*
X1007716Y661569D01*
X1008886Y659541D01*
X1010541Y657886D01*
X1012569Y656716D01*
X1014730Y656137D01*
Y663730D01*
D02*
G37*
G36*
X380270Y631863D02*
Y624270D01*
X387863D01*
X387284Y626431D01*
X386114Y628459D01*
X384459Y630114D01*
X382431Y631284D01*
X380270Y631863D01*
D02*
G37*
G36*
X377730D02*
X375569Y631284D01*
X373541Y630114D01*
X371886Y628459D01*
X370716Y626431D01*
X370137Y624270D01*
X377730D01*
Y631863D01*
D02*
G37*
G36*
X1053853Y627440D02*
X1053670D01*
Y617670D01*
X1063440D01*
Y617854D01*
X1062688Y620661D01*
X1061234Y623179D01*
X1059179Y625234D01*
X1056661Y626688D01*
X1053853Y627440D01*
D02*
G37*
G36*
X1051130D02*
X1050947D01*
X1048139Y626688D01*
X1045621Y625234D01*
X1043566Y623179D01*
X1042112Y620661D01*
X1041360Y617854D01*
Y617670D01*
X1051130D01*
Y627440D01*
D02*
G37*
G36*
X1028453D02*
X1028270D01*
Y617670D01*
X1038040D01*
Y617854D01*
X1037288Y620661D01*
X1035834Y623179D01*
X1033779Y625234D01*
X1031261Y626688D01*
X1028453Y627440D01*
D02*
G37*
G36*
X1025730D02*
X1025547D01*
X1022739Y626688D01*
X1020221Y625234D01*
X1018166Y623179D01*
X1016712Y620661D01*
X1015960Y617854D01*
Y617670D01*
X1025730D01*
Y627440D01*
D02*
G37*
G36*
X387863Y621730D02*
X380270D01*
Y614137D01*
X382431Y614716D01*
X384459Y615886D01*
X386114Y617541D01*
X387284Y619569D01*
X387863Y621730D01*
D02*
G37*
G36*
X377730D02*
X370137D01*
X370716Y619569D01*
X371886Y617541D01*
X373541Y615886D01*
X375569Y614716D01*
X377730Y614137D01*
Y621730D01*
D02*
G37*
G36*
X1063440Y615130D02*
X1053670D01*
Y605360D01*
X1053853D01*
X1056661Y606112D01*
X1059179Y607566D01*
X1061234Y609621D01*
X1062688Y612139D01*
X1063440Y614947D01*
Y615130D01*
D02*
G37*
G36*
X1051130D02*
X1041360D01*
Y614947D01*
X1042112Y612139D01*
X1043566Y609621D01*
X1045621Y607566D01*
X1048139Y606112D01*
X1050947Y605360D01*
X1051130D01*
Y615130D01*
D02*
G37*
G36*
X1038040D02*
X1028270D01*
Y605360D01*
X1028453D01*
X1031261Y606112D01*
X1033779Y607566D01*
X1035834Y609621D01*
X1037288Y612139D01*
X1038040Y614947D01*
Y615130D01*
D02*
G37*
G36*
X1025730D02*
X1015960D01*
Y614947D01*
X1016712Y612139D01*
X1018166Y609621D01*
X1020221Y607566D01*
X1022739Y606112D01*
X1025547Y605360D01*
X1025730D01*
Y615130D01*
D02*
G37*
G36*
X951170Y666890D02*
X948830D01*
X946569Y666284D01*
X944541Y665114D01*
X942886Y663459D01*
X941716Y661431D01*
X941110Y659170D01*
Y656830D01*
X941716Y654569D01*
X942886Y652541D01*
X944541Y650886D01*
X944861Y650702D01*
Y625719D01*
X944021Y625234D01*
X941966Y623179D01*
X940512Y620661D01*
X939760Y617854D01*
Y614947D01*
X940512Y612139D01*
X941966Y609621D01*
X944021Y607566D01*
X946539Y606112D01*
X949347Y605360D01*
X952253D01*
X955061Y606112D01*
X957579Y607566D01*
X959634Y609621D01*
X961088Y612139D01*
X961840Y614947D01*
Y617854D01*
X961088Y620661D01*
X959634Y623179D01*
X957579Y625234D01*
X955139Y626643D01*
Y650702D01*
X955459Y650886D01*
X957114Y652541D01*
X958284Y654569D01*
X958890Y656830D01*
Y659170D01*
X958284Y661431D01*
X957114Y663459D01*
X955459Y665114D01*
X953431Y666284D01*
X951170Y666890D01*
D02*
G37*
G36*
X926170Y682890D02*
X923830D01*
X921569Y682284D01*
X919541Y681114D01*
X917886Y679459D01*
X916716Y677431D01*
X916110Y675170D01*
Y672830D01*
X916716Y670569D01*
X917886Y668541D01*
X919541Y666886D01*
X919861Y666702D01*
Y625950D01*
X918621Y625234D01*
X916566Y623179D01*
X915112Y620661D01*
X914360Y617854D01*
Y614947D01*
X915112Y612139D01*
X916566Y609621D01*
X918621Y607566D01*
X921139Y606112D01*
X923947Y605360D01*
X926853D01*
X929661Y606112D01*
X932179Y607566D01*
X934234Y609621D01*
X935688Y612139D01*
X936440Y614947D01*
Y617854D01*
X935688Y620661D01*
X934234Y623179D01*
X932179Y625234D01*
X930139Y626412D01*
Y666702D01*
X930459Y666886D01*
X932114Y668541D01*
X933284Y670569D01*
X933890Y672830D01*
Y675170D01*
X933284Y677431D01*
X932114Y679459D01*
X930459Y681114D01*
X928431Y682284D01*
X926170Y682890D01*
D02*
G37*
G36*
X1152089Y626540D02*
X1151270D01*
Y601270D01*
X1176540D01*
Y602089D01*
X1175887Y606215D01*
X1174596Y610188D01*
X1172699Y613910D01*
X1170244Y617290D01*
X1167290Y620244D01*
X1163910Y622699D01*
X1160188Y624596D01*
X1156215Y625886D01*
X1152089Y626540D01*
D02*
G37*
G36*
X1148730D02*
X1147911D01*
X1143785Y625886D01*
X1139812Y624596D01*
X1136090Y622699D01*
X1132710Y620244D01*
X1129756Y617290D01*
X1127301Y613910D01*
X1125404Y610188D01*
X1124113Y606215D01*
X1123460Y602089D01*
Y601270D01*
X1148730D01*
Y626540D01*
D02*
G37*
G36*
X52089D02*
X51270D01*
Y601270D01*
X76540D01*
Y602089D01*
X75887Y606215D01*
X74596Y610188D01*
X72699Y613910D01*
X70244Y617290D01*
X67290Y620244D01*
X63910Y622699D01*
X60188Y624596D01*
X56215Y625886D01*
X52089Y626540D01*
D02*
G37*
G36*
X48730D02*
X47911D01*
X43785Y625886D01*
X39812Y624596D01*
X36090Y622699D01*
X32710Y620244D01*
X29756Y617290D01*
X27301Y613910D01*
X25404Y610188D01*
X24114Y606215D01*
X23460Y602089D01*
Y601270D01*
X48730D01*
Y626540D01*
D02*
G37*
G36*
X1053853Y602040D02*
X1053670D01*
Y592270D01*
X1063440D01*
Y592453D01*
X1062688Y595261D01*
X1061234Y597779D01*
X1059179Y599834D01*
X1056661Y601288D01*
X1053853Y602040D01*
D02*
G37*
G36*
X1051130D02*
X1050947D01*
X1048139Y601288D01*
X1045621Y599834D01*
X1043566Y597779D01*
X1042112Y595261D01*
X1041360Y592453D01*
Y592270D01*
X1051130D01*
Y602040D01*
D02*
G37*
G36*
X1063440Y589730D02*
X1053670D01*
Y579960D01*
X1053853D01*
X1056661Y580712D01*
X1059179Y582166D01*
X1061234Y584221D01*
X1062688Y586739D01*
X1063440Y589547D01*
Y589730D01*
D02*
G37*
G36*
X1051130D02*
X1041360D01*
Y589547D01*
X1042112Y586739D01*
X1043566Y584221D01*
X1045621Y582166D01*
X1048139Y580712D01*
X1050947Y579960D01*
X1051130D01*
Y589730D01*
D02*
G37*
G36*
X1028453Y602040D02*
X1025547D01*
X1022739Y601288D01*
X1020221Y599834D01*
X1018166Y597779D01*
X1016712Y595261D01*
X1015960Y592453D01*
Y589547D01*
X1016712Y586739D01*
X1018166Y584221D01*
X1020221Y582166D01*
X1022739Y580712D01*
X1025547Y579960D01*
X1028453D01*
X1031261Y580712D01*
X1033779Y582166D01*
X1035834Y584221D01*
X1037288Y586739D01*
X1038040Y589547D01*
Y592453D01*
X1037288Y595261D01*
X1035834Y597779D01*
X1033779Y599834D01*
X1031261Y601288D01*
X1028453Y602040D01*
D02*
G37*
G36*
X1003053D02*
X1000147D01*
X997339Y601288D01*
X994821Y599834D01*
X992766Y597779D01*
X991312Y595261D01*
X990560Y592453D01*
Y589547D01*
X991312Y586739D01*
X992766Y584221D01*
X994821Y582166D01*
X997339Y580712D01*
X1000147Y579960D01*
X1003053D01*
X1005861Y580712D01*
X1008379Y582166D01*
X1010434Y584221D01*
X1011888Y586739D01*
X1012640Y589547D01*
Y592453D01*
X1011888Y595261D01*
X1010434Y597779D01*
X1008379Y599834D01*
X1005861Y601288D01*
X1003053Y602040D01*
D02*
G37*
G36*
X952253D02*
X949347D01*
X946539Y601288D01*
X944021Y599834D01*
X941966Y597779D01*
X940512Y595261D01*
X939760Y592453D01*
Y589547D01*
X940512Y586739D01*
X941966Y584221D01*
X944021Y582166D01*
X946539Y580712D01*
X949347Y579960D01*
X952253D01*
X955061Y580712D01*
X957579Y582166D01*
X959634Y584221D01*
X961088Y586739D01*
X961840Y589547D01*
Y592453D01*
X961088Y595261D01*
X959634Y597779D01*
X957579Y599834D01*
X955061Y601288D01*
X952253Y602040D01*
D02*
G37*
G36*
X926853D02*
X923947D01*
X921139Y601288D01*
X918621Y599834D01*
X916566Y597779D01*
X915112Y595261D01*
X914360Y592453D01*
Y589547D01*
X915112Y586739D01*
X916566Y584221D01*
X918621Y582166D01*
X921139Y580712D01*
X923947Y579960D01*
X926853D01*
X929661Y580712D01*
X932179Y582166D01*
X934234Y584221D01*
X935688Y586739D01*
X936440Y589547D01*
Y592453D01*
X935688Y595261D01*
X934234Y597779D01*
X932179Y599834D01*
X929661Y601288D01*
X926853Y602040D01*
D02*
G37*
G36*
X901453D02*
X898547D01*
X895739Y601288D01*
X893221Y599834D01*
X891166Y597779D01*
X889712Y595261D01*
X888960Y592453D01*
Y589547D01*
X889712Y586739D01*
X891166Y584221D01*
X893221Y582166D01*
X895739Y580712D01*
X898547Y579960D01*
X901453D01*
X904261Y580712D01*
X906779Y582166D01*
X908834Y584221D01*
X910288Y586739D01*
X911040Y589547D01*
Y592453D01*
X910288Y595261D01*
X908834Y597779D01*
X906779Y599834D01*
X904261Y601288D01*
X901453Y602040D01*
D02*
G37*
G36*
X876053D02*
X873147D01*
X870339Y601288D01*
X867821Y599834D01*
X865766Y597779D01*
X864312Y595261D01*
X863560Y592453D01*
Y589547D01*
X864312Y586739D01*
X865766Y584221D01*
X867821Y582166D01*
X870339Y580712D01*
X873147Y579960D01*
X876053D01*
X878861Y580712D01*
X881379Y582166D01*
X883434Y584221D01*
X884888Y586739D01*
X885640Y589547D01*
Y592453D01*
X884888Y595261D01*
X883434Y597779D01*
X881379Y599834D01*
X878861Y601288D01*
X876053Y602040D01*
D02*
G37*
G36*
X850653D02*
X847747D01*
X844939Y601288D01*
X842421Y599834D01*
X840366Y597779D01*
X838912Y595261D01*
X838160Y592453D01*
Y589547D01*
X838912Y586739D01*
X840366Y584221D01*
X842421Y582166D01*
X844939Y580712D01*
X847747Y579960D01*
X850653D01*
X853461Y580712D01*
X855979Y582166D01*
X858034Y584221D01*
X859488Y586739D01*
X860240Y589547D01*
Y592453D01*
X859488Y595261D01*
X858034Y597779D01*
X855979Y599834D01*
X853461Y601288D01*
X850653Y602040D01*
D02*
G37*
G36*
X825253D02*
X822347D01*
X819539Y601288D01*
X817021Y599834D01*
X814966Y597779D01*
X813512Y595261D01*
X812760Y592453D01*
Y589547D01*
X813512Y586739D01*
X814966Y584221D01*
X817021Y582166D01*
X819539Y580712D01*
X822347Y579960D01*
X825253D01*
X828061Y580712D01*
X830579Y582166D01*
X832634Y584221D01*
X834088Y586739D01*
X834840Y589547D01*
Y592453D01*
X834088Y595261D01*
X832634Y597779D01*
X830579Y599834D01*
X828061Y601288D01*
X825253Y602040D01*
D02*
G37*
G36*
X799853D02*
X796947D01*
X794139Y601288D01*
X791621Y599834D01*
X789566Y597779D01*
X788112Y595261D01*
X787360Y592453D01*
Y589547D01*
X788112Y586739D01*
X789566Y584221D01*
X791621Y582166D01*
X794139Y580712D01*
X796947Y579960D01*
X799853D01*
X802661Y580712D01*
X805179Y582166D01*
X807234Y584221D01*
X808688Y586739D01*
X809440Y589547D01*
Y592453D01*
X808688Y595261D01*
X807234Y597779D01*
X805179Y599834D01*
X802661Y601288D01*
X799853Y602040D01*
D02*
G37*
G36*
X784040D02*
X761960D01*
Y579960D01*
X784040D01*
Y602040D01*
D02*
G37*
G36*
X1176540Y598730D02*
X1151270D01*
Y573460D01*
X1152089D01*
X1156215Y574114D01*
X1160188Y575404D01*
X1163910Y577301D01*
X1167290Y579756D01*
X1170244Y582710D01*
X1172699Y586090D01*
X1174596Y589812D01*
X1175887Y593785D01*
X1176540Y597911D01*
Y598730D01*
D02*
G37*
G36*
X1148730D02*
X1123460D01*
Y597911D01*
X1124113Y593785D01*
X1125404Y589812D01*
X1127301Y586090D01*
X1129756Y582710D01*
X1132710Y579756D01*
X1136090Y577301D01*
X1139812Y575404D01*
X1143785Y574114D01*
X1147911Y573460D01*
X1148730D01*
Y598730D01*
D02*
G37*
G36*
X76540D02*
X51270D01*
Y573460D01*
X52089D01*
X56215Y574114D01*
X60188Y575404D01*
X63910Y577301D01*
X67290Y579756D01*
X70244Y582710D01*
X72699Y586090D01*
X74596Y589812D01*
X75887Y593785D01*
X76540Y597911D01*
Y598730D01*
D02*
G37*
G36*
X48730D02*
X23460D01*
Y597911D01*
X24114Y593785D01*
X25404Y589812D01*
X27301Y586090D01*
X29756Y582710D01*
X32710Y579756D01*
X36090Y577301D01*
X39812Y575404D01*
X43785Y574114D01*
X47911Y573460D01*
X48730D01*
Y598730D01*
D02*
G37*
G36*
X1041270Y577863D02*
Y570270D01*
X1048863D01*
X1048284Y572431D01*
X1047114Y574459D01*
X1045459Y576114D01*
X1043431Y577284D01*
X1041270Y577863D01*
D02*
G37*
G36*
X1038730D02*
X1036569Y577284D01*
X1034541Y576114D01*
X1032886Y574459D01*
X1031716Y572431D01*
X1031137Y570270D01*
X1038730D01*
Y577863D01*
D02*
G37*
G36*
X1048863Y567730D02*
X1041270D01*
Y560137D01*
X1043431Y560716D01*
X1045459Y561886D01*
X1047114Y563541D01*
X1048284Y565569D01*
X1048863Y567730D01*
D02*
G37*
G36*
X1038730D02*
X1031137D01*
X1031716Y565569D01*
X1032886Y563541D01*
X1034541Y561886D01*
X1036569Y560716D01*
X1038730Y560137D01*
Y567730D01*
D02*
G37*
G36*
X162270Y557863D02*
Y550270D01*
X169863D01*
X169284Y552431D01*
X168114Y554459D01*
X166459Y556114D01*
X164431Y557284D01*
X162270Y557863D01*
D02*
G37*
G36*
X159730D02*
X157569Y557284D01*
X155541Y556114D01*
X153886Y554459D01*
X152716Y552431D01*
X152137Y550270D01*
X159730D01*
Y557863D01*
D02*
G37*
G36*
X169863Y547730D02*
X162270D01*
Y540137D01*
X164431Y540716D01*
X166459Y541886D01*
X168114Y543541D01*
X169284Y545569D01*
X169863Y547730D01*
D02*
G37*
G36*
X159730D02*
X152137D01*
X152716Y545569D01*
X153886Y543541D01*
X155541Y541886D01*
X157569Y540716D01*
X159730Y540137D01*
Y547730D01*
D02*
G37*
G36*
X297270Y530863D02*
Y523270D01*
X304863D01*
X304284Y525431D01*
X303114Y527459D01*
X301459Y529114D01*
X299431Y530284D01*
X297270Y530863D01*
D02*
G37*
G36*
X294730D02*
X292569Y530284D01*
X290541Y529114D01*
X288886Y527459D01*
X287716Y525431D01*
X287137Y523270D01*
X294730D01*
Y530863D01*
D02*
G37*
G36*
X304863Y520730D02*
X297270D01*
Y513137D01*
X299431Y513716D01*
X301459Y514886D01*
X303114Y516541D01*
X304284Y518569D01*
X304863Y520730D01*
D02*
G37*
G36*
X294730D02*
X287137D01*
X287716Y518569D01*
X288886Y516541D01*
X290541Y514886D01*
X292569Y513716D01*
X294730Y513137D01*
Y520730D01*
D02*
G37*
G36*
X525122Y529040D02*
X522478D01*
X519925Y528356D01*
X517635Y527034D01*
X515766Y525165D01*
X514444Y522875D01*
X513760Y520322D01*
Y517678D01*
X514444Y515125D01*
X515766Y512835D01*
X517635Y510966D01*
X519925Y509644D01*
X522478Y508960D01*
X525122D01*
X527675Y509644D01*
X529965Y510966D01*
X531834Y512835D01*
X533156Y515125D01*
X533840Y517678D01*
Y520322D01*
X533156Y522875D01*
X531834Y525165D01*
X529965Y527034D01*
X527675Y528356D01*
X525122Y529040D01*
D02*
G37*
G36*
X1127270Y514863D02*
Y507270D01*
X1134863D01*
X1134284Y509431D01*
X1133114Y511459D01*
X1131459Y513114D01*
X1129431Y514284D01*
X1127270Y514863D01*
D02*
G37*
G36*
X1124730D02*
X1122569Y514284D01*
X1120541Y513114D01*
X1118886Y511459D01*
X1117716Y509431D01*
X1117137Y507270D01*
X1124730D01*
Y514863D01*
D02*
G37*
G36*
X1134863Y504730D02*
X1127270D01*
Y497137D01*
X1129431Y497716D01*
X1131459Y498886D01*
X1133114Y500541D01*
X1134284Y502569D01*
X1134863Y504730D01*
D02*
G37*
G36*
X1124730D02*
X1117137D01*
X1117716Y502569D01*
X1118886Y500541D01*
X1120541Y498886D01*
X1122569Y497716D01*
X1124730Y497137D01*
Y504730D01*
D02*
G37*
G36*
X964853Y511040D02*
X961947D01*
X959139Y510288D01*
X956621Y508834D01*
X954566Y506779D01*
X953112Y504261D01*
X952360Y501453D01*
Y498547D01*
X952533Y497900D01*
X946366Y491734D01*
X945252Y490066D01*
X944861Y488100D01*
Y391129D01*
X939872Y386139D01*
X838298D01*
X838114Y386459D01*
X836459Y388114D01*
X834431Y389284D01*
X832170Y389890D01*
X829830D01*
X827569Y389284D01*
X825541Y388114D01*
X823886Y386459D01*
X822716Y384431D01*
X822110Y382170D01*
Y379830D01*
X822716Y377569D01*
X823886Y375541D01*
X825541Y373886D01*
X827569Y372716D01*
X829830Y372110D01*
X832170D01*
X834431Y372716D01*
X836459Y373886D01*
X838114Y375541D01*
X838298Y375861D01*
X942000D01*
X943967Y376252D01*
X945634Y377366D01*
X953634Y385366D01*
X954748Y387034D01*
X955139Y389000D01*
Y485971D01*
X958975Y489807D01*
X959139Y489712D01*
X961947Y488960D01*
X964853D01*
X967661Y489712D01*
X970179Y491166D01*
X972234Y493221D01*
X973688Y495739D01*
X974440Y498547D01*
Y501453D01*
X973688Y504261D01*
X972234Y506779D01*
X970179Y508834D01*
X967661Y510288D01*
X964853Y511040D01*
D02*
G37*
G36*
X1066453D02*
X1063547D01*
X1060739Y510288D01*
X1058221Y508834D01*
X1056166Y506779D01*
X1054712Y504261D01*
X1053960Y501453D01*
Y498547D01*
X1054712Y495739D01*
X1056166Y493221D01*
X1058221Y491166D01*
X1060739Y489712D01*
X1063547Y488960D01*
X1066453D01*
X1069261Y489712D01*
X1071779Y491166D01*
X1073834Y493221D01*
X1074781Y494861D01*
X1086871D01*
X1130861Y450872D01*
Y388129D01*
X1121871Y379139D01*
X1113040D01*
Y387440D01*
X1106865D01*
X1106525Y388710D01*
X1108007Y389565D01*
X1110435Y391993D01*
X1112151Y394967D01*
X1113040Y398283D01*
Y401717D01*
X1112151Y405033D01*
X1110435Y408007D01*
X1108007Y410435D01*
X1105054Y412139D01*
X1104982Y412428D01*
Y413172D01*
X1105054Y413461D01*
X1108007Y415165D01*
X1110435Y417593D01*
X1112151Y420567D01*
X1113040Y423883D01*
Y424330D01*
X1100000D01*
X1086960D01*
Y423883D01*
X1087849Y420567D01*
X1089565Y417593D01*
X1091993Y415165D01*
X1094153Y413918D01*
X1093813Y412648D01*
X1000003D01*
X996729Y412217D01*
X993678Y410954D01*
X992643Y410159D01*
X989842D01*
Y407358D01*
X989048Y406323D01*
X987784Y403273D01*
X987353Y399999D01*
Y349241D01*
X953761Y315648D01*
X688900D01*
X685626Y315217D01*
X683388Y314290D01*
X677610D01*
Y308512D01*
X676683Y306274D01*
X676252Y303000D01*
Y265139D01*
X666761Y255648D01*
X317239D01*
X212650Y360238D01*
Y387352D01*
X362000D01*
X362000Y387352D01*
X365274Y387783D01*
X368324Y389046D01*
X370944Y391056D01*
X435439Y455552D01*
X520481D01*
X522000Y455352D01*
X618000D01*
X621274Y455783D01*
X624324Y457046D01*
X626944Y459056D01*
X628954Y461676D01*
X630217Y464726D01*
X630648Y468000D01*
X630217Y471274D01*
X628954Y474324D01*
X626944Y476944D01*
X624324Y478954D01*
X621274Y480217D01*
X618000Y480648D01*
X525319D01*
X523800Y480848D01*
X430200D01*
X430200Y480848D01*
X426926Y480417D01*
X423876Y479154D01*
X421256Y477144D01*
X356761Y412648D01*
X200003D01*
X200002Y412648D01*
X200002Y412648D01*
X200001Y412648D01*
X106187D01*
X105847Y413918D01*
X108007Y415165D01*
X110435Y417593D01*
X112151Y420567D01*
X113040Y423883D01*
Y424330D01*
X100000D01*
X86960D01*
Y423883D01*
X87849Y420567D01*
X89565Y417593D01*
X91993Y415165D01*
X94946Y413461D01*
X95018Y413172D01*
Y412428D01*
X94946Y412139D01*
X91993Y410435D01*
X89565Y408007D01*
X87849Y405033D01*
X86960Y401717D01*
Y398283D01*
X87849Y394967D01*
X89565Y391993D01*
X91993Y389565D01*
X93475Y388710D01*
X93134Y387440D01*
X86960D01*
Y379539D01*
X77729D01*
X69139Y388129D01*
Y450872D01*
X113128Y494861D01*
X124219D01*
X125166Y493221D01*
X127221Y491166D01*
X129739Y489712D01*
X132547Y488960D01*
X135454D01*
X138261Y489712D01*
X140779Y491166D01*
X142834Y493221D01*
X144288Y495739D01*
X145040Y498547D01*
Y501453D01*
X144288Y504261D01*
X142834Y506779D01*
X140779Y508834D01*
X138261Y510288D01*
X135454Y511040D01*
X132547D01*
X129739Y510288D01*
X127221Y508834D01*
X125166Y506779D01*
X124219Y505139D01*
X111000D01*
X109033Y504748D01*
X107366Y503634D01*
X60366Y456634D01*
X59252Y454967D01*
X58861Y453000D01*
Y386000D01*
X59252Y384034D01*
X60366Y382366D01*
X71966Y370766D01*
X73633Y369652D01*
X75600Y369261D01*
X86960D01*
Y361360D01*
X113040D01*
Y387352D01*
X187353D01*
Y354999D01*
X187353Y354998D01*
X187784Y351725D01*
X189048Y348674D01*
X191058Y346055D01*
X303056Y234056D01*
X305676Y232046D01*
X308726Y230783D01*
X312000Y230352D01*
X312000Y230352D01*
X672000D01*
X672000Y230352D01*
X675274Y230783D01*
X678324Y232046D01*
X680944Y234056D01*
X697843Y250956D01*
X697844Y250956D01*
X699854Y253576D01*
X701117Y256626D01*
X701548Y259900D01*
X701548Y259900D01*
Y290352D01*
X959000D01*
X959000Y290352D01*
X962274Y290783D01*
X965324Y292046D01*
X967944Y294056D01*
X1008945Y335058D01*
X1008945Y335058D01*
X1010955Y337677D01*
X1012219Y340728D01*
X1012650Y344002D01*
X1012650Y344002D01*
Y387352D01*
X1086960D01*
Y361360D01*
X1113040D01*
Y368861D01*
X1124000D01*
X1125966Y369252D01*
X1127634Y370366D01*
X1139634Y382366D01*
X1140748Y384034D01*
X1141139Y386000D01*
Y453000D01*
X1140748Y454967D01*
X1139634Y456634D01*
X1092634Y503634D01*
X1090966Y504748D01*
X1089000Y505139D01*
X1074781D01*
X1073834Y506779D01*
X1071779Y508834D01*
X1069261Y510288D01*
X1066453Y511040D01*
D02*
G37*
G36*
X677522Y503640D02*
X674878D01*
X672325Y502956D01*
X670035Y501634D01*
X668166Y499765D01*
X666844Y497475D01*
X666160Y494922D01*
Y492278D01*
X666844Y489725D01*
X668166Y487435D01*
X670035Y485566D01*
X672325Y484244D01*
X674878Y483560D01*
X677522D01*
X680075Y484244D01*
X682365Y485566D01*
X684234Y487435D01*
X685556Y489725D01*
X686240Y492278D01*
Y494922D01*
X685556Y497475D01*
X684234Y499765D01*
X682365Y501634D01*
X680075Y502956D01*
X677522Y503640D01*
D02*
G37*
G36*
X525122D02*
X522478D01*
X519925Y502956D01*
X517635Y501634D01*
X515766Y499765D01*
X514444Y497475D01*
X513760Y494922D01*
Y492278D01*
X514444Y489725D01*
X515766Y487435D01*
X517635Y485566D01*
X519925Y484244D01*
X522478Y483560D01*
X525122D01*
X527675Y484244D01*
X529965Y485566D01*
X531834Y487435D01*
X533156Y489725D01*
X533840Y492278D01*
Y494922D01*
X533156Y497475D01*
X531834Y499765D01*
X529965Y501634D01*
X527675Y502956D01*
X525122Y503640D01*
D02*
G37*
G36*
X677522Y478240D02*
X674878D01*
X672325Y477556D01*
X670035Y476234D01*
X668166Y474365D01*
X666844Y472075D01*
X666160Y469522D01*
Y466878D01*
X666844Y464325D01*
X668166Y462035D01*
X670035Y460166D01*
X672325Y458844D01*
X674878Y458160D01*
X677522D01*
X680075Y458844D01*
X682365Y460166D01*
X684234Y462035D01*
X685556Y464325D01*
X686240Y466878D01*
Y469522D01*
X685556Y472075D01*
X684234Y474365D01*
X682365Y476234D01*
X680075Y477556D01*
X677522Y478240D01*
D02*
G37*
G36*
X775270Y460863D02*
Y453270D01*
X782863D01*
X782284Y455431D01*
X781114Y457459D01*
X779459Y459114D01*
X777431Y460284D01*
X775270Y460863D01*
D02*
G37*
G36*
X772730D02*
X770569Y460284D01*
X768541Y459114D01*
X766886Y457459D01*
X765716Y455431D01*
X765137Y453270D01*
X772730D01*
Y460863D01*
D02*
G37*
G36*
X525122Y452840D02*
X525070D01*
Y444070D01*
X533840D01*
Y444122D01*
X533156Y446675D01*
X531834Y448965D01*
X529965Y450834D01*
X527675Y452156D01*
X525122Y452840D01*
D02*
G37*
G36*
X522530D02*
X522478D01*
X519925Y452156D01*
X517635Y450834D01*
X515766Y448965D01*
X514444Y446675D01*
X513760Y444122D01*
Y444070D01*
X522530D01*
Y452840D01*
D02*
G37*
G36*
X782863Y450730D02*
X775270D01*
Y443137D01*
X777431Y443716D01*
X779459Y444886D01*
X781114Y446541D01*
X782284Y448569D01*
X782863Y450730D01*
D02*
G37*
G36*
X772730D02*
X765137D01*
X765716Y448569D01*
X766886Y446541D01*
X768541Y444886D01*
X770569Y443716D01*
X772730Y443137D01*
Y450730D01*
D02*
G37*
G36*
X921270Y445863D02*
Y438270D01*
X928863D01*
X928284Y440431D01*
X927114Y442459D01*
X925459Y444114D01*
X923431Y445284D01*
X921270Y445863D01*
D02*
G37*
G36*
X918730D02*
X916569Y445284D01*
X914541Y444114D01*
X912886Y442459D01*
X911716Y440431D01*
X911137Y438270D01*
X918730D01*
Y445863D01*
D02*
G37*
G36*
X677522Y452840D02*
X674878D01*
X672325Y452156D01*
X670035Y450834D01*
X668166Y448965D01*
X666844Y446675D01*
X666160Y444122D01*
Y441478D01*
X666844Y438925D01*
X668166Y436635D01*
X670035Y434766D01*
X672325Y433444D01*
X674878Y432760D01*
X677522D01*
X680075Y433444D01*
X682365Y434766D01*
X684234Y436635D01*
X685556Y438925D01*
X686240Y441478D01*
Y444122D01*
X685556Y446675D01*
X684234Y448965D01*
X682365Y450834D01*
X680075Y452156D01*
X677522Y452840D01*
D02*
G37*
G36*
X533840Y441530D02*
X525070D01*
Y432760D01*
X525122D01*
X527675Y433444D01*
X529965Y434766D01*
X531834Y436635D01*
X533156Y438925D01*
X533840Y441478D01*
Y441530D01*
D02*
G37*
G36*
X522530D02*
X513760D01*
Y441478D01*
X514444Y438925D01*
X515766Y436635D01*
X517635Y434766D01*
X519925Y433444D01*
X522478Y432760D01*
X522530D01*
Y441530D01*
D02*
G37*
G36*
X928863Y435730D02*
X921270D01*
Y428137D01*
X923431Y428716D01*
X925459Y429886D01*
X927114Y431541D01*
X928284Y433569D01*
X928863Y435730D01*
D02*
G37*
G36*
X918730D02*
X911137D01*
X911716Y433569D01*
X912886Y431541D01*
X914541Y429886D01*
X916569Y428716D01*
X918730Y428137D01*
Y435730D01*
D02*
G37*
G36*
X101717Y438640D02*
X101270D01*
Y426870D01*
X113040D01*
Y427317D01*
X112151Y430633D01*
X110435Y433607D01*
X108007Y436035D01*
X105033Y437751D01*
X101717Y438640D01*
D02*
G37*
G36*
X98730D02*
X98283D01*
X94967Y437751D01*
X91993Y436035D01*
X89565Y433607D01*
X87849Y430633D01*
X86960Y427317D01*
Y426870D01*
X98730D01*
Y438640D01*
D02*
G37*
G36*
X1101717D02*
X1101270D01*
Y426870D01*
X1113040D01*
Y427317D01*
X1112151Y430633D01*
X1110435Y433607D01*
X1108007Y436035D01*
X1105033Y437751D01*
X1101717Y438640D01*
D02*
G37*
G36*
X1098730D02*
X1098283D01*
X1094967Y437751D01*
X1091993Y436035D01*
X1089565Y433607D01*
X1087849Y430633D01*
X1086960Y427317D01*
Y426870D01*
X1098730D01*
Y438640D01*
D02*
G37*
G36*
X201339Y435159D02*
X201272D01*
Y426269D01*
X210162D01*
Y426337D01*
X209469Y428921D01*
X208132Y431238D01*
X206240Y433129D01*
X203923Y434467D01*
X201339Y435159D01*
D02*
G37*
G36*
X198732D02*
X198664D01*
X196080Y434467D01*
X193763Y433129D01*
X191872Y431238D01*
X190534Y428921D01*
X189842Y426337D01*
Y426269D01*
X198732D01*
Y435159D01*
D02*
G37*
G36*
X1001339D02*
X1001272D01*
Y426269D01*
X1010162D01*
Y426337D01*
X1009469Y428921D01*
X1008132Y431238D01*
X1006240Y433129D01*
X1003923Y434467D01*
X1001339Y435159D01*
D02*
G37*
G36*
X998732D02*
X998664D01*
X996080Y434467D01*
X993763Y433129D01*
X991872Y431238D01*
X990534Y428921D01*
X989842Y426337D01*
Y426269D01*
X998732D01*
Y435159D01*
D02*
G37*
G36*
X1010162Y423729D02*
X1001272D01*
Y414839D01*
X1001339D01*
X1003923Y415532D01*
X1006240Y416869D01*
X1008132Y418761D01*
X1009469Y421078D01*
X1010162Y423662D01*
Y423729D01*
D02*
G37*
G36*
X998732D02*
X989842D01*
Y423662D01*
X990534Y421078D01*
X991872Y418761D01*
X993763Y416869D01*
X996080Y415532D01*
X998664Y414839D01*
X998732D01*
Y423729D01*
D02*
G37*
G36*
X210162Y423729D02*
X201272D01*
Y414839D01*
X201339D01*
X203923Y415532D01*
X206240Y416869D01*
X208132Y418761D01*
X209469Y421078D01*
X210162Y423662D01*
Y423729D01*
D02*
G37*
G36*
X198732D02*
X189842D01*
Y423662D01*
X190534Y421078D01*
X191872Y418761D01*
X193763Y416869D01*
X196080Y415532D01*
X198664Y414839D01*
X198732D01*
Y423729D01*
D02*
G37*
G36*
X677522Y427440D02*
X674878D01*
X672325Y426756D01*
X670035Y425434D01*
X668166Y423565D01*
X666844Y421275D01*
X666160Y418722D01*
Y416078D01*
X666844Y413525D01*
X668166Y411235D01*
X670035Y409366D01*
X672325Y408044D01*
X674878Y407360D01*
X677522D01*
X680075Y408044D01*
X682365Y409366D01*
X684234Y411235D01*
X685556Y413525D01*
X686240Y416078D01*
Y418722D01*
X685556Y421275D01*
X684234Y423565D01*
X682365Y425434D01*
X680075Y426756D01*
X677522Y427440D01*
D02*
G37*
G36*
X434610Y338419D02*
Y330826D01*
X442203D01*
X441624Y332987D01*
X440454Y335014D01*
X438799Y336670D01*
X436772Y337840D01*
X434610Y338419D01*
D02*
G37*
G36*
X432070D02*
X429909Y337840D01*
X427882Y336670D01*
X426226Y335014D01*
X425056Y332987D01*
X424477Y330826D01*
X432070D01*
Y338419D01*
D02*
G37*
G36*
X442203Y328286D02*
X434610D01*
Y320692D01*
X436772Y321272D01*
X438799Y322442D01*
X440454Y324097D01*
X441624Y326124D01*
X442203Y328286D01*
D02*
G37*
G36*
X432070D02*
X424477D01*
X425056Y326124D01*
X426226Y324097D01*
X427882Y322442D01*
X429909Y321272D01*
X432070Y320692D01*
Y328286D01*
D02*
G37*
G36*
X664986Y314290D02*
X664770D01*
Y304270D01*
X674790D01*
Y304486D01*
X674021Y307358D01*
X672534Y309932D01*
X670432Y312034D01*
X667858Y313521D01*
X664986Y314290D01*
D02*
G37*
G36*
X662230D02*
X662014D01*
X659142Y313521D01*
X656568Y312034D01*
X654466Y309932D01*
X652979Y307358D01*
X652210Y304486D01*
Y304270D01*
X662230D01*
Y314290D01*
D02*
G37*
G36*
X674790Y301730D02*
X664770D01*
Y291710D01*
X664986D01*
X667858Y292479D01*
X670432Y293966D01*
X672534Y296068D01*
X674021Y298642D01*
X674790Y301514D01*
Y301730D01*
D02*
G37*
G36*
X662230D02*
X652210D01*
Y301514D01*
X652979Y298642D01*
X654466Y296068D01*
X656568Y293966D01*
X659142Y292479D01*
X662014Y291710D01*
X662230D01*
Y301730D01*
D02*
G37*
G36*
X639586Y314290D02*
X636614D01*
X633742Y313521D01*
X631168Y312034D01*
X629066Y309932D01*
X627579Y307358D01*
X626810Y304486D01*
Y301514D01*
X627579Y298642D01*
X629066Y296068D01*
X631168Y293966D01*
X633742Y292479D01*
X636614Y291710D01*
X639586D01*
X642458Y292479D01*
X645032Y293966D01*
X647134Y296068D01*
X648621Y298642D01*
X649390Y301514D01*
Y304486D01*
X648621Y307358D01*
X647134Y309932D01*
X645032Y312034D01*
X642458Y313521D01*
X639586Y314290D01*
D02*
G37*
G36*
X614186D02*
X611214D01*
X608342Y313521D01*
X605768Y312034D01*
X603666Y309932D01*
X602179Y307358D01*
X601410Y304486D01*
Y301514D01*
X602179Y298642D01*
X603666Y296068D01*
X605768Y293966D01*
X608342Y292479D01*
X611214Y291710D01*
X614186D01*
X617058Y292479D01*
X619632Y293966D01*
X621734Y296068D01*
X623221Y298642D01*
X623990Y301514D01*
Y304486D01*
X623221Y307358D01*
X621734Y309932D01*
X619632Y312034D01*
X617058Y313521D01*
X614186Y314290D01*
D02*
G37*
G36*
X588786D02*
X585814D01*
X582942Y313521D01*
X580368Y312034D01*
X578266Y309932D01*
X576779Y307358D01*
X576010Y304486D01*
Y301514D01*
X576779Y298642D01*
X578266Y296068D01*
X580368Y293966D01*
X582942Y292479D01*
X585814Y291710D01*
X588786D01*
X591658Y292479D01*
X594232Y293966D01*
X596334Y296068D01*
X597821Y298642D01*
X598590Y301514D01*
Y304486D01*
X597821Y307358D01*
X596334Y309932D01*
X594232Y312034D01*
X591658Y313521D01*
X588786Y314290D01*
D02*
G37*
G36*
X563386D02*
X560414D01*
X557542Y313521D01*
X554968Y312034D01*
X552866Y309932D01*
X551379Y307358D01*
X550610Y304486D01*
Y301514D01*
X551379Y298642D01*
X552866Y296068D01*
X554968Y293966D01*
X557542Y292479D01*
X560414Y291710D01*
X563386D01*
X566258Y292479D01*
X568832Y293966D01*
X570934Y296068D01*
X572421Y298642D01*
X573190Y301514D01*
Y304486D01*
X572421Y307358D01*
X570934Y309932D01*
X568832Y312034D01*
X566258Y313521D01*
X563386Y314290D01*
D02*
G37*
G36*
X537986D02*
X535014D01*
X532142Y313521D01*
X529568Y312034D01*
X527466Y309932D01*
X525979Y307358D01*
X525210Y304486D01*
Y301514D01*
X525979Y298642D01*
X527466Y296068D01*
X529568Y293966D01*
X532142Y292479D01*
X535014Y291710D01*
X537986D01*
X540858Y292479D01*
X543432Y293966D01*
X545534Y296068D01*
X547021Y298642D01*
X547790Y301514D01*
Y304486D01*
X547021Y307358D01*
X545534Y309932D01*
X543432Y312034D01*
X540858Y313521D01*
X537986Y314290D01*
D02*
G37*
G36*
X512586D02*
X509614D01*
X506742Y313521D01*
X504168Y312034D01*
X502066Y309932D01*
X500579Y307358D01*
X499810Y304486D01*
Y301514D01*
X500579Y298642D01*
X502066Y296068D01*
X504168Y293966D01*
X506742Y292479D01*
X509614Y291710D01*
X512586D01*
X515458Y292479D01*
X518032Y293966D01*
X520134Y296068D01*
X521621Y298642D01*
X522390Y301514D01*
Y304486D01*
X521621Y307358D01*
X520134Y309932D01*
X518032Y312034D01*
X515458Y313521D01*
X512586Y314290D01*
D02*
G37*
G36*
X819270Y236863D02*
Y229270D01*
X826863D01*
X826284Y231431D01*
X825114Y233459D01*
X823459Y235114D01*
X821431Y236284D01*
X819270Y236863D01*
D02*
G37*
G36*
X816730D02*
X814569Y236284D01*
X812541Y235114D01*
X810886Y233459D01*
X809716Y231431D01*
X809137Y229270D01*
X816730D01*
Y236863D01*
D02*
G37*
G36*
X826863Y226730D02*
X819270D01*
Y219137D01*
X821431Y219716D01*
X823459Y220886D01*
X825114Y222541D01*
X826284Y224569D01*
X826863Y226730D01*
D02*
G37*
G36*
X816730D02*
X809137D01*
X809716Y224569D01*
X810886Y222541D01*
X812541Y220886D01*
X814569Y219716D01*
X816730Y219137D01*
Y226730D01*
D02*
G37*
G36*
X991089Y237540D02*
X990270D01*
Y212270D01*
X1015540D01*
Y213089D01*
X1014886Y217215D01*
X1013596Y221188D01*
X1011699Y224910D01*
X1009244Y228290D01*
X1006290Y231244D01*
X1002910Y233699D01*
X999188Y235596D01*
X995215Y236887D01*
X991089Y237540D01*
D02*
G37*
G36*
X987730D02*
X986911D01*
X982785Y236887D01*
X978812Y235596D01*
X975090Y233699D01*
X971710Y231244D01*
X968756Y228290D01*
X966301Y224910D01*
X964404Y221188D01*
X963113Y217215D01*
X962460Y213089D01*
Y212270D01*
X987730D01*
Y237540D01*
D02*
G37*
G36*
X213089D02*
X212270D01*
Y212270D01*
X237540D01*
Y213089D01*
X236887Y217215D01*
X235596Y221188D01*
X233699Y224910D01*
X231244Y228290D01*
X228290Y231244D01*
X224910Y233699D01*
X221188Y235596D01*
X217215Y236887D01*
X213089Y237540D01*
D02*
G37*
G36*
X209730D02*
X208911D01*
X204785Y236887D01*
X200812Y235596D01*
X197090Y233699D01*
X193710Y231244D01*
X190756Y228290D01*
X188301Y224910D01*
X186404Y221188D01*
X185114Y217215D01*
X184460Y213089D01*
Y212270D01*
X209730D01*
Y237540D01*
D02*
G37*
G36*
X1015540Y209730D02*
X990270D01*
Y184460D01*
X991089D01*
X995215Y185114D01*
X999188Y186404D01*
X1002910Y188301D01*
X1006290Y190756D01*
X1009244Y193710D01*
X1011699Y197090D01*
X1013596Y200812D01*
X1014886Y204785D01*
X1015540Y208911D01*
Y209730D01*
D02*
G37*
G36*
X987730D02*
X962460D01*
Y208911D01*
X963113Y204785D01*
X964404Y200812D01*
X966301Y197090D01*
X968756Y193710D01*
X971710Y190756D01*
X975090Y188301D01*
X978812Y186404D01*
X982785Y185114D01*
X986911Y184460D01*
X987730D01*
Y209730D01*
D02*
G37*
G36*
X237540D02*
X212270D01*
Y184460D01*
X213089D01*
X217215Y185114D01*
X221188Y186404D01*
X224910Y188301D01*
X228290Y190756D01*
X231244Y193710D01*
X233699Y197090D01*
X235596Y200812D01*
X236887Y204785D01*
X237540Y208911D01*
Y209730D01*
D02*
G37*
G36*
X209730D02*
X184460D01*
Y208911D01*
X185114Y204785D01*
X186404Y200812D01*
X188301Y197090D01*
X190756Y193710D01*
X193710Y190756D01*
X197090Y188301D01*
X200812Y186404D01*
X204785Y185114D01*
X208911Y184460D01*
X209730D01*
Y209730D01*
D02*
G37*
G36*
X629270Y189863D02*
Y182270D01*
X636863D01*
X636284Y184431D01*
X635114Y186459D01*
X633459Y188114D01*
X631431Y189284D01*
X629270Y189863D01*
D02*
G37*
G36*
X626730D02*
X624569Y189284D01*
X622541Y188114D01*
X620886Y186459D01*
X619716Y184431D01*
X619137Y182270D01*
X626730D01*
Y189863D01*
D02*
G37*
G36*
X636863Y179730D02*
X629270D01*
Y172137D01*
X631431Y172716D01*
X633459Y173886D01*
X635114Y175541D01*
X636284Y177569D01*
X636863Y179730D01*
D02*
G37*
G36*
X626730D02*
X619137D01*
X619716Y177569D01*
X620886Y175541D01*
X622541Y173886D01*
X624569Y172716D01*
X626730Y172137D01*
Y179730D01*
D02*
G37*
G36*
X772089Y126540D02*
X771270D01*
Y101270D01*
X796540D01*
Y102089D01*
X795887Y106215D01*
X794596Y110188D01*
X792699Y113910D01*
X790244Y117290D01*
X787290Y120244D01*
X783910Y122699D01*
X780188Y124596D01*
X776215Y125886D01*
X772089Y126540D01*
D02*
G37*
G36*
X768730D02*
X767911D01*
X763785Y125886D01*
X759812Y124596D01*
X756090Y122699D01*
X752710Y120244D01*
X749756Y117290D01*
X747301Y113910D01*
X745404Y110188D01*
X744113Y106215D01*
X743460Y102089D01*
Y101270D01*
X768730D01*
Y126540D01*
D02*
G37*
G36*
X432089D02*
X431270D01*
Y101270D01*
X456540D01*
Y102089D01*
X455886Y106215D01*
X454596Y110188D01*
X452699Y113910D01*
X450244Y117290D01*
X447290Y120244D01*
X443910Y122699D01*
X440188Y124596D01*
X436215Y125886D01*
X432089Y126540D01*
D02*
G37*
G36*
X428730D02*
X427911D01*
X423785Y125886D01*
X419812Y124596D01*
X416090Y122699D01*
X412710Y120244D01*
X409756Y117290D01*
X407301Y113910D01*
X405404Y110188D01*
X404114Y106215D01*
X403460Y102089D01*
Y101270D01*
X428730D01*
Y126540D01*
D02*
G37*
G36*
X796540Y98730D02*
X771270D01*
Y73460D01*
X772089D01*
X776215Y74113D01*
X780188Y75404D01*
X783910Y77301D01*
X787290Y79756D01*
X790244Y82710D01*
X792699Y86090D01*
X794596Y89812D01*
X795887Y93785D01*
X796540Y97911D01*
Y98730D01*
D02*
G37*
G36*
X768730D02*
X743460D01*
Y97911D01*
X744113Y93785D01*
X745404Y89812D01*
X747301Y86090D01*
X749756Y82710D01*
X752710Y79756D01*
X756090Y77301D01*
X759812Y75404D01*
X763785Y74113D01*
X767911Y73460D01*
X768730D01*
Y98730D01*
D02*
G37*
G36*
X456540D02*
X431270D01*
Y73460D01*
X432089D01*
X436215Y74113D01*
X440188Y75404D01*
X443910Y77301D01*
X447290Y79756D01*
X450244Y82710D01*
X452699Y86090D01*
X454596Y89812D01*
X455886Y93785D01*
X456540Y97911D01*
Y98730D01*
D02*
G37*
G36*
X428730D02*
X403460D01*
Y97911D01*
X404114Y93785D01*
X405404Y89812D01*
X407301Y86090D01*
X409756Y82710D01*
X412710Y79756D01*
X416090Y77301D01*
X419812Y75404D01*
X423785Y74113D01*
X427911Y73460D01*
X428730D01*
Y98730D01*
D02*
G37*
G36*
X602089Y76540D02*
X601270D01*
Y51270D01*
X626540D01*
Y52089D01*
X625886Y56215D01*
X624596Y60188D01*
X622699Y63910D01*
X620244Y67290D01*
X617290Y70244D01*
X613910Y72699D01*
X610188Y74596D01*
X606215Y75887D01*
X602089Y76540D01*
D02*
G37*
G36*
X598730D02*
X597911D01*
X593785Y75887D01*
X589812Y74596D01*
X586090Y72699D01*
X582710Y70244D01*
X579756Y67290D01*
X577301Y63910D01*
X575404Y60188D01*
X574114Y56215D01*
X573460Y52089D01*
Y51270D01*
X598730D01*
Y76540D01*
D02*
G37*
G36*
X626540Y48730D02*
X601270D01*
Y23460D01*
X602089D01*
X606215Y24114D01*
X610188Y25404D01*
X613910Y27301D01*
X617290Y29756D01*
X620244Y32710D01*
X622699Y36090D01*
X624596Y39812D01*
X625886Y43785D01*
X626540Y47911D01*
Y48730D01*
D02*
G37*
G36*
X598730D02*
X573460D01*
Y47911D01*
X574114Y43785D01*
X575404Y39812D01*
X577301Y36090D01*
X579756Y32710D01*
X582710Y29756D01*
X586090Y27301D01*
X589812Y25404D01*
X593785Y24114D01*
X597911Y23460D01*
X598730D01*
Y48730D01*
D02*
G37*
%LPD*%
G36*
X717162Y652429D02*
X703332Y638599D01*
X684657D01*
X684171Y639772D01*
X684234Y639835D01*
X685556Y642125D01*
X686240Y644678D01*
Y647322D01*
X685556Y649875D01*
X684234Y652165D01*
X684171Y652228D01*
X684657Y653401D01*
X715540D01*
X716536Y653599D01*
X717162Y652429D01*
D02*
G37*
G36*
X756324Y634591D02*
X731366Y609634D01*
X730252Y607966D01*
X729861Y606000D01*
Y582128D01*
X709872Y562139D01*
X684397D01*
X683911Y563312D01*
X684234Y563635D01*
X685556Y565925D01*
X686240Y568478D01*
Y571122D01*
X685556Y573675D01*
X684234Y575965D01*
X684171Y576028D01*
X684657Y577201D01*
X705340D01*
X707307Y577592D01*
X708974Y578706D01*
X715634Y585366D01*
X716748Y587034D01*
X717139Y589000D01*
Y600872D01*
X752129Y635861D01*
X755798D01*
X756324Y634591D01*
D02*
G37*
G36*
X747701Y609637D02*
X747252Y608966D01*
X746861Y607000D01*
Y553129D01*
X730732Y536999D01*
X684657D01*
X684171Y538172D01*
X684234Y538235D01*
X685556Y540525D01*
X686240Y543078D01*
Y545722D01*
X685556Y548275D01*
X684234Y550565D01*
X684111Y550688D01*
X684597Y551861D01*
X712000D01*
X713967Y552252D01*
X715634Y553366D01*
X738634Y576366D01*
X739748Y578033D01*
X740139Y580000D01*
Y603871D01*
X746714Y610447D01*
X747701Y609637D01*
D02*
G37*
D10*
X892510Y844090D02*
Y927910D01*
X859490Y844090D02*
X892510D01*
X859490D02*
Y927910D01*
X892510D01*
X83490Y358090D02*
Y441910D01*
X116510D01*
Y358090D02*
Y441910D01*
X83490Y358090D02*
X116510D01*
X1083490D02*
Y441910D01*
X1116510D01*
Y358090D02*
Y441910D01*
X1083490Y358090D02*
X1116510D01*
X1035490Y928600D02*
X1068510D01*
X1035490Y869400D02*
Y928600D01*
Y869400D02*
X1068510D01*
Y928600D01*
D13*
X863300Y924100D02*
X888700D01*
X863300Y847900D02*
Y924100D01*
Y847900D02*
X888700D01*
Y924100D01*
X87300Y361900D02*
X112700D01*
Y438100D01*
X87300D02*
X112700D01*
X87300Y361900D02*
Y438100D01*
X1087300Y361900D02*
X1112700D01*
Y438100D01*
X1087300D02*
X1112700D01*
X1087300Y361900D02*
Y438100D01*
X1039300Y924400D02*
X1064700D01*
X1039300Y873600D02*
Y924400D01*
Y873600D02*
X1064700D01*
Y924400D01*
X876000Y883460D02*
Y888540D01*
X873460Y886000D02*
X878540D01*
X100000Y397460D02*
Y402540D01*
X97460Y400000D02*
X102540D01*
X1100000Y397460D02*
Y402540D01*
X1097460Y400000D02*
X1102540D01*
X1052000Y896460D02*
Y901540D01*
X1049460Y899000D02*
X1054540D01*
X826000Y778000D02*
Y788000D01*
X821000Y783000D02*
X831000D01*
X768998Y775581D02*
X769261D01*
X200000Y417580D02*
X200263D01*
X1000000D02*
X1000263D01*
D14*
X876000Y911600D02*
X876200Y911800D01*
X1200000Y600000D02*
G03*
X1200000Y600000I-600000J0D01*
G01*
D15*
X701600Y290300D02*
Y315700D01*
X498400D02*
X701600D01*
X498400Y290300D02*
Y315700D01*
Y290300D02*
X701600D01*
X498400D02*
X701600D01*
X498400D02*
Y315700D01*
X701600D01*
Y290300D02*
Y315700D01*
Y290300D02*
Y315700D01*
X498400D02*
X701600D01*
X498400Y290300D02*
Y315700D01*
Y290300D02*
X701600D01*
D31*
X111000Y500000D02*
X134000D01*
X64000Y453000D02*
X111000Y500000D01*
X1064600D02*
X1089000D01*
X1136000Y453000D01*
X238100Y500000D02*
X443000D01*
X484000Y541000D01*
Y787000D01*
X495400Y798400D01*
X523800D01*
X75600Y374400D02*
X100000D01*
X64000Y386000D02*
X75600Y374400D01*
X64000Y386000D02*
Y453000D01*
X1100000Y374400D02*
X1100400Y374000D01*
X1124000D01*
X1136000Y386000D01*
Y453000D01*
X950000Y488100D02*
X961900Y500000D01*
X950000Y389000D02*
Y488100D01*
X942000Y381000D02*
X950000Y389000D01*
X831000Y381000D02*
X942000D01*
X555000Y523000D02*
X570000D01*
X579000Y532000D01*
X670866D01*
X671006Y531860D01*
X732860D01*
X752000Y551000D01*
Y607000D01*
X761400Y616400D01*
X773000D01*
X599000Y557000D02*
X712000D01*
X735000Y580000D01*
Y606000D01*
X761000Y632000D01*
X782800D01*
X798400Y616400D01*
X712000Y603000D02*
X750000Y641000D01*
X596340Y582340D02*
X705340D01*
X712000Y589000D02*
Y603000D01*
X705340Y582340D02*
X712000Y589000D01*
X750000Y641000D02*
X810000D01*
X743000Y654000D02*
X843000D01*
X697000Y608000D02*
X743000Y654000D01*
X597000Y608000D02*
X697000D01*
X810000Y641000D02*
X823800Y627200D01*
X900000Y616400D02*
Y657000D01*
X876000Y681000D02*
X900000Y657000D01*
X738000Y681000D02*
X876000D01*
X849200Y616400D02*
Y647800D01*
X843000Y654000D02*
X849200Y647800D01*
X874600Y616400D02*
Y653400D01*
X862000Y666000D02*
X874600Y653400D01*
X738000Y666000D02*
X862000D01*
X705460Y633460D02*
X738000Y666000D01*
X715540Y658540D02*
X738000Y681000D01*
X823800Y616400D02*
Y627200D01*
X949000Y618200D02*
X950000Y619200D01*
X925000Y616800D02*
X925400Y616400D01*
X925000Y616800D02*
Y674000D01*
X950000Y619200D02*
Y658000D01*
X949000Y618200D02*
X950800Y616400D01*
X523800Y646000D02*
X579000D01*
X591540Y658540D01*
X715540D01*
X523800Y620600D02*
X524400Y620000D01*
X581000D01*
X594460Y633460D01*
X705460D01*
X523800Y595200D02*
X584200D01*
X597000Y608000D01*
X523800Y569800D02*
X524600Y569000D01*
X583000D01*
X596340Y582340D01*
X586000Y544000D02*
X599000Y557000D01*
X524200Y544000D02*
X586000D01*
X523800Y544400D02*
X524200Y544000D01*
X676200Y620600D02*
X678800Y618000D01*
X848000Y589800D02*
X849200Y591000D01*
X950800D02*
X951000Y590800D01*
X676200Y747600D02*
X679400D01*
D32*
X710000Y729000D02*
Y831000D01*
X691800Y849200D02*
X710000Y831000D01*
X676200Y849200D02*
X691800D01*
X976200Y570200D02*
Y591000D01*
X779000Y373000D02*
X976200Y570200D01*
X568200Y373000D02*
X779000D01*
X523800Y417400D02*
X568200Y373000D01*
X522000Y468000D02*
X618000D01*
X1000002Y344002D02*
Y399999D01*
X959000Y303000D02*
X1000002Y344002D01*
X688900Y303000D02*
X959000D01*
X976200Y616400D02*
X1001600D01*
X976200D02*
Y674800D01*
Y591000D02*
Y616400D01*
X943000Y708000D02*
X976200Y674800D01*
X731000Y708000D02*
X943000D01*
X710000Y729000D02*
X731000Y708000D01*
X705000Y900000D02*
X740000Y865000D01*
Y775000D02*
Y865000D01*
Y775000D02*
X757000Y758000D01*
X769000D01*
X439000Y939000D02*
X618000D01*
X420400Y920400D02*
X439000Y939000D01*
X420400Y791400D02*
Y920400D01*
X654000Y849200D02*
X676200D01*
X632000Y871200D02*
X654000Y849200D01*
X632000Y871200D02*
Y925000D01*
X618000Y939000D02*
X632000Y925000D01*
X688900Y259900D02*
Y303000D01*
X672000Y243000D02*
X688900Y259900D01*
X312000Y243000D02*
X672000D01*
X200002Y354998D02*
X312000Y243000D01*
X200002Y354998D02*
Y399999D01*
X200002Y400000D01*
X362000D01*
X430200Y468200D01*
X523800D01*
X676200Y900000D02*
X705000D01*
X1000003Y400000D02*
X1100000D01*
X100000D02*
X200001D01*
X769400Y757600D02*
X826000D01*
Y808400D02*
Y839000D01*
X847400Y860400D01*
X876000D01*
X876200Y911800D02*
X1052000D01*
D33*
X1000002Y399999D02*
X1000003Y400000D01*
X200001D02*
X200002Y399999D01*
X769000Y758000D02*
X769400Y757600D01*
D34*
X876000Y860400D02*
D03*
Y886000D02*
D03*
X100000Y425600D02*
D03*
Y400000D02*
D03*
X1100000Y425600D02*
D03*
Y400000D02*
D03*
X1052000Y886200D02*
D03*
D35*
X876000Y911600D02*
D03*
X100000Y374400D02*
D03*
X1100000D02*
D03*
X1052000Y911800D02*
D03*
D36*
X235600Y500000D02*
D03*
X134000D02*
D03*
X963400D02*
D03*
X1065000D02*
D03*
X900000Y616400D02*
D03*
Y591000D02*
D03*
X874600Y616400D02*
D03*
Y591000D02*
D03*
X849200Y616400D02*
D03*
Y591000D02*
D03*
X823800Y616400D02*
D03*
Y591000D02*
D03*
X798400Y616400D02*
D03*
Y591000D02*
D03*
X773000Y616400D02*
D03*
X1027000D02*
D03*
Y591000D02*
D03*
X1001600Y616400D02*
D03*
Y591000D02*
D03*
X976200Y616400D02*
D03*
Y591000D02*
D03*
X950800Y616400D02*
D03*
Y591000D02*
D03*
X925400Y616400D02*
D03*
Y591000D02*
D03*
X1052400Y616400D02*
D03*
Y591000D02*
D03*
D37*
X773000D02*
D03*
D38*
X1150000Y600000D02*
D03*
X989000Y211000D02*
D03*
X770000Y100000D02*
D03*
X600000Y50000D02*
D03*
X430000Y100000D02*
D03*
X50000Y600000D02*
D03*
X211000Y211000D02*
D03*
X989000Y989000D02*
D03*
X211000D02*
D03*
X430000Y1000000D02*
D03*
X770000D02*
D03*
X600000Y1150000D02*
D03*
D39*
X826000Y808400D02*
D03*
Y783000D02*
D03*
Y757600D02*
D03*
D40*
X993132Y783000D02*
D03*
D41*
X769000Y783000D02*
D03*
X200002Y424999D02*
D03*
X1000002D02*
D03*
D42*
X769000Y758000D02*
D03*
X200002Y399999D02*
D03*
X1000002D02*
D03*
D43*
X676200Y823800D02*
D03*
Y849200D02*
D03*
Y874600D02*
D03*
Y798400D02*
D03*
Y773000D02*
D03*
Y747600D02*
D03*
Y595200D02*
D03*
Y620600D02*
D03*
Y646000D02*
D03*
Y722200D02*
D03*
Y696800D02*
D03*
Y671400D02*
D03*
Y493600D02*
D03*
Y519000D02*
D03*
Y544400D02*
D03*
Y468200D02*
D03*
Y442800D02*
D03*
Y417400D02*
D03*
Y569800D02*
D03*
X523800Y823800D02*
D03*
Y849200D02*
D03*
Y874600D02*
D03*
Y798400D02*
D03*
Y773000D02*
D03*
Y747600D02*
D03*
Y595200D02*
D03*
Y620600D02*
D03*
Y646000D02*
D03*
Y722200D02*
D03*
Y696800D02*
D03*
Y671400D02*
D03*
Y493600D02*
D03*
Y519000D02*
D03*
Y544400D02*
D03*
Y468200D02*
D03*
Y442800D02*
D03*
Y417400D02*
D03*
Y569800D02*
D03*
X395000Y715200D02*
D03*
Y740600D02*
D03*
Y766000D02*
D03*
Y791400D02*
D03*
X420400D02*
D03*
Y766000D02*
D03*
Y740600D02*
D03*
D44*
X676200Y900000D02*
D03*
X523800D02*
D03*
D45*
X688900Y303000D02*
D03*
D46*
X663500D02*
D03*
X638100D02*
D03*
X612700D02*
D03*
X587300D02*
D03*
X561900D02*
D03*
X536500D02*
D03*
X511100D02*
D03*
D47*
X420400Y715200D02*
D03*
D48*
X831000Y381000D02*
D03*
X959000Y866000D02*
D03*
X291000Y758000D02*
D03*
X296000Y522000D02*
D03*
X920000Y437000D02*
D03*
X1081000Y818000D02*
D03*
X891000Y1011000D02*
D03*
X517000Y1013000D02*
D03*
X632000Y1021000D02*
D03*
X277000Y907000D02*
D03*
X150000Y768000D02*
D03*
X161000Y549000D02*
D03*
X818000Y228000D02*
D03*
X555000Y523000D02*
D03*
X1126000Y506000D02*
D03*
X774000Y452000D02*
D03*
X628000Y181000D02*
D03*
X433340Y329556D02*
D03*
X379000Y623000D02*
D03*
X579366Y717312D02*
D03*
X1107000Y746000D02*
D03*
X1040000Y569000D02*
D03*
X1016000Y665000D02*
D03*
X618000Y468000D02*
D03*
X899000Y688000D02*
D03*
X925000Y674000D02*
D03*
X950000Y658000D02*
D03*
M02*
