G04*
G04 #@! TF.GenerationSoftware,Altium Limited,CircuitMaker,2.2.1 (6)*
G04*
G04 Layer_Color=15132400*
%FSLAX44Y44*%
%MOMM*%
G71*
G04*
G04 #@! TF.SameCoordinates,9E674738-4F13-4C75-B363-8A9F2A517ECE*
G04*
G04*
G04 #@! TF.FilePolarity,Positive*
G04*
G01*
G75*
%ADD10C,0.0500*%
%ADD11C,0.3556*%
%ADD12C,0.2000*%
%ADD13C,0.1000*%
%ADD14C,0.2540*%
%ADD15C,0.0000*%
G36*
X168250Y412500D02*
Y417272D01*
Y418553D01*
X168750Y421066D01*
X169730Y423433D01*
X171154Y425564D01*
X172060Y426470D01*
X172060Y427074D01*
X172296Y428259D01*
X172758Y429375D01*
X173429Y430379D01*
X173856Y430806D01*
X173856Y430806D01*
X181694Y438644D01*
X182121Y439071D01*
X183125Y439742D01*
X184241Y440204D01*
X185426Y440440D01*
X186030D01*
X186936Y441346D01*
X189067Y442770D01*
X191434Y443750D01*
X193947Y444250D01*
X195228D01*
D01*
X205298D01*
X206152D01*
X207827Y443917D01*
X209406Y443263D01*
X210826Y442314D01*
X211430Y441710D01*
X212336D01*
X214113Y441357D01*
X215787Y440663D01*
X217293Y439656D01*
X217934Y439016D01*
X217934Y439016D01*
X226516Y430434D01*
X227157Y429794D01*
X228163Y428287D01*
X228857Y426613D01*
X229210Y424836D01*
Y423930D01*
X229754Y423386D01*
X230609Y422107D01*
X231197Y420686D01*
X231497Y419177D01*
Y418408D01*
D01*
Y412511D01*
X201270Y412500D01*
X201874Y413104D01*
X203294Y414053D01*
X204872Y414707D01*
X206548Y415040D01*
X207402D01*
D01*
X207620D01*
Y415342D01*
X207738Y415934D01*
X207969Y416492D01*
X208305Y416995D01*
X208518Y417208D01*
D01*
X211430Y420120D01*
Y430280D01*
X206350Y435360D01*
X206035Y435646D01*
X205328Y436118D01*
X204543Y436443D01*
X203709Y436609D01*
X203284Y436630D01*
D01*
X200002D01*
X199100Y436586D01*
X197330Y436234D01*
X195664Y435543D01*
X194164Y434541D01*
X193495Y433935D01*
X193495Y433935D01*
X189238Y429678D01*
X188802Y429197D01*
X188081Y428118D01*
X187585Y426920D01*
X187332Y425648D01*
X187300Y424999D01*
X187357Y423845D01*
X187807Y421580D01*
X188691Y419446D01*
X189974Y417526D01*
X190750Y416670D01*
Y416670D01*
X192226Y415194D01*
X192895Y414588D01*
X194394Y413586D01*
X196060Y412896D01*
X197828Y412544D01*
X198730Y412500D01*
D01*
X168250D01*
D02*
G37*
G36*
X968250D02*
Y417272D01*
Y418553D01*
X968750Y421066D01*
X969731Y423433D01*
X971154Y425564D01*
X972060Y426470D01*
X972060Y427074D01*
X972296Y428259D01*
X972758Y429375D01*
X973429Y430379D01*
X973856Y430806D01*
X973856Y430806D01*
X981694Y438644D01*
X982121Y439071D01*
X983125Y439742D01*
X984241Y440204D01*
X985426Y440440D01*
X986030D01*
X986936Y441346D01*
X989066Y442770D01*
X991434Y443750D01*
X993947Y444250D01*
X995228D01*
D01*
X1005298D01*
X1006152D01*
X1007827Y443917D01*
X1009406Y443263D01*
X1010826Y442314D01*
X1011430Y441710D01*
X1012336D01*
X1014113Y441357D01*
X1015787Y440663D01*
X1017293Y439656D01*
X1017934Y439016D01*
X1017934Y439016D01*
X1026516Y430434D01*
X1027157Y429794D01*
X1028163Y428287D01*
X1028857Y426613D01*
X1029210Y424836D01*
Y423930D01*
X1029754Y423386D01*
X1030609Y422107D01*
X1031197Y420686D01*
X1031497Y419177D01*
Y418408D01*
D01*
Y412511D01*
X1001270Y412500D01*
X1001874Y413104D01*
X1003294Y414053D01*
X1004873Y414707D01*
X1006548Y415040D01*
X1007402D01*
D01*
X1007620D01*
Y415342D01*
X1007738Y415934D01*
X1007969Y416492D01*
X1008305Y416995D01*
X1008518Y417208D01*
D01*
X1011430Y420120D01*
Y430280D01*
X1006350Y435360D01*
X1006035Y435646D01*
X1005328Y436118D01*
X1004543Y436443D01*
X1003709Y436609D01*
X1003284Y436630D01*
D01*
X1000002D01*
X999100Y436586D01*
X997330Y436234D01*
X995664Y435543D01*
X994164Y434541D01*
X993495Y433935D01*
X993495Y433935D01*
X989238Y429678D01*
X988802Y429197D01*
X988081Y428118D01*
X987585Y426920D01*
X987332Y425648D01*
X987300Y424999D01*
X987357Y423845D01*
X987807Y421580D01*
X988691Y419446D01*
X989974Y417526D01*
X990750Y416670D01*
Y416670D01*
X992226Y415194D01*
X992895Y414588D01*
X994394Y413586D01*
X996060Y412896D01*
X997828Y412544D01*
X998730Y412500D01*
D01*
X968250D01*
D02*
G37*
G36*
X737248Y770501D02*
Y775273D01*
Y776554D01*
X737748Y779067D01*
X738729Y781434D01*
X740152Y783565D01*
X741058Y784471D01*
X741058Y785075D01*
X741294Y786260D01*
X741756Y787375D01*
X742427Y788380D01*
X742854Y788807D01*
X742854Y788807D01*
X750692Y796645D01*
X751119Y797072D01*
X752124Y797743D01*
X753240Y798205D01*
X754424Y798441D01*
X755028D01*
X755934Y799347D01*
X758065Y800770D01*
X760432Y801751D01*
X762945Y802251D01*
X764227D01*
D01*
X774296D01*
X775150D01*
X776826Y801918D01*
X778404Y801264D01*
X779824Y800315D01*
X780428Y799711D01*
X781334D01*
X783111Y799357D01*
X784785Y798664D01*
X786292Y797657D01*
X786932Y797017D01*
X786932Y797017D01*
X795514Y788435D01*
X796155Y787794D01*
X797161Y786288D01*
X797855Y784614D01*
X798208Y782837D01*
Y781931D01*
X798752Y781387D01*
X799607Y780108D01*
X800196Y778687D01*
X800496Y777178D01*
Y776409D01*
D01*
Y770512D01*
X770268Y770501D01*
X770872Y771105D01*
X772293Y772054D01*
X773871Y772708D01*
X775546Y773041D01*
X776401D01*
D01*
X776618D01*
Y773343D01*
X776736Y773935D01*
X776967Y774493D01*
X777303Y774995D01*
X777516Y775209D01*
D01*
X780428Y778121D01*
Y788281D01*
X775348Y793361D01*
X775033Y793647D01*
X774326Y794119D01*
X773541Y794444D01*
X772707Y794610D01*
X772282Y794631D01*
D01*
X769000D01*
X768098Y794586D01*
X766329Y794235D01*
X764662Y793544D01*
X763162Y792542D01*
X762493Y791936D01*
X762493Y791936D01*
X758236Y787679D01*
X757800Y787198D01*
X757080Y786119D01*
X756583Y784921D01*
X756330Y783649D01*
X756298Y783000D01*
X756355Y781845D01*
X756806Y779581D01*
X757689Y777447D01*
X758972Y775527D01*
X759749Y774671D01*
Y774671D01*
X761224Y773195D01*
X761893Y772589D01*
X763392Y771587D01*
X765058Y770897D01*
X766827Y770545D01*
X767728Y770501D01*
D01*
X737248D01*
D02*
G37*
D10*
X803198D02*
G03*
X803198Y770501I-33937J0D01*
G01*
X234200Y412500D02*
G03*
X234200Y412500I-33937J0D01*
G01*
X1034200D02*
G03*
X1034200Y412500I-33937J0D01*
G01*
X892510Y844090D02*
Y927910D01*
X859490Y844090D02*
X892510D01*
X859490D02*
Y927910D01*
X892510D01*
X83490Y358090D02*
Y441910D01*
X116510D01*
Y358090D02*
Y441910D01*
X83490Y358090D02*
X116510D01*
X1083490D02*
Y441910D01*
X1116510D01*
Y358090D02*
Y441910D01*
X1083490Y358090D02*
X1116510D01*
X1035490Y928600D02*
X1068510D01*
X1035490Y869400D02*
Y928600D01*
Y869400D02*
X1068510D01*
Y928600D01*
D11*
X780631Y783000D02*
G03*
X780631Y783000I-11631J0D01*
G01*
X211632Y424999D02*
G03*
X211632Y424999I-11631J0D01*
G01*
X1011632D02*
G03*
X1011632Y424999I-11631J0D01*
G01*
D12*
X800748Y770501D02*
G03*
X800748Y770501I-31750J0D01*
G01*
X231750Y412500D02*
G03*
X231750Y412500I-31750J0D01*
G01*
X1031750D02*
G03*
X1031750Y412500I-31750J0D01*
G01*
X768998Y728591D02*
Y736211D01*
X765327Y732401D02*
X772808D01*
X737248Y770501D02*
X800748D01*
X200000Y370590D02*
Y378210D01*
X196329Y374400D02*
X203810D01*
X168250Y412500D02*
X231750D01*
X1000000Y370590D02*
Y378210D01*
X996329Y374400D02*
X1003810D01*
X968250Y412500D02*
X1031750D01*
D13*
X861500Y846250D02*
Y925750D01*
Y846100D02*
X890500D01*
Y846250D02*
Y925750D01*
X861500Y925900D02*
X890500D01*
X114500Y360250D02*
Y439750D01*
X85500Y439900D02*
X114500D01*
X85500Y360250D02*
Y439750D01*
Y360100D02*
X114500D01*
X1114500Y360250D02*
Y439750D01*
X1085500Y439900D02*
X1114500D01*
X1085500Y360250D02*
Y439750D01*
Y360100D02*
X1114500D01*
X1066500Y871600D02*
Y926400D01*
X1037500Y871600D02*
X1066500D01*
X1037500Y926400D02*
X1066500D01*
X1037500Y871600D02*
Y926400D01*
X863300Y924100D02*
X888700D01*
X863300Y847900D02*
Y924100D01*
Y847900D02*
X888700D01*
Y924100D01*
X87300Y361900D02*
X112700D01*
Y438100D01*
X87300D02*
X112700D01*
X87300Y361900D02*
Y438100D01*
X1087300Y361900D02*
X1112700D01*
Y438100D01*
X1087300D02*
X1112700D01*
X1087300Y361900D02*
Y438100D01*
X1039300Y924400D02*
X1064700D01*
X1039300Y873600D02*
Y924400D01*
Y873600D02*
X1064700D01*
Y924400D01*
X876000Y883460D02*
Y888540D01*
X873460Y886000D02*
X878540D01*
X100000Y397460D02*
Y402540D01*
X97460Y400000D02*
X102540D01*
X1100000Y397460D02*
Y402540D01*
X1097460Y400000D02*
X1102540D01*
X1052000Y896460D02*
Y901540D01*
X1049460Y899000D02*
X1054540D01*
X826000Y778000D02*
Y788000D01*
X821000Y783000D02*
X831000D01*
X768998Y775581D02*
X769261D01*
X200000Y417580D02*
X200263D01*
X1000000D02*
X1000263D01*
D14*
X222900Y488570D02*
Y512003D01*
X146700D02*
X222900D01*
X146700Y488570D02*
Y512003D01*
Y488570D02*
X222900D01*
X976100Y487997D02*
Y511430D01*
Y487997D02*
X1052300D01*
Y511430D01*
X976100D02*
X1052300D01*
X773000Y556710D02*
X776810Y552900D01*
X773000D02*
X776810D01*
X900000Y550360D02*
Y557980D01*
X925400Y550360D02*
Y557980D01*
X722000Y558200D02*
Y649200D01*
X1103400Y558200D02*
Y649200D01*
X769190Y552900D02*
X773000Y556710D01*
X769190Y552900D02*
X773000D01*
X900000Y550360D02*
X925400D01*
X722000Y558200D02*
X1103400D01*
X722000Y649200D02*
X1103400D01*
X1001768Y730930D02*
Y754552D01*
X971034D02*
X1001768D01*
X971288Y812972D02*
X1001768D01*
X971034Y813226D02*
X971288Y812972D01*
X971034Y813226D02*
Y832530D01*
X840732Y783000D02*
X869180Y783000D01*
X1001768Y730930D02*
X1020818D01*
X840732Y808400D02*
X870958D01*
X840732Y757600D02*
X870958D01*
X1001768Y832530D02*
X1020818D01*
X1001768Y812972D02*
Y832530D01*
X870958D02*
X971034D01*
X870958Y730930D02*
Y832530D01*
X1020818Y730930D02*
Y832530D01*
X870958Y730930D02*
X971034D01*
Y754552D01*
X663500Y887300D02*
X688900D01*
X663500Y915240D02*
X688900D01*
Y402160D02*
Y915240D01*
X663500Y402160D02*
X688900D01*
X663500Y402160D02*
Y915240D01*
X511100Y887300D02*
X536500D01*
X511100Y915240D02*
X536500D01*
Y402160D02*
Y915240D01*
X511100Y402160D02*
X536500D01*
X511100Y402160D02*
Y915240D01*
X498400Y290300D02*
X701600D01*
X498400D02*
Y315700D01*
X701600D01*
Y290300D02*
Y315700D01*
X438180Y679640D02*
Y826960D01*
X176560Y679640D02*
X438180D01*
X176560D02*
Y826960D01*
X438180D01*
X328421Y1053204D02*
Y1073198D01*
X341750Y1053204D01*
Y1073198D01*
X361744D02*
X348414D01*
Y1053204D01*
X361744D01*
X348414Y1063201D02*
X355079D01*
X381737Y1069866D02*
X378405Y1073198D01*
X371740D01*
X368408Y1069866D01*
Y1066534D01*
X371740Y1063201D01*
X378405D01*
X381737Y1059869D01*
Y1056537D01*
X378405Y1053204D01*
X371740D01*
X368408Y1056537D01*
X408395Y1053204D02*
X415060D01*
X411727D01*
Y1066534D01*
X408395D01*
X425056Y1053204D02*
Y1066534D01*
X435053D01*
X438385Y1063201D01*
Y1053204D01*
X445050D02*
X455047D01*
X458379Y1056537D01*
X455047Y1059869D01*
X448382D01*
X445050Y1063201D01*
X448382Y1066534D01*
X458379D01*
X468376Y1069866D02*
Y1066534D01*
X465043D01*
X471708D01*
X468376D01*
Y1056537D01*
X471708Y1053204D01*
X481705D02*
X488369D01*
X485037D01*
Y1066534D01*
X481705D01*
X501698Y1069866D02*
Y1066534D01*
X498366D01*
X505031D01*
X501698D01*
Y1056537D01*
X505031Y1053204D01*
X515027Y1066534D02*
Y1056537D01*
X518360Y1053204D01*
X528356D01*
Y1066534D01*
X538353Y1069866D02*
Y1066534D01*
X535021D01*
X541685D01*
X538353D01*
Y1056537D01*
X541685Y1053204D01*
X561679D02*
X555014D01*
X551682Y1056537D01*
Y1063201D01*
X555014Y1066534D01*
X561679D01*
X565011Y1063201D01*
Y1059869D01*
X551682D01*
X575008Y1049872D02*
X578340Y1053204D01*
Y1056537D01*
X575008D01*
Y1053204D01*
X578340D01*
X575008Y1049872D01*
X571676Y1046540D01*
X611663Y1053204D02*
Y1066534D01*
X618327Y1073198D01*
X624992Y1066534D01*
Y1053204D01*
Y1063201D01*
X611663D01*
X631656Y1053204D02*
Y1066534D01*
X638321Y1073198D01*
X644986Y1066534D01*
Y1053204D01*
Y1063201D01*
X631656D01*
X651650Y1073198D02*
Y1056537D01*
X654982Y1053204D01*
X661647D01*
X664979Y1056537D01*
Y1073198D01*
X691637D02*
Y1053204D01*
Y1059869D01*
X704966Y1073198D01*
X694969Y1063201D01*
X704966Y1053204D01*
X711631D02*
X718295D01*
X714963D01*
Y1073198D01*
X711631D01*
X731624Y1066534D02*
X738289D01*
X741621Y1063201D01*
Y1053204D01*
X731624D01*
X728292Y1056537D01*
X731624Y1059869D01*
X741621D01*
X754950Y1046540D02*
X758282D01*
X761615Y1049872D01*
Y1066534D01*
X751618D01*
X748286Y1063201D01*
Y1056537D01*
X751618Y1053204D01*
X761615D01*
X778276D02*
X771611D01*
X768279Y1056537D01*
Y1063201D01*
X771611Y1066534D01*
X778276D01*
X781608Y1063201D01*
Y1059869D01*
X768279D01*
X788273Y1053204D02*
Y1066534D01*
X798269D01*
X801602Y1063201D01*
Y1053204D01*
X811599D02*
Y1069866D01*
Y1063201D01*
X808266D01*
X814931D01*
X811599D01*
Y1069866D01*
X814931Y1073198D01*
X824928Y1066534D02*
Y1056537D01*
X828260Y1053204D01*
X838257D01*
Y1066534D01*
X844921D02*
Y1053204D01*
Y1059869D01*
X848253Y1063201D01*
X851585Y1066534D01*
X854918D01*
X868247Y1069866D02*
Y1066534D01*
X864915D01*
X871579D01*
X868247D01*
Y1056537D01*
X871579Y1053204D01*
X365076Y1106866D02*
X361743Y1110198D01*
X355079D01*
X351747Y1106866D01*
Y1103533D01*
X355079Y1100201D01*
X361743D01*
X365076Y1096869D01*
Y1093537D01*
X361743Y1090204D01*
X355079D01*
X351747Y1093537D01*
X371740Y1103533D02*
Y1093537D01*
X375073Y1090204D01*
X378405Y1093537D01*
X381737Y1090204D01*
X385069Y1093537D01*
Y1103533D01*
X395066D02*
X401731D01*
X405063Y1100201D01*
Y1090204D01*
X395066D01*
X391734Y1093537D01*
X395066Y1096869D01*
X405063D01*
X411727Y1103533D02*
Y1090204D01*
Y1096869D01*
X415060Y1100201D01*
X418392Y1103533D01*
X421724D01*
X431721Y1090204D02*
Y1103533D01*
X435053D01*
X438385Y1100201D01*
Y1090204D01*
Y1100201D01*
X441718Y1103533D01*
X445050Y1100201D01*
Y1090204D01*
X451715D02*
X458379D01*
X455047D01*
Y1110198D01*
X451715D01*
X468376Y1103533D02*
Y1093537D01*
X471708Y1090204D01*
X481705D01*
Y1086872D01*
X478372Y1083540D01*
X475040D01*
X481705Y1090204D02*
Y1103533D01*
X501698Y1110198D02*
X488369D01*
Y1090204D01*
X501698D01*
X488369Y1100201D02*
X495034D01*
X508363Y1103533D02*
X521692Y1090204D01*
X515027Y1096869D01*
X521692Y1103533D01*
X508363Y1090204D01*
X528356Y1083540D02*
Y1103533D01*
X538353D01*
X541685Y1100201D01*
Y1093537D01*
X538353Y1090204D01*
X528356D01*
X548350D02*
X555014D01*
X551682D01*
Y1110198D01*
X548350D01*
X568344Y1090204D02*
X575008D01*
X578340Y1093537D01*
Y1100201D01*
X575008Y1103533D01*
X568344D01*
X565011Y1100201D01*
Y1093537D01*
X568344Y1090204D01*
X585005Y1103533D02*
Y1090204D01*
Y1096869D01*
X588337Y1100201D01*
X591669Y1103533D01*
X595002D01*
X614995Y1090204D02*
X608331D01*
X604998Y1093537D01*
Y1100201D01*
X608331Y1103533D01*
X614995D01*
X618327Y1100201D01*
Y1096869D01*
X604998D01*
X624992Y1103533D02*
Y1090204D01*
Y1096869D01*
X628324Y1100201D01*
X631656Y1103533D01*
X634989D01*
X644986Y1110198D02*
Y1090204D01*
X654982D01*
X658315Y1093537D01*
Y1096869D01*
X654982Y1100201D01*
X644986D01*
X654982D01*
X658315Y1103533D01*
Y1106866D01*
X654982Y1110198D01*
X644986D01*
X668311Y1090204D02*
X674976D01*
X678308Y1093537D01*
Y1100201D01*
X674976Y1103533D01*
X668311D01*
X664979Y1100201D01*
Y1093537D01*
X668311Y1090204D01*
X688305Y1106866D02*
Y1103533D01*
X684973D01*
X691637D01*
X688305D01*
Y1093537D01*
X691637Y1090204D01*
X721628Y1110198D02*
Y1090204D01*
X734957D01*
X744953Y1103533D02*
X751618D01*
X754950Y1100201D01*
Y1090204D01*
X744953D01*
X741621Y1093537D01*
X744953Y1096869D01*
X754950D01*
X761615Y1103533D02*
Y1093537D01*
X764947Y1090204D01*
X774944D01*
Y1086872D01*
X771611Y1083540D01*
X768279D01*
X774944Y1090204D02*
Y1103533D01*
X791605Y1090204D02*
X784940D01*
X781608Y1093537D01*
Y1100201D01*
X784940Y1103533D01*
X791605D01*
X794937Y1100201D01*
Y1096869D01*
X781608D01*
X801602Y1103533D02*
Y1090204D01*
Y1096869D01*
X804934Y1100201D01*
X808266Y1103533D01*
X811599D01*
X841589Y1090204D02*
X848253D01*
X844921D01*
Y1110198D01*
X841589Y1106866D01*
X127000Y520954D02*
Y536189D01*
X134618D01*
X137157Y533650D01*
Y528572D01*
X134618Y526032D01*
X127000D01*
X132078D02*
X137157Y520954D01*
X152392D02*
X142235D01*
X152392Y531111D01*
Y533650D01*
X149853Y536189D01*
X144774D01*
X142235Y533650D01*
X956310Y520446D02*
Y535681D01*
X963928D01*
X966467Y533142D01*
Y528064D01*
X963928Y525524D01*
X956310D01*
X961388D02*
X966467Y520446D01*
X971545D02*
X976623D01*
X974084D01*
Y535681D01*
X971545Y533142D01*
X733549Y673349D02*
X728470D01*
X731010D01*
Y660653D01*
X728470Y658114D01*
X725931D01*
X723392Y660653D01*
X738627Y670810D02*
X741166Y673349D01*
X746245D01*
X748784Y670810D01*
Y668271D01*
X746245Y665732D01*
X748784Y663192D01*
Y660653D01*
X746245Y658114D01*
X741166D01*
X738627Y660653D01*
Y663192D01*
X741166Y665732D01*
X738627Y668271D01*
Y670810D01*
X741166Y665732D02*
X746245D01*
X871979Y950971D02*
X866900D01*
X869439D01*
Y938275D01*
X866900Y935736D01*
X864361D01*
X861822Y938275D01*
X887214Y950971D02*
X877057D01*
Y943354D01*
X882135Y945893D01*
X884675D01*
X887214Y943354D01*
Y938275D01*
X884675Y935736D01*
X879596D01*
X877057Y938275D01*
X817372Y856737D02*
Y844041D01*
X819911Y841502D01*
X824989D01*
X827529Y844041D01*
Y856737D01*
X832607Y841502D02*
X837685D01*
X835146D01*
Y856737D01*
X832607Y854198D01*
X509775Y339847D02*
X504696D01*
X507235D01*
Y327151D01*
X504696Y324612D01*
X502157D01*
X499618Y327151D01*
X514853Y339847D02*
X525010D01*
Y337308D01*
X514853Y327151D01*
Y324612D01*
X1048001Y951733D02*
X1042922D01*
X1045462D01*
Y939037D01*
X1042922Y936498D01*
X1040383D01*
X1037844Y939037D01*
X1063236Y951733D02*
X1058157Y949194D01*
X1053079Y944116D01*
Y939037D01*
X1055618Y936498D01*
X1060697D01*
X1063236Y939037D01*
Y941576D01*
X1060697Y944116D01*
X1053079D01*
X96009Y465069D02*
X90930D01*
X93469D01*
Y452373D01*
X90930Y449834D01*
X88391D01*
X85852Y452373D01*
X108705Y449834D02*
Y465069D01*
X101087Y457452D01*
X111244D01*
X1096007Y465069D02*
X1090928D01*
X1093467D01*
Y452373D01*
X1090928Y449834D01*
X1088389D01*
X1085850Y452373D01*
X1101085Y462530D02*
X1103624Y465069D01*
X1108703D01*
X1111242Y462530D01*
Y459991D01*
X1108703Y457452D01*
X1106163D01*
X1108703D01*
X1111242Y454912D01*
Y452373D01*
X1108703Y449834D01*
X1103624D01*
X1101085Y452373D01*
X674875Y939287D02*
X669796D01*
X672336D01*
Y926591D01*
X669796Y924052D01*
X667257D01*
X664718Y926591D01*
X690110Y924052D02*
X679953D01*
X690110Y934209D01*
Y936748D01*
X687571Y939287D01*
X682492D01*
X679953Y936748D01*
X522475Y939287D02*
X517396D01*
X519935D01*
Y926591D01*
X517396Y924052D01*
X514857D01*
X512318Y926591D01*
X527553Y924052D02*
X532631D01*
X530092D01*
Y939287D01*
X527553Y936748D01*
X177800Y851149D02*
X182878D01*
X180339D01*
Y835914D01*
X177800D01*
X182878D01*
X200653Y848610D02*
X198113Y851149D01*
X193035D01*
X190496Y848610D01*
Y838453D01*
X193035Y835914D01*
X198113D01*
X200653Y838453D01*
X205731Y835914D02*
X210809D01*
X208270D01*
Y851149D01*
X205731Y848610D01*
X178813Y467102D02*
X176273Y469641D01*
X171195D01*
X168656Y467102D01*
Y456945D01*
X171195Y454406D01*
X176273D01*
X178813Y456945D01*
X183891Y467102D02*
X186430Y469641D01*
X191509D01*
X194048Y467102D01*
Y464563D01*
X191509Y462024D01*
X188969D01*
X191509D01*
X194048Y459484D01*
Y456945D01*
X191509Y454406D01*
X186430D01*
X183891Y456945D01*
X978659Y467102D02*
X976120Y469641D01*
X971041D01*
X968502Y467102D01*
Y456945D01*
X971041Y454406D01*
X976120D01*
X978659Y456945D01*
X993894Y454406D02*
X983737D01*
X993894Y464563D01*
Y467102D01*
X991355Y469641D01*
X986276D01*
X983737Y467102D01*
X747773Y824988D02*
X745234Y827527D01*
X740155D01*
X737616Y824988D01*
Y814831D01*
X740155Y812292D01*
X745234D01*
X747773Y814831D01*
X752851Y812292D02*
X757929D01*
X755390D01*
Y827527D01*
X752851Y824988D01*
X1200000Y600000D02*
G03*
X1200000Y600000I-600000J0D01*
G01*
D15*
X701600Y290300D02*
Y315700D01*
X498400D02*
X701600D01*
X498400Y290300D02*
Y315700D01*
Y290300D02*
X701600D01*
X498400D02*
X701600D01*
X498400D02*
Y315700D01*
X701600D01*
Y290300D02*
Y315700D01*
Y290300D02*
Y315700D01*
X498400D02*
X701600D01*
X498400Y290300D02*
Y315700D01*
Y290300D02*
X701600D01*
M02*
