G04*
G04 #@! TF.GenerationSoftware,Altium Limited,CircuitMaker,2.2.1 (6)*
G04*
G04 Layer_Color=128*
%FSLAX44Y44*%
%MOMM*%
G71*
G04*
G04 #@! TF.SameCoordinates,C6CF6D27-CB2A-4CAF-B18B-BA4932DD29FA*
G04*
G04*
G04 #@! TF.FilePolarity,Positive*
G04*
G01*
G75*
%ADD10C,0.2540*%
%ADD12C,0.0500*%
%ADD18C,0.1000*%
%ADD53C,0.0508*%
D10*
X1183186Y458955D02*
G03*
X1139604Y337651I-583186J141045D01*
G01*
X695000Y459000D02*
X1183000D01*
X695000Y338000D02*
Y459000D01*
Y338000D02*
X1140000D01*
D12*
X519600Y561100D02*
X616600D01*
X519600Y763100D02*
X616600D01*
Y561100D02*
Y763100D01*
X519600Y561100D02*
Y763100D01*
X1061000Y777050D02*
X1129000D01*
X1061000Y848950D02*
X1129000D01*
Y777050D02*
Y848950D01*
X1061000Y777050D02*
Y848950D01*
D18*
X390600Y761200D02*
G03*
X390600Y761200I-5000J0D01*
G01*
X549100Y751600D02*
G03*
X549100Y751600I-5000J0D01*
G01*
X376600Y549200D02*
Y770200D01*
X441600Y549200D02*
Y770200D01*
X376600D02*
X441600D01*
X376600Y549200D02*
X441600D01*
X535100Y563600D02*
X601100D01*
X535100Y760600D02*
X601100D01*
Y563600D02*
Y760600D01*
X535100Y563600D02*
Y760600D01*
X1062000Y778050D02*
Y847950D01*
X1128000Y778050D02*
Y847950D01*
X1062000D02*
X1128000D01*
X1062000Y778050D02*
X1128000D01*
X878998Y776581D02*
X879261D01*
X404100Y659700D02*
X414100D01*
X409100Y654700D02*
Y664700D01*
X568100Y657100D02*
Y667100D01*
X563100Y662100D02*
X573100D01*
X1090000Y813000D02*
X1100000D01*
X1095000Y808000D02*
Y818000D01*
D53*
X973250Y860600D02*
X980750D01*
X977000Y856850D02*
Y864350D01*
X973250Y759000D02*
X980750D01*
X977000Y755250D02*
Y762750D01*
X158651Y940461D02*
X166271D01*
X162460Y936650D02*
Y944270D01*
X140690Y922500D02*
X148310D01*
X144500Y918690D02*
Y926310D01*
X46190Y535400D02*
X53810D01*
X50000Y531590D02*
Y539210D01*
X46190Y510000D02*
X53810D01*
X50000Y506190D02*
Y513810D01*
X255730Y162460D02*
X263349D01*
X259540Y158651D02*
Y166271D01*
X273690Y144500D02*
X281310D01*
X277500Y140690D02*
Y148310D01*
X660790Y50000D02*
X668410D01*
X664600Y46190D02*
Y53810D01*
X686190Y50000D02*
X693810D01*
X690000Y46190D02*
Y53810D01*
X1033729Y259540D02*
X1041349D01*
X1037540Y255730D02*
Y263349D01*
X1051690Y277500D02*
X1059310D01*
X1055500Y273690D02*
Y281310D01*
X1146190Y664600D02*
X1153810D01*
X1150000Y660790D02*
Y668410D01*
X1146190Y690000D02*
X1153810D01*
X1150000Y686190D02*
Y693810D01*
X936650Y1037540D02*
X944270D01*
X940461Y1033729D02*
Y1041349D01*
X918690Y1055500D02*
X926310D01*
X922500Y1051690D02*
Y1059310D01*
X531590Y1150000D02*
X539210D01*
X535400Y1146190D02*
Y1153810D01*
X506190Y1150000D02*
X513810D01*
X510000Y1146190D02*
Y1153810D01*
X1032075Y941480D02*
X1040965D01*
X1036520Y937035D02*
Y945925D01*
X1050035Y923520D02*
X1058925D01*
X1054480Y919075D02*
Y927965D01*
X662855Y1150000D02*
X671745D01*
X667300Y1145555D02*
Y1154445D01*
X688255Y1150000D02*
X697145D01*
X692700Y1145555D02*
Y1154445D01*
X254075Y1036520D02*
X262965D01*
X258520Y1032075D02*
Y1040965D01*
X272035Y1054480D02*
X280925D01*
X276480Y1050035D02*
Y1058925D01*
X875500Y784000D02*
X882500D01*
X879000Y780500D02*
Y787500D01*
X875500Y759000D02*
X882500D01*
X879000Y755500D02*
Y762500D01*
X159035Y258520D02*
X167925D01*
X163480Y254075D02*
Y262965D01*
X141075Y276480D02*
X149965D01*
X145520Y272035D02*
Y280925D01*
X45555Y667300D02*
X54445D01*
X50000Y662855D02*
Y671745D01*
X45555Y692700D02*
X54445D01*
X50000Y688255D02*
Y697145D01*
X366500Y748600D02*
X375500D01*
X371000Y744100D02*
Y753100D01*
X366500Y723200D02*
X375500D01*
X371000Y718700D02*
Y727700D01*
X366500Y697800D02*
X375500D01*
X371000Y693300D02*
Y702300D01*
X366500Y672400D02*
X375500D01*
X371000Y667900D02*
Y676900D01*
X366500Y647000D02*
X375500D01*
X371000Y642500D02*
Y651500D01*
X366500Y621600D02*
X375500D01*
X371000Y617100D02*
Y626100D01*
X366500Y596200D02*
X375500D01*
X371000Y591700D02*
Y600700D01*
X366500Y570800D02*
X375500D01*
X371000Y566300D02*
Y575300D01*
X442700Y748600D02*
X451700D01*
X447200Y744100D02*
Y753100D01*
X442700Y723200D02*
X451700D01*
X447200Y718700D02*
Y727700D01*
X442700Y697800D02*
X451700D01*
X447200Y693300D02*
Y702300D01*
X442700Y672400D02*
X451700D01*
X447200Y667900D02*
Y676900D01*
X442700Y647000D02*
X451700D01*
X447200Y642500D02*
Y651500D01*
X442700Y621600D02*
X451700D01*
X447200Y617100D02*
Y626100D01*
X442700Y596200D02*
X451700D01*
X447200Y591700D02*
Y600700D01*
X442700Y570800D02*
X451700D01*
X447200Y566300D02*
Y575300D01*
X601700Y573200D02*
X610700D01*
X606200Y568700D02*
Y577700D01*
X601700Y598600D02*
X610700D01*
X606200Y594100D02*
Y603100D01*
X601700Y624000D02*
X610700D01*
X606200Y619500D02*
Y628500D01*
X601700Y649400D02*
X610700D01*
X606200Y644900D02*
Y653900D01*
X601700Y674800D02*
X610700D01*
X606200Y670300D02*
Y679300D01*
X601700Y700200D02*
X610700D01*
X606200Y695700D02*
Y704700D01*
X601700Y725600D02*
X610700D01*
X606200Y721100D02*
Y730100D01*
X601700Y751000D02*
X610700D01*
X606200Y746500D02*
Y755500D01*
X525500Y573200D02*
X534500D01*
X530000Y568700D02*
Y577700D01*
X525500Y598600D02*
X534500D01*
X530000Y594100D02*
Y603100D01*
X525500Y624000D02*
X534500D01*
X530000Y619500D02*
Y628500D01*
X525500Y649400D02*
X534500D01*
X530000Y644900D02*
Y653900D01*
X525500Y674800D02*
X534500D01*
X530000Y670300D02*
Y679300D01*
X525500Y700200D02*
X534500D01*
X530000Y695700D02*
Y704700D01*
X525500Y725600D02*
X534500D01*
X530000Y721100D02*
Y730100D01*
X525500Y751000D02*
X534500D01*
X530000Y746500D02*
Y755500D01*
X1138000Y750000D02*
X1148000D01*
X1143000Y745000D02*
Y755000D01*
X1116650Y812650D02*
X1124150D01*
X1120400Y808900D02*
Y816400D01*
X1091250Y787250D02*
X1098750D01*
X1095000Y783500D02*
Y791000D01*
X1065850Y812650D02*
X1073350D01*
X1069600Y808900D02*
Y816400D01*
X502855Y50000D02*
X511745D01*
X507300Y45555D02*
Y54445D01*
X528255Y50000D02*
X537145D01*
X532700Y45555D02*
Y54445D01*
X919075Y145520D02*
X927965D01*
X923520Y141075D02*
Y149965D01*
X937035Y163480D02*
X945925D01*
X941480Y159035D02*
Y167925D01*
X1145555Y507300D02*
X1154445D01*
X1150000Y502855D02*
Y511745D01*
X1145555Y532700D02*
X1154445D01*
X1150000Y528255D02*
Y537145D01*
X894500Y616400D02*
X905500D01*
X900000Y610900D02*
Y621900D01*
X894500Y591000D02*
X905500D01*
X900000Y585500D02*
Y596500D01*
X869100Y616400D02*
X880100D01*
X874600Y610900D02*
Y621900D01*
X869100Y591000D02*
X880100D01*
X874600Y585500D02*
Y596500D01*
X843700Y616400D02*
X854700D01*
X849200Y610900D02*
Y621900D01*
X843700Y591000D02*
X854700D01*
X849200Y585500D02*
Y596500D01*
X818300Y616400D02*
X829300D01*
X823800Y610900D02*
Y621900D01*
X818300Y591000D02*
X829300D01*
X823800Y585500D02*
Y596500D01*
X792900Y616400D02*
X803900D01*
X798400Y610900D02*
Y621900D01*
X792900Y591000D02*
X803900D01*
X798400Y585500D02*
Y596500D01*
X767500Y616400D02*
X778500D01*
X773000Y610900D02*
Y621900D01*
X767500Y591000D02*
X778500D01*
X773000Y585500D02*
Y596500D01*
X1021500Y616400D02*
X1032500D01*
X1027000Y610900D02*
Y621900D01*
X1021500Y591000D02*
X1032500D01*
X1027000Y585500D02*
Y596500D01*
X996100Y616400D02*
X1007100D01*
X1001600Y610900D02*
Y621900D01*
X996100Y591000D02*
X1007100D01*
X1001600Y585500D02*
Y596500D01*
X970700Y616400D02*
X981700D01*
X976200Y610900D02*
Y621900D01*
X970700Y591000D02*
X981700D01*
X976200Y585500D02*
Y596500D01*
X945300Y616400D02*
X956300D01*
X950800Y610900D02*
Y621900D01*
X945300Y591000D02*
X956300D01*
X950800Y585500D02*
Y596500D01*
X919900Y616400D02*
X930900D01*
X925400Y610900D02*
Y621900D01*
X919900Y591000D02*
X930900D01*
X925400Y585500D02*
Y596500D01*
X1046900Y616400D02*
X1057900D01*
X1052400Y610900D02*
Y621900D01*
X1046900Y591000D02*
X1057900D01*
X1052400Y585500D02*
Y596500D01*
X1130000Y600000D02*
X1170000D01*
X1150000Y580000D02*
Y620000D01*
X969000Y211000D02*
X1009000D01*
X989000Y191000D02*
Y231000D01*
X580000Y50000D02*
X620000D01*
X600000Y30000D02*
Y70000D01*
X30000Y600000D02*
X70000D01*
X50000Y580000D02*
Y620000D01*
X191000Y211000D02*
X231000D01*
X211000Y191000D02*
Y231000D01*
X969000Y989000D02*
X1009000D01*
X989000Y969000D02*
Y1009000D01*
X191000Y989000D02*
X231000D01*
X211000Y969000D02*
Y1009000D01*
X580000Y1150000D02*
X620000D01*
X600000Y1130000D02*
Y1170000D01*
X915444Y840000D02*
X922556D01*
X919000Y836444D02*
Y843556D01*
X596444Y827000D02*
X603556D01*
X600000Y823444D02*
Y830556D01*
X437444Y806000D02*
X444556D01*
X441000Y802444D02*
Y809556D01*
X428444Y363000D02*
X435556D01*
X432000Y359444D02*
Y366556D01*
X1088444Y294000D02*
X1095556D01*
X1092000Y290444D02*
Y297556D01*
X745444Y287000D02*
X752556D01*
X749000Y283444D02*
Y290556D01*
X707444Y130000D02*
X714556D01*
X711000Y126444D02*
Y133556D01*
X809444Y110000D02*
X816556D01*
X813000Y106444D02*
Y113556D01*
X437444Y211000D02*
X444556D01*
X441000Y207444D02*
Y214556D01*
X273444Y434000D02*
X280556D01*
X277000Y430444D02*
Y437556D01*
X545444Y426000D02*
X552556D01*
X549000Y422444D02*
Y429556D01*
X686983Y571139D02*
X694095D01*
X690539Y567583D02*
Y574695D01*
X1091444Y536000D02*
X1098556D01*
X1095000Y532444D02*
Y539556D01*
X1020444Y682000D02*
X1027556D01*
X1024000Y678444D02*
Y685556D01*
X931444Y691000D02*
X938556D01*
X935000Y687444D02*
Y694556D01*
X217444Y674000D02*
X224556D01*
X221000Y670444D02*
Y677556D01*
X189444Y858000D02*
X196556D01*
X193000Y854444D02*
Y861556D01*
X369444Y1091000D02*
X376556D01*
X373000Y1087444D02*
Y1094556D01*
X404444Y892000D02*
X411556D01*
X408000Y888444D02*
Y895556D01*
X823444Y1087000D02*
X830556D01*
X827000Y1083444D02*
Y1090556D01*
X713444Y851000D02*
X720556D01*
X717000Y847444D02*
Y854556D01*
X563444Y611000D02*
X570556D01*
X567000Y607444D02*
Y614556D01*
X525444Y923000D02*
X532556D01*
X529000Y919444D02*
Y926556D01*
X947244Y554200D02*
X954356D01*
X950800Y550644D02*
Y557756D01*
X960444Y906000D02*
X967556D01*
X964000Y902444D02*
Y909556D01*
X278444Y312000D02*
X285556D01*
X282000Y308444D02*
Y315556D01*
X900444Y185000D02*
X907556D01*
X904000Y181444D02*
Y188556D01*
X280444Y961000D02*
X287556D01*
X284000Y957444D02*
Y964556D01*
X1090444Y656000D02*
X1097556D01*
X1094000Y652444D02*
Y659556D01*
X888444Y989000D02*
X895556D01*
X892000Y985444D02*
Y992556D01*
X642444Y1074000D02*
X649556D01*
X646000Y1070444D02*
Y1077556D01*
X110444Y533000D02*
X117556D01*
X114000Y529444D02*
Y536556D01*
X246444Y287000D02*
X253556D01*
X250000Y283444D02*
Y290556D01*
X812444Y218000D02*
X819556D01*
X816000Y214444D02*
Y221556D01*
X663444Y120000D02*
X670556D01*
X667000Y116444D02*
Y123556D01*
X862444Y223000D02*
X869556D01*
X866000Y219444D02*
Y226556D01*
X219444Y334000D02*
X226556D01*
X223000Y330444D02*
Y337556D01*
X330444Y977000D02*
X337556D01*
X334000Y973444D02*
Y980556D01*
X518444Y146000D02*
X525556D01*
X522000Y142444D02*
Y149556D01*
X142444Y678000D02*
X149556D01*
X146000Y674444D02*
Y681556D01*
X674444Y1054000D02*
X681556D01*
X678000Y1050444D02*
Y1057556D01*
M02*
