G04*
G04 #@! TF.GenerationSoftware,Altium Limited,CircuitMaker,2.2.1 (6)*
G04*
G04 Layer_Color=2752767*
%FSLAX44Y44*%
%MOMM*%
G71*
G04*
G04 #@! TF.SameCoordinates,C6CF6D27-CB2A-4CAF-B18B-BA4932DD29FA*
G04*
G04*
G04 #@! TF.FilePolarity,Positive*
G04*
G01*
G75*
%ADD10C,0.2540*%
%ADD12C,0.0500*%
%ADD18C,0.1000*%
%ADD53C,0.0508*%
%ADD54C,0.0677*%
D10*
X1183186Y458955D02*
G03*
X1139604Y337651I-583186J141045D01*
G01*
X695000Y459000D02*
X1183000D01*
X695000Y338000D02*
Y459000D01*
Y338000D02*
X1140000D01*
D12*
X519600Y561100D02*
X616600D01*
X519600Y763100D02*
X616600D01*
Y561100D02*
Y763100D01*
X519600Y561100D02*
Y763100D01*
X1061000Y777050D02*
X1129000D01*
X1061000Y848950D02*
X1129000D01*
Y777050D02*
Y848950D01*
X1061000Y777050D02*
Y848950D01*
D18*
X390600Y761200D02*
G03*
X390600Y761200I-5000J0D01*
G01*
X549100Y751600D02*
G03*
X549100Y751600I-5000J0D01*
G01*
X376600Y549200D02*
Y770200D01*
X441600Y549200D02*
Y770200D01*
X376600D02*
X441600D01*
X376600Y549200D02*
X441600D01*
X535100Y563600D02*
X601100D01*
X535100Y760600D02*
X601100D01*
Y563600D02*
Y760600D01*
X535100Y563600D02*
Y760600D01*
X1062000Y778050D02*
Y847950D01*
X1128000Y778050D02*
Y847950D01*
X1062000D02*
X1128000D01*
X1062000Y778050D02*
X1128000D01*
X878998Y776581D02*
X879261D01*
X404100Y659700D02*
X414100D01*
X409100Y654700D02*
Y664700D01*
X568100Y657100D02*
Y667100D01*
X563100Y662100D02*
X573100D01*
X1090000Y813000D02*
X1100000D01*
X1095000Y808000D02*
Y818000D01*
D53*
X974968Y858568D02*
Y862632D01*
X979032D01*
Y858568D01*
X974968D01*
Y756968D02*
Y761032D01*
X979032D01*
Y756968D01*
X974968D01*
X1036520Y939448D02*
X1034488Y943512D01*
X1038552D01*
X1036520Y939448D01*
X1054480Y921488D02*
X1052448Y925552D01*
X1056512D01*
X1054480Y921488D01*
X667300Y1147968D02*
X665268Y1152032D01*
X669332D01*
X667300Y1147968D01*
X692700D02*
X690668Y1152032D01*
X694732D01*
X692700Y1147968D01*
X258520Y1034488D02*
X256488Y1038552D01*
X260552D01*
X258520Y1034488D01*
X276480Y1052448D02*
X274448Y1056512D01*
X278512D01*
X276480Y1052448D01*
X879000Y781968D02*
X880016Y782984D01*
X881032D01*
X880016Y784000D01*
X881032Y785016D01*
X880016D01*
X879000Y786032D01*
X877984Y785016D01*
X876968D01*
X877984Y784000D01*
X876968Y782984D01*
X877984D01*
X879000Y781968D01*
Y756968D02*
X880016Y757984D01*
X881032D01*
X880016Y759000D01*
X881032Y760016D01*
X880016D01*
X879000Y761032D01*
X877984Y760016D01*
X876968D01*
X877984Y759000D01*
X876968Y757984D01*
X877984D01*
X879000Y756968D01*
X163480Y256488D02*
X161448Y260552D01*
X165512D01*
X163480Y256488D01*
X145520Y274448D02*
X143488Y278512D01*
X147552D01*
X145520Y274448D01*
X50000Y665268D02*
X47968Y669332D01*
X52032D01*
X50000Y665268D01*
Y690668D02*
X47968Y694732D01*
X52032D01*
X50000Y690668D01*
X368968Y746568D02*
X369984Y748600D01*
X368968Y750632D01*
X371000Y749616D01*
X373032Y750632D01*
X372016Y748600D01*
X373032Y746568D01*
X371000Y747584D01*
X368968Y746568D01*
Y721168D02*
X369984Y723200D01*
X368968Y725232D01*
X371000Y724216D01*
X373032Y725232D01*
X372016Y723200D01*
X373032Y721168D01*
X371000Y722184D01*
X368968Y721168D01*
Y695768D02*
X369984Y697800D01*
X368968Y699832D01*
X371000Y698816D01*
X373032Y699832D01*
X372016Y697800D01*
X373032Y695768D01*
X371000Y696784D01*
X368968Y695768D01*
Y670368D02*
X369984Y672400D01*
X368968Y674432D01*
X371000Y673416D01*
X373032Y674432D01*
X372016Y672400D01*
X373032Y670368D01*
X371000Y671384D01*
X368968Y670368D01*
Y644968D02*
X369984Y647000D01*
X368968Y649032D01*
X371000Y648016D01*
X373032Y649032D01*
X372016Y647000D01*
X373032Y644968D01*
X371000Y645984D01*
X368968Y644968D01*
Y619568D02*
X369984Y621600D01*
X368968Y623632D01*
X371000Y622616D01*
X373032Y623632D01*
X372016Y621600D01*
X373032Y619568D01*
X371000Y620584D01*
X368968Y619568D01*
Y594168D02*
X369984Y596200D01*
X368968Y598232D01*
X371000Y597216D01*
X373032Y598232D01*
X372016Y596200D01*
X373032Y594168D01*
X371000Y595184D01*
X368968Y594168D01*
Y568768D02*
X369984Y570800D01*
X368968Y572832D01*
X371000Y571816D01*
X373032Y572832D01*
X372016Y570800D01*
X373032Y568768D01*
X371000Y569784D01*
X368968Y568768D01*
X445168Y746568D02*
X446184Y748600D01*
X445168Y750632D01*
X447200Y749616D01*
X449232Y750632D01*
X448216Y748600D01*
X449232Y746568D01*
X447200Y747584D01*
X445168Y746568D01*
Y721168D02*
X446184Y723200D01*
X445168Y725232D01*
X447200Y724216D01*
X449232Y725232D01*
X448216Y723200D01*
X449232Y721168D01*
X447200Y722184D01*
X445168Y721168D01*
Y695768D02*
X446184Y697800D01*
X445168Y699832D01*
X447200Y698816D01*
X449232Y699832D01*
X448216Y697800D01*
X449232Y695768D01*
X447200Y696784D01*
X445168Y695768D01*
Y670368D02*
X446184Y672400D01*
X445168Y674432D01*
X447200Y673416D01*
X449232Y674432D01*
X448216Y672400D01*
X449232Y670368D01*
X447200Y671384D01*
X445168Y670368D01*
Y644968D02*
X446184Y647000D01*
X445168Y649032D01*
X447200Y648016D01*
X449232Y649032D01*
X448216Y647000D01*
X449232Y644968D01*
X447200Y645984D01*
X445168Y644968D01*
Y619568D02*
X446184Y621600D01*
X445168Y623632D01*
X447200Y622616D01*
X449232Y623632D01*
X448216Y621600D01*
X449232Y619568D01*
X447200Y620584D01*
X445168Y619568D01*
Y594168D02*
X446184Y596200D01*
X445168Y598232D01*
X447200Y597216D01*
X449232Y598232D01*
X448216Y596200D01*
X449232Y594168D01*
X447200Y595184D01*
X445168Y594168D01*
Y568768D02*
X446184Y570800D01*
X445168Y572832D01*
X447200Y571816D01*
X449232Y572832D01*
X448216Y570800D01*
X449232Y568768D01*
X447200Y569784D01*
X445168Y568768D01*
X604168Y571168D02*
X605184Y573200D01*
X604168Y575232D01*
X606200Y574216D01*
X608232Y575232D01*
X607216Y573200D01*
X608232Y571168D01*
X606200Y572184D01*
X604168Y571168D01*
Y596568D02*
X605184Y598600D01*
X604168Y600632D01*
X606200Y599616D01*
X608232Y600632D01*
X607216Y598600D01*
X608232Y596568D01*
X606200Y597584D01*
X604168Y596568D01*
Y621968D02*
X605184Y624000D01*
X604168Y626032D01*
X606200Y625016D01*
X608232Y626032D01*
X607216Y624000D01*
X608232Y621968D01*
X606200Y622984D01*
X604168Y621968D01*
Y647368D02*
X605184Y649400D01*
X604168Y651432D01*
X606200Y650416D01*
X608232Y651432D01*
X607216Y649400D01*
X608232Y647368D01*
X606200Y648384D01*
X604168Y647368D01*
Y672768D02*
X605184Y674800D01*
X604168Y676832D01*
X606200Y675816D01*
X608232Y676832D01*
X607216Y674800D01*
X608232Y672768D01*
X606200Y673784D01*
X604168Y672768D01*
Y698168D02*
X605184Y700200D01*
X604168Y702232D01*
X606200Y701216D01*
X608232Y702232D01*
X607216Y700200D01*
X608232Y698168D01*
X606200Y699184D01*
X604168Y698168D01*
Y723568D02*
X605184Y725600D01*
X604168Y727632D01*
X606200Y726616D01*
X608232Y727632D01*
X607216Y725600D01*
X608232Y723568D01*
X606200Y724584D01*
X604168Y723568D01*
Y748968D02*
X605184Y751000D01*
X604168Y753032D01*
X606200Y752016D01*
X608232Y753032D01*
X607216Y751000D01*
X608232Y748968D01*
X606200Y749984D01*
X604168Y748968D01*
X527968Y571168D02*
X528984Y573200D01*
X527968Y575232D01*
X530000Y574216D01*
X532032Y575232D01*
X531016Y573200D01*
X532032Y571168D01*
X530000Y572184D01*
X527968Y571168D01*
Y596568D02*
X528984Y598600D01*
X527968Y600632D01*
X530000Y599616D01*
X532032Y600632D01*
X531016Y598600D01*
X532032Y596568D01*
X530000Y597584D01*
X527968Y596568D01*
Y621968D02*
X528984Y624000D01*
X527968Y626032D01*
X530000Y625016D01*
X532032Y626032D01*
X531016Y624000D01*
X532032Y621968D01*
X530000Y622984D01*
X527968Y621968D01*
Y647368D02*
X528984Y649400D01*
X527968Y651432D01*
X530000Y650416D01*
X532032Y651432D01*
X531016Y649400D01*
X532032Y647368D01*
X530000Y648384D01*
X527968Y647368D01*
Y672768D02*
X528984Y674800D01*
X527968Y676832D01*
X530000Y675816D01*
X532032Y676832D01*
X531016Y674800D01*
X532032Y672768D01*
X530000Y673784D01*
X527968Y672768D01*
Y698168D02*
X528984Y700200D01*
X527968Y702232D01*
X530000Y701216D01*
X532032Y702232D01*
X531016Y700200D01*
X532032Y698168D01*
X530000Y699184D01*
X527968Y698168D01*
Y723568D02*
X528984Y725600D01*
X527968Y727632D01*
X530000Y726616D01*
X532032Y727632D01*
X531016Y725600D01*
X532032Y723568D01*
X530000Y724584D01*
X527968Y723568D01*
Y748968D02*
X528984Y751000D01*
X527968Y753032D01*
X530000Y752016D01*
X532032Y753032D01*
X531016Y751000D01*
X532032Y748968D01*
X530000Y749984D01*
X527968Y748968D01*
X1141984Y748984D02*
Y747968D01*
X1144016D01*
Y748984D01*
X1145032D01*
Y751016D01*
X1144016D01*
Y752032D01*
X1141984D01*
Y751016D01*
X1140968D01*
Y748984D01*
X1141984D01*
X1118368Y810618D02*
Y814682D01*
X1122432D01*
Y810618D01*
X1118368D01*
X1092968Y785218D02*
Y789282D01*
X1097032D01*
Y785218D01*
X1092968D01*
X1067568Y810618D02*
Y814682D01*
X1071632D01*
Y810618D01*
X1067568D01*
X507300Y47968D02*
X505268Y52032D01*
X509332D01*
X507300Y47968D01*
X532700D02*
X530668Y52032D01*
X534732D01*
X532700Y47968D01*
X923520Y143488D02*
X921488Y147552D01*
X925552D01*
X923520Y143488D01*
X941480Y161448D02*
X939448Y165512D01*
X943512D01*
X941480Y161448D01*
X1150000Y505268D02*
X1147968Y509332D01*
X1152032D01*
X1150000Y505268D01*
Y530668D02*
X1147968Y534732D01*
X1152032D01*
X1150000Y530668D01*
X897968Y614368D02*
X898984D01*
X900000Y615384D01*
X901016Y614368D01*
X902032D01*
Y615384D01*
X901016Y616400D01*
X902032Y617416D01*
Y618432D01*
X901016D01*
X900000Y617416D01*
X898984Y618432D01*
X897968D01*
Y617416D01*
X898984Y616400D01*
X897968Y615384D01*
Y614368D01*
Y588968D02*
X898984D01*
X900000Y589984D01*
X901016Y588968D01*
X902032D01*
Y589984D01*
X901016Y591000D01*
X902032Y592016D01*
Y593032D01*
X901016D01*
X900000Y592016D01*
X898984Y593032D01*
X897968D01*
Y592016D01*
X898984Y591000D01*
X897968Y589984D01*
Y588968D01*
X872568Y614368D02*
X873584D01*
X874600Y615384D01*
X875616Y614368D01*
X876632D01*
Y615384D01*
X875616Y616400D01*
X876632Y617416D01*
Y618432D01*
X875616D01*
X874600Y617416D01*
X873584Y618432D01*
X872568D01*
Y617416D01*
X873584Y616400D01*
X872568Y615384D01*
Y614368D01*
Y588968D02*
X873584D01*
X874600Y589984D01*
X875616Y588968D01*
X876632D01*
Y589984D01*
X875616Y591000D01*
X876632Y592016D01*
Y593032D01*
X875616D01*
X874600Y592016D01*
X873584Y593032D01*
X872568D01*
Y592016D01*
X873584Y591000D01*
X872568Y589984D01*
Y588968D01*
X847168Y614368D02*
X848184D01*
X849200Y615384D01*
X850216Y614368D01*
X851232D01*
Y615384D01*
X850216Y616400D01*
X851232Y617416D01*
Y618432D01*
X850216D01*
X849200Y617416D01*
X848184Y618432D01*
X847168D01*
Y617416D01*
X848184Y616400D01*
X847168Y615384D01*
Y614368D01*
Y588968D02*
X848184D01*
X849200Y589984D01*
X850216Y588968D01*
X851232D01*
Y589984D01*
X850216Y591000D01*
X851232Y592016D01*
Y593032D01*
X850216D01*
X849200Y592016D01*
X848184Y593032D01*
X847168D01*
Y592016D01*
X848184Y591000D01*
X847168Y589984D01*
Y588968D01*
X821768Y614368D02*
X822784D01*
X823800Y615384D01*
X824816Y614368D01*
X825832D01*
Y615384D01*
X824816Y616400D01*
X825832Y617416D01*
Y618432D01*
X824816D01*
X823800Y617416D01*
X822784Y618432D01*
X821768D01*
Y617416D01*
X822784Y616400D01*
X821768Y615384D01*
Y614368D01*
Y588968D02*
X822784D01*
X823800Y589984D01*
X824816Y588968D01*
X825832D01*
Y589984D01*
X824816Y591000D01*
X825832Y592016D01*
Y593032D01*
X824816D01*
X823800Y592016D01*
X822784Y593032D01*
X821768D01*
Y592016D01*
X822784Y591000D01*
X821768Y589984D01*
Y588968D01*
X796368Y614368D02*
X797384D01*
X798400Y615384D01*
X799416Y614368D01*
X800432D01*
Y615384D01*
X799416Y616400D01*
X800432Y617416D01*
Y618432D01*
X799416D01*
X798400Y617416D01*
X797384Y618432D01*
X796368D01*
Y617416D01*
X797384Y616400D01*
X796368Y615384D01*
Y614368D01*
Y588968D02*
X797384D01*
X798400Y589984D01*
X799416Y588968D01*
X800432D01*
Y589984D01*
X799416Y591000D01*
X800432Y592016D01*
Y593032D01*
X799416D01*
X798400Y592016D01*
X797384Y593032D01*
X796368D01*
Y592016D01*
X797384Y591000D01*
X796368Y589984D01*
Y588968D01*
X770968Y614368D02*
X771984D01*
X773000Y615384D01*
X774016Y614368D01*
X775032D01*
Y615384D01*
X774016Y616400D01*
X775032Y617416D01*
Y618432D01*
X774016D01*
X773000Y617416D01*
X771984Y618432D01*
X770968D01*
Y617416D01*
X771984Y616400D01*
X770968Y615384D01*
Y614368D01*
Y588968D02*
X771984D01*
X773000Y589984D01*
X774016Y588968D01*
X775032D01*
Y589984D01*
X774016Y591000D01*
X775032Y592016D01*
Y593032D01*
X774016D01*
X773000Y592016D01*
X771984Y593032D01*
X770968D01*
Y592016D01*
X771984Y591000D01*
X770968Y589984D01*
Y588968D01*
X1024968Y614368D02*
X1025984D01*
X1027000Y615384D01*
X1028016Y614368D01*
X1029032D01*
Y615384D01*
X1028016Y616400D01*
X1029032Y617416D01*
Y618432D01*
X1028016D01*
X1027000Y617416D01*
X1025984Y618432D01*
X1024968D01*
Y617416D01*
X1025984Y616400D01*
X1024968Y615384D01*
Y614368D01*
Y588968D02*
X1025984D01*
X1027000Y589984D01*
X1028016Y588968D01*
X1029032D01*
Y589984D01*
X1028016Y591000D01*
X1029032Y592016D01*
Y593032D01*
X1028016D01*
X1027000Y592016D01*
X1025984Y593032D01*
X1024968D01*
Y592016D01*
X1025984Y591000D01*
X1024968Y589984D01*
Y588968D01*
X999568Y614368D02*
X1000584D01*
X1001600Y615384D01*
X1002616Y614368D01*
X1003632D01*
Y615384D01*
X1002616Y616400D01*
X1003632Y617416D01*
Y618432D01*
X1002616D01*
X1001600Y617416D01*
X1000584Y618432D01*
X999568D01*
Y617416D01*
X1000584Y616400D01*
X999568Y615384D01*
Y614368D01*
Y588968D02*
X1000584D01*
X1001600Y589984D01*
X1002616Y588968D01*
X1003632D01*
Y589984D01*
X1002616Y591000D01*
X1003632Y592016D01*
Y593032D01*
X1002616D01*
X1001600Y592016D01*
X1000584Y593032D01*
X999568D01*
Y592016D01*
X1000584Y591000D01*
X999568Y589984D01*
Y588968D01*
X974168Y614368D02*
X975184D01*
X976200Y615384D01*
X977216Y614368D01*
X978232D01*
Y615384D01*
X977216Y616400D01*
X978232Y617416D01*
Y618432D01*
X977216D01*
X976200Y617416D01*
X975184Y618432D01*
X974168D01*
Y617416D01*
X975184Y616400D01*
X974168Y615384D01*
Y614368D01*
Y588968D02*
X975184D01*
X976200Y589984D01*
X977216Y588968D01*
X978232D01*
Y589984D01*
X977216Y591000D01*
X978232Y592016D01*
Y593032D01*
X977216D01*
X976200Y592016D01*
X975184Y593032D01*
X974168D01*
Y592016D01*
X975184Y591000D01*
X974168Y589984D01*
Y588968D01*
X948768Y614368D02*
X949784D01*
X950800Y615384D01*
X951816Y614368D01*
X952832D01*
Y615384D01*
X951816Y616400D01*
X952832Y617416D01*
Y618432D01*
X951816D01*
X950800Y617416D01*
X949784Y618432D01*
X948768D01*
Y617416D01*
X949784Y616400D01*
X948768Y615384D01*
Y614368D01*
Y588968D02*
X949784D01*
X950800Y589984D01*
X951816Y588968D01*
X952832D01*
Y589984D01*
X951816Y591000D01*
X952832Y592016D01*
Y593032D01*
X951816D01*
X950800Y592016D01*
X949784Y593032D01*
X948768D01*
Y592016D01*
X949784Y591000D01*
X948768Y589984D01*
Y588968D01*
X923368Y614368D02*
X924384D01*
X925400Y615384D01*
X926416Y614368D01*
X927432D01*
Y615384D01*
X926416Y616400D01*
X927432Y617416D01*
Y618432D01*
X926416D01*
X925400Y617416D01*
X924384Y618432D01*
X923368D01*
Y617416D01*
X924384Y616400D01*
X923368Y615384D01*
Y614368D01*
Y588968D02*
X924384D01*
X925400Y589984D01*
X926416Y588968D01*
X927432D01*
Y589984D01*
X926416Y591000D01*
X927432Y592016D01*
Y593032D01*
X926416D01*
X925400Y592016D01*
X924384Y593032D01*
X923368D01*
Y592016D01*
X924384Y591000D01*
X923368Y589984D01*
Y588968D01*
X1050368Y614368D02*
X1051384D01*
X1052400Y615384D01*
X1053416Y614368D01*
X1054432D01*
Y615384D01*
X1053416Y616400D01*
X1054432Y617416D01*
Y618432D01*
X1053416D01*
X1052400Y617416D01*
X1051384Y618432D01*
X1050368D01*
Y617416D01*
X1051384Y616400D01*
X1050368Y615384D01*
Y614368D01*
Y588968D02*
X1051384D01*
X1052400Y589984D01*
X1053416Y588968D01*
X1054432D01*
Y589984D01*
X1053416Y591000D01*
X1054432Y592016D01*
Y593032D01*
X1053416D01*
X1052400Y592016D01*
X1051384Y593032D01*
X1050368D01*
Y592016D01*
X1051384Y591000D01*
X1050368Y589984D01*
Y588968D01*
X1147968Y600000D02*
X1150000Y602032D01*
X1152032Y600000D01*
X1150000Y597968D01*
X1147968Y600000D01*
X986968Y211000D02*
X989000Y213032D01*
X991032Y211000D01*
X989000Y208968D01*
X986968Y211000D01*
X597968Y50000D02*
X600000Y52032D01*
X602032Y50000D01*
X600000Y47968D01*
X597968Y50000D01*
X47968Y600000D02*
X50000Y602032D01*
X52032Y600000D01*
X50000Y597968D01*
X47968Y600000D01*
X208968Y211000D02*
X211000Y213032D01*
X213032Y211000D01*
X211000Y208968D01*
X208968Y211000D01*
X986968Y989000D02*
X989000Y991032D01*
X991032Y989000D01*
X989000Y986968D01*
X986968Y989000D01*
X208968D02*
X211000Y991032D01*
X213032Y989000D01*
X211000Y986968D01*
X208968Y989000D01*
X597968Y1150000D02*
X600000Y1152032D01*
X602032Y1150000D01*
X600000Y1147968D01*
X597968Y1150000D01*
X916968Y837968D02*
Y842032D01*
X921032D01*
Y837968D01*
X916968D01*
X917984Y838984D02*
Y841016D01*
X920016D01*
Y838984D01*
X917984D01*
X597968Y824968D02*
Y829032D01*
X602032D01*
Y824968D01*
X597968D01*
X598984Y825984D02*
Y828016D01*
X601016D01*
Y825984D01*
X598984D01*
X438968Y803968D02*
Y808032D01*
X443032D01*
Y803968D01*
X438968D01*
X439984Y804984D02*
Y807016D01*
X442016D01*
Y804984D01*
X439984D01*
X429968Y360968D02*
Y365032D01*
X434032D01*
Y360968D01*
X429968D01*
X430984Y361984D02*
Y364016D01*
X433016D01*
Y361984D01*
X430984D01*
X1089968Y291968D02*
Y296032D01*
X1094032D01*
Y291968D01*
X1089968D01*
X1090984Y292984D02*
Y295016D01*
X1093016D01*
Y292984D01*
X1090984D01*
X746968Y284968D02*
Y289032D01*
X751032D01*
Y284968D01*
X746968D01*
X747984Y285984D02*
Y288016D01*
X750016D01*
Y285984D01*
X747984D01*
X708968Y127968D02*
Y132032D01*
X713032D01*
Y127968D01*
X708968D01*
X709984Y128984D02*
Y131016D01*
X712016D01*
Y128984D01*
X709984D01*
X810968Y107968D02*
Y112032D01*
X815032D01*
Y107968D01*
X810968D01*
X811984Y108984D02*
Y111016D01*
X814016D01*
Y108984D01*
X811984D01*
X438968Y208968D02*
Y213032D01*
X443032D01*
Y208968D01*
X438968D01*
X439984Y209984D02*
Y212016D01*
X442016D01*
Y209984D01*
X439984D01*
X274968Y431968D02*
Y436032D01*
X279032D01*
Y431968D01*
X274968D01*
X275984Y432984D02*
Y435016D01*
X278016D01*
Y432984D01*
X275984D01*
X546968Y423968D02*
Y428032D01*
X551032D01*
Y423968D01*
X546968D01*
X547984Y424984D02*
Y427016D01*
X550016D01*
Y424984D01*
X547984D01*
X688507Y569107D02*
Y573171D01*
X692571D01*
Y569107D01*
X688507D01*
X689523Y570123D02*
Y572155D01*
X691555D01*
Y570123D01*
X689523D01*
X1092968Y533968D02*
Y538032D01*
X1097032D01*
Y533968D01*
X1092968D01*
X1093984Y534984D02*
Y537016D01*
X1096016D01*
Y534984D01*
X1093984D01*
X1021968Y679968D02*
Y684032D01*
X1026032D01*
Y679968D01*
X1021968D01*
X1022984Y680984D02*
Y683016D01*
X1025016D01*
Y680984D01*
X1022984D01*
X932968Y688968D02*
Y693032D01*
X937032D01*
Y688968D01*
X932968D01*
X933984Y689984D02*
Y692016D01*
X936016D01*
Y689984D01*
X933984D01*
X218968Y671968D02*
Y676032D01*
X223032D01*
Y671968D01*
X218968D01*
X219984Y672984D02*
Y675016D01*
X222016D01*
Y672984D01*
X219984D01*
X190968Y855968D02*
Y860032D01*
X195032D01*
Y855968D01*
X190968D01*
X191984Y856984D02*
Y859016D01*
X194016D01*
Y856984D01*
X191984D01*
X370968Y1088968D02*
Y1093032D01*
X375032D01*
Y1088968D01*
X370968D01*
X371984Y1089984D02*
Y1092016D01*
X374016D01*
Y1089984D01*
X371984D01*
X405968Y889968D02*
Y894032D01*
X410032D01*
Y889968D01*
X405968D01*
X406984Y890984D02*
Y893016D01*
X409016D01*
Y890984D01*
X406984D01*
X824968Y1084968D02*
Y1089032D01*
X829032D01*
Y1084968D01*
X824968D01*
X825984Y1085984D02*
Y1088016D01*
X828016D01*
Y1085984D01*
X825984D01*
X714968Y848968D02*
Y853032D01*
X719032D01*
Y848968D01*
X714968D01*
X715984Y849984D02*
Y852016D01*
X718016D01*
Y849984D01*
X715984D01*
X564968Y608968D02*
Y613032D01*
X569032D01*
Y608968D01*
X564968D01*
X565984Y609984D02*
Y612016D01*
X568016D01*
Y609984D01*
X565984D01*
X526968Y920968D02*
Y925032D01*
X531032D01*
Y920968D01*
X526968D01*
X527984Y921984D02*
Y924016D01*
X530016D01*
Y921984D01*
X527984D01*
X948768Y552168D02*
Y556232D01*
X952832D01*
Y552168D01*
X948768D01*
X949784Y553184D02*
Y555216D01*
X951816D01*
Y553184D01*
X949784D01*
X961968Y903968D02*
Y908032D01*
X966032D01*
Y903968D01*
X961968D01*
X962984Y904984D02*
Y907016D01*
X965016D01*
Y904984D01*
X962984D01*
X279968Y309968D02*
Y314032D01*
X284032D01*
Y309968D01*
X279968D01*
X280984Y310984D02*
Y313016D01*
X283016D01*
Y310984D01*
X280984D01*
X901968Y182968D02*
Y187032D01*
X906032D01*
Y182968D01*
X901968D01*
X902984Y183984D02*
Y186016D01*
X905016D01*
Y183984D01*
X902984D01*
X281968Y958968D02*
Y963032D01*
X286032D01*
Y958968D01*
X281968D01*
X282984Y959984D02*
Y962016D01*
X285016D01*
Y959984D01*
X282984D01*
X1091968Y653968D02*
Y658032D01*
X1096032D01*
Y653968D01*
X1091968D01*
X1092984Y654984D02*
Y657016D01*
X1095016D01*
Y654984D01*
X1092984D01*
X889968Y986968D02*
Y991032D01*
X894032D01*
Y986968D01*
X889968D01*
X890984Y987984D02*
Y990016D01*
X893016D01*
Y987984D01*
X890984D01*
X643968Y1071968D02*
Y1076032D01*
X648032D01*
Y1071968D01*
X643968D01*
X644984Y1072984D02*
Y1075016D01*
X647016D01*
Y1072984D01*
X644984D01*
X111968Y530968D02*
Y535032D01*
X116032D01*
Y530968D01*
X111968D01*
X112984Y531984D02*
Y534016D01*
X115016D01*
Y531984D01*
X112984D01*
X247968Y284968D02*
Y289032D01*
X252032D01*
Y284968D01*
X247968D01*
X248984Y285984D02*
Y288016D01*
X251016D01*
Y285984D01*
X248984D01*
X813968Y215968D02*
Y220032D01*
X818032D01*
Y215968D01*
X813968D01*
X814984Y216984D02*
Y219016D01*
X817016D01*
Y216984D01*
X814984D01*
X664968Y117968D02*
Y122032D01*
X669032D01*
Y117968D01*
X664968D01*
X665984Y118984D02*
Y121016D01*
X668016D01*
Y118984D01*
X665984D01*
X863968Y220968D02*
Y225032D01*
X868032D01*
Y220968D01*
X863968D01*
X864984Y221984D02*
Y224016D01*
X867016D01*
Y221984D01*
X864984D01*
X220968Y331968D02*
Y336032D01*
X225032D01*
Y331968D01*
X220968D01*
X221984Y332984D02*
Y335016D01*
X224016D01*
Y332984D01*
X221984D01*
X331968Y974968D02*
Y979032D01*
X336032D01*
Y974968D01*
X331968D01*
X332984Y975984D02*
Y978016D01*
X335016D01*
Y975984D01*
X332984D01*
X519968Y143968D02*
Y148032D01*
X524032D01*
Y143968D01*
X519968D01*
X520984Y144984D02*
Y147016D01*
X523016D01*
Y144984D01*
X520984D01*
X143968Y675968D02*
Y680032D01*
X148032D01*
Y675968D01*
X143968D01*
X144984Y676984D02*
Y679016D01*
X147016D01*
Y676984D01*
X144984D01*
X675968Y1051968D02*
Y1056032D01*
X680032D01*
Y1051968D01*
X675968D01*
X676984Y1052984D02*
Y1055016D01*
X679016D01*
Y1052984D01*
X676984D01*
D54*
X164492Y940461D02*
G03*
X164492Y940461I-2032J0D01*
G01*
X146532Y922500D02*
G03*
X146532Y922500I-2032J0D01*
G01*
X52032Y535400D02*
G03*
X52032Y535400I-2032J0D01*
G01*
Y510000D02*
G03*
X52032Y510000I-2032J0D01*
G01*
X261572Y162460D02*
G03*
X261572Y162460I-2032J0D01*
G01*
X279532Y144500D02*
G03*
X279532Y144500I-2032J0D01*
G01*
X666632Y50000D02*
G03*
X666632Y50000I-2032J0D01*
G01*
X692032D02*
G03*
X692032Y50000I-2032J0D01*
G01*
X1039572Y259540D02*
G03*
X1039572Y259540I-2032J0D01*
G01*
X1057532Y277500D02*
G03*
X1057532Y277500I-2032J0D01*
G01*
X1152032Y664600D02*
G03*
X1152032Y664600I-2032J0D01*
G01*
Y690000D02*
G03*
X1152032Y690000I-2032J0D01*
G01*
X942493Y1037540D02*
G03*
X942493Y1037540I-2032J0D01*
G01*
X924532Y1055500D02*
G03*
X924532Y1055500I-2032J0D01*
G01*
X537432Y1150000D02*
G03*
X537432Y1150000I-2032J0D01*
G01*
X512032D02*
G03*
X512032Y1150000I-2032J0D01*
G01*
M02*
