G04*
G04 #@! TF.GenerationSoftware,Altium Limited,CircuitMaker,2.2.1 (6)*
G04*
G04 Layer_Physical_Order=2*
G04 Layer_Color=11436288*
%FSLAX44Y44*%
%MOMM*%
G71*
G04*
G04 #@! TF.SameCoordinates,C6CF6D27-CB2A-4CAF-B18B-BA4932DD29FA*
G04*
G04*
G04 #@! TF.FilePolarity,Positive*
G04*
G01*
G75*
%ADD10C,0.2540*%
%ADD12C,0.0500*%
%ADD17C,0.5000*%
%ADD18C,0.1000*%
%ADD36C,1.0000*%
%ADD37C,1.7000*%
%ADD38C,1.5240*%
%ADD39P,2.3349X4X360.0*%
%ADD40C,1.6510*%
%ADD41R,1.6510X1.6510*%
%ADD42P,2.3349X4X90.0*%
%ADD43R,1.5240X1.5240*%
%ADD44R,1.6510X1.6510*%
%ADD45R,1.5000X1.5000*%
%ADD46C,1.5000*%
%ADD47R,2.0000X2.0000*%
%ADD48R,1.2500X1.2500*%
%ADD49C,1.2500*%
%ADD50R,1.7000X1.7000*%
%ADD51C,4.8000*%
%ADD52C,1.2700*%
G36*
X614304Y1199956D02*
X638878Y1198865D01*
X663387Y1196769D01*
X687790Y1193670D01*
X712045Y1189574D01*
X736112Y1184487D01*
X759950Y1178418D01*
X783519Y1171377D01*
X806780Y1163376D01*
X829694Y1154429D01*
X852222Y1144551D01*
X874326Y1133757D01*
X895969Y1122067D01*
X917115Y1109499D01*
X937728Y1096076D01*
X957774Y1081819D01*
X977218Y1066752D01*
X996029Y1050902D01*
X1014174Y1034294D01*
X1031624Y1016956D01*
X1048348Y998917D01*
X1064319Y980209D01*
X1079510Y960861D01*
X1093896Y940908D01*
X1107451Y920381D01*
X1120155Y899317D01*
X1131984Y877749D01*
X1142919Y855715D01*
X1152942Y833251D01*
X1162037Y810395D01*
X1170186Y787186D01*
X1177378Y763662D01*
X1183600Y739864D01*
X1188842Y715830D01*
X1193094Y691602D01*
X1196349Y667220D01*
X1198603Y642725D01*
X1199851Y618158D01*
X1200091Y593560D01*
X1199324Y568974D01*
X1197549Y544439D01*
X1194770Y519998D01*
X1190992Y495691D01*
X1186220Y471560D01*
X1183343Y459602D01*
X695000D01*
Y337629D01*
X1138397Y337629D01*
X1139070Y336552D01*
X1134215Y326568D01*
X1122561Y304905D01*
X1110029Y283738D01*
X1096640Y263103D01*
X1082417Y243033D01*
X1067383Y223563D01*
X1051564Y204726D01*
X1034986Y186553D01*
X1017677Y169074D01*
X999667Y152320D01*
X980985Y136317D01*
X961663Y121094D01*
X941734Y106675D01*
X921230Y93085D01*
X900187Y80347D01*
X878639Y68482D01*
X856623Y57509D01*
X834176Y47449D01*
X811336Y38316D01*
X788140Y30127D01*
X764628Y22896D01*
X740840Y16635D01*
X716815Y11353D01*
X692594Y7060D01*
X668217Y3764D01*
X643726Y1469D01*
X619161Y180D01*
X594565Y-101D01*
X569977Y625D01*
X545439Y2359D01*
X520994Y5097D01*
X496681Y8835D01*
X472541Y13565D01*
X448616Y19281D01*
X424945Y25973D01*
X401568Y33629D01*
X378525Y42236D01*
X355854Y51781D01*
X333592Y62247D01*
X311779Y73616D01*
X290450Y85870D01*
X269641Y98987D01*
X249386Y112946D01*
X229721Y127724D01*
X210678Y143295D01*
X192289Y159633D01*
X174585Y176711D01*
X157596Y194500D01*
X141350Y212971D01*
X125875Y232091D01*
X111196Y251830D01*
X97339Y272154D01*
X84326Y293029D01*
X72179Y314419D01*
X60919Y336289D01*
X50565Y358602D01*
X41134Y381321D01*
X32642Y404408D01*
X25103Y427822D01*
X18530Y451526D01*
X12934Y475480D01*
X8325Y499643D01*
X4709Y523974D01*
X2094Y548433D01*
X483Y572979D01*
X-121Y597570D01*
X283Y622165D01*
X1696Y646723D01*
X4113Y671203D01*
X7531Y695563D01*
X11945Y719762D01*
X17347Y743760D01*
X23728Y767517D01*
X31077Y790992D01*
X39382Y814146D01*
X48629Y836941D01*
X58802Y859337D01*
X69884Y881298D01*
X81857Y902786D01*
X94700Y923765D01*
X108393Y944200D01*
X122911Y964057D01*
X138231Y983303D01*
X154327Y1001904D01*
X171172Y1019830D01*
X188737Y1037051D01*
X206993Y1053538D01*
X225909Y1069262D01*
X245454Y1084199D01*
X265594Y1098321D01*
X286297Y1111607D01*
X307526Y1124033D01*
X329247Y1135578D01*
X351423Y1146224D01*
X374016Y1155952D01*
X396989Y1164746D01*
X420303Y1172591D01*
X443919Y1179474D01*
X467797Y1185383D01*
X491897Y1190309D01*
X516179Y1194243D01*
X540602Y1197179D01*
X565124Y1199112D01*
X589705Y1200038D01*
X614304Y1199956D01*
D02*
G37*
%LPC*%
G36*
X602089Y1176540D02*
X601270D01*
Y1151270D01*
X626540D01*
Y1152089D01*
X625886Y1156215D01*
X624596Y1160188D01*
X622699Y1163910D01*
X620244Y1167290D01*
X617290Y1170244D01*
X613910Y1172699D01*
X610188Y1174596D01*
X606215Y1175887D01*
X602089Y1176540D01*
D02*
G37*
G36*
X598730D02*
X597911D01*
X593785Y1175887D01*
X589812Y1174596D01*
X586090Y1172699D01*
X582710Y1170244D01*
X579756Y1167290D01*
X577301Y1163910D01*
X575404Y1160188D01*
X574114Y1156215D01*
X573460Y1152089D01*
Y1151270D01*
X598730D01*
Y1176540D01*
D02*
G37*
G36*
X694121Y1160795D02*
X691279D01*
X688533Y1160059D01*
X686072Y1158638D01*
X684062Y1156628D01*
X682641Y1154167D01*
X681905Y1151421D01*
Y1148579D01*
X682310Y1147066D01*
X679268Y1144024D01*
X678095Y1144510D01*
Y1160795D01*
X656505D01*
Y1149960D01*
X550670Y1044125D01*
X282674D01*
X282334Y1045395D01*
X283109Y1045842D01*
X285118Y1047852D01*
X286540Y1050313D01*
X287275Y1053059D01*
Y1055901D01*
X286540Y1058647D01*
X285118Y1061108D01*
X283109Y1063118D01*
X280647Y1064540D01*
X277901Y1065275D01*
X275059D01*
X272313Y1064540D01*
X269852Y1063118D01*
X267842Y1061108D01*
X266421Y1058647D01*
X265685Y1055901D01*
Y1053059D01*
X266421Y1050313D01*
X267842Y1047852D01*
X269852Y1045842D01*
X270627Y1045395D01*
X270286Y1044125D01*
X266181D01*
X258520Y1051786D01*
X243253Y1036520D01*
X258520Y1021253D01*
X266181Y1028915D01*
X553820D01*
X555788Y1029174D01*
X557622Y1029934D01*
X559197Y1031142D01*
X667260Y1139205D01*
X672791D01*
X673277Y1138032D01*
X481622Y946378D01*
X480414Y944802D01*
X479654Y942968D01*
X479395Y941000D01*
Y738150D01*
X472050Y730805D01*
X453794D01*
X453365Y731234D01*
X451075Y732556D01*
X448522Y733240D01*
X445878D01*
X443325Y732556D01*
X441035Y731234D01*
X439166Y729365D01*
X437844Y727075D01*
X437160Y724522D01*
Y721878D01*
X437844Y719325D01*
X439166Y717035D01*
X441035Y715166D01*
X443325Y713844D01*
X445878Y713160D01*
X448522D01*
X451075Y713844D01*
X453365Y715166D01*
X453794Y715595D01*
X475200D01*
X477168Y715854D01*
X479002Y716614D01*
X480578Y717822D01*
X492378Y729622D01*
X493586Y731198D01*
X494346Y733032D01*
X494605Y735000D01*
Y937850D01*
X696633Y1139878D01*
X696867Y1139941D01*
X699328Y1141362D01*
X701338Y1143372D01*
X702759Y1145833D01*
X703495Y1148579D01*
Y1151421D01*
X702759Y1154167D01*
X701338Y1156628D01*
X699328Y1158638D01*
X696867Y1160059D01*
X694121Y1160795D01*
D02*
G37*
G36*
X536738Y1160160D02*
X534062D01*
X531478Y1159468D01*
X529162Y1158130D01*
X527270Y1156238D01*
X525932Y1153922D01*
X525240Y1151338D01*
Y1148662D01*
X525932Y1146078D01*
X527270Y1143762D01*
X529162Y1141870D01*
X531478Y1140532D01*
X534062Y1139840D01*
X536738D01*
X539322Y1140532D01*
X541638Y1141870D01*
X543530Y1143762D01*
X544868Y1146078D01*
X545560Y1148662D01*
Y1151338D01*
X544868Y1153922D01*
X543530Y1156238D01*
X541638Y1158130D01*
X539322Y1159468D01*
X536738Y1160160D01*
D02*
G37*
G36*
X511338D02*
X508662D01*
X506078Y1159468D01*
X503762Y1158130D01*
X501870Y1156238D01*
X500532Y1153922D01*
X499840Y1151338D01*
Y1148662D01*
X500532Y1146078D01*
X501870Y1143762D01*
X503762Y1141870D01*
X506078Y1140532D01*
X508662Y1139840D01*
X511338D01*
X513922Y1140532D01*
X516238Y1141870D01*
X518130Y1143762D01*
X519468Y1146078D01*
X520160Y1148662D01*
Y1151338D01*
X519468Y1153922D01*
X518130Y1156238D01*
X516238Y1158130D01*
X513922Y1159468D01*
X511338Y1160160D01*
D02*
G37*
G36*
X626540Y1148730D02*
X601270D01*
Y1123460D01*
X602089D01*
X606215Y1124113D01*
X610188Y1125404D01*
X613910Y1127301D01*
X617290Y1129756D01*
X620244Y1132710D01*
X622699Y1136090D01*
X624596Y1139812D01*
X625886Y1143785D01*
X626540Y1147911D01*
Y1148730D01*
D02*
G37*
G36*
X598730D02*
X573460D01*
Y1147911D01*
X574114Y1143785D01*
X575404Y1139812D01*
X577301Y1136090D01*
X579756Y1132710D01*
X582710Y1129756D01*
X586090Y1127301D01*
X589812Y1125404D01*
X593785Y1124113D01*
X597911Y1123460D01*
X598730D01*
Y1148730D01*
D02*
G37*
G36*
X374270Y1099863D02*
Y1092270D01*
X381863D01*
X381284Y1094431D01*
X380114Y1096459D01*
X378459Y1098114D01*
X376431Y1099284D01*
X374270Y1099863D01*
D02*
G37*
G36*
X371730D02*
X369569Y1099284D01*
X367541Y1098114D01*
X365886Y1096459D01*
X364716Y1094431D01*
X364137Y1092270D01*
X371730D01*
Y1099863D01*
D02*
G37*
G36*
X828270Y1095863D02*
Y1088270D01*
X835863D01*
X835284Y1090431D01*
X834114Y1092459D01*
X832459Y1094114D01*
X830431Y1095284D01*
X828270Y1095863D01*
D02*
G37*
G36*
X825730D02*
X823569Y1095284D01*
X821541Y1094114D01*
X819886Y1092459D01*
X818716Y1090431D01*
X818137Y1088270D01*
X825730D01*
Y1095863D01*
D02*
G37*
G36*
X381863Y1089730D02*
X374270D01*
Y1082137D01*
X376431Y1082716D01*
X378459Y1083886D01*
X380114Y1085541D01*
X381284Y1087569D01*
X381863Y1089730D01*
D02*
G37*
G36*
X371730D02*
X364137D01*
X364716Y1087569D01*
X365886Y1085541D01*
X367541Y1083886D01*
X369569Y1082716D01*
X371730Y1082137D01*
Y1089730D01*
D02*
G37*
G36*
X835863Y1085730D02*
X828270D01*
Y1078137D01*
X830431Y1078716D01*
X832459Y1079886D01*
X834114Y1081541D01*
X835284Y1083569D01*
X835863Y1085730D01*
D02*
G37*
G36*
X825730D02*
X818137D01*
X818716Y1083569D01*
X819886Y1081541D01*
X821541Y1079886D01*
X823569Y1078716D01*
X825730Y1078137D01*
Y1085730D01*
D02*
G37*
G36*
X923838Y1065660D02*
X921162D01*
X918578Y1064968D01*
X916262Y1063630D01*
X914370Y1061738D01*
X913146Y1059619D01*
X684953D01*
X683459Y1061114D01*
X681431Y1062284D01*
X679170Y1062890D01*
X676830D01*
X674569Y1062284D01*
X672541Y1061114D01*
X670886Y1059459D01*
X669716Y1057431D01*
X669110Y1055170D01*
Y1052830D01*
X669716Y1050569D01*
X670886Y1048541D01*
X672541Y1046886D01*
X674569Y1045716D01*
X676830Y1045110D01*
X679170D01*
X681431Y1045716D01*
X683459Y1046886D01*
X685114Y1048541D01*
X685576Y1049342D01*
X914324D01*
X914370Y1049262D01*
X916262Y1047370D01*
X918381Y1046146D01*
Y946480D01*
X918772Y944514D01*
X919886Y942847D01*
X955206Y907527D01*
X955110Y907170D01*
Y904830D01*
X955716Y902569D01*
X956886Y900541D01*
X958541Y898886D01*
X960569Y897716D01*
X962830Y897110D01*
X965170D01*
X967431Y897716D01*
X969459Y898886D01*
X971114Y900541D01*
X972284Y902569D01*
X972890Y904830D01*
Y907170D01*
X972284Y909431D01*
X971114Y911459D01*
X969459Y913114D01*
X967431Y914284D01*
X965170Y914890D01*
X962830D01*
X962473Y914794D01*
X928659Y948609D01*
Y1047324D01*
X928738Y1047370D01*
X930630Y1049262D01*
X931968Y1051578D01*
X932660Y1054162D01*
Y1056838D01*
X931968Y1059422D01*
X930630Y1061738D01*
X928738Y1063630D01*
X926422Y1064968D01*
X923838Y1065660D01*
D02*
G37*
G36*
X941798Y1047700D02*
X939123D01*
X936539Y1047007D01*
X934222Y1045669D01*
X932330Y1043778D01*
X930993Y1041461D01*
X930301Y1038877D01*
Y1036202D01*
X930993Y1033618D01*
X932330Y1031301D01*
X934222Y1029409D01*
X936539Y1028072D01*
X939123Y1027380D01*
X941798D01*
X944382Y1028072D01*
X946699Y1029409D01*
X948591Y1031301D01*
X949928Y1033618D01*
X950620Y1036202D01*
Y1038877D01*
X949928Y1041461D01*
X948591Y1043778D01*
X946699Y1045669D01*
X944382Y1047007D01*
X941798Y1047700D01*
D02*
G37*
G36*
X991089Y1015540D02*
X990270D01*
Y990270D01*
X1015540D01*
Y991089D01*
X1014886Y995215D01*
X1013596Y999188D01*
X1011699Y1002910D01*
X1009244Y1006290D01*
X1006290Y1009244D01*
X1002910Y1011699D01*
X999188Y1013596D01*
X995215Y1014886D01*
X991089Y1015540D01*
D02*
G37*
G36*
X987730D02*
X986911D01*
X982785Y1014886D01*
X978812Y1013596D01*
X975090Y1011699D01*
X971710Y1009244D01*
X968756Y1006290D01*
X966301Y1002910D01*
X964404Y999188D01*
X963113Y995215D01*
X962460Y991089D01*
Y990270D01*
X987730D01*
Y1015540D01*
D02*
G37*
G36*
X213089D02*
X212270D01*
Y990270D01*
X237540D01*
Y991089D01*
X236887Y995215D01*
X235596Y999188D01*
X233699Y1002910D01*
X231244Y1006290D01*
X228290Y1009244D01*
X224910Y1011699D01*
X221188Y1013596D01*
X217215Y1014886D01*
X213089Y1015540D01*
D02*
G37*
G36*
X209730D02*
X208911D01*
X204785Y1014886D01*
X200812Y1013596D01*
X197090Y1011699D01*
X193710Y1009244D01*
X190756Y1006290D01*
X188301Y1002910D01*
X186404Y999188D01*
X185114Y995215D01*
X184460Y991089D01*
Y990270D01*
X209730D01*
Y1015540D01*
D02*
G37*
G36*
X335170Y985890D02*
X332830D01*
X330569Y985284D01*
X328541Y984114D01*
X326886Y982459D01*
X325716Y980431D01*
X325110Y978170D01*
Y975830D01*
X325206Y975473D01*
X278391Y928659D01*
X152676D01*
X152630Y928738D01*
X150738Y930630D01*
X148422Y931968D01*
X145838Y932660D01*
X143162D01*
X140578Y931968D01*
X138262Y930630D01*
X136370Y928738D01*
X135032Y926422D01*
X134340Y923838D01*
Y921162D01*
X135032Y918578D01*
X136370Y916262D01*
X138262Y914370D01*
X140381Y913146D01*
Y684953D01*
X138886Y683459D01*
X137716Y681431D01*
X137110Y679170D01*
Y676830D01*
X137716Y674569D01*
X138886Y672541D01*
X140541Y670886D01*
X142569Y669716D01*
X144830Y669110D01*
X147170D01*
X149431Y669716D01*
X151459Y670886D01*
X153114Y672541D01*
X154284Y674569D01*
X154890Y676830D01*
Y679170D01*
X154284Y681431D01*
X153114Y683459D01*
X151459Y685114D01*
X150659Y685576D01*
Y914324D01*
X150738Y914370D01*
X152630Y916262D01*
X153854Y918381D01*
X280520D01*
X282486Y918772D01*
X284153Y919886D01*
X332473Y968206D01*
X332830Y968110D01*
X335170D01*
X337431Y968716D01*
X339459Y969886D01*
X341114Y971541D01*
X342284Y973569D01*
X342890Y975830D01*
Y978170D01*
X342284Y980431D01*
X341114Y982459D01*
X339459Y984114D01*
X337431Y985284D01*
X335170Y985890D01*
D02*
G37*
G36*
X1015540Y987730D02*
X990270D01*
Y962460D01*
X991089D01*
X995215Y963113D01*
X999188Y964404D01*
X1002910Y966301D01*
X1006290Y968756D01*
X1009244Y971710D01*
X1011699Y975090D01*
X1013596Y978812D01*
X1014886Y982785D01*
X1015540Y986911D01*
Y987730D01*
D02*
G37*
G36*
X987730D02*
X962460D01*
Y986911D01*
X963113Y982785D01*
X964404Y978812D01*
X966301Y975090D01*
X968756Y971710D01*
X971710Y968756D01*
X975090Y966301D01*
X978812Y964404D01*
X982785Y963113D01*
X986911Y962460D01*
X987730D01*
Y987730D01*
D02*
G37*
G36*
X237540D02*
X212270D01*
Y962460D01*
X213089D01*
X217215Y963113D01*
X221188Y964404D01*
X224910Y966301D01*
X228290Y968756D01*
X231244Y971710D01*
X233699Y975090D01*
X235596Y978812D01*
X236887Y982785D01*
X237540Y986911D01*
Y987730D01*
D02*
G37*
G36*
X209730D02*
X184460D01*
Y986911D01*
X185114Y982785D01*
X186404Y978812D01*
X188301Y975090D01*
X190756Y971710D01*
X193710Y968756D01*
X197090Y966301D01*
X200812Y964404D01*
X204785Y963113D01*
X208911Y962460D01*
X209730D01*
Y987730D01*
D02*
G37*
G36*
X285170Y969890D02*
X282830D01*
X280569Y969284D01*
X278541Y968114D01*
X276886Y966459D01*
X275716Y964431D01*
X275110Y962170D01*
Y959830D01*
X275206Y959473D01*
X262352Y946619D01*
X170637D01*
X170590Y946699D01*
X168699Y948591D01*
X166382Y949928D01*
X163798Y950620D01*
X161123D01*
X158539Y949928D01*
X156222Y948591D01*
X154331Y946699D01*
X152993Y944382D01*
X152301Y941798D01*
Y939123D01*
X152993Y936539D01*
X154331Y934222D01*
X156222Y932330D01*
X158539Y930993D01*
X161123Y930301D01*
X163798D01*
X166382Y930993D01*
X168699Y932330D01*
X170590Y934222D01*
X171814Y936341D01*
X264480D01*
X266447Y936733D01*
X268114Y937847D01*
X282473Y952206D01*
X282830Y952110D01*
X285170D01*
X287431Y952716D01*
X289459Y953886D01*
X291114Y955541D01*
X292284Y957569D01*
X292890Y959830D01*
Y962170D01*
X292284Y964431D01*
X291114Y966459D01*
X289459Y968114D01*
X287431Y969284D01*
X285170Y969890D01*
D02*
G37*
G36*
X1036520Y956747D02*
X1021253Y941480D01*
X1023509Y939225D01*
X971622Y887338D01*
X970414Y885763D01*
X969654Y883929D01*
X969395Y881961D01*
Y868608D01*
X968166Y867379D01*
X966712Y864861D01*
X965960Y862053D01*
Y859147D01*
X966712Y856339D01*
X968166Y853821D01*
X969395Y852592D01*
Y835100D01*
Y801000D01*
X969654Y799032D01*
X970414Y797197D01*
X971622Y795622D01*
X1105395Y661850D01*
Y569700D01*
X1105654Y567732D01*
X1106414Y565897D01*
X1107622Y564322D01*
X1139205Y532740D01*
Y521905D01*
X1160795D01*
Y543495D01*
X1149960D01*
X1120605Y572850D01*
Y665000D01*
X1120346Y666968D01*
X1119586Y668802D01*
X1118378Y670378D01*
X984605Y804150D01*
Y835100D01*
Y852592D01*
X985834Y853821D01*
X987288Y856339D01*
X988040Y859147D01*
Y862053D01*
X987288Y864861D01*
X985834Y867379D01*
X984605Y868608D01*
Y878810D01*
X1034264Y928469D01*
X1036520Y926214D01*
X1051786Y941480D01*
X1036520Y956747D01*
D02*
G37*
G36*
X1055901Y934315D02*
X1053059D01*
X1050313Y933579D01*
X1047852Y932158D01*
X1045842Y930148D01*
X1044421Y927686D01*
X1043685Y924941D01*
Y922099D01*
X1044421Y919353D01*
X1045842Y916891D01*
X1047852Y914882D01*
X1050313Y913460D01*
X1053059Y912725D01*
X1055901D01*
X1058647Y913460D01*
X1061108Y914882D01*
X1063118Y916891D01*
X1064540Y919353D01*
X1065275Y922099D01*
Y924941D01*
X1064540Y927686D01*
X1063118Y930148D01*
X1061108Y932158D01*
X1058647Y933579D01*
X1055901Y934315D01*
D02*
G37*
G36*
X409270Y900863D02*
Y893270D01*
X416863D01*
X416284Y895431D01*
X415114Y897459D01*
X413459Y899114D01*
X411431Y900284D01*
X409270Y900863D01*
D02*
G37*
G36*
X406730D02*
X404569Y900284D01*
X402541Y899114D01*
X400886Y897459D01*
X399716Y895431D01*
X399137Y893270D01*
X406730D01*
Y900863D01*
D02*
G37*
G36*
X416863Y890730D02*
X409270D01*
Y883137D01*
X411431Y883716D01*
X413459Y884886D01*
X415114Y886541D01*
X416284Y888569D01*
X416863Y890730D01*
D02*
G37*
G36*
X406730D02*
X399137D01*
X399716Y888569D01*
X400886Y886541D01*
X402541Y884886D01*
X404569Y883716D01*
X406730Y883137D01*
Y890730D01*
D02*
G37*
G36*
X194270Y866863D02*
Y859270D01*
X201863D01*
X201284Y861431D01*
X200114Y863459D01*
X198459Y865114D01*
X196431Y866284D01*
X194270Y866863D01*
D02*
G37*
G36*
X191730D02*
X189569Y866284D01*
X187541Y865114D01*
X185886Y863459D01*
X184716Y861431D01*
X184137Y859270D01*
X191730D01*
Y866863D01*
D02*
G37*
G36*
X718270Y859863D02*
Y852270D01*
X725863D01*
X725284Y854431D01*
X724114Y856459D01*
X722459Y858114D01*
X720431Y859284D01*
X718270Y859863D01*
D02*
G37*
G36*
X715730D02*
X713569Y859284D01*
X711541Y858114D01*
X709886Y856459D01*
X708716Y854431D01*
X708137Y852270D01*
X715730D01*
Y859863D01*
D02*
G37*
G36*
X201863Y856730D02*
X194270D01*
Y849137D01*
X196431Y849716D01*
X198459Y850886D01*
X200114Y852541D01*
X201284Y854569D01*
X201863Y856730D01*
D02*
G37*
G36*
X191730D02*
X184137D01*
X184716Y854569D01*
X185886Y852541D01*
X187541Y850886D01*
X189569Y849716D01*
X191730Y849137D01*
Y856730D01*
D02*
G37*
G36*
X725863Y849730D02*
X718270D01*
Y842137D01*
X720431Y842716D01*
X722459Y843886D01*
X724114Y845541D01*
X725284Y847569D01*
X725863Y849730D01*
D02*
G37*
G36*
X715730D02*
X708137D01*
X708716Y847569D01*
X709886Y845541D01*
X711541Y843886D01*
X713569Y842716D01*
X715730Y842137D01*
Y849730D01*
D02*
G37*
G36*
X920270Y848863D02*
Y841270D01*
X927863D01*
X927284Y843431D01*
X926114Y845459D01*
X924459Y847114D01*
X922431Y848284D01*
X920270Y848863D01*
D02*
G37*
G36*
X917730D02*
X915569Y848284D01*
X913541Y847114D01*
X911886Y845459D01*
X910716Y843431D01*
X910137Y841270D01*
X917730D01*
Y848863D01*
D02*
G37*
G36*
X927863Y838730D02*
X920270D01*
Y831137D01*
X922431Y831716D01*
X924459Y832886D01*
X926114Y834541D01*
X927284Y836569D01*
X927863Y838730D01*
D02*
G37*
G36*
X917730D02*
X910137D01*
X910716Y836569D01*
X911886Y834541D01*
X913541Y832886D01*
X915569Y831716D01*
X917730Y831137D01*
Y838730D01*
D02*
G37*
G36*
X601270Y835863D02*
Y828270D01*
X608863D01*
X608284Y830431D01*
X607114Y832459D01*
X605459Y834114D01*
X603431Y835284D01*
X601270Y835863D01*
D02*
G37*
G36*
X598730D02*
X596569Y835284D01*
X594541Y834114D01*
X592886Y832459D01*
X591716Y830431D01*
X591137Y828270D01*
X598730D01*
Y835863D01*
D02*
G37*
G36*
X608863Y825730D02*
X601270D01*
Y818137D01*
X603431Y818716D01*
X605459Y819886D01*
X607114Y821541D01*
X608284Y823569D01*
X608863Y825730D01*
D02*
G37*
G36*
X598730D02*
X591137D01*
X591716Y823569D01*
X592886Y821541D01*
X594541Y819886D01*
X596569Y818716D01*
X598730Y818137D01*
Y825730D01*
D02*
G37*
G36*
X1070870Y821410D02*
Y813920D01*
X1078360D01*
X1077791Y816043D01*
X1076634Y818047D01*
X1074997Y819684D01*
X1072993Y820841D01*
X1070870Y821410D01*
D02*
G37*
G36*
X1068330D02*
X1066207Y820841D01*
X1064203Y819684D01*
X1062566Y818047D01*
X1061409Y816043D01*
X1060840Y813920D01*
X1068330D01*
Y821410D01*
D02*
G37*
G36*
X442270Y814863D02*
Y807270D01*
X449863D01*
X449284Y809431D01*
X448114Y811459D01*
X446459Y813114D01*
X444431Y814284D01*
X442270Y814863D01*
D02*
G37*
G36*
X439730D02*
X437569Y814284D01*
X435541Y813114D01*
X433886Y811459D01*
X432716Y809431D01*
X432137Y807270D01*
X439730D01*
Y814863D01*
D02*
G37*
G36*
X1078360Y811380D02*
X1070870D01*
Y803890D01*
X1072993Y804459D01*
X1074997Y805616D01*
X1076634Y807253D01*
X1077791Y809257D01*
X1078360Y811380D01*
D02*
G37*
G36*
X1068330D02*
X1060840D01*
X1061409Y809257D01*
X1062566Y807253D01*
X1064203Y805616D01*
X1066207Y804459D01*
X1068330Y803890D01*
Y811380D01*
D02*
G37*
G36*
X1129190Y821440D02*
X1111610D01*
Y803860D01*
X1129190D01*
Y821440D01*
D02*
G37*
G36*
X449863Y804730D02*
X442270D01*
Y797137D01*
X444431Y797716D01*
X446459Y798886D01*
X448114Y800541D01*
X449284Y802569D01*
X449863Y804730D01*
D02*
G37*
G36*
X439730D02*
X432137D01*
X432716Y802569D01*
X433886Y800541D01*
X435541Y798886D01*
X437569Y797716D01*
X439730Y797137D01*
Y804730D01*
D02*
G37*
G36*
X880338Y794160D02*
X880270D01*
Y785270D01*
X889160D01*
Y785338D01*
X888468Y787922D01*
X887130Y790238D01*
X885238Y792130D01*
X882922Y793468D01*
X880338Y794160D01*
D02*
G37*
G36*
X877730D02*
X877662D01*
X875078Y793468D01*
X872762Y792130D01*
X870870Y790238D01*
X869532Y787922D01*
X868840Y785338D01*
Y785270D01*
X877730D01*
Y794160D01*
D02*
G37*
G36*
X1096157Y796040D02*
X1093843D01*
X1091607Y795441D01*
X1089603Y794284D01*
X1087966Y792647D01*
X1086809Y790643D01*
X1086210Y788407D01*
Y786093D01*
X1086809Y783857D01*
X1087966Y781853D01*
X1089603Y780216D01*
X1091607Y779059D01*
X1093843Y778460D01*
X1096157D01*
X1098393Y779059D01*
X1100397Y780216D01*
X1102034Y781853D01*
X1103191Y783857D01*
X1103790Y786093D01*
Y788407D01*
X1103191Y790643D01*
X1102034Y792647D01*
X1100397Y794284D01*
X1098393Y795441D01*
X1096157Y796040D01*
D02*
G37*
G36*
X889160Y782730D02*
X880270D01*
Y773840D01*
X880338D01*
X882922Y774532D01*
X885238Y775870D01*
X887130Y777762D01*
X888468Y780079D01*
X889160Y782663D01*
Y782730D01*
D02*
G37*
G36*
X877730D02*
X868840D01*
Y782663D01*
X869532Y780079D01*
X870870Y777762D01*
X872762Y775870D01*
X875078Y774532D01*
X877662Y773840D01*
X877730D01*
Y782730D01*
D02*
G37*
G36*
X889160Y769160D02*
X868840D01*
Y748840D01*
X889160D01*
Y769160D01*
D02*
G37*
G36*
X978453Y770040D02*
X975547D01*
X972739Y769288D01*
X970221Y767834D01*
X968166Y765779D01*
X966712Y763261D01*
X965960Y760453D01*
Y757547D01*
X966712Y754739D01*
X968166Y752221D01*
X970221Y750166D01*
X972739Y748712D01*
X975547Y747960D01*
X978453D01*
X981261Y748712D01*
X983779Y750166D01*
X985834Y752221D01*
X987288Y754739D01*
X988040Y757547D01*
Y760453D01*
X987288Y763261D01*
X985834Y765779D01*
X983779Y767834D01*
X981261Y769288D01*
X978453Y770040D01*
D02*
G37*
G36*
X607522Y761040D02*
X604878D01*
X602325Y760356D01*
X600035Y759034D01*
X598166Y757165D01*
X596844Y754875D01*
X596160Y752322D01*
Y749678D01*
X596844Y747125D01*
X598166Y744835D01*
X600035Y742966D01*
X602325Y741644D01*
X604878Y740960D01*
X607522D01*
X610075Y741644D01*
X612365Y742966D01*
X614234Y744835D01*
X615556Y747125D01*
X616240Y749678D01*
Y752322D01*
X615556Y754875D01*
X614234Y757165D01*
X612365Y759034D01*
X610075Y760356D01*
X607522Y761040D01*
D02*
G37*
G36*
X540040D02*
X519960D01*
Y740960D01*
X540040D01*
Y761040D01*
D02*
G37*
G36*
X448522Y758640D02*
X445878D01*
X443325Y757956D01*
X441035Y756634D01*
X439166Y754765D01*
X437844Y752475D01*
X437160Y749922D01*
Y747278D01*
X437844Y744725D01*
X439166Y742435D01*
X441035Y740566D01*
X443325Y739244D01*
X445878Y738560D01*
X448522D01*
X451075Y739244D01*
X453365Y740566D01*
X455234Y742435D01*
X456556Y744725D01*
X457240Y747278D01*
Y749922D01*
X456556Y752475D01*
X455234Y754765D01*
X453365Y756634D01*
X451075Y757956D01*
X448522Y758640D01*
D02*
G37*
G36*
X381040D02*
X360960D01*
Y738560D01*
X381040D01*
Y758640D01*
D02*
G37*
G36*
X1155540Y762540D02*
X1130460D01*
Y737460D01*
X1155540D01*
Y762540D01*
D02*
G37*
G36*
X647170Y1082890D02*
X644830D01*
X642569Y1082284D01*
X640541Y1081114D01*
X638886Y1079459D01*
X637716Y1077431D01*
X637110Y1075170D01*
Y1072830D01*
X637716Y1070569D01*
X638886Y1068541D01*
X640541Y1066886D01*
X640861Y1066702D01*
Y737129D01*
X634472Y730739D01*
X614826D01*
X614234Y731765D01*
X612365Y733634D01*
X610075Y734956D01*
X607522Y735640D01*
X604878D01*
X602325Y734956D01*
X600035Y733634D01*
X598166Y731765D01*
X596844Y729475D01*
X596160Y726922D01*
Y724278D01*
X596844Y721725D01*
X598166Y719435D01*
X600035Y717566D01*
X602325Y716244D01*
X604878Y715560D01*
X607522D01*
X610075Y716244D01*
X612365Y717566D01*
X614234Y719435D01*
X614826Y720461D01*
X636600D01*
X638567Y720852D01*
X640234Y721966D01*
X649634Y731366D01*
X650748Y733034D01*
X651139Y735000D01*
Y1066702D01*
X651459Y1066886D01*
X653114Y1068541D01*
X654284Y1070569D01*
X654890Y1072830D01*
Y1075170D01*
X654284Y1077431D01*
X653114Y1079459D01*
X651459Y1081114D01*
X649431Y1082284D01*
X647170Y1082890D01*
D02*
G37*
G36*
X531322Y735640D02*
X528678D01*
X526125Y734956D01*
X523835Y733634D01*
X521966Y731765D01*
X520644Y729475D01*
X519960Y726922D01*
Y724278D01*
X520644Y721725D01*
X521966Y719435D01*
X523835Y717566D01*
X526125Y716244D01*
X528678Y715560D01*
X531322D01*
X533875Y716244D01*
X536165Y717566D01*
X538034Y719435D01*
X539356Y721725D01*
X540040Y724278D01*
Y726922D01*
X539356Y729475D01*
X538034Y731765D01*
X536165Y733634D01*
X533875Y734956D01*
X531322Y735640D01*
D02*
G37*
G36*
X372322Y733240D02*
X369678D01*
X367125Y732556D01*
X364835Y731234D01*
X362966Y729365D01*
X361644Y727075D01*
X360960Y724522D01*
Y721878D01*
X361644Y719325D01*
X362966Y717035D01*
X364835Y715166D01*
X367125Y713844D01*
X369678Y713160D01*
X372322D01*
X374875Y713844D01*
X377165Y715166D01*
X379034Y717035D01*
X380356Y719325D01*
X381040Y721878D01*
Y724522D01*
X380356Y727075D01*
X379034Y729365D01*
X377165Y731234D01*
X374875Y732556D01*
X372322Y733240D01*
D02*
G37*
G36*
X530170Y931890D02*
X527830D01*
X525569Y931284D01*
X523541Y930114D01*
X521886Y928459D01*
X520716Y926431D01*
X520364Y925119D01*
X502622Y907378D01*
X501414Y905803D01*
X500654Y903968D01*
X500395Y902000D01*
Y715150D01*
X490650Y705405D01*
X453794D01*
X453365Y705834D01*
X451075Y707156D01*
X448522Y707840D01*
X445878D01*
X443325Y707156D01*
X441035Y705834D01*
X439166Y703965D01*
X437844Y701675D01*
X437160Y699122D01*
Y696478D01*
X437844Y693925D01*
X439166Y691635D01*
X441035Y689766D01*
X443325Y688444D01*
X445878Y687760D01*
X448522D01*
X451075Y688444D01*
X453365Y689766D01*
X453794Y690195D01*
X493800D01*
X495768Y690454D01*
X497603Y691214D01*
X499178Y692422D01*
X513378Y706622D01*
X514586Y708197D01*
X514901Y708957D01*
X515346Y710032D01*
X515605Y712000D01*
Y898850D01*
X531119Y914364D01*
X532431Y914716D01*
X534459Y915886D01*
X536114Y917541D01*
X537284Y919569D01*
X537890Y921830D01*
Y924170D01*
X537284Y926431D01*
X536114Y928459D01*
X534459Y930114D01*
X532431Y931284D01*
X530170Y931890D01*
D02*
G37*
G36*
X893170Y997890D02*
X890830D01*
X888569Y997284D01*
X886541Y996114D01*
X884886Y994459D01*
X883716Y992431D01*
X883110Y990170D01*
Y987830D01*
X883716Y985569D01*
X884886Y983541D01*
X886541Y981886D01*
X886861Y981702D01*
Y915128D01*
X677072Y705339D01*
X614826D01*
X614234Y706365D01*
X612365Y708234D01*
X610075Y709556D01*
X607522Y710240D01*
X604878D01*
X602325Y709556D01*
X600035Y708234D01*
X598166Y706365D01*
X596844Y704075D01*
X596160Y701522D01*
Y698878D01*
X596844Y696325D01*
X598166Y694035D01*
X600035Y692166D01*
X602325Y690844D01*
X604878Y690160D01*
X607522D01*
X610075Y690844D01*
X612365Y692166D01*
X614234Y694035D01*
X614826Y695061D01*
X679200D01*
X681167Y695452D01*
X682834Y696566D01*
X895634Y909366D01*
X896748Y911033D01*
X897139Y913000D01*
Y981702D01*
X897459Y981886D01*
X899114Y983541D01*
X900284Y985569D01*
X900890Y987830D01*
Y990170D01*
X900284Y992431D01*
X899114Y994459D01*
X897459Y996114D01*
X895431Y997284D01*
X893170Y997890D01*
D02*
G37*
G36*
X936270Y699863D02*
Y692270D01*
X943863D01*
X943284Y694431D01*
X942114Y696459D01*
X940459Y698114D01*
X938431Y699284D01*
X936270Y699863D01*
D02*
G37*
G36*
X933730D02*
X931569Y699284D01*
X929541Y698114D01*
X927886Y696459D01*
X926716Y694431D01*
X926137Y692270D01*
X933730D01*
Y699863D01*
D02*
G37*
G36*
X531322Y710240D02*
X528678D01*
X526125Y709556D01*
X523835Y708234D01*
X521966Y706365D01*
X520644Y704075D01*
X519960Y701522D01*
Y698878D01*
X520644Y696325D01*
X521966Y694035D01*
X523835Y692166D01*
X526125Y690844D01*
X528678Y690160D01*
X531322D01*
X533875Y690844D01*
X536165Y692166D01*
X538034Y694035D01*
X539356Y696325D01*
X540040Y698878D01*
Y701522D01*
X539356Y704075D01*
X538034Y706365D01*
X536165Y708234D01*
X533875Y709556D01*
X531322Y710240D01*
D02*
G37*
G36*
X372322Y707840D02*
X369678D01*
X367125Y707156D01*
X364835Y705834D01*
X362966Y703965D01*
X361644Y701675D01*
X360960Y699122D01*
Y696478D01*
X361644Y693925D01*
X362966Y691635D01*
X364835Y689766D01*
X367125Y688444D01*
X369678Y687760D01*
X372322D01*
X374875Y688444D01*
X377165Y689766D01*
X379034Y691635D01*
X380356Y693925D01*
X381040Y696478D01*
Y699122D01*
X380356Y701675D01*
X379034Y703965D01*
X377165Y705834D01*
X374875Y707156D01*
X372322Y707840D01*
D02*
G37*
G36*
X1025270Y690863D02*
Y683270D01*
X1032863D01*
X1032284Y685431D01*
X1031114Y687459D01*
X1029459Y689114D01*
X1027431Y690284D01*
X1025270Y690863D01*
D02*
G37*
G36*
X1022730D02*
X1020569Y690284D01*
X1018541Y689114D01*
X1016886Y687459D01*
X1015716Y685431D01*
X1015137Y683270D01*
X1022730D01*
Y690863D01*
D02*
G37*
G36*
X943863Y689730D02*
X936270D01*
Y682137D01*
X938431Y682716D01*
X940459Y683886D01*
X942114Y685541D01*
X943284Y687569D01*
X943863Y689730D01*
D02*
G37*
G36*
X933730D02*
X926137D01*
X926716Y687569D01*
X927886Y685541D01*
X929541Y683886D01*
X931569Y682716D01*
X933730Y682137D01*
Y689730D01*
D02*
G37*
G36*
X1151338Y700160D02*
X1148662D01*
X1146078Y699468D01*
X1143762Y698130D01*
X1141870Y696238D01*
X1140532Y693922D01*
X1139840Y691338D01*
Y688662D01*
X1140532Y686078D01*
X1141870Y683762D01*
X1143762Y681870D01*
X1146078Y680532D01*
X1148662Y679840D01*
X1151338D01*
X1153922Y680532D01*
X1156238Y681870D01*
X1158130Y683762D01*
X1159468Y686078D01*
X1160160Y688662D01*
Y691338D01*
X1159468Y693922D01*
X1158130Y696238D01*
X1156238Y698130D01*
X1153922Y699468D01*
X1151338Y700160D01*
D02*
G37*
G36*
X531322Y684840D02*
X531270D01*
Y676070D01*
X540040D01*
Y676122D01*
X539356Y678675D01*
X538034Y680965D01*
X536165Y682834D01*
X533875Y684156D01*
X531322Y684840D01*
D02*
G37*
G36*
X528730D02*
X528678D01*
X526125Y684156D01*
X523835Y682834D01*
X521966Y680965D01*
X520644Y678675D01*
X519960Y676122D01*
Y676070D01*
X528730D01*
Y684840D01*
D02*
G37*
G36*
X222270Y682863D02*
Y675270D01*
X229863D01*
X229284Y677431D01*
X228114Y679459D01*
X226459Y681114D01*
X224431Y682284D01*
X222270Y682863D01*
D02*
G37*
G36*
X219730D02*
X217569Y682284D01*
X215541Y681114D01*
X213886Y679459D01*
X212716Y677431D01*
X212137Y675270D01*
X219730D01*
Y682863D01*
D02*
G37*
G36*
X372322Y682440D02*
X372270D01*
Y673670D01*
X381040D01*
Y673722D01*
X380356Y676275D01*
X379034Y678565D01*
X377165Y680434D01*
X374875Y681756D01*
X372322Y682440D01*
D02*
G37*
G36*
X369730D02*
X369678D01*
X367125Y681756D01*
X364835Y680434D01*
X362966Y678565D01*
X361644Y676275D01*
X360960Y673722D01*
Y673670D01*
X369730D01*
Y682440D01*
D02*
G37*
G36*
X1032863Y680730D02*
X1025270D01*
Y673137D01*
X1027431Y673716D01*
X1029459Y674886D01*
X1031114Y676541D01*
X1032284Y678569D01*
X1032863Y680730D01*
D02*
G37*
G36*
X1022730D02*
X1015137D01*
X1015716Y678569D01*
X1016886Y676541D01*
X1018541Y674886D01*
X1020569Y673716D01*
X1022730Y673137D01*
Y680730D01*
D02*
G37*
G36*
X229863Y672730D02*
X222270D01*
Y665137D01*
X224431Y665716D01*
X226459Y666886D01*
X228114Y668541D01*
X229284Y670569D01*
X229863Y672730D01*
D02*
G37*
G36*
X219730D02*
X212137D01*
X212716Y670569D01*
X213886Y668541D01*
X215541Y666886D01*
X217569Y665716D01*
X219730Y665137D01*
Y672730D01*
D02*
G37*
G36*
X540040Y673530D02*
X531270D01*
Y664760D01*
X531322D01*
X533875Y665444D01*
X536165Y666766D01*
X538034Y668635D01*
X539356Y670925D01*
X540040Y673478D01*
Y673530D01*
D02*
G37*
G36*
X528730D02*
X519960D01*
Y673478D01*
X520644Y670925D01*
X521966Y668635D01*
X523835Y666766D01*
X526125Y665444D01*
X528678Y664760D01*
X528730D01*
Y673530D01*
D02*
G37*
G36*
X381040Y671130D02*
X372270D01*
Y662360D01*
X372322D01*
X374875Y663044D01*
X377165Y664366D01*
X379034Y666235D01*
X380356Y668525D01*
X381040Y671078D01*
Y671130D01*
D02*
G37*
G36*
X369730D02*
X360960D01*
Y671078D01*
X361644Y668525D01*
X362966Y666235D01*
X364835Y664366D01*
X367125Y663044D01*
X369678Y662360D01*
X369730D01*
Y671130D01*
D02*
G37*
G36*
X1151338Y674760D02*
X1148662D01*
X1146078Y674068D01*
X1143762Y672730D01*
X1141870Y670838D01*
X1140532Y668522D01*
X1139840Y665938D01*
Y663262D01*
X1140532Y660678D01*
X1141870Y658362D01*
X1143762Y656470D01*
X1146078Y655132D01*
X1148662Y654440D01*
X1151338D01*
X1153922Y655132D01*
X1156238Y656470D01*
X1158130Y658362D01*
X1159468Y660678D01*
X1160160Y663262D01*
Y665938D01*
X1159468Y668522D01*
X1158130Y670838D01*
X1156238Y672730D01*
X1153922Y674068D01*
X1151338Y674760D01*
D02*
G37*
G36*
X531322Y659440D02*
X531270D01*
Y650670D01*
X540040D01*
Y650722D01*
X539356Y653275D01*
X538034Y655565D01*
X536165Y657434D01*
X533875Y658756D01*
X531322Y659440D01*
D02*
G37*
G36*
X372322Y657040D02*
X372270D01*
Y648270D01*
X381040D01*
Y648322D01*
X380356Y650875D01*
X379034Y653165D01*
X377165Y655034D01*
X374875Y656356D01*
X372322Y657040D01*
D02*
G37*
G36*
X369730D02*
X369678D01*
X367125Y656356D01*
X364835Y655034D01*
X362966Y653165D01*
X361644Y650875D01*
X360960Y648322D01*
Y648270D01*
X369730D01*
Y657040D01*
D02*
G37*
G36*
X51421Y703495D02*
X48579D01*
X45833Y702759D01*
X43372Y701338D01*
X41362Y699328D01*
X39941Y696867D01*
X39205Y694121D01*
Y691279D01*
X39941Y688533D01*
X41362Y686072D01*
X43372Y684062D01*
X45833Y682641D01*
X48579Y681905D01*
X51421D01*
X54167Y682641D01*
X56628Y684062D01*
X58638Y686072D01*
X58825Y686395D01*
X66850D01*
X226622Y526622D01*
X228197Y525414D01*
X230032Y524654D01*
X232000Y524395D01*
X429000D01*
X430968Y524654D01*
X432803Y525414D01*
X434378Y526622D01*
X452578Y544822D01*
X453786Y546398D01*
X454546Y548232D01*
X454805Y550200D01*
Y563360D01*
X455125Y563647D01*
X456395Y563081D01*
Y335150D01*
X440850Y319605D01*
X286608D01*
X285431Y320284D01*
X283170Y320890D01*
X280830D01*
X278569Y320284D01*
X276541Y319114D01*
X274886Y317459D01*
X273716Y315431D01*
X273110Y313170D01*
Y310830D01*
X273716Y308569D01*
X274886Y306541D01*
X276541Y304886D01*
X278569Y303716D01*
X280830Y303110D01*
X283170D01*
X285431Y303716D01*
X286608Y304395D01*
X444000D01*
X445968Y304654D01*
X447803Y305414D01*
X449378Y306622D01*
X469378Y326622D01*
X470586Y328198D01*
X471125Y329498D01*
X472395Y329245D01*
Y238000D01*
X472654Y236032D01*
X473414Y234198D01*
X474622Y232622D01*
X535395Y171850D01*
Y125150D01*
X501922Y91678D01*
X500714Y90103D01*
X499954Y88268D01*
X499695Y86300D01*
Y57661D01*
X498662Y56628D01*
X497241Y54167D01*
X496505Y51421D01*
Y48579D01*
X497241Y45833D01*
X498662Y43372D01*
X500672Y41362D01*
X503133Y39941D01*
X505879Y39205D01*
X508721D01*
X511467Y39941D01*
X513928Y41362D01*
X515938Y43372D01*
X517359Y45833D01*
X518095Y48579D01*
Y51421D01*
X517359Y54167D01*
X515938Y56628D01*
X514905Y57661D01*
Y83150D01*
X548378Y116622D01*
X549586Y118197D01*
X549901Y118957D01*
X550346Y120032D01*
X550605Y122000D01*
Y175000D01*
X550346Y176968D01*
X549901Y178043D01*
X549586Y178803D01*
X548378Y180378D01*
X487605Y241150D01*
Y278246D01*
X488875Y278498D01*
X489414Y277197D01*
X490622Y275622D01*
X586622Y179622D01*
X588198Y178414D01*
X588957Y178099D01*
X590032Y177654D01*
X592000Y177395D01*
X899392D01*
X900569Y176716D01*
X902830Y176110D01*
X905170D01*
X907431Y176716D01*
X909459Y177886D01*
X911114Y179541D01*
X912284Y181569D01*
X912890Y183830D01*
Y186170D01*
X912284Y188431D01*
X911114Y190459D01*
X909459Y192114D01*
X907431Y193284D01*
X905170Y193890D01*
X902830D01*
X900569Y193284D01*
X899392Y192605D01*
X595150D01*
X503605Y284150D01*
Y524245D01*
X504875Y524498D01*
X505414Y523198D01*
X506622Y521622D01*
X526322Y501922D01*
X527897Y500714D01*
X529732Y499954D01*
X531700Y499695D01*
X1142339D01*
X1143372Y498662D01*
X1145833Y497241D01*
X1148579Y496505D01*
X1151421D01*
X1154167Y497241D01*
X1156628Y498662D01*
X1158638Y500672D01*
X1160059Y503133D01*
X1160795Y505879D01*
Y508721D01*
X1160059Y511467D01*
X1158638Y513928D01*
X1156628Y515938D01*
X1154167Y517359D01*
X1151421Y518095D01*
X1148579D01*
X1145833Y517359D01*
X1143372Y515938D01*
X1142339Y514905D01*
X534850D01*
X519605Y530150D01*
Y568585D01*
X520875Y568925D01*
X521966Y567035D01*
X523835Y565166D01*
X526125Y563844D01*
X528678Y563160D01*
X528730D01*
Y573200D01*
Y583240D01*
X528678D01*
X526125Y582556D01*
X523835Y581234D01*
X521966Y579365D01*
X520875Y577475D01*
X519605Y577815D01*
Y593985D01*
X520875Y594325D01*
X521966Y592435D01*
X523835Y590566D01*
X526125Y589244D01*
X528678Y588560D01*
X531322D01*
X533875Y589244D01*
X536165Y590566D01*
X538034Y592435D01*
X539356Y594725D01*
X540040Y597278D01*
Y599922D01*
X539356Y602475D01*
X538034Y604765D01*
X536165Y606634D01*
X533875Y607956D01*
X531322Y608640D01*
X528678D01*
X526125Y607956D01*
X523835Y606634D01*
X521966Y604765D01*
X520875Y602875D01*
X519605Y603215D01*
Y619385D01*
X520875Y619725D01*
X521966Y617835D01*
X523835Y615966D01*
X526125Y614644D01*
X528678Y613960D01*
X531322D01*
X533875Y614644D01*
X536165Y615966D01*
X538034Y617835D01*
X538626Y618861D01*
X552000D01*
X553966Y619252D01*
X555634Y620366D01*
X567128Y631861D01*
X598203D01*
X598689Y630688D01*
X598166Y630165D01*
X596844Y627875D01*
X596160Y625322D01*
Y622678D01*
X596844Y620125D01*
X598166Y617835D01*
X598689Y617312D01*
X598203Y616139D01*
X574299D01*
X574114Y616459D01*
X572459Y618114D01*
X570431Y619284D01*
X568170Y619890D01*
X565830D01*
X563569Y619284D01*
X561541Y618114D01*
X559886Y616459D01*
X558716Y614431D01*
X558110Y612170D01*
Y609830D01*
X558716Y607569D01*
X559886Y605541D01*
X561541Y603886D01*
X563569Y602716D01*
X565830Y602110D01*
X568170D01*
X570431Y602716D01*
X572459Y603886D01*
X574114Y605541D01*
X574299Y605861D01*
X597668D01*
X598066Y604591D01*
X596844Y602475D01*
X596160Y599922D01*
Y597278D01*
X596844Y594725D01*
X598166Y592435D01*
X600035Y590566D01*
X602325Y589244D01*
X604878Y588560D01*
X607522D01*
X610075Y589244D01*
X612365Y590566D01*
X614234Y592435D01*
X615556Y594725D01*
X616240Y597278D01*
Y599922D01*
X615556Y602475D01*
X614234Y604765D01*
X614171Y604828D01*
X614657Y606001D01*
X724140D01*
X726106Y606392D01*
X727774Y607506D01*
X749128Y628861D01*
X905671D01*
X914850Y619683D01*
X914360Y617854D01*
Y614947D01*
X915112Y612139D01*
X916566Y609621D01*
X918621Y607566D01*
X921139Y606112D01*
X923947Y605360D01*
X926853D01*
X929661Y606112D01*
X932179Y607566D01*
X934234Y609621D01*
X935688Y612139D01*
X936440Y614947D01*
Y617854D01*
X935688Y620661D01*
X934234Y623179D01*
X932179Y625234D01*
X929661Y626688D01*
X926853Y627440D01*
X923947D01*
X922117Y626950D01*
X911434Y637634D01*
X910000Y638591D01*
X910165Y639745D01*
X910212Y639861D01*
X938872D01*
X945661Y633072D01*
Y626181D01*
X944021Y625234D01*
X941966Y623179D01*
X940512Y620661D01*
X939760Y617854D01*
Y614947D01*
X940512Y612139D01*
X941966Y609621D01*
X944021Y607566D01*
X946539Y606112D01*
X949347Y605360D01*
X952253D01*
X955061Y606112D01*
X957579Y607566D01*
X959634Y609621D01*
X961088Y612139D01*
X961840Y614947D01*
Y617854D01*
X961088Y620661D01*
X959634Y623179D01*
X957579Y625234D01*
X955939Y626181D01*
Y635200D01*
X955548Y637166D01*
X954434Y638834D01*
X944634Y648634D01*
X943200Y649591D01*
X943365Y650745D01*
X943412Y650861D01*
X1086702D01*
X1086886Y650541D01*
X1088541Y648886D01*
X1090569Y647716D01*
X1092830Y647110D01*
X1095170D01*
X1097431Y647716D01*
X1099459Y648886D01*
X1101114Y650541D01*
X1102284Y652569D01*
X1102890Y654830D01*
Y657170D01*
X1102284Y659431D01*
X1101114Y661459D01*
X1099459Y663114D01*
X1097431Y664284D01*
X1095170Y664890D01*
X1092830D01*
X1090569Y664284D01*
X1088541Y663114D01*
X1086886Y661459D01*
X1086702Y661139D01*
X663129D01*
X645634Y678634D01*
X643967Y679748D01*
X642000Y680139D01*
X614711D01*
X614234Y680965D01*
X612365Y682834D01*
X610075Y684156D01*
X607522Y684840D01*
X604878D01*
X602325Y684156D01*
X600035Y682834D01*
X598166Y680965D01*
X596844Y678675D01*
X596160Y676122D01*
Y673478D01*
X596844Y670925D01*
X598166Y668635D01*
X600035Y666766D01*
X602325Y665444D01*
X604878Y664760D01*
X607522D01*
X610075Y665444D01*
X612365Y666766D01*
X614234Y668635D01*
X614942Y669861D01*
X639871D01*
X657366Y652366D01*
X659034Y651252D01*
X661000Y650861D01*
X685588D01*
X685635Y650745D01*
X685800Y649591D01*
X684366Y648634D01*
X677731Y641999D01*
X614657D01*
X614171Y643172D01*
X614234Y643235D01*
X615556Y645525D01*
X616240Y648078D01*
Y650722D01*
X615556Y653275D01*
X614234Y655565D01*
X612365Y657434D01*
X610075Y658756D01*
X607522Y659440D01*
X604878D01*
X602325Y658756D01*
X600035Y657434D01*
X598166Y655565D01*
X596844Y653275D01*
X596160Y650722D01*
Y648078D01*
X596844Y645525D01*
X598066Y643409D01*
X597668Y642139D01*
X565000D01*
X563033Y641748D01*
X561366Y640634D01*
X549871Y629139D01*
X538626D01*
X538034Y630165D01*
X536165Y632034D01*
X533875Y633356D01*
X531322Y634040D01*
X528678D01*
X526125Y633356D01*
X523835Y632034D01*
X521966Y630165D01*
X520875Y628275D01*
X519605Y628615D01*
Y644785D01*
X520875Y645125D01*
X521966Y643235D01*
X523835Y641366D01*
X526125Y640044D01*
X528678Y639360D01*
X528730D01*
Y649400D01*
Y659440D01*
X528678D01*
X526125Y658756D01*
X523835Y657434D01*
X521966Y655565D01*
X520875Y653675D01*
X519605Y654000D01*
X519346Y655968D01*
X518901Y657043D01*
X518586Y657803D01*
X517378Y659378D01*
X498978Y677778D01*
X497402Y678986D01*
X495568Y679746D01*
X493600Y680005D01*
X453794D01*
X453365Y680434D01*
X451075Y681756D01*
X448522Y682440D01*
X445878D01*
X443325Y681756D01*
X441035Y680434D01*
X439166Y678565D01*
X437844Y676275D01*
X437160Y673722D01*
Y671078D01*
X437844Y668525D01*
X439166Y666235D01*
X441035Y664366D01*
X443325Y663044D01*
X445878Y662360D01*
X448522D01*
X451075Y663044D01*
X453365Y664366D01*
X453794Y664795D01*
X490450D01*
X504395Y650850D01*
Y636754D01*
X503125Y636502D01*
X502586Y637803D01*
X501378Y639378D01*
X488378Y652378D01*
X486802Y653586D01*
X484968Y654346D01*
X483000Y654605D01*
X453794D01*
X453365Y655034D01*
X451075Y656356D01*
X448522Y657040D01*
X445878D01*
X443325Y656356D01*
X441035Y655034D01*
X439166Y653165D01*
X437844Y650875D01*
X437160Y648322D01*
Y645678D01*
X437844Y643125D01*
X439166Y640835D01*
X441035Y638966D01*
X443325Y637644D01*
X445878Y636960D01*
X448522D01*
X451075Y637644D01*
X453365Y638966D01*
X453794Y639395D01*
X479850D01*
X488395Y630850D01*
Y607755D01*
X487125Y607502D01*
X486586Y608802D01*
X485378Y610378D01*
X470378Y625378D01*
X468802Y626586D01*
X466968Y627346D01*
X465000Y627605D01*
X455326D01*
X455234Y627765D01*
X453365Y629634D01*
X451075Y630956D01*
X448522Y631640D01*
X445878D01*
X443325Y630956D01*
X441035Y629634D01*
X439166Y627765D01*
X437844Y625475D01*
X437160Y622922D01*
Y620278D01*
X437844Y617725D01*
X439166Y615435D01*
X441035Y613566D01*
X443325Y612244D01*
X445878Y611560D01*
X448522D01*
X451075Y612244D01*
X451336Y612395D01*
X461850D01*
X472395Y601850D01*
Y592755D01*
X471125Y592502D01*
X470586Y593802D01*
X469378Y595378D01*
X463178Y601578D01*
X461603Y602786D01*
X459768Y603546D01*
X457800Y603805D01*
X453794D01*
X453365Y604234D01*
X451075Y605556D01*
X448522Y606240D01*
X445878D01*
X443325Y605556D01*
X441035Y604234D01*
X439166Y602365D01*
X437844Y600075D01*
X437160Y597522D01*
Y594878D01*
X437844Y592325D01*
X439166Y590035D01*
X441035Y588166D01*
X443325Y586844D01*
X445878Y586160D01*
X448522D01*
X451075Y586844D01*
X453365Y588166D01*
X453501Y588302D01*
X454942D01*
X456395Y586850D01*
Y577276D01*
X456068Y577188D01*
X455125Y577074D01*
X453365Y578834D01*
X451075Y580156D01*
X448522Y580840D01*
X445878D01*
X443325Y580156D01*
X441035Y578834D01*
X439166Y576965D01*
X437844Y574675D01*
X437160Y572122D01*
Y569478D01*
X437844Y566925D01*
X439166Y564635D01*
X439595Y564206D01*
Y553350D01*
X425850Y539605D01*
X235150D01*
X75378Y699378D01*
X73802Y700586D01*
X71968Y701346D01*
X70000Y701605D01*
X56166D01*
X54167Y702759D01*
X51421Y703495D01*
D02*
G37*
G36*
X540040Y648130D02*
X531270D01*
Y639360D01*
X531322D01*
X533875Y640044D01*
X536165Y641366D01*
X538034Y643235D01*
X539356Y645525D01*
X540040Y648078D01*
Y648130D01*
D02*
G37*
G36*
X381040Y645730D02*
X372270D01*
Y636960D01*
X372322D01*
X374875Y637644D01*
X377165Y638966D01*
X379034Y640835D01*
X380356Y643125D01*
X381040Y645678D01*
Y645730D01*
D02*
G37*
G36*
X369730D02*
X360960D01*
Y645678D01*
X361644Y643125D01*
X362966Y640835D01*
X364835Y638966D01*
X367125Y637644D01*
X369678Y636960D01*
X369730D01*
Y645730D01*
D02*
G37*
G36*
X1053853Y627440D02*
X1053670D01*
Y617670D01*
X1063440D01*
Y617854D01*
X1062688Y620661D01*
X1061234Y623179D01*
X1059179Y625234D01*
X1056661Y626688D01*
X1053853Y627440D01*
D02*
G37*
G36*
X1051130D02*
X1050947D01*
X1048139Y626688D01*
X1045621Y625234D01*
X1043566Y623179D01*
X1042112Y620661D01*
X1041360Y617854D01*
Y617670D01*
X1051130D01*
Y627440D01*
D02*
G37*
G36*
X1028453D02*
X1028270D01*
Y617670D01*
X1038040D01*
Y617854D01*
X1037288Y620661D01*
X1035834Y623179D01*
X1033779Y625234D01*
X1031261Y626688D01*
X1028453Y627440D01*
D02*
G37*
G36*
X1025730D02*
X1025547D01*
X1022739Y626688D01*
X1020221Y625234D01*
X1018166Y623179D01*
X1016712Y620661D01*
X1015960Y617854D01*
Y617670D01*
X1025730D01*
Y627440D01*
D02*
G37*
G36*
X372322Y631640D02*
X369678D01*
X367125Y630956D01*
X364835Y629634D01*
X362966Y627765D01*
X361644Y625475D01*
X360960Y622922D01*
Y620278D01*
X361644Y617725D01*
X362966Y615435D01*
X364835Y613566D01*
X367125Y612244D01*
X369678Y611560D01*
X372322D01*
X374875Y612244D01*
X377165Y613566D01*
X379034Y615435D01*
X380356Y617725D01*
X381040Y620278D01*
Y622922D01*
X380356Y625475D01*
X379034Y627765D01*
X377165Y629634D01*
X374875Y630956D01*
X372322Y631640D01*
D02*
G37*
G36*
X1063440Y615130D02*
X1053670D01*
Y605360D01*
X1053853D01*
X1056661Y606112D01*
X1059179Y607566D01*
X1061234Y609621D01*
X1062688Y612139D01*
X1063440Y614947D01*
Y615130D01*
D02*
G37*
G36*
X1051130D02*
X1041360D01*
Y614947D01*
X1042112Y612139D01*
X1043566Y609621D01*
X1045621Y607566D01*
X1048139Y606112D01*
X1050947Y605360D01*
X1051130D01*
Y615130D01*
D02*
G37*
G36*
X1038040D02*
X1028270D01*
Y605360D01*
X1028453D01*
X1031261Y606112D01*
X1033779Y607566D01*
X1035834Y609621D01*
X1037288Y612139D01*
X1038040Y614947D01*
Y615130D01*
D02*
G37*
G36*
X1025730D02*
X1015960D01*
Y614947D01*
X1016712Y612139D01*
X1018166Y609621D01*
X1020221Y607566D01*
X1022739Y606112D01*
X1025547Y605360D01*
X1025730D01*
Y615130D01*
D02*
G37*
G36*
X1003053Y627440D02*
X1000147D01*
X997339Y626688D01*
X994821Y625234D01*
X992766Y623179D01*
X991312Y620661D01*
X990560Y617854D01*
Y614947D01*
X991312Y612139D01*
X992766Y609621D01*
X994821Y607566D01*
X997339Y606112D01*
X1000147Y605360D01*
X1003053D01*
X1005861Y606112D01*
X1008379Y607566D01*
X1010434Y609621D01*
X1011888Y612139D01*
X1012640Y614947D01*
Y617854D01*
X1011888Y620661D01*
X1010434Y623179D01*
X1008379Y625234D01*
X1005861Y626688D01*
X1003053Y627440D01*
D02*
G37*
G36*
X977653D02*
X974747D01*
X971939Y626688D01*
X969421Y625234D01*
X967366Y623179D01*
X965912Y620661D01*
X965160Y617854D01*
Y614947D01*
X965912Y612139D01*
X967366Y609621D01*
X969421Y607566D01*
X971939Y606112D01*
X974747Y605360D01*
X977653D01*
X980461Y606112D01*
X982979Y607566D01*
X985034Y609621D01*
X986488Y612139D01*
X987240Y614947D01*
Y617854D01*
X986488Y620661D01*
X985034Y623179D01*
X982979Y625234D01*
X980461Y626688D01*
X977653Y627440D01*
D02*
G37*
G36*
X901453D02*
X898547D01*
X895739Y626688D01*
X893221Y625234D01*
X891166Y623179D01*
X889712Y620661D01*
X888960Y617854D01*
Y614947D01*
X889712Y612139D01*
X891166Y609621D01*
X893221Y607566D01*
X895739Y606112D01*
X898547Y605360D01*
X901453D01*
X904261Y606112D01*
X906779Y607566D01*
X908834Y609621D01*
X910288Y612139D01*
X911040Y614947D01*
Y617854D01*
X910288Y620661D01*
X908834Y623179D01*
X906779Y625234D01*
X904261Y626688D01*
X901453Y627440D01*
D02*
G37*
G36*
X876053D02*
X873147D01*
X870339Y626688D01*
X867821Y625234D01*
X865766Y623179D01*
X864312Y620661D01*
X863560Y617854D01*
Y614947D01*
X864312Y612139D01*
X865766Y609621D01*
X867821Y607566D01*
X870339Y606112D01*
X873147Y605360D01*
X876053D01*
X878861Y606112D01*
X881379Y607566D01*
X883434Y609621D01*
X884888Y612139D01*
X885640Y614947D01*
Y617854D01*
X884888Y620661D01*
X883434Y623179D01*
X881379Y625234D01*
X878861Y626688D01*
X876053Y627440D01*
D02*
G37*
G36*
X850653D02*
X847747D01*
X844939Y626688D01*
X842421Y625234D01*
X840366Y623179D01*
X838912Y620661D01*
X838160Y617854D01*
Y614947D01*
X838912Y612139D01*
X840366Y609621D01*
X842421Y607566D01*
X844939Y606112D01*
X847747Y605360D01*
X850653D01*
X853461Y606112D01*
X855979Y607566D01*
X858034Y609621D01*
X859488Y612139D01*
X860240Y614947D01*
Y617854D01*
X859488Y620661D01*
X858034Y623179D01*
X855979Y625234D01*
X853461Y626688D01*
X850653Y627440D01*
D02*
G37*
G36*
X825253D02*
X822347D01*
X819539Y626688D01*
X817021Y625234D01*
X814966Y623179D01*
X813512Y620661D01*
X812760Y617854D01*
Y614947D01*
X813512Y612139D01*
X814966Y609621D01*
X817021Y607566D01*
X819539Y606112D01*
X822347Y605360D01*
X825253D01*
X828061Y606112D01*
X830579Y607566D01*
X832634Y609621D01*
X834088Y612139D01*
X834840Y614947D01*
Y617854D01*
X834088Y620661D01*
X832634Y623179D01*
X830579Y625234D01*
X828061Y626688D01*
X825253Y627440D01*
D02*
G37*
G36*
X799853D02*
X796947D01*
X794139Y626688D01*
X791621Y625234D01*
X789566Y623179D01*
X788112Y620661D01*
X787360Y617854D01*
Y614947D01*
X788112Y612139D01*
X789566Y609621D01*
X791621Y607566D01*
X794139Y606112D01*
X796947Y605360D01*
X799853D01*
X802661Y606112D01*
X805179Y607566D01*
X807234Y609621D01*
X808688Y612139D01*
X809440Y614947D01*
Y617854D01*
X808688Y620661D01*
X807234Y623179D01*
X805179Y625234D01*
X802661Y626688D01*
X799853Y627440D01*
D02*
G37*
G36*
X774453D02*
X771547D01*
X768739Y626688D01*
X766221Y625234D01*
X764166Y623179D01*
X762712Y620661D01*
X761960Y617854D01*
Y614947D01*
X762712Y612139D01*
X764166Y609621D01*
X766221Y607566D01*
X768739Y606112D01*
X771547Y605360D01*
X774453D01*
X777261Y606112D01*
X779779Y607566D01*
X781834Y609621D01*
X783288Y612139D01*
X784040Y614947D01*
Y617854D01*
X783288Y620661D01*
X781834Y623179D01*
X779779Y625234D01*
X777261Y626688D01*
X774453Y627440D01*
D02*
G37*
G36*
X1152089Y626540D02*
X1151270D01*
Y601270D01*
X1176540D01*
Y602089D01*
X1175887Y606215D01*
X1174596Y610188D01*
X1172699Y613910D01*
X1170244Y617290D01*
X1167290Y620244D01*
X1163910Y622699D01*
X1160188Y624596D01*
X1156215Y625886D01*
X1152089Y626540D01*
D02*
G37*
G36*
X1148730D02*
X1147911D01*
X1143785Y625886D01*
X1139812Y624596D01*
X1136090Y622699D01*
X1132710Y620244D01*
X1129756Y617290D01*
X1127301Y613910D01*
X1125404Y610188D01*
X1124113Y606215D01*
X1123460Y602089D01*
Y601270D01*
X1148730D01*
Y626540D01*
D02*
G37*
G36*
X52089D02*
X51270D01*
Y601270D01*
X76540D01*
Y602089D01*
X75887Y606215D01*
X74596Y610188D01*
X72699Y613910D01*
X70244Y617290D01*
X67290Y620244D01*
X63910Y622699D01*
X60188Y624596D01*
X56215Y625886D01*
X52089Y626540D01*
D02*
G37*
G36*
X48730D02*
X47911D01*
X43785Y625886D01*
X39812Y624596D01*
X36090Y622699D01*
X32710Y620244D01*
X29756Y617290D01*
X27301Y613910D01*
X25404Y610188D01*
X24114Y606215D01*
X23460Y602089D01*
Y601270D01*
X48730D01*
Y626540D01*
D02*
G37*
G36*
X1053853Y602040D02*
X1053670D01*
Y592270D01*
X1063440D01*
Y592453D01*
X1062688Y595261D01*
X1061234Y597779D01*
X1059179Y599834D01*
X1056661Y601288D01*
X1053853Y602040D01*
D02*
G37*
G36*
X1051130D02*
X1050947D01*
X1048139Y601288D01*
X1045621Y599834D01*
X1043566Y597779D01*
X1042112Y595261D01*
X1041360Y592453D01*
Y592270D01*
X1051130D01*
Y602040D01*
D02*
G37*
G36*
X372322Y606240D02*
X369678D01*
X367125Y605556D01*
X364835Y604234D01*
X362966Y602365D01*
X361644Y600075D01*
X360960Y597522D01*
Y594878D01*
X361644Y592325D01*
X362966Y590035D01*
X364835Y588166D01*
X367125Y586844D01*
X369678Y586160D01*
X372322D01*
X374875Y586844D01*
X377165Y588166D01*
X379034Y590035D01*
X380356Y592325D01*
X381040Y594878D01*
Y597522D01*
X380356Y600075D01*
X379034Y602365D01*
X377165Y604234D01*
X374875Y605556D01*
X372322Y606240D01*
D02*
G37*
G36*
X1063440Y589730D02*
X1053670D01*
Y579960D01*
X1053853D01*
X1056661Y580712D01*
X1059179Y582166D01*
X1061234Y584221D01*
X1062688Y586739D01*
X1063440Y589547D01*
Y589730D01*
D02*
G37*
G36*
X1051130D02*
X1041360D01*
Y589547D01*
X1042112Y586739D01*
X1043566Y584221D01*
X1045621Y582166D01*
X1048139Y580712D01*
X1050947Y579960D01*
X1051130D01*
Y589730D01*
D02*
G37*
G36*
X1028453Y602040D02*
X1025547D01*
X1022739Y601288D01*
X1020221Y599834D01*
X1018166Y597779D01*
X1016712Y595261D01*
X1015960Y592453D01*
Y589547D01*
X1016712Y586739D01*
X1018166Y584221D01*
X1020221Y582166D01*
X1022739Y580712D01*
X1025547Y579960D01*
X1028453D01*
X1031261Y580712D01*
X1033779Y582166D01*
X1035834Y584221D01*
X1037288Y586739D01*
X1038040Y589547D01*
Y592453D01*
X1037288Y595261D01*
X1035834Y597779D01*
X1033779Y599834D01*
X1031261Y601288D01*
X1028453Y602040D01*
D02*
G37*
G36*
X1003053D02*
X1000147D01*
X997339Y601288D01*
X994821Y599834D01*
X992766Y597779D01*
X991312Y595261D01*
X990560Y592453D01*
Y589547D01*
X991312Y586739D01*
X992766Y584221D01*
X994821Y582166D01*
X997339Y580712D01*
X1000147Y579960D01*
X1003053D01*
X1005861Y580712D01*
X1008379Y582166D01*
X1010434Y584221D01*
X1011888Y586739D01*
X1012640Y589547D01*
Y592453D01*
X1011888Y595261D01*
X1010434Y597779D01*
X1008379Y599834D01*
X1005861Y601288D01*
X1003053Y602040D01*
D02*
G37*
G36*
X977653D02*
X974747D01*
X971939Y601288D01*
X969421Y599834D01*
X967366Y597779D01*
X965912Y595261D01*
X965160Y592453D01*
Y589547D01*
X965912Y586739D01*
X967366Y584221D01*
X969421Y582166D01*
X971939Y580712D01*
X974747Y579960D01*
X977653D01*
X980461Y580712D01*
X982979Y582166D01*
X985034Y584221D01*
X986488Y586739D01*
X987240Y589547D01*
Y592453D01*
X986488Y595261D01*
X985034Y597779D01*
X982979Y599834D01*
X980461Y601288D01*
X977653Y602040D01*
D02*
G37*
G36*
X952253D02*
X949347D01*
X946539Y601288D01*
X944021Y599834D01*
X941966Y597779D01*
X940512Y595261D01*
X939760Y592453D01*
Y589547D01*
X940512Y586739D01*
X941966Y584221D01*
X944021Y582166D01*
X946539Y580712D01*
X949347Y579960D01*
X952253D01*
X955061Y580712D01*
X957579Y582166D01*
X959634Y584221D01*
X961088Y586739D01*
X961840Y589547D01*
Y592453D01*
X961088Y595261D01*
X959634Y597779D01*
X957579Y599834D01*
X955061Y601288D01*
X952253Y602040D01*
D02*
G37*
G36*
X926853D02*
X923947D01*
X921139Y601288D01*
X918621Y599834D01*
X916566Y597779D01*
X915112Y595261D01*
X914360Y592453D01*
Y589547D01*
X915112Y586739D01*
X916566Y584221D01*
X918621Y582166D01*
X921139Y580712D01*
X923947Y579960D01*
X926853D01*
X929661Y580712D01*
X932179Y582166D01*
X934234Y584221D01*
X935688Y586739D01*
X936440Y589547D01*
Y592453D01*
X935688Y595261D01*
X934234Y597779D01*
X932179Y599834D01*
X929661Y601288D01*
X926853Y602040D01*
D02*
G37*
G36*
X901453D02*
X898547D01*
X895739Y601288D01*
X893221Y599834D01*
X891166Y597779D01*
X889712Y595261D01*
X888960Y592453D01*
Y589547D01*
X889712Y586739D01*
X891166Y584221D01*
X893221Y582166D01*
X895739Y580712D01*
X898547Y579960D01*
X901453D01*
X904261Y580712D01*
X906779Y582166D01*
X908834Y584221D01*
X910288Y586739D01*
X911040Y589547D01*
Y592453D01*
X910288Y595261D01*
X908834Y597779D01*
X906779Y599834D01*
X904261Y601288D01*
X901453Y602040D01*
D02*
G37*
G36*
X876053D02*
X873147D01*
X870339Y601288D01*
X867821Y599834D01*
X865766Y597779D01*
X864312Y595261D01*
X863560Y592453D01*
Y589547D01*
X864312Y586739D01*
X865766Y584221D01*
X867821Y582166D01*
X870339Y580712D01*
X873147Y579960D01*
X876053D01*
X878861Y580712D01*
X881379Y582166D01*
X883434Y584221D01*
X884888Y586739D01*
X885640Y589547D01*
Y592453D01*
X884888Y595261D01*
X883434Y597779D01*
X881379Y599834D01*
X878861Y601288D01*
X876053Y602040D01*
D02*
G37*
G36*
X850653D02*
X847747D01*
X844939Y601288D01*
X842421Y599834D01*
X840366Y597779D01*
X838912Y595261D01*
X838160Y592453D01*
Y589547D01*
X838912Y586739D01*
X840366Y584221D01*
X842421Y582166D01*
X844939Y580712D01*
X847747Y579960D01*
X850653D01*
X853461Y580712D01*
X855979Y582166D01*
X858034Y584221D01*
X859488Y586739D01*
X860240Y589547D01*
Y592453D01*
X859488Y595261D01*
X858034Y597779D01*
X855979Y599834D01*
X853461Y601288D01*
X850653Y602040D01*
D02*
G37*
G36*
X825253D02*
X822347D01*
X819539Y601288D01*
X817021Y599834D01*
X814966Y597779D01*
X813512Y595261D01*
X812760Y592453D01*
Y589547D01*
X813512Y586739D01*
X814966Y584221D01*
X817021Y582166D01*
X819539Y580712D01*
X822347Y579960D01*
X825253D01*
X828061Y580712D01*
X830579Y582166D01*
X832634Y584221D01*
X834088Y586739D01*
X834840Y589547D01*
Y592453D01*
X834088Y595261D01*
X832634Y597779D01*
X830579Y599834D01*
X828061Y601288D01*
X825253Y602040D01*
D02*
G37*
G36*
X799853D02*
X796947D01*
X794139Y601288D01*
X791621Y599834D01*
X789566Y597779D01*
X788112Y595261D01*
X787360Y592453D01*
Y589547D01*
X788112Y586739D01*
X789566Y584221D01*
X791621Y582166D01*
X794139Y580712D01*
X796947Y579960D01*
X799853D01*
X802661Y580712D01*
X805179Y582166D01*
X807234Y584221D01*
X808688Y586739D01*
X809440Y589547D01*
Y592453D01*
X808688Y595261D01*
X807234Y597779D01*
X805179Y599834D01*
X802661Y601288D01*
X799853Y602040D01*
D02*
G37*
G36*
X784040D02*
X761960D01*
Y579960D01*
X784040D01*
Y602040D01*
D02*
G37*
G36*
X531322Y583240D02*
X531270D01*
Y574470D01*
X540040D01*
Y574522D01*
X539356Y577075D01*
X538034Y579365D01*
X536165Y581234D01*
X533875Y582556D01*
X531322Y583240D01*
D02*
G37*
G36*
X1176540Y598730D02*
X1151270D01*
Y573460D01*
X1152089D01*
X1156215Y574114D01*
X1160188Y575404D01*
X1163910Y577301D01*
X1167290Y579756D01*
X1170244Y582710D01*
X1172699Y586090D01*
X1174596Y589812D01*
X1175887Y593785D01*
X1176540Y597911D01*
Y598730D01*
D02*
G37*
G36*
X1148730D02*
X1123460D01*
Y597911D01*
X1124113Y593785D01*
X1125404Y589812D01*
X1127301Y586090D01*
X1129756Y582710D01*
X1132710Y579756D01*
X1136090Y577301D01*
X1139812Y575404D01*
X1143785Y574114D01*
X1147911Y573460D01*
X1148730D01*
Y598730D01*
D02*
G37*
G36*
X76540D02*
X51270D01*
Y573460D01*
X52089D01*
X56215Y574114D01*
X60188Y575404D01*
X63910Y577301D01*
X67290Y579756D01*
X70244Y582710D01*
X72699Y586090D01*
X74596Y589812D01*
X75887Y593785D01*
X76540Y597911D01*
Y598730D01*
D02*
G37*
G36*
X48730D02*
X23460D01*
Y597911D01*
X24114Y593785D01*
X25404Y589812D01*
X27301Y586090D01*
X29756Y582710D01*
X32710Y579756D01*
X36090Y577301D01*
X39812Y575404D01*
X43785Y574114D01*
X47911Y573460D01*
X48730D01*
Y598730D01*
D02*
G37*
G36*
X691809Y580002D02*
Y572409D01*
X699402D01*
X698823Y574570D01*
X697653Y576598D01*
X695998Y578253D01*
X693970Y579423D01*
X691809Y580002D01*
D02*
G37*
G36*
X689269D02*
X687108Y579423D01*
X685080Y578253D01*
X683425Y576598D01*
X682255Y574570D01*
X681676Y572409D01*
X689269D01*
Y580002D01*
D02*
G37*
G36*
X372322Y580840D02*
X372270D01*
Y572070D01*
X381040D01*
Y572122D01*
X380356Y574675D01*
X379034Y576965D01*
X377165Y578834D01*
X374875Y580156D01*
X372322Y580840D01*
D02*
G37*
G36*
X369730D02*
X369678D01*
X367125Y580156D01*
X364835Y578834D01*
X362966Y576965D01*
X361644Y574675D01*
X360960Y572122D01*
Y572070D01*
X369730D01*
Y580840D01*
D02*
G37*
G36*
X607522Y583240D02*
X604878D01*
X602325Y582556D01*
X600035Y581234D01*
X598166Y579365D01*
X596844Y577075D01*
X596160Y574522D01*
Y571878D01*
X596844Y569325D01*
X598166Y567035D01*
X600035Y565166D01*
X602325Y563844D01*
X604878Y563160D01*
X607522D01*
X610075Y563844D01*
X612365Y565166D01*
X614234Y567035D01*
X615556Y569325D01*
X616240Y571878D01*
Y574522D01*
X615556Y577075D01*
X614234Y579365D01*
X612365Y581234D01*
X610075Y582556D01*
X607522Y583240D01*
D02*
G37*
G36*
X540040Y571930D02*
X531270D01*
Y563160D01*
X531322D01*
X533875Y563844D01*
X536165Y565166D01*
X538034Y567035D01*
X539356Y569325D01*
X540040Y571878D01*
Y571930D01*
D02*
G37*
G36*
X699402Y569869D02*
X691809D01*
Y562276D01*
X693970Y562855D01*
X695998Y564025D01*
X697653Y565680D01*
X698823Y567708D01*
X699402Y569869D01*
D02*
G37*
G36*
X689269D02*
X681676D01*
X682255Y567708D01*
X683425Y565680D01*
X685080Y564025D01*
X687108Y562855D01*
X689269Y562276D01*
Y569869D01*
D02*
G37*
G36*
X381040Y569530D02*
X372270D01*
Y560760D01*
X372322D01*
X374875Y561444D01*
X377165Y562766D01*
X379034Y564635D01*
X380356Y566925D01*
X381040Y569478D01*
Y569530D01*
D02*
G37*
G36*
X369730D02*
X360960D01*
Y569478D01*
X361644Y566925D01*
X362966Y564635D01*
X364835Y562766D01*
X367125Y561444D01*
X369678Y560760D01*
X369730D01*
Y569530D01*
D02*
G37*
G36*
X951970Y563090D02*
X949630D01*
X947369Y562484D01*
X945341Y561314D01*
X943686Y559659D01*
X942516Y557631D01*
X941910Y555370D01*
Y553030D01*
X942516Y550769D01*
X943686Y548741D01*
X945341Y547086D01*
X947369Y545916D01*
X949630Y545310D01*
X951970D01*
X954231Y545916D01*
X956259Y547086D01*
X957914Y548741D01*
X959084Y550769D01*
X959690Y553030D01*
Y555370D01*
X959084Y557631D01*
X957914Y559659D01*
X956259Y561314D01*
X954231Y562484D01*
X951970Y563090D01*
D02*
G37*
G36*
X1096270Y544863D02*
Y537270D01*
X1103863D01*
X1103284Y539431D01*
X1102114Y541459D01*
X1100459Y543114D01*
X1098431Y544284D01*
X1096270Y544863D01*
D02*
G37*
G36*
X1093730D02*
X1091569Y544284D01*
X1089541Y543114D01*
X1087886Y541459D01*
X1086716Y539431D01*
X1086137Y537270D01*
X1093730D01*
Y544863D01*
D02*
G37*
G36*
X1103863Y534730D02*
X1096270D01*
Y527137D01*
X1098431Y527716D01*
X1100459Y528886D01*
X1102114Y530541D01*
X1103284Y532569D01*
X1103863Y534730D01*
D02*
G37*
G36*
X1093730D02*
X1086137D01*
X1086716Y532569D01*
X1087886Y530541D01*
X1089541Y528886D01*
X1091569Y527716D01*
X1093730Y527137D01*
Y534730D01*
D02*
G37*
G36*
X51338Y545560D02*
X48662D01*
X46078Y544868D01*
X43762Y543530D01*
X41870Y541638D01*
X40532Y539322D01*
X39840Y536738D01*
Y534062D01*
X40532Y531478D01*
X41870Y529162D01*
X43762Y527270D01*
X46078Y525932D01*
X48662Y525240D01*
X51338D01*
X53922Y525932D01*
X56238Y527270D01*
X56530Y527561D01*
X106875D01*
X106886Y527541D01*
X108541Y525886D01*
X110569Y524716D01*
X112830Y524110D01*
X115170D01*
X117431Y524716D01*
X119459Y525886D01*
X121114Y527541D01*
X122284Y529569D01*
X122890Y531830D01*
Y534170D01*
X122284Y536431D01*
X121114Y538459D01*
X119459Y540114D01*
X117431Y541284D01*
X115170Y541890D01*
X112830D01*
X110569Y541284D01*
X108541Y540114D01*
X106886Y538459D01*
X106528Y537839D01*
X59865D01*
X59468Y539322D01*
X58130Y541638D01*
X56238Y543530D01*
X53922Y544868D01*
X51338Y545560D01*
D02*
G37*
G36*
Y520160D02*
X48662D01*
X46078Y519468D01*
X43762Y518130D01*
X41870Y516238D01*
X40532Y513922D01*
X39840Y511338D01*
Y508662D01*
X40532Y506078D01*
X41870Y503762D01*
X43762Y501870D01*
X46078Y500532D01*
X48662Y499840D01*
X51338D01*
X53922Y500532D01*
X56238Y501870D01*
X58130Y503762D01*
X59468Y506078D01*
X60160Y508662D01*
Y511338D01*
X59468Y513922D01*
X58130Y516238D01*
X56238Y518130D01*
X53922Y519468D01*
X51338Y520160D01*
D02*
G37*
G36*
X278270Y442863D02*
Y435270D01*
X285863D01*
X285284Y437431D01*
X284114Y439459D01*
X282459Y441114D01*
X280431Y442284D01*
X278270Y442863D01*
D02*
G37*
G36*
X275730D02*
X273569Y442284D01*
X271541Y441114D01*
X269886Y439459D01*
X268716Y437431D01*
X268137Y435270D01*
X275730D01*
Y442863D01*
D02*
G37*
G36*
X550270Y434863D02*
Y427270D01*
X557863D01*
X557284Y429431D01*
X556114Y431459D01*
X554459Y433114D01*
X552431Y434284D01*
X550270Y434863D01*
D02*
G37*
G36*
X547730D02*
X545569Y434284D01*
X543541Y433114D01*
X541886Y431459D01*
X540716Y429431D01*
X540137Y427270D01*
X547730D01*
Y434863D01*
D02*
G37*
G36*
X285863Y432730D02*
X278270D01*
Y425137D01*
X280431Y425716D01*
X282459Y426886D01*
X284114Y428541D01*
X285284Y430569D01*
X285863Y432730D01*
D02*
G37*
G36*
X275730D02*
X268137D01*
X268716Y430569D01*
X269886Y428541D01*
X271541Y426886D01*
X273569Y425716D01*
X275730Y425137D01*
Y432730D01*
D02*
G37*
G36*
X557863Y424730D02*
X550270D01*
Y417137D01*
X552431Y417716D01*
X554459Y418886D01*
X556114Y420541D01*
X557284Y422569D01*
X557863Y424730D01*
D02*
G37*
G36*
X547730D02*
X540137D01*
X540716Y422569D01*
X541886Y420541D01*
X543541Y418886D01*
X545569Y417716D01*
X547730Y417137D01*
Y424730D01*
D02*
G37*
G36*
X433270Y371863D02*
Y364270D01*
X440863D01*
X440284Y366431D01*
X439114Y368459D01*
X437459Y370114D01*
X435431Y371284D01*
X433270Y371863D01*
D02*
G37*
G36*
X430730D02*
X428569Y371284D01*
X426541Y370114D01*
X424886Y368459D01*
X423716Y366431D01*
X423137Y364270D01*
X430730D01*
Y371863D01*
D02*
G37*
G36*
X440863Y361730D02*
X433270D01*
Y354137D01*
X435431Y354716D01*
X437459Y355886D01*
X439114Y357541D01*
X440284Y359569D01*
X440863Y361730D01*
D02*
G37*
G36*
X430730D02*
X423137D01*
X423716Y359569D01*
X424886Y357541D01*
X426541Y355886D01*
X428569Y354716D01*
X430730Y354137D01*
Y361730D01*
D02*
G37*
G36*
X224170Y342890D02*
X221830D01*
X219569Y342284D01*
X217541Y341114D01*
X215886Y339459D01*
X214716Y337431D01*
X214110Y335170D01*
Y332830D01*
X214716Y330569D01*
X215886Y328541D01*
X217541Y326886D01*
X219569Y325716D01*
X221830Y325110D01*
X224170D01*
X224527Y325206D01*
X253025Y296708D01*
X252367Y295569D01*
X251170Y295890D01*
X248830D01*
X246569Y295284D01*
X244541Y294114D01*
X242886Y292459D01*
X241716Y290431D01*
X241110Y288170D01*
Y285830D01*
X241716Y283569D01*
X242886Y281541D01*
X244541Y279886D01*
X246569Y278716D01*
X247181Y278552D01*
X253381Y272352D01*
Y170637D01*
X253301Y170590D01*
X251409Y168699D01*
X250072Y166382D01*
X249380Y163798D01*
Y161123D01*
X250072Y158539D01*
X251409Y156222D01*
X253301Y154331D01*
X255618Y152993D01*
X258202Y152301D01*
X260877D01*
X263461Y152993D01*
X265778Y154331D01*
X267670Y156222D01*
X269007Y158539D01*
X269699Y161123D01*
Y163798D01*
X269007Y166382D01*
X267670Y168699D01*
X265778Y170590D01*
X263659Y171814D01*
Y274480D01*
X263267Y276447D01*
X262153Y278114D01*
X257704Y282563D01*
X258284Y283569D01*
X258890Y285830D01*
Y288170D01*
X258569Y289367D01*
X259708Y290025D01*
X271341Y278391D01*
Y152676D01*
X271262Y152630D01*
X269370Y150738D01*
X268032Y148422D01*
X267340Y145838D01*
Y143162D01*
X268032Y140578D01*
X269370Y138262D01*
X271262Y136370D01*
X273578Y135032D01*
X276162Y134340D01*
X278838D01*
X281422Y135032D01*
X283738Y136370D01*
X285630Y138262D01*
X286854Y140381D01*
X515047D01*
X516541Y138886D01*
X518569Y137716D01*
X520830Y137110D01*
X523170D01*
X525431Y137716D01*
X527459Y138886D01*
X529114Y140541D01*
X530284Y142569D01*
X530890Y144830D01*
Y147170D01*
X530284Y149431D01*
X529114Y151459D01*
X527459Y153114D01*
X525431Y154284D01*
X523170Y154890D01*
X520830D01*
X518569Y154284D01*
X516541Y153114D01*
X514886Y151459D01*
X514424Y150659D01*
X285676D01*
X285630Y150738D01*
X283738Y152630D01*
X281619Y153854D01*
Y280520D01*
X281228Y282486D01*
X280114Y284153D01*
X231794Y332473D01*
X231890Y332830D01*
Y335170D01*
X231284Y337431D01*
X230114Y339459D01*
X228459Y341114D01*
X226431Y342284D01*
X224170Y342890D01*
D02*
G37*
G36*
X1093270Y302863D02*
Y295270D01*
X1100863D01*
X1100284Y297431D01*
X1099114Y299459D01*
X1097459Y301114D01*
X1095431Y302284D01*
X1093270Y302863D01*
D02*
G37*
G36*
X1090730D02*
X1088569Y302284D01*
X1086541Y301114D01*
X1084886Y299459D01*
X1083716Y297431D01*
X1083137Y295270D01*
X1090730D01*
Y302863D01*
D02*
G37*
G36*
X750270Y295863D02*
Y288270D01*
X757863D01*
X757284Y290431D01*
X756114Y292459D01*
X754459Y294114D01*
X752431Y295284D01*
X750270Y295863D01*
D02*
G37*
G36*
X747730D02*
X745569Y295284D01*
X743541Y294114D01*
X741886Y292459D01*
X740716Y290431D01*
X740137Y288270D01*
X747730D01*
Y295863D01*
D02*
G37*
G36*
X1100863Y292730D02*
X1093270D01*
Y285137D01*
X1095431Y285716D01*
X1097459Y286886D01*
X1099114Y288541D01*
X1100284Y290569D01*
X1100863Y292730D01*
D02*
G37*
G36*
X1090730D02*
X1083137D01*
X1083716Y290569D01*
X1084886Y288541D01*
X1086541Y286886D01*
X1088569Y285716D01*
X1090730Y285137D01*
Y292730D01*
D02*
G37*
G36*
X60795Y678095D02*
X39205D01*
Y656505D01*
X50040D01*
X155875Y550670D01*
Y282674D01*
X154605Y282334D01*
X154158Y283109D01*
X152148Y285118D01*
X149686Y286540D01*
X146941Y287275D01*
X144099D01*
X141353Y286540D01*
X138891Y285118D01*
X136882Y283109D01*
X135460Y280647D01*
X134725Y277901D01*
Y275059D01*
X135460Y272313D01*
X136882Y269852D01*
X138891Y267842D01*
X141353Y266421D01*
X144099Y265685D01*
X146941D01*
X149686Y266421D01*
X152148Y267842D01*
X154158Y269852D01*
X154605Y270627D01*
X155875Y270286D01*
Y266181D01*
X148214Y258520D01*
X163480Y243253D01*
X178747Y258520D01*
X171085Y266181D01*
Y553820D01*
X170826Y555788D01*
X170066Y557622D01*
X168858Y559197D01*
X60795Y667260D01*
Y678095D01*
D02*
G37*
G36*
X757863Y285730D02*
X750270D01*
Y278137D01*
X752431Y278716D01*
X754459Y279886D01*
X756114Y281541D01*
X757284Y283569D01*
X757863Y285730D01*
D02*
G37*
G36*
X747730D02*
X740137D01*
X740716Y283569D01*
X741886Y281541D01*
X743541Y279886D01*
X745569Y278716D01*
X747730Y278137D01*
Y285730D01*
D02*
G37*
G36*
X1056838Y287660D02*
X1054162D01*
X1051578Y286968D01*
X1049262Y285630D01*
X1047370Y283738D01*
X1046146Y281619D01*
X919480D01*
X917514Y281228D01*
X915847Y280114D01*
X867527Y231794D01*
X867170Y231890D01*
X864830D01*
X862569Y231284D01*
X860541Y230114D01*
X858886Y228459D01*
X857716Y226431D01*
X857110Y224170D01*
Y221830D01*
X857716Y219569D01*
X858886Y217541D01*
X860541Y215886D01*
X862569Y214716D01*
X864830Y214110D01*
X867170D01*
X869431Y214716D01*
X871459Y215886D01*
X873114Y217541D01*
X874284Y219569D01*
X874890Y221830D01*
Y224170D01*
X874794Y224527D01*
X921609Y271341D01*
X1047324D01*
X1047370Y271262D01*
X1049262Y269370D01*
X1051578Y268032D01*
X1054162Y267340D01*
X1056838D01*
X1059422Y268032D01*
X1061738Y269370D01*
X1063630Y271262D01*
X1064968Y273578D01*
X1065660Y276162D01*
Y278838D01*
X1064968Y281422D01*
X1063630Y283738D01*
X1061738Y285630D01*
X1059422Y286968D01*
X1056838Y287660D01*
D02*
G37*
G36*
X1038877Y269699D02*
X1036202D01*
X1033618Y269007D01*
X1031301Y267670D01*
X1029409Y265778D01*
X1028186Y263659D01*
X947520D01*
X945553Y263267D01*
X943886Y262153D01*
X889872Y208139D01*
X833129D01*
X824794Y216473D01*
X824890Y216830D01*
Y219170D01*
X824284Y221431D01*
X823114Y223459D01*
X821459Y225114D01*
X819431Y226284D01*
X817170Y226890D01*
X814830D01*
X812569Y226284D01*
X810541Y225114D01*
X808886Y223459D01*
X807716Y221431D01*
X807110Y219170D01*
Y216830D01*
X807716Y214569D01*
X808886Y212541D01*
X810541Y210886D01*
X812569Y209716D01*
X814830Y209110D01*
X817170D01*
X817527Y209206D01*
X827366Y199366D01*
X829034Y198252D01*
X831000Y197861D01*
X892000D01*
X893967Y198252D01*
X895634Y199366D01*
X949648Y253381D01*
X1029363D01*
X1029409Y253301D01*
X1031301Y251409D01*
X1033618Y250072D01*
X1036202Y249380D01*
X1038877D01*
X1041461Y250072D01*
X1043778Y251409D01*
X1045669Y253301D01*
X1047007Y255618D01*
X1047700Y258202D01*
Y260877D01*
X1047007Y263461D01*
X1045669Y265778D01*
X1043778Y267670D01*
X1041461Y269007D01*
X1038877Y269699D01*
D02*
G37*
G36*
X991089Y237540D02*
X990270D01*
Y212270D01*
X1015540D01*
Y213089D01*
X1014886Y217215D01*
X1013596Y221188D01*
X1011699Y224910D01*
X1009244Y228290D01*
X1006290Y231244D01*
X1002910Y233699D01*
X999188Y235596D01*
X995215Y236887D01*
X991089Y237540D01*
D02*
G37*
G36*
X987730D02*
X986911D01*
X982785Y236887D01*
X978812Y235596D01*
X975090Y233699D01*
X971710Y231244D01*
X968756Y228290D01*
X966301Y224910D01*
X964404Y221188D01*
X963113Y217215D01*
X962460Y213089D01*
Y212270D01*
X987730D01*
Y237540D01*
D02*
G37*
G36*
X442270Y219863D02*
Y212270D01*
X449863D01*
X449284Y214431D01*
X448114Y216459D01*
X446459Y218114D01*
X444431Y219284D01*
X442270Y219863D01*
D02*
G37*
G36*
X439730D02*
X437569Y219284D01*
X435541Y218114D01*
X433886Y216459D01*
X432716Y214431D01*
X432137Y212270D01*
X439730D01*
Y219863D01*
D02*
G37*
G36*
X213089Y237540D02*
X212270D01*
Y212270D01*
X237540D01*
Y213089D01*
X236887Y217215D01*
X235596Y221188D01*
X233699Y224910D01*
X231244Y228290D01*
X228290Y231244D01*
X224910Y233699D01*
X221188Y235596D01*
X217215Y236887D01*
X213089Y237540D01*
D02*
G37*
G36*
X209730D02*
X208911D01*
X204785Y236887D01*
X200812Y235596D01*
X197090Y233699D01*
X193710Y231244D01*
X190756Y228290D01*
X188301Y224910D01*
X186404Y221188D01*
X185114Y217215D01*
X184460Y213089D01*
Y212270D01*
X209730D01*
Y237540D01*
D02*
G37*
G36*
X449863Y209730D02*
X442270D01*
Y202137D01*
X444431Y202716D01*
X446459Y203886D01*
X448114Y205541D01*
X449284Y207569D01*
X449863Y209730D01*
D02*
G37*
G36*
X439730D02*
X432137D01*
X432716Y207569D01*
X433886Y205541D01*
X435541Y203886D01*
X437569Y202716D01*
X439730Y202137D01*
Y209730D01*
D02*
G37*
G36*
X1015540D02*
X990270D01*
Y184460D01*
X991089D01*
X995215Y185114D01*
X999188Y186404D01*
X1002910Y188301D01*
X1006290Y190756D01*
X1009244Y193710D01*
X1011699Y197090D01*
X1013596Y200812D01*
X1014886Y204785D01*
X1015540Y208911D01*
Y209730D01*
D02*
G37*
G36*
X987730D02*
X962460D01*
Y208911D01*
X963113Y204785D01*
X964404Y200812D01*
X966301Y197090D01*
X968756Y193710D01*
X971710Y190756D01*
X975090Y188301D01*
X978812Y186404D01*
X982785Y185114D01*
X986911Y184460D01*
X987730D01*
Y209730D01*
D02*
G37*
G36*
X237540D02*
X212270D01*
Y184460D01*
X213089D01*
X217215Y185114D01*
X221188Y186404D01*
X224910Y188301D01*
X228290Y190756D01*
X231244Y193710D01*
X233699Y197090D01*
X235596Y200812D01*
X236887Y204785D01*
X237540Y208911D01*
Y209730D01*
D02*
G37*
G36*
X209730D02*
X184460D01*
Y208911D01*
X185114Y204785D01*
X186404Y200812D01*
X188301Y197090D01*
X190756Y193710D01*
X193710Y190756D01*
X197090Y188301D01*
X200812Y186404D01*
X204785Y185114D01*
X208911Y184460D01*
X209730D01*
Y209730D01*
D02*
G37*
G36*
X941480Y178747D02*
X933819Y171085D01*
X646180D01*
X644212Y170826D01*
X642378Y170066D01*
X640803Y168858D01*
X532740Y60795D01*
X521905D01*
Y39205D01*
X543495D01*
Y50040D01*
X649330Y155875D01*
X917326D01*
X917666Y154605D01*
X916891Y154158D01*
X914882Y152148D01*
X913460Y149686D01*
X912725Y146941D01*
Y144099D01*
X913460Y141353D01*
X914882Y138891D01*
X916891Y136882D01*
X919353Y135460D01*
X922099Y134725D01*
X924941D01*
X927686Y135460D01*
X930148Y136882D01*
X932158Y138891D01*
X933579Y141353D01*
X934315Y144099D01*
Y146941D01*
X933579Y149686D01*
X932158Y152148D01*
X930148Y154158D01*
X929373Y154605D01*
X929714Y155875D01*
X933819D01*
X941480Y148214D01*
X956747Y163480D01*
X941480Y178747D01*
D02*
G37*
G36*
X712270Y138863D02*
Y131270D01*
X719863D01*
X719284Y133431D01*
X718114Y135459D01*
X716459Y137114D01*
X714431Y138284D01*
X712270Y138863D01*
D02*
G37*
G36*
X709730D02*
X707569Y138284D01*
X705541Y137114D01*
X703886Y135459D01*
X702716Y133431D01*
X702137Y131270D01*
X709730D01*
Y138863D01*
D02*
G37*
G36*
X719863Y128730D02*
X712270D01*
Y121137D01*
X714431Y121716D01*
X716459Y122886D01*
X718114Y124541D01*
X719284Y126569D01*
X719863Y128730D01*
D02*
G37*
G36*
X709730D02*
X702137D01*
X702716Y126569D01*
X703886Y124541D01*
X705541Y122886D01*
X707569Y121716D01*
X709730Y121137D01*
Y128730D01*
D02*
G37*
G36*
X814270Y118863D02*
Y111270D01*
X821863D01*
X821284Y113431D01*
X820114Y115459D01*
X818459Y117114D01*
X816431Y118284D01*
X814270Y118863D01*
D02*
G37*
G36*
X811730D02*
X809569Y118284D01*
X807541Y117114D01*
X805886Y115459D01*
X804716Y113431D01*
X804137Y111270D01*
X811730D01*
Y118863D01*
D02*
G37*
G36*
X821863Y108730D02*
X814270D01*
Y101137D01*
X816431Y101716D01*
X818459Y102886D01*
X820114Y104541D01*
X821284Y106569D01*
X821863Y108730D01*
D02*
G37*
G36*
X811730D02*
X804137D01*
X804716Y106569D01*
X805886Y104541D01*
X807541Y102886D01*
X809569Y101716D01*
X811730Y101137D01*
Y108730D01*
D02*
G37*
G36*
X602089Y76540D02*
X601270D01*
Y51270D01*
X626540D01*
Y52089D01*
X625886Y56215D01*
X624596Y60188D01*
X622699Y63910D01*
X620244Y67290D01*
X617290Y70244D01*
X613910Y72699D01*
X610188Y74596D01*
X606215Y75887D01*
X602089Y76540D01*
D02*
G37*
G36*
X598730D02*
X597911D01*
X593785Y75887D01*
X589812Y74596D01*
X586090Y72699D01*
X582710Y70244D01*
X579756Y67290D01*
X577301Y63910D01*
X575404Y60188D01*
X574114Y56215D01*
X573460Y52089D01*
Y51270D01*
X598730D01*
Y76540D01*
D02*
G37*
G36*
X691338Y60160D02*
X688662D01*
X686078Y59468D01*
X683762Y58130D01*
X681870Y56238D01*
X680532Y53922D01*
X679840Y51338D01*
Y48662D01*
X680532Y46078D01*
X681870Y43762D01*
X683762Y41870D01*
X686078Y40532D01*
X688662Y39840D01*
X691338D01*
X693922Y40532D01*
X696238Y41870D01*
X698130Y43762D01*
X699468Y46078D01*
X700160Y48662D01*
Y51338D01*
X699468Y53922D01*
X698130Y56238D01*
X696238Y58130D01*
X693922Y59468D01*
X691338Y60160D01*
D02*
G37*
G36*
X668170Y128890D02*
X665830D01*
X663569Y128284D01*
X661541Y127114D01*
X659886Y125459D01*
X658716Y123431D01*
X658110Y121170D01*
Y118830D01*
X658716Y116569D01*
X659886Y114541D01*
X661541Y112886D01*
X662161Y112528D01*
Y59865D01*
X660678Y59468D01*
X658362Y58130D01*
X656470Y56238D01*
X655132Y53922D01*
X654440Y51338D01*
Y48662D01*
X655132Y46078D01*
X656470Y43762D01*
X658362Y41870D01*
X660678Y40532D01*
X663262Y39840D01*
X665938D01*
X668522Y40532D01*
X670838Y41870D01*
X672730Y43762D01*
X674068Y46078D01*
X674760Y48662D01*
Y51338D01*
X674068Y53922D01*
X672730Y56238D01*
X672439Y56530D01*
Y112875D01*
X672459Y112886D01*
X674114Y114541D01*
X675284Y116569D01*
X675890Y118830D01*
Y121170D01*
X675284Y123431D01*
X674114Y125459D01*
X672459Y127114D01*
X670431Y128284D01*
X668170Y128890D01*
D02*
G37*
G36*
X626540Y48730D02*
X601270D01*
Y23460D01*
X602089D01*
X606215Y24114D01*
X610188Y25404D01*
X613910Y27301D01*
X617290Y29756D01*
X620244Y32710D01*
X622699Y36090D01*
X624596Y39812D01*
X625886Y43785D01*
X626540Y47911D01*
Y48730D01*
D02*
G37*
G36*
X598730D02*
X573460D01*
Y47911D01*
X574114Y43785D01*
X575404Y39812D01*
X577301Y36090D01*
X579756Y32710D01*
X582710Y29756D01*
X586090Y27301D01*
X589812Y25404D01*
X593785Y24114D01*
X597911Y23460D01*
X598730D01*
Y48730D01*
D02*
G37*
%LPD*%
G36*
X744635Y639745D02*
X744800Y638591D01*
X743366Y637634D01*
X722011Y616279D01*
X614337D01*
X613851Y617452D01*
X614234Y617835D01*
X615556Y620125D01*
X616240Y622678D01*
Y625322D01*
X615556Y627875D01*
X614234Y630165D01*
X613851Y630548D01*
X614337Y631721D01*
X679860D01*
X681826Y632112D01*
X683494Y633226D01*
X690128Y639861D01*
X744588D01*
X744635Y639745D01*
D02*
G37*
D10*
X1183186Y458955D02*
G03*
X1139604Y337651I-583186J141045D01*
G01*
X695000Y459000D02*
X1183000D01*
X695000Y338000D02*
Y459000D01*
Y338000D02*
X1140000D01*
D12*
X519600Y561100D02*
X616600D01*
X519600Y763100D02*
X616600D01*
Y561100D02*
Y763100D01*
X519600Y561100D02*
Y763100D01*
X1061000Y777050D02*
X1129000D01*
X1061000Y848950D02*
X1129000D01*
Y777050D02*
Y848950D01*
X1061000Y777050D02*
Y848950D01*
D17*
X530000Y624000D02*
X552000D01*
X565000Y637000D01*
X600866D01*
X601006Y636860D01*
X679860D01*
X688000Y645000D01*
X941000D01*
X950800Y635200D01*
Y616400D02*
Y635200D01*
X567000Y611000D02*
X600866D01*
X601006Y611140D01*
X724140D01*
X747000Y634000D01*
X907800D01*
X925400Y616400D01*
X923520Y946480D02*
X964000Y906000D01*
X892000Y203000D02*
X947520Y258520D01*
X831000Y203000D02*
X892000D01*
X816000Y218000D02*
X831000Y203000D01*
X163480Y941480D02*
X264480D01*
X284000Y961000D01*
X606200Y674800D02*
X606400Y675000D01*
X642000D01*
X661000Y656000D01*
X1094000D01*
X892000Y913000D02*
Y989000D01*
X679200Y700200D02*
X892000Y913000D01*
X606200Y700200D02*
X679200D01*
X646000Y735000D02*
Y1074000D01*
X636600Y725600D02*
X646000Y735000D01*
X606200Y725600D02*
X636600D01*
X50000Y532700D02*
X113700D01*
X114000Y533000D01*
X250000Y283000D02*
X258520Y274480D01*
X250000Y283000D02*
Y287000D01*
X258520Y163480D02*
Y274480D01*
X947520Y258520D02*
X1036520D01*
X667300Y50000D02*
Y119700D01*
X667000Y120000D02*
X667300Y119700D01*
X276480Y145520D02*
X521520D01*
X276480D02*
X276480D01*
X866000Y223000D02*
X919480Y276480D01*
X1054480D01*
X223000Y334000D02*
X276480Y280520D01*
Y145520D02*
Y280520D01*
X145520Y923520D02*
X280520D01*
X334000Y977000D01*
X145520Y678480D02*
Y923520D01*
X678000Y1054000D02*
X678480Y1054480D01*
X923520D01*
Y946480D02*
Y1054480D01*
D18*
X390600Y761200D02*
G03*
X390600Y761200I-5000J0D01*
G01*
X549100Y751600D02*
G03*
X549100Y751600I-5000J0D01*
G01*
X376600Y549200D02*
Y770200D01*
X441600Y549200D02*
Y770200D01*
X376600D02*
X441600D01*
X376600Y549200D02*
X441600D01*
X535100Y563600D02*
X601100D01*
X535100Y760600D02*
X601100D01*
Y563600D02*
Y760600D01*
X535100Y563600D02*
Y760600D01*
X1062000Y778050D02*
Y847950D01*
X1128000Y778050D02*
Y847950D01*
X1062000D02*
X1128000D01*
X1062000Y778050D02*
X1128000D01*
X878998Y776581D02*
X879261D01*
X404100Y659700D02*
X414100D01*
X409100Y654700D02*
Y664700D01*
X568100Y657100D02*
Y667100D01*
X563100Y662100D02*
X573100D01*
X1090000Y813000D02*
X1100000D01*
X1095000Y808000D02*
Y818000D01*
D36*
X977000Y860600D02*
Y881961D01*
X692700Y1146700D02*
Y1150000D01*
X487000Y941000D02*
X692700Y1146700D01*
X487000Y735000D02*
Y941000D01*
X475200Y723200D02*
X487000Y735000D01*
X447200Y723200D02*
X475200D01*
X447200Y697800D02*
X493800D01*
X508000Y712000D01*
Y902000D01*
X529000Y923000D01*
X512000Y527000D02*
Y654000D01*
Y527000D02*
X531700Y507300D01*
X1150000D01*
X493600Y672400D02*
X512000Y654000D01*
X447200Y672400D02*
X493600D01*
X483000Y647000D02*
X496000Y634000D01*
Y281000D02*
Y634000D01*
Y281000D02*
X592000Y185000D01*
X465000Y620000D02*
X480000Y605000D01*
Y238000D02*
Y605000D01*
Y238000D02*
X543000Y175000D01*
X457800Y596200D02*
X464000Y590000D01*
Y332000D02*
Y590000D01*
X444000Y312000D02*
X464000Y332000D01*
X232000Y532000D02*
X429000D01*
X70000Y694000D02*
X232000Y532000D01*
X51300Y694000D02*
X70000D01*
X50000Y692700D02*
X51300Y694000D01*
X429000Y532000D02*
X447200Y550200D01*
Y570800D01*
X282000Y312000D02*
X444000D01*
X447200Y596200D02*
X457800D01*
X447200Y621600D02*
X448800Y620000D01*
X465000D01*
X543000Y122000D02*
Y175000D01*
X507300Y86300D02*
X543000Y122000D01*
X507300Y50000D02*
Y86300D01*
X447200Y647000D02*
X483000D01*
X592000Y185000D02*
X904000D01*
X977000Y801000D02*
X1113000Y665000D01*
Y569700D02*
Y665000D01*
Y569700D02*
X1150000Y532700D01*
X50000Y667300D02*
X163480Y553820D01*
Y258520D02*
Y553820D01*
X532700Y50000D02*
X646180Y163480D01*
X941480D01*
X977000Y801000D02*
Y835100D01*
Y860600D01*
Y881961D02*
X1036520Y941480D01*
X258520Y1036520D02*
X553820D01*
X667300Y1150000D01*
D37*
X977000Y860600D02*
D03*
Y759000D02*
D03*
X900000Y616400D02*
D03*
Y591000D02*
D03*
X874600Y616400D02*
D03*
Y591000D02*
D03*
X849200Y616400D02*
D03*
Y591000D02*
D03*
X823800Y616400D02*
D03*
Y591000D02*
D03*
X798400Y616400D02*
D03*
Y591000D02*
D03*
X773000Y616400D02*
D03*
X1027000D02*
D03*
Y591000D02*
D03*
X1001600Y616400D02*
D03*
Y591000D02*
D03*
X976200Y616400D02*
D03*
Y591000D02*
D03*
X950800Y616400D02*
D03*
Y591000D02*
D03*
X925400Y616400D02*
D03*
Y591000D02*
D03*
X1052400Y616400D02*
D03*
Y591000D02*
D03*
D38*
X162460Y940461D02*
D03*
X144500Y922500D02*
D03*
X50000Y535400D02*
D03*
Y510000D02*
D03*
X259540Y162460D02*
D03*
X277500Y144500D02*
D03*
X664600Y50000D02*
D03*
X690000D02*
D03*
X1037540Y259540D02*
D03*
X1055500Y277500D02*
D03*
X1150000Y664600D02*
D03*
Y690000D02*
D03*
X940461Y1037540D02*
D03*
X922500Y1055500D02*
D03*
X535400Y1150000D02*
D03*
X510000D02*
D03*
X879000Y784000D02*
D03*
D39*
X1036520Y941480D02*
D03*
X163480Y258520D02*
D03*
D40*
X1054480Y923520D02*
D03*
X692700Y1150000D02*
D03*
X276480Y1054480D02*
D03*
X145520Y276480D02*
D03*
X50000Y692700D02*
D03*
X507300Y50000D02*
D03*
X923520Y145520D02*
D03*
X1150000Y507300D02*
D03*
D41*
X667300Y1150000D02*
D03*
X532700Y50000D02*
D03*
D42*
X258520Y1036520D02*
D03*
X941480Y163480D02*
D03*
D43*
X879000Y759000D02*
D03*
D44*
X50000Y667300D02*
D03*
X1150000Y532700D02*
D03*
D45*
X371000Y748600D02*
D03*
X530000Y751000D02*
D03*
D46*
X371000Y723200D02*
D03*
Y697800D02*
D03*
Y672400D02*
D03*
Y647000D02*
D03*
Y621600D02*
D03*
Y596200D02*
D03*
Y570800D02*
D03*
X447200Y748600D02*
D03*
Y723200D02*
D03*
Y697800D02*
D03*
Y672400D02*
D03*
Y647000D02*
D03*
Y621600D02*
D03*
Y596200D02*
D03*
Y570800D02*
D03*
X606200Y573200D02*
D03*
Y598600D02*
D03*
Y624000D02*
D03*
Y649400D02*
D03*
Y674800D02*
D03*
Y700200D02*
D03*
Y725600D02*
D03*
Y751000D02*
D03*
X530000Y573200D02*
D03*
Y598600D02*
D03*
Y624000D02*
D03*
Y649400D02*
D03*
Y674800D02*
D03*
Y700200D02*
D03*
Y725600D02*
D03*
D47*
X1143000Y750000D02*
D03*
D48*
X1120400Y812650D02*
D03*
D49*
X1095000Y787250D02*
D03*
X1069600Y812650D02*
D03*
D50*
X773000Y591000D02*
D03*
D51*
X1150000Y600000D02*
D03*
X989000Y211000D02*
D03*
X600000Y50000D02*
D03*
X50000Y600000D02*
D03*
X211000Y211000D02*
D03*
X989000Y989000D02*
D03*
X211000D02*
D03*
X600000Y1150000D02*
D03*
D52*
X919000Y840000D02*
D03*
X600000Y827000D02*
D03*
X441000Y806000D02*
D03*
X432000Y363000D02*
D03*
X1092000Y294000D02*
D03*
X749000Y287000D02*
D03*
X711000Y130000D02*
D03*
X813000Y110000D02*
D03*
X441000Y211000D02*
D03*
X277000Y434000D02*
D03*
X549000Y426000D02*
D03*
X690539Y571139D02*
D03*
X1095000Y536000D02*
D03*
X1024000Y682000D02*
D03*
X935000Y691000D02*
D03*
X221000Y674000D02*
D03*
X193000Y858000D02*
D03*
X373000Y1091000D02*
D03*
X408000Y892000D02*
D03*
X827000Y1087000D02*
D03*
X717000Y851000D02*
D03*
X567000Y611000D02*
D03*
X529000Y923000D02*
D03*
X950800Y554200D02*
D03*
X964000Y906000D02*
D03*
X282000Y312000D02*
D03*
X904000Y185000D02*
D03*
X284000Y961000D02*
D03*
X1094000Y656000D02*
D03*
X892000Y989000D02*
D03*
X646000Y1074000D02*
D03*
X114000Y533000D02*
D03*
X250000Y287000D02*
D03*
X816000Y218000D02*
D03*
X667000Y120000D02*
D03*
X866000Y223000D02*
D03*
X223000Y334000D02*
D03*
X334000Y977000D02*
D03*
X522000Y146000D02*
D03*
X146000Y678000D02*
D03*
X678000Y1054000D02*
D03*
M02*
