M48
;Layer_Color=6321
;FILE_FORMAT=2:5
INCH,LZ
;TYPE=PLATED
T1F00S00C0.02756
T2F00S00C0.02800
T3F00S00C0.02953
T4F00S00C0.03937
T5F00S00C0.04000
T6F00S00C0.04331
T7F00S00C0.05118
T8F00S00C0.15600
T9F00S00C0.15748
%
T01
X0393701Y015748
Y0167323
X0302756Y0298425
Y0308268
X0078741Y0167323
Y015748
T02
X0170606Y0129746
X0247244Y007126
X0322047Y0089764
X0327165Y015
X0362205Y0172047
X0364173Y0265354
X0353937Y0270866
X0374016Y0259055
X04Y0261811
X0409449Y0224016
X0443307Y0199213
X0435827Y0293701
X0228097Y0282406
X0218504Y0205906
X0243307Y0184252
X0304724Y0177953
X0116535Y0205512
X0063386Y0216142
X0059055Y0302362
X0114567Y0298425
X0149213Y0245276
X0109055Y0357087
X0203543Y0398819
X0248819Y0401968
X0350787Y0398031
X0377559Y0340945
X0425591Y0322047
T03
X0379291Y019685
X0419291
X0092756
X0052756
T04
X0206221Y0164331
Y0174331
Y0184331
Y0194331
Y0204331
Y0214331
Y0224331
Y0234331
Y0244331
Y0254331
Y0264331
Y0274331
Y0284331
Y0294331
Y0304331
X0165512Y0301575
Y0311575
Y0291575
Y0281575
X026622Y0284331
Y0294331
Y0304331
Y0274331
Y0264331
Y0254331
Y0244331
Y0234331
Y0224331
Y0214331
Y0204331
Y0194331
Y0184331
Y0174331
Y0164331
X0155512Y0281575
Y0291575
Y0301575
Y0311575
X0206221Y0314331
Y0324331
Y0334331
Y0344331
Y0354331
X026622
Y0344331
Y0334331
Y0324331
Y0314331
T05
X0325197Y0298268
Y0308268
Y0318268
T06
X020122Y0119291
X0211221
X022122
X0231221
X024122
X025122
X0261221
X027122
X0314331Y0232677
X0324331
X0334331
X0344331
X0354331
Y0242677
X0344331
X0334331
X0324331
X0314331
X0364331
X0374331
X0384331
X0394331
X0404331
Y0232677
X0394331
X0384331
X0374331
X0364331
X0414331
Y0242677
X0304331
Y0232677
T07
X003937Y0147402
X0433071
Y015748
Y0167559
X003937
Y015748
X0344882Y033874
Y0348819
Y0358898
X0414173Y0358976
Y0348898
T08
X0390997Y0308268
T09
X0083071Y0083071
X0169291Y003937
X0236221Y0019685
X030315Y003937
X038937Y0083071
X0452756Y0236221
X0019685
X0083071Y038937
X0169291Y0393701
X0236221Y0452756
X030315Y0393701
X038937Y038937
M30
