G04*
G04 #@! TF.GenerationSoftware,Altium Limited,Altium Designer,24.6.1 (21)*
G04*
G04 Layer_Color=16711935*
%FSLAX44Y44*%
%MOMM*%
G71*
G04*
G04 #@! TF.SameCoordinates,7ED302C6-E4C6-4C30-95F2-E30C317DAF44*
G04*
G04*
G04 #@! TF.FilePolarity,Positive*
G04*
G01*
G75*
%ADD10C,0.1500*%
%ADD42C,0.0000*%
D10*
X29210Y-6916D02*
Y3081D01*
X27211Y5080D01*
X23212D01*
X21213Y3081D01*
Y-6916D01*
X17214Y5080D02*
X13215D01*
X15215D01*
Y-6916D01*
X17214Y-4917D01*
D42*
X11782Y600000D02*
X35329Y599075D01*
X-11782Y600000D02*
X11782D01*
X-35329Y599075D02*
X-11782Y600000D01*
X-58822Y597226D02*
X-35329Y599075D01*
X-82223Y594456D02*
X-58822Y597226D01*
X-105498Y590770D02*
X-82223Y594456D01*
X-128610Y586172D02*
X-105498Y590770D01*
X-151524Y580671D02*
X-128610Y586172D01*
X-174204Y574275D02*
X-151524Y580671D01*
X-196616Y566993D02*
X-174204Y574275D01*
X-218724Y558837D02*
X-196616Y566993D01*
X-240496Y549819D02*
X-218724Y558837D01*
X-261896Y539953D02*
X-240496Y549819D01*
X-282893Y529255D02*
X-261896Y539953D01*
X-303453Y517740D02*
X-282893Y529255D01*
X-323545Y505428D02*
X-303453Y517740D01*
X-343139Y492336D02*
X-323545Y505428D01*
X-362203Y478485D02*
X-343139Y492336D01*
X-380709Y463896D02*
X-362203Y478485D01*
X-398628Y448591D02*
X-380709Y463896D01*
X-415933Y432595D02*
X-398628Y448591D01*
X-432596Y415933D02*
X-415933Y432595D01*
X-448591Y398628D02*
X-432596Y415933D01*
X-463896Y380709D02*
X-448591Y398628D01*
X-478485Y362203D02*
X-463896Y380709D01*
X-492336Y343139D02*
X-478485Y362203D01*
X-505428Y323545D02*
X-492336Y343139D01*
X-517740Y303453D02*
X-505428Y323545D01*
X-529255Y282893D02*
X-517740Y303453D01*
X-539953Y261896D02*
X-529255Y282893D01*
X-549819Y240496D02*
X-539953Y261896D01*
X-558837Y218724D02*
X-549819Y240496D01*
X-566993Y196616D02*
X-558837Y218724D01*
X-574275Y174204D02*
X-566993Y196616D01*
X-580671Y151524D02*
X-574275Y174204D01*
X-586172Y128610D02*
X-580671Y151524D01*
X-590770Y105498D02*
X-586172Y128610D01*
X-594456Y82223D02*
X-590770Y105498D01*
X-597226Y58822D02*
X-594456Y82223D01*
X-599075Y35329D02*
X-597226Y58822D01*
X-600000Y11782D02*
X-599075Y35329D01*
X-600000Y0D02*
Y11782D01*
X-600000Y-11782D02*
X-600000Y0D01*
X-600000Y-11782D02*
X-599075Y-35329D01*
X-597226Y-58822D01*
X-594456Y-82223D01*
X-590770Y-105498D01*
X-586172Y-128610D01*
X-580671Y-151524D01*
X-574275Y-174204D01*
X-566993Y-196616D01*
X-558837Y-218724D01*
X-549819Y-240496D01*
X-539953Y-261896D01*
X-529255Y-282893D01*
X-517740Y-303453D01*
X-505428Y-323545D01*
X-492336Y-343139D01*
X-478485Y-362203D01*
X-463896Y-380709D01*
X-448591Y-398628D01*
X-432596Y-415933D01*
X-415933Y-432596D01*
X-398628Y-448591D01*
X-380709Y-463896D01*
X-362203Y-478485D01*
X-343139Y-492336D01*
X-323545Y-505428D01*
X-303453Y-517740D01*
X-282893Y-529255D01*
X-261896Y-539953D01*
X-240496Y-549819D01*
X-218724Y-558837D01*
X-196616Y-566993D01*
X-174204Y-574275D01*
X-151524Y-580671D01*
X-128610Y-586172D01*
X-105498Y-590770D01*
X-82223Y-594456D01*
X-58822Y-597226D01*
X-35329Y-599075D01*
X-11782Y-600000D01*
X-0D01*
X11782Y-600000D01*
X35329Y-599075D01*
X58822Y-597226D01*
X82223Y-594456D01*
X105498Y-590770D01*
X128610Y-586172D01*
X151524Y-580671D01*
X174204Y-574275D01*
X196616Y-566993D01*
X218724Y-558837D01*
X240496Y-549819D01*
X261896Y-539953D01*
X282893Y-529255D01*
X303453Y-517740D01*
X323545Y-505428D01*
X343139Y-492336D01*
X362203Y-478485D01*
X380709Y-463896D01*
X398628Y-448591D01*
X415933Y-432596D01*
X432595Y-415933D01*
X448591Y-398628D01*
X463896Y-380709D01*
X478485Y-362203D01*
X492336Y-343139D01*
X505428Y-323545D01*
X517740Y-303453D01*
X529255Y-282893D01*
X539953Y-261896D01*
X549819Y-240496D01*
X556237Y-225000D01*
X202500D02*
X556237D01*
X202500D02*
Y-142500D01*
X582838D01*
X586172Y-128610D01*
X590770Y-105498D01*
X594456Y-82223D01*
X597226Y-58822D01*
X599075Y-35329D01*
X600000Y-11782D01*
Y0D01*
Y11782D01*
X599075Y35329D02*
X600000Y11782D01*
X597226Y58822D02*
X599075Y35329D01*
X594456Y82223D02*
X597226Y58822D01*
X590770Y105498D02*
X594456Y82223D01*
X586172Y128610D02*
X590770Y105498D01*
X580671Y151524D02*
X586172Y128610D01*
X574275Y174204D02*
X580671Y151524D01*
X566993Y196616D02*
X574275Y174204D01*
X558837Y218724D02*
X566993Y196616D01*
X549819Y240496D02*
X558837Y218724D01*
X539953Y261896D02*
X549819Y240496D01*
X529255Y282893D02*
X539953Y261896D01*
X517740Y303453D02*
X529255Y282893D01*
X505428Y323545D02*
X517740Y303453D01*
X492336Y343139D02*
X505428Y323545D01*
X478485Y362203D02*
X492336Y343139D01*
X463896Y380709D02*
X478485Y362203D01*
X448591Y398628D02*
X463896Y380709D01*
X432595Y415933D02*
X448591Y398628D01*
X415933Y432595D02*
X432595Y415933D01*
X398628Y448591D02*
X415933Y432595D01*
X380709Y463896D02*
X398628Y448591D01*
X362203Y478485D02*
X380709Y463896D01*
X343139Y492336D02*
X362203Y478485D01*
X323545Y505428D02*
X343139Y492336D01*
X303453Y517740D02*
X323545Y505428D01*
X282893Y529255D02*
X303453Y517740D01*
X261896Y539953D02*
X282893Y529255D01*
X240496Y549819D02*
X261896Y539953D01*
X218724Y558837D02*
X240496Y549819D01*
X196616Y566993D02*
X218724Y558837D01*
X174204Y574275D02*
X196616Y566993D01*
X151524Y580671D02*
X174204Y574275D01*
X128610Y586172D02*
X151524Y580671D01*
X105498Y590770D02*
X128610Y586172D01*
X82223Y594456D02*
X105498Y590770D01*
X58822Y597226D02*
X82223Y594456D01*
X35329Y599075D02*
X58822Y597226D01*
M02*
