G04*
G04 #@! TF.GenerationSoftware,Altium Limited,Altium Designer,24.6.1 (21)*
G04*
G04 Layer_Color=128*
%FSLAX44Y44*%
%MOMM*%
G71*
G04*
G04 #@! TF.SameCoordinates,B4F3611A-EC35-413B-BF39-3333FE2D459C*
G04*
G04*
G04 #@! TF.FilePolarity,Positive*
G04*
G01*
G75*
%ADD42C,0.1270*%
D42*
X-330000Y460000D02*
X-320000D01*
X-325000Y455000D02*
Y465000D01*
X-312040Y477961D02*
X-302040D01*
X-307040Y472961D02*
Y482961D01*
X302500Y-477500D02*
X312500D01*
X307500Y-482500D02*
Y-472500D01*
X320461Y-459539D02*
X330461D01*
X325461Y-464539D02*
Y-454539D01*
X-482500Y-307500D02*
X-472500D01*
X-477500Y-312500D02*
Y-302500D01*
X-464539Y-325461D02*
X-454539D01*
X-459539Y-330461D02*
Y-320461D01*
X550000Y-94600D02*
X560000D01*
X555000Y-99600D02*
Y-89600D01*
X550000Y-120000D02*
X560000D01*
X555000Y-125000D02*
Y-115000D01*
X-557500Y120000D02*
X-547500D01*
X-552500Y115000D02*
Y125000D01*
X-557500Y94600D02*
X-547500D01*
X-552500Y89600D02*
Y99600D01*
X-125000Y-555000D02*
X-115000D01*
X-120000Y-560000D02*
Y-550000D01*
X-99600Y-555000D02*
X-89600D01*
X-94600Y-560000D02*
Y-550000D01*
X115400Y556334D02*
X125400D01*
X120400Y551334D02*
Y561334D01*
X90000Y556334D02*
X100000D01*
X95000Y551334D02*
Y561334D01*
X433980Y351020D02*
X443980D01*
X438980Y346020D02*
Y356020D01*
X416020Y368980D02*
X426020D01*
X421020Y363980D02*
Y373980D01*
X366922Y-422500D02*
X376922D01*
X371922Y-427500D02*
Y-417500D01*
X348961Y-440461D02*
X358961D01*
X353961Y-445461D02*
Y-435461D01*
X-65200Y-561334D02*
X-55200D01*
X-60200Y-566334D02*
Y-556334D01*
X-39800Y-561334D02*
X-29800D01*
X-34800Y-566334D02*
Y-556334D01*
X-444134Y-353520D02*
X-434134D01*
X-439134Y-358520D02*
Y-348520D01*
X-426174Y-371480D02*
X-416174D01*
X-421174Y-376480D02*
Y-366480D01*
X-564663Y60400D02*
X-554663D01*
X-559663Y55400D02*
Y65400D01*
X-564663Y35000D02*
X-554663D01*
X-559663Y30000D02*
Y40000D01*
X-358961Y439797D02*
X-348961D01*
X-353961Y434797D02*
Y444797D01*
X-376922Y421836D02*
X-366922D01*
X-371922Y416836D02*
Y426836D01*
X55400Y561334D02*
X65400D01*
X60400Y556334D02*
Y566334D01*
X30000Y561334D02*
X40000D01*
X35000Y556334D02*
Y566334D01*
X556334Y-35000D02*
X566334D01*
X561334Y-40000D02*
Y-30000D01*
X556334Y-60400D02*
X566334D01*
X561334Y-65400D02*
Y-55400D01*
X381000Y-292100D02*
X392000D01*
X386500Y-297600D02*
Y-286600D01*
X381000Y-317500D02*
X392000D01*
X386500Y-323000D02*
Y-312000D01*
X355600Y-292100D02*
X366600D01*
X361100Y-297600D02*
Y-286600D01*
X355600Y-317500D02*
X366600D01*
X361100Y-323000D02*
Y-312000D01*
X330200Y-292100D02*
X341200D01*
X335700Y-297600D02*
Y-286600D01*
X330200Y-317500D02*
X341200D01*
X335700Y-323000D02*
Y-312000D01*
X304800Y-292100D02*
X315800D01*
X310300Y-297600D02*
Y-286600D01*
X304800Y-317500D02*
X315800D01*
X310300Y-323000D02*
Y-312000D01*
X279400Y-292100D02*
X290400D01*
X284900Y-297600D02*
Y-286600D01*
X254000Y-292100D02*
X265000D01*
X259500Y-297600D02*
Y-286600D01*
X228600Y-292100D02*
X239600D01*
X234100Y-297600D02*
Y-286600D01*
X279400Y-317500D02*
X290400D01*
X284900Y-323000D02*
Y-312000D01*
X254000Y-317500D02*
X265000D01*
X259500Y-323000D02*
Y-312000D01*
X228600Y-317500D02*
X239600D01*
X234100Y-323000D02*
Y-312000D01*
X453350Y114650D02*
X460850D01*
X457100Y110900D02*
Y118400D01*
X478750Y89250D02*
X486250D01*
X482500Y85500D02*
Y93000D01*
X504150Y114650D02*
X511650D01*
X507900Y110900D02*
Y118400D01*
X444500Y-14300D02*
X455500D01*
X450000Y-19800D02*
Y-8800D01*
X419100Y-14300D02*
X430100D01*
X424600Y-19800D02*
Y-8800D01*
X393700Y-14300D02*
X404700D01*
X399200Y-19800D02*
Y-8800D01*
X444500Y-39700D02*
X455500D01*
X450000Y-45200D02*
Y-34200D01*
X419100Y-39700D02*
X430100D01*
X424600Y-45200D02*
Y-34200D01*
X393700Y-39700D02*
X404700D01*
X399200Y-45200D02*
Y-34200D01*
X368300Y-14300D02*
X379300D01*
X373800Y-19800D02*
Y-8800D01*
X342900Y-14300D02*
X353900D01*
X348400Y-19800D02*
Y-8800D01*
X368300Y-39700D02*
X379300D01*
X373800Y-45200D02*
Y-34200D01*
X342900Y-39700D02*
X353900D01*
X348400Y-45200D02*
Y-34200D01*
X165100Y-39700D02*
X176100D01*
X170600Y-45200D02*
Y-34200D01*
X165100Y-14300D02*
X176100D01*
X170600Y-19800D02*
Y-8800D01*
X190500Y-39700D02*
X201500D01*
X196000Y-45200D02*
Y-34200D01*
X190500Y-14300D02*
X201500D01*
X196000Y-19800D02*
Y-8800D01*
X215900Y-39700D02*
X226900D01*
X221400Y-45200D02*
Y-34200D01*
X215900Y-14300D02*
X226900D01*
X221400Y-19800D02*
Y-8800D01*
X241300Y-39700D02*
X252300D01*
X246800Y-45200D02*
Y-34200D01*
X241300Y-14300D02*
X252300D01*
X246800Y-19800D02*
Y-8800D01*
X266700Y-39700D02*
X277700D01*
X272200Y-45200D02*
Y-34200D01*
X292100Y-39700D02*
X303100D01*
X297600Y-45200D02*
Y-34200D01*
X266700Y-14300D02*
X277700D01*
X272200Y-19800D02*
Y-8800D01*
X292100Y-14300D02*
X303100D01*
X297600Y-19800D02*
Y-8800D01*
X317500Y-39700D02*
X328500D01*
X323000Y-45200D02*
Y-34200D01*
X317500Y-14300D02*
X328500D01*
X323000Y-19800D02*
Y-8800D01*
X-42600Y88900D02*
X-33600D01*
X-38100Y84400D02*
Y93400D01*
X-42600Y63500D02*
X-33600D01*
X-38100Y59000D02*
Y68000D01*
X-42600Y38100D02*
X-33600D01*
X-38100Y33600D02*
Y42600D01*
X-42600Y12700D02*
X-33600D01*
X-38100Y8200D02*
Y17200D01*
X-42600Y-12700D02*
X-33600D01*
X-38100Y-17200D02*
Y-8200D01*
X-42600Y-38100D02*
X-33600D01*
X-38100Y-42600D02*
Y-33600D01*
X-42600Y-63500D02*
X-33600D01*
X-38100Y-68000D02*
Y-59000D01*
X-42600Y-88900D02*
X-33600D01*
X-38100Y-93400D02*
Y-84400D01*
X33600Y88900D02*
X42600D01*
X38100Y84400D02*
Y93400D01*
X33600Y63500D02*
X42600D01*
X38100Y59000D02*
Y68000D01*
X33600Y38100D02*
X42600D01*
X38100Y33600D02*
Y42600D01*
X33600Y12700D02*
X42600D01*
X38100Y8200D02*
Y17200D01*
X33600Y-12700D02*
X42600D01*
X38100Y-17200D02*
Y-8200D01*
X33600Y-38100D02*
X42600D01*
X38100Y-42600D02*
Y-33600D01*
X33600Y-63500D02*
X42600D01*
X38100Y-68000D02*
Y-59000D01*
X33600Y-88900D02*
X42600D01*
X38100Y-93400D02*
Y-84400D01*
X473520Y305000D02*
X483520D01*
X478520Y300000D02*
Y310000D01*
X455559Y322961D02*
X465559D01*
X460559Y317960D02*
Y327961D01*
X270500Y-265000D02*
X274500D01*
X272500Y-267000D02*
Y-263000D01*
X270500Y-282500D02*
X274500D01*
X272500Y-284500D02*
Y-280500D01*
X253000Y-249000D02*
X257000D01*
X255000Y-251000D02*
Y-247000D01*
X232100Y-270000D02*
X236100D01*
X234100Y-272000D02*
Y-268000D01*
X133000Y-39700D02*
X137000D01*
X135000Y-41700D02*
Y-37700D01*
X488000Y142500D02*
X492000D01*
X490000Y140500D02*
Y144500D01*
X184506Y-277500D02*
X188506D01*
X186506Y-279500D02*
Y-275500D01*
X184506Y-287500D02*
X188506D01*
X186506Y-289500D02*
Y-285500D01*
X184506Y-297692D02*
X188506D01*
X186506Y-299692D02*
Y-295692D01*
X184506Y-307500D02*
X188506D01*
X186506Y-309500D02*
Y-305500D01*
M02*
