G04*
G04 #@! TF.GenerationSoftware,Altium Limited,Altium Designer,24.6.1 (21)*
G04*
G04 Layer_Color=32896*
%FSLAX44Y44*%
%MOMM*%
G71*
G04*
G04 #@! TF.SameCoordinates,B4F3611A-EC35-413B-BF39-3333FE2D459C*
G04*
G04*
G04 #@! TF.FilePolarity,Positive*
G04*
G01*
G75*
%ADD13C,0.2000*%
%ADD15C,0.2540*%
D13*
X-336703Y489663D02*
G03*
X-295337Y448297I20683J-20683D01*
G01*
D02*
G03*
X-336703Y489663I-20683J20683D01*
G01*
X295797Y-447837D02*
G03*
X337163Y-489203I20683J-20683D01*
G01*
D02*
G03*
X295797Y-447837I-20683J20683D01*
G01*
X-447837Y-295797D02*
G03*
X-489203Y-337163I-20683J-20683D01*
G01*
D02*
G03*
X-447837Y-295797I20683J20683D01*
G01*
X584250Y-107300D02*
G03*
X525750Y-107300I-29250J0D01*
G01*
D02*
G03*
X584250Y-107300I29250J0D01*
G01*
X-523250Y107300D02*
G03*
X-581750Y107300I-29250J0D01*
G01*
D02*
G03*
X-523250Y107300I29250J0D01*
G01*
X-107300Y-525750D02*
G03*
X-107300Y-584250I0J-29250D01*
G01*
D02*
G03*
X-107300Y-525750I0J29250D01*
G01*
X107700Y527084D02*
G03*
X107700Y585584I0J29250D01*
G01*
D02*
G03*
X107700Y527084I0J-29250D01*
G01*
X448857Y293297D02*
G03*
X490222Y334663I20683J20683D01*
G01*
D02*
G03*
X448857Y293297I-20683J-20683D01*
G01*
D15*
X-232363Y376591D02*
X-221591Y387363D01*
X-226977Y392750D01*
X-230568D01*
X-234159Y389159D01*
Y385568D01*
X-228773Y380182D01*
X-232363Y398136D02*
X-243136Y387363D01*
X-237750Y392750D01*
X-244932Y399932D01*
X-239545Y405318D01*
X-250318Y394545D01*
X-248523Y414296D02*
X-244932Y410704D01*
Y407114D01*
X-252114Y399932D01*
X-255704D01*
X-259295Y403523D01*
Y407114D01*
X-252114Y414296D01*
X-248523D01*
X-253909Y419682D02*
X-261091Y426864D01*
X-257500Y423273D01*
X-268273Y412500D01*
X-270068Y435841D02*
X-266477Y432250D01*
Y428659D01*
X-273659Y421477D01*
X-277250D01*
X-280841Y425068D01*
Y428659D01*
X-273659Y435841D01*
X-270068D01*
X-277250Y439432D02*
Y443023D01*
X-280841Y446614D01*
X-284432D01*
X-286227Y444818D01*
Y441227D01*
X-289818D01*
X-291614Y439432D01*
Y435841D01*
X-288023Y432250D01*
X-284432D01*
X-282637Y434046D01*
Y437637D01*
X-279046D01*
X-277250Y439432D01*
X-282637Y437637D02*
X-286227Y441227D01*
X-429334Y99882D02*
Y115118D01*
X-436951D01*
X-439491Y112578D01*
Y107500D01*
X-436951Y104961D01*
X-429334D01*
X-444569Y115118D02*
Y99882D01*
Y107500D01*
X-454726D01*
Y115118D01*
Y99882D01*
X-467422Y115118D02*
X-462343D01*
X-459804Y112578D01*
Y102422D01*
X-462343Y99882D01*
X-467422D01*
X-469961Y102422D01*
Y112578D01*
X-467422Y115118D01*
X-475039D02*
X-485196D01*
X-480117D01*
Y99882D01*
X-497892Y115118D02*
X-492813D01*
X-490274Y112578D01*
Y102422D01*
X-492813Y99882D01*
X-497892D01*
X-500431Y102422D01*
Y112578D01*
X-497892Y115118D01*
X-505509D02*
X-515666D01*
Y112578D01*
X-505509Y102422D01*
Y99882D01*
X-376591Y-234863D02*
X-387363Y-224091D01*
X-392750Y-229477D01*
Y-233068D01*
X-389159Y-236659D01*
X-385568D01*
X-380182Y-231273D01*
X-398136Y-234863D02*
X-387363Y-245636D01*
X-392750Y-240250D01*
X-399932Y-247432D01*
X-405318Y-242045D01*
X-394545Y-252818D01*
X-414296Y-251023D02*
X-410705Y-247432D01*
X-407114D01*
X-399932Y-254614D01*
Y-258204D01*
X-403523Y-261796D01*
X-407114D01*
X-414296Y-254614D01*
Y-251023D01*
X-419682Y-256409D02*
X-426864Y-263591D01*
X-423273Y-260000D01*
X-412500Y-270773D01*
X-435841Y-272568D02*
X-432250Y-268977D01*
X-428659D01*
X-421477Y-276159D01*
Y-279750D01*
X-425068Y-283341D01*
X-428659D01*
X-435841Y-276159D01*
Y-272568D01*
X-448409Y-285137D02*
X-443023Y-283341D01*
X-435841D01*
X-432250Y-286932D01*
Y-290523D01*
X-435841Y-294114D01*
X-439432D01*
X-441227Y-292318D01*
Y-288727D01*
X-435841Y-283341D01*
X-64134Y-517617D02*
Y-502383D01*
X-71751D01*
X-74291Y-504922D01*
Y-510000D01*
X-71751Y-512539D01*
X-64134D01*
X-79369Y-502383D02*
Y-517617D01*
Y-510000D01*
X-89526D01*
Y-502383D01*
Y-517617D01*
X-102222Y-502383D02*
X-97143D01*
X-94604Y-504922D01*
Y-515078D01*
X-97143Y-517617D01*
X-102222D01*
X-104761Y-515078D01*
Y-504922D01*
X-102222Y-502383D01*
X-109839D02*
X-119996D01*
X-114917D01*
Y-517617D01*
X-132692Y-502383D02*
X-127613D01*
X-125074Y-504922D01*
Y-515078D01*
X-127613Y-517617D01*
X-132692D01*
X-135231Y-515078D01*
Y-504922D01*
X-132692Y-502383D01*
X-150466D02*
X-140309D01*
Y-510000D01*
X-145388Y-507461D01*
X-147927D01*
X-150466Y-510000D01*
Y-515078D01*
X-147927Y-517617D01*
X-142849D01*
X-140309Y-515078D01*
X285137Y-445909D02*
X295909Y-435137D01*
X290523Y-429750D01*
X286932D01*
X283341Y-433341D01*
Y-436932D01*
X288727Y-442318D01*
X285137Y-424364D02*
X274364Y-435137D01*
X279750Y-429750D01*
X272568Y-422568D01*
X277955Y-417182D01*
X267182Y-427955D01*
X268977Y-408204D02*
X272568Y-411795D01*
Y-415386D01*
X265386Y-422568D01*
X261795D01*
X258204Y-418977D01*
Y-415386D01*
X265386Y-408204D01*
X268977D01*
X263591Y-402818D02*
X256409Y-395636D01*
X260000Y-399227D01*
X249227Y-410000D01*
X247432Y-386659D02*
X251023Y-390250D01*
Y-393841D01*
X243841Y-401023D01*
X240250D01*
X236659Y-397432D01*
Y-393841D01*
X243841Y-386659D01*
X247432D01*
X225886D02*
X236659Y-375886D01*
Y-386659D01*
X229477Y-379477D01*
X518166Y-114918D02*
Y-99683D01*
X510549D01*
X508009Y-102222D01*
Y-107300D01*
X510549Y-109839D01*
X518166D01*
X502931Y-99683D02*
Y-114918D01*
Y-107300D01*
X492774D01*
Y-99683D01*
Y-114918D01*
X480078Y-99683D02*
X485157D01*
X487696Y-102222D01*
Y-112378D01*
X485157Y-114918D01*
X480078D01*
X477539Y-112378D01*
Y-102222D01*
X480078Y-99683D01*
X472461D02*
X462304D01*
X467383D01*
Y-114918D01*
X449608Y-99683D02*
X454687D01*
X457226Y-102222D01*
Y-112378D01*
X454687Y-114918D01*
X449608D01*
X447069Y-112378D01*
Y-102222D01*
X449608Y-99683D01*
X441991Y-102222D02*
X439451Y-99683D01*
X434373D01*
X431834Y-102222D01*
Y-104761D01*
X434373Y-107300D01*
X436912D01*
X434373D01*
X431834Y-109839D01*
Y-112378D01*
X434373Y-114918D01*
X439451D01*
X441991Y-112378D01*
X448409Y282637D02*
X437637Y293409D01*
X432250Y288023D01*
Y284432D01*
X435841Y280841D01*
X439432D01*
X444818Y286227D01*
X426864Y282637D02*
X437637Y271864D01*
X432250Y277250D01*
X425068Y270068D01*
X419682Y275455D01*
X430455Y264682D01*
X410704Y266477D02*
X414295Y270068D01*
X417886D01*
X425068Y262886D01*
Y259295D01*
X421477Y255704D01*
X417886D01*
X410704Y262886D01*
Y266477D01*
X405318Y261091D02*
X398136Y253909D01*
X401727Y257500D01*
X412500Y246727D01*
X389159Y244932D02*
X392750Y248523D01*
X396341D01*
X403523Y241341D01*
Y237750D01*
X399932Y234159D01*
X396341D01*
X389159Y241341D01*
Y244932D01*
X387363Y221591D02*
X394545Y228773D01*
X380182D01*
X378386Y230568D01*
Y234159D01*
X381977Y237750D01*
X385568D01*
X148327Y505382D02*
Y520617D01*
X140709D01*
X138170Y518078D01*
Y513000D01*
X140709Y510461D01*
X148327D01*
X133092Y520617D02*
Y505382D01*
Y513000D01*
X122935D01*
Y520617D01*
Y505382D01*
X110239Y520617D02*
X115317D01*
X117857Y518078D01*
Y507922D01*
X115317Y505382D01*
X110239D01*
X107700Y507922D01*
Y518078D01*
X110239Y520617D01*
X102622D02*
X92465D01*
X97543D01*
Y505382D01*
X79769Y520617D02*
X84847D01*
X87387Y518078D01*
Y507922D01*
X84847Y505382D01*
X79769D01*
X77230Y507922D01*
Y518078D01*
X79769Y520617D01*
X72151Y505382D02*
X67073D01*
X69612D01*
Y520617D01*
X72151Y518078D01*
M02*
