G04*
G04 #@! TF.GenerationSoftware,Altium Limited,Altium Designer,24.6.1 (21)*
G04*
G04 Layer_Color=255*
%FSLAX44Y44*%
%MOMM*%
G71*
G04*
G04 #@! TF.SameCoordinates,B4F3611A-EC35-413B-BF39-3333FE2D459C*
G04*
G04*
G04 #@! TF.FilePolarity,Positive*
G04*
G01*
G75*
%ADD24C,2.0000*%
%ADD32C,1.5000*%
G04:AMPARAMS|DCode=33|XSize=1.6mm|YSize=1.6mm|CornerRadius=0.4mm|HoleSize=0mm|Usage=FLASHONLY|Rotation=180.000|XOffset=0mm|YOffset=0mm|HoleType=Round|Shape=RoundedRectangle|*
%AMROUNDEDRECTD33*
21,1,1.6000,0.8000,0,0,180.0*
21,1,0.8000,1.6000,0,0,180.0*
1,1,0.8000,-0.4000,0.4000*
1,1,0.8000,0.4000,0.4000*
1,1,0.8000,0.4000,-0.4000*
1,1,0.8000,-0.4000,-0.4000*
%
%ADD33ROUNDEDRECTD33*%
%ADD34C,1.6000*%
%ADD35C,1.2500*%
%ADD36R,1.2500X1.2500*%
%ADD37R,1.5000X1.5000*%
D24*
X438980Y351020D02*
D03*
X421020Y368980D02*
D03*
X371922Y-422500D02*
D03*
X353961Y-440461D02*
D03*
X-60200Y-561334D02*
D03*
X-34800D02*
D03*
X-439134Y-353520D02*
D03*
X-421174Y-371480D02*
D03*
X-559663Y60400D02*
D03*
Y35000D02*
D03*
X-353961Y439797D02*
D03*
X-371922Y421836D02*
D03*
X60400Y561334D02*
D03*
X35000D02*
D03*
X561334Y-35000D02*
D03*
Y-60400D02*
D03*
D32*
X-325000Y460000D02*
D03*
X-307040Y477961D02*
D03*
X307500Y-477500D02*
D03*
X325461Y-459539D02*
D03*
X-477500Y-307500D02*
D03*
X-459539Y-325461D02*
D03*
X555000Y-94600D02*
D03*
Y-120000D02*
D03*
X-552500Y120000D02*
D03*
Y94600D02*
D03*
X-120000Y-555000D02*
D03*
X-94600D02*
D03*
X120400Y556334D02*
D03*
X95000D02*
D03*
X-38100Y88900D02*
D03*
Y63500D02*
D03*
Y38100D02*
D03*
Y12700D02*
D03*
Y-12700D02*
D03*
Y-38100D02*
D03*
Y-63500D02*
D03*
Y-88900D02*
D03*
X38100Y88900D02*
D03*
Y63500D02*
D03*
Y38100D02*
D03*
Y12700D02*
D03*
Y-12700D02*
D03*
Y-38100D02*
D03*
Y-63500D02*
D03*
X478520Y305000D02*
D03*
X460559Y322961D02*
D03*
D33*
X386500Y-292100D02*
D03*
X170600Y-39700D02*
D03*
D34*
X386500Y-317500D02*
D03*
X361100Y-292100D02*
D03*
Y-317500D02*
D03*
X335700Y-292100D02*
D03*
Y-317500D02*
D03*
X310300Y-292100D02*
D03*
Y-317500D02*
D03*
X284900Y-292100D02*
D03*
X259500D02*
D03*
X234100D02*
D03*
X284900Y-317500D02*
D03*
X259500D02*
D03*
X234100D02*
D03*
X450000Y-14300D02*
D03*
X424600D02*
D03*
X399200D02*
D03*
X450000Y-39700D02*
D03*
X424600D02*
D03*
X399200D02*
D03*
X373800Y-14300D02*
D03*
X348400D02*
D03*
X373800Y-39700D02*
D03*
X348400D02*
D03*
X170600Y-14300D02*
D03*
X196000Y-39700D02*
D03*
Y-14300D02*
D03*
X221400Y-39700D02*
D03*
Y-14300D02*
D03*
X246800Y-39700D02*
D03*
Y-14300D02*
D03*
X272200Y-39700D02*
D03*
X297600D02*
D03*
X272200Y-14300D02*
D03*
X297600D02*
D03*
X323000Y-39700D02*
D03*
Y-14300D02*
D03*
D35*
X457100Y114650D02*
D03*
X482500Y89250D02*
D03*
D36*
X507900Y114650D02*
D03*
D37*
X38100Y-88900D02*
D03*
M02*
