G04*
G04 #@! TF.GenerationSoftware,Altium Limited,Altium Designer,24.7.2 (38)*
G04*
G04 Layer_Color=32768*
%FSLAX44Y44*%
%MOMM*%
G71*
G04*
G04 #@! TF.SameCoordinates,368DA5F4-0558-4B36-8F9D-AB2494F627D1*
G04*
G04*
G04 #@! TF.FilePolarity,Positive*
G04*
G01*
G75*
%ADD13C,0.2000*%
%ADD44C,0.1000*%
%ADD47C,0.0500*%
D13*
X456084Y338704D02*
G03*
X412950Y381838I-21567J21567D01*
G01*
D02*
G03*
X456084Y338704I21567J-21567D01*
G01*
X338703Y-456087D02*
G03*
X381837Y-412953I21567J21567D01*
G01*
D02*
G03*
X338703Y-456087I-21567J-21567D01*
G01*
X-22000Y-562000D02*
G03*
X-83000Y-562000I-30500J0D01*
G01*
D02*
G03*
X-22000Y-562000I30500J0D01*
G01*
X-412953Y-381837D02*
G03*
X-456087Y-338703I-21567J21567D01*
G01*
D02*
G03*
X-412953Y-381837I21567J-21567D01*
G01*
X-562000Y22000D02*
G03*
X-562000Y83000I0J30500D01*
G01*
D02*
G03*
X-562000Y22000I0J-30500D01*
G01*
X-381837Y412953D02*
G03*
X-338703Y456087I21567J21567D01*
G01*
D02*
G03*
X-381837Y412953I-21567J-21567D01*
G01*
X22000Y562000D02*
G03*
X83000Y562000I30500J0D01*
G01*
D02*
G03*
X22000Y562000I-30500J0D01*
G01*
X562000Y-83000D02*
G03*
X562000Y-22000I0J30500D01*
G01*
D02*
G03*
X562000Y-83000I0J-30500D01*
G01*
X421499Y289553D02*
X442302Y310356D01*
X468748Y283910D01*
X447945Y263107D02*
X468748Y283910D01*
X421499Y289553D02*
X447945Y263107D01*
X-289552Y421496D02*
X-263106Y447942D01*
X-283909Y468744D02*
X-263106Y447942D01*
X-310355Y442299D02*
X-283909Y468744D01*
X-310355Y442299D02*
X-289552Y421496D01*
X-502790Y93300D02*
Y130700D01*
X-532210D02*
X-502790D01*
X-532210Y93300D02*
Y130700D01*
Y93300D02*
X-502790D01*
X93300Y502790D02*
X130700D01*
Y532210D01*
X93300D02*
X130700D01*
X93300Y502790D02*
Y532210D01*
X-447941Y-263106D02*
X-421495Y-289552D01*
X-468745Y-283909D02*
X-447941Y-263106D01*
X-468745Y-283909D02*
X-442299Y-310355D01*
X-421495Y-289552D01*
X-93300Y-532210D02*
Y-502790D01*
X-130700Y-532210D02*
X-93300D01*
X-130700D02*
Y-502790D01*
X-93300D01*
X263106Y-447941D02*
X289551Y-421495D01*
X263106Y-447941D02*
X283909Y-468744D01*
X310354Y-442298D01*
X289551Y-421495D02*
X310354Y-442298D01*
X502790Y-93298D02*
X532210D01*
Y-130698D02*
Y-93298D01*
X502790Y-130698D02*
X532210D01*
X502790D02*
Y-93298D01*
X356500Y28500D02*
Y101500D01*
Y28500D02*
X443500D01*
Y101500D01*
X356500D02*
X443500D01*
X409209Y105696D02*
X440791D01*
Y151279D01*
X409209D02*
X440791D01*
X409209Y105696D02*
Y151279D01*
D44*
X482500Y110000D02*
Y120000D01*
X477500Y115000D02*
X487500D01*
X-0Y-5000D02*
Y5000D01*
X-5000Y-0D02*
X5000D01*
D47*
X180100Y-353300D02*
X440500D01*
X180100D02*
Y-257800D01*
X440500D01*
Y-353300D02*
Y-257800D01*
X305300Y-304800D02*
X315300D01*
X310300Y-309800D02*
Y-299800D01*
X448500Y79050D02*
Y150950D01*
X516500Y79050D02*
Y150950D01*
X448500D02*
X516500D01*
X448500Y79050D02*
X516500D01*
X116600Y21500D02*
X504000D01*
Y-74000D02*
Y21500D01*
X116600Y-74000D02*
X504000D01*
X116600D02*
Y21500D01*
X305300Y-27000D02*
X315300D01*
X310300Y-32000D02*
Y-22000D01*
X-48500Y101000D02*
X48500D01*
X-48500Y-101000D02*
X48500D01*
X-48500D02*
Y101000D01*
X48500Y-101000D02*
Y101000D01*
M02*
