M48
;Layer_Color=9474304
;FILE_FORMAT=4:4
METRIC,LZ
;TYPE=PLATED
T01F00S00C0.4000
T02F00S00C0.7500
T03F00S00C0.9000
T04F00S00C1.0000
T05F00S00C1.1000
%
T01
X00186506Y-003075
Y-00297692
Y-002875
Y-002775
X002341Y-0027
X00255Y-00249
X002725Y-00265
Y-002825
X0049Y001425
X00135Y-000397
T02
X004571Y0011465
X004825Y0008925
X005079Y0011465
T03
X-000381Y-000889
Y-000635
Y-000381
Y-000127
Y000127
Y000381
Y000635
Y000889
X000381
Y000635
Y000381
Y000127
Y-000127
Y-000381
Y-000635
Y-000889
T04
X-00439134Y-0035352
X-00421174Y-0037148
X-00459539Y-00325461
X-004775Y-003075
X-0012Y-00555
X-000946
X-000602Y-00561334
X-000348
X003075Y-004775
X00325461Y-00459539
X00353961Y-00440461
X00371922Y-004225
X00555Y-0012
Y-000946
X00561334Y-000604
Y-00035
X-00559663Y00035
Y000604
X-005525Y000946
Y0012
X-00371922Y00421836
X-00353961Y00439797
X-00325Y0046
X-0030704Y00477961
X00035Y00561334
X000604
X00095Y00556334
X001204
X0042102Y0036898
X0043898Y0035102
X00460559Y00322961
X0047852Y00305
T05
X002341Y-003175
Y-002921
X002595
X002849
X003103
X003357
X003611
X003865
Y-003175
X003611
X003357
X003103
X002849
X002595
X002468Y-000397
X002214
X00196
Y-000143
X002214
X002468
X002722
Y-000397
X002976
Y-000143
X00323
X003484
X003738
X003992
X004246
X0045
Y-000397
X004246
X003992
X003738
X003484
X00323
X001706
Y-000143
M30
