G04*
G04 #@! TF.GenerationSoftware,Altium Limited,Altium Designer,24.6.1 (21)*
G04*
G04 Layer_Color=2752767*
%FSLAX44Y44*%
%MOMM*%
G71*
G04*
G04 #@! TF.SameCoordinates,7ED302C6-E4C6-4C30-95F2-E30C317DAF44*
G04*
G04*
G04 #@! TF.FilePolarity,Positive*
G04*
G01*
G75*
%ADD47C,0.1270*%
%ADD48C,0.1693*%
D47*
X91920Y549920D02*
Y560080D01*
X102080D01*
Y549920D01*
X91920D01*
X117320D02*
Y560080D01*
X127480D01*
Y549920D01*
X117320D01*
X420457Y364171D02*
Y374331D01*
X430617D01*
Y364171D01*
X420457D01*
X438418Y346211D02*
Y356371D01*
X448577D01*
Y346211D01*
X438418D01*
X455954Y318775D02*
Y328935D01*
X466114D01*
Y318775D01*
X455954D01*
X473914Y300815D02*
Y310975D01*
X484074D01*
Y300815D01*
X473914D01*
X-102080Y-560080D02*
Y-549920D01*
X-91920D01*
Y-560080D01*
X-102080D01*
X-127480D02*
Y-549920D01*
X-117320D01*
Y-560080D01*
X-127480D01*
X-552540Y-2540D02*
Y-5080D01*
X-547460D01*
Y-2540D01*
X-544920D01*
Y2540D01*
X-547460D01*
Y5080D01*
X-552540D01*
Y2540D01*
X-555080D01*
Y-2540D01*
X-552540D01*
X-391450Y386370D02*
Y383830D01*
X-386370D01*
Y386370D01*
X-383830D01*
Y391450D01*
X-386370D01*
Y393990D01*
X-391450D01*
Y391450D01*
X-393990D01*
Y386370D01*
X-391450D01*
Y-391450D02*
Y-393990D01*
X-386370D01*
Y-391450D01*
X-383830D01*
Y-386370D01*
X-386370D01*
Y-383830D01*
X-391450D01*
Y-386370D01*
X-393990D01*
Y-391450D01*
X-391450D01*
X-2540Y-552540D02*
Y-555080D01*
X2540D01*
Y-552540D01*
X5080D01*
Y-547460D01*
X2540D01*
Y-544920D01*
X-2540D01*
Y-547460D01*
X-5080D01*
Y-552540D01*
X-2540D01*
X386370Y-391450D02*
Y-393990D01*
X391450D01*
Y-391450D01*
X393990D01*
Y-386370D01*
X391450D01*
Y-383830D01*
X386370D01*
Y-386370D01*
X383830D01*
Y-391450D01*
X386370D01*
X547460Y-2540D02*
Y-5080D01*
X552540D01*
Y-2540D01*
X555080D01*
Y2540D01*
X552540D01*
Y5080D01*
X547460D01*
Y2540D01*
X544920D01*
Y-2540D01*
X547460D01*
X386369Y386370D02*
Y383830D01*
X391449D01*
Y386370D01*
X393989D01*
Y391450D01*
X391449D01*
Y393990D01*
X386369D01*
Y391450D01*
X383829D01*
Y386370D01*
X386369D01*
X-2540Y547460D02*
Y544920D01*
X2540D01*
Y547460D01*
X5080D01*
Y552540D01*
X2540D01*
Y555080D01*
X-2540D01*
Y552540D01*
X-5080D01*
Y547460D01*
X-2540D01*
X-328930Y455950D02*
Y466110D01*
X-318770D01*
Y455950D01*
X-328930D01*
X-310969Y473911D02*
Y484071D01*
X-300809D01*
Y473911D01*
X-310969D01*
X300809Y-484070D02*
Y-473910D01*
X310970D01*
Y-484070D01*
X300809D01*
X318770Y-466110D02*
Y-455950D01*
X328930D01*
Y-466110D01*
X318770D01*
X-484070Y-310969D02*
Y-300809D01*
X-473910D01*
Y-310969D01*
X-484070D01*
X-466110Y-328930D02*
Y-318770D01*
X-455950D01*
Y-328930D01*
X-466110D01*
X549920Y-102080D02*
Y-91920D01*
X560080D01*
Y-102080D01*
X549920D01*
Y-127480D02*
Y-117320D01*
X560080D01*
Y-127480D01*
X549920D01*
X-560080Y117320D02*
Y127480D01*
X-549920D01*
Y117320D01*
X-560080D01*
Y91920D02*
Y102080D01*
X-549920D01*
Y91920D01*
X-560080D01*
X364170Y-430620D02*
Y-420460D01*
X374330D01*
Y-430620D01*
X364170D01*
X346210Y-448580D02*
Y-438420D01*
X356370D01*
Y-448580D01*
X346210D01*
X-70280Y-567080D02*
Y-556920D01*
X-60120D01*
Y-567080D01*
X-70280D01*
X-44880D02*
Y-556920D01*
X-34720D01*
Y-567080D01*
X-44880D01*
X-448581Y-356370D02*
Y-346210D01*
X-438420D01*
Y-356370D01*
X-448581D01*
X-430620Y-374330D02*
Y-364170D01*
X-420460D01*
Y-374330D01*
X-430620D01*
X-567080Y60120D02*
Y70280D01*
X-556920D01*
Y60120D01*
X-567080D01*
Y34720D02*
Y44880D01*
X-556920D01*
Y34720D01*
X-567080D01*
X-356370Y438420D02*
Y448580D01*
X-346210D01*
Y438420D01*
X-356370D01*
X-374330Y420460D02*
Y430620D01*
X-364170D01*
Y420460D01*
X-374330D01*
X60120Y556920D02*
Y567080D01*
X70280D01*
Y556920D01*
X60120D01*
X34720D02*
Y567080D01*
X44880D01*
Y556920D01*
X34720D01*
X556920Y-44880D02*
Y-34720D01*
X567080D01*
Y-44880D01*
X556920D01*
Y-70280D02*
Y-60120D01*
X567080D01*
Y-70280D01*
X556920D01*
X386500Y-297180D02*
X381420Y-287020D01*
X391580D01*
X386500Y-297180D01*
Y-322580D02*
X381420Y-312420D01*
X391580D01*
X386500Y-322580D01*
X361100Y-297180D02*
X356020Y-287020D01*
X366180D01*
X361100Y-297180D01*
Y-322580D02*
X356020Y-312420D01*
X366180D01*
X361100Y-322580D01*
X335700Y-297180D02*
X330620Y-287020D01*
X340780D01*
X335700Y-297180D01*
Y-322580D02*
X330620Y-312420D01*
X340780D01*
X335700Y-322580D01*
X310300Y-297180D02*
X305220Y-287020D01*
X315380D01*
X310300Y-297180D01*
Y-322580D02*
X305220Y-312420D01*
X315380D01*
X310300Y-322580D01*
X284900Y-297180D02*
X279820Y-287020D01*
X289980D01*
X284900Y-297180D01*
X259500D02*
X254420Y-287020D01*
X264580D01*
X259500Y-297180D01*
X234100D02*
X229020Y-287020D01*
X239180D01*
X234100Y-297180D01*
X284900Y-322580D02*
X279820Y-312420D01*
X289980D01*
X284900Y-322580D01*
X259500D02*
X254420Y-312420D01*
X264580D01*
X259500Y-322580D01*
X234100D02*
X229020Y-312420D01*
X239180D01*
X234100Y-322580D01*
X450000Y-19380D02*
X444920Y-9220D01*
X455080D01*
X450000Y-19380D01*
X424600D02*
X419520Y-9220D01*
X429680D01*
X424600Y-19380D01*
X399200D02*
X394120Y-9220D01*
X404280D01*
X399200Y-19380D01*
X450000Y-44780D02*
X444920Y-34620D01*
X455080D01*
X450000Y-44780D01*
X424600D02*
X419520Y-34620D01*
X429680D01*
X424600Y-44780D01*
X399200D02*
X394120Y-34620D01*
X404280D01*
X399200Y-44780D01*
X373800Y-19380D02*
X368720Y-9220D01*
X378880D01*
X373800Y-19380D01*
X348400D02*
X343320Y-9220D01*
X353480D01*
X348400Y-19380D01*
X373800Y-44780D02*
X368720Y-34620D01*
X378880D01*
X373800Y-44780D01*
X348400D02*
X343320Y-34620D01*
X353480D01*
X348400Y-44780D01*
X170600D02*
X165520Y-34620D01*
X175680D01*
X170600Y-44780D01*
Y-19380D02*
X165520Y-9220D01*
X175680D01*
X170600Y-19380D01*
X196000Y-44780D02*
X190920Y-34620D01*
X201080D01*
X196000Y-44780D01*
Y-19380D02*
X190920Y-9220D01*
X201080D01*
X196000Y-19380D01*
X221400Y-44780D02*
X216320Y-34620D01*
X226480D01*
X221400Y-44780D01*
Y-19380D02*
X216320Y-9220D01*
X226480D01*
X221400Y-19380D01*
X246800Y-44780D02*
X241720Y-34620D01*
X251880D01*
X246800Y-44780D01*
Y-19380D02*
X241720Y-9220D01*
X251880D01*
X246800Y-19380D01*
X272200Y-44780D02*
X267120Y-34620D01*
X277280D01*
X272200Y-44780D01*
X297600D02*
X292520Y-34620D01*
X302680D01*
X297600Y-44780D01*
X272200Y-19380D02*
X267120Y-9220D01*
X277280D01*
X272200Y-19380D01*
X297600D02*
X292520Y-9220D01*
X302680D01*
X297600Y-19380D01*
X323000Y-44780D02*
X317920Y-34620D01*
X328080D01*
X323000Y-44780D01*
Y-19380D02*
X317920Y-9220D01*
X328080D01*
X323000Y-19380D01*
X-38100Y83820D02*
X-35560Y86360D01*
X-33020D01*
X-35560Y88900D01*
X-33020Y91440D01*
X-35560D01*
X-38100Y93980D01*
X-40640Y91440D01*
X-43180D01*
X-40640Y88900D01*
X-43180Y86360D01*
X-40640D01*
X-38100Y83820D01*
Y58420D02*
X-35560Y60960D01*
X-33020D01*
X-35560Y63500D01*
X-33020Y66040D01*
X-35560D01*
X-38100Y68580D01*
X-40640Y66040D01*
X-43180D01*
X-40640Y63500D01*
X-43180Y60960D01*
X-40640D01*
X-38100Y58420D01*
Y33020D02*
X-35560Y35560D01*
X-33020D01*
X-35560Y38100D01*
X-33020Y40640D01*
X-35560D01*
X-38100Y43180D01*
X-40640Y40640D01*
X-43180D01*
X-40640Y38100D01*
X-43180Y35560D01*
X-40640D01*
X-38100Y33020D01*
Y7620D02*
X-35560Y10160D01*
X-33020D01*
X-35560Y12700D01*
X-33020Y15240D01*
X-35560D01*
X-38100Y17780D01*
X-40640Y15240D01*
X-43180D01*
X-40640Y12700D01*
X-43180Y10160D01*
X-40640D01*
X-38100Y7620D01*
Y-17780D02*
X-35560Y-15240D01*
X-33020D01*
X-35560Y-12700D01*
X-33020Y-10160D01*
X-35560D01*
X-38100Y-7620D01*
X-40640Y-10160D01*
X-43180D01*
X-40640Y-12700D01*
X-43180Y-15240D01*
X-40640D01*
X-38100Y-17780D01*
Y-43180D02*
X-35560Y-40640D01*
X-33020D01*
X-35560Y-38100D01*
X-33020Y-35560D01*
X-35560D01*
X-38100Y-33020D01*
X-40640Y-35560D01*
X-43180D01*
X-40640Y-38100D01*
X-43180Y-40640D01*
X-40640D01*
X-38100Y-43180D01*
Y-68580D02*
X-35560Y-66040D01*
X-33020D01*
X-35560Y-63500D01*
X-33020Y-60960D01*
X-35560D01*
X-38100Y-58420D01*
X-40640Y-60960D01*
X-43180D01*
X-40640Y-63500D01*
X-43180Y-66040D01*
X-40640D01*
X-38100Y-68580D01*
Y-93980D02*
X-35560Y-91440D01*
X-33020D01*
X-35560Y-88900D01*
X-33020Y-86360D01*
X-35560D01*
X-38100Y-83820D01*
X-40640Y-86360D01*
X-43180D01*
X-40640Y-88900D01*
X-43180Y-91440D01*
X-40640D01*
X-38100Y-93980D01*
X38100Y83820D02*
X40640Y86360D01*
X43180D01*
X40640Y88900D01*
X43180Y91440D01*
X40640D01*
X38100Y93980D01*
X35560Y91440D01*
X33020D01*
X35560Y88900D01*
X33020Y86360D01*
X35560D01*
X38100Y83820D01*
Y58420D02*
X40640Y60960D01*
X43180D01*
X40640Y63500D01*
X43180Y66040D01*
X40640D01*
X38100Y68580D01*
X35560Y66040D01*
X33020D01*
X35560Y63500D01*
X33020Y60960D01*
X35560D01*
X38100Y58420D01*
Y33020D02*
X40640Y35560D01*
X43180D01*
X40640Y38100D01*
X43180Y40640D01*
X40640D01*
X38100Y43180D01*
X35560Y40640D01*
X33020D01*
X35560Y38100D01*
X33020Y35560D01*
X35560D01*
X38100Y33020D01*
Y7620D02*
X40640Y10160D01*
X43180D01*
X40640Y12700D01*
X43180Y15240D01*
X40640D01*
X38100Y17780D01*
X35560Y15240D01*
X33020D01*
X35560Y12700D01*
X33020Y10160D01*
X35560D01*
X38100Y7620D01*
Y-17780D02*
X40640Y-15240D01*
X43180D01*
X40640Y-12700D01*
X43180Y-10160D01*
X40640D01*
X38100Y-7620D01*
X35560Y-10160D01*
X33020D01*
X35560Y-12700D01*
X33020Y-15240D01*
X35560D01*
X38100Y-17780D01*
Y-43180D02*
X40640Y-40640D01*
X43180D01*
X40640Y-38100D01*
X43180Y-35560D01*
X40640D01*
X38100Y-33020D01*
X35560Y-35560D01*
X33020D01*
X35560Y-38100D01*
X33020Y-40640D01*
X35560D01*
X38100Y-43180D01*
Y-68580D02*
X40640Y-66040D01*
X43180D01*
X40640Y-63500D01*
X43180Y-60960D01*
X40640D01*
X38100Y-58420D01*
X35560Y-60960D01*
X33020D01*
X35560Y-63500D01*
X33020Y-66040D01*
X35560D01*
X38100Y-68580D01*
Y-93980D02*
X40640Y-91440D01*
X43180D01*
X40640Y-88900D01*
X43180Y-86360D01*
X40640D01*
X38100Y-83820D01*
X35560Y-86360D01*
X33020D01*
X35560Y-88900D01*
X33020Y-91440D01*
X35560D01*
X38100Y-93980D01*
X229020Y-275080D02*
X231560Y-270000D01*
X229020Y-264920D01*
X234100Y-267460D01*
X239180Y-264920D01*
X236640Y-270000D01*
X239180Y-275080D01*
X234100Y-272540D01*
X229020Y-275080D01*
Y-255080D02*
X231560Y-250000D01*
X229020Y-244920D01*
X234100Y-247460D01*
X239180Y-244920D01*
X236640Y-250000D01*
X239180Y-255080D01*
X234100Y-252540D01*
X229020Y-255080D01*
X181426Y-282580D02*
X183966Y-277500D01*
X181426Y-272420D01*
X186506Y-274960D01*
X191586Y-272420D01*
X189046Y-277500D01*
X191586Y-282580D01*
X186506Y-280040D01*
X181426Y-282580D01*
X118420Y-44780D02*
X120960Y-39700D01*
X118420Y-34620D01*
X123500Y-37160D01*
X128580Y-34620D01*
X126040Y-39700D01*
X128580Y-44780D01*
X123500Y-42240D01*
X118420Y-44780D01*
X491160Y137420D02*
X493700Y142500D01*
X491160Y147580D01*
X496240Y145040D01*
X501320Y147580D01*
X498780Y142500D01*
X501320Y137420D01*
X496240Y139960D01*
X491160Y137420D01*
X267420Y-270080D02*
X269960Y-265000D01*
X267420Y-259920D01*
X272500Y-262460D01*
X277580Y-259920D01*
X275040Y-265000D01*
X277580Y-270080D01*
X272500Y-267540D01*
X267420Y-270080D01*
Y-287580D02*
X269960Y-282500D01*
X267420Y-277420D01*
X272500Y-279960D01*
X277580Y-277420D01*
X275040Y-282500D01*
X277580Y-287580D01*
X272500Y-285040D01*
X267420Y-287580D01*
X181426Y-292580D02*
X183966Y-287500D01*
X181426Y-282420D01*
X186506Y-284960D01*
X191586Y-282420D01*
X189046Y-287500D01*
X191586Y-292580D01*
X186506Y-290040D01*
X181426Y-292580D01*
Y-302772D02*
X183966Y-297692D01*
X181426Y-292612D01*
X186506Y-295152D01*
X191586Y-292612D01*
X189046Y-297692D01*
X191586Y-302772D01*
X186506Y-300232D01*
X181426Y-302772D01*
Y-312580D02*
X183966Y-307500D01*
X181426Y-302420D01*
X186506Y-304960D01*
X191586Y-302420D01*
X189046Y-307500D01*
X191586Y-312580D01*
X186506Y-310040D01*
X181426Y-312580D01*
D48*
X462180Y114650D02*
G03*
X462180Y114650I-5080J0D01*
G01*
X487580Y89250D02*
G03*
X487580Y89250I-5080J0D01*
G01*
X512980Y114650D02*
G03*
X512980Y114650I-5080J0D01*
G01*
M02*
