G04*
G04 #@! TF.GenerationSoftware,Altium Limited,Altium Designer,24.7.2 (38)*
G04*
G04 Layer_Color=16711935*
%FSLAX44Y44*%
%MOMM*%
G71*
G04*
G04 #@! TF.SameCoordinates,368DA5F4-0558-4B36-8F9D-AB2494F627D1*
G04*
G04*
G04 #@! TF.FilePolarity,Positive*
G04*
G01*
G75*
%ADD44C,0.1000*%
D44*
X70450Y515750D02*
X148950D01*
Y594250D01*
X70450D02*
X148950D01*
X70450Y515750D02*
Y594250D01*
X414506Y314875D02*
X470014Y259367D01*
X525522Y314875D01*
X470014Y370383D02*
X525522Y314875D01*
X414506D02*
X470014Y370383D01*
X-148950Y-515750D02*
X-70450D01*
X-148950Y-594250D02*
Y-515750D01*
Y-594250D02*
X-70450D01*
Y-515750D01*
X-314870Y414502D02*
X-259362Y470010D01*
X-314870Y525518D02*
X-259362Y470010D01*
X-370377D02*
X-314870Y525518D01*
X-370377Y470010D02*
X-314870Y414502D01*
X314870Y-414502D02*
X370378Y-470010D01*
X314870Y-525518D02*
X370378Y-470010D01*
X259362D02*
X314870Y-525518D01*
X259362Y-470010D02*
X314870Y-414502D01*
X-470010Y-370378D02*
X-414502Y-314870D01*
X-525518D02*
X-470010Y-370378D01*
X-525518Y-314870D02*
X-470010Y-259362D01*
X-414502Y-314870D01*
X515750Y-148950D02*
Y-70450D01*
Y-148950D02*
X594250D01*
Y-70450D01*
X515750D02*
X594250D01*
X-594250Y70450D02*
X-515750D01*
X-594250D02*
Y148950D01*
X-515750D01*
Y70450D02*
Y148950D01*
M02*
