G04*
G04 #@! TF.GenerationSoftware,Altium Limited,Altium Designer,24.6.1 (21)*
G04*
G04 Layer_Color=8388736*
%FSLAX44Y44*%
%MOMM*%
G71*
G04*
G04 #@! TF.SameCoordinates,7ED302C6-E4C6-4C30-95F2-E30C317DAF44*
G04*
G04*
G04 #@! TF.FilePolarity,Negative*
G04*
G01*
G75*
G04:AMPARAMS|DCode=18|XSize=0.972mm|YSize=0.802mm|CornerRadius=0mm|HoleSize=0mm|Usage=FLASHONLY|Rotation=45.000|XOffset=0mm|YOffset=0mm|HoleType=Round|Shape=Rectangle|*
%AMROTATEDRECTD18*
4,1,4,-0.0601,-0.6272,-0.6272,-0.0601,0.0601,0.6272,0.6272,0.0601,-0.0601,-0.6272,0.0*
%
%ADD18ROTATEDRECTD18*%

G04:AMPARAMS|DCode=19|XSize=0.972mm|YSize=0.802mm|CornerRadius=0mm|HoleSize=0mm|Usage=FLASHONLY|Rotation=135.000|XOffset=0mm|YOffset=0mm|HoleType=Round|Shape=Rectangle|*
%AMROTATEDRECTD19*
4,1,4,0.6272,-0.0601,0.0601,-0.6272,-0.6272,0.0601,-0.0601,0.6272,0.6272,-0.0601,0.0*
%
%ADD19ROTATEDRECTD19*%

%ADD20R,0.9720X0.8020*%
%ADD21R,0.8020X0.9720*%
%ADD22R,3.2000X1.6000*%
%ADD23R,2.6582X1.2557*%
%ADD24C,1.7032*%
%ADD25C,2.0000*%
%ADD26C,3.8032*%
G04:AMPARAMS|DCode=27|XSize=1.8032mm|YSize=1.8032mm|CornerRadius=0.5016mm|HoleSize=0mm|Usage=FLASHONLY|Rotation=180.000|XOffset=0mm|YOffset=0mm|HoleType=Round|Shape=RoundedRectangle|*
%AMROUNDEDRECTD27*
21,1,1.8032,0.8000,0,0,180.0*
21,1,0.8000,1.8032,0,0,180.0*
1,1,1.0032,-0.4000,0.4000*
1,1,1.0032,0.4000,0.4000*
1,1,1.0032,0.4000,-0.4000*
1,1,1.0032,-0.4000,-0.4000*
%
%ADD27ROUNDEDRECTD27*%
%ADD28C,1.8032*%
%ADD29C,1.4532*%
%ADD30R,1.4532X1.4532*%
%ADD31R,1.7032X1.7032*%
%ADD32C,0.7032*%
D18*
X432148Y287192D02*
D03*
X445583Y273757D02*
D03*
X451382Y292990D02*
D03*
X-451378Y-292988D02*
D03*
X-445580Y-273755D02*
D03*
X-432145Y-287190D02*
D03*
D19*
X-292988Y451378D02*
D03*
X-273755Y445579D02*
D03*
X-287190Y432145D02*
D03*
X292988Y-451378D02*
D03*
X273754Y-445580D02*
D03*
X287190Y-432145D02*
D03*
D20*
X-526350Y112000D02*
D03*
X-508650Y121500D02*
D03*
Y102500D02*
D03*
X508650Y-102498D02*
D03*
Y-121498D02*
D03*
X526350Y-111998D02*
D03*
D21*
X112000Y526350D02*
D03*
X121500Y508650D02*
D03*
X102500D02*
D03*
X-102500Y-508650D02*
D03*
X-121500D02*
D03*
X-112000Y-526350D02*
D03*
D22*
X425000Y65000D02*
D03*
X375000D02*
D03*
D23*
X425000Y142500D02*
D03*
Y114475D02*
D03*
D24*
X97000Y555000D02*
D03*
X122400D02*
D03*
X461034Y323855D02*
D03*
X478994Y305895D02*
D03*
X-97000Y-555000D02*
D03*
X-122400D02*
D03*
X-323850Y461030D02*
D03*
X-305889Y478991D02*
D03*
X305889Y-478990D02*
D03*
X323850Y-461030D02*
D03*
X-478990Y-305889D02*
D03*
X-461030Y-323850D02*
D03*
X555000Y-97000D02*
D03*
Y-122400D02*
D03*
X-555000Y122400D02*
D03*
Y97000D02*
D03*
X-38100Y88900D02*
D03*
Y63500D02*
D03*
Y38100D02*
D03*
Y12700D02*
D03*
Y-12700D02*
D03*
Y-38100D02*
D03*
Y-63500D02*
D03*
Y-88900D02*
D03*
X38100Y88900D02*
D03*
Y63500D02*
D03*
Y38100D02*
D03*
Y12700D02*
D03*
Y-12700D02*
D03*
Y-38100D02*
D03*
Y-63500D02*
D03*
D25*
X425537Y369251D02*
D03*
X443498Y351291D02*
D03*
X369250Y-425540D02*
D03*
X351290Y-443500D02*
D03*
X-65200Y-562000D02*
D03*
X-39800D02*
D03*
X-443501Y-351290D02*
D03*
X-425540Y-369250D02*
D03*
X-562000Y65200D02*
D03*
Y39800D02*
D03*
X-351290Y443500D02*
D03*
X-369250Y425540D02*
D03*
X65200Y562000D02*
D03*
X39800D02*
D03*
X562000Y-39800D02*
D03*
Y-65200D02*
D03*
D26*
X-550000Y-0D02*
D03*
X-388910Y388910D02*
D03*
Y-388910D02*
D03*
X-0Y-550000D02*
D03*
X388910Y-388910D02*
D03*
X550000Y-0D02*
D03*
X388909Y388910D02*
D03*
X-0Y550000D02*
D03*
D27*
X386500Y-292100D02*
D03*
X170600Y-39700D02*
D03*
D28*
X386500Y-317500D02*
D03*
X361100Y-292100D02*
D03*
Y-317500D02*
D03*
X335700Y-292100D02*
D03*
Y-317500D02*
D03*
X310300Y-292100D02*
D03*
Y-317500D02*
D03*
X284900Y-292100D02*
D03*
X259500D02*
D03*
X234100D02*
D03*
X284900Y-317500D02*
D03*
X259500D02*
D03*
X234100D02*
D03*
X450000Y-14300D02*
D03*
X424600D02*
D03*
X399200D02*
D03*
X450000Y-39700D02*
D03*
X424600D02*
D03*
X399200D02*
D03*
X373800Y-14300D02*
D03*
X348400D02*
D03*
X373800Y-39700D02*
D03*
X348400D02*
D03*
X170600Y-14300D02*
D03*
X196000Y-39700D02*
D03*
Y-14300D02*
D03*
X221400Y-39700D02*
D03*
Y-14300D02*
D03*
X246800Y-39700D02*
D03*
Y-14300D02*
D03*
X272200Y-39700D02*
D03*
X297600D02*
D03*
X272200Y-14300D02*
D03*
X297600D02*
D03*
X323000Y-39700D02*
D03*
Y-14300D02*
D03*
D29*
X457100Y114650D02*
D03*
X482500Y89250D02*
D03*
D30*
X507900Y114650D02*
D03*
D31*
X38100Y-88900D02*
D03*
D32*
X234100Y-270000D02*
D03*
Y-250000D02*
D03*
X186506Y-277500D02*
D03*
X123500Y-39700D02*
D03*
X496240Y142500D02*
D03*
X272500Y-265000D02*
D03*
Y-282500D02*
D03*
X186506Y-287500D02*
D03*
Y-297692D02*
D03*
Y-307500D02*
D03*
M02*
