G04*
G04 #@! TF.GenerationSoftware,Altium Limited,Altium Designer,24.7.2 (38)*
G04*
G04 Layer_Color=16711935*
%FSLAX44Y44*%
%MOMM*%
G71*
G04*
G04 #@! TF.SameCoordinates,368DA5F4-0558-4B36-8F9D-AB2494F627D1*
G04*
G04*
G04 #@! TF.FilePolarity,Positive*
G04*
G01*
G75*
%ADD13C,0.2000*%
G36*
X440729Y363110D02*
X440773Y363056D01*
X440832Y362997D01*
X440886Y362933D01*
X441014Y362796D01*
X441131Y362649D01*
X441249Y362502D01*
X441293Y362428D01*
X441337Y362365D01*
X441342Y362360D01*
X441352Y362340D01*
X441367Y362316D01*
X441381Y362281D01*
X441406Y362237D01*
X441435Y362188D01*
X441494Y362061D01*
X441553Y361913D01*
X441607Y361752D01*
X441651Y361570D01*
X441676Y361379D01*
Y361369D01*
Y361350D01*
X441680Y361315D01*
Y361266D01*
Y361207D01*
X441676Y361134D01*
Y361055D01*
X441666Y360967D01*
X441656Y360869D01*
X441641Y360766D01*
X441622Y360658D01*
X441597Y360546D01*
X441529Y360310D01*
X441435Y360070D01*
X441431Y360065D01*
X441426Y360041D01*
X441401Y360006D01*
X441381Y359957D01*
X441352Y359898D01*
X441313Y359830D01*
X441269Y359756D01*
X441220Y359668D01*
X441156Y359575D01*
X441087Y359477D01*
X441014Y359374D01*
X440935Y359266D01*
X440852Y359153D01*
X440754Y359045D01*
X440543Y358815D01*
X440538Y358810D01*
X440518Y358790D01*
X440494Y358766D01*
X440455Y358726D01*
X440406Y358687D01*
X440352Y358633D01*
X440288Y358579D01*
X440219Y358521D01*
X440062Y358393D01*
X439886Y358265D01*
X439700Y358138D01*
X439504Y358020D01*
X439499Y358015D01*
X439479Y358006D01*
X439450Y357996D01*
X439420Y357976D01*
X439371Y357957D01*
X439317Y357932D01*
X439190Y357873D01*
X439043Y357814D01*
X438876Y357756D01*
X438709Y357706D01*
X438538Y357672D01*
X438533Y357667D01*
X438518Y357672D01*
X438493Y357667D01*
X438459Y357662D01*
X438381Y357653D01*
X438268Y357648D01*
X438140Y357638D01*
X438003D01*
X437861Y357653D01*
X437714Y357672D01*
X437709Y357677D01*
X437699D01*
X437650Y357687D01*
X437576Y357711D01*
X437478Y357741D01*
X437366Y357785D01*
X437233Y357839D01*
X437091Y357912D01*
X436944Y357991D01*
X436939Y357996D01*
X436924Y358001D01*
X436910Y358015D01*
X436880Y358035D01*
X436846Y358060D01*
X436797Y358089D01*
X436753Y358123D01*
X436704Y358162D01*
X436581Y358256D01*
X436444Y358363D01*
X436302Y358496D01*
X436150Y358638D01*
X434517Y360271D01*
X439043Y364797D01*
X440729Y363110D01*
D02*
G37*
G36*
X443529Y359663D02*
X443539D01*
X443563Y359658D01*
X443598Y359653D01*
X443652Y359648D01*
X443715Y359633D01*
X443794Y359614D01*
X443877Y359589D01*
X443975Y359560D01*
X444073Y359521D01*
X444181Y359472D01*
X444294Y359418D01*
X444412Y359349D01*
X444534Y359276D01*
X444652Y359187D01*
X444775Y359084D01*
X444897Y358971D01*
X444961Y358908D01*
X445000Y358859D01*
X445049Y358800D01*
X445103Y358726D01*
X445167Y358643D01*
X445226Y358555D01*
X445289Y358452D01*
X445348Y358344D01*
X445407Y358226D01*
X445456Y358109D01*
X445500Y357976D01*
X445535Y357844D01*
X445559Y357711D01*
X445569Y357574D01*
Y357564D01*
Y357545D01*
X445564Y357501D01*
Y357452D01*
X445559Y357388D01*
X445549Y357309D01*
X445535Y357226D01*
X445510Y357133D01*
X445485Y357040D01*
X445451Y356937D01*
X445412Y356829D01*
X445363Y356721D01*
X445299Y356608D01*
X445230Y356500D01*
X445147Y356397D01*
X445054Y356294D01*
X445049Y356289D01*
X445044Y356285D01*
X445029Y356270D01*
X445010Y356250D01*
X444951Y356201D01*
X444873Y356142D01*
X444775Y356074D01*
X444667Y356005D01*
X444544Y355932D01*
X444407Y355873D01*
X444402Y355868D01*
X444392D01*
X444372Y355858D01*
X444343Y355848D01*
X444260Y355824D01*
X444152Y355794D01*
X444015Y355765D01*
X443858Y355735D01*
X443686Y355711D01*
X443485Y355696D01*
X443475D01*
X443460Y355691D01*
X443426Y355696D01*
X443382Y355691D01*
X443323D01*
X443255D01*
X443171Y355686D01*
X443078Y355691D01*
X442965Y355696D01*
X442843Y355701D01*
X442705D01*
X442558Y355711D01*
X442396Y355716D01*
X442225Y355731D01*
X442034Y355745D01*
X441833Y355760D01*
X441823D01*
X441793D01*
X441744Y355770D01*
X441685D01*
X441607Y355780D01*
X441524Y355784D01*
X441332Y355799D01*
X441131Y355814D01*
X440930Y355819D01*
X440837Y355824D01*
X440754Y355829D01*
X440675D01*
X440616D01*
X440607D01*
X440568D01*
X440514Y355824D01*
X440440Y355819D01*
X440357Y355814D01*
X440268Y355804D01*
X440082Y355775D01*
X442313Y353544D01*
X441779Y353009D01*
X438783Y356005D01*
X438792Y356015D01*
X438817Y356039D01*
X438856Y356079D01*
X438910Y356123D01*
X438974Y356177D01*
X439052Y356226D01*
X439136Y356280D01*
X439229Y356324D01*
X439234Y356329D01*
X439249Y356334D01*
X439268Y356343D01*
X439302Y356358D01*
X439342Y356368D01*
X439391Y356388D01*
X439508Y356427D01*
X439651Y356471D01*
X439817Y356510D01*
X439999Y356544D01*
X440195Y356564D01*
X440205D01*
X440219Y356569D01*
X440249D01*
X440298D01*
X440347D01*
X440415D01*
X440489Y356574D01*
X440577D01*
X440675D01*
X440778Y356569D01*
X440896D01*
X441023Y356559D01*
X441156Y356554D01*
X441298Y356539D01*
X441445Y356530D01*
X441607Y356515D01*
X441622Y356510D01*
X441671D01*
X441735Y356505D01*
X441828Y356500D01*
X441936Y356491D01*
X442063Y356481D01*
X442205Y356466D01*
X442357Y356461D01*
X442676Y356446D01*
X442999D01*
X443156D01*
X443308Y356451D01*
X443446Y356461D01*
X443568Y356476D01*
X443578D01*
X443593Y356481D01*
X443627Y356486D01*
X443666Y356495D01*
X443725Y356505D01*
X443779Y356520D01*
X443916Y356559D01*
X444068Y356613D01*
X444225Y356682D01*
X444372Y356770D01*
X444436Y356824D01*
X444500Y356878D01*
X444505Y356883D01*
X444515Y356893D01*
X444534Y356912D01*
X444549Y356937D01*
X444578Y356966D01*
X444603Y357010D01*
X444662Y357099D01*
X444720Y357216D01*
X444770Y357354D01*
X444794Y357427D01*
X444804Y357505D01*
X444814Y357584D01*
Y357672D01*
Y357682D01*
Y357692D01*
X444809Y357716D01*
X444804Y357751D01*
X444799Y357795D01*
X444789Y357844D01*
X444765Y357957D01*
X444711Y358089D01*
X444647Y358231D01*
X444549Y358378D01*
X444490Y358457D01*
X444382Y358565D01*
X444348Y358589D01*
X444314Y358623D01*
X444264Y358653D01*
X444162Y358726D01*
X444029Y358800D01*
X443877Y358864D01*
X443794Y358888D01*
X443711Y358913D01*
X443622Y358923D01*
X443529Y358927D01*
X443519D01*
X443509D01*
X443485Y358923D01*
X443446D01*
X443406Y358913D01*
X443357Y358903D01*
X443299Y358893D01*
X443240Y358873D01*
X443171Y358854D01*
X443102Y358825D01*
X442946Y358746D01*
X442789Y358648D01*
X442710Y358579D01*
X442627Y358506D01*
X442117Y359133D01*
X442127Y359143D01*
X442151Y359158D01*
X442186Y359182D01*
X442235Y359222D01*
X442298Y359266D01*
X442377Y359315D01*
X442460Y359369D01*
X442558Y359418D01*
X442656Y359467D01*
X442769Y359521D01*
X442887Y359560D01*
X443004Y359599D01*
X443137Y359633D01*
X443264Y359653D01*
X443397Y359668D01*
X443529Y359663D01*
D02*
G37*
G36*
X449446Y297365D02*
X449495D01*
X449558Y297360D01*
X449637Y297350D01*
X449720Y297335D01*
X449813Y297311D01*
X449907Y297286D01*
X450010Y297252D01*
X450117Y297213D01*
X450225Y297164D01*
X450338Y297100D01*
X450446Y297031D01*
X450549Y296948D01*
X450652Y296855D01*
X450657Y296850D01*
X450662Y296845D01*
X450676Y296830D01*
X450696Y296810D01*
X450745Y296752D01*
X450804Y296673D01*
X450873Y296575D01*
X450941Y296467D01*
X451015Y296345D01*
X451074Y296207D01*
X451078Y296203D01*
Y296193D01*
X451088Y296173D01*
X451098Y296144D01*
X451123Y296060D01*
X451152Y295952D01*
X451181Y295815D01*
X451211Y295658D01*
X451235Y295487D01*
X451250Y295286D01*
Y295276D01*
X451255Y295261D01*
X451250Y295227D01*
X451255Y295183D01*
Y295124D01*
Y295055D01*
X451260Y294972D01*
X451255Y294879D01*
X451250Y294766D01*
X451245Y294643D01*
Y294506D01*
X451235Y294359D01*
X451231Y294197D01*
X451216Y294025D01*
X451201Y293834D01*
X451186Y293633D01*
Y293623D01*
Y293594D01*
X451177Y293545D01*
Y293486D01*
X451167Y293408D01*
X451162Y293324D01*
X451147Y293133D01*
X451133Y292932D01*
X451128Y292731D01*
X451123Y292638D01*
X451118Y292554D01*
Y292476D01*
Y292417D01*
Y292407D01*
Y292368D01*
X451123Y292314D01*
X451128Y292241D01*
X451133Y292157D01*
X451142Y292069D01*
X451172Y291883D01*
X453403Y294114D01*
X453937Y293579D01*
X450941Y290583D01*
X450932Y290593D01*
X450907Y290618D01*
X450868Y290657D01*
X450824Y290711D01*
X450770Y290775D01*
X450721Y290853D01*
X450667Y290936D01*
X450622Y291030D01*
X450618Y291035D01*
X450613Y291049D01*
X450603Y291069D01*
X450588Y291103D01*
X450578Y291142D01*
X450559Y291191D01*
X450520Y291309D01*
X450476Y291451D01*
X450436Y291618D01*
X450402Y291799D01*
X450382Y291996D01*
Y292005D01*
X450377Y292020D01*
Y292050D01*
Y292099D01*
Y292148D01*
Y292216D01*
X450373Y292290D01*
Y292378D01*
Y292476D01*
X450377Y292579D01*
Y292697D01*
X450387Y292824D01*
X450392Y292957D01*
X450407Y293099D01*
X450417Y293246D01*
X450431Y293408D01*
X450436Y293422D01*
Y293471D01*
X450441Y293535D01*
X450446Y293628D01*
X450456Y293736D01*
X450466Y293864D01*
X450480Y294006D01*
X450485Y294158D01*
X450500Y294477D01*
Y294800D01*
Y294957D01*
X450495Y295109D01*
X450485Y295246D01*
X450471Y295369D01*
Y295379D01*
X450466Y295394D01*
X450461Y295428D01*
X450451Y295467D01*
X450441Y295526D01*
X450426Y295580D01*
X450387Y295717D01*
X450333Y295869D01*
X450265Y296026D01*
X450176Y296173D01*
X450122Y296237D01*
X450069Y296301D01*
X450064Y296306D01*
X450054Y296315D01*
X450034Y296335D01*
X450010Y296350D01*
X449980Y296379D01*
X449936Y296404D01*
X449848Y296462D01*
X449730Y296521D01*
X449593Y296570D01*
X449519Y296595D01*
X449441Y296605D01*
X449362Y296614D01*
X449254D01*
X449230Y296609D01*
X449196Y296605D01*
X449152Y296600D01*
X449103Y296590D01*
X448990Y296565D01*
X448857Y296511D01*
X448715Y296448D01*
X448568Y296350D01*
X448490Y296291D01*
X448382Y296183D01*
X448357Y296149D01*
X448323Y296114D01*
X448293Y296065D01*
X448220Y295962D01*
X448146Y295830D01*
X448083Y295678D01*
X448058Y295595D01*
X448034Y295511D01*
X448024Y295423D01*
X448019Y295330D01*
Y295320D01*
Y295310D01*
X448024Y295286D01*
Y295246D01*
X448034Y295207D01*
X448044Y295158D01*
X448053Y295099D01*
X448073Y295040D01*
X448092Y294972D01*
X448122Y294903D01*
X448200Y294746D01*
X448298Y294589D01*
X448367Y294511D01*
X448441Y294428D01*
X447813Y293918D01*
X447803Y293927D01*
X447789Y293952D01*
X447764Y293986D01*
X447725Y294035D01*
X447681Y294099D01*
X447632Y294177D01*
X447578Y294261D01*
X447529Y294359D01*
X447480Y294457D01*
X447426Y294570D01*
X447386Y294687D01*
X447347Y294805D01*
X447313Y294937D01*
X447293Y295065D01*
X447279Y295197D01*
X447284Y295330D01*
Y295340D01*
X447288Y295364D01*
X447293Y295398D01*
X447298Y295452D01*
X447313Y295516D01*
X447332Y295595D01*
X447357Y295678D01*
X447386Y295776D01*
X447426Y295874D01*
X447475Y295982D01*
X447529Y296095D01*
X447597Y296212D01*
X447671Y296335D01*
X447759Y296453D01*
X447862Y296575D01*
X447975Y296698D01*
X448039Y296761D01*
X448088Y296801D01*
X448146Y296850D01*
X448220Y296904D01*
X448303Y296967D01*
X448392Y297026D01*
X448495Y297090D01*
X448602Y297149D01*
X448720Y297208D01*
X448838Y297257D01*
X448970Y297301D01*
X449103Y297335D01*
X449235Y297360D01*
X449372Y297369D01*
X449402D01*
X449446Y297365D01*
D02*
G37*
G36*
X445974Y293422D02*
X446112Y293413D01*
X446254Y293388D01*
X446401Y293368D01*
X446548Y293329D01*
X446700Y293285D01*
X446710D01*
X446734Y293270D01*
X446778Y293256D01*
X446832Y293231D01*
X446906Y293207D01*
X446989Y293162D01*
X447082Y293118D01*
X447185Y293064D01*
X447293Y293006D01*
X447411Y292937D01*
X447533Y292863D01*
X447661Y292775D01*
X447784Y292682D01*
X447916Y292579D01*
X448044Y292461D01*
X448171Y292344D01*
X448176Y292339D01*
X448195Y292319D01*
X448225Y292290D01*
X448259Y292246D01*
X448308Y292197D01*
X448362Y292133D01*
X448421Y292064D01*
X448485Y291991D01*
X448553Y291902D01*
X448617Y291809D01*
X448759Y291608D01*
X448892Y291397D01*
X449005Y291167D01*
X449009Y291162D01*
X449014Y291138D01*
X449029Y291103D01*
X449044Y291059D01*
X449068Y291005D01*
X449088Y290936D01*
X449117Y290858D01*
X449142Y290775D01*
X449191Y290578D01*
X449230Y290363D01*
X449259Y290127D01*
X449264Y289877D01*
X449274D01*
X449299Y289882D01*
X449333Y289887D01*
X449387Y289902D01*
X449441Y289917D01*
X449514Y289931D01*
X449593Y289951D01*
X449681Y289970D01*
X449868Y290019D01*
X450069Y290083D01*
X450274Y290152D01*
X450461Y290230D01*
X450691Y289637D01*
X450686Y289632D01*
X450662Y289627D01*
X450622Y289608D01*
X450574Y289588D01*
X450510Y289564D01*
X450436Y289529D01*
X450348Y289500D01*
X450250Y289470D01*
X450147Y289436D01*
X450029Y289397D01*
X449774Y289328D01*
X449485Y289264D01*
X449171Y289215D01*
Y289206D01*
X449156Y289181D01*
X449147Y289142D01*
X449127Y289083D01*
X449098Y289014D01*
X449068Y288936D01*
X449029Y288848D01*
X448980Y288750D01*
X448926Y288647D01*
X448862Y288534D01*
X448798Y288421D01*
X448720Y288303D01*
X448544Y288058D01*
X448441Y287945D01*
X448333Y287828D01*
X448274Y287769D01*
X448225Y287730D01*
X448166Y287681D01*
X448097Y287622D01*
X448019Y287563D01*
X447926Y287499D01*
X447828Y287431D01*
X447720Y287362D01*
X447602Y287293D01*
X447485Y287225D01*
X447352Y287161D01*
X447215Y287102D01*
X447073Y287048D01*
X446926Y287009D01*
X446916D01*
X446891Y287004D01*
X446847Y286989D01*
X446788Y286980D01*
X446720Y286970D01*
X446631Y286960D01*
X446533Y286950D01*
X446425Y286940D01*
X446313Y286935D01*
X446185D01*
X446053Y286940D01*
X445915Y286950D01*
X445773Y286965D01*
X445631Y286989D01*
X445479Y287024D01*
X445327Y287068D01*
X445317D01*
X445293Y287083D01*
X445249Y287097D01*
X445190Y287117D01*
X445116Y287151D01*
X445038Y287190D01*
X444945Y287234D01*
X444842Y287288D01*
X444724Y287347D01*
X444606Y287416D01*
X444489Y287494D01*
X444361Y287583D01*
X444234Y287671D01*
X444101Y287774D01*
X443974Y287892D01*
X443846Y288009D01*
X443837Y288019D01*
X443817Y288039D01*
X443783Y288073D01*
X443738Y288127D01*
X443685Y288191D01*
X443621Y288264D01*
X443552Y288352D01*
X443474Y288451D01*
X443400Y288554D01*
X443317Y288666D01*
X443160Y288921D01*
X443091Y289058D01*
X443018Y289201D01*
X442949Y289348D01*
X442895Y289500D01*
Y289510D01*
X442885Y289539D01*
X442871Y289583D01*
X442856Y289637D01*
X442836Y289715D01*
X442817Y289804D01*
X442802Y289897D01*
X442782Y290005D01*
X442768Y290127D01*
X442758Y290255D01*
X442748Y290382D01*
Y290520D01*
X442758Y290667D01*
X442772Y290809D01*
X442792Y290956D01*
X442831Y291103D01*
Y291113D01*
X442841Y291142D01*
X442856Y291177D01*
X442876Y291236D01*
X442900Y291309D01*
X442929Y291388D01*
X442974Y291481D01*
X443013Y291579D01*
X443072Y291687D01*
X443130Y291794D01*
X443199Y291912D01*
X443278Y292040D01*
X443361Y292162D01*
X443459Y292280D01*
X443562Y292402D01*
X443670Y292520D01*
X443729Y292579D01*
X443778Y292618D01*
X443841Y292672D01*
X443910Y292731D01*
X443988Y292790D01*
X444082Y292854D01*
X444185Y292927D01*
X444292Y292996D01*
X444410Y293064D01*
X444538Y293133D01*
X444670Y293197D01*
X444807Y293256D01*
X444945Y293305D01*
X445097Y293349D01*
X445106D01*
X445136Y293359D01*
X445175Y293368D01*
X445234Y293378D01*
X445307Y293393D01*
X445391Y293398D01*
X445489Y293408D01*
X445597Y293417D01*
X445719Y293422D01*
X445842Y293427D01*
X445974Y293422D01*
D02*
G37*
G36*
X364796Y-439045D02*
X363109Y-440732D01*
X363055Y-440776D01*
X362996Y-440835D01*
X362932Y-440889D01*
X362795Y-441017D01*
X362648Y-441134D01*
X362501Y-441252D01*
X362427Y-441296D01*
X362364Y-441340D01*
X362359Y-441345D01*
X362339Y-441355D01*
X362315Y-441370D01*
X362280Y-441384D01*
X362236Y-441409D01*
X362187Y-441438D01*
X362060Y-441497D01*
X361913Y-441556D01*
X361751Y-441610D01*
X361569Y-441654D01*
X361378Y-441679D01*
X361368D01*
X361349D01*
X361314Y-441683D01*
X361265D01*
X361207D01*
X361133Y-441679D01*
X361054D01*
X360966Y-441669D01*
X360868Y-441659D01*
X360765Y-441644D01*
X360657Y-441625D01*
X360545Y-441600D01*
X360309Y-441531D01*
X360069Y-441438D01*
X360064Y-441433D01*
X360039Y-441428D01*
X360005Y-441404D01*
X359956Y-441384D01*
X359897Y-441355D01*
X359829Y-441316D01*
X359755Y-441272D01*
X359667Y-441222D01*
X359574Y-441159D01*
X359476Y-441090D01*
X359373Y-441017D01*
X359265Y-440938D01*
X359152Y-440855D01*
X359044Y-440757D01*
X358814Y-440546D01*
X358809Y-440541D01*
X358789Y-440521D01*
X358765Y-440497D01*
X358726Y-440458D01*
X358686Y-440409D01*
X358632Y-440355D01*
X358578Y-440291D01*
X358520Y-440222D01*
X358392Y-440065D01*
X358265Y-439889D01*
X358137Y-439702D01*
X358019Y-439506D01*
X358014Y-439501D01*
X358005Y-439482D01*
X357995Y-439453D01*
X357975Y-439423D01*
X357956Y-439374D01*
X357931Y-439320D01*
X357872Y-439193D01*
X357813Y-439045D01*
X357755Y-438879D01*
X357706Y-438712D01*
X357671Y-438540D01*
X357666Y-438536D01*
X357671Y-438521D01*
X357666Y-438496D01*
X357662Y-438462D01*
X357652Y-438384D01*
X357647Y-438271D01*
X357637Y-438143D01*
Y-438006D01*
X357652Y-437864D01*
X357671Y-437717D01*
X357676Y-437712D01*
Y-437702D01*
X357686Y-437653D01*
X357710Y-437579D01*
X357740Y-437481D01*
X357784Y-437369D01*
X357838Y-437236D01*
X357912Y-437094D01*
X357990Y-436947D01*
X357995Y-436942D01*
X358000Y-436927D01*
X358014Y-436913D01*
X358034Y-436883D01*
X358059Y-436849D01*
X358088Y-436800D01*
X358122Y-436756D01*
X358162Y-436707D01*
X358255Y-436584D01*
X358363Y-436447D01*
X358495Y-436305D01*
X358637Y-436153D01*
X360270Y-434520D01*
X364796Y-439045D01*
D02*
G37*
G36*
X357710Y-440266D02*
X358573Y-445268D01*
X358117Y-445724D01*
X355185Y-442792D01*
X354572Y-443405D01*
X354062Y-442895D01*
X354675Y-442282D01*
X353592Y-441198D01*
X354146Y-440644D01*
X355229Y-441728D01*
X357201Y-439757D01*
X357710Y-440266D01*
D02*
G37*
G36*
X-60550Y-562007D02*
X-60474Y-562014D01*
X-60391Y-562028D01*
X-60294Y-562042D01*
X-60190Y-562062D01*
X-60079Y-562083D01*
X-59961Y-562118D01*
X-59843Y-562159D01*
X-59725Y-562208D01*
X-59607Y-562263D01*
X-59489Y-562326D01*
X-59379Y-562402D01*
X-59268Y-562485D01*
X-59261Y-562492D01*
X-59247Y-562506D01*
X-59219Y-562534D01*
X-59184Y-562575D01*
X-59136Y-562624D01*
X-59087Y-562679D01*
X-59039Y-562749D01*
X-58983Y-562832D01*
X-58928Y-562915D01*
X-58872Y-563012D01*
X-58824Y-563123D01*
X-58775Y-563234D01*
X-58727Y-563359D01*
X-58692Y-563491D01*
X-58664Y-563636D01*
X-58644Y-563782D01*
X-59469Y-563844D01*
Y-563838D01*
X-59476Y-563817D01*
X-59483Y-563789D01*
X-59489Y-563747D01*
X-59496Y-563699D01*
X-59517Y-563636D01*
X-59552Y-563505D01*
X-59607Y-563359D01*
X-59684Y-563206D01*
X-59774Y-563068D01*
X-59829Y-563005D01*
X-59885Y-562943D01*
X-59892D01*
X-59899Y-562929D01*
X-59920Y-562915D01*
X-59947Y-562894D01*
X-60016Y-562846D01*
X-60114Y-562797D01*
X-60231Y-562742D01*
X-60370Y-562693D01*
X-60523Y-562659D01*
X-60606Y-562652D01*
X-60696Y-562645D01*
X-60752D01*
X-60793Y-562652D01*
X-60842Y-562659D01*
X-60897Y-562666D01*
X-61029Y-562700D01*
X-61182Y-562749D01*
X-61258Y-562784D01*
X-61341Y-562825D01*
X-61424Y-562874D01*
X-61501Y-562929D01*
X-61577Y-562991D01*
X-61653Y-563068D01*
X-61660Y-563075D01*
X-61667Y-563089D01*
X-61688Y-563109D01*
X-61715Y-563144D01*
X-61743Y-563193D01*
X-61778Y-563241D01*
X-61813Y-563303D01*
X-61854Y-563373D01*
X-61889Y-563449D01*
X-61923Y-563532D01*
X-61958Y-563629D01*
X-61986Y-563727D01*
X-62014Y-563838D01*
X-62034Y-563955D01*
X-62041Y-564073D01*
X-62048Y-564205D01*
Y-564212D01*
Y-564233D01*
Y-564267D01*
X-62041Y-564316D01*
X-62034Y-564371D01*
X-62028Y-564441D01*
X-62014Y-564510D01*
X-62000Y-564593D01*
X-61958Y-564760D01*
X-61889Y-564940D01*
X-61847Y-565023D01*
X-61792Y-565106D01*
X-61736Y-565190D01*
X-61667Y-565266D01*
X-61660Y-565273D01*
X-61653Y-565280D01*
X-61625Y-565301D01*
X-61597Y-565328D01*
X-61563Y-565356D01*
X-61514Y-565391D01*
X-61466Y-565425D01*
X-61403Y-565467D01*
X-61334Y-565502D01*
X-61265Y-565536D01*
X-61091Y-565599D01*
X-61001Y-565626D01*
X-60897Y-565647D01*
X-60793Y-565654D01*
X-60682Y-565661D01*
X-60620D01*
X-60543Y-565654D01*
X-60453Y-565640D01*
X-60342Y-565620D01*
X-60225Y-565585D01*
X-60107Y-565543D01*
X-59989Y-565481D01*
X-59975Y-565474D01*
X-59940Y-565453D01*
X-59885Y-565411D01*
X-59816Y-565363D01*
X-59746Y-565294D01*
X-59663Y-565217D01*
X-59587Y-565127D01*
X-59517Y-565030D01*
X-58782Y-565134D01*
X-59399Y-568421D01*
X-62582D01*
Y-567672D01*
X-60023D01*
X-59684Y-565952D01*
X-59691Y-565959D01*
X-59711Y-565973D01*
X-59739Y-565987D01*
X-59781Y-566015D01*
X-59836Y-566043D01*
X-59899Y-566077D01*
X-59968Y-566119D01*
X-60051Y-566153D01*
X-60134Y-566188D01*
X-60231Y-566230D01*
X-60433Y-566292D01*
X-60543Y-566320D01*
X-60655Y-566341D01*
X-60772Y-566348D01*
X-60890Y-566355D01*
X-60925D01*
X-60974Y-566348D01*
X-61029D01*
X-61098Y-566334D01*
X-61182Y-566327D01*
X-61279Y-566306D01*
X-61376Y-566285D01*
X-61487Y-566251D01*
X-61597Y-566216D01*
X-61715Y-566167D01*
X-61833Y-566112D01*
X-61951Y-566043D01*
X-62069Y-565966D01*
X-62187Y-565876D01*
X-62298Y-565772D01*
X-62305Y-565765D01*
X-62326Y-565744D01*
X-62353Y-565710D01*
X-62388Y-565668D01*
X-62437Y-565613D01*
X-62485Y-565536D01*
X-62534Y-565460D01*
X-62589Y-565370D01*
X-62645Y-565266D01*
X-62693Y-565148D01*
X-62749Y-565030D01*
X-62790Y-564892D01*
X-62825Y-564753D01*
X-62853Y-564600D01*
X-62873Y-564441D01*
X-62880Y-564274D01*
Y-564267D01*
Y-564233D01*
Y-564191D01*
X-62873Y-564129D01*
X-62867Y-564052D01*
X-62853Y-563969D01*
X-62839Y-563872D01*
X-62818Y-563761D01*
X-62790Y-563650D01*
X-62756Y-563525D01*
X-62714Y-563401D01*
X-62665Y-563276D01*
X-62610Y-563151D01*
X-62541Y-563019D01*
X-62464Y-562894D01*
X-62374Y-562776D01*
X-62367Y-562770D01*
X-62346Y-562742D01*
X-62312Y-562707D01*
X-62263Y-562659D01*
X-62201Y-562596D01*
X-62125Y-562534D01*
X-62034Y-562458D01*
X-61930Y-562388D01*
X-61819Y-562319D01*
X-61695Y-562243D01*
X-61556Y-562180D01*
X-61403Y-562125D01*
X-61244Y-562069D01*
X-61070Y-562035D01*
X-60890Y-562007D01*
X-60696Y-562000D01*
X-60613D01*
X-60550Y-562007D01*
D02*
G37*
G36*
X-52500Y-568504D02*
X-54885D01*
X-54955Y-568497D01*
X-55038D01*
X-55121Y-568490D01*
X-55308Y-568483D01*
X-55495Y-568463D01*
X-55683Y-568442D01*
X-55766Y-568421D01*
X-55842Y-568407D01*
X-55849D01*
X-55870Y-568400D01*
X-55898Y-568393D01*
X-55932Y-568379D01*
X-55981Y-568366D01*
X-56036Y-568352D01*
X-56168Y-568303D01*
X-56314Y-568241D01*
X-56466Y-568164D01*
X-56626Y-568067D01*
X-56778Y-567949D01*
X-56785Y-567943D01*
X-56799Y-567929D01*
X-56827Y-567908D01*
X-56862Y-567873D01*
X-56903Y-567832D01*
X-56952Y-567776D01*
X-57007Y-567721D01*
X-57063Y-567651D01*
X-57125Y-567575D01*
X-57187Y-567492D01*
X-57250Y-567402D01*
X-57312Y-567305D01*
X-57430Y-567090D01*
X-57534Y-566854D01*
Y-566847D01*
X-57548Y-566826D01*
X-57555Y-566785D01*
X-57576Y-566736D01*
X-57597Y-566674D01*
X-57617Y-566597D01*
X-57638Y-566514D01*
X-57666Y-566417D01*
X-57687Y-566306D01*
X-57708Y-566188D01*
X-57728Y-566063D01*
X-57749Y-565932D01*
X-57770Y-565793D01*
X-57777Y-565647D01*
X-57791Y-565335D01*
Y-565328D01*
Y-565301D01*
Y-565266D01*
Y-565210D01*
X-57784Y-565148D01*
Y-565072D01*
X-57777Y-564989D01*
X-57770Y-564898D01*
X-57749Y-564697D01*
X-57714Y-564482D01*
X-57673Y-564260D01*
X-57617Y-564039D01*
Y-564032D01*
X-57610Y-564011D01*
X-57597Y-563983D01*
X-57590Y-563948D01*
X-57569Y-563900D01*
X-57548Y-563844D01*
X-57499Y-563713D01*
X-57437Y-563567D01*
X-57361Y-563408D01*
X-57277Y-563255D01*
X-57181Y-563109D01*
Y-563102D01*
X-57167Y-563096D01*
X-57153Y-563075D01*
X-57132Y-563047D01*
X-57083Y-562985D01*
X-57007Y-562901D01*
X-56924Y-562804D01*
X-56827Y-562707D01*
X-56716Y-562617D01*
X-56598Y-562527D01*
X-56591D01*
X-56584Y-562520D01*
X-56543Y-562492D01*
X-56473Y-562458D01*
X-56383Y-562409D01*
X-56272Y-562360D01*
X-56140Y-562305D01*
X-55988Y-562257D01*
X-55828Y-562208D01*
X-55821D01*
X-55807Y-562201D01*
X-55787D01*
X-55752Y-562194D01*
X-55710Y-562187D01*
X-55655Y-562173D01*
X-55599Y-562166D01*
X-55537Y-562159D01*
X-55384Y-562139D01*
X-55211Y-562118D01*
X-55017Y-562111D01*
X-54809Y-562104D01*
X-52500D01*
Y-568504D01*
D02*
G37*
G36*
X-437937Y-357725D02*
X-437790Y-357745D01*
X-437785Y-357750D01*
X-437776D01*
X-437727Y-357760D01*
X-437653Y-357784D01*
X-437555Y-357813D01*
X-437442Y-357858D01*
X-437310Y-357911D01*
X-437168Y-357985D01*
X-437020Y-358064D01*
X-437016Y-358068D01*
X-437001Y-358073D01*
X-436986Y-358088D01*
X-436957Y-358108D01*
X-436922Y-358132D01*
X-436873Y-358162D01*
X-436829Y-358196D01*
X-436780Y-358235D01*
X-436658Y-358328D01*
X-436520Y-358436D01*
X-436378Y-358568D01*
X-436226Y-358711D01*
X-434593Y-360344D01*
X-439119Y-364869D01*
X-440806Y-363182D01*
X-440850Y-363129D01*
X-440909Y-363070D01*
X-440963Y-363006D01*
X-441090Y-362869D01*
X-441208Y-362722D01*
X-441325Y-362575D01*
X-441370Y-362501D01*
X-441414Y-362437D01*
X-441419Y-362432D01*
X-441428Y-362413D01*
X-441443Y-362388D01*
X-441458Y-362354D01*
X-441482Y-362310D01*
X-441512Y-362261D01*
X-441571Y-362133D01*
X-441629Y-361986D01*
X-441683Y-361824D01*
X-441728Y-361643D01*
X-441752Y-361452D01*
Y-361442D01*
Y-361422D01*
X-441757Y-361388D01*
Y-361339D01*
Y-361280D01*
X-441752Y-361207D01*
Y-361128D01*
X-441742Y-361040D01*
X-441732Y-360942D01*
X-441718Y-360839D01*
X-441698Y-360731D01*
X-441674Y-360618D01*
X-441605Y-360383D01*
X-441512Y-360143D01*
X-441507Y-360138D01*
X-441502Y-360113D01*
X-441478Y-360079D01*
X-441458Y-360030D01*
X-441428Y-359971D01*
X-441389Y-359902D01*
X-441345Y-359829D01*
X-441296Y-359740D01*
X-441232Y-359647D01*
X-441164Y-359549D01*
X-441090Y-359446D01*
X-441012Y-359338D01*
X-440928Y-359226D01*
X-440830Y-359118D01*
X-440619Y-358887D01*
X-440615Y-358882D01*
X-440595Y-358863D01*
X-440570Y-358838D01*
X-440531Y-358799D01*
X-440482Y-358760D01*
X-440428Y-358706D01*
X-440364Y-358652D01*
X-440296Y-358593D01*
X-440139Y-358466D01*
X-439962Y-358338D01*
X-439776Y-358211D01*
X-439580Y-358093D01*
X-439575Y-358088D01*
X-439556Y-358078D01*
X-439526Y-358068D01*
X-439497Y-358049D01*
X-439448Y-358029D01*
X-439394Y-358005D01*
X-439266Y-357946D01*
X-439119Y-357887D01*
X-438952Y-357828D01*
X-438786Y-357779D01*
X-438614Y-357745D01*
X-438609Y-357740D01*
X-438594Y-357745D01*
X-438570Y-357740D01*
X-438536Y-357735D01*
X-438457Y-357725D01*
X-438344Y-357720D01*
X-438217Y-357710D01*
X-438080D01*
X-437937Y-357725D01*
D02*
G37*
G36*
X-441517Y-353812D02*
X-441325Y-353847D01*
X-441321Y-353852D01*
X-441301D01*
X-441272Y-353862D01*
X-441237Y-353876D01*
X-441193Y-353891D01*
X-441144Y-353910D01*
X-441080Y-353935D01*
X-441021Y-353964D01*
X-440874Y-354033D01*
X-440718Y-354131D01*
X-440561Y-354249D01*
X-440404Y-354386D01*
X-440374Y-354416D01*
X-440340Y-354460D01*
X-440296Y-354514D01*
X-440242Y-354577D01*
X-440188Y-354661D01*
X-440129Y-354749D01*
X-440065Y-354852D01*
X-440006Y-354970D01*
X-439943Y-355092D01*
X-439894Y-355229D01*
X-439850Y-355372D01*
X-439810Y-355529D01*
X-439791Y-355686D01*
X-439776Y-355857D01*
X-439781Y-356029D01*
Y-356039D01*
X-439786Y-356073D01*
X-439796Y-356122D01*
X-439810Y-356195D01*
X-439830Y-356284D01*
X-439864Y-356387D01*
X-439908Y-356509D01*
X-439967Y-356646D01*
X-440031Y-356799D01*
X-440114Y-356960D01*
X-440217Y-357132D01*
X-440335Y-357318D01*
X-440472Y-357514D01*
X-440634Y-357715D01*
X-440816Y-357926D01*
X-441021Y-358142D01*
X-441026Y-358147D01*
X-441036Y-358157D01*
X-441056Y-358176D01*
X-441080Y-358201D01*
X-441110Y-358230D01*
X-441154Y-358265D01*
X-441193Y-358304D01*
X-441247Y-358348D01*
X-441360Y-358451D01*
X-441492Y-358564D01*
X-441644Y-358686D01*
X-441811Y-358814D01*
X-441997Y-358941D01*
X-442184Y-359069D01*
X-442380Y-359186D01*
X-442586Y-359294D01*
X-442792Y-359392D01*
X-443002Y-359476D01*
X-443213Y-359530D01*
X-443414Y-359564D01*
X-443424D01*
X-443458Y-359569D01*
X-443655D01*
X-443753Y-359559D01*
X-443856Y-359544D01*
X-443973Y-359525D01*
X-444101Y-359495D01*
X-444233Y-359451D01*
X-444370Y-359402D01*
X-444513Y-359338D01*
X-444655Y-359265D01*
X-444797Y-359172D01*
X-444939Y-359069D01*
X-445076Y-358941D01*
X-445130Y-358887D01*
X-445160Y-358848D01*
X-445199Y-358799D01*
X-445248Y-358740D01*
X-445297Y-358671D01*
X-445346Y-358593D01*
X-445454Y-358417D01*
X-445498Y-358323D01*
X-445547Y-358215D01*
X-445586Y-358108D01*
X-445611Y-357995D01*
X-445635Y-357882D01*
X-445650Y-357760D01*
Y-357750D01*
Y-357730D01*
X-445655Y-357696D01*
X-445650Y-357652D01*
Y-357593D01*
X-445640Y-357524D01*
X-445630Y-357446D01*
X-445616Y-357362D01*
X-445596Y-357274D01*
X-445567Y-357176D01*
X-445532Y-357073D01*
X-445493Y-356965D01*
X-445444Y-356857D01*
X-445385Y-356749D01*
X-445322Y-356637D01*
X-445238Y-356524D01*
X-444640Y-357034D01*
X-444645Y-357039D01*
X-444650Y-357053D01*
X-444660Y-357073D01*
X-444679Y-357103D01*
X-444723Y-357176D01*
X-444768Y-357269D01*
X-444817Y-357377D01*
X-444856Y-357495D01*
X-444890Y-357607D01*
X-444905Y-357720D01*
Y-357730D01*
Y-357740D01*
Y-357769D01*
Y-357799D01*
X-444895Y-357887D01*
X-444870Y-358000D01*
X-444836Y-358122D01*
X-444772Y-358255D01*
X-444694Y-358392D01*
X-444640Y-358456D01*
X-444586Y-358520D01*
X-444542Y-358564D01*
X-444478Y-358608D01*
X-444405Y-358662D01*
X-444312Y-358716D01*
X-444209Y-358770D01*
X-444091Y-358809D01*
X-443964Y-358838D01*
X-443959Y-358843D01*
X-443944Y-358838D01*
X-443919Y-358843D01*
X-443885Y-358848D01*
X-443797D01*
X-443674Y-358843D01*
X-443527Y-358833D01*
X-443360Y-358804D01*
X-443184Y-358755D01*
X-442993Y-358691D01*
X-442988Y-358686D01*
X-442973Y-358681D01*
X-442939Y-358667D01*
X-442899Y-358647D01*
X-442855Y-358623D01*
X-442792Y-358588D01*
X-442723Y-358549D01*
X-442649Y-358505D01*
X-442566Y-358451D01*
X-442478Y-358382D01*
X-442375Y-358309D01*
X-442267Y-358230D01*
X-442159Y-358142D01*
X-442046Y-358039D01*
X-441924Y-357926D01*
X-441801Y-357813D01*
X-441821D01*
X-441845Y-357818D01*
X-441880Y-357823D01*
X-441978Y-357833D01*
X-442100Y-357848D01*
X-442247D01*
X-442404Y-357838D01*
X-442566Y-357813D01*
X-442733Y-357774D01*
X-442738Y-357769D01*
X-442752Y-357764D01*
X-442777Y-357760D01*
X-442806Y-357750D01*
X-442845Y-357730D01*
X-442890Y-357715D01*
X-442998Y-357666D01*
X-443115Y-357598D01*
X-443243Y-357519D01*
X-443375Y-357426D01*
X-443498Y-357313D01*
X-443522Y-357289D01*
X-443547Y-357254D01*
X-443586Y-357215D01*
X-443625Y-357156D01*
X-443674Y-357098D01*
X-443723Y-357019D01*
X-443777Y-356936D01*
X-443821Y-356843D01*
X-443875Y-356740D01*
X-443919Y-356627D01*
X-443959Y-356509D01*
X-443993Y-356377D01*
X-444017Y-356244D01*
X-444032Y-356102D01*
Y-355955D01*
Y-355945D01*
X-444027Y-355921D01*
Y-355882D01*
X-444022Y-355818D01*
X-444012Y-355749D01*
X-443993Y-355671D01*
X-443973Y-355573D01*
X-443944Y-355475D01*
X-443905Y-355367D01*
X-443865Y-355249D01*
X-443806Y-355131D01*
X-443748Y-355004D01*
X-443674Y-354881D01*
X-443586Y-354754D01*
X-443483Y-354631D01*
X-443370Y-354509D01*
X-443365Y-354504D01*
X-443350Y-354489D01*
X-443331Y-354469D01*
X-443292Y-354440D01*
X-443257Y-354406D01*
X-443208Y-354366D01*
X-443149Y-354318D01*
X-443086Y-354273D01*
X-442944Y-354170D01*
X-442777Y-354072D01*
X-442595Y-353979D01*
X-442389Y-353901D01*
X-442385Y-353896D01*
X-442365D01*
X-442336Y-353886D01*
X-442296Y-353876D01*
X-442247Y-353866D01*
X-442193Y-353852D01*
X-442051Y-353827D01*
X-441894Y-353807D01*
X-441713Y-353803D01*
X-441517Y-353812D01*
D02*
G37*
G36*
X-567693Y62825D02*
X-567672Y62804D01*
X-567631Y62769D01*
X-567582Y62728D01*
X-567513Y62672D01*
X-567436Y62603D01*
X-567346Y62534D01*
X-567242Y62450D01*
X-567124Y62360D01*
X-566992Y62263D01*
X-566847Y62159D01*
X-566694Y62055D01*
X-566535Y61951D01*
X-566355Y61840D01*
X-566167Y61722D01*
X-565973Y61611D01*
X-565959Y61604D01*
X-565925Y61584D01*
X-565869Y61556D01*
X-565786Y61514D01*
X-565689Y61466D01*
X-565571Y61403D01*
X-565439Y61341D01*
X-565294Y61272D01*
X-565134Y61202D01*
X-564961Y61126D01*
X-564774Y61050D01*
X-564586Y60974D01*
X-564385Y60897D01*
X-564177Y60821D01*
X-563754Y60689D01*
X-563747D01*
X-563720Y60682D01*
X-563671Y60668D01*
X-563616Y60655D01*
X-563539Y60634D01*
X-563449Y60613D01*
X-563345Y60585D01*
X-563234Y60564D01*
X-563109Y60537D01*
X-562971Y60516D01*
X-562825Y60488D01*
X-562673Y60467D01*
X-562513Y60440D01*
X-562347Y60419D01*
X-562000Y60391D01*
Y59587D01*
X-562007D01*
X-562035D01*
X-562076D01*
X-562132Y59594D01*
X-562208Y59601D01*
X-562291Y59607D01*
X-562395Y59614D01*
X-562506Y59628D01*
X-562638Y59642D01*
X-562770Y59663D01*
X-562922Y59684D01*
X-563082Y59711D01*
X-563255Y59746D01*
X-563435Y59781D01*
X-563623Y59829D01*
X-563817Y59878D01*
X-563830Y59885D01*
X-563865Y59892D01*
X-563921Y59906D01*
X-563997Y59933D01*
X-564094Y59961D01*
X-564212Y59996D01*
X-564337Y60037D01*
X-564475Y60086D01*
X-564628Y60141D01*
X-564794Y60204D01*
X-564968Y60266D01*
X-565141Y60342D01*
X-565509Y60502D01*
X-565883Y60689D01*
X-565897Y60696D01*
X-565925Y60717D01*
X-565980Y60745D01*
X-566049Y60779D01*
X-566133Y60835D01*
X-566230Y60890D01*
X-566341Y60960D01*
X-566465Y61029D01*
X-566590Y61112D01*
X-566729Y61202D01*
X-567006Y61396D01*
X-567291Y61604D01*
X-567429Y61715D01*
X-567561Y61826D01*
Y58692D01*
X-568317D01*
Y62832D01*
X-567700D01*
X-567693Y62825D01*
D02*
G37*
G36*
X-565044Y57784D02*
X-564968D01*
X-564884Y57777D01*
X-564794Y57770D01*
X-564593Y57749D01*
X-564378Y57714D01*
X-564156Y57673D01*
X-563935Y57617D01*
X-563928D01*
X-563907Y57610D01*
X-563879Y57597D01*
X-563844Y57590D01*
X-563796Y57569D01*
X-563740Y57548D01*
X-563609Y57499D01*
X-563463Y57437D01*
X-563303Y57361D01*
X-563151Y57278D01*
X-563005Y57181D01*
X-562998D01*
X-562991Y57167D01*
X-562971Y57153D01*
X-562943Y57132D01*
X-562881Y57083D01*
X-562797Y57007D01*
X-562700Y56924D01*
X-562603Y56827D01*
X-562513Y56716D01*
X-562423Y56598D01*
Y56591D01*
X-562416Y56584D01*
X-562388Y56543D01*
X-562354Y56473D01*
X-562305Y56383D01*
X-562257Y56272D01*
X-562201Y56140D01*
X-562152Y55988D01*
X-562104Y55828D01*
Y55821D01*
X-562097Y55807D01*
Y55787D01*
X-562090Y55752D01*
X-562083Y55710D01*
X-562069Y55655D01*
X-562062Y55599D01*
X-562055Y55537D01*
X-562035Y55384D01*
X-562014Y55211D01*
X-562007Y55017D01*
X-562000Y54809D01*
Y52500D01*
X-568400D01*
Y54885D01*
X-568393Y54955D01*
Y55038D01*
X-568386Y55121D01*
X-568379Y55308D01*
X-568359Y55496D01*
X-568338Y55683D01*
X-568317Y55766D01*
X-568303Y55842D01*
Y55849D01*
X-568296Y55870D01*
X-568289Y55898D01*
X-568275Y55932D01*
X-568261Y55981D01*
X-568248Y56036D01*
X-568199Y56168D01*
X-568137Y56314D01*
X-568060Y56466D01*
X-567963Y56626D01*
X-567845Y56778D01*
X-567839Y56785D01*
X-567825Y56799D01*
X-567804Y56827D01*
X-567769Y56862D01*
X-567728Y56903D01*
X-567672Y56952D01*
X-567617Y57007D01*
X-567547Y57063D01*
X-567471Y57125D01*
X-567388Y57187D01*
X-567298Y57250D01*
X-567201Y57312D01*
X-566986Y57430D01*
X-566750Y57534D01*
X-566743D01*
X-566722Y57548D01*
X-566680Y57555D01*
X-566632Y57576D01*
X-566570Y57597D01*
X-566493Y57617D01*
X-566410Y57638D01*
X-566313Y57666D01*
X-566202Y57687D01*
X-566084Y57708D01*
X-565959Y57728D01*
X-565828Y57749D01*
X-565689Y57770D01*
X-565543Y57777D01*
X-565231Y57791D01*
X-565224D01*
X-565197D01*
X-565162D01*
X-565106D01*
X-565044Y57784D01*
D02*
G37*
G36*
X-357593Y445542D02*
X-357524Y445532D01*
X-357441Y445518D01*
X-357357Y445503D01*
X-357264Y445479D01*
X-357166Y445449D01*
X-357068Y445410D01*
X-356970Y445361D01*
X-356867Y445307D01*
X-356764Y445243D01*
X-356666Y445165D01*
X-356573Y445081D01*
X-356568Y445076D01*
X-356558Y445067D01*
X-356544Y445052D01*
X-356519Y445027D01*
X-356499Y444998D01*
X-356470Y444959D01*
X-356406Y444875D01*
X-356343Y444772D01*
X-356279Y444650D01*
X-356230Y444513D01*
X-356190Y444366D01*
X-356186Y444361D01*
X-356190Y444346D01*
X-356181Y444297D01*
Y444218D01*
Y444110D01*
X-356200Y443983D01*
X-356220Y443836D01*
X-356269Y443679D01*
X-356333Y443507D01*
X-356328Y443512D01*
X-356308Y443522D01*
X-356279Y443532D01*
X-356240Y443552D01*
X-356190Y443571D01*
X-356132Y443591D01*
X-355989Y443635D01*
X-355828Y443679D01*
X-355646Y443704D01*
X-355455Y443718D01*
X-355259Y443699D01*
X-355249D01*
X-355234Y443694D01*
X-355210Y443689D01*
X-355171Y443679D01*
X-355126Y443664D01*
X-355073Y443650D01*
X-355014Y443630D01*
X-354945Y443610D01*
X-354803Y443547D01*
X-354646Y443458D01*
X-354484Y443346D01*
X-354401Y443282D01*
X-354322Y443203D01*
X-354318Y443199D01*
X-354298Y443179D01*
X-354273Y443145D01*
X-354229Y443101D01*
X-354190Y443042D01*
X-354136Y442978D01*
X-354087Y442899D01*
X-354033Y442816D01*
X-353979Y442713D01*
X-353925Y442610D01*
X-353881Y442497D01*
X-353837Y442375D01*
X-353803Y442242D01*
X-353778Y442110D01*
X-353759Y441963D01*
Y441816D01*
Y441806D01*
X-353763Y441782D01*
X-353768Y441737D01*
X-353773Y441683D01*
X-353783Y441605D01*
X-353803Y441526D01*
X-353822Y441428D01*
X-353852Y441330D01*
X-353891Y441222D01*
X-353935Y441100D01*
X-353994Y440982D01*
X-354058Y440860D01*
X-354131Y440727D01*
X-354219Y440600D01*
X-354327Y440472D01*
X-354445Y440345D01*
X-354474Y440316D01*
X-354514Y440286D01*
X-354563Y440237D01*
X-354622Y440188D01*
X-354700Y440129D01*
X-354788Y440070D01*
X-354881Y440006D01*
X-354984Y439943D01*
X-355102Y439884D01*
X-355220Y439825D01*
X-355352Y439771D01*
X-355485Y439727D01*
X-355627Y439693D01*
X-355774Y439663D01*
X-355921Y439654D01*
X-355999D01*
X-356058Y439663D01*
X-356127Y439673D01*
X-356205Y439683D01*
X-356298Y439698D01*
X-356396Y439727D01*
X-356504Y439757D01*
X-356617Y439791D01*
X-356735Y439840D01*
X-356847Y439894D01*
X-356965Y439962D01*
X-357088Y440046D01*
X-357206Y440134D01*
X-357318Y440237D01*
X-357323Y440242D01*
X-357338Y440257D01*
X-357362Y440281D01*
X-357387Y440316D01*
X-357426Y440355D01*
X-357465Y440404D01*
X-357505Y440462D01*
X-357549Y440526D01*
X-357637Y440664D01*
X-357720Y440825D01*
X-357789Y441002D01*
X-357813Y441095D01*
X-357833Y441193D01*
Y441203D01*
X-357838Y441218D01*
Y441247D01*
Y441286D01*
X-357843Y441330D01*
X-357838Y441384D01*
Y441453D01*
X-357828Y441522D01*
X-357809Y441679D01*
X-357769Y441855D01*
X-357701Y442041D01*
X-357603Y442238D01*
X-357608Y442233D01*
X-357622Y442228D01*
X-357652Y442218D01*
X-357681Y442208D01*
X-357720Y442188D01*
X-357774Y442174D01*
X-357887Y442140D01*
X-358019Y442105D01*
X-358167Y442085D01*
X-358318Y442071D01*
X-358470Y442085D01*
X-358475Y442090D01*
X-358485D01*
X-358510Y442095D01*
X-358539Y442105D01*
X-358618Y442125D01*
X-358711Y442159D01*
X-358824Y442213D01*
X-358951Y442282D01*
X-359078Y442370D01*
X-359201Y442483D01*
X-359206Y442488D01*
X-359221Y442502D01*
X-359245Y442537D01*
X-359280Y442571D01*
X-359314Y442615D01*
X-359353Y442674D01*
X-359397Y442738D01*
X-359446Y442816D01*
X-359490Y442899D01*
X-359530Y442988D01*
X-359574Y443081D01*
X-359613Y443189D01*
X-359637Y443302D01*
X-359662Y443414D01*
X-359677Y443537D01*
Y443664D01*
Y443674D01*
Y443694D01*
X-359672Y443728D01*
X-359667Y443782D01*
X-359657Y443841D01*
X-359642Y443914D01*
X-359623Y443993D01*
X-359598Y444086D01*
X-359564Y444179D01*
X-359520Y444282D01*
X-359476Y444385D01*
X-359417Y444493D01*
X-359348Y444611D01*
X-359270Y444719D01*
X-359177Y444831D01*
X-359074Y444944D01*
X-359015Y445003D01*
X-358971Y445037D01*
X-358917Y445081D01*
X-358848Y445130D01*
X-358774Y445184D01*
X-358686Y445243D01*
X-358593Y445297D01*
X-358495Y445356D01*
X-358387Y445405D01*
X-358274Y445449D01*
X-358152Y445493D01*
X-358029Y445518D01*
X-357902Y445547D01*
X-357769Y445552D01*
X-357652D01*
X-357593Y445542D01*
D02*
G37*
G36*
X-361207Y441752D02*
X-361128D01*
X-361040Y441742D01*
X-360942Y441732D01*
X-360839Y441718D01*
X-360731Y441698D01*
X-360618Y441674D01*
X-360383Y441605D01*
X-360143Y441512D01*
X-360138Y441507D01*
X-360113Y441502D01*
X-360079Y441478D01*
X-360030Y441458D01*
X-359971Y441428D01*
X-359902Y441389D01*
X-359829Y441345D01*
X-359740Y441296D01*
X-359647Y441232D01*
X-359549Y441164D01*
X-359446Y441090D01*
X-359338Y441012D01*
X-359226Y440928D01*
X-359118Y440830D01*
X-358887Y440619D01*
X-358882Y440615D01*
X-358863Y440595D01*
X-358838Y440570D01*
X-358799Y440531D01*
X-358760Y440482D01*
X-358706Y440428D01*
X-358652Y440364D01*
X-358593Y440296D01*
X-358466Y440139D01*
X-358338Y439962D01*
X-358211Y439776D01*
X-358093Y439580D01*
X-358088Y439575D01*
X-358078Y439556D01*
X-358068Y439526D01*
X-358049Y439497D01*
X-358029Y439448D01*
X-358005Y439394D01*
X-357946Y439266D01*
X-357887Y439119D01*
X-357828Y438952D01*
X-357779Y438786D01*
X-357745Y438614D01*
X-357740Y438609D01*
X-357745Y438594D01*
X-357740Y438570D01*
X-357735Y438536D01*
X-357725Y438457D01*
X-357720Y438344D01*
X-357710Y438217D01*
Y438080D01*
X-357725Y437937D01*
X-357745Y437790D01*
X-357750Y437785D01*
Y437776D01*
X-357760Y437727D01*
X-357784Y437653D01*
X-357813Y437555D01*
X-357858Y437442D01*
X-357912Y437310D01*
X-357985Y437168D01*
X-358064Y437020D01*
X-358068Y437016D01*
X-358073Y437001D01*
X-358088Y436986D01*
X-358108Y436957D01*
X-358132Y436922D01*
X-358162Y436873D01*
X-358196Y436829D01*
X-358235Y436780D01*
X-358328Y436658D01*
X-358436Y436520D01*
X-358569Y436378D01*
X-358711Y436226D01*
X-360344Y434593D01*
X-364869Y439119D01*
X-363182Y440806D01*
X-363129Y440850D01*
X-363070Y440909D01*
X-363006Y440963D01*
X-362869Y441090D01*
X-362722Y441208D01*
X-362575Y441325D01*
X-362501Y441370D01*
X-362437Y441414D01*
X-362432Y441419D01*
X-362413Y441428D01*
X-362388Y441443D01*
X-362354Y441458D01*
X-362310Y441482D01*
X-362261Y441512D01*
X-362133Y441571D01*
X-361986Y441629D01*
X-361824Y441683D01*
X-361643Y441728D01*
X-361452Y441752D01*
X-361422D01*
X-361388Y441757D01*
X-361280D01*
X-361207Y441752D01*
D02*
G37*
G36*
X61597Y562000D02*
X60814D01*
Y566999D01*
X60800Y566986D01*
X60765Y566951D01*
X60703Y566902D01*
X60613Y566833D01*
X60509Y566750D01*
X60377Y566660D01*
X60231Y566563D01*
X60065Y566459D01*
X60058D01*
X60044Y566445D01*
X60023Y566431D01*
X59989Y566417D01*
X59947Y566389D01*
X59899Y566368D01*
X59788Y566306D01*
X59663Y566244D01*
X59524Y566174D01*
X59379Y566112D01*
X59240Y566056D01*
Y566812D01*
X59247Y566819D01*
X59268Y566826D01*
X59302Y566847D01*
X59351Y566868D01*
X59406Y566895D01*
X59476Y566937D01*
X59552Y566979D01*
X59628Y567020D01*
X59809Y567131D01*
X60003Y567263D01*
X60204Y567402D01*
X60391Y567561D01*
X60398Y567568D01*
X60412Y567582D01*
X60440Y567603D01*
X60474Y567637D01*
X60509Y567679D01*
X60557Y567721D01*
X60661Y567839D01*
X60779Y567963D01*
X60897Y568109D01*
X61001Y568261D01*
X61091Y568421D01*
X61597D01*
Y562000D01*
D02*
G37*
G36*
X54955Y568393D02*
X55038D01*
X55121Y568386D01*
X55308Y568379D01*
X55495Y568358D01*
X55683Y568338D01*
X55766Y568317D01*
X55842Y568303D01*
X55849D01*
X55870Y568296D01*
X55898Y568289D01*
X55932Y568275D01*
X55981Y568261D01*
X56036Y568248D01*
X56168Y568199D01*
X56314Y568137D01*
X56466Y568060D01*
X56626Y567963D01*
X56778Y567845D01*
X56785Y567839D01*
X56799Y567825D01*
X56827Y567804D01*
X56862Y567769D01*
X56903Y567728D01*
X56952Y567672D01*
X57007Y567617D01*
X57063Y567547D01*
X57125Y567471D01*
X57187Y567388D01*
X57250Y567298D01*
X57312Y567201D01*
X57430Y566986D01*
X57534Y566750D01*
Y566743D01*
X57548Y566722D01*
X57555Y566680D01*
X57576Y566632D01*
X57597Y566570D01*
X57617Y566493D01*
X57638Y566410D01*
X57666Y566313D01*
X57687Y566202D01*
X57708Y566084D01*
X57728Y565959D01*
X57749Y565827D01*
X57770Y565689D01*
X57777Y565543D01*
X57791Y565231D01*
Y565224D01*
Y565196D01*
Y565162D01*
Y565106D01*
X57784Y565044D01*
Y564968D01*
X57777Y564884D01*
X57770Y564794D01*
X57749Y564593D01*
X57714Y564378D01*
X57673Y564156D01*
X57617Y563935D01*
Y563928D01*
X57610Y563907D01*
X57597Y563879D01*
X57590Y563844D01*
X57569Y563796D01*
X57548Y563740D01*
X57499Y563609D01*
X57437Y563463D01*
X57361Y563303D01*
X57277Y563151D01*
X57181Y563005D01*
Y562998D01*
X57167Y562991D01*
X57153Y562971D01*
X57132Y562943D01*
X57083Y562881D01*
X57007Y562797D01*
X56924Y562700D01*
X56827Y562603D01*
X56716Y562513D01*
X56598Y562423D01*
X56591D01*
X56584Y562416D01*
X56543Y562388D01*
X56473Y562354D01*
X56383Y562305D01*
X56272Y562256D01*
X56140Y562201D01*
X55988Y562152D01*
X55828Y562104D01*
X55821D01*
X55807Y562097D01*
X55787D01*
X55752Y562090D01*
X55710Y562083D01*
X55655Y562069D01*
X55599Y562062D01*
X55537Y562055D01*
X55384Y562034D01*
X55211Y562014D01*
X55017Y562007D01*
X54809Y562000D01*
X52500D01*
Y568400D01*
X54885D01*
X54955Y568393D01*
D02*
G37*
G36*
X568511Y-54885D02*
X568504Y-54955D01*
Y-55038D01*
X568497Y-55121D01*
X568490Y-55308D01*
X568470Y-55496D01*
X568449Y-55683D01*
X568428Y-55766D01*
X568414Y-55842D01*
Y-55849D01*
X568407Y-55870D01*
X568400Y-55898D01*
X568386Y-55932D01*
X568372Y-55981D01*
X568359Y-56036D01*
X568310Y-56168D01*
X568248Y-56314D01*
X568171Y-56466D01*
X568074Y-56626D01*
X567956Y-56778D01*
X567949Y-56785D01*
X567936Y-56799D01*
X567915Y-56827D01*
X567880Y-56862D01*
X567839Y-56903D01*
X567783Y-56952D01*
X567728Y-57007D01*
X567658Y-57063D01*
X567582Y-57125D01*
X567499Y-57187D01*
X567409Y-57250D01*
X567312Y-57312D01*
X567096Y-57430D01*
X566861Y-57534D01*
X566854D01*
X566833Y-57548D01*
X566791Y-57555D01*
X566743Y-57576D01*
X566680Y-57597D01*
X566604Y-57617D01*
X566521Y-57638D01*
X566424Y-57666D01*
X566313Y-57687D01*
X566195Y-57708D01*
X566070Y-57728D01*
X565938Y-57749D01*
X565800Y-57770D01*
X565654Y-57777D01*
X565342Y-57791D01*
X565335D01*
X565308D01*
X565273D01*
X565217D01*
X565155Y-57784D01*
X565079D01*
X564995Y-57777D01*
X564905Y-57770D01*
X564704Y-57749D01*
X564489Y-57714D01*
X564267Y-57673D01*
X564045Y-57617D01*
X564039D01*
X564018Y-57610D01*
X563990Y-57597D01*
X563955Y-57590D01*
X563907Y-57569D01*
X563851Y-57548D01*
X563720Y-57499D01*
X563574Y-57437D01*
X563414Y-57361D01*
X563262Y-57278D01*
X563116Y-57181D01*
X563109D01*
X563102Y-57167D01*
X563082Y-57153D01*
X563054Y-57132D01*
X562991Y-57083D01*
X562908Y-57007D01*
X562811Y-56924D01*
X562714Y-56827D01*
X562624Y-56716D01*
X562534Y-56598D01*
Y-56591D01*
X562527Y-56584D01*
X562499Y-56543D01*
X562464Y-56473D01*
X562416Y-56383D01*
X562367Y-56272D01*
X562312Y-56140D01*
X562263Y-55988D01*
X562215Y-55828D01*
Y-55821D01*
X562208Y-55807D01*
Y-55787D01*
X562201Y-55752D01*
X562194Y-55710D01*
X562180Y-55655D01*
X562173Y-55599D01*
X562166Y-55537D01*
X562146Y-55384D01*
X562125Y-55211D01*
X562118Y-55017D01*
X562111Y-54809D01*
Y-52500D01*
X568511D01*
Y-54885D01*
D02*
G37*
G36*
X563907Y-59427D02*
X563900D01*
X563879Y-59434D01*
X563844Y-59441D01*
X563796Y-59455D01*
X563740Y-59469D01*
X563678Y-59483D01*
X563532Y-59531D01*
X563373Y-59594D01*
X563213Y-59670D01*
X563068Y-59767D01*
X563005Y-59822D01*
X562943Y-59878D01*
Y-59885D01*
X562929Y-59892D01*
X562915Y-59913D01*
X562894Y-59933D01*
X562853Y-60003D01*
X562797Y-60100D01*
X562742Y-60218D01*
X562700Y-60349D01*
X562666Y-60509D01*
X562652Y-60675D01*
Y-60731D01*
X562659Y-60772D01*
X562666Y-60814D01*
X562673Y-60876D01*
X562700Y-61001D01*
X562742Y-61154D01*
X562811Y-61313D01*
X562860Y-61389D01*
X562908Y-61466D01*
X562964Y-61542D01*
X563033Y-61618D01*
X563040Y-61625D01*
X563054Y-61632D01*
X563075Y-61653D01*
X563102Y-61681D01*
X563137Y-61708D01*
X563186Y-61736D01*
X563234Y-61771D01*
X563297Y-61813D01*
X563435Y-61882D01*
X563595Y-61937D01*
X563782Y-61986D01*
X563879Y-61993D01*
X563983Y-62000D01*
X563990D01*
X564004D01*
X564039D01*
X564073Y-61993D01*
X564122Y-61986D01*
X564170Y-61979D01*
X564295Y-61958D01*
X564441Y-61910D01*
X564586Y-61847D01*
X564663Y-61806D01*
X564732Y-61757D01*
X564801Y-61702D01*
X564871Y-61639D01*
X564878Y-61632D01*
X564884Y-61625D01*
X564905Y-61604D01*
X564926Y-61577D01*
X564954Y-61542D01*
X564982Y-61501D01*
X565051Y-61396D01*
X565113Y-61265D01*
X565169Y-61112D01*
X565210Y-60939D01*
X565217Y-60842D01*
X565224Y-60745D01*
Y-60703D01*
X565217Y-60655D01*
Y-60592D01*
X565204Y-60509D01*
X565190Y-60419D01*
X565169Y-60308D01*
X565141Y-60190D01*
X565828Y-60273D01*
Y-60287D01*
X565821Y-60322D01*
X565814Y-60363D01*
Y-60453D01*
X565821Y-60488D01*
Y-60537D01*
X565828Y-60585D01*
X565848Y-60703D01*
X565876Y-60842D01*
X565925Y-60994D01*
X565987Y-61154D01*
X566077Y-61306D01*
Y-61313D01*
X566091Y-61327D01*
X566105Y-61341D01*
X566126Y-61369D01*
X566188Y-61438D01*
X566278Y-61514D01*
X566389Y-61584D01*
X566528Y-61653D01*
X566604Y-61681D01*
X566694Y-61695D01*
X566785Y-61708D01*
X566882Y-61715D01*
X566889D01*
X566902D01*
X566923D01*
X566958Y-61708D01*
X567034Y-61702D01*
X567138Y-61681D01*
X567249Y-61646D01*
X567367Y-61591D01*
X567492Y-61514D01*
X567547Y-61473D01*
X567603Y-61417D01*
X567617Y-61403D01*
X567644Y-61362D01*
X567693Y-61299D01*
X567748Y-61216D01*
X567797Y-61105D01*
X567845Y-60974D01*
X567873Y-60828D01*
X567887Y-60661D01*
Y-60620D01*
X567880Y-60585D01*
Y-60544D01*
X567873Y-60502D01*
X567852Y-60391D01*
X567818Y-60273D01*
X567762Y-60141D01*
X567693Y-60017D01*
X567596Y-59892D01*
X567582Y-59878D01*
X567540Y-59843D01*
X567478Y-59788D01*
X567381Y-59732D01*
X567263Y-59663D01*
X567110Y-59601D01*
X566937Y-59545D01*
X566736Y-59503D01*
X566875Y-58720D01*
X566882D01*
X566909Y-58727D01*
X566951Y-58734D01*
X567006Y-58748D01*
X567069Y-58768D01*
X567145Y-58789D01*
X567228Y-58817D01*
X567318Y-58852D01*
X567519Y-58942D01*
X567617Y-58990D01*
X567721Y-59053D01*
X567818Y-59122D01*
X567915Y-59198D01*
X568012Y-59282D01*
X568095Y-59372D01*
X568102Y-59379D01*
X568116Y-59392D01*
X568137Y-59427D01*
X568164Y-59462D01*
X568199Y-59517D01*
X568234Y-59573D01*
X568275Y-59642D01*
X568317Y-59725D01*
X568352Y-59809D01*
X568393Y-59906D01*
X568428Y-60010D01*
X568463Y-60121D01*
X568490Y-60245D01*
X568511Y-60370D01*
X568525Y-60502D01*
X568532Y-60641D01*
Y-60731D01*
X568525Y-60779D01*
X568518Y-60828D01*
X568504Y-60960D01*
X568476Y-61105D01*
X568435Y-61272D01*
X568379Y-61438D01*
X568303Y-61604D01*
Y-61611D01*
X568296Y-61625D01*
X568282Y-61646D01*
X568261Y-61681D01*
X568213Y-61757D01*
X568144Y-61854D01*
X568053Y-61965D01*
X567949Y-62076D01*
X567832Y-62187D01*
X567693Y-62284D01*
X567686D01*
X567679Y-62291D01*
X567651Y-62305D01*
X567623Y-62319D01*
X567589Y-62340D01*
X567547Y-62360D01*
X567443Y-62402D01*
X567318Y-62443D01*
X567180Y-62485D01*
X567027Y-62513D01*
X566868Y-62520D01*
X566861D01*
X566847D01*
X566826D01*
X566798D01*
X566715Y-62506D01*
X566618Y-62492D01*
X566500Y-62464D01*
X566375Y-62423D01*
X566244Y-62367D01*
X566112Y-62291D01*
X566105D01*
X566098Y-62284D01*
X566056Y-62249D01*
X565994Y-62201D01*
X565918Y-62125D01*
X565828Y-62034D01*
X565737Y-61916D01*
X565654Y-61785D01*
X565571Y-61632D01*
Y-61639D01*
X565564Y-61660D01*
X565557Y-61688D01*
X565543Y-61729D01*
X565529Y-61771D01*
X565509Y-61826D01*
X565453Y-61958D01*
X565377Y-62097D01*
X565287Y-62242D01*
X565169Y-62388D01*
X565023Y-62513D01*
X565016Y-62520D01*
X565002Y-62527D01*
X564982Y-62541D01*
X564947Y-62561D01*
X564912Y-62589D01*
X564864Y-62617D01*
X564808Y-62645D01*
X564739Y-62672D01*
X564670Y-62700D01*
X564593Y-62728D01*
X564420Y-62783D01*
X564219Y-62818D01*
X564108Y-62832D01*
X563997D01*
X563990D01*
X563962D01*
X563914Y-62825D01*
X563858D01*
X563782Y-62811D01*
X563699Y-62797D01*
X563609Y-62783D01*
X563505Y-62756D01*
X563394Y-62721D01*
X563283Y-62679D01*
X563165Y-62631D01*
X563047Y-62568D01*
X562922Y-62499D01*
X562804Y-62416D01*
X562686Y-62326D01*
X562575Y-62215D01*
X562569Y-62208D01*
X562548Y-62187D01*
X562520Y-62152D01*
X562485Y-62104D01*
X562444Y-62048D01*
X562395Y-61972D01*
X562340Y-61889D01*
X562291Y-61792D01*
X562236Y-61688D01*
X562180Y-61570D01*
X562132Y-61445D01*
X562090Y-61306D01*
X562055Y-61161D01*
X562028Y-61008D01*
X562007Y-60849D01*
X562000Y-60675D01*
Y-60641D01*
X562007Y-60592D01*
Y-60537D01*
X562014Y-60460D01*
X562028Y-60377D01*
X562042Y-60287D01*
X562062Y-60183D01*
X562090Y-60072D01*
X562125Y-59961D01*
X562159Y-59843D01*
X562208Y-59725D01*
X562270Y-59607D01*
X562333Y-59496D01*
X562409Y-59379D01*
X562499Y-59275D01*
X562506Y-59268D01*
X562520Y-59254D01*
X562548Y-59226D01*
X562589Y-59184D01*
X562638Y-59143D01*
X562700Y-59094D01*
X562770Y-59046D01*
X562853Y-58990D01*
X562936Y-58935D01*
X563040Y-58879D01*
X563144Y-58824D01*
X563262Y-58775D01*
X563387Y-58734D01*
X563518Y-58692D01*
X563657Y-58664D01*
X563803Y-58644D01*
X563907Y-59427D01*
D02*
G37*
G36*
X-293504Y453252D02*
X-293460Y453247D01*
X-293406Y453242D01*
X-293328Y453232D01*
X-293249Y453213D01*
X-293151Y453193D01*
X-293053Y453164D01*
X-292945Y453124D01*
X-292822Y453080D01*
X-292705Y453021D01*
X-292582Y452958D01*
X-292450Y452884D01*
X-292322Y452796D01*
X-292195Y452688D01*
X-292067Y452570D01*
X-292038Y452541D01*
X-292008Y452502D01*
X-291959Y452453D01*
X-291910Y452394D01*
X-291852Y452315D01*
X-291793Y452227D01*
X-291729Y452134D01*
X-291665Y452031D01*
X-291607Y451913D01*
X-291548Y451796D01*
X-291494Y451663D01*
X-291450Y451531D01*
X-291415Y451389D01*
X-291386Y451241D01*
X-291376Y451094D01*
Y451085D01*
Y451055D01*
Y451016D01*
X-291386Y450957D01*
X-291396Y450888D01*
X-291405Y450810D01*
X-291420Y450717D01*
X-291450Y450619D01*
X-291479Y450511D01*
X-291513Y450398D01*
X-291562Y450280D01*
X-291616Y450168D01*
X-291685Y450050D01*
X-291768Y449927D01*
X-291856Y449810D01*
X-291959Y449697D01*
X-291964Y449692D01*
X-291979Y449677D01*
X-292004Y449653D01*
X-292038Y449628D01*
X-292077Y449589D01*
X-292126Y449550D01*
X-292185Y449511D01*
X-292249Y449467D01*
X-292386Y449378D01*
X-292548Y449295D01*
X-292724Y449226D01*
X-292818Y449202D01*
X-292916Y449182D01*
X-292925D01*
X-292940Y449177D01*
X-293009D01*
X-293053Y449172D01*
X-293107Y449177D01*
X-293176D01*
X-293244Y449187D01*
X-293401Y449207D01*
X-293577Y449246D01*
X-293764Y449315D01*
X-293960Y449413D01*
X-293955Y449408D01*
X-293950Y449393D01*
X-293940Y449364D01*
X-293931Y449334D01*
X-293911Y449295D01*
X-293896Y449241D01*
X-293862Y449128D01*
X-293828Y448996D01*
X-293808Y448849D01*
X-293793Y448697D01*
X-293808Y448545D01*
X-293813Y448540D01*
Y448530D01*
X-293818Y448506D01*
X-293828Y448476D01*
X-293847Y448398D01*
X-293882Y448304D01*
X-293936Y448192D01*
X-294004Y448064D01*
X-294092Y447937D01*
X-294205Y447814D01*
X-294210Y447809D01*
X-294225Y447795D01*
X-294259Y447770D01*
X-294293Y447736D01*
X-294338Y447701D01*
X-294396Y447662D01*
X-294460Y447618D01*
X-294539Y447569D01*
X-294622Y447525D01*
X-294710Y447486D01*
X-294803Y447441D01*
X-294911Y447402D01*
X-295024Y447378D01*
X-295137Y447353D01*
X-295259Y447339D01*
X-295416D01*
X-295451Y447343D01*
X-295504Y447348D01*
X-295563Y447358D01*
X-295637Y447373D01*
X-295715Y447393D01*
X-295809Y447417D01*
X-295902Y447451D01*
X-296005Y447495D01*
X-296108Y447540D01*
X-296215Y447598D01*
X-296333Y447667D01*
X-296441Y447746D01*
X-296554Y447839D01*
X-296667Y447942D01*
X-296725Y448000D01*
X-296760Y448045D01*
X-296804Y448099D01*
X-296853Y448167D01*
X-296907Y448241D01*
X-296966Y448329D01*
X-297020Y448422D01*
X-297078Y448520D01*
X-297127Y448628D01*
X-297172Y448741D01*
X-297216Y448863D01*
X-297240Y448986D01*
X-297270Y449114D01*
X-297275Y449246D01*
Y449256D01*
Y449275D01*
Y449315D01*
Y449364D01*
X-297265Y449422D01*
X-297255Y449491D01*
X-297240Y449574D01*
X-297225Y449658D01*
X-297201Y449751D01*
X-297172Y449849D01*
X-297132Y449947D01*
X-297083Y450045D01*
X-297029Y450148D01*
X-296966Y450251D01*
X-296887Y450349D01*
X-296804Y450442D01*
X-296799Y450447D01*
X-296789Y450457D01*
X-296774Y450472D01*
X-296750Y450496D01*
X-296721Y450516D01*
X-296681Y450545D01*
X-296598Y450609D01*
X-296495Y450673D01*
X-296372Y450737D01*
X-296235Y450785D01*
X-296088Y450825D01*
X-296083Y450830D01*
X-296068Y450825D01*
X-296019Y450835D01*
X-295833D01*
X-295706Y450815D01*
X-295558Y450795D01*
X-295401Y450746D01*
X-295230Y450683D01*
X-295235Y450687D01*
X-295245Y450707D01*
X-295254Y450737D01*
X-295274Y450776D01*
X-295294Y450825D01*
X-295313Y450884D01*
X-295357Y451026D01*
X-295401Y451188D01*
X-295426Y451369D01*
X-295441Y451560D01*
X-295421Y451756D01*
Y451766D01*
X-295416Y451781D01*
X-295411Y451805D01*
X-295401Y451845D01*
X-295387Y451889D01*
X-295372Y451943D01*
X-295352Y452001D01*
X-295333Y452070D01*
X-295269Y452212D01*
X-295181Y452369D01*
X-295068Y452531D01*
X-295004Y452614D01*
X-294926Y452693D01*
X-294921Y452698D01*
X-294901Y452717D01*
X-294867Y452742D01*
X-294823Y452786D01*
X-294764Y452825D01*
X-294700Y452879D01*
X-294622Y452928D01*
X-294539Y452982D01*
X-294436Y453036D01*
X-294333Y453090D01*
X-294220Y453134D01*
X-294097Y453178D01*
X-293965Y453213D01*
X-293832Y453237D01*
X-293685Y453257D01*
X-293528D01*
X-293504Y453252D01*
D02*
G37*
G36*
X-289631Y450683D02*
X-289626Y450658D01*
X-289606Y450619D01*
X-289586Y450570D01*
X-289562Y450506D01*
X-289527Y450433D01*
X-289498Y450344D01*
X-289469Y450246D01*
X-289434Y450143D01*
X-289395Y450025D01*
X-289326Y449771D01*
X-289263Y449481D01*
X-289214Y449168D01*
X-289204D01*
X-289179Y449153D01*
X-289140Y449143D01*
X-289081Y449123D01*
X-289013Y449094D01*
X-288934Y449064D01*
X-288846Y449025D01*
X-288748Y448976D01*
X-288645Y448922D01*
X-288532Y448859D01*
X-288419Y448795D01*
X-288302Y448716D01*
X-288057Y448540D01*
X-287944Y448437D01*
X-287826Y448329D01*
X-287767Y448270D01*
X-287728Y448221D01*
X-287679Y448162D01*
X-287620Y448094D01*
X-287561Y448015D01*
X-287498Y447922D01*
X-287429Y447824D01*
X-287360Y447716D01*
X-287292Y447598D01*
X-287223Y447481D01*
X-287159Y447348D01*
X-287100Y447211D01*
X-287047Y447069D01*
X-287007Y446922D01*
Y446912D01*
X-287002Y446888D01*
X-286988Y446843D01*
X-286978Y446785D01*
X-286968Y446716D01*
X-286958Y446628D01*
X-286948Y446530D01*
X-286939Y446422D01*
X-286934Y446309D01*
Y446181D01*
X-286939Y446049D01*
X-286948Y445912D01*
X-286963Y445770D01*
X-286988Y445627D01*
X-287022Y445475D01*
X-287066Y445323D01*
Y445314D01*
X-287081Y445289D01*
X-287096Y445245D01*
X-287115Y445186D01*
X-287149Y445112D01*
X-287189Y445034D01*
X-287233Y444941D01*
X-287287Y444838D01*
X-287346Y444720D01*
X-287414Y444603D01*
X-287493Y444485D01*
X-287581Y444357D01*
X-287669Y444230D01*
X-287772Y444098D01*
X-287890Y443970D01*
X-288008Y443843D01*
X-288017Y443833D01*
X-288037Y443813D01*
X-288071Y443779D01*
X-288125Y443735D01*
X-288189Y443681D01*
X-288263Y443617D01*
X-288351Y443548D01*
X-288449Y443470D01*
X-288552Y443396D01*
X-288664Y443313D01*
X-288920Y443156D01*
X-289057Y443088D01*
X-289199Y443014D01*
X-289346Y442945D01*
X-289498Y442891D01*
X-289508D01*
X-289537Y442882D01*
X-289581Y442867D01*
X-289635Y442852D01*
X-289714Y442832D01*
X-289802Y442813D01*
X-289895Y442798D01*
X-290003Y442779D01*
X-290126Y442764D01*
X-290253Y442754D01*
X-290381Y442744D01*
X-290518D01*
X-290665Y442754D01*
X-290807Y442769D01*
X-290954Y442788D01*
X-291101Y442828D01*
X-291111D01*
X-291141Y442837D01*
X-291175Y442852D01*
X-291234Y442872D01*
X-291307Y442896D01*
X-291386Y442926D01*
X-291479Y442970D01*
X-291577Y443009D01*
X-291685Y443068D01*
X-291793Y443127D01*
X-291910Y443195D01*
X-292038Y443274D01*
X-292160Y443357D01*
X-292278Y443455D01*
X-292401Y443558D01*
X-292518Y443666D01*
X-292577Y443725D01*
X-292617Y443774D01*
X-292670Y443838D01*
X-292729Y443906D01*
X-292788Y443985D01*
X-292852Y444078D01*
X-292925Y444181D01*
X-292994Y444289D01*
X-293063Y444407D01*
X-293131Y444534D01*
X-293195Y444666D01*
X-293254Y444804D01*
X-293303Y444941D01*
X-293347Y445093D01*
Y445103D01*
X-293357Y445132D01*
X-293367Y445171D01*
X-293377Y445230D01*
X-293391Y445304D01*
X-293396Y445387D01*
X-293406Y445485D01*
X-293416Y445593D01*
X-293421Y445716D01*
X-293426Y445838D01*
X-293421Y445971D01*
X-293411Y446108D01*
X-293386Y446250D01*
X-293367Y446397D01*
X-293328Y446544D01*
X-293283Y446696D01*
Y446706D01*
X-293269Y446731D01*
X-293254Y446775D01*
X-293229Y446829D01*
X-293205Y446902D01*
X-293161Y446986D01*
X-293117Y447079D01*
X-293063Y447182D01*
X-293004Y447290D01*
X-292935Y447407D01*
X-292862Y447530D01*
X-292773Y447657D01*
X-292680Y447780D01*
X-292577Y447912D01*
X-292460Y448040D01*
X-292342Y448167D01*
X-292337Y448172D01*
X-292317Y448192D01*
X-292288Y448221D01*
X-292244Y448256D01*
X-292195Y448304D01*
X-292131Y448358D01*
X-292062Y448417D01*
X-291989Y448481D01*
X-291901Y448550D01*
X-291807Y448613D01*
X-291607Y448756D01*
X-291396Y448888D01*
X-291165Y449001D01*
X-291160Y449006D01*
X-291136Y449011D01*
X-291101Y449025D01*
X-291057Y449040D01*
X-291003Y449064D01*
X-290935Y449084D01*
X-290856Y449114D01*
X-290773Y449138D01*
X-290577Y449187D01*
X-290361Y449226D01*
X-290126Y449256D01*
X-289876Y449261D01*
Y449271D01*
X-289881Y449295D01*
X-289885Y449329D01*
X-289900Y449383D01*
X-289915Y449437D01*
X-289930Y449511D01*
X-289949Y449589D01*
X-289969Y449677D01*
X-290018Y449864D01*
X-290082Y450065D01*
X-290150Y450271D01*
X-290229Y450457D01*
X-289635Y450687D01*
X-289631Y450683D01*
D02*
G37*
G36*
X-525391Y113383D02*
Y113355D01*
Y113314D01*
X-525398Y113258D01*
X-525405Y113182D01*
X-525412Y113099D01*
X-525419Y112995D01*
X-525433Y112884D01*
X-525447Y112752D01*
X-525467Y112620D01*
X-525488Y112468D01*
X-525516Y112308D01*
X-525551Y112135D01*
X-525585Y111955D01*
X-525634Y111768D01*
X-525682Y111573D01*
X-525689Y111559D01*
X-525696Y111525D01*
X-525710Y111469D01*
X-525738Y111393D01*
X-525766Y111296D01*
X-525800Y111178D01*
X-525842Y111053D01*
X-525890Y110915D01*
X-525946Y110762D01*
X-526008Y110596D01*
X-526071Y110422D01*
X-526147Y110249D01*
X-526306Y109881D01*
X-526494Y109507D01*
X-526501Y109493D01*
X-526521Y109465D01*
X-526549Y109410D01*
X-526584Y109340D01*
X-526639Y109257D01*
X-526695Y109160D01*
X-526764Y109049D01*
X-526833Y108924D01*
X-526917Y108800D01*
X-527007Y108661D01*
X-527201Y108384D01*
X-527409Y108099D01*
X-527520Y107961D01*
X-527631Y107829D01*
X-524497D01*
Y107073D01*
X-528636D01*
Y107690D01*
X-528629Y107697D01*
X-528609Y107718D01*
X-528574Y107760D01*
X-528532Y107808D01*
X-528477Y107877D01*
X-528408Y107954D01*
X-528338Y108044D01*
X-528255Y108148D01*
X-528165Y108266D01*
X-528068Y108397D01*
X-527964Y108543D01*
X-527860Y108696D01*
X-527756Y108855D01*
X-527645Y109035D01*
X-527527Y109223D01*
X-527416Y109417D01*
X-527409Y109431D01*
X-527388Y109465D01*
X-527360Y109521D01*
X-527319Y109604D01*
X-527270Y109701D01*
X-527208Y109819D01*
X-527146Y109951D01*
X-527076Y110096D01*
X-527007Y110256D01*
X-526931Y110429D01*
X-526854Y110616D01*
X-526778Y110804D01*
X-526702Y111005D01*
X-526625Y111213D01*
X-526494Y111636D01*
Y111643D01*
X-526487Y111670D01*
X-526473Y111719D01*
X-526459Y111774D01*
X-526438Y111851D01*
X-526417Y111941D01*
X-526390Y112045D01*
X-526369Y112156D01*
X-526341Y112281D01*
X-526320Y112419D01*
X-526293Y112565D01*
X-526272Y112718D01*
X-526244Y112877D01*
X-526223Y113043D01*
X-526195Y113390D01*
X-525391D01*
Y113383D01*
D02*
G37*
G36*
X-523463Y113869D02*
X-523422Y113855D01*
X-523373Y113834D01*
X-523311Y113806D01*
X-523235Y113778D01*
X-523151Y113737D01*
X-523061Y113688D01*
X-522964Y113640D01*
X-522853Y113584D01*
X-522624Y113453D01*
X-522375Y113293D01*
X-522118Y113106D01*
X-522111Y113113D01*
X-522084Y113120D01*
X-522049Y113140D01*
X-521993Y113168D01*
X-521924Y113196D01*
X-521848Y113231D01*
X-521758Y113265D01*
X-521654Y113300D01*
X-521543Y113335D01*
X-521418Y113369D01*
X-521293Y113404D01*
X-521154Y113432D01*
X-520856Y113480D01*
X-520704Y113487D01*
X-520544Y113494D01*
X-520461D01*
X-520398Y113487D01*
X-520322Y113480D01*
X-520232Y113473D01*
X-520135Y113459D01*
X-520024Y113439D01*
X-519906Y113418D01*
X-519781Y113390D01*
X-519650Y113355D01*
X-519518Y113321D01*
X-519379Y113272D01*
X-519240Y113217D01*
X-519102Y113154D01*
X-518970Y113078D01*
X-518963Y113071D01*
X-518942Y113057D01*
X-518901Y113036D01*
X-518852Y113002D01*
X-518797Y112960D01*
X-518727Y112905D01*
X-518651Y112842D01*
X-518568Y112773D01*
X-518485Y112697D01*
X-518395Y112606D01*
X-518304Y112509D01*
X-518214Y112405D01*
X-518124Y112295D01*
X-518041Y112177D01*
X-517958Y112045D01*
X-517881Y111906D01*
X-517874Y111899D01*
X-517868Y111872D01*
X-517847Y111830D01*
X-517819Y111774D01*
X-517791Y111698D01*
X-517763Y111615D01*
X-517729Y111518D01*
X-517694Y111407D01*
X-517653Y111282D01*
X-517618Y111150D01*
X-517590Y111012D01*
X-517562Y110859D01*
X-517535Y110707D01*
X-517514Y110540D01*
X-517507Y110367D01*
X-517500Y110193D01*
Y110180D01*
Y110152D01*
Y110103D01*
X-517507Y110034D01*
X-517514Y109951D01*
X-517521Y109854D01*
X-517535Y109743D01*
X-517548Y109618D01*
X-517569Y109493D01*
X-517590Y109354D01*
X-517659Y109063D01*
X-517708Y108918D01*
X-517757Y108765D01*
X-517812Y108612D01*
X-517881Y108467D01*
X-517888Y108460D01*
X-517902Y108432D01*
X-517923Y108391D01*
X-517951Y108342D01*
X-517992Y108273D01*
X-518041Y108196D01*
X-518096Y108120D01*
X-518159Y108030D01*
X-518235Y107933D01*
X-518318Y107836D01*
X-518401Y107739D01*
X-518498Y107642D01*
X-518610Y107544D01*
X-518720Y107454D01*
X-518838Y107364D01*
X-518970Y107288D01*
X-518977Y107281D01*
X-519005Y107267D01*
X-519039Y107253D01*
X-519095Y107226D01*
X-519164Y107191D01*
X-519240Y107156D01*
X-519338Y107122D01*
X-519435Y107080D01*
X-519552Y107045D01*
X-519670Y107011D01*
X-519802Y106976D01*
X-519948Y106941D01*
X-520093Y106913D01*
X-520246Y106900D01*
X-520405Y106886D01*
X-520565Y106879D01*
X-520648D01*
X-520710Y106886D01*
X-520794Y106893D01*
X-520884Y106900D01*
X-520981Y106913D01*
X-521092Y106934D01*
X-521217Y106955D01*
X-521342Y106983D01*
X-521473Y107017D01*
X-521612Y107059D01*
X-521751Y107108D01*
X-521889Y107163D01*
X-522021Y107226D01*
X-522160Y107302D01*
X-522167Y107309D01*
X-522195Y107323D01*
X-522229Y107343D01*
X-522278Y107378D01*
X-522340Y107420D01*
X-522402Y107475D01*
X-522479Y107538D01*
X-522562Y107607D01*
X-522652Y107690D01*
X-522742Y107773D01*
X-522832Y107870D01*
X-522923Y107975D01*
X-523006Y108092D01*
X-523096Y108210D01*
X-523172Y108342D01*
X-523248Y108481D01*
X-523255Y108488D01*
X-523262Y108515D01*
X-523283Y108557D01*
X-523304Y108612D01*
X-523339Y108682D01*
X-523366Y108772D01*
X-523401Y108869D01*
X-523436Y108980D01*
X-523470Y109098D01*
X-523505Y109230D01*
X-523540Y109368D01*
X-523567Y109521D01*
X-523588Y109673D01*
X-523609Y109840D01*
X-523616Y110013D01*
X-523623Y110187D01*
Y110193D01*
Y110221D01*
Y110263D01*
X-523616Y110318D01*
Y110388D01*
X-523609Y110471D01*
X-523602Y110561D01*
X-523595Y110658D01*
X-523581Y110769D01*
X-523560Y110880D01*
X-523519Y111123D01*
X-523463Y111365D01*
X-523380Y111608D01*
Y111615D01*
X-523366Y111636D01*
X-523353Y111670D01*
X-523332Y111712D01*
X-523311Y111768D01*
X-523276Y111830D01*
X-523242Y111906D01*
X-523200Y111982D01*
X-523096Y112156D01*
X-522971Y112336D01*
X-522826Y112523D01*
X-522652Y112704D01*
X-522659Y112711D01*
X-522680Y112724D01*
X-522708Y112745D01*
X-522756Y112773D01*
X-522805Y112801D01*
X-522867Y112842D01*
X-522936Y112884D01*
X-523013Y112932D01*
X-523179Y113029D01*
X-523366Y113127D01*
X-523560Y113224D01*
X-523748Y113300D01*
X-523491Y113882D01*
X-523484D01*
X-523463Y113869D01*
D02*
G37*
G36*
X113390Y526618D02*
X108391D01*
X108404Y526605D01*
X108439Y526570D01*
X108488Y526508D01*
X108557Y526417D01*
X108640Y526313D01*
X108730Y526182D01*
X108827Y526036D01*
X108931Y525870D01*
Y525863D01*
X108945Y525849D01*
X108959Y525828D01*
X108973Y525793D01*
X109001Y525752D01*
X109022Y525703D01*
X109084Y525592D01*
X109146Y525467D01*
X109216Y525329D01*
X109278Y525183D01*
X109334Y525044D01*
X108578D01*
X108571Y525051D01*
X108564Y525072D01*
X108543Y525107D01*
X108522Y525155D01*
X108495Y525211D01*
X108453Y525280D01*
X108411Y525356D01*
X108370Y525433D01*
X108259Y525613D01*
X108127Y525807D01*
X107988Y526008D01*
X107829Y526195D01*
X107822Y526203D01*
X107808Y526216D01*
X107787Y526244D01*
X107753Y526279D01*
X107711Y526313D01*
X107669Y526362D01*
X107551Y526466D01*
X107427Y526584D01*
X107281Y526702D01*
X107128Y526806D01*
X106969Y526896D01*
Y527402D01*
X113390D01*
Y526618D01*
D02*
G37*
G36*
X113882Y523491D02*
Y523484D01*
X113869Y523463D01*
X113855Y523422D01*
X113834Y523373D01*
X113806Y523311D01*
X113778Y523235D01*
X113737Y523151D01*
X113688Y523061D01*
X113640Y522964D01*
X113584Y522853D01*
X113453Y522624D01*
X113293Y522375D01*
X113106Y522118D01*
X113113Y522111D01*
X113120Y522084D01*
X113140Y522049D01*
X113168Y521993D01*
X113196Y521924D01*
X113231Y521848D01*
X113265Y521758D01*
X113300Y521654D01*
X113335Y521543D01*
X113369Y521418D01*
X113404Y521293D01*
X113432Y521154D01*
X113480Y520856D01*
X113487Y520704D01*
X113494Y520544D01*
Y520461D01*
X113487Y520398D01*
X113480Y520322D01*
X113473Y520232D01*
X113459Y520135D01*
X113439Y520024D01*
X113418Y519906D01*
X113390Y519781D01*
X113355Y519650D01*
X113321Y519518D01*
X113272Y519379D01*
X113217Y519240D01*
X113154Y519102D01*
X113078Y518970D01*
X113071Y518963D01*
X113057Y518942D01*
X113036Y518901D01*
X113002Y518852D01*
X112960Y518797D01*
X112905Y518727D01*
X112842Y518651D01*
X112773Y518568D01*
X112697Y518485D01*
X112606Y518395D01*
X112509Y518304D01*
X112405Y518214D01*
X112295Y518124D01*
X112177Y518041D01*
X112045Y517958D01*
X111906Y517881D01*
X111899Y517874D01*
X111872Y517868D01*
X111830Y517847D01*
X111774Y517819D01*
X111698Y517791D01*
X111615Y517763D01*
X111518Y517729D01*
X111407Y517694D01*
X111282Y517653D01*
X111150Y517618D01*
X111012Y517590D01*
X110859Y517562D01*
X110707Y517535D01*
X110540Y517514D01*
X110367Y517507D01*
X110193Y517500D01*
X110180D01*
X110152D01*
X110103D01*
X110034Y517507D01*
X109951Y517514D01*
X109854Y517521D01*
X109743Y517535D01*
X109618Y517549D01*
X109493Y517569D01*
X109354Y517590D01*
X109063Y517659D01*
X108918Y517708D01*
X108765Y517757D01*
X108612Y517812D01*
X108467Y517881D01*
X108460Y517888D01*
X108432Y517902D01*
X108391Y517923D01*
X108342Y517951D01*
X108273Y517992D01*
X108196Y518041D01*
X108120Y518096D01*
X108030Y518159D01*
X107933Y518235D01*
X107836Y518318D01*
X107739Y518401D01*
X107642Y518499D01*
X107545Y518610D01*
X107454Y518721D01*
X107364Y518838D01*
X107288Y518970D01*
X107281Y518977D01*
X107267Y519005D01*
X107253Y519039D01*
X107226Y519095D01*
X107191Y519164D01*
X107156Y519240D01*
X107122Y519338D01*
X107080Y519435D01*
X107045Y519553D01*
X107011Y519670D01*
X106976Y519802D01*
X106941Y519948D01*
X106914Y520093D01*
X106900Y520246D01*
X106886Y520406D01*
X106879Y520565D01*
Y520648D01*
X106886Y520711D01*
X106893Y520794D01*
X106900Y520884D01*
X106914Y520981D01*
X106934Y521092D01*
X106955Y521217D01*
X106983Y521342D01*
X107018Y521473D01*
X107059Y521612D01*
X107108Y521751D01*
X107163Y521889D01*
X107226Y522021D01*
X107302Y522160D01*
X107309Y522167D01*
X107323Y522195D01*
X107344Y522229D01*
X107378Y522278D01*
X107420Y522340D01*
X107475Y522402D01*
X107538Y522479D01*
X107607Y522562D01*
X107690Y522652D01*
X107773Y522742D01*
X107871Y522832D01*
X107975Y522923D01*
X108092Y523006D01*
X108210Y523096D01*
X108342Y523172D01*
X108481Y523248D01*
X108488Y523255D01*
X108515Y523262D01*
X108557Y523283D01*
X108612Y523304D01*
X108682Y523339D01*
X108772Y523366D01*
X108869Y523401D01*
X108980Y523436D01*
X109098Y523470D01*
X109230Y523505D01*
X109368Y523540D01*
X109521Y523568D01*
X109673Y523588D01*
X109840Y523609D01*
X110013Y523616D01*
X110187Y523623D01*
X110193D01*
X110221D01*
X110263D01*
X110318Y523616D01*
X110388D01*
X110471Y523609D01*
X110561Y523602D01*
X110658Y523595D01*
X110769Y523581D01*
X110880Y523560D01*
X111123Y523519D01*
X111365Y523463D01*
X111608Y523380D01*
X111615D01*
X111636Y523366D01*
X111670Y523353D01*
X111712Y523332D01*
X111768Y523311D01*
X111830Y523276D01*
X111906Y523242D01*
X111982Y523200D01*
X112156Y523096D01*
X112336Y522971D01*
X112523Y522826D01*
X112704Y522652D01*
X112711Y522659D01*
X112724Y522680D01*
X112745Y522708D01*
X112773Y522756D01*
X112801Y522805D01*
X112842Y522867D01*
X112884Y522936D01*
X112932Y523013D01*
X113029Y523179D01*
X113127Y523366D01*
X113224Y523560D01*
X113300Y523748D01*
X113882Y523491D01*
D02*
G37*
G36*
X-446181Y-286934D02*
X-446049Y-286939D01*
X-445912Y-286948D01*
X-445770Y-286963D01*
X-445627Y-286988D01*
X-445475Y-287022D01*
X-445323Y-287066D01*
X-445314D01*
X-445289Y-287081D01*
X-445245Y-287096D01*
X-445186Y-287115D01*
X-445112Y-287149D01*
X-445034Y-287189D01*
X-444941Y-287233D01*
X-444838Y-287287D01*
X-444720Y-287346D01*
X-444603Y-287414D01*
X-444485Y-287493D01*
X-444357Y-287581D01*
X-444230Y-287669D01*
X-444098Y-287772D01*
X-443970Y-287890D01*
X-443843Y-288008D01*
X-443833Y-288017D01*
X-443813Y-288037D01*
X-443779Y-288071D01*
X-443735Y-288125D01*
X-443681Y-288189D01*
X-443617Y-288262D01*
X-443548Y-288351D01*
X-443470Y-288449D01*
X-443396Y-288552D01*
X-443313Y-288664D01*
X-443156Y-288920D01*
X-443088Y-289057D01*
X-443014Y-289199D01*
X-442945Y-289346D01*
X-442891Y-289498D01*
Y-289508D01*
X-442882Y-289537D01*
X-442867Y-289581D01*
X-442852Y-289635D01*
X-442832Y-289714D01*
X-442813Y-289802D01*
X-442798Y-289895D01*
X-442779Y-290003D01*
X-442764Y-290126D01*
X-442754Y-290253D01*
X-442744Y-290381D01*
Y-290518D01*
X-442754Y-290665D01*
X-442769Y-290807D01*
X-442788Y-290954D01*
X-442828Y-291101D01*
Y-291111D01*
X-442837Y-291141D01*
X-442852Y-291175D01*
X-442872Y-291234D01*
X-442896Y-291307D01*
X-442926Y-291386D01*
X-442970Y-291479D01*
X-443009Y-291577D01*
X-443068Y-291685D01*
X-443127Y-291793D01*
X-443195Y-291910D01*
X-443274Y-292038D01*
X-443357Y-292160D01*
X-443455Y-292278D01*
X-443558Y-292401D01*
X-443666Y-292518D01*
X-443725Y-292577D01*
X-443774Y-292617D01*
X-443838Y-292670D01*
X-443906Y-292729D01*
X-443985Y-292788D01*
X-444078Y-292852D01*
X-444181Y-292925D01*
X-444289Y-292994D01*
X-444407Y-293063D01*
X-444534Y-293131D01*
X-444666Y-293195D01*
X-444804Y-293254D01*
X-444941Y-293303D01*
X-445093Y-293347D01*
X-445103D01*
X-445132Y-293357D01*
X-445171Y-293367D01*
X-445230Y-293377D01*
X-445304Y-293391D01*
X-445387Y-293396D01*
X-445485Y-293406D01*
X-445593Y-293416D01*
X-445716Y-293421D01*
X-445838Y-293426D01*
X-445971Y-293421D01*
X-446108Y-293411D01*
X-446250Y-293386D01*
X-446397Y-293367D01*
X-446544Y-293328D01*
X-446696Y-293283D01*
X-446706D01*
X-446731Y-293269D01*
X-446775Y-293254D01*
X-446829Y-293229D01*
X-446902Y-293205D01*
X-446986Y-293161D01*
X-447079Y-293117D01*
X-447182Y-293063D01*
X-447290Y-293004D01*
X-447407Y-292935D01*
X-447530Y-292862D01*
X-447657Y-292773D01*
X-447780Y-292680D01*
X-447912Y-292577D01*
X-448040Y-292460D01*
X-448167Y-292342D01*
X-448172Y-292337D01*
X-448192Y-292317D01*
X-448221Y-292288D01*
X-448256Y-292244D01*
X-448304Y-292195D01*
X-448358Y-292131D01*
X-448417Y-292062D01*
X-448481Y-291989D01*
X-448550Y-291901D01*
X-448614Y-291807D01*
X-448756Y-291606D01*
X-448888Y-291396D01*
X-449001Y-291165D01*
X-449006Y-291160D01*
X-449011Y-291136D01*
X-449025Y-291101D01*
X-449040Y-291057D01*
X-449064Y-291003D01*
X-449084Y-290935D01*
X-449114Y-290856D01*
X-449138Y-290773D01*
X-449187Y-290577D01*
X-449226Y-290361D01*
X-449256Y-290126D01*
X-449261Y-289876D01*
X-449271D01*
X-449295Y-289881D01*
X-449329Y-289885D01*
X-449383Y-289900D01*
X-449437Y-289915D01*
X-449511Y-289930D01*
X-449589Y-289949D01*
X-449677Y-289969D01*
X-449864Y-290018D01*
X-450065Y-290082D01*
X-450271Y-290150D01*
X-450457Y-290229D01*
X-450687Y-289635D01*
X-450683Y-289630D01*
X-450658Y-289625D01*
X-450619Y-289606D01*
X-450570Y-289586D01*
X-450506Y-289562D01*
X-450433Y-289527D01*
X-450344Y-289498D01*
X-450246Y-289469D01*
X-450143Y-289434D01*
X-450026Y-289395D01*
X-449771Y-289326D01*
X-449481Y-289263D01*
X-449168Y-289214D01*
Y-289204D01*
X-449153Y-289179D01*
X-449143Y-289140D01*
X-449123Y-289081D01*
X-449094Y-289013D01*
X-449064Y-288934D01*
X-449025Y-288846D01*
X-448976Y-288748D01*
X-448922Y-288645D01*
X-448859Y-288532D01*
X-448795Y-288419D01*
X-448716Y-288302D01*
X-448540Y-288057D01*
X-448437Y-287944D01*
X-448329Y-287826D01*
X-448270Y-287767D01*
X-448221Y-287728D01*
X-448162Y-287679D01*
X-448094Y-287620D01*
X-448015Y-287561D01*
X-447922Y-287498D01*
X-447824Y-287429D01*
X-447716Y-287360D01*
X-447598Y-287292D01*
X-447481Y-287223D01*
X-447348Y-287159D01*
X-447211Y-287100D01*
X-447069Y-287046D01*
X-446922Y-287007D01*
X-446912D01*
X-446888Y-287002D01*
X-446843Y-286988D01*
X-446785Y-286978D01*
X-446716Y-286968D01*
X-446628Y-286958D01*
X-446530Y-286948D01*
X-446422Y-286939D01*
X-446309Y-286934D01*
X-446181D01*
D02*
G37*
G36*
X-450987Y-291504D02*
X-450977D01*
X-450942Y-291508D01*
X-450893Y-291518D01*
X-450820Y-291533D01*
X-450732Y-291553D01*
X-450629Y-291587D01*
X-450506Y-291631D01*
X-450369Y-291690D01*
X-450217Y-291754D01*
X-450055Y-291837D01*
X-449883Y-291940D01*
X-449697Y-292057D01*
X-449501Y-292195D01*
X-449300Y-292357D01*
X-449089Y-292538D01*
X-448873Y-292744D01*
X-448868Y-292749D01*
X-448859Y-292759D01*
X-448839Y-292778D01*
X-448815Y-292803D01*
X-448785Y-292832D01*
X-448751Y-292876D01*
X-448712Y-292916D01*
X-448667Y-292969D01*
X-448564Y-293082D01*
X-448452Y-293215D01*
X-448329Y-293367D01*
X-448202Y-293533D01*
X-448074Y-293720D01*
X-447947Y-293906D01*
X-447829Y-294102D01*
X-447721Y-294308D01*
X-447623Y-294514D01*
X-447540Y-294725D01*
X-447486Y-294936D01*
X-447451Y-295137D01*
Y-295147D01*
X-447447Y-295181D01*
Y-295230D01*
Y-295299D01*
Y-295377D01*
X-447456Y-295475D01*
X-447471Y-295578D01*
X-447491Y-295696D01*
X-447520Y-295823D01*
X-447564Y-295956D01*
X-447613Y-296093D01*
X-447677Y-296235D01*
X-447751Y-296377D01*
X-447844Y-296519D01*
X-447947Y-296662D01*
X-448074Y-296799D01*
X-448128Y-296853D01*
X-448167Y-296882D01*
X-448216Y-296922D01*
X-448275Y-296971D01*
X-448344Y-297020D01*
X-448422Y-297069D01*
X-448599Y-297176D01*
X-448692Y-297221D01*
X-448800Y-297270D01*
X-448908Y-297309D01*
X-449020Y-297333D01*
X-449133Y-297358D01*
X-449256Y-297373D01*
X-449266D01*
X-449285D01*
X-449319Y-297377D01*
X-449364Y-297373D01*
X-449422D01*
X-449491Y-297363D01*
X-449570Y-297353D01*
X-449653Y-297338D01*
X-449741Y-297319D01*
X-449839Y-297289D01*
X-449942Y-297255D01*
X-450050Y-297216D01*
X-450158Y-297167D01*
X-450266Y-297108D01*
X-450379Y-297044D01*
X-450491Y-296961D01*
X-449981Y-296363D01*
X-449977Y-296367D01*
X-449962Y-296372D01*
X-449942Y-296382D01*
X-449913Y-296402D01*
X-449839Y-296446D01*
X-449746Y-296490D01*
X-449638Y-296539D01*
X-449520Y-296578D01*
X-449408Y-296613D01*
X-449295Y-296627D01*
X-449285D01*
X-449275D01*
X-449246D01*
X-449217D01*
X-449128Y-296618D01*
X-449016Y-296593D01*
X-448893Y-296559D01*
X-448760Y-296495D01*
X-448623Y-296416D01*
X-448559Y-296363D01*
X-448496Y-296309D01*
X-448452Y-296264D01*
X-448408Y-296201D01*
X-448354Y-296127D01*
X-448300Y-296034D01*
X-448246Y-295931D01*
X-448206Y-295813D01*
X-448177Y-295686D01*
X-448172Y-295681D01*
X-448177Y-295666D01*
X-448172Y-295642D01*
X-448167Y-295607D01*
Y-295519D01*
X-448172Y-295397D01*
X-448182Y-295250D01*
X-448211Y-295083D01*
X-448260Y-294906D01*
X-448324Y-294715D01*
X-448329Y-294710D01*
X-448334Y-294695D01*
X-448349Y-294661D01*
X-448368Y-294622D01*
X-448393Y-294578D01*
X-448427Y-294514D01*
X-448466Y-294445D01*
X-448511Y-294372D01*
X-448564Y-294289D01*
X-448633Y-294200D01*
X-448707Y-294097D01*
X-448785Y-293989D01*
X-448873Y-293881D01*
X-448976Y-293769D01*
X-449089Y-293646D01*
X-449202Y-293524D01*
Y-293524D01*
X-449207Y-293519D01*
X-449202Y-293524D01*
Y-293543D01*
X-449197Y-293568D01*
X-449192Y-293602D01*
X-449182Y-293700D01*
X-449168Y-293823D01*
Y-293970D01*
X-449177Y-294127D01*
X-449202Y-294289D01*
X-449241Y-294455D01*
X-449246Y-294460D01*
X-449251Y-294475D01*
X-449256Y-294499D01*
X-449266Y-294529D01*
X-449285Y-294568D01*
X-449300Y-294612D01*
X-449349Y-294720D01*
X-449418Y-294838D01*
X-449496Y-294965D01*
X-449589Y-295098D01*
X-449702Y-295220D01*
X-449726Y-295245D01*
X-449761Y-295269D01*
X-449800Y-295308D01*
X-449859Y-295348D01*
X-449918Y-295397D01*
X-449996Y-295446D01*
X-450079Y-295500D01*
X-450173Y-295544D01*
X-450276Y-295598D01*
X-450388Y-295642D01*
X-450506Y-295681D01*
X-450639Y-295715D01*
X-450771Y-295740D01*
X-450913Y-295755D01*
X-451060D01*
X-451070D01*
X-451095Y-295750D01*
X-451134D01*
X-451197Y-295745D01*
X-451266Y-295735D01*
X-451344Y-295715D01*
X-451443Y-295696D01*
X-451541Y-295666D01*
X-451648Y-295627D01*
X-451766Y-295588D01*
X-451884Y-295529D01*
X-452011Y-295470D01*
X-452134Y-295397D01*
X-452261Y-295308D01*
X-452384Y-295205D01*
X-452507Y-295093D01*
X-452511Y-295088D01*
X-452526Y-295073D01*
X-452546Y-295053D01*
X-452575Y-295014D01*
X-452610Y-294980D01*
X-452649Y-294931D01*
X-452698Y-294872D01*
X-452742Y-294808D01*
X-452845Y-294666D01*
X-452943Y-294499D01*
X-453036Y-294318D01*
X-453115Y-294112D01*
X-453120Y-294107D01*
Y-294087D01*
X-453129Y-294058D01*
X-453139Y-294019D01*
X-453149Y-293970D01*
X-453164Y-293916D01*
X-453188Y-293774D01*
X-453208Y-293617D01*
X-453213Y-293435D01*
X-453203Y-293239D01*
X-453168Y-293048D01*
X-453164Y-293043D01*
Y-293023D01*
X-453154Y-292994D01*
X-453139Y-292960D01*
X-453124Y-292916D01*
X-453105Y-292866D01*
X-453080Y-292803D01*
X-453051Y-292744D01*
X-452982Y-292597D01*
X-452884Y-292440D01*
X-452766Y-292283D01*
X-452629Y-292126D01*
X-452600Y-292097D01*
X-452556Y-292062D01*
X-452502Y-292018D01*
X-452438Y-291964D01*
X-452355Y-291910D01*
X-452266Y-291852D01*
X-452163Y-291788D01*
X-452046Y-291729D01*
X-451923Y-291665D01*
X-451786Y-291616D01*
X-451644Y-291572D01*
X-451487Y-291533D01*
X-451330Y-291513D01*
X-451158Y-291499D01*
X-450987Y-291504D01*
D02*
G37*
G36*
X-110034Y-517507D02*
X-109951Y-517514D01*
X-109854Y-517521D01*
X-109743Y-517535D01*
X-109618Y-517549D01*
X-109493Y-517569D01*
X-109354Y-517590D01*
X-109063Y-517659D01*
X-108918Y-517708D01*
X-108765Y-517757D01*
X-108612Y-517812D01*
X-108467Y-517881D01*
X-108460Y-517888D01*
X-108432Y-517902D01*
X-108391Y-517923D01*
X-108342Y-517951D01*
X-108273Y-517992D01*
X-108196Y-518041D01*
X-108120Y-518096D01*
X-108030Y-518159D01*
X-107933Y-518235D01*
X-107836Y-518318D01*
X-107739Y-518401D01*
X-107642Y-518499D01*
X-107545Y-518610D01*
X-107454Y-518721D01*
X-107364Y-518838D01*
X-107288Y-518970D01*
X-107281Y-518977D01*
X-107267Y-519005D01*
X-107253Y-519039D01*
X-107226Y-519095D01*
X-107191Y-519164D01*
X-107156Y-519240D01*
X-107122Y-519338D01*
X-107080Y-519435D01*
X-107045Y-519553D01*
X-107011Y-519670D01*
X-106976Y-519802D01*
X-106941Y-519948D01*
X-106914Y-520093D01*
X-106900Y-520246D01*
X-106886Y-520406D01*
X-106879Y-520565D01*
Y-520648D01*
X-106886Y-520711D01*
X-106893Y-520794D01*
X-106900Y-520884D01*
X-106914Y-520981D01*
X-106934Y-521092D01*
X-106955Y-521217D01*
X-106983Y-521342D01*
X-107018Y-521473D01*
X-107059Y-521612D01*
X-107108Y-521751D01*
X-107163Y-521889D01*
X-107226Y-522021D01*
X-107302Y-522160D01*
X-107309Y-522167D01*
X-107323Y-522195D01*
X-107344Y-522229D01*
X-107378Y-522278D01*
X-107420Y-522340D01*
X-107475Y-522402D01*
X-107538Y-522479D01*
X-107607Y-522562D01*
X-107690Y-522652D01*
X-107773Y-522742D01*
X-107871Y-522832D01*
X-107975Y-522923D01*
X-108092Y-523006D01*
X-108210Y-523096D01*
X-108342Y-523172D01*
X-108481Y-523248D01*
X-108488Y-523255D01*
X-108515Y-523262D01*
X-108557Y-523283D01*
X-108612Y-523304D01*
X-108682Y-523339D01*
X-108772Y-523366D01*
X-108869Y-523401D01*
X-108980Y-523436D01*
X-109098Y-523470D01*
X-109230Y-523505D01*
X-109368Y-523540D01*
X-109521Y-523568D01*
X-109673Y-523588D01*
X-109840Y-523609D01*
X-110013Y-523616D01*
X-110187Y-523623D01*
X-110193D01*
X-110221D01*
X-110263D01*
X-110318Y-523616D01*
X-110388D01*
X-110471Y-523609D01*
X-110561Y-523602D01*
X-110658Y-523595D01*
X-110769Y-523581D01*
X-110880Y-523560D01*
X-111123Y-523519D01*
X-111365Y-523463D01*
X-111608Y-523380D01*
X-111615D01*
X-111636Y-523366D01*
X-111670Y-523353D01*
X-111712Y-523332D01*
X-111768Y-523311D01*
X-111830Y-523276D01*
X-111906Y-523242D01*
X-111982Y-523200D01*
X-112156Y-523096D01*
X-112336Y-522971D01*
X-112523Y-522826D01*
X-112704Y-522652D01*
X-112711Y-522659D01*
X-112724Y-522680D01*
X-112745Y-522708D01*
X-112773Y-522756D01*
X-112801Y-522805D01*
X-112842Y-522867D01*
X-112884Y-522936D01*
X-112932Y-523013D01*
X-113029Y-523179D01*
X-113127Y-523366D01*
X-113224Y-523560D01*
X-113300Y-523748D01*
X-113882Y-523491D01*
Y-523484D01*
X-113869Y-523463D01*
X-113855Y-523422D01*
X-113834Y-523373D01*
X-113806Y-523311D01*
X-113778Y-523235D01*
X-113737Y-523151D01*
X-113688Y-523061D01*
X-113640Y-522964D01*
X-113584Y-522853D01*
X-113453Y-522624D01*
X-113293Y-522375D01*
X-113106Y-522118D01*
X-113113Y-522111D01*
X-113120Y-522084D01*
X-113140Y-522049D01*
X-113168Y-521993D01*
X-113196Y-521924D01*
X-113231Y-521848D01*
X-113265Y-521758D01*
X-113300Y-521654D01*
X-113335Y-521543D01*
X-113369Y-521418D01*
X-113404Y-521293D01*
X-113432Y-521154D01*
X-113480Y-520856D01*
X-113487Y-520704D01*
X-113494Y-520544D01*
Y-520461D01*
X-113487Y-520398D01*
X-113480Y-520322D01*
X-113473Y-520232D01*
X-113459Y-520135D01*
X-113439Y-520024D01*
X-113418Y-519906D01*
X-113390Y-519781D01*
X-113355Y-519650D01*
X-113321Y-519518D01*
X-113272Y-519379D01*
X-113217Y-519240D01*
X-113154Y-519102D01*
X-113078Y-518970D01*
X-113071Y-518963D01*
X-113057Y-518942D01*
X-113036Y-518901D01*
X-113002Y-518852D01*
X-112960Y-518797D01*
X-112905Y-518727D01*
X-112842Y-518651D01*
X-112773Y-518568D01*
X-112697Y-518485D01*
X-112606Y-518395D01*
X-112509Y-518304D01*
X-112405Y-518214D01*
X-112295Y-518124D01*
X-112177Y-518041D01*
X-112045Y-517958D01*
X-111906Y-517881D01*
X-111899Y-517874D01*
X-111872Y-517868D01*
X-111830Y-517847D01*
X-111774Y-517819D01*
X-111698Y-517791D01*
X-111615Y-517763D01*
X-111518Y-517729D01*
X-111407Y-517694D01*
X-111282Y-517653D01*
X-111150Y-517618D01*
X-111012Y-517590D01*
X-110859Y-517562D01*
X-110707Y-517535D01*
X-110540Y-517514D01*
X-110367Y-517507D01*
X-110193Y-517500D01*
X-110180D01*
X-110152D01*
X-110103D01*
X-110034Y-517507D01*
D02*
G37*
G36*
X-111650Y-525273D02*
X-111657D01*
X-111677Y-525280D01*
X-111705Y-525287D01*
X-111747Y-525294D01*
X-111795Y-525301D01*
X-111858Y-525322D01*
X-111989Y-525356D01*
X-112135Y-525412D01*
X-112288Y-525488D01*
X-112426Y-525578D01*
X-112489Y-525634D01*
X-112551Y-525689D01*
Y-525696D01*
X-112565Y-525703D01*
X-112579Y-525724D01*
X-112600Y-525752D01*
X-112648Y-525821D01*
X-112697Y-525918D01*
X-112752Y-526036D01*
X-112801Y-526175D01*
X-112835Y-526327D01*
X-112842Y-526410D01*
X-112849Y-526501D01*
Y-526556D01*
X-112842Y-526598D01*
X-112835Y-526646D01*
X-112828Y-526702D01*
X-112794Y-526833D01*
X-112745Y-526986D01*
X-112711Y-527062D01*
X-112669Y-527146D01*
X-112620Y-527229D01*
X-112565Y-527305D01*
X-112502Y-527381D01*
X-112426Y-527458D01*
X-112419Y-527464D01*
X-112405Y-527471D01*
X-112385Y-527492D01*
X-112350Y-527520D01*
X-112301Y-527548D01*
X-112253Y-527582D01*
X-112191Y-527617D01*
X-112121Y-527659D01*
X-112045Y-527693D01*
X-111962Y-527728D01*
X-111865Y-527763D01*
X-111768Y-527790D01*
X-111657Y-527818D01*
X-111539Y-527839D01*
X-111421Y-527846D01*
X-111289Y-527853D01*
X-111282D01*
X-111261D01*
X-111227D01*
X-111178Y-527846D01*
X-111123Y-527839D01*
X-111053Y-527832D01*
X-110984Y-527818D01*
X-110901Y-527804D01*
X-110734Y-527763D01*
X-110554Y-527693D01*
X-110471Y-527652D01*
X-110388Y-527596D01*
X-110304Y-527541D01*
X-110228Y-527471D01*
X-110221Y-527464D01*
X-110214Y-527458D01*
X-110193Y-527430D01*
X-110166Y-527402D01*
X-110138Y-527367D01*
X-110103Y-527319D01*
X-110069Y-527270D01*
X-110027Y-527208D01*
X-109992Y-527139D01*
X-109958Y-527069D01*
X-109895Y-526896D01*
X-109867Y-526806D01*
X-109847Y-526702D01*
X-109840Y-526598D01*
X-109833Y-526487D01*
Y-526424D01*
X-109840Y-526348D01*
X-109854Y-526258D01*
X-109874Y-526147D01*
X-109909Y-526029D01*
X-109951Y-525911D01*
X-110013Y-525793D01*
X-110020Y-525779D01*
X-110041Y-525745D01*
X-110083Y-525689D01*
X-110131Y-525620D01*
X-110200Y-525551D01*
X-110277Y-525467D01*
X-110367Y-525391D01*
X-110464Y-525322D01*
X-110360Y-524587D01*
X-107073Y-525204D01*
Y-528387D01*
X-107822D01*
Y-525828D01*
X-109542Y-525488D01*
X-109535Y-525495D01*
X-109521Y-525516D01*
X-109507Y-525544D01*
X-109479Y-525585D01*
X-109452Y-525641D01*
X-109417Y-525703D01*
X-109375Y-525773D01*
X-109340Y-525856D01*
X-109306Y-525939D01*
X-109264Y-526036D01*
X-109202Y-526237D01*
X-109174Y-526348D01*
X-109153Y-526459D01*
X-109146Y-526577D01*
X-109139Y-526695D01*
Y-526730D01*
X-109146Y-526778D01*
Y-526833D01*
X-109160Y-526903D01*
X-109167Y-526986D01*
X-109188Y-527083D01*
X-109209Y-527180D01*
X-109243Y-527291D01*
X-109278Y-527402D01*
X-109327Y-527520D01*
X-109382Y-527638D01*
X-109452Y-527756D01*
X-109528Y-527874D01*
X-109618Y-527991D01*
X-109722Y-528102D01*
X-109729Y-528109D01*
X-109750Y-528130D01*
X-109784Y-528158D01*
X-109826Y-528193D01*
X-109881Y-528241D01*
X-109958Y-528290D01*
X-110034Y-528338D01*
X-110124Y-528394D01*
X-110228Y-528449D01*
X-110346Y-528498D01*
X-110464Y-528553D01*
X-110603Y-528595D01*
X-110741Y-528629D01*
X-110894Y-528657D01*
X-111053Y-528678D01*
X-111220Y-528685D01*
X-111227D01*
X-111261D01*
X-111303D01*
X-111365Y-528678D01*
X-111442Y-528671D01*
X-111525Y-528657D01*
X-111622Y-528643D01*
X-111733Y-528623D01*
X-111844Y-528595D01*
X-111969Y-528560D01*
X-112093Y-528518D01*
X-112218Y-528470D01*
X-112343Y-528414D01*
X-112475Y-528345D01*
X-112600Y-528269D01*
X-112718Y-528179D01*
X-112724Y-528172D01*
X-112752Y-528151D01*
X-112787Y-528116D01*
X-112835Y-528068D01*
X-112898Y-528005D01*
X-112960Y-527929D01*
X-113036Y-527839D01*
X-113106Y-527735D01*
X-113175Y-527624D01*
X-113251Y-527499D01*
X-113314Y-527360D01*
X-113369Y-527208D01*
X-113425Y-527048D01*
X-113459Y-526875D01*
X-113487Y-526695D01*
X-113494Y-526501D01*
Y-526417D01*
X-113487Y-526355D01*
X-113480Y-526279D01*
X-113466Y-526195D01*
X-113453Y-526098D01*
X-113432Y-525994D01*
X-113411Y-525883D01*
X-113376Y-525766D01*
X-113335Y-525648D01*
X-113286Y-525530D01*
X-113231Y-525412D01*
X-113168Y-525294D01*
X-113092Y-525183D01*
X-113009Y-525072D01*
X-113002Y-525065D01*
X-112988Y-525051D01*
X-112960Y-525024D01*
X-112919Y-524989D01*
X-112870Y-524940D01*
X-112815Y-524892D01*
X-112745Y-524843D01*
X-112662Y-524788D01*
X-112579Y-524732D01*
X-112482Y-524677D01*
X-112371Y-524628D01*
X-112260Y-524580D01*
X-112135Y-524531D01*
X-112003Y-524497D01*
X-111858Y-524469D01*
X-111712Y-524448D01*
X-111650Y-525273D01*
D02*
G37*
G36*
X290518Y-442744D02*
X290665Y-442754D01*
X290807Y-442769D01*
X290954Y-442788D01*
X291101Y-442828D01*
X291111D01*
X291141Y-442837D01*
X291175Y-442852D01*
X291234Y-442872D01*
X291307Y-442896D01*
X291386Y-442926D01*
X291479Y-442970D01*
X291577Y-443009D01*
X291685Y-443068D01*
X291793Y-443127D01*
X291910Y-443195D01*
X292038Y-443274D01*
X292160Y-443357D01*
X292278Y-443455D01*
X292401Y-443558D01*
X292518Y-443666D01*
X292577Y-443725D01*
X292617Y-443774D01*
X292670Y-443838D01*
X292729Y-443906D01*
X292788Y-443985D01*
X292852Y-444078D01*
X292925Y-444181D01*
X292994Y-444289D01*
X293063Y-444406D01*
X293131Y-444534D01*
X293195Y-444666D01*
X293254Y-444804D01*
X293303Y-444941D01*
X293347Y-445093D01*
Y-445103D01*
X293357Y-445132D01*
X293367Y-445171D01*
X293377Y-445230D01*
X293391Y-445304D01*
X293396Y-445387D01*
X293406Y-445485D01*
X293416Y-445593D01*
X293421Y-445716D01*
X293426Y-445838D01*
X293421Y-445971D01*
X293411Y-446108D01*
X293386Y-446250D01*
X293367Y-446397D01*
X293328Y-446544D01*
X293283Y-446696D01*
Y-446706D01*
X293269Y-446731D01*
X293254Y-446775D01*
X293229Y-446829D01*
X293205Y-446902D01*
X293161Y-446986D01*
X293117Y-447079D01*
X293063Y-447182D01*
X293004Y-447290D01*
X292935Y-447407D01*
X292862Y-447530D01*
X292773Y-447657D01*
X292680Y-447780D01*
X292577Y-447912D01*
X292460Y-448040D01*
X292342Y-448167D01*
X292337Y-448172D01*
X292317Y-448192D01*
X292288Y-448221D01*
X292244Y-448256D01*
X292195Y-448304D01*
X292131Y-448358D01*
X292062Y-448417D01*
X291989Y-448481D01*
X291901Y-448550D01*
X291807Y-448613D01*
X291606Y-448756D01*
X291396Y-448888D01*
X291165Y-449001D01*
X291160Y-449006D01*
X291136Y-449011D01*
X291101Y-449025D01*
X291057Y-449040D01*
X291003Y-449064D01*
X290935Y-449084D01*
X290856Y-449114D01*
X290773Y-449138D01*
X290577Y-449187D01*
X290361Y-449226D01*
X290126Y-449256D01*
X289876Y-449261D01*
Y-449270D01*
X289881Y-449295D01*
X289885Y-449329D01*
X289900Y-449383D01*
X289915Y-449437D01*
X289930Y-449511D01*
X289949Y-449589D01*
X289969Y-449677D01*
X290018Y-449864D01*
X290082Y-450065D01*
X290150Y-450271D01*
X290229Y-450457D01*
X289635Y-450687D01*
X289630Y-450683D01*
X289625Y-450658D01*
X289606Y-450619D01*
X289586Y-450570D01*
X289562Y-450506D01*
X289527Y-450433D01*
X289498Y-450344D01*
X289469Y-450246D01*
X289434Y-450143D01*
X289395Y-450025D01*
X289326Y-449771D01*
X289263Y-449481D01*
X289214Y-449168D01*
X289204D01*
X289179Y-449153D01*
X289140Y-449143D01*
X289081Y-449123D01*
X289013Y-449094D01*
X288934Y-449064D01*
X288846Y-449025D01*
X288748Y-448976D01*
X288645Y-448922D01*
X288532Y-448859D01*
X288419Y-448795D01*
X288302Y-448716D01*
X288057Y-448540D01*
X287944Y-448437D01*
X287826Y-448329D01*
X287767Y-448270D01*
X287728Y-448221D01*
X287679Y-448162D01*
X287620Y-448094D01*
X287561Y-448015D01*
X287498Y-447922D01*
X287429Y-447824D01*
X287360Y-447716D01*
X287292Y-447598D01*
X287223Y-447481D01*
X287159Y-447348D01*
X287100Y-447211D01*
X287046Y-447069D01*
X287007Y-446922D01*
Y-446912D01*
X287002Y-446887D01*
X286988Y-446843D01*
X286978Y-446785D01*
X286968Y-446716D01*
X286958Y-446628D01*
X286948Y-446530D01*
X286939Y-446422D01*
X286934Y-446309D01*
Y-446181D01*
X286939Y-446049D01*
X286948Y-445912D01*
X286963Y-445770D01*
X286988Y-445627D01*
X287022Y-445475D01*
X287066Y-445323D01*
Y-445313D01*
X287081Y-445289D01*
X287096Y-445245D01*
X287115Y-445186D01*
X287149Y-445112D01*
X287189Y-445034D01*
X287233Y-444941D01*
X287287Y-444838D01*
X287346Y-444720D01*
X287414Y-444603D01*
X287493Y-444485D01*
X287581Y-444357D01*
X287669Y-444230D01*
X287772Y-444098D01*
X287890Y-443970D01*
X288008Y-443843D01*
X288017Y-443833D01*
X288037Y-443813D01*
X288071Y-443779D01*
X288125Y-443735D01*
X288189Y-443681D01*
X288262Y-443617D01*
X288351Y-443548D01*
X288449Y-443470D01*
X288552Y-443396D01*
X288664Y-443313D01*
X288920Y-443156D01*
X289057Y-443088D01*
X289199Y-443014D01*
X289346Y-442945D01*
X289498Y-442891D01*
X289508D01*
X289537Y-442882D01*
X289581Y-442867D01*
X289635Y-442852D01*
X289714Y-442832D01*
X289802Y-442813D01*
X289895Y-442798D01*
X290003Y-442779D01*
X290126Y-442764D01*
X290253Y-442754D01*
X290381Y-442744D01*
X290518D01*
D02*
G37*
G36*
X297520Y-448824D02*
X294588Y-451756D01*
X295201Y-452369D01*
X294690Y-452879D01*
X294078Y-452266D01*
X292994Y-453350D01*
X292440Y-452796D01*
X293524Y-451712D01*
X291553Y-449741D01*
X292062Y-449231D01*
X297064Y-448368D01*
X297520Y-448824D01*
D02*
G37*
G36*
X526584Y-106974D02*
X526632Y-106981D01*
X526764Y-106995D01*
X526910Y-107023D01*
X527076Y-107064D01*
X527243Y-107120D01*
X527409Y-107196D01*
X527416D01*
X527430Y-107203D01*
X527451Y-107217D01*
X527485Y-107238D01*
X527561Y-107286D01*
X527659Y-107355D01*
X527770Y-107446D01*
X527881Y-107550D01*
X527991Y-107668D01*
X528088Y-107806D01*
Y-107813D01*
X528095Y-107820D01*
X528109Y-107848D01*
X528123Y-107875D01*
X528144Y-107910D01*
X528165Y-107952D01*
X528206Y-108056D01*
X528248Y-108181D01*
X528290Y-108319D01*
X528317Y-108472D01*
X528324Y-108631D01*
Y-108638D01*
Y-108652D01*
Y-108673D01*
Y-108701D01*
X528310Y-108784D01*
X528297Y-108881D01*
X528269Y-108999D01*
X528227Y-109124D01*
X528172Y-109255D01*
X528095Y-109387D01*
Y-109394D01*
X528088Y-109401D01*
X528054Y-109443D01*
X528005Y-109505D01*
X527929Y-109581D01*
X527839Y-109671D01*
X527721Y-109762D01*
X527589Y-109845D01*
X527437Y-109928D01*
X527444D01*
X527464Y-109935D01*
X527492Y-109942D01*
X527534Y-109956D01*
X527575Y-109970D01*
X527631Y-109990D01*
X527763Y-110046D01*
X527901Y-110122D01*
X528047Y-110212D01*
X528192Y-110330D01*
X528317Y-110476D01*
X528324Y-110483D01*
X528331Y-110497D01*
X528345Y-110517D01*
X528366Y-110552D01*
X528394Y-110587D01*
X528421Y-110635D01*
X528449Y-110691D01*
X528477Y-110760D01*
X528505Y-110829D01*
X528532Y-110906D01*
X528588Y-111079D01*
X528622Y-111280D01*
X528636Y-111391D01*
Y-111502D01*
Y-111509D01*
Y-111537D01*
X528629Y-111585D01*
Y-111641D01*
X528615Y-111717D01*
X528602Y-111800D01*
X528588Y-111890D01*
X528560Y-111994D01*
X528525Y-112105D01*
X528484Y-112216D01*
X528435Y-112334D01*
X528373Y-112452D01*
X528303Y-112577D01*
X528220Y-112695D01*
X528130Y-112813D01*
X528019Y-112924D01*
X528012Y-112930D01*
X527991Y-112951D01*
X527957Y-112979D01*
X527908Y-113014D01*
X527853Y-113055D01*
X527776Y-113104D01*
X527693Y-113159D01*
X527596Y-113208D01*
X527492Y-113263D01*
X527374Y-113319D01*
X527249Y-113367D01*
X527111Y-113409D01*
X526965Y-113444D01*
X526813Y-113471D01*
X526653Y-113492D01*
X526480Y-113499D01*
X526445D01*
X526397Y-113492D01*
X526341D01*
X526265Y-113485D01*
X526182Y-113471D01*
X526091Y-113457D01*
X525987Y-113437D01*
X525877Y-113409D01*
X525765Y-113374D01*
X525648Y-113340D01*
X525530Y-113291D01*
X525412Y-113229D01*
X525301Y-113166D01*
X525183Y-113090D01*
X525079Y-113000D01*
X525072Y-112993D01*
X525058Y-112979D01*
X525031Y-112951D01*
X524989Y-112910D01*
X524947Y-112861D01*
X524899Y-112799D01*
X524850Y-112729D01*
X524795Y-112646D01*
X524739Y-112563D01*
X524684Y-112459D01*
X524628Y-112355D01*
X524580Y-112237D01*
X524538Y-112112D01*
X524497Y-111980D01*
X524469Y-111842D01*
X524448Y-111696D01*
X525232Y-111592D01*
Y-111599D01*
X525238Y-111620D01*
X525246Y-111655D01*
X525259Y-111703D01*
X525273Y-111759D01*
X525287Y-111821D01*
X525336Y-111967D01*
X525398Y-112126D01*
X525474Y-112286D01*
X525571Y-112431D01*
X525627Y-112494D01*
X525682Y-112556D01*
X525689D01*
X525696Y-112570D01*
X525717Y-112584D01*
X525738Y-112605D01*
X525807Y-112646D01*
X525904Y-112702D01*
X526022Y-112757D01*
X526154Y-112799D01*
X526313Y-112833D01*
X526480Y-112847D01*
X526535D01*
X526577Y-112840D01*
X526618Y-112833D01*
X526681Y-112826D01*
X526806Y-112799D01*
X526958Y-112757D01*
X527118Y-112688D01*
X527194Y-112639D01*
X527270Y-112591D01*
X527346Y-112535D01*
X527423Y-112466D01*
X527430Y-112459D01*
X527437Y-112445D01*
X527458Y-112424D01*
X527485Y-112397D01*
X527513Y-112362D01*
X527541Y-112313D01*
X527575Y-112265D01*
X527617Y-112202D01*
X527686Y-112064D01*
X527742Y-111904D01*
X527790Y-111717D01*
X527797Y-111620D01*
X527804Y-111516D01*
Y-111509D01*
Y-111495D01*
Y-111461D01*
X527797Y-111426D01*
X527790Y-111377D01*
X527783Y-111329D01*
X527763Y-111204D01*
X527714Y-111058D01*
X527652Y-110913D01*
X527610Y-110836D01*
X527561Y-110767D01*
X527506Y-110698D01*
X527444Y-110628D01*
X527437Y-110621D01*
X527430Y-110615D01*
X527409Y-110594D01*
X527381Y-110573D01*
X527346Y-110545D01*
X527305Y-110517D01*
X527201Y-110448D01*
X527069Y-110386D01*
X526917Y-110330D01*
X526743Y-110289D01*
X526646Y-110282D01*
X526549Y-110275D01*
X526507D01*
X526459Y-110282D01*
X526397D01*
X526313Y-110295D01*
X526223Y-110309D01*
X526112Y-110330D01*
X525994Y-110358D01*
X526078Y-109671D01*
X526091D01*
X526126Y-109678D01*
X526168Y-109685D01*
X526258D01*
X526292Y-109678D01*
X526341D01*
X526390Y-109671D01*
X526507Y-109651D01*
X526646Y-109623D01*
X526799Y-109574D01*
X526958Y-109512D01*
X527111Y-109422D01*
X527118D01*
X527132Y-109408D01*
X527146Y-109394D01*
X527173Y-109373D01*
X527243Y-109311D01*
X527319Y-109221D01*
X527388Y-109110D01*
X527458Y-108971D01*
X527485Y-108895D01*
X527499Y-108805D01*
X527513Y-108715D01*
X527520Y-108617D01*
Y-108610D01*
Y-108597D01*
Y-108576D01*
X527513Y-108541D01*
X527506Y-108465D01*
X527485Y-108361D01*
X527451Y-108250D01*
X527395Y-108132D01*
X527319Y-108007D01*
X527277Y-107952D01*
X527222Y-107896D01*
X527208Y-107882D01*
X527166Y-107855D01*
X527104Y-107806D01*
X527021Y-107751D01*
X526910Y-107702D01*
X526778Y-107654D01*
X526632Y-107626D01*
X526466Y-107612D01*
X526424D01*
X526390Y-107619D01*
X526348D01*
X526306Y-107626D01*
X526195Y-107647D01*
X526078Y-107681D01*
X525946Y-107737D01*
X525821Y-107806D01*
X525696Y-107903D01*
X525682Y-107917D01*
X525648Y-107959D01*
X525592Y-108021D01*
X525537Y-108118D01*
X525467Y-108236D01*
X525405Y-108389D01*
X525350Y-108562D01*
X525308Y-108763D01*
X524524Y-108624D01*
Y-108617D01*
X524531Y-108590D01*
X524538Y-108548D01*
X524552Y-108493D01*
X524573Y-108430D01*
X524594Y-108354D01*
X524621Y-108271D01*
X524656Y-108181D01*
X524746Y-107979D01*
X524795Y-107882D01*
X524857Y-107778D01*
X524926Y-107681D01*
X525003Y-107584D01*
X525086Y-107487D01*
X525176Y-107404D01*
X525183Y-107397D01*
X525197Y-107383D01*
X525232Y-107362D01*
X525266Y-107335D01*
X525322Y-107300D01*
X525377Y-107265D01*
X525447Y-107224D01*
X525530Y-107182D01*
X525613Y-107147D01*
X525710Y-107106D01*
X525814Y-107071D01*
X525925Y-107037D01*
X526050Y-107009D01*
X526175Y-106988D01*
X526306Y-106974D01*
X526445Y-106967D01*
X526535D01*
X526584Y-106974D01*
D02*
G37*
G36*
X520710Y-106884D02*
X520794Y-106891D01*
X520884Y-106898D01*
X520981Y-106912D01*
X521092Y-106932D01*
X521217Y-106953D01*
X521342Y-106981D01*
X521473Y-107016D01*
X521612Y-107057D01*
X521751Y-107106D01*
X521889Y-107161D01*
X522021Y-107224D01*
X522160Y-107300D01*
X522167Y-107307D01*
X522194Y-107321D01*
X522229Y-107342D01*
X522278Y-107376D01*
X522340Y-107418D01*
X522402Y-107473D01*
X522479Y-107536D01*
X522562Y-107605D01*
X522652Y-107688D01*
X522742Y-107772D01*
X522832Y-107869D01*
X522923Y-107973D01*
X523006Y-108090D01*
X523096Y-108208D01*
X523172Y-108340D01*
X523248Y-108479D01*
X523255Y-108486D01*
X523262Y-108513D01*
X523283Y-108555D01*
X523304Y-108610D01*
X523339Y-108680D01*
X523366Y-108770D01*
X523401Y-108867D01*
X523436Y-108978D01*
X523470Y-109096D01*
X523505Y-109228D01*
X523540Y-109366D01*
X523567Y-109519D01*
X523588Y-109671D01*
X523609Y-109838D01*
X523616Y-110011D01*
X523623Y-110185D01*
Y-110191D01*
Y-110219D01*
Y-110261D01*
X523616Y-110316D01*
Y-110386D01*
X523609Y-110469D01*
X523602Y-110559D01*
X523595Y-110656D01*
X523581Y-110767D01*
X523560Y-110878D01*
X523519Y-111121D01*
X523463Y-111363D01*
X523380Y-111606D01*
Y-111613D01*
X523366Y-111634D01*
X523352Y-111669D01*
X523332Y-111710D01*
X523311Y-111766D01*
X523276Y-111828D01*
X523242Y-111904D01*
X523200Y-111980D01*
X523096Y-112154D01*
X522971Y-112334D01*
X522825Y-112521D01*
X522652Y-112702D01*
X522659Y-112709D01*
X522680Y-112723D01*
X522708Y-112743D01*
X522756Y-112771D01*
X522805Y-112799D01*
X522867Y-112840D01*
X522936Y-112882D01*
X523013Y-112930D01*
X523179Y-113028D01*
X523366Y-113125D01*
X523560Y-113222D01*
X523748Y-113298D01*
X523491Y-113881D01*
X523484D01*
X523463Y-113867D01*
X523422Y-113853D01*
X523373Y-113832D01*
X523311Y-113804D01*
X523235Y-113777D01*
X523151Y-113735D01*
X523061Y-113686D01*
X522964Y-113638D01*
X522853Y-113582D01*
X522624Y-113451D01*
X522375Y-113291D01*
X522118Y-113104D01*
X522111Y-113111D01*
X522084Y-113118D01*
X522049Y-113139D01*
X521993Y-113166D01*
X521924Y-113194D01*
X521848Y-113229D01*
X521758Y-113263D01*
X521654Y-113298D01*
X521543Y-113333D01*
X521418Y-113367D01*
X521293Y-113402D01*
X521154Y-113430D01*
X520856Y-113478D01*
X520704Y-113485D01*
X520544Y-113492D01*
X520461D01*
X520398Y-113485D01*
X520322Y-113478D01*
X520232Y-113471D01*
X520135Y-113457D01*
X520024Y-113437D01*
X519906Y-113416D01*
X519781Y-113388D01*
X519650Y-113354D01*
X519518Y-113319D01*
X519379Y-113270D01*
X519240Y-113215D01*
X519102Y-113152D01*
X518970Y-113076D01*
X518963Y-113069D01*
X518942Y-113055D01*
X518901Y-113034D01*
X518852Y-113000D01*
X518797Y-112958D01*
X518727Y-112903D01*
X518651Y-112840D01*
X518568Y-112771D01*
X518485Y-112695D01*
X518395Y-112605D01*
X518304Y-112507D01*
X518214Y-112403D01*
X518124Y-112293D01*
X518041Y-112175D01*
X517958Y-112043D01*
X517881Y-111904D01*
X517874Y-111897D01*
X517868Y-111870D01*
X517847Y-111828D01*
X517819Y-111772D01*
X517791Y-111696D01*
X517763Y-111613D01*
X517729Y-111516D01*
X517694Y-111405D01*
X517653Y-111280D01*
X517618Y-111148D01*
X517590Y-111010D01*
X517562Y-110857D01*
X517535Y-110705D01*
X517514Y-110538D01*
X517507Y-110365D01*
X517500Y-110191D01*
Y-110178D01*
Y-110150D01*
Y-110101D01*
X517507Y-110032D01*
X517514Y-109949D01*
X517521Y-109852D01*
X517535Y-109741D01*
X517548Y-109616D01*
X517569Y-109491D01*
X517590Y-109353D01*
X517659Y-109061D01*
X517708Y-108916D01*
X517757Y-108763D01*
X517812Y-108610D01*
X517881Y-108465D01*
X517888Y-108458D01*
X517902Y-108430D01*
X517923Y-108389D01*
X517951Y-108340D01*
X517992Y-108271D01*
X518041Y-108195D01*
X518096Y-108118D01*
X518159Y-108028D01*
X518235Y-107931D01*
X518318Y-107834D01*
X518401Y-107737D01*
X518498Y-107640D01*
X518610Y-107543D01*
X518720Y-107452D01*
X518838Y-107362D01*
X518970Y-107286D01*
X518977Y-107279D01*
X519005Y-107265D01*
X519039Y-107251D01*
X519095Y-107224D01*
X519164Y-107189D01*
X519240Y-107154D01*
X519338Y-107120D01*
X519435Y-107078D01*
X519552Y-107043D01*
X519670Y-107009D01*
X519802Y-106974D01*
X519948Y-106939D01*
X520093Y-106912D01*
X520246Y-106898D01*
X520405Y-106884D01*
X520565Y-106877D01*
X520648D01*
X520710Y-106884D01*
D02*
G37*
G36*
X403176Y71608D02*
X403259Y71601D01*
X403356Y71587D01*
X403460Y71574D01*
X403578Y71553D01*
X403703Y71525D01*
X403834Y71497D01*
X403966Y71456D01*
X404105Y71407D01*
X404244Y71352D01*
X404375Y71282D01*
X404507Y71213D01*
X404632Y71123D01*
X404639Y71116D01*
X404660Y71102D01*
X404694Y71074D01*
X404736Y71033D01*
X404791Y70984D01*
X404854Y70922D01*
X404916Y70852D01*
X404992Y70769D01*
X405069Y70679D01*
X405145Y70575D01*
X405221Y70464D01*
X405291Y70339D01*
X405367Y70208D01*
X405429Y70062D01*
X405492Y69909D01*
X405547Y69750D01*
X404715Y69556D01*
Y69563D01*
X404701Y69583D01*
X404694Y69625D01*
X404674Y69674D01*
X404653Y69729D01*
X404618Y69791D01*
X404549Y69944D01*
X404459Y70110D01*
X404341Y70284D01*
X404216Y70443D01*
X404140Y70513D01*
X404063Y70575D01*
X404056Y70582D01*
X404043Y70589D01*
X404022Y70603D01*
X403987Y70623D01*
X403945Y70651D01*
X403897Y70679D01*
X403841Y70707D01*
X403772Y70735D01*
X403696Y70762D01*
X403619Y70790D01*
X403439Y70845D01*
X403231Y70880D01*
X403120Y70894D01*
X402933D01*
X402878Y70887D01*
X402815Y70880D01*
X402739Y70873D01*
X402656Y70866D01*
X402572Y70852D01*
X402371Y70804D01*
X402163Y70741D01*
X402059Y70700D01*
X401955Y70651D01*
X401858Y70596D01*
X401761Y70533D01*
X401754Y70526D01*
X401740Y70519D01*
X401713Y70499D01*
X401678Y70471D01*
X401643Y70436D01*
X401595Y70388D01*
X401546Y70339D01*
X401491Y70284D01*
X401435Y70214D01*
X401373Y70145D01*
X401262Y69986D01*
X401158Y69798D01*
X401068Y69583D01*
Y69576D01*
X401061Y69556D01*
X401047Y69521D01*
X401040Y69479D01*
X401026Y69424D01*
X401005Y69362D01*
X400992Y69285D01*
X400971Y69209D01*
X400950Y69119D01*
X400936Y69022D01*
X400901Y68814D01*
X400881Y68592D01*
X400874Y68356D01*
Y68349D01*
Y68321D01*
Y68280D01*
X400881Y68217D01*
Y68148D01*
X400887Y68065D01*
X400894Y67975D01*
X400901Y67871D01*
X400915Y67760D01*
X400929Y67649D01*
X400971Y67406D01*
X401033Y67163D01*
X401109Y66928D01*
Y66921D01*
X401123Y66900D01*
X401137Y66872D01*
X401151Y66831D01*
X401179Y66775D01*
X401213Y66720D01*
X401290Y66588D01*
X401394Y66435D01*
X401519Y66290D01*
X401671Y66144D01*
X401754Y66082D01*
X401844Y66019D01*
X401851D01*
X401865Y66005D01*
X401893Y65992D01*
X401935Y65971D01*
X401983Y65950D01*
X402038Y65922D01*
X402101Y65901D01*
X402170Y65874D01*
X402330Y65818D01*
X402517Y65770D01*
X402718Y65735D01*
X402822Y65728D01*
X402933Y65721D01*
X403002D01*
X403051Y65728D01*
X403113Y65735D01*
X403183Y65742D01*
X403266Y65756D01*
X403349Y65770D01*
X403543Y65818D01*
X403640Y65853D01*
X403744Y65894D01*
X403848Y65943D01*
X403945Y65998D01*
X404043Y66061D01*
X404140Y66130D01*
X404146Y66137D01*
X404160Y66151D01*
X404188Y66172D01*
X404223Y66206D01*
X404258Y66248D01*
X404306Y66304D01*
X404355Y66366D01*
X404410Y66435D01*
X404465Y66519D01*
X404521Y66609D01*
X404576Y66706D01*
X404632Y66817D01*
X404680Y66934D01*
X404729Y67066D01*
X404777Y67205D01*
X404812Y67351D01*
X405658Y67136D01*
Y67122D01*
X405644Y67087D01*
X405630Y67038D01*
X405603Y66962D01*
X405575Y66879D01*
X405533Y66775D01*
X405492Y66664D01*
X405436Y66546D01*
X405374Y66414D01*
X405304Y66290D01*
X405228Y66151D01*
X405138Y66019D01*
X405041Y65894D01*
X404937Y65770D01*
X404819Y65652D01*
X404694Y65541D01*
X404687Y65534D01*
X404660Y65520D01*
X404625Y65492D01*
X404570Y65458D01*
X404507Y65416D01*
X404424Y65367D01*
X404334Y65319D01*
X404223Y65270D01*
X404105Y65222D01*
X403980Y65173D01*
X403841Y65125D01*
X403689Y65083D01*
X403529Y65048D01*
X403363Y65021D01*
X403190Y65007D01*
X403002Y65000D01*
X402905D01*
X402829Y65007D01*
X402746Y65014D01*
X402642Y65021D01*
X402531Y65034D01*
X402406Y65055D01*
X402274Y65076D01*
X402136Y65104D01*
X401997Y65139D01*
X401858Y65173D01*
X401713Y65222D01*
X401574Y65277D01*
X401442Y65340D01*
X401317Y65416D01*
X401310Y65423D01*
X401290Y65437D01*
X401255Y65458D01*
X401213Y65492D01*
X401158Y65541D01*
X401096Y65589D01*
X401026Y65652D01*
X400950Y65728D01*
X400874Y65811D01*
X400790Y65901D01*
X400714Y65998D01*
X400631Y66109D01*
X400548Y66227D01*
X400471Y66352D01*
X400402Y66491D01*
X400333Y66636D01*
X400326Y66643D01*
X400319Y66671D01*
X400305Y66720D01*
X400284Y66775D01*
X400256Y66851D01*
X400229Y66934D01*
X400201Y67038D01*
X400166Y67150D01*
X400139Y67274D01*
X400104Y67406D01*
X400076Y67545D01*
X400055Y67697D01*
X400014Y68016D01*
X400007Y68183D01*
X400000Y68349D01*
Y68363D01*
Y68391D01*
Y68446D01*
X400007Y68516D01*
X400014Y68606D01*
X400021Y68710D01*
X400034Y68821D01*
X400048Y68945D01*
X400069Y69077D01*
X400090Y69216D01*
X400159Y69514D01*
X400208Y69660D01*
X400256Y69805D01*
X400312Y69958D01*
X400381Y70097D01*
X400388Y70103D01*
X400402Y70131D01*
X400423Y70166D01*
X400451Y70221D01*
X400492Y70284D01*
X400541Y70353D01*
X400596Y70429D01*
X400659Y70519D01*
X400735Y70603D01*
X400811Y70700D01*
X400901Y70790D01*
X400998Y70887D01*
X401102Y70977D01*
X401213Y71067D01*
X401338Y71150D01*
X401463Y71227D01*
X401470Y71234D01*
X401498Y71241D01*
X401532Y71262D01*
X401588Y71289D01*
X401650Y71317D01*
X401733Y71352D01*
X401824Y71386D01*
X401921Y71421D01*
X402032Y71456D01*
X402156Y71490D01*
X402281Y71525D01*
X402420Y71553D01*
X402704Y71601D01*
X402857Y71608D01*
X403016Y71615D01*
X403106D01*
X403176Y71608D01*
D02*
G37*
G36*
X409340Y65104D02*
X408557D01*
Y70103D01*
X408543Y70090D01*
X408508Y70055D01*
X408446Y70006D01*
X408356Y69937D01*
X408252Y69854D01*
X408120Y69764D01*
X407974Y69667D01*
X407808Y69563D01*
X407801D01*
X407787Y69549D01*
X407766Y69535D01*
X407732Y69521D01*
X407690Y69493D01*
X407641Y69472D01*
X407530Y69410D01*
X407406Y69348D01*
X407267Y69278D01*
X407121Y69216D01*
X406983Y69160D01*
Y69916D01*
X406990Y69923D01*
X407010Y69930D01*
X407045Y69951D01*
X407094Y69972D01*
X407149Y69999D01*
X407218Y70041D01*
X407295Y70083D01*
X407371Y70124D01*
X407551Y70235D01*
X407745Y70367D01*
X407947Y70506D01*
X408134Y70665D01*
X408141Y70672D01*
X408154Y70686D01*
X408182Y70707D01*
X408217Y70741D01*
X408252Y70783D01*
X408300Y70825D01*
X408404Y70943D01*
X408522Y71067D01*
X408640Y71213D01*
X408744Y71365D01*
X408834Y71525D01*
X409340D01*
Y65104D01*
D02*
G37*
G36*
X425000Y136788D02*
X420000D01*
X420014Y136774D01*
X420049Y136739D01*
X420098Y136677D01*
X420167Y136587D01*
X420250Y136483D01*
X420340Y136351D01*
X420437Y136205D01*
X420541Y136039D01*
Y136032D01*
X420555Y136018D01*
X420569Y135997D01*
X420583Y135962D01*
X420611Y135921D01*
X420631Y135872D01*
X420694Y135761D01*
X420756Y135637D01*
X420826Y135498D01*
X420888Y135352D01*
X420944Y135214D01*
X420188D01*
X420181Y135221D01*
X420174Y135241D01*
X420153Y135276D01*
X420132Y135325D01*
X420104Y135380D01*
X420063Y135449D01*
X420021Y135526D01*
X419980Y135602D01*
X419869Y135782D01*
X419737Y135976D01*
X419598Y136178D01*
X419439Y136365D01*
X419432Y136372D01*
X419418Y136385D01*
X419397Y136413D01*
X419363Y136448D01*
X419321Y136483D01*
X419279Y136531D01*
X419161Y136635D01*
X419037Y136753D01*
X418891Y136871D01*
X418739Y136975D01*
X418579Y137065D01*
Y137571D01*
X425000D01*
Y136788D01*
D02*
G37*
G36*
Y133057D02*
X423669Y132211D01*
X423662Y132204D01*
X423641Y132197D01*
X423613Y132177D01*
X423572Y132149D01*
X423523Y132121D01*
X423468Y132079D01*
X423343Y131996D01*
X423197Y131899D01*
X423052Y131802D01*
X422913Y131698D01*
X422788Y131601D01*
X422781D01*
X422774Y131587D01*
X422739Y131559D01*
X422684Y131518D01*
X422622Y131455D01*
X422552Y131393D01*
X422483Y131317D01*
X422414Y131240D01*
X422365Y131171D01*
X422358Y131164D01*
X422344Y131136D01*
X422323Y131102D01*
X422296Y131053D01*
X422268Y130991D01*
X422240Y130928D01*
X422212Y130859D01*
X422192Y130783D01*
Y130776D01*
X422185Y130755D01*
X422178Y130720D01*
X422171Y130672D01*
Y130602D01*
X422164Y130519D01*
X422157Y130422D01*
Y129333D01*
X425000D01*
Y128488D01*
X418600D01*
Y131462D01*
X418607Y131538D01*
Y131615D01*
X418614Y131705D01*
X418621Y131809D01*
X418641Y132017D01*
X418676Y132232D01*
X418718Y132440D01*
X418745Y132530D01*
X418773Y132620D01*
Y132627D01*
X418780Y132641D01*
X418794Y132662D01*
X418808Y132697D01*
X418849Y132780D01*
X418912Y132877D01*
X418995Y132995D01*
X419106Y133113D01*
X419231Y133230D01*
X419383Y133335D01*
X419390D01*
X419404Y133348D01*
X419425Y133362D01*
X419460Y133376D01*
X419501Y133397D01*
X419550Y133418D01*
X419605Y133445D01*
X419668Y133473D01*
X419813Y133522D01*
X419973Y133563D01*
X420153Y133591D01*
X420347Y133605D01*
X420354D01*
X420375D01*
X420417D01*
X420458Y133598D01*
X420521Y133591D01*
X420590Y133584D01*
X420666Y133570D01*
X420749Y133549D01*
X420930Y133494D01*
X421027Y133459D01*
X421124Y133418D01*
X421221Y133369D01*
X421318Y133307D01*
X421408Y133237D01*
X421498Y133161D01*
X421505Y133154D01*
X421519Y133140D01*
X421540Y133113D01*
X421575Y133078D01*
X421609Y133029D01*
X421651Y132974D01*
X421699Y132905D01*
X421748Y132821D01*
X421796Y132731D01*
X421845Y132634D01*
X421894Y132523D01*
X421942Y132398D01*
X421984Y132267D01*
X422025Y132121D01*
X422060Y131961D01*
X422088Y131795D01*
Y131802D01*
X422095Y131809D01*
X422116Y131851D01*
X422150Y131913D01*
X422192Y131989D01*
X422240Y132072D01*
X422289Y132156D01*
X422351Y132239D01*
X422407Y132308D01*
X422414Y132315D01*
X422421Y132322D01*
X422441Y132343D01*
X422469Y132371D01*
X422504Y132405D01*
X422545Y132447D01*
X422643Y132537D01*
X422767Y132641D01*
X422913Y132759D01*
X423079Y132884D01*
X423260Y133009D01*
X425000Y134118D01*
Y133057D01*
D02*
G37*
%LPC*%
G36*
X439106Y363664D02*
X435650Y360207D01*
X436689Y359168D01*
X436733Y359133D01*
X436777Y359089D01*
X436880Y358996D01*
X437003Y358893D01*
X437135Y358790D01*
X437268Y358697D01*
X437395Y358619D01*
X437400Y358614D01*
X437410D01*
X437430Y358604D01*
X437454Y358589D01*
X437518Y358565D01*
X437601Y358530D01*
X437699Y358501D01*
X437807Y358471D01*
X437925Y358452D01*
X438037Y358447D01*
X438047D01*
X438057D01*
X438111Y358452D01*
X438199Y358462D01*
X438312Y358476D01*
X438444Y358511D01*
X438596Y358555D01*
X438763Y358614D01*
X438940Y358692D01*
X438945Y358697D01*
X438959Y358702D01*
X438984Y358717D01*
X439023Y358736D01*
X439067Y358761D01*
X439121Y358795D01*
X439180Y358834D01*
X439249Y358873D01*
X439317Y358923D01*
X439396Y358981D01*
X439474Y359040D01*
X439562Y359109D01*
X439744Y359261D01*
X439935Y359442D01*
X439945Y359452D01*
X439964Y359472D01*
X440004Y359511D01*
X440048Y359565D01*
X440107Y359624D01*
X440170Y359697D01*
X440234Y359781D01*
X440308Y359874D01*
X440455Y360080D01*
X440597Y360300D01*
X440710Y360531D01*
X440754Y360653D01*
X440788Y360766D01*
Y360776D01*
X440793Y360791D01*
X440798Y360825D01*
X440808Y360874D01*
X440818Y360923D01*
X440822Y360987D01*
X440837Y361129D01*
X440842Y361301D01*
X440827Y361482D01*
X440798Y361668D01*
X440769Y361757D01*
X440734Y361850D01*
X440729Y361855D01*
Y361865D01*
X440719Y361884D01*
X440705Y361909D01*
X440680Y361943D01*
X440661Y361982D01*
X440631Y362031D01*
X440597Y362085D01*
X440553Y362139D01*
X440504Y362208D01*
X440450Y362281D01*
X440386Y362355D01*
X440312Y362438D01*
X440234Y362526D01*
X440151Y362620D01*
X439106Y363664D01*
D02*
G37*
G36*
X445656Y292623D02*
X445445Y292618D01*
X445224Y292584D01*
X445214D01*
X445200Y292579D01*
X445170Y292569D01*
X445126Y292554D01*
X445072Y292540D01*
X445013Y292520D01*
X444949Y292496D01*
X444871Y292466D01*
X444793Y292427D01*
X444714Y292388D01*
X444538Y292290D01*
X444361Y292162D01*
X444268Y292089D01*
X444155Y291976D01*
X444126Y291937D01*
X444077Y291888D01*
X444033Y291824D01*
X443974Y291745D01*
X443915Y291657D01*
X443856Y291559D01*
X443792Y291446D01*
X443733Y291329D01*
X443680Y291196D01*
X443631Y291059D01*
X443586Y290917D01*
X443562Y290765D01*
X443537Y290603D01*
Y290436D01*
Y290427D01*
Y290397D01*
X443547Y290348D01*
X443552Y290284D01*
X443567Y290201D01*
X443591Y290108D01*
X443616Y289995D01*
X443660Y289872D01*
X443709Y289745D01*
X443773Y289603D01*
X443846Y289451D01*
X443935Y289294D01*
X444038Y289132D01*
X444165Y288965D01*
X444302Y288799D01*
X444464Y288627D01*
X444474Y288617D01*
X444503Y288588D01*
X444552Y288549D01*
X444616Y288485D01*
X444699Y288421D01*
X444793Y288347D01*
X444896Y288264D01*
X445018Y288181D01*
X445150Y288097D01*
X445288Y288019D01*
X445435Y287941D01*
X445592Y287872D01*
X445754Y287808D01*
X445920Y287759D01*
X446082Y287725D01*
X446254Y287710D01*
X446342D01*
X446406Y287715D01*
X446484Y287725D01*
X446572Y287735D01*
X446680Y287754D01*
X446793Y287779D01*
X446911Y287808D01*
X447043Y287852D01*
X447171Y287901D01*
X447303Y287965D01*
X447440Y288043D01*
X447578Y288132D01*
X447710Y288235D01*
X447837Y288352D01*
X447892Y288406D01*
X447916Y288441D01*
X447950Y288475D01*
X448019Y288563D01*
X448097Y288671D01*
X448181Y288794D01*
X448259Y288931D01*
X448328Y289078D01*
X448323Y289073D01*
X448303D01*
X448279Y289068D01*
X448249Y289058D01*
X448210Y289049D01*
X448156Y289034D01*
X448044Y289000D01*
X447916Y288951D01*
X447774Y288897D01*
X447622Y288823D01*
X447475Y288745D01*
X447180Y289323D01*
X447185Y289328D01*
X447210Y289343D01*
X447244Y289358D01*
X447298Y289382D01*
X447357Y289412D01*
X447426Y289441D01*
X447504Y289480D01*
X447592Y289519D01*
X447789Y289588D01*
X448009Y289662D01*
X448240Y289715D01*
X448470Y289750D01*
Y289760D01*
Y289799D01*
Y289848D01*
X448465Y289921D01*
X448450Y290015D01*
X448436Y290118D01*
X448411Y290240D01*
X448372Y290378D01*
X448328Y290520D01*
X448269Y290677D01*
X448195Y290838D01*
X448102Y291010D01*
X447994Y291187D01*
X447867Y291363D01*
X447725Y291544D01*
X447553Y291726D01*
X447548Y291731D01*
X447529Y291750D01*
X447499Y291780D01*
X447455Y291814D01*
X447406Y291863D01*
X447347Y291912D01*
X447279Y291971D01*
X447205Y292025D01*
X447033Y292157D01*
X446837Y292285D01*
X446626Y292398D01*
X446406Y292491D01*
X446401Y292496D01*
X446376Y292501D01*
X446347Y292510D01*
X446303Y292525D01*
X446249Y292540D01*
X446185Y292554D01*
X446033Y292589D01*
X445852Y292613D01*
X445656Y292623D01*
D02*
G37*
G36*
X360206Y-435653D02*
X359167Y-436692D01*
X359132Y-436736D01*
X359088Y-436780D01*
X358995Y-436883D01*
X358892Y-437006D01*
X358789Y-437138D01*
X358696Y-437271D01*
X358618Y-437398D01*
X358613Y-437403D01*
Y-437413D01*
X358603Y-437432D01*
X358588Y-437457D01*
X358564Y-437521D01*
X358529Y-437604D01*
X358500Y-437702D01*
X358470Y-437810D01*
X358451Y-437928D01*
X358446Y-438040D01*
Y-438050D01*
Y-438060D01*
X358451Y-438114D01*
X358461Y-438202D01*
X358475Y-438315D01*
X358510Y-438447D01*
X358554Y-438599D01*
X358613Y-438766D01*
X358691Y-438942D01*
X358696Y-438947D01*
X358701Y-438962D01*
X358716Y-438987D01*
X358735Y-439026D01*
X358760Y-439070D01*
X358794Y-439124D01*
X358833Y-439183D01*
X358873Y-439251D01*
X358922Y-439320D01*
X358980Y-439398D01*
X359039Y-439477D01*
X359108Y-439565D01*
X359260Y-439747D01*
X359441Y-439938D01*
X359451Y-439948D01*
X359471Y-439967D01*
X359510Y-440006D01*
X359564Y-440051D01*
X359623Y-440109D01*
X359696Y-440173D01*
X359780Y-440237D01*
X359873Y-440311D01*
X360079Y-440458D01*
X360299Y-440600D01*
X360530Y-440713D01*
X360652Y-440757D01*
X360765Y-440791D01*
X360775D01*
X360790Y-440796D01*
X360824Y-440801D01*
X360873Y-440811D01*
X360922Y-440821D01*
X360986Y-440825D01*
X361128Y-440840D01*
X361300Y-440845D01*
X361481Y-440830D01*
X361667Y-440801D01*
X361756Y-440771D01*
X361849Y-440737D01*
X361854Y-440732D01*
X361864D01*
X361883Y-440722D01*
X361908Y-440708D01*
X361942Y-440683D01*
X361981Y-440664D01*
X362030Y-440634D01*
X362084Y-440600D01*
X362138Y-440556D01*
X362207Y-440507D01*
X362280Y-440453D01*
X362354Y-440389D01*
X362437Y-440315D01*
X362525Y-440237D01*
X362619Y-440154D01*
X363663Y-439109D01*
X360206Y-435653D01*
D02*
G37*
G36*
X357166Y-440811D02*
X355739Y-442238D01*
X357779Y-444277D01*
X357166Y-440811D01*
D02*
G37*
G36*
X-53346Y-562860D02*
X-54816D01*
X-54871Y-562867D01*
X-54934D01*
X-55072Y-562874D01*
X-55232Y-562887D01*
X-55398Y-562908D01*
X-55558Y-562936D01*
X-55704Y-562971D01*
X-55710D01*
X-55717Y-562978D01*
X-55738Y-562985D01*
X-55766Y-562991D01*
X-55828Y-563019D01*
X-55911Y-563054D01*
X-56002Y-563102D01*
X-56099Y-563158D01*
X-56196Y-563227D01*
X-56279Y-563303D01*
X-56286Y-563311D01*
X-56293Y-563317D01*
X-56328Y-563359D01*
X-56383Y-563428D01*
X-56452Y-563518D01*
X-56522Y-563636D01*
X-56598Y-563775D01*
X-56674Y-563935D01*
X-56744Y-564115D01*
Y-564122D01*
X-56750Y-564136D01*
X-56757Y-564163D01*
X-56771Y-564205D01*
X-56785Y-564254D01*
X-56799Y-564316D01*
X-56813Y-564385D01*
X-56834Y-564462D01*
X-56848Y-564545D01*
X-56862Y-564642D01*
X-56875Y-564739D01*
X-56889Y-564850D01*
X-56910Y-565086D01*
X-56917Y-565349D01*
Y-565363D01*
Y-565391D01*
Y-565446D01*
X-56910Y-565516D01*
Y-565599D01*
X-56903Y-565696D01*
X-56889Y-565800D01*
X-56875Y-565918D01*
X-56834Y-566167D01*
X-56778Y-566424D01*
X-56695Y-566667D01*
X-56640Y-566785D01*
X-56584Y-566889D01*
X-56577Y-566895D01*
X-56570Y-566909D01*
X-56549Y-566937D01*
X-56522Y-566979D01*
X-56494Y-567020D01*
X-56452Y-567069D01*
X-56362Y-567180D01*
X-56244Y-567305D01*
X-56106Y-567422D01*
X-55953Y-567533D01*
X-55870Y-567575D01*
X-55780Y-567617D01*
X-55773D01*
X-55766Y-567624D01*
X-55745Y-567631D01*
X-55717Y-567637D01*
X-55676Y-567644D01*
X-55634Y-567658D01*
X-55579Y-567672D01*
X-55516Y-567686D01*
X-55447Y-567693D01*
X-55364Y-567707D01*
X-55273Y-567721D01*
X-55177Y-567728D01*
X-55065Y-567734D01*
X-54948Y-567741D01*
X-54823Y-567748D01*
X-53346D01*
Y-562860D01*
D02*
G37*
G36*
X-438114Y-358520D02*
X-438134D01*
X-438187Y-358524D01*
X-438276Y-358534D01*
X-438388Y-358549D01*
X-438521Y-358583D01*
X-438673Y-358627D01*
X-438840Y-358686D01*
X-439016Y-358765D01*
X-439021Y-358770D01*
X-439036Y-358774D01*
X-439060Y-358789D01*
X-439100Y-358809D01*
X-439144Y-358833D01*
X-439198Y-358868D01*
X-439256Y-358907D01*
X-439325Y-358946D01*
X-439394Y-358995D01*
X-439472Y-359054D01*
X-439551Y-359113D01*
X-439639Y-359182D01*
X-439820Y-359333D01*
X-440011Y-359515D01*
X-440021Y-359525D01*
X-440041Y-359544D01*
X-440080Y-359584D01*
X-440124Y-359637D01*
X-440183Y-359696D01*
X-440247Y-359770D01*
X-440311Y-359853D01*
X-440384Y-359946D01*
X-440531Y-360152D01*
X-440673Y-360373D01*
X-440786Y-360603D01*
X-440830Y-360726D01*
X-440865Y-360839D01*
Y-360849D01*
X-440869Y-360863D01*
X-440874Y-360898D01*
X-440884Y-360947D01*
X-440894Y-360996D01*
X-440899Y-361059D01*
X-440914Y-361202D01*
X-440919Y-361373D01*
X-440904Y-361555D01*
X-440874Y-361741D01*
X-440845Y-361829D01*
X-440811Y-361922D01*
X-440806Y-361927D01*
Y-361937D01*
X-440796Y-361957D01*
X-440781Y-361981D01*
X-440757Y-362015D01*
X-440737Y-362055D01*
X-440708Y-362104D01*
X-440673Y-362158D01*
X-440629Y-362212D01*
X-440580Y-362280D01*
X-440526Y-362354D01*
X-440462Y-362427D01*
X-440389Y-362511D01*
X-440311Y-362599D01*
X-440227Y-362692D01*
X-439183Y-363737D01*
X-435726Y-360280D01*
X-436766Y-359240D01*
X-436810Y-359206D01*
X-436854Y-359162D01*
X-436957Y-359069D01*
X-437079Y-358966D01*
X-437212Y-358863D01*
X-437344Y-358770D01*
X-437472Y-358691D01*
X-437477Y-358686D01*
X-437486D01*
X-437506Y-358676D01*
X-437530Y-358662D01*
X-437594Y-358637D01*
X-437677Y-358603D01*
X-437776Y-358573D01*
X-437883Y-358544D01*
X-438001Y-358524D01*
X-438114Y-358520D01*
D02*
G37*
G36*
X-441639Y-354523D02*
X-441747D01*
X-441762Y-354528D01*
X-441791D01*
X-441830Y-354538D01*
X-441880Y-354548D01*
X-441934Y-354563D01*
X-441997Y-354577D01*
X-442071Y-354602D01*
X-442144Y-354626D01*
X-442228Y-354661D01*
X-442311Y-354705D01*
X-442399Y-354754D01*
X-442488Y-354813D01*
X-442586Y-354881D01*
X-442674Y-354960D01*
X-442767Y-355043D01*
X-442772Y-355048D01*
X-442787Y-355063D01*
X-442811Y-355087D01*
X-442841Y-355126D01*
X-442875Y-355171D01*
X-442914Y-355220D01*
X-442958Y-355274D01*
X-443002Y-355337D01*
X-443091Y-355484D01*
X-443169Y-355651D01*
X-443203Y-355744D01*
X-443228Y-355838D01*
X-443243Y-355931D01*
X-443252Y-356029D01*
Y-356039D01*
Y-356048D01*
Y-356078D01*
Y-356117D01*
X-443248Y-356161D01*
X-443243Y-356215D01*
X-443218Y-356338D01*
X-443174Y-356480D01*
X-443110Y-356632D01*
X-443022Y-356789D01*
X-442958Y-356862D01*
X-442895Y-356936D01*
X-442860Y-356970D01*
X-442826Y-356995D01*
X-442792Y-357019D01*
X-442747Y-357053D01*
X-442640Y-357122D01*
X-442502Y-357191D01*
X-442345Y-357250D01*
X-442262Y-357274D01*
X-442174Y-357294D01*
X-442076Y-357304D01*
X-441968D01*
X-441953Y-357299D01*
X-441924D01*
X-441889Y-357294D01*
X-441845Y-357289D01*
X-441786Y-357279D01*
X-441723Y-357264D01*
X-441659Y-357240D01*
X-441590Y-357220D01*
X-441512Y-357191D01*
X-441345Y-357112D01*
X-441178Y-357004D01*
X-441095Y-356931D01*
X-441012Y-356857D01*
X-441007Y-356852D01*
X-440997Y-356843D01*
X-440982Y-356828D01*
X-440963Y-356808D01*
X-440943Y-356779D01*
X-440914Y-356749D01*
X-440850Y-356666D01*
X-440781Y-356568D01*
X-440708Y-356455D01*
X-440639Y-356328D01*
X-440580Y-356190D01*
X-440575Y-356186D01*
Y-356176D01*
X-440570Y-356151D01*
X-440561Y-356122D01*
X-440541Y-356053D01*
X-440521Y-355955D01*
X-440507Y-355842D01*
X-440502Y-355720D01*
Y-355592D01*
X-440521Y-355455D01*
X-440526Y-355450D01*
Y-355440D01*
X-440541Y-355396D01*
X-440561Y-355327D01*
X-440595Y-355244D01*
X-440639Y-355151D01*
X-440693Y-355048D01*
X-440767Y-354945D01*
X-440850Y-354852D01*
X-440884Y-354818D01*
X-440914Y-354798D01*
X-440953Y-354769D01*
X-440992Y-354739D01*
X-441095Y-354675D01*
X-441222Y-354617D01*
X-441301Y-354587D01*
X-441375Y-354563D01*
X-441463Y-354543D01*
X-441546Y-354528D01*
X-441639Y-354523D01*
D02*
G37*
G36*
X-441796Y-357809D02*
X-441801Y-357813D01*
X-441801D01*
X-441796Y-357809D01*
D02*
G37*
G36*
X-565245Y56917D02*
X-565259D01*
X-565287D01*
X-565342D01*
X-565411Y56910D01*
X-565495D01*
X-565592Y56903D01*
X-565696Y56889D01*
X-565814Y56875D01*
X-566063Y56834D01*
X-566320Y56778D01*
X-566563Y56695D01*
X-566680Y56640D01*
X-566785Y56584D01*
X-566791Y56577D01*
X-566805Y56570D01*
X-566833Y56550D01*
X-566875Y56522D01*
X-566916Y56494D01*
X-566965Y56452D01*
X-567076Y56362D01*
X-567201Y56244D01*
X-567318Y56106D01*
X-567429Y55953D01*
X-567471Y55870D01*
X-567513Y55780D01*
Y55773D01*
X-567519Y55766D01*
X-567526Y55745D01*
X-567533Y55717D01*
X-567540Y55676D01*
X-567554Y55634D01*
X-567568Y55579D01*
X-567582Y55516D01*
X-567589Y55447D01*
X-567603Y55364D01*
X-567617Y55274D01*
X-567623Y55177D01*
X-567631Y55065D01*
X-567637Y54948D01*
X-567644Y54823D01*
Y53346D01*
X-562756D01*
Y54816D01*
X-562763Y54871D01*
Y54934D01*
X-562770Y55072D01*
X-562784Y55232D01*
X-562804Y55398D01*
X-562832Y55558D01*
X-562867Y55704D01*
Y55710D01*
X-562874Y55717D01*
X-562881Y55738D01*
X-562887Y55766D01*
X-562915Y55828D01*
X-562950Y55911D01*
X-562998Y56002D01*
X-563054Y56099D01*
X-563123Y56196D01*
X-563200Y56279D01*
X-563206Y56286D01*
X-563213Y56293D01*
X-563255Y56328D01*
X-563324Y56383D01*
X-563414Y56452D01*
X-563532Y56522D01*
X-563671Y56598D01*
X-563830Y56674D01*
X-564011Y56744D01*
X-564018D01*
X-564032Y56751D01*
X-564059Y56757D01*
X-564101Y56771D01*
X-564150Y56785D01*
X-564212Y56799D01*
X-564281Y56813D01*
X-564357Y56834D01*
X-564441Y56848D01*
X-564538Y56862D01*
X-564635Y56875D01*
X-564746Y56889D01*
X-564982Y56910D01*
X-565245Y56917D01*
D02*
G37*
G36*
X-357872Y444822D02*
X-357887Y444817D01*
X-357941Y444812D01*
X-358019Y444802D01*
X-358122Y444777D01*
X-358230Y444738D01*
X-358358Y444679D01*
X-358485Y444601D01*
X-358549Y444557D01*
X-358637Y444468D01*
X-358657Y444439D01*
X-358681Y444414D01*
X-358711Y444375D01*
X-358770Y444287D01*
X-358829Y444179D01*
X-358877Y444052D01*
X-358917Y443914D01*
X-358931Y443762D01*
Y443743D01*
Y443694D01*
X-358917Y443620D01*
X-358897Y443522D01*
X-358868Y443414D01*
X-358814Y443302D01*
X-358745Y443184D01*
X-358652Y443071D01*
X-358647Y443066D01*
X-358637Y443056D01*
X-358623Y443042D01*
X-358593Y443022D01*
X-358564Y442993D01*
X-358529Y442968D01*
X-358441Y442909D01*
X-358333Y442850D01*
X-358211Y442797D01*
X-358073Y442757D01*
X-357926Y442747D01*
X-357907D01*
X-357858Y442757D01*
X-357779Y442767D01*
X-357681Y442797D01*
X-357568Y442831D01*
X-357441Y442890D01*
X-357313Y442978D01*
X-357186Y443086D01*
X-357156Y443115D01*
X-357137Y443145D01*
X-357107Y443174D01*
X-357083Y443208D01*
X-357024Y443297D01*
X-356965Y443405D01*
X-356911Y443527D01*
X-356872Y443664D01*
X-356857Y443816D01*
Y443836D01*
Y443885D01*
X-356872Y443959D01*
X-356892Y444057D01*
X-356921Y444165D01*
X-356980Y444282D01*
X-357049Y444400D01*
X-357142Y444513D01*
X-357147Y444518D01*
X-357156Y444527D01*
X-357171Y444542D01*
X-357201Y444562D01*
X-357259Y444611D01*
X-357348Y444669D01*
X-357451Y444723D01*
X-357578Y444772D01*
X-357715Y444802D01*
X-357789Y444817D01*
X-357867D01*
X-357872Y444822D01*
D02*
G37*
G36*
X-355715Y443017D02*
X-355862D01*
X-355901Y443007D01*
X-355950D01*
X-355999Y442998D01*
X-356063Y442983D01*
X-356127Y442968D01*
X-356274Y442919D01*
X-356431Y442850D01*
X-356593Y442747D01*
X-356666Y442684D01*
X-356745Y442615D01*
X-356784Y442576D01*
X-356803Y442546D01*
X-356833Y442507D01*
X-356867Y442463D01*
X-356941Y442350D01*
X-357014Y442218D01*
X-357078Y442066D01*
X-357103Y441983D01*
X-357122Y441894D01*
X-357132Y441796D01*
X-357137Y441703D01*
Y441693D01*
Y441683D01*
Y441654D01*
X-357132Y441620D01*
X-357122Y441571D01*
X-357112Y441522D01*
X-357103Y441463D01*
X-357088Y441399D01*
X-357044Y441257D01*
X-356970Y441105D01*
X-356872Y440948D01*
X-356813Y440879D01*
X-356745Y440801D01*
X-356740Y440796D01*
X-356735Y440791D01*
X-356705Y440762D01*
X-356651Y440718D01*
X-356583Y440668D01*
X-356504Y440610D01*
X-356406Y440551D01*
X-356293Y440497D01*
X-356176Y440448D01*
X-356161Y440443D01*
X-356122Y440433D01*
X-356048Y440418D01*
X-355965Y440404D01*
X-355862Y440399D01*
X-355754D01*
X-355627Y440409D01*
X-355499Y440438D01*
X-355494Y440443D01*
X-355485D01*
X-355440Y440458D01*
X-355377Y440482D01*
X-355293Y440526D01*
X-355205Y440575D01*
X-355102Y440639D01*
X-354999Y440713D01*
X-354901Y440801D01*
X-354862Y440840D01*
X-354837Y440874D01*
X-354808Y440914D01*
X-354773Y440958D01*
X-354700Y441071D01*
X-354626Y441203D01*
X-354558Y441360D01*
X-354533Y441443D01*
X-354514Y441531D01*
X-354499Y441625D01*
X-354494Y441718D01*
Y441728D01*
Y441737D01*
Y441767D01*
X-354499Y441801D01*
X-354509Y441850D01*
X-354514Y441904D01*
X-354523Y441963D01*
X-354538Y442027D01*
X-354587Y442164D01*
X-354656Y442321D01*
X-354749Y442473D01*
X-354813Y442546D01*
X-354881Y442625D01*
X-354886Y442630D01*
X-354901Y442645D01*
X-354921Y442664D01*
X-354955Y442689D01*
X-354994Y442718D01*
X-355038Y442752D01*
X-355151Y442826D01*
X-355283Y442899D01*
X-355445Y442963D01*
X-355529Y442988D01*
X-355622Y443002D01*
X-355715Y443017D01*
D02*
G37*
G36*
X-361373Y440919D02*
X-361555Y440904D01*
X-361741Y440874D01*
X-361829Y440845D01*
X-361922Y440811D01*
X-361927Y440806D01*
X-361937D01*
X-361957Y440796D01*
X-361981Y440781D01*
X-362016Y440757D01*
X-362055Y440737D01*
X-362104Y440708D01*
X-362158Y440673D01*
X-362212Y440629D01*
X-362280Y440580D01*
X-362354Y440526D01*
X-362427Y440462D01*
X-362511Y440389D01*
X-362599Y440311D01*
X-362692Y440227D01*
X-363737Y439183D01*
X-360280Y435726D01*
X-359240Y436766D01*
X-359206Y436810D01*
X-359162Y436854D01*
X-359069Y436957D01*
X-358966Y437079D01*
X-358863Y437212D01*
X-358770Y437344D01*
X-358691Y437472D01*
X-358686Y437477D01*
Y437486D01*
X-358676Y437506D01*
X-358662Y437530D01*
X-358637Y437594D01*
X-358603Y437677D01*
X-358573Y437776D01*
X-358544Y437883D01*
X-358525Y438001D01*
X-358520Y438114D01*
Y438124D01*
Y438134D01*
X-358525Y438187D01*
X-358534Y438276D01*
X-358549Y438388D01*
X-358583Y438521D01*
X-358627Y438673D01*
X-358686Y438840D01*
X-358765Y439016D01*
X-358770Y439021D01*
X-358774Y439036D01*
X-358789Y439060D01*
X-358809Y439100D01*
X-358833Y439144D01*
X-358868Y439198D01*
X-358907Y439256D01*
X-358946Y439325D01*
X-358995Y439394D01*
X-359054Y439472D01*
X-359113Y439551D01*
X-359182Y439639D01*
X-359333Y439820D01*
X-359515Y440011D01*
X-359525Y440021D01*
X-359544Y440041D01*
X-359584Y440080D01*
X-359637Y440124D01*
X-359696Y440183D01*
X-359770Y440247D01*
X-359853Y440311D01*
X-359946Y440384D01*
X-360152Y440531D01*
X-360373Y440673D01*
X-360603Y440786D01*
X-360726Y440830D01*
X-360839Y440865D01*
X-360849D01*
X-360863Y440869D01*
X-360898Y440874D01*
X-360947Y440884D01*
X-360996Y440894D01*
X-361059Y440899D01*
X-361202Y440914D01*
X-361373Y440919D01*
D02*
G37*
G36*
X54823Y567644D02*
X53346D01*
Y562756D01*
X54816D01*
X54871Y562763D01*
X54934D01*
X55072Y562770D01*
X55232Y562783D01*
X55398Y562804D01*
X55558Y562832D01*
X55704Y562867D01*
X55710D01*
X55717Y562874D01*
X55738Y562881D01*
X55766Y562887D01*
X55828Y562915D01*
X55911Y562950D01*
X56002Y562998D01*
X56099Y563054D01*
X56196Y563123D01*
X56279Y563200D01*
X56286Y563206D01*
X56293Y563213D01*
X56328Y563255D01*
X56383Y563324D01*
X56452Y563414D01*
X56522Y563532D01*
X56598Y563671D01*
X56674Y563830D01*
X56744Y564011D01*
Y564018D01*
X56750Y564032D01*
X56757Y564059D01*
X56771Y564101D01*
X56785Y564150D01*
X56799Y564212D01*
X56813Y564281D01*
X56834Y564357D01*
X56848Y564441D01*
X56862Y564538D01*
X56875Y564635D01*
X56889Y564746D01*
X56910Y564982D01*
X56917Y565245D01*
Y565259D01*
Y565287D01*
Y565342D01*
X56910Y565411D01*
Y565495D01*
X56903Y565592D01*
X56889Y565696D01*
X56875Y565814D01*
X56834Y566063D01*
X56778Y566320D01*
X56695Y566563D01*
X56640Y566680D01*
X56584Y566785D01*
X56577Y566791D01*
X56570Y566805D01*
X56549Y566833D01*
X56522Y566875D01*
X56494Y566916D01*
X56452Y566965D01*
X56362Y567076D01*
X56244Y567201D01*
X56106Y567318D01*
X55953Y567429D01*
X55870Y567471D01*
X55780Y567513D01*
X55773D01*
X55766Y567519D01*
X55745Y567526D01*
X55717Y567533D01*
X55676Y567540D01*
X55634Y567554D01*
X55579Y567568D01*
X55516Y567582D01*
X55447Y567589D01*
X55364Y567603D01*
X55273Y567617D01*
X55177Y567623D01*
X55065Y567630D01*
X54948Y567637D01*
X54823Y567644D01*
D02*
G37*
G36*
X567755Y-53346D02*
X562867D01*
Y-54816D01*
X562874Y-54871D01*
Y-54934D01*
X562881Y-55072D01*
X562894Y-55232D01*
X562915Y-55398D01*
X562943Y-55558D01*
X562978Y-55704D01*
Y-55710D01*
X562985Y-55717D01*
X562991Y-55738D01*
X562998Y-55766D01*
X563026Y-55828D01*
X563061Y-55911D01*
X563109Y-56002D01*
X563165Y-56099D01*
X563234Y-56196D01*
X563311Y-56279D01*
X563317Y-56286D01*
X563324Y-56293D01*
X563366Y-56328D01*
X563435Y-56383D01*
X563525Y-56452D01*
X563643Y-56522D01*
X563782Y-56598D01*
X563941Y-56674D01*
X564122Y-56744D01*
X564129D01*
X564143Y-56751D01*
X564170Y-56757D01*
X564212Y-56771D01*
X564260Y-56785D01*
X564323Y-56799D01*
X564392Y-56813D01*
X564468Y-56834D01*
X564552Y-56848D01*
X564649Y-56862D01*
X564746Y-56875D01*
X564857Y-56889D01*
X565093Y-56910D01*
X565356Y-56917D01*
X565370D01*
X565398D01*
X565453D01*
X565522Y-56910D01*
X565606D01*
X565703Y-56903D01*
X565807Y-56889D01*
X565925Y-56875D01*
X566174Y-56834D01*
X566431Y-56778D01*
X566674Y-56695D01*
X566791Y-56640D01*
X566895Y-56584D01*
X566902Y-56577D01*
X566916Y-56570D01*
X566944Y-56550D01*
X566986Y-56522D01*
X567027Y-56494D01*
X567076Y-56452D01*
X567187Y-56362D01*
X567312Y-56244D01*
X567429Y-56106D01*
X567540Y-55953D01*
X567582Y-55870D01*
X567623Y-55780D01*
Y-55773D01*
X567631Y-55766D01*
X567637Y-55745D01*
X567644Y-55717D01*
X567651Y-55676D01*
X567665Y-55634D01*
X567679Y-55579D01*
X567693Y-55516D01*
X567700Y-55447D01*
X567714Y-55364D01*
X567728Y-55274D01*
X567734Y-55177D01*
X567741Y-55065D01*
X567748Y-54948D01*
X567755Y-54823D01*
Y-53346D01*
D02*
G37*
G36*
X-293440Y452521D02*
X-293489D01*
X-293524Y452516D01*
X-293573Y452507D01*
X-293627Y452502D01*
X-293685Y452492D01*
X-293749Y452477D01*
X-293887Y452428D01*
X-294043Y452360D01*
X-294195Y452266D01*
X-294269Y452203D01*
X-294347Y452134D01*
X-294352Y452129D01*
X-294367Y452114D01*
X-294387Y452095D01*
X-294411Y452060D01*
X-294440Y452021D01*
X-294475Y451977D01*
X-294548Y451864D01*
X-294622Y451732D01*
X-294686Y451570D01*
X-294710Y451487D01*
X-294725Y451394D01*
X-294740Y451300D01*
Y451202D01*
Y451193D01*
Y451183D01*
Y451153D01*
X-294730Y451114D01*
Y451065D01*
X-294720Y451016D01*
X-294705Y450952D01*
X-294691Y450888D01*
X-294641Y450741D01*
X-294573Y450584D01*
X-294470Y450423D01*
X-294406Y450349D01*
X-294338Y450271D01*
X-294298Y450232D01*
X-294269Y450212D01*
X-294230Y450182D01*
X-294186Y450148D01*
X-294073Y450075D01*
X-293940Y450001D01*
X-293788Y449937D01*
X-293705Y449913D01*
X-293617Y449893D01*
X-293519Y449883D01*
X-293426Y449878D01*
X-293377D01*
X-293342Y449883D01*
X-293293Y449893D01*
X-293244Y449903D01*
X-293185Y449913D01*
X-293121Y449927D01*
X-292979Y449972D01*
X-292827Y450045D01*
X-292670Y450143D01*
X-292602Y450202D01*
X-292523Y450271D01*
X-292518Y450276D01*
X-292514Y450280D01*
X-292484Y450310D01*
X-292440Y450364D01*
X-292391Y450433D01*
X-292332Y450511D01*
X-292273Y450609D01*
X-292219Y450722D01*
X-292170Y450840D01*
X-292165Y450854D01*
X-292156Y450893D01*
X-292141Y450967D01*
X-292126Y451050D01*
X-292121Y451153D01*
Y451261D01*
X-292131Y451389D01*
X-292160Y451516D01*
X-292165Y451521D01*
Y451531D01*
X-292180Y451575D01*
X-292205Y451639D01*
X-292249Y451722D01*
X-292298Y451810D01*
X-292362Y451913D01*
X-292435Y452016D01*
X-292523Y452114D01*
X-292563Y452154D01*
X-292597Y452178D01*
X-292636Y452207D01*
X-292680Y452242D01*
X-292793Y452315D01*
X-292925Y452389D01*
X-293082Y452458D01*
X-293166Y452482D01*
X-293254Y452502D01*
X-293347Y452516D01*
X-293440Y452521D01*
D02*
G37*
G36*
X-295539Y450158D02*
X-295607D01*
X-295681Y450143D01*
X-295779Y450124D01*
X-295887Y450094D01*
X-296005Y450035D01*
X-296122Y449967D01*
X-296235Y449874D01*
X-296240Y449869D01*
X-296250Y449859D01*
X-296264Y449844D01*
X-296284Y449815D01*
X-296333Y449756D01*
X-296392Y449668D01*
X-296446Y449565D01*
X-296495Y449437D01*
X-296524Y449300D01*
X-296539Y449226D01*
Y449148D01*
X-296544Y449143D01*
X-296539Y449128D01*
X-296534Y449074D01*
X-296524Y448996D01*
X-296500Y448893D01*
X-296461Y448785D01*
X-296402Y448657D01*
X-296323Y448530D01*
X-296279Y448466D01*
X-296191Y448378D01*
X-296161Y448358D01*
X-296137Y448334D01*
X-296098Y448304D01*
X-296010Y448246D01*
X-295902Y448187D01*
X-295774Y448138D01*
X-295637Y448099D01*
X-295485Y448084D01*
X-295416D01*
X-295343Y448099D01*
X-295245Y448118D01*
X-295137Y448148D01*
X-295024Y448201D01*
X-294906Y448270D01*
X-294793Y448363D01*
X-294789Y448368D01*
X-294779Y448378D01*
X-294764Y448393D01*
X-294744Y448422D01*
X-294715Y448452D01*
X-294691Y448486D01*
X-294632Y448574D01*
X-294573Y448682D01*
X-294519Y448805D01*
X-294480Y448942D01*
X-294470Y449089D01*
Y449109D01*
X-294480Y449158D01*
X-294490Y449236D01*
X-294519Y449334D01*
X-294553Y449447D01*
X-294612Y449574D01*
X-294700Y449702D01*
X-294808Y449829D01*
X-294838Y449859D01*
X-294867Y449878D01*
X-294897Y449908D01*
X-294931Y449932D01*
X-295019Y449991D01*
X-295127Y450050D01*
X-295250Y450104D01*
X-295387Y450143D01*
X-295539Y450158D01*
D02*
G37*
G36*
X-289748Y448466D02*
X-289846D01*
X-289920Y448461D01*
X-290013Y448447D01*
X-290116Y448432D01*
X-290238Y448408D01*
X-290376Y448368D01*
X-290518Y448324D01*
X-290675Y448265D01*
X-290837Y448192D01*
X-291008Y448099D01*
X-291185Y447991D01*
X-291361Y447863D01*
X-291543Y447721D01*
X-291724Y447549D01*
X-291729Y447545D01*
X-291749Y447525D01*
X-291778Y447495D01*
X-291812Y447451D01*
X-291861Y447402D01*
X-291910Y447343D01*
X-291969Y447275D01*
X-292023Y447201D01*
X-292156Y447030D01*
X-292283Y446833D01*
X-292396Y446623D01*
X-292489Y446402D01*
X-292494Y446397D01*
X-292499Y446373D01*
X-292509Y446343D01*
X-292523Y446299D01*
X-292538Y446245D01*
X-292553Y446181D01*
X-292587Y446029D01*
X-292612Y445848D01*
X-292621Y445652D01*
X-292617Y445441D01*
X-292582Y445220D01*
Y445211D01*
X-292577Y445196D01*
X-292568Y445166D01*
X-292553Y445122D01*
X-292538Y445068D01*
X-292518Y445009D01*
X-292494Y444946D01*
X-292465Y444867D01*
X-292425Y444789D01*
X-292386Y444711D01*
X-292288Y444534D01*
X-292160Y444357D01*
X-292087Y444264D01*
X-291974Y444151D01*
X-291935Y444122D01*
X-291886Y444073D01*
X-291822Y444029D01*
X-291744Y443970D01*
X-291656Y443911D01*
X-291557Y443852D01*
X-291445Y443789D01*
X-291327Y443730D01*
X-291195Y443676D01*
X-291057Y443627D01*
X-290915Y443583D01*
X-290763Y443558D01*
X-290601Y443534D01*
X-290395D01*
X-290346Y443544D01*
X-290283Y443548D01*
X-290199Y443563D01*
X-290106Y443588D01*
X-289993Y443612D01*
X-289871Y443656D01*
X-289743Y443705D01*
X-289601Y443769D01*
X-289449Y443843D01*
X-289292Y443931D01*
X-289130Y444034D01*
X-288964Y444161D01*
X-288797Y444299D01*
X-288625Y444460D01*
X-288615Y444470D01*
X-288586Y444500D01*
X-288547Y444549D01*
X-288483Y444612D01*
X-288419Y444696D01*
X-288346Y444789D01*
X-288263Y444892D01*
X-288179Y445014D01*
X-288096Y445147D01*
X-288017Y445284D01*
X-287939Y445431D01*
X-287870Y445588D01*
X-287806Y445750D01*
X-287757Y445917D01*
X-287723Y446078D01*
X-287708Y446250D01*
Y446260D01*
Y446289D01*
Y446338D01*
X-287713Y446402D01*
X-287723Y446480D01*
X-287733Y446569D01*
X-287752Y446677D01*
X-287777Y446789D01*
X-287806Y446907D01*
X-287851Y447039D01*
X-287900Y447167D01*
X-287963Y447299D01*
X-288042Y447437D01*
X-288130Y447574D01*
X-288233Y447706D01*
X-288351Y447834D01*
X-288405Y447888D01*
X-288439Y447912D01*
X-288473Y447947D01*
X-288562Y448015D01*
X-288669Y448094D01*
X-288792Y448177D01*
X-288929Y448256D01*
X-289076Y448324D01*
X-289072Y448319D01*
Y448300D01*
X-289067Y448275D01*
X-289057Y448246D01*
X-289047Y448206D01*
X-289032Y448153D01*
X-288998Y448040D01*
X-288949Y447912D01*
X-288895Y447770D01*
X-288821Y447618D01*
X-288743Y447471D01*
X-289321Y447177D01*
X-289326Y447182D01*
X-289341Y447206D01*
X-289356Y447240D01*
X-289380Y447295D01*
X-289410Y447353D01*
X-289439Y447422D01*
X-289478Y447500D01*
X-289518Y447589D01*
X-289586Y447785D01*
X-289660Y448005D01*
X-289714Y448236D01*
X-289748Y448466D01*
D02*
G37*
G36*
X-520565Y112773D02*
X-520641D01*
X-520683Y112766D01*
X-520731D01*
X-520842Y112752D01*
X-520974Y112731D01*
X-521120Y112704D01*
X-521272Y112662D01*
X-521425Y112606D01*
X-521418D01*
X-521404Y112593D01*
X-521383Y112579D01*
X-521355Y112565D01*
X-521321Y112544D01*
X-521272Y112516D01*
X-521168Y112461D01*
X-521043Y112405D01*
X-520905Y112343D01*
X-520745Y112288D01*
X-520586Y112239D01*
X-520787Y111622D01*
X-520794D01*
X-520821Y111629D01*
X-520856Y111643D01*
X-520912Y111664D01*
X-520974Y111684D01*
X-521043Y111712D01*
X-521127Y111740D01*
X-521217Y111774D01*
X-521404Y111865D01*
X-521612Y111969D01*
X-521813Y112093D01*
X-522000Y112232D01*
X-522007Y112225D01*
X-522035Y112197D01*
X-522070Y112163D01*
X-522118Y112107D01*
X-522174Y112031D01*
X-522236Y111948D01*
X-522305Y111844D01*
X-522375Y111719D01*
X-522444Y111587D01*
X-522513Y111435D01*
X-522576Y111268D01*
X-522631Y111081D01*
X-522680Y110880D01*
X-522715Y110665D01*
X-522742Y110436D01*
X-522749Y110187D01*
Y110180D01*
Y110152D01*
Y110110D01*
X-522742Y110055D01*
Y109985D01*
X-522735Y109909D01*
X-522728Y109819D01*
X-522715Y109729D01*
X-522687Y109514D01*
X-522638Y109285D01*
X-522569Y109056D01*
X-522479Y108834D01*
Y108827D01*
X-522465Y108807D01*
X-522451Y108779D01*
X-522430Y108737D01*
X-522402Y108689D01*
X-522368Y108633D01*
X-522285Y108502D01*
X-522174Y108356D01*
X-522042Y108210D01*
X-521889Y108065D01*
X-521709Y107933D01*
X-521702Y107926D01*
X-521688Y107919D01*
X-521660Y107905D01*
X-521619Y107884D01*
X-521570Y107857D01*
X-521515Y107829D01*
X-521452Y107801D01*
X-521376Y107766D01*
X-521293Y107739D01*
X-521210Y107711D01*
X-521016Y107655D01*
X-520801Y107621D01*
X-520683Y107607D01*
X-520523D01*
X-520475Y107614D01*
X-520405D01*
X-520329Y107628D01*
X-520232Y107642D01*
X-520128Y107662D01*
X-520017Y107690D01*
X-519892Y107725D01*
X-519767Y107766D01*
X-519636Y107822D01*
X-519504Y107884D01*
X-519372Y107954D01*
X-519247Y108044D01*
X-519116Y108141D01*
X-518998Y108259D01*
X-518991Y108266D01*
X-518970Y108287D01*
X-518942Y108328D01*
X-518901Y108377D01*
X-518852Y108446D01*
X-518804Y108529D01*
X-518741Y108626D01*
X-518686Y108744D01*
X-518630Y108869D01*
X-518575Y109015D01*
X-518519Y109174D01*
X-518471Y109347D01*
X-518429Y109535D01*
X-518401Y109743D01*
X-518381Y109958D01*
X-518374Y110193D01*
Y110207D01*
Y110249D01*
X-518381Y110311D01*
Y110401D01*
X-518395Y110505D01*
X-518408Y110623D01*
X-518422Y110755D01*
X-518450Y110901D01*
X-518485Y111053D01*
X-518526Y111206D01*
X-518575Y111365D01*
X-518637Y111525D01*
X-518707Y111684D01*
X-518790Y111837D01*
X-518880Y111975D01*
X-518991Y112107D01*
X-518998Y112114D01*
X-519019Y112135D01*
X-519053Y112170D01*
X-519102Y112211D01*
X-519164Y112260D01*
X-519234Y112315D01*
X-519324Y112378D01*
X-519421Y112440D01*
X-519525Y112502D01*
X-519650Y112565D01*
X-519774Y112620D01*
X-519913Y112669D01*
X-520066Y112711D01*
X-520225Y112745D01*
X-520392Y112766D01*
X-520565Y112773D01*
D02*
G37*
G36*
X110187Y522749D02*
X110180D01*
X110152D01*
X110110D01*
X110055Y522742D01*
X109985D01*
X109909Y522735D01*
X109819Y522728D01*
X109729Y522715D01*
X109514Y522687D01*
X109285Y522638D01*
X109056Y522569D01*
X108834Y522479D01*
X108827D01*
X108807Y522465D01*
X108779Y522451D01*
X108737Y522430D01*
X108689Y522402D01*
X108633Y522368D01*
X108502Y522285D01*
X108356Y522174D01*
X108210Y522042D01*
X108065Y521889D01*
X107933Y521709D01*
X107926Y521702D01*
X107919Y521688D01*
X107905Y521661D01*
X107884Y521619D01*
X107857Y521570D01*
X107829Y521515D01*
X107801Y521452D01*
X107767Y521376D01*
X107739Y521293D01*
X107711Y521210D01*
X107655Y521016D01*
X107621Y520801D01*
X107607Y520683D01*
Y520523D01*
X107614Y520475D01*
Y520406D01*
X107628Y520329D01*
X107642Y520232D01*
X107662Y520128D01*
X107690Y520017D01*
X107725Y519892D01*
X107767Y519767D01*
X107822Y519636D01*
X107884Y519504D01*
X107954Y519372D01*
X108044Y519248D01*
X108141Y519116D01*
X108259Y518998D01*
X108266Y518991D01*
X108287Y518970D01*
X108328Y518942D01*
X108377Y518901D01*
X108446Y518852D01*
X108529Y518804D01*
X108626Y518741D01*
X108744Y518686D01*
X108869Y518630D01*
X109015Y518575D01*
X109174Y518519D01*
X109347Y518471D01*
X109535Y518429D01*
X109743Y518401D01*
X109958Y518381D01*
X110193Y518374D01*
X110207D01*
X110249D01*
X110311Y518381D01*
X110401D01*
X110506Y518395D01*
X110623Y518408D01*
X110755Y518422D01*
X110901Y518450D01*
X111053Y518485D01*
X111206Y518526D01*
X111365Y518575D01*
X111525Y518637D01*
X111684Y518707D01*
X111837Y518790D01*
X111975Y518880D01*
X112107Y518991D01*
X112114Y518998D01*
X112135Y519019D01*
X112170Y519053D01*
X112211Y519102D01*
X112260Y519164D01*
X112315Y519234D01*
X112378Y519324D01*
X112440Y519421D01*
X112502Y519525D01*
X112565Y519650D01*
X112620Y519774D01*
X112669Y519913D01*
X112711Y520066D01*
X112745Y520225D01*
X112766Y520392D01*
X112773Y520565D01*
Y520641D01*
X112766Y520683D01*
Y520731D01*
X112752Y520842D01*
X112731Y520974D01*
X112704Y521120D01*
X112662Y521272D01*
X112606Y521425D01*
Y521418D01*
X112593Y521404D01*
X112579Y521383D01*
X112565Y521355D01*
X112544Y521321D01*
X112516Y521272D01*
X112461Y521168D01*
X112405Y521043D01*
X112343Y520905D01*
X112288Y520745D01*
X112239Y520586D01*
X111622Y520787D01*
Y520794D01*
X111629Y520821D01*
X111643Y520856D01*
X111664Y520912D01*
X111684Y520974D01*
X111712Y521043D01*
X111740Y521127D01*
X111774Y521217D01*
X111865Y521404D01*
X111969Y521612D01*
X112093Y521813D01*
X112232Y522000D01*
X112225Y522007D01*
X112197Y522035D01*
X112163Y522070D01*
X112107Y522118D01*
X112031Y522174D01*
X111948Y522236D01*
X111844Y522305D01*
X111719Y522375D01*
X111587Y522444D01*
X111435Y522514D01*
X111268Y522576D01*
X111081Y522631D01*
X110880Y522680D01*
X110665Y522715D01*
X110436Y522742D01*
X110187Y522749D01*
D02*
G37*
G36*
X-446338Y-287708D02*
X-446402Y-287713D01*
X-446480Y-287723D01*
X-446569Y-287733D01*
X-446677Y-287752D01*
X-446790Y-287777D01*
X-446907Y-287806D01*
X-447039Y-287851D01*
X-447167Y-287900D01*
X-447299Y-287963D01*
X-447437Y-288042D01*
X-447574Y-288130D01*
X-447706Y-288233D01*
X-447834Y-288351D01*
X-447888Y-288405D01*
X-447912Y-288439D01*
X-447947Y-288473D01*
X-448015Y-288561D01*
X-448094Y-288669D01*
X-448177Y-288792D01*
X-448256Y-288929D01*
X-448324Y-289076D01*
X-448319Y-289072D01*
X-448300D01*
X-448275Y-289067D01*
X-448246Y-289057D01*
X-448206Y-289047D01*
X-448153Y-289032D01*
X-448040Y-288998D01*
X-447912Y-288949D01*
X-447770Y-288895D01*
X-447618Y-288821D01*
X-447471Y-288743D01*
X-447177Y-289321D01*
X-447182Y-289326D01*
X-447206Y-289341D01*
X-447240Y-289356D01*
X-447295Y-289380D01*
X-447353Y-289410D01*
X-447422Y-289439D01*
X-447500Y-289478D01*
X-447589Y-289518D01*
X-447785Y-289586D01*
X-448005Y-289660D01*
X-448236Y-289714D01*
X-448466Y-289748D01*
Y-289758D01*
Y-289797D01*
Y-289846D01*
X-448461Y-289920D01*
X-448447Y-290013D01*
X-448432Y-290116D01*
X-448408Y-290238D01*
X-448368Y-290376D01*
X-448324Y-290518D01*
X-448265Y-290675D01*
X-448192Y-290837D01*
X-448099Y-291008D01*
X-447991Y-291185D01*
X-447863Y-291361D01*
X-447721Y-291543D01*
X-447549Y-291724D01*
X-447545Y-291729D01*
X-447525Y-291749D01*
X-447495Y-291778D01*
X-447451Y-291812D01*
X-447402Y-291861D01*
X-447343Y-291910D01*
X-447275Y-291969D01*
X-447201Y-292023D01*
X-447030Y-292156D01*
X-446834Y-292283D01*
X-446623Y-292396D01*
X-446402Y-292489D01*
X-446397Y-292494D01*
X-446373Y-292499D01*
X-446343Y-292509D01*
X-446299Y-292523D01*
X-446245Y-292538D01*
X-446181Y-292553D01*
X-446029Y-292587D01*
X-445848Y-292612D01*
X-445652Y-292621D01*
X-445441Y-292617D01*
X-445220Y-292582D01*
X-445211D01*
X-445196Y-292577D01*
X-445167Y-292568D01*
X-445122Y-292553D01*
X-445068Y-292538D01*
X-445010Y-292518D01*
X-444946Y-292494D01*
X-444867Y-292465D01*
X-444789Y-292425D01*
X-444711Y-292386D01*
X-444534Y-292288D01*
X-444357Y-292160D01*
X-444264Y-292087D01*
X-444151Y-291974D01*
X-444122Y-291935D01*
X-444073Y-291886D01*
X-444029Y-291822D01*
X-443970Y-291744D01*
X-443911Y-291655D01*
X-443852Y-291557D01*
X-443789Y-291445D01*
X-443730Y-291327D01*
X-443676Y-291195D01*
X-443627Y-291057D01*
X-443583Y-290915D01*
X-443558Y-290763D01*
X-443534Y-290601D01*
Y-290434D01*
Y-290425D01*
Y-290395D01*
X-443544Y-290346D01*
X-443548Y-290283D01*
X-443563Y-290199D01*
X-443588Y-290106D01*
X-443612Y-289993D01*
X-443656Y-289871D01*
X-443705Y-289743D01*
X-443769Y-289601D01*
X-443843Y-289449D01*
X-443931Y-289292D01*
X-444034Y-289130D01*
X-444161Y-288964D01*
X-444299Y-288797D01*
X-444460Y-288625D01*
X-444470Y-288615D01*
X-444500Y-288586D01*
X-444549Y-288547D01*
X-444612Y-288483D01*
X-444696Y-288419D01*
X-444789Y-288346D01*
X-444892Y-288262D01*
X-445014Y-288179D01*
X-445147Y-288096D01*
X-445284Y-288017D01*
X-445431Y-287939D01*
X-445588Y-287870D01*
X-445750Y-287806D01*
X-445917Y-287757D01*
X-446078Y-287723D01*
X-446250Y-287708D01*
X-446260D01*
X-446289D01*
X-446338D01*
D02*
G37*
G36*
X-451423Y-292224D02*
X-451560Y-292244D01*
X-451565Y-292249D01*
X-451575D01*
X-451619Y-292263D01*
X-451688Y-292283D01*
X-451771Y-292317D01*
X-451864Y-292362D01*
X-451967Y-292416D01*
X-452070Y-292489D01*
X-452163Y-292572D01*
X-452198Y-292607D01*
X-452217Y-292636D01*
X-452247Y-292675D01*
X-452276Y-292715D01*
X-452340Y-292817D01*
X-452399Y-292945D01*
X-452428Y-293023D01*
X-452453Y-293097D01*
X-452472Y-293185D01*
X-452487Y-293269D01*
X-452492Y-293362D01*
Y-293460D01*
Y-293470D01*
X-452487Y-293484D01*
Y-293514D01*
X-452477Y-293553D01*
X-452467Y-293602D01*
X-452453Y-293656D01*
X-452438Y-293720D01*
X-452413Y-293793D01*
X-452389Y-293867D01*
X-452355Y-293950D01*
X-452310Y-294034D01*
X-452261Y-294122D01*
X-452203Y-294210D01*
X-452134Y-294308D01*
X-452056Y-294396D01*
X-451972Y-294489D01*
X-451967Y-294494D01*
X-451953Y-294509D01*
X-451928Y-294534D01*
X-451889Y-294563D01*
X-451845Y-294597D01*
X-451796Y-294637D01*
X-451742Y-294681D01*
X-451678Y-294725D01*
X-451531Y-294813D01*
X-451364Y-294892D01*
X-451271Y-294926D01*
X-451178Y-294950D01*
X-451085Y-294965D01*
X-450987Y-294975D01*
X-450977D01*
X-450967D01*
X-450938D01*
X-450898D01*
X-450854Y-294970D01*
X-450800Y-294965D01*
X-450678Y-294941D01*
X-450536Y-294897D01*
X-450383Y-294833D01*
X-450227Y-294744D01*
X-450153Y-294681D01*
X-450079Y-294617D01*
X-450045Y-294583D01*
X-450021Y-294548D01*
X-449996Y-294514D01*
X-449962Y-294470D01*
X-449893Y-294362D01*
X-449825Y-294225D01*
X-449766Y-294068D01*
X-449741Y-293985D01*
X-449722Y-293896D01*
X-449712Y-293798D01*
Y-293700D01*
Y-293690D01*
X-449717Y-293676D01*
Y-293646D01*
X-449722Y-293612D01*
X-449726Y-293568D01*
X-449736Y-293509D01*
X-449751Y-293445D01*
X-449776Y-293381D01*
X-449795Y-293313D01*
X-449824Y-293234D01*
X-449903Y-293068D01*
X-450011Y-292901D01*
X-450084Y-292817D01*
X-450158Y-292734D01*
X-450163Y-292729D01*
X-450173Y-292719D01*
X-450187Y-292705D01*
X-450207Y-292685D01*
X-450236Y-292666D01*
X-450266Y-292636D01*
X-450349Y-292572D01*
X-450447Y-292504D01*
X-450560Y-292430D01*
X-450687Y-292362D01*
X-450825Y-292303D01*
X-450830Y-292298D01*
X-450840D01*
X-450864Y-292293D01*
X-450893Y-292283D01*
X-450962Y-292263D01*
X-451060Y-292244D01*
X-451173Y-292229D01*
X-451296Y-292224D01*
X-451423D01*
D02*
G37*
G36*
X-110193Y-518374D02*
X-110207D01*
X-110249D01*
X-110311Y-518381D01*
X-110401D01*
X-110506Y-518395D01*
X-110623Y-518408D01*
X-110755Y-518422D01*
X-110901Y-518450D01*
X-111053Y-518485D01*
X-111206Y-518526D01*
X-111365Y-518575D01*
X-111525Y-518637D01*
X-111684Y-518707D01*
X-111837Y-518790D01*
X-111975Y-518880D01*
X-112107Y-518991D01*
X-112114Y-518998D01*
X-112135Y-519019D01*
X-112170Y-519053D01*
X-112211Y-519102D01*
X-112260Y-519164D01*
X-112315Y-519234D01*
X-112378Y-519324D01*
X-112440Y-519421D01*
X-112502Y-519525D01*
X-112565Y-519650D01*
X-112620Y-519774D01*
X-112669Y-519913D01*
X-112711Y-520066D01*
X-112745Y-520225D01*
X-112766Y-520392D01*
X-112773Y-520565D01*
Y-520641D01*
X-112766Y-520683D01*
Y-520731D01*
X-112752Y-520842D01*
X-112731Y-520974D01*
X-112704Y-521120D01*
X-112662Y-521272D01*
X-112606Y-521425D01*
Y-521418D01*
X-112593Y-521404D01*
X-112579Y-521383D01*
X-112565Y-521355D01*
X-112544Y-521321D01*
X-112516Y-521272D01*
X-112461Y-521168D01*
X-112405Y-521043D01*
X-112343Y-520905D01*
X-112288Y-520745D01*
X-112239Y-520586D01*
X-111622Y-520787D01*
Y-520794D01*
X-111629Y-520821D01*
X-111643Y-520856D01*
X-111664Y-520912D01*
X-111684Y-520974D01*
X-111712Y-521043D01*
X-111740Y-521127D01*
X-111774Y-521217D01*
X-111865Y-521404D01*
X-111969Y-521612D01*
X-112093Y-521813D01*
X-112232Y-522000D01*
X-112225Y-522007D01*
X-112197Y-522035D01*
X-112163Y-522070D01*
X-112107Y-522118D01*
X-112031Y-522174D01*
X-111948Y-522236D01*
X-111844Y-522305D01*
X-111719Y-522375D01*
X-111587Y-522444D01*
X-111435Y-522514D01*
X-111268Y-522576D01*
X-111081Y-522631D01*
X-110880Y-522680D01*
X-110665Y-522715D01*
X-110436Y-522742D01*
X-110187Y-522749D01*
X-110180D01*
X-110152D01*
X-110110D01*
X-110055Y-522742D01*
X-109985D01*
X-109909Y-522735D01*
X-109819Y-522728D01*
X-109729Y-522715D01*
X-109514Y-522687D01*
X-109285Y-522638D01*
X-109056Y-522569D01*
X-108834Y-522479D01*
X-108827D01*
X-108807Y-522465D01*
X-108779Y-522451D01*
X-108737Y-522430D01*
X-108689Y-522402D01*
X-108633Y-522368D01*
X-108502Y-522285D01*
X-108356Y-522174D01*
X-108210Y-522042D01*
X-108065Y-521889D01*
X-107933Y-521709D01*
X-107926Y-521702D01*
X-107919Y-521688D01*
X-107905Y-521661D01*
X-107884Y-521619D01*
X-107857Y-521570D01*
X-107829Y-521515D01*
X-107801Y-521452D01*
X-107767Y-521376D01*
X-107739Y-521293D01*
X-107711Y-521210D01*
X-107655Y-521016D01*
X-107621Y-520801D01*
X-107607Y-520683D01*
Y-520523D01*
X-107614Y-520475D01*
Y-520406D01*
X-107628Y-520329D01*
X-107642Y-520232D01*
X-107662Y-520128D01*
X-107690Y-520017D01*
X-107725Y-519892D01*
X-107767Y-519767D01*
X-107822Y-519636D01*
X-107884Y-519504D01*
X-107954Y-519372D01*
X-108044Y-519248D01*
X-108141Y-519116D01*
X-108259Y-518998D01*
X-108266Y-518991D01*
X-108287Y-518970D01*
X-108328Y-518942D01*
X-108377Y-518901D01*
X-108446Y-518852D01*
X-108529Y-518804D01*
X-108626Y-518741D01*
X-108744Y-518686D01*
X-108869Y-518630D01*
X-109015Y-518575D01*
X-109174Y-518519D01*
X-109347Y-518471D01*
X-109535Y-518429D01*
X-109743Y-518401D01*
X-109958Y-518381D01*
X-110193Y-518374D01*
D02*
G37*
G36*
X290395Y-443534D02*
X290346Y-443544D01*
X290283Y-443548D01*
X290199Y-443563D01*
X290106Y-443588D01*
X289993Y-443612D01*
X289871Y-443656D01*
X289743Y-443705D01*
X289601Y-443769D01*
X289449Y-443843D01*
X289292Y-443931D01*
X289130Y-444034D01*
X288964Y-444161D01*
X288797Y-444299D01*
X288625Y-444460D01*
X288615Y-444470D01*
X288586Y-444500D01*
X288547Y-444549D01*
X288483Y-444612D01*
X288419Y-444696D01*
X288346Y-444789D01*
X288262Y-444892D01*
X288179Y-445014D01*
X288096Y-445147D01*
X288017Y-445284D01*
X287939Y-445431D01*
X287870Y-445588D01*
X287806Y-445750D01*
X287757Y-445917D01*
X287723Y-446078D01*
X287708Y-446250D01*
Y-446260D01*
Y-446289D01*
Y-446338D01*
X287713Y-446402D01*
X287723Y-446480D01*
X287733Y-446569D01*
X287752Y-446677D01*
X287777Y-446789D01*
X287806Y-446907D01*
X287851Y-447039D01*
X287900Y-447167D01*
X287963Y-447299D01*
X288042Y-447437D01*
X288130Y-447574D01*
X288233Y-447706D01*
X288351Y-447834D01*
X288405Y-447888D01*
X288439Y-447912D01*
X288473Y-447947D01*
X288561Y-448015D01*
X288669Y-448094D01*
X288792Y-448177D01*
X288929Y-448256D01*
X289076Y-448324D01*
X289072Y-448319D01*
Y-448300D01*
X289067Y-448275D01*
X289057Y-448246D01*
X289047Y-448206D01*
X289032Y-448153D01*
X288998Y-448040D01*
X288949Y-447912D01*
X288895Y-447770D01*
X288821Y-447618D01*
X288743Y-447471D01*
X289321Y-447177D01*
X289326Y-447182D01*
X289341Y-447206D01*
X289356Y-447240D01*
X289380Y-447294D01*
X289410Y-447353D01*
X289439Y-447422D01*
X289478Y-447500D01*
X289518Y-447589D01*
X289586Y-447785D01*
X289660Y-448005D01*
X289714Y-448236D01*
X289748Y-448466D01*
X289758D01*
X289797D01*
X289846D01*
X289920Y-448461D01*
X290013Y-448447D01*
X290116Y-448432D01*
X290238Y-448408D01*
X290376Y-448368D01*
X290518Y-448324D01*
X290675Y-448265D01*
X290837Y-448192D01*
X291008Y-448098D01*
X291185Y-447991D01*
X291361Y-447863D01*
X291543Y-447721D01*
X291724Y-447549D01*
X291729Y-447545D01*
X291749Y-447525D01*
X291778Y-447495D01*
X291812Y-447451D01*
X291861Y-447402D01*
X291910Y-447343D01*
X291969Y-447275D01*
X292023Y-447201D01*
X292156Y-447030D01*
X292283Y-446833D01*
X292396Y-446623D01*
X292489Y-446402D01*
X292494Y-446397D01*
X292499Y-446373D01*
X292509Y-446343D01*
X292523Y-446299D01*
X292538Y-446245D01*
X292553Y-446181D01*
X292587Y-446029D01*
X292612Y-445848D01*
X292621Y-445652D01*
X292617Y-445441D01*
X292582Y-445220D01*
Y-445211D01*
X292577Y-445196D01*
X292568Y-445166D01*
X292553Y-445122D01*
X292538Y-445068D01*
X292518Y-445009D01*
X292494Y-444946D01*
X292465Y-444867D01*
X292425Y-444789D01*
X292386Y-444710D01*
X292288Y-444534D01*
X292160Y-444357D01*
X292087Y-444264D01*
X291974Y-444151D01*
X291935Y-444122D01*
X291886Y-444073D01*
X291822Y-444029D01*
X291744Y-443970D01*
X291655Y-443911D01*
X291557Y-443852D01*
X291445Y-443789D01*
X291327Y-443730D01*
X291195Y-443676D01*
X291057Y-443627D01*
X290915Y-443583D01*
X290763Y-443558D01*
X290601Y-443534D01*
X290434D01*
X290425D01*
X290395D01*
D02*
G37*
G36*
X296073Y-449163D02*
X292607Y-449776D01*
X294034Y-451202D01*
X296073Y-449163D01*
D02*
G37*
G36*
X520683Y-107605D02*
X520523D01*
X520475Y-107612D01*
X520405D01*
X520329Y-107626D01*
X520232Y-107640D01*
X520128Y-107661D01*
X520017Y-107688D01*
X519892Y-107723D01*
X519767Y-107765D01*
X519636Y-107820D01*
X519504Y-107882D01*
X519372Y-107952D01*
X519247Y-108042D01*
X519116Y-108139D01*
X518998Y-108257D01*
X518991Y-108264D01*
X518970Y-108285D01*
X518942Y-108326D01*
X518901Y-108375D01*
X518852Y-108444D01*
X518804Y-108527D01*
X518741Y-108624D01*
X518686Y-108742D01*
X518630Y-108867D01*
X518575Y-109013D01*
X518519Y-109172D01*
X518471Y-109346D01*
X518429Y-109533D01*
X518401Y-109741D01*
X518381Y-109956D01*
X518374Y-110191D01*
Y-110205D01*
Y-110247D01*
X518381Y-110309D01*
Y-110400D01*
X518395Y-110504D01*
X518408Y-110621D01*
X518422Y-110753D01*
X518450Y-110899D01*
X518485Y-111051D01*
X518526Y-111204D01*
X518575Y-111363D01*
X518637Y-111523D01*
X518707Y-111682D01*
X518790Y-111835D01*
X518880Y-111974D01*
X518991Y-112105D01*
X518998Y-112112D01*
X519019Y-112133D01*
X519053Y-112168D01*
X519102Y-112209D01*
X519164Y-112258D01*
X519234Y-112313D01*
X519324Y-112376D01*
X519421Y-112438D01*
X519525Y-112501D01*
X519650Y-112563D01*
X519774Y-112619D01*
X519913Y-112667D01*
X520066Y-112709D01*
X520225Y-112743D01*
X520392Y-112764D01*
X520565Y-112771D01*
X520641D01*
X520683Y-112764D01*
X520731D01*
X520842Y-112750D01*
X520974Y-112729D01*
X521120Y-112702D01*
X521272Y-112660D01*
X521425Y-112605D01*
X521418D01*
X521404Y-112591D01*
X521383Y-112577D01*
X521355Y-112563D01*
X521321Y-112542D01*
X521272Y-112514D01*
X521168Y-112459D01*
X521043Y-112403D01*
X520905Y-112341D01*
X520745Y-112286D01*
X520586Y-112237D01*
X520787Y-111620D01*
X520794D01*
X520821Y-111627D01*
X520856Y-111641D01*
X520912Y-111662D01*
X520974Y-111682D01*
X521043Y-111710D01*
X521127Y-111738D01*
X521217Y-111772D01*
X521404Y-111863D01*
X521612Y-111967D01*
X521813Y-112092D01*
X522000Y-112230D01*
X522007Y-112223D01*
X522035Y-112196D01*
X522070Y-112161D01*
X522118Y-112105D01*
X522174Y-112029D01*
X522236Y-111946D01*
X522305Y-111842D01*
X522375Y-111717D01*
X522444Y-111585D01*
X522513Y-111433D01*
X522576Y-111266D01*
X522631Y-111079D01*
X522680Y-110878D01*
X522715Y-110663D01*
X522742Y-110434D01*
X522749Y-110185D01*
Y-110178D01*
Y-110150D01*
Y-110108D01*
X522742Y-110053D01*
Y-109984D01*
X522735Y-109907D01*
X522728Y-109817D01*
X522715Y-109727D01*
X522687Y-109512D01*
X522638Y-109283D01*
X522569Y-109054D01*
X522479Y-108832D01*
Y-108826D01*
X522465Y-108805D01*
X522451Y-108777D01*
X522430Y-108735D01*
X522402Y-108687D01*
X522368Y-108631D01*
X522285Y-108500D01*
X522174Y-108354D01*
X522042Y-108208D01*
X521889Y-108063D01*
X521709Y-107931D01*
X521702Y-107924D01*
X521688Y-107917D01*
X521660Y-107903D01*
X521619Y-107882D01*
X521570Y-107855D01*
X521515Y-107827D01*
X521452Y-107799D01*
X521376Y-107765D01*
X521293Y-107737D01*
X521210Y-107709D01*
X521016Y-107654D01*
X520801Y-107619D01*
X520683Y-107605D01*
D02*
G37*
G36*
X420347Y132731D02*
X420340D01*
X420326D01*
X420306D01*
X420271Y132724D01*
X420236D01*
X420188Y132717D01*
X420084Y132690D01*
X419966Y132648D01*
X419841Y132592D01*
X419723Y132509D01*
X419661Y132454D01*
X419605Y132398D01*
X419598Y132391D01*
X419591Y132385D01*
X419577Y132364D01*
X419557Y132336D01*
X419536Y132301D01*
X419508Y132253D01*
X419481Y132204D01*
X419453Y132142D01*
X419425Y132072D01*
X419404Y131996D01*
X419376Y131913D01*
X419356Y131823D01*
X419335Y131719D01*
X419321Y131608D01*
X419307Y131490D01*
Y129333D01*
X421422D01*
Y131247D01*
X421415Y131296D01*
Y131351D01*
X421408Y131483D01*
X421394Y131629D01*
X421373Y131781D01*
X421346Y131927D01*
X421304Y132059D01*
Y132065D01*
X421297Y132072D01*
X421283Y132114D01*
X421256Y132170D01*
X421214Y132246D01*
X421158Y132322D01*
X421096Y132405D01*
X421013Y132488D01*
X420923Y132558D01*
X420909Y132565D01*
X420874Y132586D01*
X420826Y132613D01*
X420749Y132648D01*
X420666Y132676D01*
X420569Y132704D01*
X420458Y132724D01*
X420347Y132731D01*
D02*
G37*
%LPD*%
D13*
X421499Y289553D02*
X442302Y310356D01*
X468748Y283910D01*
X447945Y263107D02*
X468748Y283910D01*
X421499Y289553D02*
X447945Y263107D01*
X-289552Y421496D02*
X-263106Y447942D01*
X-283909Y468744D02*
X-263106Y447942D01*
X-310355Y442299D02*
X-283909Y468744D01*
X-310355Y442299D02*
X-289552Y421496D01*
X-502790Y93300D02*
Y130700D01*
X-532210D02*
X-502790D01*
X-532210Y93300D02*
Y130700D01*
Y93300D02*
X-502790D01*
X93300Y502790D02*
X130700D01*
Y532210D01*
X93300D02*
X130700D01*
X93300Y502790D02*
Y532210D01*
X-447941Y-263106D02*
X-421495Y-289552D01*
X-468745Y-283909D02*
X-447941Y-263106D01*
X-468745Y-283909D02*
X-442299Y-310355D01*
X-421495Y-289552D01*
X-93300Y-532210D02*
Y-502790D01*
X-130700Y-532210D02*
X-93300D01*
X-130700D02*
Y-502790D01*
X-93300D01*
X263106Y-447941D02*
X289551Y-421495D01*
X263106Y-447941D02*
X283909Y-468744D01*
X310354Y-442298D01*
X289551Y-421495D02*
X310354Y-442298D01*
X502790Y-93298D02*
X532210D01*
Y-130698D02*
Y-93298D01*
X502790Y-130698D02*
X532210D01*
X502790D02*
Y-93298D01*
X356500Y28500D02*
Y101500D01*
Y28500D02*
X443500D01*
Y101500D01*
X356500D02*
X443500D01*
X409209Y105696D02*
X440791D01*
Y151279D01*
X409209D02*
X440791D01*
X409209Y105696D02*
Y151279D01*
M02*
