G04*
G04 #@! TF.GenerationSoftware,Altium Limited,Altium Designer,24.7.2 (38)*
G04*
G04 Layer_Color=128*
%FSLAX44Y44*%
%MOMM*%
G71*
G04*
G04 #@! TF.SameCoordinates,368DA5F4-0558-4B36-8F9D-AB2494F627D1*
G04*
G04*
G04 #@! TF.FilePolarity,Positive*
G04*
G01*
G75*
%ADD48C,0.1270*%
D48*
X92000Y555000D02*
X102000D01*
X97000Y550000D02*
Y560000D01*
X117400Y555000D02*
X127400D01*
X122400Y550000D02*
Y560000D01*
X420537Y369251D02*
X430537D01*
X425537Y364251D02*
Y374251D01*
X438498Y351291D02*
X448498D01*
X443498Y346291D02*
Y356291D01*
X456034Y323855D02*
X466034D01*
X461034Y318855D02*
Y328855D01*
X473994Y305895D02*
X483994D01*
X478994Y300895D02*
Y310895D01*
X-102000Y-555000D02*
X-92000D01*
X-97000Y-560000D02*
Y-550000D01*
X-127400Y-555000D02*
X-117400D01*
X-122400Y-560000D02*
Y-550000D01*
X-565500Y-0D02*
X-534500D01*
X-550000Y-15500D02*
Y15500D01*
X-404410Y388910D02*
X-373410D01*
X-388910Y373410D02*
Y404410D01*
X-404410Y-388910D02*
X-373410D01*
X-388910Y-404410D02*
Y-373410D01*
X-15500Y-550000D02*
X15500D01*
X-0Y-565500D02*
Y-534500D01*
X373410Y-388910D02*
X404410D01*
X388910Y-404410D02*
Y-373410D01*
X534500Y-0D02*
X565500D01*
X550000Y-15500D02*
Y15500D01*
X373409Y388910D02*
X404409D01*
X388909Y373410D02*
Y404410D01*
X-15500Y550000D02*
X15500D01*
X-0Y534500D02*
Y565500D01*
X-328850Y461030D02*
X-318850D01*
X-323850Y456030D02*
Y466030D01*
X-310889Y478991D02*
X-300889D01*
X-305889Y473991D02*
Y483991D01*
X300889Y-478990D02*
X310889D01*
X305889Y-483990D02*
Y-473990D01*
X318850Y-461030D02*
X328850D01*
X323850Y-466030D02*
Y-456030D01*
X-483990Y-305889D02*
X-473990D01*
X-478990Y-310889D02*
Y-300889D01*
X-466030Y-323850D02*
X-456030D01*
X-461030Y-328850D02*
Y-318850D01*
X550000Y-97000D02*
X560000D01*
X555000Y-102000D02*
Y-92000D01*
X550000Y-122400D02*
X560000D01*
X555000Y-127400D02*
Y-117400D01*
X-560000Y122400D02*
X-550000D01*
X-555000Y117400D02*
Y127400D01*
X-560000Y97000D02*
X-550000D01*
X-555000Y92000D02*
Y102000D01*
X364250Y-425540D02*
X374250D01*
X369250Y-430540D02*
Y-420540D01*
X346290Y-443500D02*
X356290D01*
X351290Y-448500D02*
Y-438500D01*
X-70200Y-562000D02*
X-60200D01*
X-65200Y-567000D02*
Y-557000D01*
X-44800Y-562000D02*
X-34800D01*
X-39800Y-567000D02*
Y-557000D01*
X-448500Y-351290D02*
X-438501D01*
X-443501Y-356290D02*
Y-346290D01*
X-430540Y-369250D02*
X-420540D01*
X-425540Y-374250D02*
Y-364250D01*
X-567000Y65200D02*
X-557000D01*
X-562000Y60200D02*
Y70200D01*
X-567000Y39800D02*
X-557000D01*
X-562000Y34800D02*
Y44800D01*
X-356290Y443500D02*
X-346290D01*
X-351290Y438500D02*
Y448500D01*
X-374250Y425540D02*
X-364250D01*
X-369250Y420540D02*
Y430540D01*
X60200Y562000D02*
X70200D01*
X65200Y557000D02*
Y567000D01*
X34800Y562000D02*
X44800D01*
X39800Y557000D02*
Y567000D01*
X557000Y-39800D02*
X567000D01*
X562000Y-44800D02*
Y-34800D01*
X557000Y-65200D02*
X567000D01*
X562000Y-70200D02*
Y-60200D01*
X381000Y-292100D02*
X392000D01*
X386500Y-297600D02*
Y-286600D01*
X381000Y-317500D02*
X392000D01*
X386500Y-323000D02*
Y-312000D01*
X355600Y-292100D02*
X366600D01*
X361100Y-297600D02*
Y-286600D01*
X355600Y-317500D02*
X366600D01*
X361100Y-323000D02*
Y-312000D01*
X330200Y-292100D02*
X341200D01*
X335700Y-297600D02*
Y-286600D01*
X330200Y-317500D02*
X341200D01*
X335700Y-323000D02*
Y-312000D01*
X304800Y-292100D02*
X315800D01*
X310300Y-297600D02*
Y-286600D01*
X304800Y-317500D02*
X315800D01*
X310300Y-323000D02*
Y-312000D01*
X279400Y-292100D02*
X290400D01*
X284900Y-297600D02*
Y-286600D01*
X254000Y-292100D02*
X265000D01*
X259500Y-297600D02*
Y-286600D01*
X228600Y-292100D02*
X239600D01*
X234100Y-297600D02*
Y-286600D01*
X279400Y-317500D02*
X290400D01*
X284900Y-323000D02*
Y-312000D01*
X254000Y-317500D02*
X265000D01*
X259500Y-323000D02*
Y-312000D01*
X228600Y-317500D02*
X239600D01*
X234100Y-323000D02*
Y-312000D01*
X453350Y114650D02*
X460850D01*
X457100Y110900D02*
Y118400D01*
X478750Y89250D02*
X486250D01*
X482500Y85500D02*
Y93000D01*
X504150Y114650D02*
X511650D01*
X507900Y110900D02*
Y118400D01*
X444500Y-14300D02*
X455500D01*
X450000Y-19800D02*
Y-8800D01*
X419100Y-14300D02*
X430100D01*
X424600Y-19800D02*
Y-8800D01*
X393700Y-14300D02*
X404700D01*
X399200Y-19800D02*
Y-8800D01*
X444500Y-39700D02*
X455500D01*
X450000Y-45200D02*
Y-34200D01*
X419100Y-39700D02*
X430100D01*
X424600Y-45200D02*
Y-34200D01*
X393700Y-39700D02*
X404700D01*
X399200Y-45200D02*
Y-34200D01*
X368300Y-14300D02*
X379300D01*
X373800Y-19800D02*
Y-8800D01*
X342900Y-14300D02*
X353900D01*
X348400Y-19800D02*
Y-8800D01*
X368300Y-39700D02*
X379300D01*
X373800Y-45200D02*
Y-34200D01*
X342900Y-39700D02*
X353900D01*
X348400Y-45200D02*
Y-34200D01*
X165100Y-39700D02*
X176100D01*
X170600Y-45200D02*
Y-34200D01*
X165100Y-14300D02*
X176100D01*
X170600Y-19800D02*
Y-8800D01*
X190500Y-39700D02*
X201500D01*
X196000Y-45200D02*
Y-34200D01*
X190500Y-14300D02*
X201500D01*
X196000Y-19800D02*
Y-8800D01*
X215900Y-39700D02*
X226900D01*
X221400Y-45200D02*
Y-34200D01*
X215900Y-14300D02*
X226900D01*
X221400Y-19800D02*
Y-8800D01*
X241300Y-39700D02*
X252300D01*
X246800Y-45200D02*
Y-34200D01*
X241300Y-14300D02*
X252300D01*
X246800Y-19800D02*
Y-8800D01*
X266700Y-39700D02*
X277700D01*
X272200Y-45200D02*
Y-34200D01*
X292100Y-39700D02*
X303100D01*
X297600Y-45200D02*
Y-34200D01*
X266700Y-14300D02*
X277700D01*
X272200Y-19800D02*
Y-8800D01*
X292100Y-14300D02*
X303100D01*
X297600Y-19800D02*
Y-8800D01*
X317500Y-39700D02*
X328500D01*
X323000Y-45200D02*
Y-34200D01*
X317500Y-14300D02*
X328500D01*
X323000Y-19800D02*
Y-8800D01*
X-42600Y88900D02*
X-33600D01*
X-38100Y84400D02*
Y93400D01*
X-42600Y63500D02*
X-33600D01*
X-38100Y59000D02*
Y68000D01*
X-42600Y38100D02*
X-33600D01*
X-38100Y33600D02*
Y42600D01*
X-42600Y12700D02*
X-33600D01*
X-38100Y8200D02*
Y17200D01*
X-42600Y-12700D02*
X-33600D01*
X-38100Y-17200D02*
Y-8200D01*
X-42600Y-38100D02*
X-33600D01*
X-38100Y-42600D02*
Y-33600D01*
X-42600Y-63500D02*
X-33600D01*
X-38100Y-68000D02*
Y-59000D01*
X-42600Y-88900D02*
X-33600D01*
X-38100Y-93400D02*
Y-84400D01*
X33600Y88900D02*
X42600D01*
X38100Y84400D02*
Y93400D01*
X33600Y63500D02*
X42600D01*
X38100Y59000D02*
Y68000D01*
X33600Y38100D02*
X42600D01*
X38100Y33600D02*
Y42600D01*
X33600Y12700D02*
X42600D01*
X38100Y8200D02*
Y17200D01*
X33600Y-12700D02*
X42600D01*
X38100Y-17200D02*
Y-8200D01*
X33600Y-38100D02*
X42600D01*
X38100Y-42600D02*
Y-33600D01*
X33600Y-63500D02*
X42600D01*
X38100Y-68000D02*
Y-59000D01*
X33600Y-88900D02*
X42600D01*
X38100Y-93400D02*
Y-84400D01*
X232100Y-270000D02*
X236100D01*
X234100Y-272000D02*
Y-268000D01*
X232100Y-250000D02*
X236100D01*
X234100Y-252000D02*
Y-248000D01*
X184506Y-277500D02*
X188506D01*
X186506Y-279500D02*
Y-275500D01*
X121500Y-39700D02*
X125500D01*
X123500Y-41700D02*
Y-37700D01*
X494240Y142500D02*
X498240D01*
X496240Y140500D02*
Y144500D01*
X270500Y-265000D02*
X274500D01*
X272500Y-267000D02*
Y-263000D01*
X270500Y-282500D02*
X274500D01*
X272500Y-284500D02*
Y-280500D01*
X184506Y-287500D02*
X188506D01*
X186506Y-289500D02*
Y-285500D01*
X184506Y-297692D02*
X188506D01*
X186506Y-299692D02*
Y-295692D01*
X184506Y-307500D02*
X188506D01*
X186506Y-309500D02*
Y-305500D01*
M02*
