G04*
G04 #@! TF.GenerationSoftware,Altium Limited,Altium Designer,24.6.1 (21)*
G04*
G04 Layer_Color=2752767*
%FSLAX44Y44*%
%MOMM*%
G71*
G04*
G04 #@! TF.SameCoordinates,B4F3611A-EC35-413B-BF39-3333FE2D459C*
G04*
G04*
G04 #@! TF.FilePolarity,Positive*
G04*
G01*
G75*
%ADD42C,0.1270*%
%ADD43C,0.1693*%
D42*
X-330080Y454920D02*
Y465080D01*
X-319920D01*
Y454920D01*
X-330080D01*
X-312120Y472881D02*
Y483041D01*
X-301959D01*
Y472881D01*
X-312120D01*
X302420Y-482580D02*
Y-472420D01*
X312580D01*
Y-482580D01*
X302420D01*
X320381Y-464619D02*
Y-454459D01*
X330541D01*
Y-464619D01*
X320381D01*
X-482580Y-312580D02*
Y-302420D01*
X-472420D01*
Y-312580D01*
X-482580D01*
X-464619Y-330541D02*
Y-320381D01*
X-454459D01*
Y-330541D01*
X-464619D01*
X549920Y-99680D02*
Y-89520D01*
X560080D01*
Y-99680D01*
X549920D01*
Y-125080D02*
Y-114920D01*
X560080D01*
Y-125080D01*
X549920D01*
X-557580Y114920D02*
Y125080D01*
X-547420D01*
Y114920D01*
X-557580D01*
Y89520D02*
Y99680D01*
X-547420D01*
Y89520D01*
X-557580D01*
X-125080Y-560080D02*
Y-549920D01*
X-114920D01*
Y-560080D01*
X-125080D01*
X-99680D02*
Y-549920D01*
X-89520D01*
Y-560080D01*
X-99680D01*
X115320Y551254D02*
Y561414D01*
X125480D01*
Y551254D01*
X115320D01*
X89920D02*
Y561414D01*
X100080D01*
Y551254D01*
X89920D01*
X433900Y345940D02*
Y356100D01*
X444060D01*
Y345940D01*
X433900D01*
X415940Y363900D02*
Y374060D01*
X426100D01*
Y363900D01*
X415940D01*
X366842Y-427580D02*
Y-417420D01*
X377002D01*
Y-427580D01*
X366842D01*
X348881Y-445541D02*
Y-435381D01*
X359041D01*
Y-445541D01*
X348881D01*
X-65280Y-566414D02*
Y-556254D01*
X-55120D01*
Y-566414D01*
X-65280D01*
X-39880D02*
Y-556254D01*
X-29720D01*
Y-566414D01*
X-39880D01*
X-444214Y-358600D02*
Y-348440D01*
X-434054D01*
Y-358600D01*
X-444214D01*
X-426254Y-376560D02*
Y-366400D01*
X-416094D01*
Y-376560D01*
X-426254D01*
X-564743Y55320D02*
Y65480D01*
X-554583D01*
Y55320D01*
X-564743D01*
Y29920D02*
Y40080D01*
X-554583D01*
Y29920D01*
X-564743D01*
X-359041Y434717D02*
Y444877D01*
X-348881D01*
Y434717D01*
X-359041D01*
X-377002Y416756D02*
Y426916D01*
X-366842D01*
Y416756D01*
X-377002D01*
X55320Y556254D02*
Y566414D01*
X65480D01*
Y556254D01*
X55320D01*
X29920D02*
Y566414D01*
X40080D01*
Y556254D01*
X29920D01*
X556254Y-40080D02*
Y-29920D01*
X566414D01*
Y-40080D01*
X556254D01*
Y-65480D02*
Y-55320D01*
X566414D01*
Y-65480D01*
X556254D01*
X386500Y-297180D02*
X381420Y-287020D01*
X391580D01*
X386500Y-297180D01*
Y-322580D02*
X381420Y-312420D01*
X391580D01*
X386500Y-322580D01*
X361100Y-297180D02*
X356020Y-287020D01*
X366180D01*
X361100Y-297180D01*
Y-322580D02*
X356020Y-312420D01*
X366180D01*
X361100Y-322580D01*
X335700Y-297180D02*
X330620Y-287020D01*
X340780D01*
X335700Y-297180D01*
Y-322580D02*
X330620Y-312420D01*
X340780D01*
X335700Y-322580D01*
X310300Y-297180D02*
X305220Y-287020D01*
X315380D01*
X310300Y-297180D01*
Y-322580D02*
X305220Y-312420D01*
X315380D01*
X310300Y-322580D01*
X284900Y-297180D02*
X279820Y-287020D01*
X289980D01*
X284900Y-297180D01*
X259500D02*
X254420Y-287020D01*
X264580D01*
X259500Y-297180D01*
X234100D02*
X229020Y-287020D01*
X239180D01*
X234100Y-297180D01*
X284900Y-322580D02*
X279820Y-312420D01*
X289980D01*
X284900Y-322580D01*
X259500D02*
X254420Y-312420D01*
X264580D01*
X259500Y-322580D01*
X234100D02*
X229020Y-312420D01*
X239180D01*
X234100Y-322580D01*
X450000Y-19380D02*
X444920Y-9220D01*
X455080D01*
X450000Y-19380D01*
X424600D02*
X419520Y-9220D01*
X429680D01*
X424600Y-19380D01*
X399200D02*
X394120Y-9220D01*
X404280D01*
X399200Y-19380D01*
X450000Y-44780D02*
X444920Y-34620D01*
X455080D01*
X450000Y-44780D01*
X424600D02*
X419520Y-34620D01*
X429680D01*
X424600Y-44780D01*
X399200D02*
X394120Y-34620D01*
X404280D01*
X399200Y-44780D01*
X373800Y-19380D02*
X368720Y-9220D01*
X378880D01*
X373800Y-19380D01*
X348400D02*
X343320Y-9220D01*
X353480D01*
X348400Y-19380D01*
X373800Y-44780D02*
X368720Y-34620D01*
X378880D01*
X373800Y-44780D01*
X348400D02*
X343320Y-34620D01*
X353480D01*
X348400Y-44780D01*
X170600D02*
X165520Y-34620D01*
X175680D01*
X170600Y-44780D01*
Y-19380D02*
X165520Y-9220D01*
X175680D01*
X170600Y-19380D01*
X196000Y-44780D02*
X190920Y-34620D01*
X201080D01*
X196000Y-44780D01*
Y-19380D02*
X190920Y-9220D01*
X201080D01*
X196000Y-19380D01*
X221400Y-44780D02*
X216320Y-34620D01*
X226480D01*
X221400Y-44780D01*
Y-19380D02*
X216320Y-9220D01*
X226480D01*
X221400Y-19380D01*
X246800Y-44780D02*
X241720Y-34620D01*
X251880D01*
X246800Y-44780D01*
Y-19380D02*
X241720Y-9220D01*
X251880D01*
X246800Y-19380D01*
X272200Y-44780D02*
X267120Y-34620D01*
X277280D01*
X272200Y-44780D01*
X297600D02*
X292520Y-34620D01*
X302680D01*
X297600Y-44780D01*
X272200Y-19380D02*
X267120Y-9220D01*
X277280D01*
X272200Y-19380D01*
X297600D02*
X292520Y-9220D01*
X302680D01*
X297600Y-19380D01*
X323000Y-44780D02*
X317920Y-34620D01*
X328080D01*
X323000Y-44780D01*
Y-19380D02*
X317920Y-9220D01*
X328080D01*
X323000Y-19380D01*
X-38100Y83820D02*
X-35560Y86360D01*
X-33020D01*
X-35560Y88900D01*
X-33020Y91440D01*
X-35560D01*
X-38100Y93980D01*
X-40640Y91440D01*
X-43180D01*
X-40640Y88900D01*
X-43180Y86360D01*
X-40640D01*
X-38100Y83820D01*
Y58420D02*
X-35560Y60960D01*
X-33020D01*
X-35560Y63500D01*
X-33020Y66040D01*
X-35560D01*
X-38100Y68580D01*
X-40640Y66040D01*
X-43180D01*
X-40640Y63500D01*
X-43180Y60960D01*
X-40640D01*
X-38100Y58420D01*
Y33020D02*
X-35560Y35560D01*
X-33020D01*
X-35560Y38100D01*
X-33020Y40640D01*
X-35560D01*
X-38100Y43180D01*
X-40640Y40640D01*
X-43180D01*
X-40640Y38100D01*
X-43180Y35560D01*
X-40640D01*
X-38100Y33020D01*
Y7620D02*
X-35560Y10160D01*
X-33020D01*
X-35560Y12700D01*
X-33020Y15240D01*
X-35560D01*
X-38100Y17780D01*
X-40640Y15240D01*
X-43180D01*
X-40640Y12700D01*
X-43180Y10160D01*
X-40640D01*
X-38100Y7620D01*
Y-17780D02*
X-35560Y-15240D01*
X-33020D01*
X-35560Y-12700D01*
X-33020Y-10160D01*
X-35560D01*
X-38100Y-7620D01*
X-40640Y-10160D01*
X-43180D01*
X-40640Y-12700D01*
X-43180Y-15240D01*
X-40640D01*
X-38100Y-17780D01*
Y-43180D02*
X-35560Y-40640D01*
X-33020D01*
X-35560Y-38100D01*
X-33020Y-35560D01*
X-35560D01*
X-38100Y-33020D01*
X-40640Y-35560D01*
X-43180D01*
X-40640Y-38100D01*
X-43180Y-40640D01*
X-40640D01*
X-38100Y-43180D01*
Y-68580D02*
X-35560Y-66040D01*
X-33020D01*
X-35560Y-63500D01*
X-33020Y-60960D01*
X-35560D01*
X-38100Y-58420D01*
X-40640Y-60960D01*
X-43180D01*
X-40640Y-63500D01*
X-43180Y-66040D01*
X-40640D01*
X-38100Y-68580D01*
Y-93980D02*
X-35560Y-91440D01*
X-33020D01*
X-35560Y-88900D01*
X-33020Y-86360D01*
X-35560D01*
X-38100Y-83820D01*
X-40640Y-86360D01*
X-43180D01*
X-40640Y-88900D01*
X-43180Y-91440D01*
X-40640D01*
X-38100Y-93980D01*
X38100Y83820D02*
X40640Y86360D01*
X43180D01*
X40640Y88900D01*
X43180Y91440D01*
X40640D01*
X38100Y93980D01*
X35560Y91440D01*
X33020D01*
X35560Y88900D01*
X33020Y86360D01*
X35560D01*
X38100Y83820D01*
Y58420D02*
X40640Y60960D01*
X43180D01*
X40640Y63500D01*
X43180Y66040D01*
X40640D01*
X38100Y68580D01*
X35560Y66040D01*
X33020D01*
X35560Y63500D01*
X33020Y60960D01*
X35560D01*
X38100Y58420D01*
Y33020D02*
X40640Y35560D01*
X43180D01*
X40640Y38100D01*
X43180Y40640D01*
X40640D01*
X38100Y43180D01*
X35560Y40640D01*
X33020D01*
X35560Y38100D01*
X33020Y35560D01*
X35560D01*
X38100Y33020D01*
Y7620D02*
X40640Y10160D01*
X43180D01*
X40640Y12700D01*
X43180Y15240D01*
X40640D01*
X38100Y17780D01*
X35560Y15240D01*
X33020D01*
X35560Y12700D01*
X33020Y10160D01*
X35560D01*
X38100Y7620D01*
Y-17780D02*
X40640Y-15240D01*
X43180D01*
X40640Y-12700D01*
X43180Y-10160D01*
X40640D01*
X38100Y-7620D01*
X35560Y-10160D01*
X33020D01*
X35560Y-12700D01*
X33020Y-15240D01*
X35560D01*
X38100Y-17780D01*
Y-43180D02*
X40640Y-40640D01*
X43180D01*
X40640Y-38100D01*
X43180Y-35560D01*
X40640D01*
X38100Y-33020D01*
X35560Y-35560D01*
X33020D01*
X35560Y-38100D01*
X33020Y-40640D01*
X35560D01*
X38100Y-43180D01*
Y-68580D02*
X40640Y-66040D01*
X43180D01*
X40640Y-63500D01*
X43180Y-60960D01*
X40640D01*
X38100Y-58420D01*
X35560Y-60960D01*
X33020D01*
X35560Y-63500D01*
X33020Y-66040D01*
X35560D01*
X38100Y-68580D01*
Y-93980D02*
X40640Y-91440D01*
X43180D01*
X40640Y-88900D01*
X43180Y-86360D01*
X40640D01*
X38100Y-83820D01*
X35560Y-86360D01*
X33020D01*
X35560Y-88900D01*
X33020Y-91440D01*
X35560D01*
X38100Y-93980D01*
X473440Y299920D02*
Y310080D01*
X483600D01*
Y299920D01*
X473440D01*
X455479Y317880D02*
Y328041D01*
X465639D01*
Y317880D01*
X455479D01*
X267420Y-270080D02*
X269960Y-265000D01*
X267420Y-259920D01*
X272500Y-262460D01*
X277580Y-259920D01*
X275040Y-265000D01*
X277580Y-270080D01*
X272500Y-267540D01*
X267420Y-270080D01*
Y-287580D02*
X269960Y-282500D01*
X267420Y-277420D01*
X272500Y-279960D01*
X277580Y-277420D01*
X275040Y-282500D01*
X277580Y-287580D01*
X272500Y-285040D01*
X267420Y-287580D01*
X249920Y-254080D02*
X252460Y-249000D01*
X249920Y-243920D01*
X255000Y-246460D01*
X260080Y-243920D01*
X257540Y-249000D01*
X260080Y-254080D01*
X255000Y-251540D01*
X249920Y-254080D01*
X229020Y-275080D02*
X231560Y-270000D01*
X229020Y-264920D01*
X234100Y-267460D01*
X239180Y-264920D01*
X236640Y-270000D01*
X239180Y-275080D01*
X234100Y-272540D01*
X229020Y-275080D01*
X129920Y-44780D02*
X132460Y-39700D01*
X129920Y-34620D01*
X135000Y-37160D01*
X140080Y-34620D01*
X137540Y-39700D01*
X140080Y-44780D01*
X135000Y-42240D01*
X129920Y-44780D01*
X484920Y137420D02*
X487460Y142500D01*
X484920Y147580D01*
X490000Y145040D01*
X495080Y147580D01*
X492540Y142500D01*
X495080Y137420D01*
X490000Y139960D01*
X484920Y137420D01*
X181426Y-282580D02*
X183966Y-277500D01*
X181426Y-272420D01*
X186506Y-274960D01*
X191586Y-272420D01*
X189046Y-277500D01*
X191586Y-282580D01*
X186506Y-280040D01*
X181426Y-282580D01*
Y-292580D02*
X183966Y-287500D01*
X181426Y-282420D01*
X186506Y-284960D01*
X191586Y-282420D01*
X189046Y-287500D01*
X191586Y-292580D01*
X186506Y-290040D01*
X181426Y-292580D01*
Y-302772D02*
X183966Y-297692D01*
X181426Y-292612D01*
X186506Y-295152D01*
X191586Y-292612D01*
X189046Y-297692D01*
X191586Y-302772D01*
X186506Y-300232D01*
X181426Y-302772D01*
Y-312580D02*
X183966Y-307500D01*
X181426Y-302420D01*
X186506Y-304960D01*
X191586Y-302420D01*
X189046Y-307500D01*
X191586Y-312580D01*
X186506Y-310040D01*
X181426Y-312580D01*
D43*
X462180Y114650D02*
G03*
X462180Y114650I-5080J0D01*
G01*
X487580Y89250D02*
G03*
X487580Y89250I-5080J0D01*
G01*
X512980Y114650D02*
G03*
X512980Y114650I-5080J0D01*
G01*
M02*
