G04*
G04 #@! TF.GenerationSoftware,Altium Limited,Altium Designer,24.6.1 (21)*
G04*
G04 Layer_Physical_Order=1*
G04 Layer_Color=255*
%FSLAX44Y44*%
%MOMM*%
G71*
G04*
G04 #@! TF.SameCoordinates,B4F3611A-EC35-413B-BF39-3333FE2D459C*
G04*
G04*
G04 #@! TF.FilePolarity,Positive*
G04*
G01*
G75*
G04:AMPARAMS|DCode=17|XSize=0.972mm|YSize=0.802mm|CornerRadius=0mm|HoleSize=0mm|Usage=FLASHONLY|Rotation=135.000|XOffset=0mm|YOffset=0mm|HoleType=Round|Shape=Rectangle|*
%AMROTATEDRECTD17*
4,1,4,0.6272,-0.0601,0.0601,-0.6272,-0.6272,0.0601,-0.0601,0.6272,0.6272,-0.0601,0.0*
%
%ADD17ROTATEDRECTD17*%

%ADD18R,0.9720X0.8020*%
%ADD19R,0.8020X0.9720*%
G04:AMPARAMS|DCode=20|XSize=0.972mm|YSize=0.802mm|CornerRadius=0mm|HoleSize=0mm|Usage=FLASHONLY|Rotation=45.000|XOffset=0mm|YOffset=0mm|HoleType=Round|Shape=Rectangle|*
%AMROTATEDRECTD20*
4,1,4,-0.0601,-0.6272,-0.6272,-0.0601,0.0601,0.6272,0.6272,0.0601,-0.0601,-0.6272,0.0*
%
%ADD20ROTATEDRECTD20*%

%ADD21R,3.2000X1.6000*%
%ADD22R,2.6582X1.2557*%
%ADD24C,2.0000*%
%ADD31C,0.3000*%
%ADD32C,1.5000*%
G04:AMPARAMS|DCode=33|XSize=1.6mm|YSize=1.6mm|CornerRadius=0.4mm|HoleSize=0mm|Usage=FLASHONLY|Rotation=180.000|XOffset=0mm|YOffset=0mm|HoleType=Round|Shape=RoundedRectangle|*
%AMROUNDEDRECTD33*
21,1,1.6000,0.8000,0,0,180.0*
21,1,0.8000,1.6000,0,0,180.0*
1,1,0.8000,-0.4000,0.4000*
1,1,0.8000,0.4000,0.4000*
1,1,0.8000,0.4000,-0.4000*
1,1,0.8000,-0.4000,-0.4000*
%
%ADD33ROUNDEDRECTD33*%
%ADD34C,1.6000*%
%ADD35C,1.2500*%
%ADD36R,1.2500X1.2500*%
%ADD37R,1.5000X1.5000*%
%ADD38C,0.5000*%
G36*
X35329Y599075D02*
X58822Y597226D01*
X82223Y594456D01*
X105498Y590770D01*
X128610Y586172D01*
X151524Y580671D01*
X174204Y574275D01*
X196616Y566993D01*
X218724Y558837D01*
X240496Y549819D01*
X261896Y539953D01*
X282893Y529255D01*
X303453Y517740D01*
X323545Y505428D01*
X343139Y492336D01*
X362203Y478485D01*
X380709Y463896D01*
X398628Y448591D01*
X415933Y432596D01*
X432596Y415933D01*
X448591Y398628D01*
X463896Y380709D01*
X478485Y362203D01*
X492336Y343139D01*
X505428Y323545D01*
X517740Y303453D01*
X529255Y282893D01*
X539953Y261896D01*
X549819Y240496D01*
X558837Y218724D01*
X566993Y196616D01*
X574275Y174204D01*
X580671Y151524D01*
X586172Y128610D01*
X590770Y105498D01*
X594456Y82223D01*
X597226Y58822D01*
X599075Y35329D01*
X600000Y11782D01*
Y-0D01*
Y-11782D01*
X599075Y-35329D01*
X597226Y-58822D01*
X594456Y-82223D01*
X590770Y-105498D01*
X586172Y-128610D01*
X583450Y-139951D01*
X202500D01*
X201525Y-140145D01*
X200698Y-140698D01*
X200145Y-141525D01*
X199951Y-142500D01*
Y-225000D01*
X200145Y-225975D01*
X200698Y-226802D01*
X201525Y-227355D01*
X202500Y-227549D01*
X554038D01*
X554744Y-228605D01*
X549819Y-240496D01*
X539953Y-261896D01*
X529255Y-282893D01*
X517740Y-303453D01*
X505428Y-323545D01*
X492336Y-343139D01*
X478485Y-362203D01*
X463896Y-380709D01*
X448591Y-398628D01*
X432595Y-415933D01*
X415933Y-432596D01*
X398628Y-448591D01*
X380709Y-463896D01*
X362203Y-478485D01*
X343139Y-492336D01*
X323545Y-505428D01*
X303453Y-517740D01*
X282892Y-529255D01*
X261896Y-539953D01*
X240496Y-549819D01*
X218724Y-558837D01*
X196616Y-566993D01*
X174204Y-574275D01*
X151524Y-580671D01*
X128610Y-586172D01*
X105498Y-590770D01*
X82223Y-594456D01*
X58822Y-597226D01*
X35329Y-599075D01*
X11782Y-600000D01*
X-0D01*
X-11783Y-600000D01*
X-35329Y-599075D01*
X-58822Y-597226D01*
X-82223Y-594456D01*
X-105498Y-590770D01*
X-128610Y-586172D01*
X-151524Y-580671D01*
X-174205Y-574275D01*
X-196616Y-566993D01*
X-218724Y-558837D01*
X-240496Y-549819D01*
X-261896Y-539953D01*
X-282893Y-529255D01*
X-303453Y-517741D01*
X-323545Y-505428D01*
X-343139Y-492336D01*
X-362203Y-478485D01*
X-380709Y-463896D01*
X-398628Y-448591D01*
X-415933Y-432596D01*
X-432596Y-415933D01*
X-448591Y-398628D01*
X-463896Y-380709D01*
X-478485Y-362203D01*
X-492336Y-343139D01*
X-505428Y-323545D01*
X-517740Y-303453D01*
X-529255Y-282893D01*
X-539953Y-261896D01*
X-549819Y-240496D01*
X-558837Y-218724D01*
X-566993Y-196616D01*
X-574275Y-174205D01*
X-580671Y-151524D01*
X-586172Y-128610D01*
X-590770Y-105498D01*
X-594456Y-82223D01*
X-597226Y-58822D01*
X-599075Y-35329D01*
X-600000Y-11783D01*
X-600000Y-0D01*
X-600000Y11782D01*
X-599075Y35329D01*
X-597226Y58822D01*
X-594456Y82223D01*
X-590770Y105498D01*
X-586173Y128610D01*
X-580671Y151524D01*
X-574275Y174204D01*
X-566993Y196616D01*
X-558837Y218724D01*
X-549819Y240496D01*
X-539953Y261896D01*
X-529255Y282892D01*
X-517741Y303453D01*
X-505428Y323545D01*
X-492336Y343139D01*
X-478485Y362203D01*
X-463896Y380709D01*
X-448591Y398628D01*
X-432596Y415933D01*
X-415933Y432595D01*
X-398628Y448591D01*
X-380709Y463896D01*
X-362203Y478485D01*
X-343139Y492336D01*
X-323545Y505428D01*
X-303453Y517740D01*
X-282893Y529255D01*
X-261896Y539953D01*
X-240496Y549819D01*
X-218724Y558837D01*
X-196616Y566993D01*
X-174204Y574275D01*
X-151524Y580671D01*
X-128610Y586172D01*
X-105498Y590770D01*
X-82223Y594456D01*
X-58822Y597226D01*
X-35329Y599075D01*
X-11782Y600000D01*
X-0Y600000D01*
X11782Y600000D01*
X35329Y599075D01*
D02*
G37*
%LPC*%
G36*
X62046Y573834D02*
X58754D01*
X55575Y572982D01*
X52725Y571336D01*
X50398Y569009D01*
X48752Y566158D01*
X48357Y564686D01*
X47043D01*
X46648Y566158D01*
X45002Y569009D01*
X42675Y571336D01*
X39825Y572982D01*
X36646Y573834D01*
X33354D01*
X30175Y572982D01*
X27325Y571336D01*
X24997Y569009D01*
X23352Y566158D01*
X22500Y562979D01*
Y559688D01*
X23032Y557702D01*
X23047Y557647D01*
X21842Y557238D01*
X21809Y557316D01*
X20433Y560639D01*
X20294Y560847D01*
X20198Y561079D01*
X17965Y564420D01*
X17788Y564598D01*
X17648Y564807D01*
X14807Y567648D01*
X14598Y567788D01*
X14420Y567965D01*
X11079Y570198D01*
X10847Y570294D01*
X10639Y570433D01*
X6926Y571971D01*
X6680Y572020D01*
X6448Y572116D01*
X2506Y572900D01*
X2255D01*
X2009Y572949D01*
X-2009D01*
X-2255Y572900D01*
X-2506D01*
X-6448Y572116D01*
X-6680Y572020D01*
X-6926Y571971D01*
X-10639Y570433D01*
X-10847Y570294D01*
X-11079Y570198D01*
X-14420Y567965D01*
X-14598Y567788D01*
X-14807Y567648D01*
X-17648Y564807D01*
X-17788Y564598D01*
X-17965Y564420D01*
X-20198Y561079D01*
X-20294Y560847D01*
X-20433Y560639D01*
X-21971Y556926D01*
X-22020Y556680D01*
X-22116Y556448D01*
X-22900Y552506D01*
Y552255D01*
X-22949Y552009D01*
Y547991D01*
X-22900Y547745D01*
Y547494D01*
X-22116Y543552D01*
X-22020Y543320D01*
X-21971Y543074D01*
X-20433Y539361D01*
X-20294Y539153D01*
X-20198Y538921D01*
X-17965Y535580D01*
X-17788Y535402D01*
X-17648Y535193D01*
X-14807Y532352D01*
X-14598Y532212D01*
X-14420Y532035D01*
X-11079Y529802D01*
X-10847Y529706D01*
X-10639Y529567D01*
X-6926Y528029D01*
X-6680Y527980D01*
X-6448Y527884D01*
X-2506Y527100D01*
X-2255D01*
X-2009Y527051D01*
X2009D01*
X2255Y527100D01*
X2506D01*
X6448Y527884D01*
X6680Y527980D01*
X6926Y528029D01*
X10639Y529567D01*
X10847Y529706D01*
X11079Y529802D01*
X14420Y532035D01*
X14598Y532212D01*
X14807Y532352D01*
X17648Y535193D01*
X17788Y535402D01*
X17965Y535580D01*
X20198Y538921D01*
X20294Y539153D01*
X20433Y539361D01*
X21971Y543074D01*
X22020Y543320D01*
X22116Y543552D01*
X22900Y547494D01*
Y547745D01*
X22949Y547991D01*
Y552009D01*
X22900Y552255D01*
Y552506D01*
X22197Y556039D01*
X22185Y556102D01*
X23352Y556509D01*
X23400Y556426D01*
X24997Y553658D01*
X27325Y551331D01*
X30175Y549686D01*
X33354Y548834D01*
X36646D01*
X39825Y549686D01*
X42675Y551331D01*
X45002Y553658D01*
X46648Y556509D01*
X47043Y557981D01*
X48357D01*
X48752Y556509D01*
X50398Y553658D01*
X52725Y551331D01*
X55575Y549686D01*
X56322Y549485D01*
Y539258D01*
X56322Y539257D01*
X56632Y537697D01*
X57516Y536373D01*
X59274Y534616D01*
X59274Y534616D01*
X60597Y533732D01*
X62157Y533422D01*
X62158Y533422D01*
X101190D01*
Y521490D01*
X114210D01*
Y533422D01*
X118643D01*
X118643Y533422D01*
X120203Y533732D01*
X121526Y534616D01*
X123284Y536373D01*
X123284Y536373D01*
X124168Y537697D01*
X124478Y539257D01*
X124478Y539258D01*
Y547141D01*
X126540Y548332D01*
X128402Y550193D01*
X129719Y552474D01*
X130400Y555017D01*
Y557650D01*
X129719Y560193D01*
X128402Y562474D01*
X126540Y564336D01*
X124260Y565652D01*
X121716Y566334D01*
X119083D01*
X116540Y565652D01*
X114260Y564336D01*
X112398Y562474D01*
X111081Y560193D01*
X110400Y557650D01*
Y555017D01*
X111081Y552474D01*
X112398Y550193D01*
X114260Y548332D01*
X116322Y547141D01*
Y541578D01*
X109458D01*
X109457Y541578D01*
X107897Y541268D01*
X107700Y541137D01*
X107503Y541268D01*
X105943Y541578D01*
X105942Y541578D01*
X64478D01*
Y549485D01*
X65225Y549686D01*
X68075Y551331D01*
X70402Y553658D01*
X72048Y556509D01*
X72900Y559688D01*
Y562979D01*
X72048Y566158D01*
X70402Y569009D01*
X68075Y571336D01*
X65225Y572982D01*
X62046Y573834D01*
D02*
G37*
G36*
X96316Y566334D02*
X93684D01*
X91140Y565652D01*
X88860Y564336D01*
X86998Y562474D01*
X85681Y560193D01*
X85000Y557650D01*
Y555017D01*
X85681Y552474D01*
X86998Y550193D01*
X88860Y548332D01*
X91140Y547015D01*
X93684Y546334D01*
X96316D01*
X98860Y547015D01*
X101140Y548332D01*
X103002Y550193D01*
X104319Y552474D01*
X105000Y555017D01*
Y557650D01*
X104319Y560193D01*
X103002Y562474D01*
X101140Y564336D01*
X98860Y565652D01*
X96316Y566334D01*
D02*
G37*
G36*
X123750Y518550D02*
X118470D01*
Y512420D01*
X123750D01*
Y518550D01*
D02*
G37*
G36*
X115930D02*
X110650D01*
Y512420D01*
X115930D01*
Y518550D01*
D02*
G37*
G36*
X123750Y509880D02*
X118470D01*
Y503750D01*
X123750D01*
Y509880D01*
D02*
G37*
G36*
X115930D02*
X110650D01*
Y503750D01*
X115930D01*
Y509880D01*
D02*
G37*
G36*
X-323684Y470000D02*
X-326316D01*
X-328860Y469319D01*
X-331140Y468002D01*
X-333002Y466140D01*
X-334319Y463860D01*
X-335000Y461316D01*
Y458684D01*
X-334319Y456140D01*
X-333002Y453860D01*
X-331140Y451998D01*
X-328860Y450681D01*
X-326316Y450000D01*
X-323684D01*
X-321140Y450681D01*
X-318860Y451998D01*
X-316998Y453860D01*
X-315681Y456140D01*
X-315000Y458684D01*
Y461316D01*
X-315681Y463860D01*
X-316998Y466140D01*
X-318860Y468002D01*
X-321140Y469319D01*
X-323684Y470000D01*
D02*
G37*
G36*
X-277166Y453299D02*
X-280900Y449566D01*
X-276565Y445231D01*
X-272831Y448965D01*
X-277166Y453299D01*
D02*
G37*
G36*
X-282696Y447770D02*
X-286429Y444036D01*
X-282094Y439701D01*
X-278361Y443435D01*
X-282696Y447770D01*
D02*
G37*
G36*
X-271035Y447169D02*
X-274769Y443435D01*
X-270434Y439100D01*
X-266701Y442834D01*
X-271035Y447169D01*
D02*
G37*
G36*
X-276565Y441639D02*
X-280299Y437906D01*
X-275964Y433571D01*
X-272230Y437304D01*
X-276565Y441639D01*
D02*
G37*
G36*
X-305723Y487961D02*
X-308356D01*
X-310899Y487279D01*
X-313180Y485962D01*
X-315042Y484101D01*
X-316358Y481820D01*
X-317039Y479277D01*
Y476644D01*
X-316358Y474101D01*
X-315042Y471820D01*
X-313180Y469958D01*
X-310899Y468642D01*
X-308356Y467961D01*
X-305723D01*
X-303423Y468577D01*
X-299057Y464211D01*
X-303674Y459594D01*
X-304558Y458271D01*
X-304612Y457998D01*
X-304640Y457993D01*
X-305963Y457109D01*
X-305963Y457109D01*
X-335744Y427328D01*
X-342706Y434291D01*
X-342313Y434972D01*
X-341461Y438151D01*
Y441443D01*
X-342313Y444622D01*
X-343959Y447472D01*
X-346286Y449799D01*
X-349136Y451445D01*
X-352316Y452297D01*
X-355607D01*
X-358786Y451445D01*
X-361636Y449799D01*
X-363964Y447472D01*
X-365609Y444622D01*
X-366461Y441443D01*
Y438151D01*
X-365609Y434972D01*
X-364847Y433652D01*
X-365777Y432723D01*
X-367097Y433485D01*
X-370276Y434336D01*
X-373567D01*
X-376747Y433485D01*
X-379597Y431839D01*
X-381924Y429512D01*
X-383570Y426661D01*
X-384422Y423482D01*
Y420191D01*
X-383570Y417012D01*
X-381924Y414161D01*
X-379597Y411834D01*
X-380299Y410821D01*
X-383074Y411971D01*
X-383320Y412020D01*
X-383552Y412116D01*
X-387494Y412900D01*
X-387745D01*
X-387991Y412949D01*
X-392009D01*
X-392255Y412900D01*
X-392506D01*
X-396448Y412116D01*
X-396680Y412020D01*
X-396926Y411971D01*
X-400639Y410433D01*
X-400847Y410294D01*
X-401079Y410198D01*
X-404420Y407965D01*
X-404598Y407788D01*
X-404807Y407648D01*
X-407648Y404807D01*
X-407788Y404598D01*
X-407965Y404420D01*
X-410198Y401079D01*
X-410294Y400847D01*
X-410433Y400639D01*
X-411971Y396926D01*
X-412020Y396680D01*
X-412116Y396448D01*
X-412900Y392506D01*
Y392255D01*
X-412949Y392009D01*
Y387991D01*
X-412900Y387745D01*
Y387494D01*
X-412116Y383552D01*
X-412020Y383320D01*
X-411971Y383074D01*
X-410433Y379361D01*
X-410294Y379153D01*
X-410198Y378921D01*
X-407965Y375580D01*
X-407788Y375402D01*
X-407648Y375193D01*
X-404807Y372352D01*
X-404598Y372212D01*
X-404420Y372035D01*
X-401079Y369802D01*
X-400847Y369706D01*
X-400639Y369567D01*
X-396926Y368029D01*
X-396680Y367980D01*
X-396448Y367884D01*
X-392506Y367100D01*
X-392255D01*
X-392009Y367051D01*
X-387991D01*
X-387745Y367100D01*
X-387494D01*
X-383552Y367884D01*
X-383320Y367980D01*
X-383074Y368029D01*
X-379361Y369567D01*
X-379153Y369706D01*
X-378921Y369802D01*
X-375580Y372035D01*
X-375402Y372212D01*
X-375193Y372352D01*
X-372352Y375193D01*
X-372212Y375402D01*
X-372035Y375580D01*
X-369802Y378921D01*
X-369706Y379153D01*
X-369567Y379361D01*
X-368029Y383074D01*
X-367980Y383320D01*
X-367884Y383552D01*
X-367100Y387494D01*
Y387745D01*
X-367051Y387991D01*
Y392009D01*
X-367100Y392255D01*
Y392506D01*
X-367884Y396448D01*
X-367980Y396680D01*
X-368029Y396926D01*
X-369567Y400639D01*
X-369706Y400847D01*
X-369802Y401079D01*
X-372035Y404420D01*
X-372212Y404598D01*
X-372352Y404807D01*
X-375193Y407648D01*
X-375402Y407788D01*
X-375580Y407965D01*
X-377068Y408960D01*
X-376537Y410132D01*
X-373567Y409336D01*
X-370276D01*
X-367097Y410188D01*
X-364247Y411834D01*
X-361919Y414161D01*
X-360274Y417012D01*
X-359422Y420191D01*
Y423482D01*
X-360274Y426661D01*
X-361036Y427981D01*
X-360106Y428911D01*
X-358786Y428149D01*
X-355607Y427297D01*
X-352316D01*
X-349136Y428149D01*
X-348479Y428528D01*
X-339870Y419919D01*
X-339870Y419919D01*
X-338547Y419035D01*
X-336986Y418725D01*
X-336986Y418725D01*
X-334501D01*
X-334501Y418725D01*
X-332940Y419035D01*
X-331617Y419919D01*
X-303654Y447882D01*
X-295197Y439426D01*
X-285991Y448632D01*
X-294545Y457187D01*
X-291435Y460298D01*
X-290551Y461621D01*
X-290240Y463181D01*
X-290240Y463182D01*
Y465239D01*
X-290240Y465239D01*
X-290551Y466800D01*
X-291435Y468123D01*
X-297656Y474344D01*
X-297040Y476644D01*
Y479277D01*
X-297721Y481820D01*
X-299037Y484101D01*
X-300899Y485962D01*
X-303180Y487279D01*
X-305723Y487961D01*
D02*
G37*
G36*
X392009Y412949D02*
X387991D01*
X387745Y412900D01*
X387494D01*
X383552Y412116D01*
X383320Y412020D01*
X383074Y411971D01*
X379361Y410433D01*
X379153Y410294D01*
X378921Y410198D01*
X375580Y407965D01*
X375402Y407788D01*
X375193Y407648D01*
X372352Y404807D01*
X372212Y404598D01*
X372035Y404420D01*
X369802Y401079D01*
X369706Y400847D01*
X369567Y400639D01*
X368029Y396926D01*
X367980Y396680D01*
X367884Y396448D01*
X367100Y392506D01*
Y392255D01*
X367051Y392009D01*
Y387991D01*
X367100Y387745D01*
Y387494D01*
X367884Y383552D01*
X367980Y383320D01*
X368029Y383074D01*
X369567Y379361D01*
X369706Y379153D01*
X369802Y378921D01*
X372035Y375580D01*
X372212Y375402D01*
X372352Y375193D01*
X375193Y372352D01*
X375402Y372212D01*
X375580Y372035D01*
X378921Y369802D01*
X379153Y369706D01*
X379361Y369567D01*
X383074Y368029D01*
X383320Y367980D01*
X383552Y367884D01*
X387494Y367100D01*
X387745D01*
X387991Y367051D01*
X392009D01*
X392255Y367100D01*
X392506D01*
X396448Y367884D01*
X396680Y367980D01*
X396926Y368029D01*
X400639Y369567D01*
X400847Y369706D01*
X401079Y369802D01*
X404420Y372035D01*
X404598Y372212D01*
X404807Y372352D01*
X407648Y375193D01*
X407788Y375402D01*
X407965Y375580D01*
X410198Y378921D01*
X410294Y379153D01*
X410433Y379361D01*
X411971Y383074D01*
X412020Y383320D01*
X412116Y383552D01*
X412900Y387494D01*
Y387745D01*
X412949Y387991D01*
Y392009D01*
X412900Y392255D01*
Y392506D01*
X412116Y396448D01*
X412020Y396680D01*
X411971Y396926D01*
X410433Y400639D01*
X410294Y400847D01*
X410198Y401079D01*
X407965Y404420D01*
X407788Y404598D01*
X407648Y404807D01*
X404807Y407648D01*
X404598Y407788D01*
X404420Y407965D01*
X401079Y410198D01*
X400847Y410294D01*
X400639Y410433D01*
X396926Y411971D01*
X396680Y412020D01*
X396448Y412116D01*
X392506Y412900D01*
X392255D01*
X392009Y412949D01*
D02*
G37*
G36*
X422665Y381480D02*
X419374D01*
X416195Y380628D01*
X413345Y378983D01*
X411017Y376655D01*
X409372Y373805D01*
X408520Y370626D01*
Y367335D01*
X409372Y364155D01*
X411017Y361305D01*
X413345Y358978D01*
X416195Y357332D01*
X419374Y356480D01*
X422665D01*
X425845Y357332D01*
X427164Y358094D01*
X428094Y357164D01*
X427332Y355845D01*
X426480Y352665D01*
Y349374D01*
X427332Y346195D01*
X427719Y345526D01*
X422116Y339923D01*
X421232Y338600D01*
X420922Y337039D01*
X420922Y337039D01*
Y333792D01*
X420922Y333792D01*
X421232Y332231D01*
X422116Y330908D01*
X450191Y302833D01*
X440991Y293632D01*
X450197Y284426D01*
X459151Y293379D01*
X461782Y290748D01*
X463105Y289863D01*
X464666Y289553D01*
X464666Y289553D01*
X467151D01*
X467151Y289553D01*
X468712Y289863D01*
X470035Y290748D01*
X474904Y295616D01*
X477203Y295000D01*
X479836D01*
X482380Y295681D01*
X484660Y296998D01*
X486522Y298860D01*
X487838Y301140D01*
X488520Y303683D01*
Y306317D01*
X487838Y308860D01*
X486522Y311140D01*
X484660Y313002D01*
X482380Y314319D01*
X479836Y315000D01*
X477203D01*
X474660Y314319D01*
X472380Y313002D01*
X470518Y311140D01*
X469201Y308860D01*
X468520Y306317D01*
Y303683D01*
X469136Y301384D01*
X465909Y298157D01*
X461558Y302507D01*
X460234Y303391D01*
X460105Y303417D01*
X459957Y304164D01*
X459072Y305487D01*
X459072Y305487D01*
X429144Y335416D01*
X433486Y339758D01*
X434155Y339372D01*
X437335Y338520D01*
X440626D01*
X443805Y339372D01*
X446655Y341017D01*
X448983Y343345D01*
X450628Y346195D01*
X451480Y349374D01*
Y352665D01*
X450628Y355845D01*
X448983Y358695D01*
X446655Y361022D01*
X443805Y362668D01*
X440626Y363520D01*
X437335D01*
X434155Y362668D01*
X432836Y361906D01*
X431906Y362836D01*
X432668Y364155D01*
X433520Y367335D01*
Y370626D01*
X432668Y373805D01*
X431022Y376655D01*
X428695Y378983D01*
X425845Y380628D01*
X422665Y381480D01*
D02*
G37*
G36*
X461876Y332960D02*
X459243D01*
X456699Y332279D01*
X454419Y330962D01*
X452557Y329101D01*
X451241Y326820D01*
X450559Y324277D01*
Y321644D01*
X451241Y319101D01*
X452557Y316820D01*
X454419Y314958D01*
X456699Y313642D01*
X459243Y312960D01*
X461876D01*
X464419Y313642D01*
X466699Y314958D01*
X468561Y316820D01*
X469878Y319101D01*
X470559Y321644D01*
Y324277D01*
X469878Y326820D01*
X468561Y329101D01*
X466699Y330962D01*
X464419Y332279D01*
X461876Y332960D01*
D02*
G37*
G36*
X445601Y284864D02*
X441267Y280530D01*
X445000Y276796D01*
X449335Y281131D01*
X445601Y284864D01*
D02*
G37*
G36*
X451131Y279335D02*
X446796Y275000D01*
X450530Y271266D01*
X454864Y275601D01*
X451131Y279335D01*
D02*
G37*
G36*
X439470Y278734D02*
X435136Y274399D01*
X438869Y270665D01*
X443204Y275000D01*
X439470Y278734D01*
D02*
G37*
G36*
X445000Y273204D02*
X440665Y268869D01*
X444399Y265136D01*
X448733Y269470D01*
X445000Y273204D01*
D02*
G37*
G36*
X458252Y123400D02*
X455948D01*
X453723Y122804D01*
X451727Y121652D01*
X450098Y120023D01*
X449351Y118728D01*
X440791D01*
Y123254D01*
X409209D01*
Y105696D01*
X420922D01*
Y75500D01*
X406500D01*
Y54500D01*
X443500D01*
Y75500D01*
X429078D01*
Y105696D01*
X440791D01*
Y110572D01*
X449351D01*
X450098Y109277D01*
X451727Y107648D01*
X453723Y106496D01*
X455948Y105900D01*
X458252D01*
X460477Y106496D01*
X462473Y107648D01*
X464102Y109277D01*
X465254Y111273D01*
X465850Y113498D01*
Y115802D01*
X465254Y118027D01*
X464102Y120023D01*
X462473Y121652D01*
X460477Y122804D01*
X458252Y123400D01*
D02*
G37*
G36*
X-500100Y123050D02*
X-506230D01*
Y117770D01*
X-500100D01*
Y123050D01*
D02*
G37*
G36*
X-508770D02*
X-514900D01*
Y117770D01*
X-508770D01*
Y123050D01*
D02*
G37*
G36*
X-500100Y115230D02*
X-506230D01*
Y109950D01*
X-500100D01*
Y115230D01*
D02*
G37*
G36*
X-508770D02*
X-514900D01*
Y109950D01*
X-508770D01*
Y115230D01*
D02*
G37*
G36*
X440791Y151279D02*
X409209D01*
Y133721D01*
X440791D01*
Y138422D01*
X487007D01*
X487168Y138261D01*
X489005Y137500D01*
X489232D01*
X490445Y136288D01*
Y95412D01*
X489175Y94950D01*
X487873Y96252D01*
X485877Y97404D01*
X483652Y98000D01*
X481348D01*
X479123Y97404D01*
X477127Y96252D01*
X475498Y94623D01*
X474346Y92627D01*
X473750Y90402D01*
Y88098D01*
X474346Y85873D01*
X475498Y83877D01*
X477127Y82248D01*
X479123Y81096D01*
X481348Y80500D01*
X483652D01*
X485877Y81096D01*
X487873Y82248D01*
X489175Y83550D01*
X490445Y83088D01*
Y11654D01*
X490445Y11654D01*
X490755Y10093D01*
X491639Y8770D01*
X538293Y-37884D01*
X539617Y-38768D01*
X541177Y-39078D01*
X541177Y-39078D01*
X549485D01*
X549686Y-39825D01*
X551331Y-42675D01*
X553658Y-45002D01*
X556509Y-46648D01*
X557981Y-47043D01*
Y-48357D01*
X556509Y-48752D01*
X553658Y-50398D01*
X551331Y-52725D01*
X549686Y-55575D01*
X549485Y-56322D01*
X537332D01*
X537332Y-56322D01*
X535772Y-56632D01*
X534449Y-57516D01*
X534449Y-57516D01*
X532691Y-59274D01*
X531807Y-60597D01*
X531497Y-62157D01*
X531497Y-62158D01*
Y-100990D01*
X518990D01*
Y-114010D01*
X530922D01*
Y-118243D01*
X530922Y-118243D01*
X531232Y-119803D01*
X532116Y-121126D01*
X533873Y-122884D01*
X533873Y-122884D01*
X535197Y-123768D01*
X536757Y-124078D01*
X536758Y-124078D01*
X545808D01*
X546998Y-126140D01*
X548860Y-128002D01*
X551140Y-129319D01*
X553683Y-130000D01*
X556316D01*
X558860Y-129319D01*
X561140Y-128002D01*
X563002Y-126140D01*
X564319Y-123860D01*
X565000Y-121317D01*
Y-118684D01*
X564319Y-116140D01*
X563002Y-113860D01*
X561140Y-111998D01*
X558860Y-110681D01*
X556316Y-110000D01*
X553683D01*
X551140Y-110681D01*
X548860Y-111998D01*
X546998Y-113860D01*
X545808Y-115922D01*
X539078D01*
Y-109257D01*
X539078Y-109257D01*
X538768Y-107697D01*
X538732Y-107643D01*
X539343Y-106728D01*
X539653Y-105168D01*
X539653Y-105168D01*
Y-64478D01*
X549485D01*
X549686Y-65225D01*
X551331Y-68075D01*
X553658Y-70402D01*
X556509Y-72048D01*
X559688Y-72900D01*
X562979D01*
X566158Y-72048D01*
X569009Y-70402D01*
X571336Y-68075D01*
X572982Y-65225D01*
X573834Y-62046D01*
Y-58754D01*
X572982Y-55575D01*
X571336Y-52725D01*
X569009Y-50398D01*
X566158Y-48752D01*
X564686Y-48357D01*
Y-47043D01*
X566158Y-46648D01*
X569009Y-45002D01*
X571336Y-42675D01*
X572982Y-39825D01*
X573834Y-36646D01*
Y-33354D01*
X572982Y-30175D01*
X571336Y-27325D01*
X569009Y-24997D01*
X566158Y-23352D01*
X562979Y-22500D01*
X559688D01*
X557702Y-23032D01*
X557648Y-23047D01*
X557239Y-21842D01*
X557316Y-21809D01*
X560639Y-20433D01*
X560847Y-20294D01*
X561079Y-20198D01*
X564420Y-17965D01*
X564598Y-17788D01*
X564807Y-17648D01*
X567648Y-14807D01*
X567788Y-14598D01*
X567965Y-14420D01*
X570198Y-11079D01*
X570294Y-10847D01*
X570433Y-10639D01*
X571971Y-6926D01*
X572020Y-6680D01*
X572116Y-6448D01*
X572900Y-2506D01*
Y-2255D01*
X572949Y-2009D01*
Y2009D01*
X572900Y2255D01*
Y2506D01*
X572116Y6448D01*
X572020Y6680D01*
X571971Y6926D01*
X570433Y10639D01*
X570294Y10847D01*
X570198Y11079D01*
X567965Y14420D01*
X567788Y14598D01*
X567648Y14807D01*
X564807Y17648D01*
X564598Y17788D01*
X564420Y17965D01*
X561079Y20198D01*
X560847Y20294D01*
X560639Y20433D01*
X556926Y21971D01*
X556680Y22020D01*
X556448Y22116D01*
X552506Y22900D01*
X552255D01*
X552009Y22949D01*
X547991D01*
X547745Y22900D01*
X547494D01*
X543552Y22116D01*
X543320Y22020D01*
X543074Y21971D01*
X539361Y20433D01*
X539153Y20294D01*
X538921Y20198D01*
X535580Y17965D01*
X535402Y17788D01*
X535193Y17648D01*
X532352Y14807D01*
X532212Y14598D01*
X532035Y14420D01*
X529802Y11079D01*
X529706Y10847D01*
X529567Y10639D01*
X528029Y6926D01*
X527980Y6680D01*
X527884Y6448D01*
X527100Y2506D01*
Y2255D01*
X527051Y2009D01*
Y-2009D01*
X527100Y-2255D01*
Y-2506D01*
X527884Y-6448D01*
X527980Y-6680D01*
X528029Y-6926D01*
X529567Y-10639D01*
X529706Y-10847D01*
X529802Y-11079D01*
X532035Y-14420D01*
X532212Y-14598D01*
X532352Y-14807D01*
X535193Y-17648D01*
X535402Y-17788D01*
X535580Y-17965D01*
X538921Y-20198D01*
X539153Y-20294D01*
X539361Y-20433D01*
X543074Y-21971D01*
X543320Y-22020D01*
X543552Y-22116D01*
X547494Y-22900D01*
X547745D01*
X547991Y-22949D01*
X552009D01*
X552255Y-22900D01*
X552506D01*
X556039Y-22197D01*
X556102Y-22185D01*
X556509Y-23352D01*
X556426Y-23400D01*
X553658Y-24997D01*
X551331Y-27325D01*
X549686Y-30175D01*
X549485Y-30922D01*
X542867D01*
X498601Y13344D01*
Y104857D01*
X499150Y105900D01*
X499871Y105900D01*
X516650D01*
Y123400D01*
X499871D01*
X499150Y123400D01*
X498601Y124443D01*
Y137977D01*
X498601Y137977D01*
X498291Y139538D01*
X497407Y140861D01*
X497407Y140861D01*
X495000Y143268D01*
Y143495D01*
X494239Y145332D01*
X492832Y146739D01*
X490995Y147500D01*
X489005D01*
X487168Y146739D01*
X487007Y146578D01*
X440791D01*
Y151279D01*
D02*
G37*
G36*
X-551184Y104600D02*
X-553816D01*
X-556360Y103919D01*
X-558640Y102602D01*
X-560502Y100740D01*
X-561819Y98460D01*
X-562500Y95917D01*
Y93284D01*
X-561819Y90740D01*
X-560502Y88460D01*
X-558640Y86598D01*
X-556360Y85281D01*
X-553816Y84600D01*
X-551184D01*
X-548640Y85281D01*
X-546360Y86598D01*
X-544498Y88460D01*
X-543181Y90740D01*
X-542500Y93284D01*
Y95917D01*
X-543181Y98460D01*
X-544498Y100740D01*
X-546360Y102602D01*
X-548640Y103919D01*
X-551184Y104600D01*
D02*
G37*
G36*
X39416Y98900D02*
X36783D01*
X34240Y98218D01*
X31960Y96902D01*
X30098Y95040D01*
X28781Y92760D01*
X28100Y90217D01*
Y87584D01*
X28781Y85040D01*
X30098Y82760D01*
X31960Y80898D01*
X34240Y79581D01*
X36783Y78900D01*
X39416D01*
X41960Y79581D01*
X44240Y80898D01*
X46102Y82760D01*
X47418Y85040D01*
X48100Y87584D01*
Y90217D01*
X47418Y92760D01*
X46102Y95040D01*
X44240Y96902D01*
X41960Y98218D01*
X39416Y98900D01*
D02*
G37*
G36*
X-500140Y104010D02*
X-514860D01*
Y90990D01*
X-500140D01*
Y93422D01*
X-65289D01*
X-57884Y86016D01*
X-57884Y86016D01*
X-56561Y85132D01*
X-55000Y84822D01*
X-55000Y84822D01*
X-47292D01*
X-46102Y82760D01*
X-44240Y80898D01*
X-41960Y79581D01*
X-39416Y78900D01*
X-36783D01*
X-34240Y79581D01*
X-31960Y80898D01*
X-30098Y82760D01*
X-28781Y85040D01*
X-28100Y87584D01*
Y90217D01*
X-28781Y92760D01*
X-30098Y95040D01*
X-31960Y96902D01*
X-34240Y98218D01*
X-36783Y98900D01*
X-39416D01*
X-41960Y98218D01*
X-44240Y96902D01*
X-46102Y95040D01*
X-47292Y92978D01*
X-53311D01*
X-60716Y100384D01*
X-62039Y101268D01*
X-63600Y101578D01*
X-63600Y101578D01*
X-500140D01*
Y104010D01*
D02*
G37*
G36*
X-36783Y73500D02*
X-39416D01*
X-41960Y72818D01*
X-44240Y71502D01*
X-46102Y69640D01*
X-47292Y67578D01*
X-75565D01*
X-75565Y67578D01*
X-77126Y67268D01*
X-78449Y66384D01*
X-78449Y66384D01*
X-427204Y-282372D01*
X-428924Y-280652D01*
X-439332Y-291061D01*
X-430126Y-300267D01*
X-419717Y-289859D01*
X-421437Y-288139D01*
X-73876Y59422D01*
X-47292D01*
X-46102Y57360D01*
X-44240Y55498D01*
X-41960Y54181D01*
X-39416Y53500D01*
X-36783D01*
X-34240Y54181D01*
X-31960Y55498D01*
X-30098Y57360D01*
X-28781Y59640D01*
X-28100Y62183D01*
Y64816D01*
X-28781Y67360D01*
X-30098Y69640D01*
X-31960Y71502D01*
X-34240Y72818D01*
X-36783Y73500D01*
D02*
G37*
G36*
X393540Y75540D02*
X376270D01*
Y66270D01*
X393540D01*
Y75540D01*
D02*
G37*
G36*
X373730D02*
X356460D01*
Y66270D01*
X373730D01*
Y75540D01*
D02*
G37*
G36*
X-551184Y130000D02*
X-553816D01*
X-556360Y129319D01*
X-558640Y128002D01*
X-560502Y126140D01*
X-561819Y123860D01*
X-562500Y121316D01*
Y118684D01*
X-561819Y116140D01*
X-560502Y113860D01*
X-558640Y111998D01*
X-556360Y110681D01*
X-553816Y110000D01*
X-551184D01*
X-548640Y110681D01*
X-546360Y111998D01*
X-544498Y113860D01*
X-543308Y115922D01*
X-538336D01*
Y108757D01*
X-538336Y108757D01*
X-538025Y107197D01*
X-537894Y107000D01*
X-538025Y106803D01*
X-538336Y105243D01*
X-538336Y105243D01*
Y64478D01*
X-547815D01*
X-548015Y65225D01*
X-549660Y68075D01*
X-551988Y70402D01*
X-554838Y72048D01*
X-558017Y72900D01*
X-561309D01*
X-564488Y72048D01*
X-567338Y70402D01*
X-569665Y68075D01*
X-571311Y65225D01*
X-572163Y62046D01*
Y58754D01*
X-571311Y55575D01*
X-569665Y52725D01*
X-567338Y50398D01*
X-564488Y48752D01*
X-563016Y48357D01*
Y47043D01*
X-564488Y46648D01*
X-567338Y45002D01*
X-569665Y42675D01*
X-571311Y39825D01*
X-572163Y36646D01*
Y33354D01*
X-571311Y30175D01*
X-569665Y27325D01*
X-567338Y24997D01*
X-564488Y23352D01*
X-561309Y22500D01*
X-558967D01*
X-558715Y21230D01*
X-560639Y20433D01*
X-560847Y20294D01*
X-561079Y20198D01*
X-564420Y17965D01*
X-564598Y17788D01*
X-564807Y17648D01*
X-567648Y14807D01*
X-567788Y14598D01*
X-567965Y14420D01*
X-570198Y11079D01*
X-570294Y10847D01*
X-570433Y10639D01*
X-571971Y6926D01*
X-572020Y6680D01*
X-572116Y6448D01*
X-572900Y2506D01*
Y2255D01*
X-572949Y2009D01*
Y-2009D01*
X-572900Y-2255D01*
Y-2506D01*
X-572116Y-6448D01*
X-572020Y-6680D01*
X-571971Y-6926D01*
X-570433Y-10639D01*
X-570294Y-10847D01*
X-570198Y-11079D01*
X-567965Y-14420D01*
X-567788Y-14598D01*
X-567648Y-14807D01*
X-564807Y-17648D01*
X-564598Y-17788D01*
X-564420Y-17965D01*
X-561079Y-20198D01*
X-560847Y-20294D01*
X-560639Y-20433D01*
X-556926Y-21971D01*
X-556680Y-22020D01*
X-556448Y-22116D01*
X-552506Y-22900D01*
X-552255D01*
X-552009Y-22949D01*
X-547991D01*
X-547745Y-22900D01*
X-547494D01*
X-543552Y-22116D01*
X-543320Y-22020D01*
X-543074Y-21971D01*
X-539361Y-20433D01*
X-539153Y-20294D01*
X-538921Y-20198D01*
X-535580Y-17965D01*
X-535402Y-17788D01*
X-535193Y-17648D01*
X-532352Y-14807D01*
X-532212Y-14598D01*
X-532035Y-14420D01*
X-529802Y-11079D01*
X-529706Y-10847D01*
X-529567Y-10639D01*
X-528029Y-6926D01*
X-527980Y-6680D01*
X-527884Y-6448D01*
X-527100Y-2506D01*
Y-2255D01*
X-527051Y-2009D01*
Y2009D01*
X-527100Y2255D01*
Y2506D01*
X-527884Y6448D01*
X-527980Y6680D01*
X-528029Y6926D01*
X-529567Y10639D01*
X-529706Y10847D01*
X-529802Y11079D01*
X-532035Y14420D01*
X-532212Y14598D01*
X-532352Y14807D01*
X-535193Y17648D01*
X-535402Y17788D01*
X-535580Y17965D01*
X-538921Y20198D01*
X-539153Y20294D01*
X-539361Y20433D01*
X-543074Y21971D01*
X-543320Y22020D01*
X-543552Y22116D01*
X-547494Y22900D01*
X-547745D01*
X-547991Y22949D01*
X-552009D01*
X-552255Y22900D01*
X-552506D01*
X-553383Y22726D01*
X-553836Y23930D01*
X-551988Y24997D01*
X-549660Y27325D01*
X-548015Y30175D01*
X-547163Y33354D01*
Y36646D01*
X-548015Y39825D01*
X-549660Y42675D01*
X-551988Y45002D01*
X-554838Y46648D01*
X-556310Y47043D01*
Y48357D01*
X-554838Y48752D01*
X-551988Y50398D01*
X-549660Y52725D01*
X-548015Y55575D01*
X-547815Y56322D01*
X-536551D01*
X-536551Y56322D01*
X-534990Y56632D01*
X-533667Y57516D01*
X-531374Y59809D01*
X-531373Y59810D01*
X-530490Y61133D01*
X-530179Y62693D01*
X-530179Y62694D01*
Y100490D01*
X-517840D01*
Y113510D01*
X-530179D01*
Y118243D01*
X-530179Y118243D01*
X-530489Y119803D01*
X-531373Y121126D01*
X-531374Y121126D01*
X-533131Y122884D01*
X-534454Y123768D01*
X-536015Y124078D01*
X-536015Y124078D01*
X-543308D01*
X-544498Y126140D01*
X-546360Y128002D01*
X-548640Y129319D01*
X-551184Y130000D01*
D02*
G37*
G36*
X104710Y518510D02*
X91690D01*
Y503790D01*
X94122D01*
Y104889D01*
X48682Y59450D01*
X47544Y60107D01*
X48100Y62183D01*
Y64816D01*
X47418Y67360D01*
X46102Y69640D01*
X44240Y71502D01*
X41960Y72818D01*
X39416Y73500D01*
X36783D01*
X34240Y72818D01*
X31960Y71502D01*
X30098Y69640D01*
X29229Y68135D01*
X27778Y67989D01*
X23316Y72452D01*
Y120762D01*
X23316Y120762D01*
X23006Y122323D01*
X22122Y123646D01*
X-281912Y427680D01*
X-280193Y429399D01*
X-290601Y439808D01*
X-299808Y430601D01*
X-289399Y420192D01*
X-287680Y421912D01*
X15159Y119073D01*
Y70762D01*
X15159Y70762D01*
X15470Y69201D01*
X16354Y67878D01*
X23616Y60616D01*
X24939Y59732D01*
X26500Y59422D01*
X26500Y59422D01*
X28908D01*
X30098Y57360D01*
X31960Y55498D01*
X32266Y55321D01*
X32038Y53987D01*
X30939Y53768D01*
X29616Y52884D01*
X29616Y52884D01*
X-27609Y-4342D01*
X-28493Y-5665D01*
X-28661Y-6508D01*
X-30000Y-6730D01*
X-30098Y-6560D01*
X-31960Y-4698D01*
X-34240Y-3381D01*
X-36783Y-2700D01*
X-39416D01*
X-41960Y-3381D01*
X-44240Y-4698D01*
X-46102Y-6560D01*
X-47292Y-8622D01*
X-49700D01*
X-51261Y-8932D01*
X-52584Y-9816D01*
X-52584Y-9816D01*
X-61248Y-18481D01*
X-62422Y-17995D01*
Y-3189D01*
X-50611Y8622D01*
X-47292D01*
X-46102Y6560D01*
X-44240Y4698D01*
X-41960Y3381D01*
X-39416Y2700D01*
X-36783D01*
X-34240Y3381D01*
X-31960Y4698D01*
X-30098Y6560D01*
X-28781Y8840D01*
X-28100Y11384D01*
Y14016D01*
X-28781Y16560D01*
X-30098Y18840D01*
X-31960Y20702D01*
X-34240Y22018D01*
X-36783Y22700D01*
X-39416D01*
X-41960Y22018D01*
X-44240Y20702D01*
X-46102Y18840D01*
X-47292Y16778D01*
X-52300D01*
X-53861Y16468D01*
X-55184Y15584D01*
X-55184Y15584D01*
X-69384Y1384D01*
X-70268Y61D01*
X-70578Y-1500D01*
X-70578Y-1500D01*
Y-93500D01*
X-70578Y-93500D01*
X-70268Y-95061D01*
X-69384Y-96384D01*
X259616Y-425384D01*
X259616Y-425384D01*
X260939Y-426268D01*
X262500Y-426578D01*
X281201D01*
X281727Y-427848D01*
X280652Y-428924D01*
X291061Y-439332D01*
X300267Y-430126D01*
X289859Y-419717D01*
X288139Y-421437D01*
X286319Y-419616D01*
X284996Y-418732D01*
X283435Y-418422D01*
X283435Y-418422D01*
X264189D01*
X-46481Y-107752D01*
X-45995Y-106578D01*
X494900D01*
X494900Y-106578D01*
X496461Y-106268D01*
X497784Y-105384D01*
X500020Y-103148D01*
X501290Y-103674D01*
Y-104510D01*
X516010D01*
Y-91490D01*
X501290D01*
Y-93922D01*
X499400D01*
X499400Y-93922D01*
X497839Y-94232D01*
X496516Y-95116D01*
X496516Y-95116D01*
X493211Y-98422D01*
X48100D01*
Y-92978D01*
X281100D01*
X281100Y-92978D01*
X282661Y-92668D01*
X283984Y-91784D01*
X287884Y-87884D01*
X287884Y-87884D01*
X288768Y-86561D01*
X289078Y-85000D01*
X289078Y-85000D01*
Y-47824D01*
X290348Y-47298D01*
X291153Y-48102D01*
X293547Y-49484D01*
X296218Y-50200D01*
X298982D01*
X301653Y-49484D01*
X304047Y-48102D01*
X306002Y-46147D01*
X307384Y-43753D01*
X308100Y-41082D01*
Y-38318D01*
X307384Y-35647D01*
X306002Y-33253D01*
X304047Y-31298D01*
X301653Y-29916D01*
X298982Y-29200D01*
X296218D01*
X293547Y-29916D01*
X291153Y-31298D01*
X290348Y-32102D01*
X289078Y-31576D01*
Y-22424D01*
X290348Y-21897D01*
X291153Y-22702D01*
X293547Y-24084D01*
X296218Y-24800D01*
X298982D01*
X301653Y-24084D01*
X304047Y-22702D01*
X306002Y-20747D01*
X307384Y-18353D01*
X308100Y-15682D01*
Y-12918D01*
X307384Y-10247D01*
X306002Y-7853D01*
X304047Y-5898D01*
X301653Y-4516D01*
X298982Y-3800D01*
X296218D01*
X293547Y-4516D01*
X291153Y-5898D01*
X289198Y-7853D01*
X287830Y-10222D01*
X287801D01*
X286241Y-10532D01*
X284918Y-11416D01*
X284918Y-11416D01*
X283888Y-12445D01*
X282472Y-12066D01*
X281984Y-10247D01*
X280602Y-7853D01*
X278647Y-5898D01*
X276253Y-4516D01*
X273582Y-3800D01*
X270818D01*
X268147Y-4516D01*
X265753Y-5898D01*
X263798Y-7853D01*
X262421Y-10237D01*
X260939Y-10532D01*
X259616Y-11416D01*
X259616Y-11416D01*
X258509Y-12523D01*
X257093Y-12144D01*
X256584Y-10247D01*
X255202Y-7853D01*
X253247Y-5898D01*
X250878Y-4530D01*
Y-1758D01*
X250878Y-1757D01*
X250568Y-197D01*
X249684Y1126D01*
X249684Y1126D01*
X247927Y2884D01*
X246603Y3768D01*
X245043Y4078D01*
X245042Y4078D01*
X87500D01*
X87500Y4078D01*
X85939Y3768D01*
X84616Y2884D01*
X84616Y2884D01*
X48375Y-33357D01*
X46796Y-33163D01*
X46102Y-31960D01*
X44240Y-30098D01*
X41960Y-28781D01*
X39416Y-28100D01*
X36783D01*
X34240Y-28781D01*
X31960Y-30098D01*
X30098Y-31960D01*
X28781Y-34240D01*
X28100Y-36783D01*
Y-39416D01*
X28781Y-41960D01*
X30098Y-44240D01*
X31960Y-46102D01*
X34240Y-47418D01*
X36783Y-48100D01*
X39416D01*
X41960Y-47418D01*
X44240Y-46102D01*
X46102Y-44240D01*
X47292Y-42178D01*
X49400D01*
X49400Y-42178D01*
X50961Y-41868D01*
X52284Y-40984D01*
X89189Y-4078D01*
X164764D01*
X165105Y-5348D01*
X164153Y-5898D01*
X162198Y-7853D01*
X160816Y-10247D01*
X160100Y-12918D01*
Y-15682D01*
X160816Y-18353D01*
X162198Y-20747D01*
X164153Y-22702D01*
X166547Y-24084D01*
X169218Y-24800D01*
X171982D01*
X174653Y-24084D01*
X177047Y-22702D01*
X179002Y-20747D01*
X180384Y-18353D01*
X181100Y-15682D01*
Y-12918D01*
X180384Y-10247D01*
X179002Y-7853D01*
X177047Y-5898D01*
X176095Y-5348D01*
X176436Y-4078D01*
X190165D01*
X190505Y-5348D01*
X189553Y-5898D01*
X187598Y-7853D01*
X186216Y-10247D01*
X185500Y-12918D01*
Y-15682D01*
X186216Y-18353D01*
X187598Y-20747D01*
X189553Y-22702D01*
X191947Y-24084D01*
X194618Y-24800D01*
X197382D01*
X200053Y-24084D01*
X202447Y-22702D01*
X204402Y-20747D01*
X205784Y-18353D01*
X206500Y-15682D01*
Y-12918D01*
X205784Y-10247D01*
X204402Y-7853D01*
X202447Y-5898D01*
X201495Y-5348D01*
X201835Y-4078D01*
X215564D01*
X215905Y-5348D01*
X214953Y-5898D01*
X212998Y-7853D01*
X211616Y-10247D01*
X210900Y-12918D01*
Y-15682D01*
X211616Y-18353D01*
X212998Y-20747D01*
X214953Y-22702D01*
X217347Y-24084D01*
X220018Y-24800D01*
X222782D01*
X225453Y-24084D01*
X227847Y-22702D01*
X229802Y-20747D01*
X231184Y-18353D01*
X231900Y-15682D01*
Y-12918D01*
X231184Y-10247D01*
X229802Y-7853D01*
X227847Y-5898D01*
X226895Y-5348D01*
X227236Y-4078D01*
X240965D01*
X241305Y-5348D01*
X240353Y-5898D01*
X238398Y-7853D01*
X237016Y-10247D01*
X236300Y-12918D01*
Y-15682D01*
X237016Y-18353D01*
X238398Y-20747D01*
X240353Y-22702D01*
X242747Y-24084D01*
X245418Y-24800D01*
X248182D01*
X250853Y-24084D01*
X253247Y-22702D01*
X254652Y-21298D01*
X255922Y-21824D01*
Y-32176D01*
X254652Y-32702D01*
X253247Y-31298D01*
X250853Y-29916D01*
X248182Y-29200D01*
X245418D01*
X242747Y-29916D01*
X240353Y-31298D01*
X238398Y-33253D01*
X237016Y-35647D01*
X236300Y-38318D01*
Y-41082D01*
X237016Y-43753D01*
X238398Y-46147D01*
X240353Y-48102D01*
X242747Y-49484D01*
X245418Y-50200D01*
X248182D01*
X250853Y-49484D01*
X253247Y-48102D01*
X254652Y-46698D01*
X255922Y-47224D01*
Y-58812D01*
X255312Y-59422D01*
X47292D01*
X46102Y-57360D01*
X44240Y-55498D01*
X41960Y-54181D01*
X39416Y-53500D01*
X36783D01*
X34240Y-54181D01*
X31960Y-55498D01*
X30098Y-57360D01*
X28781Y-59640D01*
X28100Y-62183D01*
Y-64816D01*
X28781Y-67360D01*
X30098Y-69640D01*
X31960Y-71502D01*
X34240Y-72818D01*
X36783Y-73500D01*
X39416D01*
X41960Y-72818D01*
X44240Y-71502D01*
X46102Y-69640D01*
X47292Y-67578D01*
X257001D01*
X257001Y-67578D01*
X258562Y-67268D01*
X259885Y-66384D01*
X262884Y-63385D01*
X262884Y-63385D01*
X263768Y-62062D01*
X264078Y-60501D01*
Y-48087D01*
X265252Y-47601D01*
X265753Y-48102D01*
X268147Y-49484D01*
X270818Y-50200D01*
X273582D01*
X276253Y-49484D01*
X278647Y-48102D01*
X279652Y-47098D01*
X280922Y-47624D01*
Y-83311D01*
X279411Y-84822D01*
X48100D01*
Y-78900D01*
X28100D01*
Y-98422D01*
X-31972D01*
X-32312Y-97152D01*
X-31935Y-96934D01*
X-30066Y-95065D01*
X-28744Y-92775D01*
X-28060Y-90222D01*
Y-90170D01*
X-38100D01*
X-48140D01*
Y-90222D01*
X-47456Y-92775D01*
X-46134Y-95065D01*
X-44265Y-96934D01*
X-43888Y-97152D01*
X-44228Y-98422D01*
X-46811D01*
X-55922Y-89311D01*
Y-63556D01*
X-54748Y-63071D01*
X-51227Y-66592D01*
X-51227Y-66592D01*
X-49903Y-67476D01*
X-48343Y-67787D01*
X-47172D01*
X-46102Y-69640D01*
X-44240Y-71502D01*
X-41960Y-72818D01*
X-39416Y-73500D01*
X-36783D01*
X-34240Y-72818D01*
X-31960Y-71502D01*
X-30098Y-69640D01*
X-28781Y-67360D01*
X-28100Y-64816D01*
Y-62183D01*
X-28781Y-59640D01*
X-30098Y-57360D01*
X-31960Y-55498D01*
X-34240Y-54181D01*
X-36783Y-53500D01*
X-39416D01*
X-41960Y-54181D01*
X-44240Y-55498D01*
X-46102Y-57360D01*
X-46613Y-58245D01*
X-47872Y-58411D01*
X-50422Y-55862D01*
Y-33689D01*
X-47073Y-30341D01*
X-46375Y-30437D01*
X-45924Y-31782D01*
X-46102Y-31960D01*
X-47418Y-34240D01*
X-48100Y-36783D01*
Y-39416D01*
X-47418Y-41960D01*
X-46102Y-44240D01*
X-44240Y-46102D01*
X-41960Y-47418D01*
X-39416Y-48100D01*
X-36783D01*
X-34240Y-47418D01*
X-31960Y-46102D01*
X-30098Y-44240D01*
X-28908Y-42178D01*
X-23100D01*
X-23100Y-42178D01*
X-21539Y-41868D01*
X-20216Y-40984D01*
X-15499Y-36267D01*
X-14615Y-34944D01*
X-14305Y-33383D01*
X-14305Y-33383D01*
Y-27573D01*
X26830Y13562D01*
X28100Y13036D01*
Y11384D01*
X28781Y8840D01*
X30098Y6560D01*
X31960Y4698D01*
X34240Y3381D01*
X36783Y2700D01*
X39416D01*
X41960Y3381D01*
X44240Y4698D01*
X46102Y6560D01*
X47418Y8840D01*
X48100Y11384D01*
Y14016D01*
X47418Y16560D01*
X46102Y18840D01*
X45290Y19652D01*
X45816Y20922D01*
X168130D01*
X168130Y20922D01*
X169691Y21232D01*
X171014Y22116D01*
X429244Y280347D01*
X430964Y278627D01*
X441372Y289036D01*
X432166Y298243D01*
X421757Y287834D01*
X423477Y286115D01*
X166441Y29078D01*
X44844D01*
X44490Y30348D01*
X46102Y31960D01*
X47418Y34240D01*
X48100Y36783D01*
Y39416D01*
X47418Y41960D01*
X46102Y44240D01*
X45597Y44745D01*
X46015Y46123D01*
X46561Y46232D01*
X47884Y47116D01*
X101084Y100316D01*
X101968Y101639D01*
X102278Y103200D01*
X102278Y103200D01*
Y503790D01*
X104710D01*
Y518510D01*
D02*
G37*
G36*
X393540Y63730D02*
X376270D01*
Y54460D01*
X393540D01*
Y63730D01*
D02*
G37*
G36*
X373730D02*
X356460D01*
Y54460D01*
X373730D01*
Y63730D01*
D02*
G37*
G36*
X-36783Y48100D02*
X-39416D01*
X-41960Y47418D01*
X-44240Y46102D01*
X-46102Y44240D01*
X-47292Y42178D01*
X-49400D01*
X-49400Y42178D01*
X-50961Y41868D01*
X-52284Y40984D01*
X-52284Y40984D01*
X-100384Y-7116D01*
X-101268Y-8439D01*
X-101578Y-10000D01*
X-101578Y-10000D01*
Y-502640D01*
X-104010D01*
Y-517360D01*
X-90990D01*
Y-502640D01*
X-93422D01*
Y-11689D01*
X-48375Y33357D01*
X-46796Y33163D01*
X-46102Y31960D01*
X-44240Y30098D01*
X-41960Y28781D01*
X-39416Y28100D01*
X-36783D01*
X-34240Y28781D01*
X-31960Y30098D01*
X-30098Y31960D01*
X-28781Y34240D01*
X-28100Y36783D01*
Y39416D01*
X-28781Y41960D01*
X-30098Y44240D01*
X-31960Y46102D01*
X-34240Y47418D01*
X-36783Y48100D01*
D02*
G37*
G36*
X400588Y-3760D02*
X400470D01*
Y-13030D01*
X409740D01*
Y-12912D01*
X409022Y-10232D01*
X407634Y-7828D01*
X405672Y-5866D01*
X403268Y-4478D01*
X400588Y-3760D01*
D02*
G37*
G36*
X397930D02*
X397812D01*
X395132Y-4478D01*
X392728Y-5866D01*
X390766Y-7828D01*
X389378Y-10232D01*
X388660Y-12912D01*
Y-13030D01*
X397930D01*
Y-3760D01*
D02*
G37*
G36*
X375188D02*
X375070D01*
Y-13030D01*
X384340D01*
Y-12912D01*
X383622Y-10232D01*
X382234Y-7828D01*
X380272Y-5866D01*
X377868Y-4478D01*
X375188Y-3760D01*
D02*
G37*
G36*
X372530D02*
X372412D01*
X369732Y-4478D01*
X367328Y-5866D01*
X365366Y-7828D01*
X363978Y-10232D01*
X363260Y-12912D01*
Y-13030D01*
X372530D01*
Y-3760D01*
D02*
G37*
G36*
X39416Y-2700D02*
X36783D01*
X34240Y-3381D01*
X31960Y-4698D01*
X30098Y-6560D01*
X28781Y-8840D01*
X28100Y-11384D01*
Y-14016D01*
X28781Y-16560D01*
X30098Y-18840D01*
X31960Y-20702D01*
X34240Y-22018D01*
X36783Y-22700D01*
X39416D01*
X41960Y-22018D01*
X44240Y-20702D01*
X46102Y-18840D01*
X47418Y-16560D01*
X48100Y-14016D01*
Y-11384D01*
X47418Y-8840D01*
X46102Y-6560D01*
X44240Y-4698D01*
X41960Y-3381D01*
X39416Y-2700D01*
D02*
G37*
G36*
X451382Y-3800D02*
X448618D01*
X445947Y-4516D01*
X443553Y-5898D01*
X441598Y-7853D01*
X440216Y-10247D01*
X439500Y-12918D01*
Y-15682D01*
X440216Y-18353D01*
X441598Y-20747D01*
X443553Y-22702D01*
X445947Y-24084D01*
X448618Y-24800D01*
X451382D01*
X454053Y-24084D01*
X456447Y-22702D01*
X458402Y-20747D01*
X459784Y-18353D01*
X460500Y-15682D01*
Y-12918D01*
X459784Y-10247D01*
X458402Y-7853D01*
X456447Y-5898D01*
X454053Y-4516D01*
X451382Y-3800D01*
D02*
G37*
G36*
X425982D02*
X423218D01*
X420547Y-4516D01*
X418153Y-5898D01*
X416198Y-7853D01*
X414816Y-10247D01*
X414100Y-12918D01*
Y-15682D01*
X414816Y-18353D01*
X416198Y-20747D01*
X418153Y-22702D01*
X420547Y-24084D01*
X423218Y-24800D01*
X425982D01*
X428653Y-24084D01*
X431047Y-22702D01*
X433002Y-20747D01*
X434384Y-18353D01*
X435100Y-15682D01*
Y-12918D01*
X434384Y-10247D01*
X433002Y-7853D01*
X431047Y-5898D01*
X428653Y-4516D01*
X425982Y-3800D01*
D02*
G37*
G36*
X349782D02*
X347018D01*
X344347Y-4516D01*
X341953Y-5898D01*
X339998Y-7853D01*
X338616Y-10247D01*
X337900Y-12918D01*
Y-15682D01*
X338616Y-18353D01*
X339998Y-20747D01*
X341953Y-22702D01*
X344347Y-24084D01*
X347018Y-24800D01*
X349782D01*
X352453Y-24084D01*
X354847Y-22702D01*
X356802Y-20747D01*
X358184Y-18353D01*
X358900Y-15682D01*
Y-12918D01*
X358184Y-10247D01*
X356802Y-7853D01*
X354847Y-5898D01*
X352453Y-4516D01*
X349782Y-3800D01*
D02*
G37*
G36*
X324382D02*
X321618D01*
X318947Y-4516D01*
X316553Y-5898D01*
X314598Y-7853D01*
X313216Y-10247D01*
X312500Y-12918D01*
Y-15682D01*
X313216Y-18353D01*
X314598Y-20747D01*
X316553Y-22702D01*
X318947Y-24084D01*
X321618Y-24800D01*
X324382D01*
X327053Y-24084D01*
X329447Y-22702D01*
X331402Y-20747D01*
X332784Y-18353D01*
X333500Y-15682D01*
Y-12918D01*
X332784Y-10247D01*
X331402Y-7853D01*
X329447Y-5898D01*
X327053Y-4516D01*
X324382Y-3800D01*
D02*
G37*
G36*
X409740Y-15570D02*
X400470D01*
Y-24840D01*
X400588D01*
X403268Y-24122D01*
X405672Y-22734D01*
X407634Y-20772D01*
X409022Y-18368D01*
X409740Y-15688D01*
Y-15570D01*
D02*
G37*
G36*
X397930D02*
X388660D01*
Y-15688D01*
X389378Y-18368D01*
X390766Y-20772D01*
X392728Y-22734D01*
X395132Y-24122D01*
X397812Y-24840D01*
X397930D01*
Y-15570D01*
D02*
G37*
G36*
X384340D02*
X375070D01*
Y-24840D01*
X375188D01*
X377868Y-24122D01*
X380272Y-22734D01*
X382234Y-20772D01*
X383622Y-18368D01*
X384340Y-15688D01*
Y-15570D01*
D02*
G37*
G36*
X372530D02*
X363260D01*
Y-15688D01*
X363978Y-18368D01*
X365366Y-20772D01*
X367328Y-22734D01*
X369732Y-24122D01*
X372412Y-24840D01*
X372530D01*
Y-15570D01*
D02*
G37*
G36*
X174600Y-29144D02*
X166600D01*
X164903Y-29367D01*
X163322Y-30022D01*
X161964Y-31064D01*
X160922Y-32422D01*
X160267Y-34003D01*
X160054Y-35622D01*
X137993D01*
X137832Y-35461D01*
X135995Y-34700D01*
X134005D01*
X132168Y-35461D01*
X130761Y-36868D01*
X130000Y-38705D01*
Y-40695D01*
X130761Y-42532D01*
X132168Y-43939D01*
X134005Y-44700D01*
X135995D01*
X137832Y-43939D01*
X137993Y-43778D01*
X160054D01*
X160267Y-45397D01*
X160922Y-46978D01*
X161964Y-48336D01*
X163322Y-49378D01*
X164903Y-50033D01*
X166600Y-50256D01*
X174600D01*
X176297Y-50033D01*
X177878Y-49378D01*
X179236Y-48336D01*
X180278Y-46978D01*
X180933Y-45397D01*
X181156Y-43700D01*
Y-35700D01*
X180933Y-34003D01*
X180278Y-32422D01*
X179236Y-31064D01*
X177878Y-30022D01*
X176297Y-29367D01*
X174600Y-29144D01*
D02*
G37*
G36*
X375188Y-29160D02*
X375070D01*
Y-38430D01*
X384340D01*
Y-38312D01*
X383622Y-35632D01*
X382234Y-33228D01*
X380272Y-31266D01*
X377868Y-29878D01*
X375188Y-29160D01*
D02*
G37*
G36*
X372530D02*
X372412D01*
X369732Y-29878D01*
X367328Y-31266D01*
X365366Y-33228D01*
X363978Y-35632D01*
X363260Y-38312D01*
Y-38430D01*
X372530D01*
Y-29160D01*
D02*
G37*
G36*
X451382Y-29200D02*
X448618D01*
X445947Y-29916D01*
X443553Y-31298D01*
X441598Y-33253D01*
X440216Y-35647D01*
X439500Y-38318D01*
Y-41082D01*
X440216Y-43753D01*
X441598Y-46147D01*
X443553Y-48102D01*
X445947Y-49484D01*
X448618Y-50200D01*
X451382D01*
X454053Y-49484D01*
X456447Y-48102D01*
X458402Y-46147D01*
X459784Y-43753D01*
X460500Y-41082D01*
Y-38318D01*
X459784Y-35647D01*
X458402Y-33253D01*
X456447Y-31298D01*
X454053Y-29916D01*
X451382Y-29200D01*
D02*
G37*
G36*
X425982D02*
X423218D01*
X420547Y-29916D01*
X418153Y-31298D01*
X416198Y-33253D01*
X414816Y-35647D01*
X414100Y-38318D01*
Y-41082D01*
X414816Y-43753D01*
X416198Y-46147D01*
X418153Y-48102D01*
X420547Y-49484D01*
X423218Y-50200D01*
X425982D01*
X428653Y-49484D01*
X431047Y-48102D01*
X433002Y-46147D01*
X434384Y-43753D01*
X435100Y-41082D01*
Y-38318D01*
X434384Y-35647D01*
X433002Y-33253D01*
X431047Y-31298D01*
X428653Y-29916D01*
X425982Y-29200D01*
D02*
G37*
G36*
X400582D02*
X397818D01*
X395147Y-29916D01*
X392753Y-31298D01*
X390798Y-33253D01*
X389416Y-35647D01*
X388700Y-38318D01*
Y-41082D01*
X389416Y-43753D01*
X390798Y-46147D01*
X392753Y-48102D01*
X395147Y-49484D01*
X397818Y-50200D01*
X400582D01*
X403253Y-49484D01*
X405647Y-48102D01*
X407602Y-46147D01*
X408984Y-43753D01*
X409700Y-41082D01*
Y-38318D01*
X408984Y-35647D01*
X407602Y-33253D01*
X405647Y-31298D01*
X403253Y-29916D01*
X400582Y-29200D01*
D02*
G37*
G36*
X349782D02*
X347018D01*
X344347Y-29916D01*
X341953Y-31298D01*
X339998Y-33253D01*
X338616Y-35647D01*
X337900Y-38318D01*
Y-41082D01*
X338616Y-43753D01*
X339998Y-46147D01*
X341953Y-48102D01*
X344347Y-49484D01*
X347018Y-50200D01*
X349782D01*
X352453Y-49484D01*
X354847Y-48102D01*
X356802Y-46147D01*
X358184Y-43753D01*
X358900Y-41082D01*
Y-38318D01*
X358184Y-35647D01*
X356802Y-33253D01*
X354847Y-31298D01*
X352453Y-29916D01*
X349782Y-29200D01*
D02*
G37*
G36*
X324382D02*
X321618D01*
X318947Y-29916D01*
X316553Y-31298D01*
X314598Y-33253D01*
X313216Y-35647D01*
X312500Y-38318D01*
Y-41082D01*
X313216Y-43753D01*
X314598Y-46147D01*
X316553Y-48102D01*
X318947Y-49484D01*
X321618Y-50200D01*
X324382D01*
X327053Y-49484D01*
X329447Y-48102D01*
X331402Y-46147D01*
X332784Y-43753D01*
X333500Y-41082D01*
Y-38318D01*
X332784Y-35647D01*
X331402Y-33253D01*
X329447Y-31298D01*
X327053Y-29916D01*
X324382Y-29200D01*
D02*
G37*
G36*
X222782D02*
X220018D01*
X217347Y-29916D01*
X214953Y-31298D01*
X212998Y-33253D01*
X211616Y-35647D01*
X210900Y-38318D01*
Y-41082D01*
X211616Y-43753D01*
X212998Y-46147D01*
X214953Y-48102D01*
X217347Y-49484D01*
X220018Y-50200D01*
X222782D01*
X225453Y-49484D01*
X227847Y-48102D01*
X229802Y-46147D01*
X231184Y-43753D01*
X231900Y-41082D01*
Y-38318D01*
X231184Y-35647D01*
X229802Y-33253D01*
X227847Y-31298D01*
X225453Y-29916D01*
X222782Y-29200D01*
D02*
G37*
G36*
X197382D02*
X194618D01*
X191947Y-29916D01*
X189553Y-31298D01*
X187598Y-33253D01*
X186216Y-35647D01*
X185500Y-38318D01*
Y-41082D01*
X186216Y-43753D01*
X187598Y-46147D01*
X189553Y-48102D01*
X191947Y-49484D01*
X194618Y-50200D01*
X197382D01*
X200053Y-49484D01*
X202447Y-48102D01*
X204402Y-46147D01*
X205784Y-43753D01*
X206500Y-41082D01*
Y-38318D01*
X205784Y-35647D01*
X204402Y-33253D01*
X202447Y-31298D01*
X200053Y-29916D01*
X197382Y-29200D01*
D02*
G37*
G36*
X384340Y-40970D02*
X375070D01*
Y-50240D01*
X375188D01*
X377868Y-49522D01*
X380272Y-48134D01*
X382234Y-46172D01*
X383622Y-43768D01*
X384340Y-41088D01*
Y-40970D01*
D02*
G37*
G36*
X372530D02*
X363260D01*
Y-41088D01*
X363978Y-43768D01*
X365366Y-46172D01*
X367328Y-48134D01*
X369732Y-49522D01*
X372412Y-50240D01*
X372530D01*
Y-40970D01*
D02*
G37*
G36*
X-36778Y-78860D02*
X-36830D01*
Y-87630D01*
X-28060D01*
Y-87578D01*
X-28744Y-85025D01*
X-30066Y-82735D01*
X-31935Y-80866D01*
X-34225Y-79544D01*
X-36778Y-78860D01*
D02*
G37*
G36*
X-39370D02*
X-39422D01*
X-41975Y-79544D01*
X-44265Y-80866D01*
X-46134Y-82735D01*
X-47456Y-85025D01*
X-48140Y-87578D01*
Y-87630D01*
X-39370D01*
Y-78860D01*
D02*
G37*
G36*
X556316Y-84600D02*
X553683D01*
X551140Y-85281D01*
X548860Y-86598D01*
X546998Y-88460D01*
X545681Y-90740D01*
X545000Y-93284D01*
Y-95917D01*
X545681Y-98460D01*
X546998Y-100740D01*
X548860Y-102602D01*
X551140Y-103919D01*
X553683Y-104600D01*
X556316D01*
X558860Y-103919D01*
X561140Y-102602D01*
X563002Y-100740D01*
X564319Y-98460D01*
X565000Y-95917D01*
Y-93284D01*
X564319Y-90740D01*
X563002Y-88460D01*
X561140Y-86598D01*
X558860Y-85281D01*
X556316Y-84600D01*
D02*
G37*
G36*
X516050Y-110450D02*
X509920D01*
Y-115730D01*
X516050D01*
Y-110450D01*
D02*
G37*
G36*
X507380D02*
X501250D01*
Y-115730D01*
X507380D01*
Y-110450D01*
D02*
G37*
G36*
X516050Y-118270D02*
X509920D01*
Y-123550D01*
X516050D01*
Y-118270D01*
D02*
G37*
G36*
X507380D02*
X501250D01*
Y-123550D01*
X507380D01*
Y-118270D01*
D02*
G37*
G36*
X273770Y-260071D02*
Y-263730D01*
X277429D01*
X276773Y-262145D01*
X275355Y-260727D01*
X273770Y-260071D01*
D02*
G37*
G36*
X271230D02*
X269645Y-260727D01*
X268227Y-262145D01*
X267571Y-263730D01*
X271230D01*
Y-260071D01*
D02*
G37*
G36*
X255995Y-244000D02*
X254005D01*
X252168Y-244761D01*
X250761Y-246168D01*
X250000Y-248005D01*
Y-248332D01*
X233332Y-265000D01*
X233105D01*
X231268Y-265761D01*
X229861Y-267168D01*
X229100Y-269005D01*
Y-270995D01*
X229579Y-272152D01*
X228791Y-273422D01*
X189499D01*
X189339Y-273261D01*
X187501Y-272500D01*
X185512D01*
X183674Y-273261D01*
X182267Y-274668D01*
X181506Y-276505D01*
Y-278495D01*
X182267Y-280332D01*
X183674Y-281739D01*
X183852Y-281813D01*
Y-283187D01*
X183674Y-283261D01*
X182267Y-284668D01*
X181506Y-286505D01*
Y-288495D01*
X182267Y-290332D01*
X183674Y-291739D01*
X184085Y-291909D01*
Y-293284D01*
X183674Y-293454D01*
X182267Y-294860D01*
X181506Y-296698D01*
Y-298687D01*
X182267Y-300525D01*
X183674Y-301931D01*
X183746Y-301961D01*
Y-303231D01*
X183674Y-303261D01*
X182267Y-304668D01*
X181506Y-306505D01*
Y-308495D01*
X182267Y-310332D01*
X183674Y-311739D01*
X185512Y-312500D01*
X187501D01*
X189339Y-311739D01*
X189499Y-311578D01*
X206222D01*
Y-339243D01*
X206222Y-339243D01*
X206532Y-340803D01*
X207416Y-342127D01*
X209174Y-343884D01*
X209174Y-343884D01*
X210497Y-344768D01*
X212057Y-345078D01*
X212057Y-345078D01*
X358400D01*
X358400Y-345078D01*
X359961Y-344768D01*
X361284Y-343884D01*
X363984Y-341184D01*
X363984Y-341184D01*
X364868Y-339861D01*
X365178Y-338300D01*
Y-327270D01*
X367547Y-325902D01*
X369502Y-323947D01*
X370884Y-321553D01*
X371600Y-318882D01*
Y-316118D01*
X370884Y-313447D01*
X369502Y-311053D01*
X367547Y-309098D01*
X365153Y-307716D01*
X362482Y-307000D01*
X359718D01*
X357047Y-307716D01*
X354653Y-309098D01*
X352698Y-311053D01*
X351316Y-313447D01*
X350600Y-316118D01*
Y-318882D01*
X351316Y-321553D01*
X352698Y-323947D01*
X354653Y-325902D01*
X357022Y-327270D01*
Y-336611D01*
X356711Y-336922D01*
X336005D01*
X335519Y-335748D01*
X338584Y-332684D01*
X338584Y-332684D01*
X339468Y-331361D01*
X339778Y-329800D01*
Y-327270D01*
X342147Y-325902D01*
X344102Y-323947D01*
X345484Y-321553D01*
X346200Y-318882D01*
Y-316118D01*
X345484Y-313447D01*
X344102Y-311053D01*
X342147Y-309098D01*
X339753Y-307716D01*
X337082Y-307000D01*
X334318D01*
X331647Y-307716D01*
X329253Y-309098D01*
X327298Y-311053D01*
X325916Y-313447D01*
X325200Y-316118D01*
Y-318882D01*
X325916Y-321553D01*
X327298Y-323947D01*
X329253Y-325902D01*
X331189Y-327020D01*
X331319Y-328413D01*
X328811Y-330922D01*
X314352D01*
X313673Y-329652D01*
X314068Y-329061D01*
X314378Y-327500D01*
Y-327270D01*
X316747Y-325902D01*
X318702Y-323947D01*
X320084Y-321553D01*
X320800Y-318882D01*
Y-316118D01*
X320084Y-313447D01*
X318702Y-311053D01*
X316747Y-309098D01*
X314353Y-307716D01*
X311682Y-307000D01*
X308918D01*
X306247Y-307716D01*
X303853Y-309098D01*
X301898Y-311053D01*
X300516Y-313447D01*
X299800Y-316118D01*
Y-318882D01*
X300516Y-321553D01*
X301898Y-323947D01*
X302199Y-324248D01*
X301713Y-325422D01*
X293487D01*
X293001Y-324248D01*
X293302Y-323947D01*
X294684Y-321553D01*
X295400Y-318882D01*
Y-316118D01*
X294684Y-313447D01*
X293302Y-311053D01*
X292579Y-310330D01*
X293065Y-309156D01*
X295000D01*
X295000Y-309156D01*
X296561Y-308846D01*
X297884Y-307962D01*
X300384Y-305462D01*
X301268Y-304139D01*
X301578Y-302578D01*
X301578Y-302578D01*
Y-300024D01*
X302848Y-299498D01*
X303853Y-300502D01*
X306247Y-301884D01*
X308918Y-302600D01*
X311682D01*
X314353Y-301884D01*
X316747Y-300502D01*
X318702Y-298547D01*
X320084Y-296153D01*
X320800Y-293482D01*
Y-290718D01*
X320084Y-288047D01*
X318702Y-285653D01*
X316747Y-283698D01*
X314353Y-282316D01*
X311682Y-281600D01*
X308918D01*
X306247Y-282316D01*
X303853Y-283698D01*
X302848Y-284702D01*
X301767Y-284324D01*
X301565Y-284190D01*
X301268Y-282697D01*
X300384Y-281374D01*
X288626Y-269616D01*
X287303Y-268732D01*
X285743Y-268422D01*
X285742Y-268422D01*
X277865D01*
X277064Y-267152D01*
X277429Y-266270D01*
X267571D01*
X267936Y-267152D01*
X267135Y-268422D01*
X252500D01*
X250939Y-268732D01*
X249616Y-269616D01*
X249616Y-269616D01*
X245811Y-273422D01*
X239409D01*
X238621Y-272152D01*
X239100Y-270995D01*
Y-270768D01*
X255868Y-254000D01*
X255995D01*
X257832Y-253239D01*
X259239Y-251832D01*
X260000Y-249995D01*
Y-248005D01*
X259239Y-246168D01*
X257832Y-244761D01*
X255995Y-244000D01*
D02*
G37*
G36*
X-442359Y-267160D02*
X-446693Y-271495D01*
X-442960Y-275229D01*
X-438625Y-270894D01*
X-442359Y-267160D01*
D02*
G37*
G36*
X-436829Y-272690D02*
X-441164Y-277025D01*
X-437430Y-280758D01*
X-433096Y-276424D01*
X-436829Y-272690D01*
D02*
G37*
G36*
X-448489Y-273291D02*
X-452824Y-277626D01*
X-449090Y-281359D01*
X-444756Y-277025D01*
X-448489Y-273291D01*
D02*
G37*
G36*
X-442960Y-278821D02*
X-447294Y-283155D01*
X-443561Y-286889D01*
X-439226Y-282554D01*
X-442960Y-278821D01*
D02*
G37*
G36*
X-448157Y-286450D02*
X-457118Y-295412D01*
X-459616Y-292914D01*
X-460939Y-292029D01*
X-462500Y-291719D01*
X-462500Y-291719D01*
X-465797D01*
X-467358Y-292029D01*
X-468681Y-292914D01*
X-468681Y-292914D01*
X-473884Y-298116D01*
X-476184Y-297500D01*
X-478816D01*
X-481360Y-298181D01*
X-483640Y-299498D01*
X-485502Y-301360D01*
X-486819Y-303640D01*
X-487500Y-306183D01*
Y-308817D01*
X-486819Y-311360D01*
X-485502Y-313640D01*
X-483640Y-315502D01*
X-481360Y-316819D01*
X-478816Y-317500D01*
X-476184D01*
X-473640Y-316819D01*
X-471360Y-315502D01*
X-469498Y-313640D01*
X-468181Y-311360D01*
X-467500Y-308817D01*
Y-306183D01*
X-468116Y-303884D01*
X-464149Y-299916D01*
X-459525Y-304540D01*
X-459525Y-304540D01*
X-458202Y-305424D01*
X-458069Y-305450D01*
X-457924Y-306181D01*
X-457040Y-307504D01*
X-427963Y-336581D01*
X-433640Y-342258D01*
X-434310Y-341872D01*
X-437489Y-341020D01*
X-440780D01*
X-443959Y-341872D01*
X-446810Y-343517D01*
X-449137Y-345845D01*
X-450783Y-348695D01*
X-451634Y-351874D01*
Y-355165D01*
X-450783Y-358345D01*
X-449137Y-361195D01*
X-446810Y-363522D01*
X-443959Y-365168D01*
X-440780Y-366020D01*
X-437489D01*
X-434310Y-365168D01*
X-432990Y-364406D01*
X-432060Y-365336D01*
X-432822Y-366655D01*
X-433674Y-369835D01*
Y-373126D01*
X-432822Y-376305D01*
X-431176Y-379155D01*
X-428849Y-381483D01*
X-425999Y-383128D01*
X-422819Y-383980D01*
X-419528D01*
X-416349Y-383128D01*
X-413499Y-381483D01*
X-412112Y-380096D01*
X-411036Y-380816D01*
X-411971Y-383074D01*
X-412020Y-383320D01*
X-412116Y-383552D01*
X-412900Y-387494D01*
Y-387745D01*
X-412949Y-387991D01*
Y-392009D01*
X-412900Y-392255D01*
Y-392506D01*
X-412116Y-396448D01*
X-412020Y-396680D01*
X-411971Y-396926D01*
X-410433Y-400639D01*
X-410294Y-400847D01*
X-410198Y-401079D01*
X-407965Y-404420D01*
X-407788Y-404598D01*
X-407648Y-404807D01*
X-404807Y-407648D01*
X-404598Y-407788D01*
X-404420Y-407965D01*
X-401079Y-410198D01*
X-400847Y-410294D01*
X-400639Y-410433D01*
X-396926Y-411971D01*
X-396680Y-412020D01*
X-396448Y-412116D01*
X-392506Y-412900D01*
X-392255D01*
X-392009Y-412949D01*
X-387991D01*
X-387745Y-412900D01*
X-387494D01*
X-383552Y-412116D01*
X-383320Y-412020D01*
X-383074Y-411971D01*
X-379361Y-410433D01*
X-379153Y-410294D01*
X-378921Y-410198D01*
X-375580Y-407965D01*
X-375402Y-407788D01*
X-375193Y-407648D01*
X-372352Y-404807D01*
X-372212Y-404598D01*
X-372035Y-404420D01*
X-369802Y-401079D01*
X-369706Y-400847D01*
X-369567Y-400639D01*
X-368029Y-396926D01*
X-367980Y-396680D01*
X-367884Y-396448D01*
X-367100Y-392506D01*
Y-392255D01*
X-367051Y-392009D01*
Y-387991D01*
X-367100Y-387745D01*
Y-387494D01*
X-367884Y-383552D01*
X-367980Y-383320D01*
X-368029Y-383074D01*
X-369567Y-379361D01*
X-369706Y-379153D01*
X-369802Y-378921D01*
X-372035Y-375580D01*
X-372212Y-375402D01*
X-372352Y-375193D01*
X-375193Y-372352D01*
X-375402Y-372212D01*
X-375580Y-372035D01*
X-378921Y-369802D01*
X-379153Y-369706D01*
X-379361Y-369567D01*
X-383074Y-368029D01*
X-383320Y-367980D01*
X-383552Y-367884D01*
X-387494Y-367100D01*
X-387745D01*
X-387991Y-367051D01*
X-392009D01*
X-392255Y-367100D01*
X-392506D01*
X-396448Y-367884D01*
X-396680Y-367980D01*
X-396926Y-368029D01*
X-400639Y-369567D01*
X-400847Y-369706D01*
X-401079Y-369802D01*
X-404420Y-372035D01*
X-404598Y-372212D01*
X-404807Y-372352D01*
X-407648Y-375193D01*
X-407788Y-375402D01*
X-407965Y-375580D01*
X-408051Y-375708D01*
X-409223Y-375177D01*
X-408674Y-373126D01*
Y-369835D01*
X-409526Y-366655D01*
X-411171Y-363805D01*
X-413499Y-361478D01*
X-416349Y-359832D01*
X-419528Y-358980D01*
X-422819D01*
X-425999Y-359832D01*
X-427318Y-360594D01*
X-428248Y-359664D01*
X-427486Y-358345D01*
X-426634Y-355165D01*
Y-351874D01*
X-427486Y-348695D01*
X-427873Y-348026D01*
X-420554Y-340707D01*
X-420554Y-340707D01*
X-419670Y-339384D01*
X-419360Y-337823D01*
Y-335338D01*
X-419360Y-335338D01*
X-419670Y-333778D01*
X-420554Y-332454D01*
X-420554Y-332454D01*
X-448151Y-304858D01*
X-438950Y-295657D01*
X-448157Y-286450D01*
D02*
G37*
G36*
X362482Y-281600D02*
X359718D01*
X357047Y-282316D01*
X354653Y-283698D01*
X352698Y-285653D01*
X351316Y-288047D01*
X350600Y-290718D01*
Y-293482D01*
X351316Y-296153D01*
X352698Y-298547D01*
X354653Y-300502D01*
X357047Y-301884D01*
X359718Y-302600D01*
X362482D01*
X365153Y-301884D01*
X367547Y-300502D01*
X369502Y-298547D01*
X370884Y-296153D01*
X371600Y-293482D01*
Y-290718D01*
X370884Y-288047D01*
X369502Y-285653D01*
X367547Y-283698D01*
X365153Y-282316D01*
X362482Y-281600D01*
D02*
G37*
G36*
X337082D02*
X334318D01*
X331647Y-282316D01*
X329253Y-283698D01*
X327298Y-285653D01*
X325916Y-288047D01*
X325200Y-290718D01*
Y-293482D01*
X325916Y-296153D01*
X327298Y-298547D01*
X329253Y-300502D01*
X331647Y-301884D01*
X334318Y-302600D01*
X337082D01*
X339753Y-301884D01*
X342147Y-300502D01*
X344102Y-298547D01*
X345484Y-296153D01*
X346200Y-293482D01*
Y-290718D01*
X345484Y-288047D01*
X344102Y-285653D01*
X342147Y-283698D01*
X339753Y-282316D01*
X337082Y-281600D01*
D02*
G37*
G36*
X390500Y-281544D02*
X382500D01*
X380803Y-281767D01*
X379222Y-282422D01*
X377864Y-283464D01*
X376822Y-284822D01*
X376167Y-286403D01*
X375944Y-288100D01*
Y-296100D01*
X376167Y-297797D01*
X376822Y-299378D01*
X377864Y-300736D01*
X379222Y-301778D01*
X380803Y-302433D01*
X382500Y-302656D01*
X390500D01*
X392197Y-302433D01*
X393778Y-301778D01*
X395136Y-300736D01*
X396178Y-299378D01*
X396833Y-297797D01*
X397056Y-296100D01*
Y-288100D01*
X396833Y-286403D01*
X396178Y-284822D01*
X395136Y-283464D01*
X393778Y-282422D01*
X392197Y-281767D01*
X390500Y-281544D01*
D02*
G37*
G36*
X387882Y-307000D02*
X385118D01*
X382447Y-307716D01*
X380053Y-309098D01*
X378098Y-311053D01*
X376716Y-313447D01*
X376000Y-316118D01*
Y-318882D01*
X376716Y-321553D01*
X378098Y-323947D01*
X380053Y-325902D01*
X382447Y-327284D01*
X385118Y-328000D01*
X387882D01*
X390553Y-327284D01*
X392947Y-325902D01*
X394902Y-323947D01*
X396284Y-321553D01*
X397000Y-318882D01*
Y-316118D01*
X396284Y-313447D01*
X394902Y-311053D01*
X392947Y-309098D01*
X390553Y-307716D01*
X387882Y-307000D01*
D02*
G37*
G36*
X-458223Y-315461D02*
X-460856D01*
X-463399Y-316142D01*
X-465680Y-317458D01*
X-467542Y-319320D01*
X-468858Y-321601D01*
X-469539Y-324144D01*
Y-326777D01*
X-468858Y-329320D01*
X-467542Y-331601D01*
X-465680Y-333462D01*
X-463399Y-334779D01*
X-460856Y-335461D01*
X-458223D01*
X-455680Y-334779D01*
X-453399Y-333462D01*
X-451538Y-331601D01*
X-450221Y-329320D01*
X-449539Y-326777D01*
Y-324144D01*
X-450221Y-321601D01*
X-451538Y-319320D01*
X-453399Y-317458D01*
X-455680Y-316142D01*
X-458223Y-315461D01*
D02*
G37*
G36*
X392009Y-367051D02*
X387991D01*
X387745Y-367100D01*
X387494D01*
X383552Y-367884D01*
X383320Y-367980D01*
X383074Y-368029D01*
X379361Y-369567D01*
X379153Y-369706D01*
X378921Y-369802D01*
X375580Y-372035D01*
X375402Y-372212D01*
X375193Y-372352D01*
X372352Y-375193D01*
X372212Y-375402D01*
X372035Y-375580D01*
X369802Y-378921D01*
X369706Y-379153D01*
X369567Y-379361D01*
X368029Y-383074D01*
X367980Y-383320D01*
X367884Y-383552D01*
X367100Y-387494D01*
Y-387745D01*
X367051Y-387991D01*
Y-392009D01*
X367100Y-392255D01*
Y-392506D01*
X367884Y-396448D01*
X367980Y-396680D01*
X368029Y-396926D01*
X369567Y-400639D01*
X369706Y-400847D01*
X369802Y-401079D01*
X372035Y-404420D01*
X372212Y-404598D01*
X372352Y-404807D01*
X375193Y-407648D01*
X375402Y-407788D01*
X375580Y-407965D01*
X378921Y-410198D01*
X379153Y-410294D01*
X379361Y-410433D01*
X383074Y-411971D01*
X383320Y-412020D01*
X383552Y-412116D01*
X387494Y-412900D01*
X387745D01*
X387991Y-412949D01*
X392009D01*
X392255Y-412900D01*
X392506D01*
X396448Y-412116D01*
X396680Y-412020D01*
X396926Y-411971D01*
X400639Y-410433D01*
X400847Y-410294D01*
X401079Y-410198D01*
X404420Y-407965D01*
X404598Y-407788D01*
X404807Y-407648D01*
X407648Y-404807D01*
X407788Y-404598D01*
X407965Y-404420D01*
X410198Y-401079D01*
X410294Y-400847D01*
X410433Y-400639D01*
X411971Y-396926D01*
X412020Y-396680D01*
X412116Y-396448D01*
X412900Y-392506D01*
Y-392255D01*
X412949Y-392009D01*
Y-387991D01*
X412900Y-387745D01*
Y-387494D01*
X412116Y-383552D01*
X412020Y-383320D01*
X411971Y-383074D01*
X410433Y-379361D01*
X410294Y-379153D01*
X410198Y-378921D01*
X407965Y-375580D01*
X407788Y-375402D01*
X407648Y-375193D01*
X404807Y-372352D01*
X404598Y-372212D01*
X404420Y-372035D01*
X401079Y-369802D01*
X400847Y-369706D01*
X400639Y-369567D01*
X396926Y-368029D01*
X396680Y-367980D01*
X396448Y-367884D01*
X392506Y-367100D01*
X392255D01*
X392009Y-367051D01*
D02*
G37*
G36*
X373567Y-410000D02*
X370276D01*
X367097Y-410852D01*
X364247Y-412497D01*
X361919Y-414825D01*
X360274Y-417675D01*
X359422Y-420854D01*
Y-424146D01*
X360274Y-427325D01*
X361035Y-428645D01*
X360106Y-429574D01*
X358786Y-428812D01*
X355607Y-427961D01*
X352316D01*
X349136Y-428812D01*
X348467Y-429199D01*
X340256Y-420987D01*
X338933Y-420103D01*
X337372Y-419793D01*
X337372Y-419793D01*
X334887D01*
X333326Y-420103D01*
X332003Y-420987D01*
X332003Y-420987D01*
X304848Y-448142D01*
X295657Y-438950D01*
X286450Y-448157D01*
X295580Y-457287D01*
X292676Y-460191D01*
X291792Y-461514D01*
X291482Y-463075D01*
X291482Y-463075D01*
Y-465560D01*
X291482Y-465560D01*
X291792Y-467121D01*
X292676Y-468444D01*
X298116Y-473884D01*
X297500Y-476184D01*
Y-478816D01*
X298181Y-481360D01*
X299498Y-483640D01*
X301360Y-485502D01*
X303640Y-486819D01*
X306183Y-487500D01*
X308817D01*
X311360Y-486819D01*
X313640Y-485502D01*
X315502Y-483640D01*
X316819Y-481360D01*
X317500Y-478816D01*
Y-476184D01*
X316819Y-473640D01*
X315502Y-471360D01*
X313640Y-469498D01*
X311360Y-468181D01*
X308817Y-467500D01*
X306183D01*
X303884Y-468116D01*
X300085Y-464317D01*
X304059Y-460343D01*
X304059Y-460343D01*
X304943Y-459020D01*
X305200Y-457730D01*
X306643Y-457443D01*
X307966Y-456559D01*
X336129Y-428396D01*
X342700Y-434966D01*
X342313Y-435636D01*
X341461Y-438815D01*
Y-442106D01*
X342313Y-445285D01*
X343959Y-448136D01*
X346286Y-450463D01*
X349136Y-452109D01*
X352316Y-452961D01*
X355607D01*
X358786Y-452109D01*
X361636Y-450463D01*
X363964Y-448136D01*
X365609Y-445285D01*
X366461Y-442106D01*
Y-438815D01*
X365609Y-435636D01*
X364847Y-434316D01*
X365777Y-433386D01*
X367097Y-434148D01*
X370276Y-435000D01*
X373567D01*
X376747Y-434148D01*
X379597Y-432503D01*
X381924Y-430175D01*
X383570Y-427325D01*
X384422Y-424146D01*
Y-420854D01*
X383570Y-417675D01*
X381924Y-414825D01*
X379597Y-412497D01*
X376747Y-410852D01*
X373567Y-410000D01*
D02*
G37*
G36*
X276424Y-433096D02*
X272690Y-436829D01*
X277025Y-441164D01*
X280758Y-437430D01*
X276424Y-433096D01*
D02*
G37*
G36*
X270894Y-438625D02*
X267160Y-442359D01*
X271495Y-446693D01*
X275229Y-442960D01*
X270894Y-438625D01*
D02*
G37*
G36*
X282554Y-439226D02*
X278821Y-442960D01*
X283155Y-447294D01*
X286889Y-443561D01*
X282554Y-439226D01*
D02*
G37*
G36*
X277025Y-444756D02*
X273291Y-448489D01*
X277626Y-452824D01*
X281359Y-449090D01*
X277025Y-444756D01*
D02*
G37*
G36*
X326777Y-449539D02*
X324144D01*
X321601Y-450221D01*
X319320Y-451538D01*
X317458Y-453399D01*
X316142Y-455680D01*
X315461Y-458223D01*
Y-460856D01*
X316142Y-463399D01*
X317458Y-465680D01*
X319320Y-467542D01*
X321601Y-468858D01*
X324144Y-469539D01*
X326777D01*
X329320Y-468858D01*
X331601Y-467542D01*
X333462Y-465680D01*
X334779Y-463399D01*
X335461Y-460856D01*
Y-458223D01*
X334779Y-455680D01*
X333462Y-453399D01*
X331601Y-451538D01*
X329320Y-450221D01*
X326777Y-449539D01*
D02*
G37*
G36*
X-109950Y-502600D02*
X-115230D01*
Y-508730D01*
X-109950D01*
Y-502600D01*
D02*
G37*
G36*
X-117770D02*
X-123050D01*
Y-508730D01*
X-117770D01*
Y-502600D01*
D02*
G37*
G36*
X-109950Y-511270D02*
X-115230D01*
Y-517400D01*
X-109950D01*
Y-511270D01*
D02*
G37*
G36*
X-117770D02*
X-123050D01*
Y-517400D01*
X-117770D01*
Y-511270D01*
D02*
G37*
G36*
X-100490Y-520340D02*
X-113510D01*
Y-532679D01*
X-118243D01*
X-118243Y-532679D01*
X-119803Y-532989D01*
X-121126Y-533873D01*
X-121126Y-533874D01*
X-122884Y-535631D01*
X-123768Y-536954D01*
X-124078Y-538515D01*
X-124078Y-538515D01*
Y-545808D01*
X-126140Y-546998D01*
X-128002Y-548860D01*
X-129319Y-551140D01*
X-130000Y-553684D01*
Y-556316D01*
X-129319Y-558860D01*
X-128002Y-561140D01*
X-126140Y-563002D01*
X-123860Y-564319D01*
X-121316Y-565000D01*
X-118684D01*
X-116140Y-564319D01*
X-113860Y-563002D01*
X-111998Y-561140D01*
X-110681Y-558860D01*
X-110000Y-556316D01*
Y-553684D01*
X-110681Y-551140D01*
X-111998Y-548860D01*
X-113860Y-546998D01*
X-115922Y-545808D01*
Y-540836D01*
X-108757D01*
X-108757Y-540836D01*
X-107197Y-540525D01*
X-106877Y-540312D01*
X-106557Y-540525D01*
X-104996Y-540836D01*
X-104996Y-540836D01*
X-64278D01*
Y-549486D01*
X-65025Y-549686D01*
X-67875Y-551331D01*
X-70202Y-553658D01*
X-71848Y-556509D01*
X-72700Y-559688D01*
Y-562979D01*
X-71848Y-566158D01*
X-70202Y-569009D01*
X-67875Y-571336D01*
X-65025Y-572982D01*
X-61846Y-573834D01*
X-58554D01*
X-55375Y-572982D01*
X-52525Y-571336D01*
X-50198Y-569009D01*
X-48552Y-566158D01*
X-48157Y-564686D01*
X-46843D01*
X-46448Y-566158D01*
X-44802Y-569009D01*
X-42475Y-571336D01*
X-39625Y-572982D01*
X-36446Y-573834D01*
X-33154D01*
X-29975Y-572982D01*
X-27125Y-571336D01*
X-24797Y-569009D01*
X-23152Y-566158D01*
X-22300Y-562979D01*
Y-559688D01*
X-22480Y-559015D01*
X-21275Y-558606D01*
X-20433Y-560639D01*
X-20294Y-560847D01*
X-20198Y-561079D01*
X-17965Y-564420D01*
X-17788Y-564598D01*
X-17648Y-564807D01*
X-14807Y-567648D01*
X-14598Y-567788D01*
X-14420Y-567965D01*
X-11079Y-570198D01*
X-10847Y-570294D01*
X-10639Y-570433D01*
X-6926Y-571971D01*
X-6680Y-572020D01*
X-6448Y-572116D01*
X-2506Y-572900D01*
X-2255D01*
X-2009Y-572949D01*
X2009D01*
X2255Y-572900D01*
X2506D01*
X6448Y-572116D01*
X6680Y-572020D01*
X6926Y-571971D01*
X10639Y-570433D01*
X10847Y-570294D01*
X11079Y-570198D01*
X14420Y-567965D01*
X14598Y-567788D01*
X14807Y-567648D01*
X17648Y-564807D01*
X17788Y-564598D01*
X17965Y-564420D01*
X20198Y-561079D01*
X20294Y-560847D01*
X20433Y-560639D01*
X21971Y-556926D01*
X22020Y-556680D01*
X22116Y-556448D01*
X22900Y-552506D01*
Y-552255D01*
X22949Y-552009D01*
Y-547991D01*
X22900Y-547745D01*
Y-547494D01*
X22116Y-543552D01*
X22020Y-543320D01*
X21971Y-543074D01*
X20433Y-539361D01*
X20294Y-539153D01*
X20198Y-538921D01*
X17965Y-535580D01*
X17788Y-535402D01*
X17648Y-535193D01*
X14807Y-532352D01*
X14598Y-532212D01*
X14420Y-532035D01*
X11079Y-529802D01*
X10847Y-529706D01*
X10639Y-529567D01*
X6926Y-528029D01*
X6680Y-527980D01*
X6448Y-527884D01*
X2506Y-527100D01*
X2255D01*
X2009Y-527051D01*
X-2009D01*
X-2255Y-527100D01*
X-2506D01*
X-6448Y-527884D01*
X-6680Y-527980D01*
X-6926Y-528029D01*
X-10639Y-529567D01*
X-10847Y-529706D01*
X-11079Y-529802D01*
X-14420Y-532035D01*
X-14598Y-532212D01*
X-14807Y-532352D01*
X-17648Y-535193D01*
X-17788Y-535402D01*
X-17965Y-535580D01*
X-20198Y-538921D01*
X-20294Y-539153D01*
X-20433Y-539361D01*
X-21971Y-543074D01*
X-22020Y-543320D01*
X-22116Y-543552D01*
X-22900Y-547494D01*
Y-547745D01*
X-22949Y-547991D01*
Y-552009D01*
X-22900Y-552255D01*
Y-552506D01*
X-22324Y-555403D01*
X-23529Y-555856D01*
X-24797Y-553658D01*
X-27125Y-551331D01*
X-29975Y-549686D01*
X-33154Y-548834D01*
X-36446D01*
X-39625Y-549686D01*
X-42475Y-551331D01*
X-44802Y-553658D01*
X-46448Y-556509D01*
X-46843Y-557981D01*
X-48157D01*
X-48552Y-556509D01*
X-50198Y-553658D01*
X-52525Y-551331D01*
X-55375Y-549686D01*
X-56122Y-549486D01*
Y-538515D01*
X-56122Y-538515D01*
X-56432Y-536954D01*
X-57316Y-535631D01*
X-57316Y-535631D01*
X-59074Y-533873D01*
X-60397Y-532990D01*
X-61957Y-532679D01*
X-61958Y-532679D01*
X-100490D01*
Y-520340D01*
D02*
G37*
G36*
X-93284Y-545000D02*
X-95917D01*
X-98460Y-545681D01*
X-100740Y-546998D01*
X-102602Y-548860D01*
X-103919Y-551140D01*
X-104600Y-553684D01*
Y-556316D01*
X-103919Y-558860D01*
X-102602Y-561140D01*
X-100740Y-563002D01*
X-98460Y-564319D01*
X-95917Y-565000D01*
X-93284D01*
X-90740Y-564319D01*
X-88460Y-563002D01*
X-86598Y-561140D01*
X-85281Y-558860D01*
X-84600Y-556316D01*
Y-553684D01*
X-85281Y-551140D01*
X-86598Y-548860D01*
X-88460Y-546998D01*
X-90740Y-545681D01*
X-93284Y-545000D01*
D02*
G37*
%LPD*%
G36*
X270560Y-277848D02*
X269645Y-278227D01*
X268227Y-279645D01*
X267571Y-281230D01*
X272500D01*
Y-283770D01*
X266925D01*
X266321Y-284072D01*
X265947Y-283698D01*
X263553Y-282316D01*
X260882Y-281600D01*
X258118D01*
X255447Y-282316D01*
X253053Y-283698D01*
X251098Y-285653D01*
X249716Y-288047D01*
X249000Y-290718D01*
Y-293482D01*
X249716Y-296153D01*
X251098Y-298547D01*
X252281Y-299730D01*
X251754Y-301000D01*
X241845D01*
X241319Y-299730D01*
X242502Y-298547D01*
X243884Y-296153D01*
X244600Y-293482D01*
Y-290718D01*
X243884Y-288047D01*
X242502Y-285653D01*
X240547Y-283698D01*
X239076Y-282848D01*
X239416Y-281578D01*
X247500D01*
X247500Y-281578D01*
X249061Y-281268D01*
X250384Y-280384D01*
X254189Y-276578D01*
X270307D01*
X270560Y-277848D01*
D02*
G37*
D17*
X-295798Y449233D02*
D03*
X-276565Y443435D02*
D03*
X-290000Y430000D02*
D03*
X296258Y-448758D02*
D03*
X277025Y-442960D02*
D03*
X290460Y-429525D02*
D03*
D18*
X-525200Y107000D02*
D03*
X-507500Y116500D02*
D03*
Y97500D02*
D03*
X508650Y-98000D02*
D03*
Y-117000D02*
D03*
X526350Y-107500D02*
D03*
D19*
X107700Y528850D02*
D03*
X117200Y511150D02*
D03*
X98200D02*
D03*
X-97500Y-510000D02*
D03*
X-116500D02*
D03*
X-107000Y-527700D02*
D03*
D20*
X450798Y294233D02*
D03*
X445000Y275000D02*
D03*
X431565Y288435D02*
D03*
X-448758Y-296258D02*
D03*
X-442960Y-277025D02*
D03*
X-429525Y-290460D02*
D03*
D21*
X425000Y65000D02*
D03*
X375000D02*
D03*
D22*
X425000Y142500D02*
D03*
Y114475D02*
D03*
D24*
X438980Y351020D02*
D03*
X421020Y368980D02*
D03*
X371922Y-422500D02*
D03*
X353961Y-440461D02*
D03*
X-60200Y-561334D02*
D03*
X-34800D02*
D03*
X-439134Y-353520D02*
D03*
X-421174Y-371480D02*
D03*
X-559663Y60400D02*
D03*
Y35000D02*
D03*
X-353961Y439797D02*
D03*
X-371922Y421836D02*
D03*
X60400Y561334D02*
D03*
X35000D02*
D03*
X561334Y-35000D02*
D03*
Y-60400D02*
D03*
D31*
X-534257Y105243D02*
X-532500Y107000D01*
X-534257Y62693D02*
Y105243D01*
X-559663Y60400D02*
X-536551D01*
X-534257Y62693D01*
X425000Y333792D02*
Y337039D01*
X438980Y351020D01*
X-454156Y-304620D02*
X-423438Y-335338D01*
Y-337823D02*
Y-335338D01*
X-439134Y-353520D02*
X-423438Y-337823D01*
X-454156Y-304620D02*
Y-301656D01*
X-60200Y-561334D02*
Y-538515D01*
X-61957Y-536757D02*
X-60200Y-538515D01*
X-106754Y-535000D02*
X-104996Y-536757D01*
X-61957D01*
X-107000Y-535000D02*
X-106754D01*
X295560Y-465560D02*
X307500Y-477500D01*
X295560Y-465560D02*
Y-463075D01*
X301175Y-457459D02*
Y-453675D01*
X295560Y-463075D02*
X301175Y-457459D01*
X334887Y-423871D02*
X337372D01*
X353961Y-440461D01*
X301175Y-453675D02*
X305083D01*
X334887Y-423871D01*
X535575Y-62157D02*
X537332Y-60400D01*
X533243Y-107500D02*
X535575Y-105168D01*
X537332Y-60400D02*
X561334D01*
X535575Y-105168D02*
Y-62157D01*
X526350Y-107500D02*
X533243D01*
X535000Y-109257D01*
Y-118243D02*
Y-109257D01*
X-303079Y454225D02*
X-300790D01*
X-334501Y422803D02*
X-303079Y454225D01*
X-353961Y439778D02*
X-336986Y422803D01*
X-334501D01*
X-353961Y439778D02*
Y439797D01*
X60400Y539257D02*
Y561334D01*
Y539257D02*
X62157Y537500D01*
X105943D01*
X107700Y535743D01*
X490000Y142500D02*
X494523Y137977D01*
Y11654D02*
Y137977D01*
Y11654D02*
X541177Y-35000D01*
X561334D01*
X425000Y333792D02*
X456189Y302603D01*
Y299624D02*
Y302603D01*
X-300790Y456710D02*
X-294319Y463181D01*
X-300790Y454225D02*
Y456710D01*
X-294319Y463181D02*
Y465239D01*
X-534257Y108757D02*
X-532500Y107000D01*
X-525200D01*
X-536015Y120000D02*
X-534257Y118243D01*
X-552500Y120000D02*
X-536015D01*
X-534257Y108757D02*
Y118243D01*
X-108757Y-536757D02*
X-107000Y-535000D01*
X-118243Y-536757D02*
X-108757D01*
X-107000Y-535000D02*
Y-527700D01*
X-120000Y-555000D02*
Y-538515D01*
X-118243Y-536757D01*
X296258Y-448758D02*
X301175Y-453675D01*
X107700Y535743D02*
X109457Y537500D01*
X107700Y528850D02*
Y535743D01*
X109457Y537500D02*
X118643D01*
X120400Y539257D02*
Y556334D01*
X118643Y537500D02*
X120400Y539257D01*
X-456641Y-301656D02*
X-454156D01*
X-462500Y-295797D02*
X-456641Y-301656D01*
X-454156D02*
X-448758Y-296258D01*
Y-296258D01*
X456189Y299624D02*
X458674D01*
X450798Y294233D02*
X456189Y299624D01*
X458674D02*
X464666Y293631D01*
X467151Y293631D02*
X478520Y305000D01*
X464666Y293631D02*
X467151D01*
X-307040Y477961D02*
X-294319Y465239D01*
X-300790Y454225D02*
X-295798Y449233D01*
Y449233D02*
Y449233D01*
X-477500Y-307500D02*
X-465797Y-295797D01*
X-462500D01*
X555000Y-120000D02*
X555000Y-120000D01*
X536757Y-120000D02*
X555000D01*
X535000Y-118243D02*
X536757Y-120000D01*
X45000Y50000D02*
X98200Y103200D01*
X-24725Y-7225D02*
X32500Y50000D01*
X45000D01*
X-30000Y-25883D02*
X-24725Y-20609D01*
X-48383Y-25883D02*
X-30000D01*
X-54500Y-32000D02*
X-48383Y-25883D01*
X32500Y25000D02*
X168130D01*
X-18383Y-25883D02*
X32500Y25000D01*
X168130D02*
X431565Y288435D01*
X-24725Y-20609D02*
Y-7225D01*
X-23100Y-38100D02*
X-18383Y-33383D01*
X-38100Y-38100D02*
X-23100D01*
X-18383Y-33383D02*
Y-25883D01*
X-55000Y88900D02*
X-38100D01*
X-63600Y97500D02*
X-55000Y88900D01*
X-507500Y97500D02*
X-63600D01*
X-429525Y-290460D02*
X-75565Y63500D01*
X-97500Y-10000D02*
X-49400Y38100D01*
X-97500Y-510000D02*
Y-10000D01*
X262500Y-422500D02*
X283435D01*
X290460Y-429525D01*
X-66500Y-93500D02*
X262500Y-422500D01*
X-66500Y-93500D02*
Y-1500D01*
X-52300Y12700D02*
X-38100D01*
X-66500Y-1500D02*
X-52300Y12700D01*
X-60000Y-91000D02*
Y-23000D01*
X-49700Y-12700D02*
X-38100D01*
X-60000Y-23000D02*
X-49700Y-12700D01*
X499400Y-98000D02*
X508650D01*
X494900Y-102500D02*
X499400Y-98000D01*
X-48500Y-102500D02*
X494900D01*
X-60000Y-91000D02*
X-48500Y-102500D01*
X98200Y103200D02*
Y511150D01*
X-290000Y430000D02*
X19238Y120762D01*
X252500Y-272500D02*
X285743D01*
X272500Y-301321D02*
Y-282500D01*
X268743Y-305078D02*
X272500Y-301321D01*
X238279Y-305078D02*
X268743D01*
X234100Y-309257D02*
X238279Y-305078D01*
X234100Y-317500D02*
Y-309257D01*
X186506Y-277500D02*
X247500D01*
X252500Y-272500D01*
X297500Y-302578D02*
Y-284257D01*
X285743Y-272500D02*
X297500Y-284257D01*
X295000Y-305078D02*
X297500Y-302578D01*
X289622Y-305078D02*
X295000D01*
X284900Y-309800D02*
X289622Y-305078D01*
X284900Y-317500D02*
Y-309800D01*
X255000Y-249100D02*
Y-249000D01*
X234100Y-270000D02*
X255000Y-249100D01*
X135000Y-39700D02*
X170600D01*
X425000Y142500D02*
X490000D01*
X49400Y-38100D02*
X87500Y0D01*
X245043D01*
X38100Y-38100D02*
X49400D01*
X-49400Y38100D02*
X-38100D01*
X-54500Y-57551D02*
Y-32000D01*
Y-57551D02*
X-48343Y-63709D01*
X287801Y-14300D02*
X297600D01*
X285000Y-17101D02*
X287801Y-14300D01*
X285000Y-85000D02*
Y-17101D01*
X281100Y-88900D02*
X285000Y-85000D01*
X38100Y-88900D02*
X281100D01*
X38100Y-63500D02*
X257001D01*
X260000Y-60501D01*
Y-16800D01*
X262500Y-14300D01*
X272200D01*
X246800D02*
Y-1757D01*
X245043Y0D02*
X246800Y-1757D01*
X214243Y-297692D02*
X216000Y-299450D01*
X186506Y-297692D02*
X214243D01*
X216000Y-333222D02*
Y-299450D01*
X186506Y-287500D02*
X218808D01*
X186506Y-307500D02*
X208543D01*
X210300Y-309257D01*
Y-339243D02*
Y-309257D01*
X-48343Y-63709D02*
X-38308D01*
X-38100Y-63500D01*
X19238Y70762D02*
X26500Y63500D01*
X19238Y70762D02*
Y120762D01*
X26500Y63500D02*
X38100D01*
X425000Y114475D02*
X425175Y114650D01*
X457100D01*
X210300Y-339243D02*
X212057Y-341000D01*
X358400D01*
X217778Y-335000D02*
X330500D01*
X216000Y-333222D02*
X217778Y-335000D01*
X221500Y-327743D02*
Y-290192D01*
X223257Y-329500D02*
X308300D01*
X221500Y-327743D02*
X223257Y-329500D01*
X358400Y-341000D02*
X361100Y-338300D01*
X330500Y-335000D02*
X335700Y-329800D01*
X310300Y-327500D02*
Y-317500D01*
X308300Y-329500D02*
X310300Y-327500D01*
X361100Y-338300D02*
Y-317500D01*
X218808Y-287500D02*
X221500Y-290192D01*
X335700Y-329800D02*
Y-317500D01*
X424600Y64600D02*
X425000Y65000D01*
X-75565Y63500D02*
X-38100D01*
X-38550Y88450D02*
X-38100Y88900D01*
X425000Y65000D02*
Y114475D01*
D32*
X-325000Y460000D02*
D03*
X-307040Y477961D02*
D03*
X307500Y-477500D02*
D03*
X325461Y-459539D02*
D03*
X-477500Y-307500D02*
D03*
X-459539Y-325461D02*
D03*
X555000Y-94600D02*
D03*
Y-120000D02*
D03*
X-552500Y120000D02*
D03*
Y94600D02*
D03*
X-120000Y-555000D02*
D03*
X-94600D02*
D03*
X120400Y556334D02*
D03*
X95000D02*
D03*
X-38100Y88900D02*
D03*
Y63500D02*
D03*
Y38100D02*
D03*
Y12700D02*
D03*
Y-12700D02*
D03*
Y-38100D02*
D03*
Y-63500D02*
D03*
Y-88900D02*
D03*
X38100Y88900D02*
D03*
Y63500D02*
D03*
Y38100D02*
D03*
Y12700D02*
D03*
Y-12700D02*
D03*
Y-38100D02*
D03*
Y-63500D02*
D03*
X478520Y305000D02*
D03*
X460559Y322961D02*
D03*
D33*
X386500Y-292100D02*
D03*
X170600Y-39700D02*
D03*
D34*
X386500Y-317500D02*
D03*
X361100Y-292100D02*
D03*
Y-317500D02*
D03*
X335700Y-292100D02*
D03*
Y-317500D02*
D03*
X310300Y-292100D02*
D03*
Y-317500D02*
D03*
X284900Y-292100D02*
D03*
X259500D02*
D03*
X234100D02*
D03*
X284900Y-317500D02*
D03*
X259500D02*
D03*
X234100D02*
D03*
X450000Y-14300D02*
D03*
X424600D02*
D03*
X399200D02*
D03*
X450000Y-39700D02*
D03*
X424600D02*
D03*
X399200D02*
D03*
X373800Y-14300D02*
D03*
X348400D02*
D03*
X373800Y-39700D02*
D03*
X348400D02*
D03*
X170600Y-14300D02*
D03*
X196000Y-39700D02*
D03*
Y-14300D02*
D03*
X221400Y-39700D02*
D03*
Y-14300D02*
D03*
X246800Y-39700D02*
D03*
Y-14300D02*
D03*
X272200Y-39700D02*
D03*
X297600D02*
D03*
X272200Y-14300D02*
D03*
X297600D02*
D03*
X323000Y-39700D02*
D03*
Y-14300D02*
D03*
D35*
X457100Y114650D02*
D03*
X482500Y89250D02*
D03*
D36*
X507900Y114650D02*
D03*
D37*
X38100Y-88900D02*
D03*
D38*
X272500Y-265000D02*
D03*
Y-282500D02*
D03*
X255000Y-249000D02*
D03*
X234100Y-270000D02*
D03*
X135000Y-39700D02*
D03*
X490000Y142500D02*
D03*
X186506Y-277500D02*
D03*
Y-287500D02*
D03*
Y-297692D02*
D03*
Y-307500D02*
D03*
M02*
