G04*
G04 #@! TF.GenerationSoftware,Altium Limited,Altium Designer,24.6.1 (21)*
G04*
G04 Layer_Color=16711935*
%FSLAX44Y44*%
%MOMM*%
G71*
G04*
G04 #@! TF.SameCoordinates,7ED302C6-E4C6-4C30-95F2-E30C317DAF44*
G04*
G04*
G04 #@! TF.FilePolarity,Positive*
G04*
G01*
G75*
%ADD10C,0.1500*%
%ADD13C,0.2000*%
%ADD43C,0.1000*%
%ADD44R,4.5000X0.7250*%
%ADD45R,4.5000X0.7250*%
D10*
X464017Y360271D02*
G03*
X464017Y360271I-29500J0D01*
G01*
X389770Y-434520D02*
G03*
X389770Y-434520I-29500J0D01*
G01*
X-23000Y-562000D02*
G03*
X-23000Y-562000I-29500J0D01*
G01*
X-405020Y-360270D02*
G03*
X-405020Y-360270I-29500J0D01*
G01*
X-532500Y52500D02*
G03*
X-532500Y52500I-29500J0D01*
G01*
X-330770Y434520D02*
G03*
X-330770Y434520I-29500J0D01*
G01*
X82000Y562000D02*
G03*
X82000Y562000I-29500J0D01*
G01*
X591500Y-52500D02*
G03*
X591500Y-52500I-29500J0D01*
G01*
D13*
X429426Y292530D02*
X439325Y302430D01*
X460821Y280934D01*
X450922Y271034D02*
X460821Y280934D01*
X429426Y292530D02*
X450922Y271034D01*
X-292528Y429422D02*
X-271032Y450919D01*
X-280932Y460818D02*
X-271032Y450919D01*
X-302428Y439322D02*
X-280932Y460818D01*
X-302428Y439322D02*
X-292528Y429422D01*
X-510500Y96800D02*
Y127200D01*
X-524500D02*
X-510500D01*
X-524500Y96800D02*
Y127200D01*
Y96800D02*
X-510500D01*
X96800Y510500D02*
X127200D01*
Y524500D01*
X96800D02*
X127200D01*
X96800Y510500D02*
Y524500D01*
X-450918Y-271032D02*
X-429422Y-292528D01*
X-460818Y-280932D02*
X-450918Y-271032D01*
X-460818Y-280932D02*
X-439322Y-302428D01*
X-429422Y-292528D01*
X-96800Y-524500D02*
Y-510500D01*
X-127200Y-524500D02*
X-96800D01*
X-127200D02*
Y-510500D01*
X-96800D01*
X271032Y-450918D02*
X292528Y-429422D01*
X271032Y-450918D02*
X280932Y-460818D01*
X302428Y-439322D01*
X292528Y-429422D02*
X302428Y-439322D01*
X510500Y-96798D02*
X524500D01*
Y-127198D02*
Y-96798D01*
X510500Y-127198D02*
X524500D01*
X510500D02*
Y-96798D01*
X366000Y31000D02*
Y99000D01*
Y31000D02*
X434000D01*
Y99000D01*
X366000D02*
X434000D01*
X412500Y112487D02*
X437500D01*
Y144488D01*
X412500D02*
X437500D01*
X412500Y112487D02*
Y144488D01*
D43*
X29000Y-89500D02*
G03*
X29000Y-89500I-5000J0D01*
G01*
X183100Y-349050D02*
X437500D01*
X183100D02*
Y-260550D01*
X437500D01*
Y-349050D02*
Y-260550D01*
X449500Y80050D02*
X515500D01*
X449500Y149950D02*
X515500D01*
Y80050D02*
Y149950D01*
X449500Y80050D02*
Y149950D01*
X119600Y17250D02*
X501000D01*
Y-71250D02*
Y17250D01*
X119600Y-71250D02*
X501000D01*
X119600D02*
Y17250D01*
X-33000Y98500D02*
X33000D01*
X-33000Y-98500D02*
X33000D01*
X-33000D02*
Y98500D01*
X33000Y-98500D02*
Y98500D01*
D44*
X310299Y-264176D02*
D03*
D45*
X310301Y-67624D02*
D03*
M02*
