G04*
G04 #@! TF.GenerationSoftware,Altium Limited,Altium Designer,24.6.1 (21)*
G04*
G04 Layer_Color=255*
%FSLAX44Y44*%
%MOMM*%
G71*
G04*
G04 #@! TF.SameCoordinates,B4F3611A-EC35-413B-BF39-3333FE2D459C*
G04*
G04*
G04 #@! TF.FilePolarity,Positive*
G04*
G01*
G75*
G04:AMPARAMS|DCode=17|XSize=0.972mm|YSize=0.802mm|CornerRadius=0mm|HoleSize=0mm|Usage=FLASHONLY|Rotation=135.000|XOffset=0mm|YOffset=0mm|HoleType=Round|Shape=Rectangle|*
%AMROTATEDRECTD17*
4,1,4,0.6272,-0.0601,0.0601,-0.6272,-0.6272,0.0601,-0.0601,0.6272,0.6272,-0.0601,0.0*
%
%ADD17ROTATEDRECTD17*%

%ADD18R,0.9720X0.8020*%
%ADD19R,0.8020X0.9720*%
G04:AMPARAMS|DCode=20|XSize=0.972mm|YSize=0.802mm|CornerRadius=0mm|HoleSize=0mm|Usage=FLASHONLY|Rotation=45.000|XOffset=0mm|YOffset=0mm|HoleType=Round|Shape=Rectangle|*
%AMROTATEDRECTD20*
4,1,4,-0.0601,-0.6272,-0.6272,-0.0601,0.0601,0.6272,0.6272,0.0601,-0.0601,-0.6272,0.0*
%
%ADD20ROTATEDRECTD20*%

%ADD21R,3.2000X1.6000*%
%ADD22R,2.6582X1.2557*%
%ADD24C,2.0000*%
%ADD32C,1.5000*%
G04:AMPARAMS|DCode=33|XSize=1.6mm|YSize=1.6mm|CornerRadius=0.4mm|HoleSize=0mm|Usage=FLASHONLY|Rotation=180.000|XOffset=0mm|YOffset=0mm|HoleType=Round|Shape=RoundedRectangle|*
%AMROUNDEDRECTD33*
21,1,1.6000,0.8000,0,0,180.0*
21,1,0.8000,1.6000,0,0,180.0*
1,1,0.8000,-0.4000,0.4000*
1,1,0.8000,0.4000,0.4000*
1,1,0.8000,0.4000,-0.4000*
1,1,0.8000,-0.4000,-0.4000*
%
%ADD33ROUNDEDRECTD33*%
%ADD34C,1.6000*%
%ADD35C,1.2500*%
%ADD36R,1.2500X1.2500*%
%ADD37R,1.5000X1.5000*%
D17*
X-295798Y449233D02*
D03*
X-276565Y443435D02*
D03*
X-290000Y430000D02*
D03*
X296258Y-448758D02*
D03*
X277025Y-442960D02*
D03*
X290460Y-429525D02*
D03*
D18*
X-525200Y107000D02*
D03*
X-507500Y116500D02*
D03*
Y97500D02*
D03*
X508650Y-98000D02*
D03*
Y-117000D02*
D03*
X526350Y-107500D02*
D03*
D19*
X107700Y528850D02*
D03*
X117200Y511150D02*
D03*
X98200D02*
D03*
X-97500Y-510000D02*
D03*
X-116500D02*
D03*
X-107000Y-527700D02*
D03*
D20*
X450798Y294233D02*
D03*
X445000Y275000D02*
D03*
X431565Y288435D02*
D03*
X-448758Y-296258D02*
D03*
X-442960Y-277025D02*
D03*
X-429525Y-290460D02*
D03*
D21*
X425000Y65000D02*
D03*
X375000D02*
D03*
D22*
X425000Y142500D02*
D03*
Y114475D02*
D03*
D24*
X438980Y351020D02*
D03*
X421020Y368980D02*
D03*
X371922Y-422500D02*
D03*
X353961Y-440461D02*
D03*
X-60200Y-561334D02*
D03*
X-34800D02*
D03*
X-439134Y-353520D02*
D03*
X-421174Y-371480D02*
D03*
X-559663Y60400D02*
D03*
Y35000D02*
D03*
X-353961Y439797D02*
D03*
X-371922Y421836D02*
D03*
X60400Y561334D02*
D03*
X35000D02*
D03*
X561334Y-35000D02*
D03*
Y-60400D02*
D03*
D32*
X-325000Y460000D02*
D03*
X-307040Y477961D02*
D03*
X307500Y-477500D02*
D03*
X325461Y-459539D02*
D03*
X-477500Y-307500D02*
D03*
X-459539Y-325461D02*
D03*
X555000Y-94600D02*
D03*
Y-120000D02*
D03*
X-552500Y120000D02*
D03*
Y94600D02*
D03*
X-120000Y-555000D02*
D03*
X-94600D02*
D03*
X120400Y556334D02*
D03*
X95000D02*
D03*
X-38100Y88900D02*
D03*
Y63500D02*
D03*
Y38100D02*
D03*
Y12700D02*
D03*
Y-12700D02*
D03*
Y-38100D02*
D03*
Y-63500D02*
D03*
Y-88900D02*
D03*
X38100Y88900D02*
D03*
Y63500D02*
D03*
Y38100D02*
D03*
Y12700D02*
D03*
Y-12700D02*
D03*
Y-38100D02*
D03*
Y-63500D02*
D03*
X478520Y305000D02*
D03*
X460559Y322961D02*
D03*
D33*
X386500Y-292100D02*
D03*
X170600Y-39700D02*
D03*
D34*
X386500Y-317500D02*
D03*
X361100Y-292100D02*
D03*
Y-317500D02*
D03*
X335700Y-292100D02*
D03*
Y-317500D02*
D03*
X310300Y-292100D02*
D03*
Y-317500D02*
D03*
X284900Y-292100D02*
D03*
X259500D02*
D03*
X234100D02*
D03*
X284900Y-317500D02*
D03*
X259500D02*
D03*
X234100D02*
D03*
X450000Y-14300D02*
D03*
X424600D02*
D03*
X399200D02*
D03*
X450000Y-39700D02*
D03*
X424600D02*
D03*
X399200D02*
D03*
X373800Y-14300D02*
D03*
X348400D02*
D03*
X373800Y-39700D02*
D03*
X348400D02*
D03*
X170600Y-14300D02*
D03*
X196000Y-39700D02*
D03*
Y-14300D02*
D03*
X221400Y-39700D02*
D03*
Y-14300D02*
D03*
X246800Y-39700D02*
D03*
Y-14300D02*
D03*
X272200Y-39700D02*
D03*
X297600D02*
D03*
X272200Y-14300D02*
D03*
X297600D02*
D03*
X323000Y-39700D02*
D03*
Y-14300D02*
D03*
D35*
X457100Y114650D02*
D03*
X482500Y89250D02*
D03*
D36*
X507900Y114650D02*
D03*
D37*
X38100Y-88900D02*
D03*
M02*
