M48
;Layer_Color=9474304
;FILE_FORMAT=4:4
METRIC,LZ
;TYPE=PLATED
T01F00S00C0.4000
T02F00S00C0.7500
T03F00S00C0.9000
T04F00S00C1.0000
T05F00S00C1.1000
T06F00S00C3.1000
%
T01
X00186506Y-003075
Y-00297692
Y-002875
Y-002775
X002341Y-0027
Y-0025
X002725Y-00265
Y-002825
X0049624Y001425
X001235Y-000397
T02
X004571Y0011465
X004825Y0008925
X005079Y0011465
T03
X-000381Y-000889
Y-000635
Y-000381
Y-000127
Y000127
Y000381
Y000635
Y000889
X000381
Y000635
Y000381
Y000127
Y-000127
Y-000381
Y-000635
Y-000889
T04
X-00443501Y-0035129
X-0042554Y-0036925
X-0046103Y-0032385
X-0047899Y-00305889
X-001224Y-00555
X-00097
X-000652Y-00562
X-000398
X00305889Y-0047899
X0032385Y-0046103
X0035129Y-004435
X0036925Y-0042554
X00555Y-001224
Y-00097
X00562Y-000652
Y-000398
X-00562Y000398
Y000652
X-00555Y00097
Y001224
X-0036925Y0042554
X-0035129Y004435
X-0032385Y0046103
X-00305889Y00478991
X000398Y00562
X000652
X00097Y00555
X001224
X00425537Y00369251
X00443498Y00351291
X00461034Y00323855
X00478994Y00305895
T05
X002341Y-003175
Y-002921
X002595
X002849
X003103
X003357
X003611
X003865
Y-003175
X003611
X003357
X003103
X002849
X002595
X002468Y-000397
X002214
X00196
Y-000143
X002214
X002468
X002722
Y-000397
X002976
Y-000143
X00323
X003484
X003738
X003992
X004246
X0045
Y-000397
X004246
X003992
X003738
X003484
X00323
X001706
Y-000143
T06
X-0038891Y-0038891
X-0Y-0055
X0038891Y-0038891
X0055Y-0
X-0055
X-0038891Y0038891
X-0Y0055
X00388909Y0038891
M30
