G04*
G04 #@! TF.GenerationSoftware,Altium Limited,Altium Designer,24.6.1 (21)*
G04*
G04 Layer_Color=16711935*
%FSLAX44Y44*%
%MOMM*%
G71*
G04*
G04 #@! TF.SameCoordinates,B4F3611A-EC35-413B-BF39-3333FE2D459C*
G04*
G04*
G04 #@! TF.FilePolarity,Positive*
G04*
G01*
G75*
%ADD39C,0.1000*%
D39*
X-316020Y413472D02*
X-260512Y468980D01*
X-316020Y524488D02*
X-260512Y468980D01*
X-371528D02*
X-316020Y524488D01*
X-371528Y468980D02*
X-316020Y413472D01*
X316480Y-413012D02*
X371988Y-468520D01*
X316480Y-524028D02*
X371988Y-468520D01*
X260972D02*
X316480Y-524028D01*
X260972Y-468520D02*
X316480Y-413012D01*
X-468520Y-371988D02*
X-413012Y-316480D01*
X-524028D02*
X-468520Y-371988D01*
X-524028Y-316480D02*
X-468520Y-260972D01*
X-413012Y-316480D01*
X515750Y-146550D02*
Y-68050D01*
Y-146550D02*
X594250D01*
Y-68050D01*
X515750D02*
X594250D01*
X-591750Y68050D02*
X-513250D01*
X-591750D02*
Y146550D01*
X-513250D01*
Y68050D02*
Y146550D01*
X-68050Y-594250D02*
Y-515750D01*
X-146550Y-594250D02*
X-68050D01*
X-146550D02*
Y-515750D01*
X-68050D01*
X68450Y517084D02*
Y595584D01*
X146950D01*
Y517084D02*
Y595584D01*
X68450Y517084D02*
X146950D01*
X414032Y313980D02*
X469539Y369488D01*
X525047Y313980D01*
X469539Y258472D02*
X525047Y313980D01*
X414032D02*
X469539Y258472D01*
M02*
