G04*
G04 #@! TF.GenerationSoftware,Altium Limited,Altium Designer,24.7.2 (38)*
G04*
G04 Layer_Color=32896*
%FSLAX44Y44*%
%MOMM*%
G71*
G04*
G04 #@! TF.SameCoordinates,368DA5F4-0558-4B36-8F9D-AB2494F627D1*
G04*
G04*
G04 #@! TF.FilePolarity,Positive*
G04*
G01*
G75*
%ADD13C,0.2000*%
%ADD14C,0.2540*%
D13*
X109700Y584250D02*
G03*
X109700Y525750I0J-29250D01*
G01*
D02*
G03*
X109700Y584250I0J29250D01*
G01*
X490697Y335558D02*
G03*
X449331Y294192I-20683J-20683D01*
G01*
D02*
G03*
X490697Y335558I20683J20683D01*
G01*
X-109700Y-584250D02*
G03*
X-109700Y-525750I0J29250D01*
G01*
D02*
G03*
X-109700Y-584250I0J-29250D01*
G01*
X-335553Y490693D02*
G03*
X-294187Y449327I20683J-20683D01*
G01*
D02*
G03*
X-335553Y490693I-20683J20683D01*
G01*
X294187Y-449327D02*
G03*
X335553Y-490693I20683J-20683D01*
G01*
D02*
G03*
X294187Y-449327I-20683J20683D01*
G01*
X-449327Y-294187D02*
G03*
X-490693Y-335553I-20683J-20683D01*
G01*
D02*
G03*
X-449327Y-294187I20683J20683D01*
G01*
X584250Y-109700D02*
G03*
X525750Y-109700I-29250J0D01*
G01*
D02*
G03*
X584250Y-109700I29250J0D01*
G01*
X-525750Y109700D02*
G03*
X-584250Y109700I-29250J0D01*
G01*
D02*
G03*
X-525750Y109700I29250J0D01*
G01*
D14*
X-309828Y424379D02*
X-305116Y429092D01*
X-305116Y433804D01*
X-309828Y433804D01*
X-314541Y429092D01*
X-311006Y432626D01*
X-306294Y427914D01*
X281101Y-462542D02*
X274032Y-469611D01*
X276388Y-467254D01*
X276388Y-457829D01*
X276388Y-464898D01*
X269319Y-464898D01*
X307472Y-436161D02*
X312184Y-431448D01*
X312184Y-426736D01*
X307472Y-426736D01*
X302759Y-431448D01*
X306294Y-427914D01*
X311006Y-432626D01*
X-269319Y464898D02*
X-276388Y457829D01*
X-274032Y460186D01*
X-274032Y469611D01*
X-274032Y462542D01*
X-281101Y462542D01*
X469611Y276388D02*
X462542Y269319D01*
X464898Y271676D01*
X464898Y281101D01*
X464898Y274032D01*
X457829Y274032D01*
X429092Y302759D02*
X433804Y307472D01*
X433804Y312184D01*
X429092Y312184D01*
X424379Y307472D01*
X427914Y311006D01*
X432626Y306294D01*
X89332Y517502D02*
Y524166D01*
X86000Y527498D01*
X82668Y524166D01*
Y517502D01*
Y522500D01*
X89332D01*
X136632Y527498D02*
Y517502D01*
Y520834D01*
X129968Y527498D01*
X134966Y522500D01*
X129968Y517502D01*
X-129968Y-517502D02*
Y-527498D01*
Y-524166D01*
X-136632Y-517502D01*
X-131634Y-522500D01*
X-136632Y-527498D01*
X-82668Y-527498D02*
Y-520834D01*
X-86000Y-517502D01*
X-89332Y-520834D01*
Y-527498D01*
Y-522500D01*
X-82668D01*
X525832Y-90998D02*
Y-84334D01*
X522500Y-81002D01*
X519168Y-84334D01*
Y-90998D01*
Y-86000D01*
X525832D01*
Y-128302D02*
Y-138298D01*
Y-134966D01*
X519168Y-128302D01*
X524166Y-133300D01*
X519168Y-138298D01*
X-519168Y138298D02*
Y128302D01*
Y131634D01*
X-525832Y138298D01*
X-520834Y133300D01*
X-525832Y128302D01*
X-519168Y81002D02*
Y87666D01*
X-522500Y90998D01*
X-525832Y87666D01*
Y81002D01*
Y86000D01*
X-519168D01*
X-464898Y-269319D02*
X-457829Y-276388D01*
X-460186Y-274032D01*
X-469611Y-274032D01*
X-462542Y-274032D01*
X-462542Y-281101D01*
X-424379Y-309828D02*
X-429092Y-305116D01*
X-433804Y-305116D01*
X-433804Y-309828D01*
X-429092Y-314541D01*
X-432626Y-311006D01*
X-427914Y-306294D01*
X-231213Y377621D02*
X-220441Y388393D01*
X-225827Y393780D01*
X-229418D01*
X-233009Y390189D01*
Y386598D01*
X-227623Y381212D01*
X-231213Y399166D02*
X-241986Y388393D01*
X-236600Y393780D01*
X-243782Y400962D01*
X-238395Y406348D01*
X-249168Y395575D01*
X-247373Y415326D02*
X-243782Y411735D01*
Y408144D01*
X-250964Y400962D01*
X-254555D01*
X-258146Y404553D01*
Y408144D01*
X-250964Y415326D01*
X-247373D01*
X-252759Y420712D02*
X-259941Y427894D01*
X-256350Y424303D01*
X-267123Y413530D01*
X-268918Y436871D02*
X-265327Y433280D01*
Y429689D01*
X-272509Y422507D01*
X-276100D01*
X-279691Y426098D01*
Y429689D01*
X-272509Y436871D01*
X-268918D01*
X-276100Y440462D02*
Y444053D01*
X-279691Y447644D01*
X-283282D01*
X-285077Y445849D01*
Y442257D01*
X-288668D01*
X-290464Y440462D01*
Y436871D01*
X-286873Y433280D01*
X-283282D01*
X-281487Y435076D01*
Y438667D01*
X-277896D01*
X-276100Y440462D01*
X-281487Y438667D02*
X-285077Y442257D01*
X-431834Y102282D02*
Y117517D01*
X-439451D01*
X-441991Y114978D01*
Y109900D01*
X-439451Y107361D01*
X-431834D01*
X-447069Y117517D02*
Y102282D01*
Y109900D01*
X-457226D01*
Y117517D01*
Y102282D01*
X-469922Y117517D02*
X-464843D01*
X-462304Y114978D01*
Y104822D01*
X-464843Y102282D01*
X-469922D01*
X-472461Y104822D01*
Y114978D01*
X-469922Y117517D01*
X-477539D02*
X-487696D01*
X-482617D01*
Y102282D01*
X-500392Y117517D02*
X-495313D01*
X-492774Y114978D01*
Y104822D01*
X-495313Y102282D01*
X-500392D01*
X-502931Y104822D01*
Y114978D01*
X-500392Y117517D01*
X-508009D02*
X-518166D01*
Y114978D01*
X-508009Y104822D01*
Y102282D01*
X-378081Y-233253D02*
X-388854Y-222480D01*
X-394240Y-227866D01*
Y-231457D01*
X-390649Y-235048D01*
X-387058D01*
X-381672Y-229662D01*
X-399627Y-233253D02*
X-388854Y-244026D01*
X-394240Y-238639D01*
X-401422Y-245821D01*
X-406809Y-240435D01*
X-396036Y-251208D01*
X-415786Y-249412D02*
X-412195Y-245821D01*
X-408604D01*
X-401422Y-253003D01*
Y-256594D01*
X-405013Y-260185D01*
X-408604D01*
X-415786Y-253003D01*
Y-249412D01*
X-421172Y-254799D02*
X-428354Y-261980D01*
X-424763Y-258389D01*
X-413991Y-269162D01*
X-437332Y-270958D02*
X-433741Y-267367D01*
X-430150D01*
X-422968Y-274549D01*
Y-278140D01*
X-426559Y-281731D01*
X-430150D01*
X-437332Y-274549D01*
Y-270958D01*
X-449900Y-283526D02*
X-444514Y-281731D01*
X-437332D01*
X-433741Y-285322D01*
Y-288913D01*
X-437332Y-292503D01*
X-440923D01*
X-442718Y-290708D01*
Y-287117D01*
X-437332Y-281731D01*
X-66534Y-512118D02*
Y-496883D01*
X-74152D01*
X-76691Y-499422D01*
Y-504500D01*
X-74152Y-507039D01*
X-66534D01*
X-81769Y-496883D02*
Y-512118D01*
Y-504500D01*
X-91926D01*
Y-496883D01*
Y-512118D01*
X-104622Y-496883D02*
X-99543D01*
X-97004Y-499422D01*
Y-509578D01*
X-99543Y-512118D01*
X-104622D01*
X-107161Y-509578D01*
Y-499422D01*
X-104622Y-496883D01*
X-112239D02*
X-122396D01*
X-117317D01*
Y-512118D01*
X-135092Y-496883D02*
X-130014D01*
X-127474Y-499422D01*
Y-509578D01*
X-130014Y-512118D01*
X-135092D01*
X-137631Y-509578D01*
Y-499422D01*
X-135092Y-496883D01*
X-152866D02*
X-142709D01*
Y-504500D01*
X-147788Y-501961D01*
X-150327D01*
X-152866Y-504500D01*
Y-509578D01*
X-150327Y-512118D01*
X-145248D01*
X-142709Y-509578D01*
X283526Y-447400D02*
X294299Y-436627D01*
X288913Y-431241D01*
X285322D01*
X281731Y-434832D01*
Y-438423D01*
X287117Y-443809D01*
X283526Y-425854D02*
X272753Y-436627D01*
X278140Y-431241D01*
X270958Y-424059D01*
X276344Y-418672D01*
X265571Y-429445D01*
X267367Y-409695D02*
X270958Y-413286D01*
Y-416877D01*
X263776Y-424059D01*
X260185D01*
X256594Y-420468D01*
Y-416877D01*
X263776Y-409695D01*
X267367D01*
X261980Y-404309D02*
X254799Y-397127D01*
X258389Y-400718D01*
X247617Y-411491D01*
X245821Y-388149D02*
X249412Y-391740D01*
Y-395331D01*
X242230Y-402513D01*
X238639D01*
X235048Y-398922D01*
Y-395331D01*
X242230Y-388149D01*
X245821D01*
X224275D02*
X235048Y-377377D01*
Y-388149D01*
X227866Y-380967D01*
X518166Y-117317D02*
Y-102083D01*
X510549D01*
X508009Y-104622D01*
Y-109700D01*
X510549Y-112239D01*
X518166D01*
X502931Y-102083D02*
Y-117317D01*
Y-109700D01*
X492774D01*
Y-102083D01*
Y-117317D01*
X480078Y-102083D02*
X485157D01*
X487696Y-104622D01*
Y-114778D01*
X485157Y-117317D01*
X480078D01*
X477539Y-114778D01*
Y-104622D01*
X480078Y-102083D01*
X472461D02*
X462304D01*
X467383D01*
Y-117317D01*
X449608Y-102083D02*
X454687D01*
X457226Y-104622D01*
Y-114778D01*
X454687Y-117317D01*
X449608D01*
X447069Y-114778D01*
Y-104622D01*
X449608Y-102083D01*
X441991Y-104622D02*
X439451Y-102083D01*
X434373D01*
X431834Y-104622D01*
Y-107161D01*
X434373Y-109700D01*
X436912D01*
X434373D01*
X431834Y-112239D01*
Y-114778D01*
X434373Y-117317D01*
X439451D01*
X441991Y-114778D01*
X448884Y283531D02*
X438111Y294304D01*
X432724Y288917D01*
Y285326D01*
X436315Y281735D01*
X439906D01*
X445293Y287122D01*
X427338Y283531D02*
X438111Y272758D01*
X432724Y278145D01*
X425543Y270963D01*
X420156Y276349D01*
X430929Y265576D01*
X411179Y267372D02*
X414770Y270963D01*
X418361D01*
X425543Y263781D01*
Y260190D01*
X421952Y256599D01*
X418361D01*
X411179Y263781D01*
Y267372D01*
X405792Y261985D02*
X398610Y254804D01*
X402201Y258394D01*
X412974Y247622D01*
X389633Y245826D02*
X393224Y249417D01*
X396815D01*
X403997Y242235D01*
Y238644D01*
X400406Y235053D01*
X396815D01*
X389633Y242235D01*
Y245826D01*
X387838Y222485D02*
X395020Y229667D01*
X380656D01*
X378860Y231462D01*
Y235053D01*
X382451Y238644D01*
X386042D01*
X150327Y496883D02*
Y512118D01*
X142709D01*
X140170Y509578D01*
Y504500D01*
X142709Y501961D01*
X150327D01*
X135092Y512118D02*
Y496883D01*
Y504500D01*
X124935D01*
Y512118D01*
Y496883D01*
X112239Y512118D02*
X117317D01*
X119857Y509578D01*
Y499422D01*
X117317Y496883D01*
X112239D01*
X109700Y499422D01*
Y509578D01*
X112239Y512118D01*
X104622D02*
X94465D01*
X99543D01*
Y496883D01*
X81769Y512118D02*
X86847D01*
X89387Y509578D01*
Y499422D01*
X86847Y496883D01*
X81769D01*
X79230Y499422D01*
Y509578D01*
X81769Y512118D01*
X74152Y496883D02*
X69073D01*
X71612D01*
Y512118D01*
X74152Y509578D01*
M02*
