G04*
G04 #@! TF.GenerationSoftware,Altium Limited,Altium Designer,24.6.1 (21)*
G04*
G04 Layer_Color=16711935*
%FSLAX44Y44*%
%MOMM*%
G71*
G04*
G04 #@! TF.SameCoordinates,B4F3611A-EC35-413B-BF39-3333FE2D459C*
G04*
G04*
G04 #@! TF.FilePolarity,Positive*
G04*
G01*
G75*
%ADD13C,0.2000*%
G36*
X436212Y362839D02*
X436256Y362785D01*
X436315Y362726D01*
X436369Y362662D01*
X436497Y362525D01*
X436614Y362378D01*
X436732Y362231D01*
X436776Y362157D01*
X436820Y362094D01*
X436825Y362089D01*
X436835Y362069D01*
X436850Y362045D01*
X436864Y362010D01*
X436889Y361966D01*
X436918Y361917D01*
X436977Y361790D01*
X437036Y361643D01*
X437090Y361481D01*
X437134Y361299D01*
X437159Y361108D01*
Y361098D01*
Y361079D01*
X437163Y361044D01*
Y360995D01*
Y360937D01*
X437159Y360863D01*
Y360784D01*
X437149Y360696D01*
X437139Y360598D01*
X437124Y360495D01*
X437105Y360387D01*
X437080Y360275D01*
X437011Y360039D01*
X436918Y359799D01*
X436913Y359794D01*
X436908Y359770D01*
X436884Y359735D01*
X436864Y359686D01*
X436835Y359627D01*
X436796Y359559D01*
X436752Y359485D01*
X436702Y359397D01*
X436639Y359304D01*
X436570Y359206D01*
X436497Y359103D01*
X436418Y358995D01*
X436335Y358882D01*
X436237Y358774D01*
X436026Y358544D01*
X436021Y358539D01*
X436001Y358519D01*
X435977Y358495D01*
X435938Y358456D01*
X435889Y358416D01*
X435835Y358362D01*
X435771Y358308D01*
X435702Y358250D01*
X435545Y358122D01*
X435369Y357995D01*
X435182Y357867D01*
X434986Y357749D01*
X434981Y357744D01*
X434962Y357735D01*
X434933Y357725D01*
X434903Y357705D01*
X434854Y357686D01*
X434800Y357661D01*
X434673Y357602D01*
X434525Y357543D01*
X434359Y357485D01*
X434192Y357436D01*
X434021Y357401D01*
X434016Y357396D01*
X434001Y357401D01*
X433976Y357396D01*
X433942Y357392D01*
X433864Y357382D01*
X433751Y357377D01*
X433623Y357367D01*
X433486D01*
X433344Y357382D01*
X433197Y357401D01*
X433192Y357406D01*
X433182D01*
X433133Y357416D01*
X433059Y357440D01*
X432961Y357470D01*
X432849Y357514D01*
X432716Y357568D01*
X432574Y357642D01*
X432427Y357720D01*
X432422Y357725D01*
X432407Y357730D01*
X432393Y357744D01*
X432363Y357764D01*
X432329Y357789D01*
X432280Y357818D01*
X432236Y357852D01*
X432187Y357892D01*
X432064Y357985D01*
X431927Y358093D01*
X431785Y358225D01*
X431633Y358367D01*
X430000Y360000D01*
X434525Y364526D01*
X436212Y362839D01*
D02*
G37*
G36*
X439012Y359392D02*
X439022D01*
X439046Y359387D01*
X439081Y359382D01*
X439134Y359377D01*
X439198Y359363D01*
X439277Y359343D01*
X439360Y359318D01*
X439458Y359289D01*
X439556Y359250D01*
X439664Y359201D01*
X439777Y359147D01*
X439894Y359078D01*
X440017Y359005D01*
X440135Y358916D01*
X440257Y358813D01*
X440380Y358701D01*
X440444Y358637D01*
X440483Y358588D01*
X440532Y358529D01*
X440586Y358456D01*
X440650Y358372D01*
X440709Y358284D01*
X440772Y358181D01*
X440831Y358073D01*
X440890Y357955D01*
X440939Y357838D01*
X440983Y357705D01*
X441017Y357573D01*
X441042Y357440D01*
X441052Y357303D01*
Y357293D01*
Y357274D01*
X441047Y357230D01*
Y357181D01*
X441042Y357117D01*
X441032Y357038D01*
X441017Y356955D01*
X440993Y356862D01*
X440968Y356769D01*
X440934Y356666D01*
X440895Y356558D01*
X440846Y356450D01*
X440782Y356337D01*
X440713Y356229D01*
X440630Y356126D01*
X440537Y356023D01*
X440532Y356019D01*
X440527Y356014D01*
X440512Y355999D01*
X440493Y355979D01*
X440434Y355930D01*
X440355Y355872D01*
X440257Y355803D01*
X440149Y355734D01*
X440027Y355661D01*
X439890Y355602D01*
X439885Y355597D01*
X439875D01*
X439855Y355587D01*
X439826Y355577D01*
X439743Y355553D01*
X439635Y355523D01*
X439497Y355494D01*
X439340Y355465D01*
X439169Y355440D01*
X438968Y355425D01*
X438958D01*
X438943Y355420D01*
X438909Y355425D01*
X438865Y355420D01*
X438806D01*
X438737D01*
X438654Y355415D01*
X438561Y355420D01*
X438448Y355425D01*
X438326Y355430D01*
X438188D01*
X438041Y355440D01*
X437879Y355445D01*
X437708Y355460D01*
X437517Y355474D01*
X437315Y355489D01*
X437306D01*
X437276D01*
X437227Y355499D01*
X437168D01*
X437090Y355509D01*
X437006Y355513D01*
X436815Y355528D01*
X436614Y355543D01*
X436413Y355548D01*
X436320Y355553D01*
X436237Y355558D01*
X436158D01*
X436099D01*
X436090D01*
X436050D01*
X435997Y355553D01*
X435923Y355548D01*
X435840Y355543D01*
X435751Y355533D01*
X435565Y355504D01*
X437796Y353273D01*
X437262Y352738D01*
X434266Y355734D01*
X434275Y355744D01*
X434300Y355769D01*
X434339Y355808D01*
X434393Y355852D01*
X434457Y355906D01*
X434535Y355955D01*
X434619Y356009D01*
X434712Y356053D01*
X434717Y356058D01*
X434731Y356063D01*
X434751Y356073D01*
X434785Y356087D01*
X434825Y356097D01*
X434874Y356117D01*
X434991Y356156D01*
X435134Y356200D01*
X435300Y356239D01*
X435482Y356273D01*
X435678Y356293D01*
X435688D01*
X435702Y356298D01*
X435732D01*
X435781D01*
X435830D01*
X435898D01*
X435972Y356303D01*
X436060D01*
X436158D01*
X436261Y356298D01*
X436379D01*
X436506Y356288D01*
X436639Y356283D01*
X436781Y356269D01*
X436928Y356259D01*
X437090Y356244D01*
X437105Y356239D01*
X437154D01*
X437217Y356234D01*
X437310Y356229D01*
X437418Y356220D01*
X437546Y356210D01*
X437688Y356195D01*
X437840Y356190D01*
X438159Y356175D01*
X438482D01*
X438639D01*
X438791Y356180D01*
X438929Y356190D01*
X439051Y356205D01*
X439061D01*
X439076Y356210D01*
X439110Y356215D01*
X439149Y356225D01*
X439208Y356234D01*
X439262Y356249D01*
X439399Y356288D01*
X439551Y356342D01*
X439708Y356411D01*
X439855Y356499D01*
X439919Y356553D01*
X439983Y356607D01*
X439988Y356612D01*
X439997Y356622D01*
X440017Y356641D01*
X440032Y356666D01*
X440061Y356695D01*
X440086Y356739D01*
X440145Y356828D01*
X440203Y356945D01*
X440252Y357083D01*
X440277Y357156D01*
X440287Y357235D01*
X440297Y357313D01*
Y357401D01*
Y357411D01*
Y357421D01*
X440292Y357445D01*
X440287Y357480D01*
X440282Y357524D01*
X440272Y357573D01*
X440248Y357686D01*
X440194Y357818D01*
X440130Y357960D01*
X440032Y358107D01*
X439973Y358186D01*
X439865Y358294D01*
X439831Y358318D01*
X439796Y358353D01*
X439747Y358382D01*
X439645Y358456D01*
X439512Y358529D01*
X439360Y358593D01*
X439277Y358617D01*
X439193Y358642D01*
X439105Y358652D01*
X439012Y358657D01*
X439002D01*
X438992D01*
X438968Y358652D01*
X438929D01*
X438889Y358642D01*
X438840Y358632D01*
X438782Y358622D01*
X438723Y358603D01*
X438654Y358583D01*
X438585Y358554D01*
X438428Y358475D01*
X438272Y358377D01*
X438193Y358308D01*
X438110Y358235D01*
X437600Y358862D01*
X437610Y358872D01*
X437634Y358887D01*
X437668Y358912D01*
X437718Y358951D01*
X437781Y358995D01*
X437860Y359044D01*
X437943Y359098D01*
X438041Y359147D01*
X438139Y359196D01*
X438252Y359250D01*
X438370Y359289D01*
X438487Y359328D01*
X438620Y359363D01*
X438747Y359382D01*
X438880Y359397D01*
X439012Y359392D01*
D02*
G37*
G36*
X367467Y-436006D02*
X365780Y-437692D01*
X365727Y-437737D01*
X365668Y-437795D01*
X365604Y-437849D01*
X365467Y-437977D01*
X365320Y-438094D01*
X365172Y-438212D01*
X365099Y-438256D01*
X365035Y-438300D01*
X365030Y-438305D01*
X365011Y-438315D01*
X364986Y-438330D01*
X364952Y-438345D01*
X364908Y-438369D01*
X364859Y-438399D01*
X364731Y-438457D01*
X364584Y-438516D01*
X364422Y-438570D01*
X364241Y-438614D01*
X364050Y-438639D01*
X364040D01*
X364020D01*
X363986Y-438644D01*
X363937D01*
X363878D01*
X363805Y-438639D01*
X363726D01*
X363638Y-438629D01*
X363540Y-438619D01*
X363437Y-438604D01*
X363329Y-438585D01*
X363216Y-438560D01*
X362981Y-438492D01*
X362740Y-438399D01*
X362735Y-438394D01*
X362711Y-438389D01*
X362677Y-438364D01*
X362628Y-438345D01*
X362569Y-438315D01*
X362500Y-438276D01*
X362427Y-438232D01*
X362338Y-438183D01*
X362245Y-438119D01*
X362147Y-438050D01*
X362044Y-437977D01*
X361936Y-437898D01*
X361824Y-437815D01*
X361716Y-437717D01*
X361485Y-437506D01*
X361480Y-437501D01*
X361461Y-437482D01*
X361436Y-437457D01*
X361397Y-437418D01*
X361358Y-437369D01*
X361304Y-437315D01*
X361250Y-437251D01*
X361191Y-437183D01*
X361064Y-437026D01*
X360936Y-436849D01*
X360809Y-436663D01*
X360691Y-436467D01*
X360686Y-436462D01*
X360676Y-436442D01*
X360666Y-436413D01*
X360647Y-436383D01*
X360627Y-436334D01*
X360603Y-436280D01*
X360544Y-436153D01*
X360485Y-436006D01*
X360426Y-435839D01*
X360377Y-435672D01*
X360343Y-435501D01*
X360338Y-435496D01*
X360343Y-435481D01*
X360338Y-435457D01*
X360333Y-435422D01*
X360323Y-435344D01*
X360318Y-435231D01*
X360308Y-435103D01*
Y-434966D01*
X360323Y-434824D01*
X360343Y-434677D01*
X360348Y-434672D01*
Y-434662D01*
X360358Y-434613D01*
X360382Y-434540D01*
X360411Y-434442D01*
X360456Y-434329D01*
X360509Y-434196D01*
X360583Y-434054D01*
X360662Y-433907D01*
X360666Y-433902D01*
X360671Y-433887D01*
X360686Y-433873D01*
X360706Y-433843D01*
X360730Y-433809D01*
X360760Y-433760D01*
X360794Y-433716D01*
X360833Y-433667D01*
X360926Y-433544D01*
X361034Y-433407D01*
X361166Y-433265D01*
X361309Y-433113D01*
X362942Y-431480D01*
X367467Y-436006D01*
D02*
G37*
G36*
X360382Y-437227D02*
X361245Y-442228D01*
X360789Y-442684D01*
X357857Y-439752D01*
X357244Y-440365D01*
X356734Y-439855D01*
X357347Y-439242D01*
X356263Y-438158D01*
X356817Y-437604D01*
X357901Y-438688D01*
X359872Y-436717D01*
X360382Y-437227D01*
D02*
G37*
G36*
X-55550Y-561340D02*
X-55474Y-561347D01*
X-55391Y-561361D01*
X-55294Y-561375D01*
X-55190Y-561396D01*
X-55079Y-561417D01*
X-54961Y-561451D01*
X-54843Y-561493D01*
X-54725Y-561542D01*
X-54607Y-561597D01*
X-54490Y-561660D01*
X-54379Y-561736D01*
X-54268Y-561819D01*
X-54261Y-561826D01*
X-54247Y-561840D01*
X-54219Y-561867D01*
X-54184Y-561909D01*
X-54136Y-561958D01*
X-54087Y-562013D01*
X-54039Y-562082D01*
X-53983Y-562166D01*
X-53928Y-562249D01*
X-53872Y-562346D01*
X-53824Y-562457D01*
X-53775Y-562568D01*
X-53727Y-562693D01*
X-53692Y-562824D01*
X-53664Y-562970D01*
X-53644Y-563116D01*
X-54469Y-563178D01*
Y-563171D01*
X-54476Y-563150D01*
X-54483Y-563123D01*
X-54490Y-563081D01*
X-54496Y-563032D01*
X-54517Y-562970D01*
X-54552Y-562838D01*
X-54607Y-562693D01*
X-54684Y-562540D01*
X-54774Y-562401D01*
X-54829Y-562339D01*
X-54885Y-562277D01*
X-54892D01*
X-54899Y-562263D01*
X-54920Y-562249D01*
X-54947Y-562228D01*
X-55017Y-562179D01*
X-55114Y-562131D01*
X-55231Y-562076D01*
X-55370Y-562027D01*
X-55523Y-561992D01*
X-55606Y-561985D01*
X-55696Y-561978D01*
X-55752D01*
X-55793Y-561985D01*
X-55842Y-561992D01*
X-55897Y-561999D01*
X-56029Y-562034D01*
X-56182Y-562082D01*
X-56258Y-562117D01*
X-56341Y-562159D01*
X-56424Y-562207D01*
X-56501Y-562263D01*
X-56577Y-562325D01*
X-56653Y-562401D01*
X-56660Y-562408D01*
X-56667Y-562422D01*
X-56688Y-562443D01*
X-56715Y-562478D01*
X-56743Y-562526D01*
X-56778Y-562575D01*
X-56813Y-562637D01*
X-56854Y-562706D01*
X-56889Y-562783D01*
X-56923Y-562866D01*
X-56958Y-562963D01*
X-56986Y-563060D01*
X-57014Y-563171D01*
X-57034Y-563289D01*
X-57041Y-563407D01*
X-57048Y-563539D01*
Y-563546D01*
Y-563566D01*
Y-563601D01*
X-57041Y-563650D01*
X-57034Y-563705D01*
X-57028Y-563774D01*
X-57014Y-563844D01*
X-57000Y-563927D01*
X-56958Y-564093D01*
X-56889Y-564274D01*
X-56847Y-564357D01*
X-56792Y-564440D01*
X-56736Y-564523D01*
X-56667Y-564600D01*
X-56660Y-564607D01*
X-56653Y-564613D01*
X-56625Y-564634D01*
X-56597Y-564662D01*
X-56563Y-564690D01*
X-56514Y-564724D01*
X-56466Y-564759D01*
X-56403Y-564801D01*
X-56334Y-564835D01*
X-56265Y-564870D01*
X-56091Y-564932D01*
X-56001Y-564960D01*
X-55897Y-564981D01*
X-55793Y-564988D01*
X-55682Y-564995D01*
X-55620D01*
X-55544Y-564988D01*
X-55453Y-564974D01*
X-55342Y-564953D01*
X-55225Y-564919D01*
X-55107Y-564877D01*
X-54989Y-564814D01*
X-54975Y-564808D01*
X-54940Y-564787D01*
X-54885Y-564745D01*
X-54816Y-564697D01*
X-54746Y-564627D01*
X-54663Y-564551D01*
X-54587Y-564461D01*
X-54517Y-564364D01*
X-53782Y-564468D01*
X-54399Y-567755D01*
X-57582D01*
Y-567006D01*
X-55023D01*
X-54684Y-565286D01*
X-54691Y-565293D01*
X-54711Y-565307D01*
X-54739Y-565321D01*
X-54781Y-565349D01*
X-54836Y-565376D01*
X-54899Y-565411D01*
X-54968Y-565452D01*
X-55051Y-565487D01*
X-55134Y-565522D01*
X-55231Y-565563D01*
X-55433Y-565626D01*
X-55544Y-565654D01*
X-55655Y-565674D01*
X-55772Y-565681D01*
X-55890Y-565688D01*
X-55925D01*
X-55974Y-565681D01*
X-56029D01*
X-56098Y-565667D01*
X-56182Y-565661D01*
X-56279Y-565640D01*
X-56376Y-565619D01*
X-56487Y-565584D01*
X-56597Y-565550D01*
X-56715Y-565501D01*
X-56833Y-565446D01*
X-56951Y-565376D01*
X-57069Y-565300D01*
X-57187Y-565210D01*
X-57298Y-565106D01*
X-57305Y-565099D01*
X-57326Y-565078D01*
X-57353Y-565043D01*
X-57388Y-565002D01*
X-57437Y-564946D01*
X-57485Y-564870D01*
X-57534Y-564794D01*
X-57589Y-564704D01*
X-57645Y-564600D01*
X-57693Y-564482D01*
X-57749Y-564364D01*
X-57790Y-564225D01*
X-57825Y-564086D01*
X-57853Y-563934D01*
X-57873Y-563774D01*
X-57880Y-563608D01*
Y-563601D01*
Y-563566D01*
Y-563525D01*
X-57873Y-563462D01*
X-57867Y-563386D01*
X-57853Y-563303D01*
X-57839Y-563206D01*
X-57818Y-563095D01*
X-57790Y-562984D01*
X-57756Y-562859D01*
X-57714Y-562734D01*
X-57665Y-562609D01*
X-57610Y-562485D01*
X-57541Y-562353D01*
X-57464Y-562228D01*
X-57374Y-562110D01*
X-57367Y-562103D01*
X-57346Y-562076D01*
X-57312Y-562041D01*
X-57263Y-561992D01*
X-57201Y-561930D01*
X-57125Y-561867D01*
X-57034Y-561791D01*
X-56930Y-561722D01*
X-56819Y-561652D01*
X-56695Y-561576D01*
X-56556Y-561514D01*
X-56403Y-561458D01*
X-56244Y-561403D01*
X-56071Y-561368D01*
X-55890Y-561340D01*
X-55696Y-561334D01*
X-55613D01*
X-55550Y-561340D01*
D02*
G37*
G36*
X-47500Y-567838D02*
X-49885D01*
X-49955Y-567831D01*
X-50038D01*
X-50121Y-567824D01*
X-50308Y-567817D01*
X-50496Y-567796D01*
X-50683Y-567775D01*
X-50766Y-567755D01*
X-50842Y-567741D01*
X-50849D01*
X-50870Y-567734D01*
X-50898Y-567727D01*
X-50932Y-567713D01*
X-50981Y-567699D01*
X-51036Y-567685D01*
X-51168Y-567637D01*
X-51314Y-567574D01*
X-51466Y-567498D01*
X-51626Y-567401D01*
X-51778Y-567283D01*
X-51785Y-567276D01*
X-51799Y-567262D01*
X-51827Y-567242D01*
X-51862Y-567207D01*
X-51903Y-567165D01*
X-51952Y-567110D01*
X-52007Y-567054D01*
X-52063Y-566985D01*
X-52125Y-566909D01*
X-52187Y-566825D01*
X-52250Y-566735D01*
X-52312Y-566638D01*
X-52430Y-566423D01*
X-52534Y-566188D01*
Y-566181D01*
X-52548Y-566160D01*
X-52555Y-566118D01*
X-52576Y-566070D01*
X-52597Y-566007D01*
X-52617Y-565931D01*
X-52638Y-565848D01*
X-52666Y-565751D01*
X-52687Y-565640D01*
X-52708Y-565522D01*
X-52728Y-565397D01*
X-52749Y-565265D01*
X-52770Y-565127D01*
X-52777Y-564981D01*
X-52791Y-564669D01*
Y-564662D01*
Y-564634D01*
Y-564600D01*
Y-564544D01*
X-52784Y-564482D01*
Y-564405D01*
X-52777Y-564322D01*
X-52770Y-564232D01*
X-52749Y-564031D01*
X-52714Y-563816D01*
X-52673Y-563594D01*
X-52617Y-563372D01*
Y-563365D01*
X-52610Y-563344D01*
X-52597Y-563317D01*
X-52590Y-563282D01*
X-52569Y-563233D01*
X-52548Y-563178D01*
X-52499Y-563046D01*
X-52437Y-562901D01*
X-52361Y-562741D01*
X-52277Y-562589D01*
X-52181Y-562443D01*
Y-562436D01*
X-52167Y-562429D01*
X-52153Y-562408D01*
X-52132Y-562381D01*
X-52083Y-562318D01*
X-52007Y-562235D01*
X-51924Y-562138D01*
X-51827Y-562041D01*
X-51716Y-561951D01*
X-51598Y-561861D01*
X-51591D01*
X-51584Y-561854D01*
X-51543Y-561826D01*
X-51473Y-561791D01*
X-51383Y-561743D01*
X-51272Y-561694D01*
X-51140Y-561639D01*
X-50988Y-561590D01*
X-50828Y-561542D01*
X-50821D01*
X-50807Y-561535D01*
X-50787D01*
X-50752Y-561528D01*
X-50710Y-561521D01*
X-50655Y-561507D01*
X-50599Y-561500D01*
X-50537Y-561493D01*
X-50384Y-561472D01*
X-50211Y-561451D01*
X-50017Y-561445D01*
X-49809Y-561438D01*
X-47500D01*
Y-567838D01*
D02*
G37*
G36*
X-433571Y-359955D02*
X-433424Y-359975D01*
X-433419Y-359980D01*
X-433410D01*
X-433361Y-359990D01*
X-433287Y-360014D01*
X-433189Y-360043D01*
X-433076Y-360088D01*
X-432944Y-360141D01*
X-432802Y-360215D01*
X-432654Y-360294D01*
X-432650Y-360298D01*
X-432635Y-360303D01*
X-432620Y-360318D01*
X-432591Y-360338D01*
X-432556Y-360362D01*
X-432507Y-360392D01*
X-432463Y-360426D01*
X-432414Y-360465D01*
X-432292Y-360558D01*
X-432154Y-360666D01*
X-432012Y-360799D01*
X-431860Y-360941D01*
X-430227Y-362574D01*
X-434753Y-367099D01*
X-436440Y-365412D01*
X-436484Y-365359D01*
X-436543Y-365300D01*
X-436597Y-365236D01*
X-436724Y-365099D01*
X-436842Y-364952D01*
X-436960Y-364804D01*
X-437004Y-364731D01*
X-437048Y-364667D01*
X-437053Y-364662D01*
X-437062Y-364643D01*
X-437077Y-364618D01*
X-437092Y-364584D01*
X-437116Y-364540D01*
X-437146Y-364491D01*
X-437205Y-364363D01*
X-437264Y-364216D01*
X-437318Y-364054D01*
X-437362Y-363873D01*
X-437386Y-363682D01*
Y-363672D01*
Y-363652D01*
X-437391Y-363618D01*
Y-363569D01*
Y-363510D01*
X-437386Y-363437D01*
Y-363358D01*
X-437376Y-363270D01*
X-437366Y-363172D01*
X-437352Y-363069D01*
X-437332Y-362961D01*
X-437308Y-362848D01*
X-437239Y-362613D01*
X-437146Y-362373D01*
X-437141Y-362368D01*
X-437136Y-362343D01*
X-437112Y-362309D01*
X-437092Y-362260D01*
X-437062Y-362201D01*
X-437023Y-362132D01*
X-436979Y-362059D01*
X-436930Y-361970D01*
X-436866Y-361877D01*
X-436798Y-361779D01*
X-436724Y-361676D01*
X-436646Y-361568D01*
X-436562Y-361456D01*
X-436464Y-361348D01*
X-436254Y-361117D01*
X-436249Y-361112D01*
X-436229Y-361093D01*
X-436204Y-361068D01*
X-436165Y-361029D01*
X-436116Y-360990D01*
X-436062Y-360936D01*
X-435998Y-360882D01*
X-435930Y-360823D01*
X-435773Y-360696D01*
X-435597Y-360568D01*
X-435410Y-360441D01*
X-435214Y-360323D01*
X-435209Y-360318D01*
X-435190Y-360308D01*
X-435160Y-360298D01*
X-435131Y-360279D01*
X-435082Y-360259D01*
X-435028Y-360235D01*
X-434900Y-360176D01*
X-434753Y-360117D01*
X-434586Y-360058D01*
X-434420Y-360009D01*
X-434248Y-359975D01*
X-434243Y-359970D01*
X-434229Y-359975D01*
X-434204Y-359970D01*
X-434170Y-359965D01*
X-434091Y-359955D01*
X-433978Y-359950D01*
X-433851Y-359940D01*
X-433714D01*
X-433571Y-359955D01*
D02*
G37*
G36*
X-437151Y-356043D02*
X-436960Y-356077D01*
X-436955Y-356082D01*
X-436935D01*
X-436906Y-356091D01*
X-436871Y-356106D01*
X-436827Y-356121D01*
X-436778Y-356141D01*
X-436714Y-356165D01*
X-436656Y-356194D01*
X-436508Y-356263D01*
X-436352Y-356361D01*
X-436195Y-356479D01*
X-436038Y-356616D01*
X-436008Y-356646D01*
X-435974Y-356690D01*
X-435930Y-356744D01*
X-435876Y-356807D01*
X-435822Y-356891D01*
X-435763Y-356979D01*
X-435699Y-357082D01*
X-435641Y-357200D01*
X-435577Y-357322D01*
X-435528Y-357459D01*
X-435484Y-357602D01*
X-435444Y-357759D01*
X-435425Y-357915D01*
X-435410Y-358087D01*
X-435415Y-358259D01*
Y-358269D01*
X-435420Y-358303D01*
X-435430Y-358352D01*
X-435444Y-358425D01*
X-435464Y-358514D01*
X-435498Y-358617D01*
X-435542Y-358739D01*
X-435601Y-358876D01*
X-435665Y-359029D01*
X-435748Y-359190D01*
X-435851Y-359362D01*
X-435969Y-359548D01*
X-436106Y-359744D01*
X-436268Y-359945D01*
X-436450Y-360156D01*
X-436656Y-360372D01*
X-436660Y-360377D01*
X-436670Y-360387D01*
X-436690Y-360406D01*
X-436714Y-360431D01*
X-436744Y-360460D01*
X-436788Y-360495D01*
X-436827Y-360534D01*
X-436881Y-360578D01*
X-436994Y-360681D01*
X-437126Y-360794D01*
X-437278Y-360916D01*
X-437445Y-361044D01*
X-437631Y-361171D01*
X-437818Y-361299D01*
X-438014Y-361416D01*
X-438220Y-361524D01*
X-438426Y-361622D01*
X-438637Y-361706D01*
X-438847Y-361760D01*
X-439048Y-361794D01*
X-439058D01*
X-439092Y-361799D01*
X-439289D01*
X-439387Y-361789D01*
X-439490Y-361774D01*
X-439607Y-361755D01*
X-439735Y-361725D01*
X-439867Y-361681D01*
X-440005Y-361632D01*
X-440147Y-361568D01*
X-440289Y-361495D01*
X-440431Y-361402D01*
X-440573Y-361299D01*
X-440710Y-361171D01*
X-440764Y-361117D01*
X-440794Y-361078D01*
X-440833Y-361029D01*
X-440882Y-360970D01*
X-440931Y-360901D01*
X-440980Y-360823D01*
X-441088Y-360647D01*
X-441132Y-360553D01*
X-441181Y-360446D01*
X-441221Y-360338D01*
X-441245Y-360225D01*
X-441269Y-360112D01*
X-441284Y-359990D01*
Y-359980D01*
Y-359960D01*
X-441289Y-359926D01*
X-441284Y-359882D01*
Y-359823D01*
X-441274Y-359754D01*
X-441265Y-359676D01*
X-441250Y-359592D01*
X-441230Y-359504D01*
X-441201Y-359406D01*
X-441166Y-359303D01*
X-441127Y-359195D01*
X-441078Y-359087D01*
X-441019Y-358979D01*
X-440956Y-358867D01*
X-440872Y-358754D01*
X-440274Y-359264D01*
X-440279Y-359269D01*
X-440284Y-359283D01*
X-440294Y-359303D01*
X-440313Y-359333D01*
X-440358Y-359406D01*
X-440402Y-359499D01*
X-440451Y-359607D01*
X-440490Y-359725D01*
X-440524Y-359838D01*
X-440539Y-359950D01*
Y-359960D01*
Y-359970D01*
Y-359999D01*
Y-360029D01*
X-440529Y-360117D01*
X-440505Y-360230D01*
X-440470Y-360352D01*
X-440406Y-360485D01*
X-440328Y-360622D01*
X-440274Y-360686D01*
X-440220Y-360750D01*
X-440176Y-360794D01*
X-440112Y-360838D01*
X-440039Y-360892D01*
X-439946Y-360946D01*
X-439843Y-361000D01*
X-439725Y-361039D01*
X-439598Y-361068D01*
X-439593Y-361073D01*
X-439578Y-361068D01*
X-439553Y-361073D01*
X-439519Y-361078D01*
X-439431D01*
X-439308Y-361073D01*
X-439161Y-361063D01*
X-438994Y-361034D01*
X-438818Y-360985D01*
X-438627Y-360921D01*
X-438622Y-360916D01*
X-438607Y-360911D01*
X-438573Y-360897D01*
X-438534Y-360877D01*
X-438489Y-360853D01*
X-438426Y-360818D01*
X-438357Y-360779D01*
X-438283Y-360735D01*
X-438200Y-360681D01*
X-438112Y-360612D01*
X-438009Y-360539D01*
X-437901Y-360460D01*
X-437793Y-360372D01*
X-437680Y-360269D01*
X-437558Y-360156D01*
X-437436Y-360043D01*
X-437455D01*
X-437479Y-360048D01*
X-437514Y-360053D01*
X-437612Y-360063D01*
X-437734Y-360078D01*
X-437881D01*
X-438038Y-360068D01*
X-438200Y-360043D01*
X-438367Y-360004D01*
X-438372Y-359999D01*
X-438386Y-359995D01*
X-438411Y-359990D01*
X-438440Y-359980D01*
X-438480Y-359960D01*
X-438524Y-359945D01*
X-438632Y-359896D01*
X-438749Y-359828D01*
X-438877Y-359749D01*
X-439009Y-359656D01*
X-439132Y-359543D01*
X-439156Y-359519D01*
X-439181Y-359484D01*
X-439220Y-359445D01*
X-439259Y-359386D01*
X-439308Y-359328D01*
X-439357Y-359249D01*
X-439411Y-359166D01*
X-439455Y-359073D01*
X-439509Y-358970D01*
X-439553Y-358857D01*
X-439593Y-358739D01*
X-439627Y-358607D01*
X-439651Y-358474D01*
X-439666Y-358332D01*
Y-358185D01*
Y-358175D01*
X-439661Y-358151D01*
Y-358112D01*
X-439656Y-358048D01*
X-439646Y-357979D01*
X-439627Y-357901D01*
X-439607Y-357803D01*
X-439578Y-357705D01*
X-439539Y-357597D01*
X-439499Y-357479D01*
X-439441Y-357361D01*
X-439382Y-357234D01*
X-439308Y-357111D01*
X-439220Y-356984D01*
X-439117Y-356861D01*
X-439004Y-356739D01*
X-438999Y-356734D01*
X-438985Y-356719D01*
X-438965Y-356699D01*
X-438926Y-356670D01*
X-438891Y-356636D01*
X-438842Y-356596D01*
X-438784Y-356548D01*
X-438720Y-356503D01*
X-438578Y-356400D01*
X-438411Y-356302D01*
X-438229Y-356209D01*
X-438024Y-356131D01*
X-438019Y-356126D01*
X-437999D01*
X-437970Y-356116D01*
X-437930Y-356106D01*
X-437881Y-356096D01*
X-437827Y-356082D01*
X-437685Y-356057D01*
X-437528Y-356037D01*
X-437347Y-356033D01*
X-437151Y-356043D01*
D02*
G37*
G36*
X-565356Y58025D02*
X-565335Y58004D01*
X-565294Y57969D01*
X-565245Y57928D01*
X-565176Y57872D01*
X-565099Y57803D01*
X-565009Y57734D01*
X-564905Y57650D01*
X-564787Y57560D01*
X-564656Y57463D01*
X-564510Y57359D01*
X-564357Y57255D01*
X-564198Y57151D01*
X-564018Y57040D01*
X-563830Y56922D01*
X-563636Y56811D01*
X-563622Y56804D01*
X-563588Y56784D01*
X-563532Y56756D01*
X-563449Y56714D01*
X-563352Y56666D01*
X-563234Y56603D01*
X-563102Y56541D01*
X-562957Y56472D01*
X-562797Y56402D01*
X-562624Y56326D01*
X-562437Y56250D01*
X-562249Y56174D01*
X-562048Y56097D01*
X-561840Y56021D01*
X-561417Y55889D01*
X-561410D01*
X-561383Y55882D01*
X-561334Y55868D01*
X-561279Y55855D01*
X-561202Y55834D01*
X-561112Y55813D01*
X-561008Y55785D01*
X-560897Y55764D01*
X-560772Y55737D01*
X-560634Y55716D01*
X-560488Y55688D01*
X-560336Y55667D01*
X-560176Y55640D01*
X-560010Y55619D01*
X-559663Y55591D01*
Y54787D01*
X-559670D01*
X-559698D01*
X-559739D01*
X-559795Y54794D01*
X-559871Y54801D01*
X-559954Y54808D01*
X-560058Y54814D01*
X-560169Y54828D01*
X-560301Y54842D01*
X-560433Y54863D01*
X-560585Y54884D01*
X-560745Y54911D01*
X-560918Y54946D01*
X-561098Y54981D01*
X-561286Y55029D01*
X-561480Y55078D01*
X-561494Y55085D01*
X-561528Y55092D01*
X-561584Y55106D01*
X-561660Y55133D01*
X-561757Y55161D01*
X-561875Y55196D01*
X-562000Y55237D01*
X-562138Y55286D01*
X-562291Y55341D01*
X-562457Y55404D01*
X-562631Y55466D01*
X-562804Y55542D01*
X-563172Y55702D01*
X-563546Y55889D01*
X-563560Y55896D01*
X-563588Y55917D01*
X-563643Y55945D01*
X-563713Y55979D01*
X-563796Y56035D01*
X-563893Y56090D01*
X-564004Y56160D01*
X-564129Y56229D01*
X-564253Y56312D01*
X-564392Y56402D01*
X-564669Y56596D01*
X-564954Y56804D01*
X-565092Y56915D01*
X-565224Y57026D01*
Y53892D01*
X-565980D01*
Y58032D01*
X-565363D01*
X-565356Y58025D01*
D02*
G37*
G36*
X-562707Y52984D02*
X-562631D01*
X-562548Y52977D01*
X-562457Y52970D01*
X-562256Y52949D01*
X-562041Y52914D01*
X-561819Y52873D01*
X-561598Y52817D01*
X-561591D01*
X-561570Y52810D01*
X-561542Y52797D01*
X-561507Y52790D01*
X-561459Y52769D01*
X-561403Y52748D01*
X-561272Y52699D01*
X-561126Y52637D01*
X-560967Y52561D01*
X-560814Y52478D01*
X-560668Y52380D01*
X-560662D01*
X-560654Y52367D01*
X-560634Y52353D01*
X-560606Y52332D01*
X-560544Y52283D01*
X-560460Y52207D01*
X-560363Y52124D01*
X-560266Y52027D01*
X-560176Y51916D01*
X-560086Y51798D01*
Y51791D01*
X-560079Y51784D01*
X-560051Y51743D01*
X-560017Y51673D01*
X-559968Y51583D01*
X-559920Y51472D01*
X-559864Y51340D01*
X-559815Y51188D01*
X-559767Y51028D01*
Y51021D01*
X-559760Y51007D01*
Y50987D01*
X-559753Y50952D01*
X-559746Y50910D01*
X-559732Y50855D01*
X-559725Y50799D01*
X-559718Y50737D01*
X-559698Y50585D01*
X-559677Y50411D01*
X-559670Y50217D01*
X-559663Y50009D01*
Y47700D01*
X-566063D01*
Y50085D01*
X-566056Y50155D01*
Y50238D01*
X-566049Y50321D01*
X-566042Y50508D01*
X-566022Y50696D01*
X-566001Y50883D01*
X-565980Y50966D01*
X-565966Y51042D01*
Y51049D01*
X-565959Y51070D01*
X-565952Y51098D01*
X-565938Y51132D01*
X-565924Y51181D01*
X-565911Y51236D01*
X-565862Y51368D01*
X-565800Y51514D01*
X-565723Y51666D01*
X-565626Y51826D01*
X-565508Y51978D01*
X-565502Y51985D01*
X-565488Y51999D01*
X-565467Y52027D01*
X-565432Y52062D01*
X-565391Y52103D01*
X-565335Y52152D01*
X-565280Y52207D01*
X-565210Y52263D01*
X-565134Y52325D01*
X-565051Y52387D01*
X-564961Y52450D01*
X-564864Y52512D01*
X-564649Y52630D01*
X-564413Y52734D01*
X-564406D01*
X-564385Y52748D01*
X-564343Y52755D01*
X-564295Y52776D01*
X-564233Y52797D01*
X-564156Y52817D01*
X-564073Y52838D01*
X-563976Y52866D01*
X-563865Y52887D01*
X-563747Y52908D01*
X-563622Y52928D01*
X-563491Y52949D01*
X-563352Y52970D01*
X-563206Y52977D01*
X-562894Y52991D01*
X-562887D01*
X-562860D01*
X-562825D01*
X-562770D01*
X-562707Y52984D01*
D02*
G37*
G36*
X-360264Y441839D02*
X-360196Y441829D01*
X-360112Y441814D01*
X-360029Y441800D01*
X-359936Y441775D01*
X-359838Y441746D01*
X-359740Y441707D01*
X-359642Y441657D01*
X-359539Y441604D01*
X-359436Y441540D01*
X-359338Y441461D01*
X-359244Y441378D01*
X-359240Y441373D01*
X-359230Y441363D01*
X-359215Y441349D01*
X-359191Y441324D01*
X-359171Y441295D01*
X-359142Y441255D01*
X-359078Y441172D01*
X-359014Y441069D01*
X-358950Y440947D01*
X-358901Y440809D01*
X-358862Y440662D01*
X-358857Y440657D01*
X-358862Y440643D01*
X-358852Y440593D01*
Y440515D01*
Y440407D01*
X-358872Y440280D01*
X-358891Y440133D01*
X-358941Y439976D01*
X-359004Y439804D01*
X-358999Y439809D01*
X-358980Y439819D01*
X-358950Y439829D01*
X-358911Y439848D01*
X-358862Y439868D01*
X-358803Y439888D01*
X-358661Y439932D01*
X-358499Y439976D01*
X-358318Y440000D01*
X-358127Y440015D01*
X-357930Y439995D01*
X-357921D01*
X-357906Y439990D01*
X-357881Y439986D01*
X-357842Y439976D01*
X-357798Y439961D01*
X-357744Y439946D01*
X-357685Y439927D01*
X-357617Y439907D01*
X-357474Y439843D01*
X-357318Y439755D01*
X-357156Y439642D01*
X-357072Y439579D01*
X-356994Y439500D01*
X-356989Y439495D01*
X-356969Y439476D01*
X-356945Y439441D01*
X-356901Y439397D01*
X-356861Y439338D01*
X-356808Y439275D01*
X-356759Y439196D01*
X-356705Y439113D01*
X-356651Y439010D01*
X-356597Y438907D01*
X-356553Y438794D01*
X-356508Y438671D01*
X-356474Y438539D01*
X-356450Y438407D01*
X-356430Y438260D01*
Y438112D01*
Y438103D01*
X-356435Y438078D01*
X-356440Y438034D01*
X-356445Y437980D01*
X-356455Y437902D01*
X-356474Y437823D01*
X-356494Y437725D01*
X-356523Y437627D01*
X-356562Y437519D01*
X-356607Y437397D01*
X-356665Y437279D01*
X-356729Y437156D01*
X-356803Y437024D01*
X-356891Y436897D01*
X-356999Y436769D01*
X-357117Y436642D01*
X-357146Y436612D01*
X-357185Y436583D01*
X-357234Y436534D01*
X-357293Y436485D01*
X-357371Y436426D01*
X-357460Y436367D01*
X-357553Y436303D01*
X-357656Y436240D01*
X-357774Y436181D01*
X-357891Y436122D01*
X-358024Y436068D01*
X-358156Y436024D01*
X-358298Y435989D01*
X-358445Y435960D01*
X-358592Y435950D01*
X-358671D01*
X-358730Y435960D01*
X-358798Y435970D01*
X-358877Y435980D01*
X-358970Y435994D01*
X-359068Y436024D01*
X-359176Y436053D01*
X-359289Y436087D01*
X-359406Y436137D01*
X-359519Y436190D01*
X-359637Y436259D01*
X-359759Y436342D01*
X-359877Y436431D01*
X-359990Y436534D01*
X-359995Y436539D01*
X-360009Y436553D01*
X-360034Y436578D01*
X-360058Y436612D01*
X-360098Y436651D01*
X-360137Y436700D01*
X-360176Y436759D01*
X-360220Y436823D01*
X-360308Y436960D01*
X-360392Y437122D01*
X-360461Y437299D01*
X-360485Y437392D01*
X-360505Y437490D01*
Y437500D01*
X-360509Y437514D01*
Y437544D01*
Y437583D01*
X-360514Y437627D01*
X-360509Y437681D01*
Y437750D01*
X-360500Y437818D01*
X-360480Y437975D01*
X-360441Y438152D01*
X-360372Y438338D01*
X-360274Y438534D01*
X-360279Y438529D01*
X-360294Y438524D01*
X-360323Y438515D01*
X-360353Y438505D01*
X-360392Y438485D01*
X-360446Y438470D01*
X-360559Y438436D01*
X-360691Y438402D01*
X-360838Y438382D01*
X-360990Y438367D01*
X-361142Y438382D01*
X-361147Y438387D01*
X-361157D01*
X-361181Y438392D01*
X-361211Y438402D01*
X-361289Y438421D01*
X-361382Y438456D01*
X-361495Y438510D01*
X-361623Y438578D01*
X-361750Y438667D01*
X-361873Y438779D01*
X-361878Y438784D01*
X-361892Y438799D01*
X-361917Y438833D01*
X-361951Y438868D01*
X-361985Y438912D01*
X-362025Y438970D01*
X-362069Y439034D01*
X-362118Y439113D01*
X-362162Y439196D01*
X-362201Y439284D01*
X-362245Y439378D01*
X-362285Y439485D01*
X-362309Y439598D01*
X-362333Y439711D01*
X-362348Y439833D01*
Y439961D01*
Y439971D01*
Y439990D01*
X-362343Y440025D01*
X-362338Y440079D01*
X-362329Y440137D01*
X-362314Y440211D01*
X-362294Y440289D01*
X-362270Y440383D01*
X-362235Y440476D01*
X-362191Y440579D01*
X-362147Y440682D01*
X-362088Y440790D01*
X-362020Y440907D01*
X-361941Y441015D01*
X-361848Y441128D01*
X-361745Y441241D01*
X-361686Y441300D01*
X-361642Y441334D01*
X-361588Y441378D01*
X-361520Y441427D01*
X-361446Y441481D01*
X-361358Y441540D01*
X-361265Y441594D01*
X-361167Y441653D01*
X-361059Y441702D01*
X-360946Y441746D01*
X-360823Y441790D01*
X-360701Y441814D01*
X-360573Y441844D01*
X-360441Y441849D01*
X-360323D01*
X-360264Y441839D01*
D02*
G37*
G36*
X-363878Y438049D02*
X-363800D01*
X-363711Y438039D01*
X-363613Y438029D01*
X-363510Y438014D01*
X-363402Y437995D01*
X-363290Y437970D01*
X-363054Y437902D01*
X-362814Y437808D01*
X-362809Y437804D01*
X-362785Y437799D01*
X-362750Y437774D01*
X-362701Y437755D01*
X-362642Y437725D01*
X-362574Y437686D01*
X-362500Y437642D01*
X-362412Y437593D01*
X-362319Y437529D01*
X-362221Y437460D01*
X-362118Y437387D01*
X-362010Y437308D01*
X-361897Y437225D01*
X-361789Y437127D01*
X-361559Y436916D01*
X-361554Y436911D01*
X-361534Y436892D01*
X-361510Y436867D01*
X-361470Y436828D01*
X-361431Y436779D01*
X-361377Y436725D01*
X-361324Y436661D01*
X-361265Y436592D01*
X-361137Y436436D01*
X-361010Y436259D01*
X-360882Y436073D01*
X-360765Y435877D01*
X-360760Y435872D01*
X-360750Y435852D01*
X-360740Y435823D01*
X-360720Y435793D01*
X-360701Y435744D01*
X-360676Y435690D01*
X-360617Y435563D01*
X-360559Y435416D01*
X-360500Y435249D01*
X-360451Y435082D01*
X-360416Y434911D01*
X-360411Y434906D01*
X-360416Y434891D01*
X-360411Y434867D01*
X-360407Y434832D01*
X-360397Y434754D01*
X-360392Y434641D01*
X-360382Y434514D01*
Y434376D01*
X-360397Y434234D01*
X-360416Y434087D01*
X-360421Y434082D01*
Y434072D01*
X-360431Y434023D01*
X-360456Y433950D01*
X-360485Y433852D01*
X-360529Y433739D01*
X-360583Y433606D01*
X-360657Y433464D01*
X-360735Y433317D01*
X-360740Y433312D01*
X-360745Y433298D01*
X-360760Y433283D01*
X-360779Y433253D01*
X-360804Y433219D01*
X-360833Y433170D01*
X-360868Y433126D01*
X-360907Y433077D01*
X-361000Y432954D01*
X-361108Y432817D01*
X-361240Y432675D01*
X-361382Y432523D01*
X-363015Y430890D01*
X-367541Y435416D01*
X-365854Y437102D01*
X-365800Y437146D01*
X-365741Y437205D01*
X-365677Y437259D01*
X-365540Y437387D01*
X-365393Y437505D01*
X-365246Y437622D01*
X-365173Y437666D01*
X-365109Y437710D01*
X-365104Y437715D01*
X-365084Y437725D01*
X-365060Y437740D01*
X-365025Y437755D01*
X-364981Y437779D01*
X-364932Y437808D01*
X-364805Y437867D01*
X-364658Y437926D01*
X-364496Y437980D01*
X-364314Y438024D01*
X-364123Y438049D01*
X-364094D01*
X-364059Y438054D01*
X-363952D01*
X-363878Y438049D01*
D02*
G37*
G36*
X56797Y561334D02*
X56014D01*
Y566333D01*
X56000Y566319D01*
X55965Y566284D01*
X55903Y566236D01*
X55813Y566167D01*
X55709Y566083D01*
X55577Y565993D01*
X55431Y565896D01*
X55265Y565792D01*
X55258D01*
X55244Y565778D01*
X55223Y565765D01*
X55189Y565751D01*
X55147Y565723D01*
X55099Y565702D01*
X54988Y565640D01*
X54863Y565577D01*
X54724Y565508D01*
X54579Y565446D01*
X54440Y565390D01*
Y566146D01*
X54447Y566153D01*
X54468Y566160D01*
X54502Y566180D01*
X54551Y566201D01*
X54606Y566229D01*
X54676Y566271D01*
X54752Y566312D01*
X54828Y566354D01*
X55009Y566465D01*
X55203Y566597D01*
X55404Y566735D01*
X55591Y566895D01*
X55598Y566902D01*
X55612Y566916D01*
X55640Y566936D01*
X55674Y566971D01*
X55709Y567013D01*
X55757Y567054D01*
X55861Y567172D01*
X55979Y567297D01*
X56097Y567443D01*
X56201Y567595D01*
X56291Y567755D01*
X56797D01*
Y561334D01*
D02*
G37*
G36*
X50155Y567727D02*
X50238D01*
X50321Y567720D01*
X50508Y567713D01*
X50696Y567692D01*
X50883Y567671D01*
X50966Y567651D01*
X51042Y567637D01*
X51049D01*
X51070Y567630D01*
X51098Y567623D01*
X51132Y567609D01*
X51181Y567595D01*
X51236Y567581D01*
X51368Y567533D01*
X51514Y567470D01*
X51666Y567394D01*
X51826Y567297D01*
X51978Y567179D01*
X51985Y567172D01*
X51999Y567158D01*
X52027Y567137D01*
X52062Y567103D01*
X52103Y567061D01*
X52152Y567006D01*
X52207Y566950D01*
X52263Y566881D01*
X52325Y566805D01*
X52387Y566721D01*
X52450Y566631D01*
X52512Y566534D01*
X52630Y566319D01*
X52734Y566083D01*
Y566077D01*
X52748Y566056D01*
X52755Y566014D01*
X52776Y565965D01*
X52797Y565903D01*
X52817Y565827D01*
X52838Y565744D01*
X52866Y565647D01*
X52887Y565536D01*
X52908Y565418D01*
X52928Y565293D01*
X52949Y565161D01*
X52970Y565023D01*
X52977Y564877D01*
X52991Y564565D01*
Y564558D01*
Y564530D01*
Y564496D01*
Y564440D01*
X52984Y564378D01*
Y564301D01*
X52977Y564218D01*
X52970Y564128D01*
X52949Y563927D01*
X52914Y563712D01*
X52873Y563490D01*
X52817Y563268D01*
Y563261D01*
X52810Y563240D01*
X52797Y563213D01*
X52790Y563178D01*
X52769Y563130D01*
X52748Y563074D01*
X52699Y562942D01*
X52637Y562797D01*
X52561Y562637D01*
X52477Y562485D01*
X52380Y562339D01*
Y562332D01*
X52367Y562325D01*
X52353Y562304D01*
X52332Y562276D01*
X52283Y562214D01*
X52207Y562131D01*
X52124Y562034D01*
X52027Y561937D01*
X51916Y561847D01*
X51798Y561757D01*
X51791D01*
X51784Y561749D01*
X51743Y561722D01*
X51673Y561687D01*
X51583Y561639D01*
X51472Y561590D01*
X51340Y561535D01*
X51188Y561486D01*
X51028Y561437D01*
X51021D01*
X51007Y561431D01*
X50987D01*
X50952Y561424D01*
X50910Y561417D01*
X50855Y561403D01*
X50799Y561396D01*
X50737Y561389D01*
X50585Y561368D01*
X50411Y561347D01*
X50217Y561340D01*
X50009Y561334D01*
X47700D01*
Y567734D01*
X50085D01*
X50155Y567727D01*
D02*
G37*
G36*
X567845Y-50085D02*
X567838Y-50155D01*
Y-50238D01*
X567831Y-50321D01*
X567824Y-50508D01*
X567803Y-50696D01*
X567782Y-50883D01*
X567761Y-50966D01*
X567748Y-51042D01*
Y-51049D01*
X567741Y-51070D01*
X567734Y-51098D01*
X567720Y-51132D01*
X567706Y-51181D01*
X567692Y-51236D01*
X567644Y-51368D01*
X567581Y-51514D01*
X567505Y-51666D01*
X567408Y-51826D01*
X567290Y-51978D01*
X567283Y-51985D01*
X567269Y-51999D01*
X567248Y-52027D01*
X567214Y-52062D01*
X567172Y-52103D01*
X567117Y-52152D01*
X567061Y-52207D01*
X566992Y-52263D01*
X566916Y-52325D01*
X566832Y-52387D01*
X566742Y-52450D01*
X566645Y-52512D01*
X566430Y-52630D01*
X566194Y-52734D01*
X566187D01*
X566167Y-52748D01*
X566125Y-52755D01*
X566077Y-52776D01*
X566014Y-52797D01*
X565938Y-52817D01*
X565855Y-52838D01*
X565757Y-52866D01*
X565647Y-52887D01*
X565529Y-52908D01*
X565404Y-52928D01*
X565272Y-52949D01*
X565133Y-52970D01*
X564988Y-52977D01*
X564676Y-52991D01*
X564669D01*
X564641D01*
X564606D01*
X564551D01*
X564489Y-52984D01*
X564412D01*
X564329Y-52977D01*
X564239Y-52970D01*
X564038Y-52949D01*
X563823Y-52914D01*
X563601Y-52873D01*
X563379Y-52817D01*
X563372D01*
X563351Y-52810D01*
X563324Y-52797D01*
X563289Y-52790D01*
X563240Y-52769D01*
X563185Y-52748D01*
X563053Y-52699D01*
X562908Y-52637D01*
X562748Y-52561D01*
X562595Y-52477D01*
X562450Y-52380D01*
X562443D01*
X562436Y-52367D01*
X562415Y-52353D01*
X562388Y-52332D01*
X562325Y-52283D01*
X562242Y-52207D01*
X562145Y-52124D01*
X562048Y-52027D01*
X561958Y-51916D01*
X561867Y-51798D01*
Y-51791D01*
X561861Y-51784D01*
X561833Y-51743D01*
X561798Y-51673D01*
X561749Y-51583D01*
X561701Y-51472D01*
X561646Y-51340D01*
X561597Y-51188D01*
X561549Y-51028D01*
Y-51021D01*
X561541Y-51007D01*
Y-50987D01*
X561535Y-50952D01*
X561528Y-50910D01*
X561514Y-50855D01*
X561507Y-50799D01*
X561500Y-50737D01*
X561479Y-50585D01*
X561458Y-50411D01*
X561451Y-50217D01*
X561444Y-50009D01*
Y-47700D01*
X567845D01*
Y-50085D01*
D02*
G37*
G36*
X563240Y-54627D02*
X563233D01*
X563213Y-54634D01*
X563178Y-54641D01*
X563130Y-54655D01*
X563074Y-54669D01*
X563012Y-54683D01*
X562866Y-54731D01*
X562706Y-54794D01*
X562547Y-54870D01*
X562401Y-54967D01*
X562339Y-55022D01*
X562276Y-55078D01*
Y-55085D01*
X562263Y-55092D01*
X562249Y-55113D01*
X562228Y-55133D01*
X562186Y-55203D01*
X562131Y-55300D01*
X562076Y-55418D01*
X562034Y-55549D01*
X561999Y-55709D01*
X561985Y-55875D01*
Y-55931D01*
X561992Y-55972D01*
X561999Y-56014D01*
X562006Y-56076D01*
X562034Y-56201D01*
X562076Y-56354D01*
X562145Y-56513D01*
X562193Y-56589D01*
X562242Y-56666D01*
X562297Y-56742D01*
X562367Y-56818D01*
X562374Y-56825D01*
X562388Y-56832D01*
X562408Y-56853D01*
X562436Y-56881D01*
X562471Y-56908D01*
X562519Y-56936D01*
X562568Y-56971D01*
X562630Y-57013D01*
X562769Y-57082D01*
X562928Y-57137D01*
X563116Y-57186D01*
X563213Y-57193D01*
X563317Y-57200D01*
X563324D01*
X563338D01*
X563372D01*
X563407Y-57193D01*
X563455Y-57186D01*
X563504Y-57179D01*
X563629Y-57158D01*
X563774Y-57110D01*
X563920Y-57047D01*
X563996Y-57006D01*
X564066Y-56957D01*
X564135Y-56902D01*
X564204Y-56839D01*
X564211Y-56832D01*
X564218Y-56825D01*
X564239Y-56804D01*
X564260Y-56777D01*
X564287Y-56742D01*
X564315Y-56701D01*
X564384Y-56596D01*
X564447Y-56465D01*
X564502Y-56312D01*
X564544Y-56139D01*
X564551Y-56042D01*
X564558Y-55945D01*
Y-55903D01*
X564551Y-55855D01*
Y-55792D01*
X564537Y-55709D01*
X564523Y-55619D01*
X564502Y-55508D01*
X564475Y-55390D01*
X565161Y-55473D01*
Y-55487D01*
X565154Y-55522D01*
X565147Y-55563D01*
Y-55653D01*
X565154Y-55688D01*
Y-55737D01*
X565161Y-55785D01*
X565182Y-55903D01*
X565210Y-56042D01*
X565258Y-56194D01*
X565321Y-56354D01*
X565411Y-56506D01*
Y-56513D01*
X565425Y-56527D01*
X565438Y-56541D01*
X565459Y-56569D01*
X565522Y-56638D01*
X565612Y-56714D01*
X565723Y-56784D01*
X565862Y-56853D01*
X565938Y-56881D01*
X566028Y-56895D01*
X566118Y-56908D01*
X566215Y-56915D01*
X566222D01*
X566236D01*
X566257D01*
X566292Y-56908D01*
X566368Y-56902D01*
X566472Y-56881D01*
X566583Y-56846D01*
X566701Y-56791D01*
X566825Y-56714D01*
X566881Y-56673D01*
X566936Y-56617D01*
X566950Y-56603D01*
X566978Y-56562D01*
X567026Y-56499D01*
X567082Y-56416D01*
X567131Y-56305D01*
X567179Y-56174D01*
X567207Y-56028D01*
X567221Y-55861D01*
Y-55820D01*
X567214Y-55785D01*
Y-55744D01*
X567207Y-55702D01*
X567186Y-55591D01*
X567151Y-55473D01*
X567096Y-55341D01*
X567026Y-55217D01*
X566929Y-55092D01*
X566916Y-55078D01*
X566874Y-55043D01*
X566811Y-54988D01*
X566714Y-54932D01*
X566597Y-54863D01*
X566444Y-54801D01*
X566271Y-54745D01*
X566070Y-54703D01*
X566208Y-53920D01*
X566215D01*
X566243Y-53927D01*
X566284Y-53934D01*
X566340Y-53948D01*
X566402Y-53968D01*
X566479Y-53989D01*
X566562Y-54017D01*
X566652Y-54052D01*
X566853Y-54142D01*
X566950Y-54190D01*
X567054Y-54253D01*
X567151Y-54322D01*
X567248Y-54398D01*
X567345Y-54482D01*
X567429Y-54572D01*
X567436Y-54579D01*
X567449Y-54592D01*
X567470Y-54627D01*
X567498Y-54662D01*
X567533Y-54717D01*
X567567Y-54773D01*
X567609Y-54842D01*
X567651Y-54925D01*
X567685Y-55009D01*
X567727Y-55106D01*
X567761Y-55210D01*
X567796Y-55321D01*
X567824Y-55445D01*
X567845Y-55570D01*
X567859Y-55702D01*
X567865Y-55841D01*
Y-55931D01*
X567859Y-55979D01*
X567852Y-56028D01*
X567838Y-56160D01*
X567810Y-56305D01*
X567768Y-56472D01*
X567713Y-56638D01*
X567637Y-56804D01*
Y-56811D01*
X567630Y-56825D01*
X567616Y-56846D01*
X567595Y-56881D01*
X567547Y-56957D01*
X567477Y-57054D01*
X567387Y-57165D01*
X567283Y-57276D01*
X567165Y-57387D01*
X567026Y-57484D01*
X567020D01*
X567013Y-57491D01*
X566985Y-57505D01*
X566957Y-57519D01*
X566922Y-57540D01*
X566881Y-57560D01*
X566777Y-57602D01*
X566652Y-57643D01*
X566513Y-57685D01*
X566361Y-57713D01*
X566201Y-57720D01*
X566194D01*
X566180D01*
X566160D01*
X566132D01*
X566049Y-57706D01*
X565952Y-57692D01*
X565834Y-57664D01*
X565709Y-57623D01*
X565577Y-57567D01*
X565446Y-57491D01*
X565438D01*
X565432Y-57484D01*
X565390Y-57449D01*
X565328Y-57401D01*
X565251Y-57325D01*
X565161Y-57234D01*
X565071Y-57116D01*
X564988Y-56985D01*
X564905Y-56832D01*
Y-56839D01*
X564898Y-56860D01*
X564891Y-56888D01*
X564877Y-56929D01*
X564863Y-56971D01*
X564842Y-57026D01*
X564787Y-57158D01*
X564711Y-57297D01*
X564620Y-57442D01*
X564502Y-57588D01*
X564357Y-57713D01*
X564350Y-57720D01*
X564336Y-57727D01*
X564315Y-57741D01*
X564281Y-57761D01*
X564246Y-57789D01*
X564197Y-57817D01*
X564142Y-57845D01*
X564072Y-57872D01*
X564003Y-57900D01*
X563927Y-57928D01*
X563754Y-57983D01*
X563552Y-58018D01*
X563442Y-58032D01*
X563330D01*
X563324D01*
X563296D01*
X563247Y-58025D01*
X563192D01*
X563116Y-58011D01*
X563032Y-57997D01*
X562942Y-57983D01*
X562838Y-57956D01*
X562727Y-57921D01*
X562616Y-57879D01*
X562498Y-57831D01*
X562381Y-57768D01*
X562256Y-57699D01*
X562138Y-57616D01*
X562020Y-57526D01*
X561909Y-57415D01*
X561902Y-57408D01*
X561881Y-57387D01*
X561854Y-57352D01*
X561819Y-57304D01*
X561777Y-57248D01*
X561729Y-57172D01*
X561673Y-57089D01*
X561625Y-56992D01*
X561569Y-56888D01*
X561514Y-56770D01*
X561465Y-56645D01*
X561424Y-56506D01*
X561389Y-56361D01*
X561361Y-56208D01*
X561340Y-56049D01*
X561334Y-55875D01*
Y-55841D01*
X561340Y-55792D01*
Y-55737D01*
X561347Y-55660D01*
X561361Y-55577D01*
X561375Y-55487D01*
X561396Y-55383D01*
X561424Y-55272D01*
X561458Y-55161D01*
X561493Y-55043D01*
X561541Y-54925D01*
X561604Y-54807D01*
X561666Y-54696D01*
X561743Y-54579D01*
X561833Y-54475D01*
X561840Y-54468D01*
X561854Y-54454D01*
X561881Y-54426D01*
X561923Y-54384D01*
X561971Y-54343D01*
X562034Y-54294D01*
X562103Y-54246D01*
X562186Y-54190D01*
X562270Y-54135D01*
X562374Y-54079D01*
X562478Y-54024D01*
X562595Y-53975D01*
X562720Y-53934D01*
X562852Y-53892D01*
X562991Y-53864D01*
X563136Y-53844D01*
X563240Y-54627D01*
D02*
G37*
G36*
X-296314Y451107D02*
X-296270Y451102D01*
X-296216Y451097D01*
X-296138Y451088D01*
X-296059Y451068D01*
X-295961Y451049D01*
X-295863Y451019D01*
X-295755Y450980D01*
X-295633Y450936D01*
X-295515Y450877D01*
X-295393Y450813D01*
X-295260Y450740D01*
X-295133Y450651D01*
X-295005Y450543D01*
X-294878Y450426D01*
X-294848Y450396D01*
X-294819Y450357D01*
X-294770Y450308D01*
X-294721Y450249D01*
X-294662Y450171D01*
X-294603Y450083D01*
X-294539Y449989D01*
X-294476Y449886D01*
X-294417Y449769D01*
X-294358Y449651D01*
X-294304Y449519D01*
X-294260Y449386D01*
X-294226Y449244D01*
X-294196Y449097D01*
X-294186Y448950D01*
Y448940D01*
Y448911D01*
Y448871D01*
X-294196Y448813D01*
X-294206Y448744D01*
X-294216Y448666D01*
X-294230Y448572D01*
X-294260Y448474D01*
X-294289Y448366D01*
X-294324Y448254D01*
X-294373Y448136D01*
X-294427Y448023D01*
X-294495Y447906D01*
X-294579Y447783D01*
X-294667Y447665D01*
X-294770Y447552D01*
X-294775Y447547D01*
X-294790Y447533D01*
X-294814Y447508D01*
X-294848Y447484D01*
X-294888Y447445D01*
X-294937Y447405D01*
X-294995Y447366D01*
X-295059Y447322D01*
X-295196Y447234D01*
X-295358Y447150D01*
X-295535Y447082D01*
X-295628Y447057D01*
X-295726Y447038D01*
X-295736D01*
X-295751Y447033D01*
X-295819D01*
X-295863Y447028D01*
X-295917Y447033D01*
X-295986D01*
X-296054Y447043D01*
X-296211Y447062D01*
X-296388Y447101D01*
X-296574Y447170D01*
X-296770Y447268D01*
X-296765Y447263D01*
X-296761Y447248D01*
X-296751Y447219D01*
X-296741Y447190D01*
X-296721Y447150D01*
X-296707Y447096D01*
X-296672Y446984D01*
X-296638Y446851D01*
X-296618Y446704D01*
X-296604Y446552D01*
X-296618Y446400D01*
X-296623Y446395D01*
Y446385D01*
X-296628Y446361D01*
X-296638Y446331D01*
X-296658Y446253D01*
X-296692Y446160D01*
X-296746Y446047D01*
X-296814Y445920D01*
X-296903Y445792D01*
X-297015Y445670D01*
X-297020Y445665D01*
X-297035Y445650D01*
X-297069Y445625D01*
X-297104Y445591D01*
X-297148Y445557D01*
X-297207Y445518D01*
X-297271Y445474D01*
X-297349Y445424D01*
X-297432Y445380D01*
X-297521Y445341D01*
X-297614Y445297D01*
X-297722Y445258D01*
X-297834Y445233D01*
X-297947Y445209D01*
X-298070Y445194D01*
X-298227D01*
X-298261Y445199D01*
X-298315Y445204D01*
X-298374Y445214D01*
X-298447Y445228D01*
X-298526Y445248D01*
X-298619Y445272D01*
X-298712Y445307D01*
X-298815Y445351D01*
X-298918Y445395D01*
X-299026Y445454D01*
X-299144Y445522D01*
X-299251Y445601D01*
X-299364Y445694D01*
X-299477Y445797D01*
X-299536Y445856D01*
X-299570Y445900D01*
X-299614Y445954D01*
X-299663Y446023D01*
X-299717Y446096D01*
X-299776Y446185D01*
X-299830Y446278D01*
X-299889Y446376D01*
X-299938Y446484D01*
X-299982Y446596D01*
X-300026Y446719D01*
X-300051Y446842D01*
X-300080Y446969D01*
X-300085Y447101D01*
Y447111D01*
Y447131D01*
Y447170D01*
Y447219D01*
X-300075Y447278D01*
X-300065Y447346D01*
X-300051Y447430D01*
X-300036Y447513D01*
X-300011Y447606D01*
X-299982Y447705D01*
X-299943Y447803D01*
X-299894Y447901D01*
X-299840Y448004D01*
X-299776Y448106D01*
X-299698Y448205D01*
X-299614Y448298D01*
X-299609Y448303D01*
X-299599Y448312D01*
X-299585Y448327D01*
X-299560Y448352D01*
X-299531Y448371D01*
X-299492Y448401D01*
X-299408Y448465D01*
X-299305Y448528D01*
X-299183Y448592D01*
X-299046Y448641D01*
X-298898Y448680D01*
X-298894Y448685D01*
X-298879Y448680D01*
X-298830Y448690D01*
X-298643D01*
X-298516Y448670D01*
X-298369Y448651D01*
X-298212Y448602D01*
X-298040Y448538D01*
X-298045Y448543D01*
X-298055Y448563D01*
X-298065Y448592D01*
X-298084Y448631D01*
X-298104Y448680D01*
X-298124Y448739D01*
X-298168Y448881D01*
X-298212Y449043D01*
X-298236Y449225D01*
X-298251Y449416D01*
X-298232Y449612D01*
Y449622D01*
X-298227Y449636D01*
X-298222Y449661D01*
X-298212Y449700D01*
X-298197Y449744D01*
X-298183Y449798D01*
X-298163Y449857D01*
X-298143Y449926D01*
X-298079Y450068D01*
X-297991Y450225D01*
X-297878Y450387D01*
X-297815Y450470D01*
X-297736Y450548D01*
X-297731Y450553D01*
X-297712Y450573D01*
X-297677Y450597D01*
X-297633Y450642D01*
X-297575Y450681D01*
X-297511Y450735D01*
X-297432Y450784D01*
X-297349Y450838D01*
X-297246Y450892D01*
X-297143Y450946D01*
X-297030Y450990D01*
X-296908Y451034D01*
X-296775Y451068D01*
X-296643Y451093D01*
X-296496Y451112D01*
X-296339D01*
X-296314Y451107D01*
D02*
G37*
G36*
X-292441Y448538D02*
X-292436Y448513D01*
X-292416Y448474D01*
X-292397Y448425D01*
X-292372Y448362D01*
X-292338Y448288D01*
X-292308Y448200D01*
X-292279Y448102D01*
X-292245Y447999D01*
X-292206Y447881D01*
X-292137Y447626D01*
X-292073Y447337D01*
X-292024Y447023D01*
X-292014D01*
X-291990Y447008D01*
X-291950Y446998D01*
X-291892Y446979D01*
X-291823Y446949D01*
X-291745Y446920D01*
X-291656Y446881D01*
X-291558Y446832D01*
X-291455Y446778D01*
X-291343Y446714D01*
X-291230Y446650D01*
X-291112Y446572D01*
X-290867Y446395D01*
X-290754Y446292D01*
X-290636Y446185D01*
X-290578Y446126D01*
X-290538Y446077D01*
X-290489Y446018D01*
X-290431Y445949D01*
X-290372Y445871D01*
X-290308Y445778D01*
X-290239Y445679D01*
X-290171Y445572D01*
X-290102Y445454D01*
X-290033Y445336D01*
X-289970Y445204D01*
X-289911Y445066D01*
X-289857Y444924D01*
X-289818Y444777D01*
Y444767D01*
X-289813Y444743D01*
X-289798Y444699D01*
X-289788Y444640D01*
X-289778Y444571D01*
X-289769Y444483D01*
X-289759Y444385D01*
X-289749Y444277D01*
X-289744Y444164D01*
Y444037D01*
X-289749Y443904D01*
X-289759Y443767D01*
X-289774Y443625D01*
X-289798Y443483D01*
X-289832Y443331D01*
X-289876Y443179D01*
Y443169D01*
X-289891Y443144D01*
X-289906Y443100D01*
X-289925Y443041D01*
X-289960Y442968D01*
X-289999Y442890D01*
X-290043Y442796D01*
X-290097Y442693D01*
X-290156Y442576D01*
X-290225Y442458D01*
X-290303Y442340D01*
X-290391Y442213D01*
X-290480Y442085D01*
X-290583Y441953D01*
X-290700Y441825D01*
X-290818Y441698D01*
X-290828Y441688D01*
X-290847Y441669D01*
X-290882Y441634D01*
X-290935Y441590D01*
X-290999Y441536D01*
X-291073Y441473D01*
X-291161Y441404D01*
X-291259Y441325D01*
X-291362Y441252D01*
X-291475Y441169D01*
X-291730Y441012D01*
X-291867Y440943D01*
X-292009Y440869D01*
X-292156Y440801D01*
X-292308Y440747D01*
X-292318D01*
X-292348Y440737D01*
X-292392Y440722D01*
X-292446Y440708D01*
X-292524Y440688D01*
X-292612Y440668D01*
X-292706Y440654D01*
X-292813Y440634D01*
X-292936Y440619D01*
X-293064Y440610D01*
X-293191Y440600D01*
X-293328D01*
X-293475Y440610D01*
X-293618Y440624D01*
X-293765Y440644D01*
X-293912Y440683D01*
X-293922D01*
X-293951Y440693D01*
X-293985Y440708D01*
X-294044Y440727D01*
X-294118Y440752D01*
X-294196Y440781D01*
X-294289Y440825D01*
X-294387Y440864D01*
X-294495Y440923D01*
X-294603Y440982D01*
X-294721Y441051D01*
X-294848Y441129D01*
X-294971Y441213D01*
X-295089Y441311D01*
X-295211Y441414D01*
X-295329Y441521D01*
X-295388Y441580D01*
X-295427Y441629D01*
X-295481Y441693D01*
X-295540Y441762D01*
X-295599Y441840D01*
X-295662Y441933D01*
X-295736Y442036D01*
X-295804Y442144D01*
X-295873Y442262D01*
X-295942Y442389D01*
X-296005Y442522D01*
X-296064Y442659D01*
X-296113Y442796D01*
X-296157Y442948D01*
Y442958D01*
X-296167Y442988D01*
X-296177Y443027D01*
X-296187Y443086D01*
X-296202Y443159D01*
X-296206Y443242D01*
X-296216Y443341D01*
X-296226Y443448D01*
X-296231Y443571D01*
X-296236Y443694D01*
X-296231Y443826D01*
X-296221Y443963D01*
X-296197Y444105D01*
X-296177Y444253D01*
X-296138Y444400D01*
X-296094Y444552D01*
Y444562D01*
X-296079Y444586D01*
X-296064Y444630D01*
X-296040Y444684D01*
X-296015Y444758D01*
X-295971Y444841D01*
X-295927Y444934D01*
X-295873Y445037D01*
X-295814Y445145D01*
X-295746Y445263D01*
X-295672Y445385D01*
X-295584Y445513D01*
X-295491Y445635D01*
X-295388Y445768D01*
X-295270Y445895D01*
X-295152Y446023D01*
X-295147Y446028D01*
X-295128Y446047D01*
X-295098Y446077D01*
X-295054Y446111D01*
X-295005Y446160D01*
X-294941Y446214D01*
X-294873Y446273D01*
X-294799Y446336D01*
X-294711Y446405D01*
X-294618Y446469D01*
X-294417Y446611D01*
X-294206Y446743D01*
X-293976Y446856D01*
X-293971Y446861D01*
X-293946Y446866D01*
X-293912Y446881D01*
X-293868Y446895D01*
X-293814Y446920D01*
X-293745Y446940D01*
X-293667Y446969D01*
X-293583Y446993D01*
X-293387Y447043D01*
X-293171Y447082D01*
X-292936Y447111D01*
X-292686Y447116D01*
Y447126D01*
X-292691Y447150D01*
X-292696Y447185D01*
X-292710Y447239D01*
X-292725Y447293D01*
X-292740Y447366D01*
X-292759Y447445D01*
X-292779Y447533D01*
X-292828Y447719D01*
X-292892Y447920D01*
X-292961Y448126D01*
X-293039Y448312D01*
X-292446Y448543D01*
X-292441Y448538D01*
D02*
G37*
G36*
X-524241Y108383D02*
Y108355D01*
Y108314D01*
X-524248Y108258D01*
X-524255Y108182D01*
X-524262Y108099D01*
X-524269Y107995D01*
X-524283Y107884D01*
X-524297Y107752D01*
X-524317Y107620D01*
X-524338Y107468D01*
X-524366Y107308D01*
X-524401Y107135D01*
X-524435Y106955D01*
X-524484Y106768D01*
X-524532Y106573D01*
X-524539Y106559D01*
X-524546Y106525D01*
X-524560Y106469D01*
X-524588Y106393D01*
X-524616Y106296D01*
X-524650Y106178D01*
X-524692Y106053D01*
X-524740Y105915D01*
X-524796Y105762D01*
X-524858Y105596D01*
X-524921Y105422D01*
X-524997Y105249D01*
X-525156Y104881D01*
X-525344Y104507D01*
X-525351Y104493D01*
X-525371Y104465D01*
X-525399Y104410D01*
X-525434Y104340D01*
X-525489Y104257D01*
X-525545Y104160D01*
X-525614Y104049D01*
X-525683Y103925D01*
X-525767Y103800D01*
X-525857Y103661D01*
X-526051Y103384D01*
X-526259Y103099D01*
X-526370Y102961D01*
X-526481Y102829D01*
X-523347D01*
Y102073D01*
X-527486D01*
Y102690D01*
X-527479Y102697D01*
X-527459Y102718D01*
X-527424Y102760D01*
X-527382Y102808D01*
X-527327Y102877D01*
X-527257Y102954D01*
X-527188Y103044D01*
X-527105Y103148D01*
X-527015Y103266D01*
X-526918Y103398D01*
X-526814Y103543D01*
X-526710Y103696D01*
X-526606Y103855D01*
X-526495Y104035D01*
X-526377Y104223D01*
X-526266Y104417D01*
X-526259Y104431D01*
X-526238Y104465D01*
X-526210Y104521D01*
X-526169Y104604D01*
X-526120Y104701D01*
X-526058Y104819D01*
X-525995Y104951D01*
X-525926Y105096D01*
X-525857Y105256D01*
X-525780Y105429D01*
X-525704Y105616D01*
X-525628Y105804D01*
X-525552Y106005D01*
X-525475Y106213D01*
X-525344Y106636D01*
Y106643D01*
X-525337Y106670D01*
X-525323Y106719D01*
X-525309Y106774D01*
X-525288Y106851D01*
X-525267Y106941D01*
X-525240Y107045D01*
X-525219Y107156D01*
X-525191Y107281D01*
X-525170Y107419D01*
X-525143Y107565D01*
X-525122Y107718D01*
X-525094Y107877D01*
X-525073Y108043D01*
X-525046Y108390D01*
X-524241D01*
Y108383D01*
D02*
G37*
G36*
X-522313Y108869D02*
X-522272Y108855D01*
X-522223Y108834D01*
X-522161Y108806D01*
X-522085Y108778D01*
X-522001Y108737D01*
X-521911Y108688D01*
X-521814Y108640D01*
X-521703Y108584D01*
X-521474Y108453D01*
X-521225Y108293D01*
X-520968Y108106D01*
X-520961Y108113D01*
X-520933Y108120D01*
X-520899Y108140D01*
X-520843Y108168D01*
X-520774Y108196D01*
X-520698Y108231D01*
X-520608Y108265D01*
X-520504Y108300D01*
X-520393Y108335D01*
X-520268Y108369D01*
X-520143Y108404D01*
X-520004Y108432D01*
X-519706Y108480D01*
X-519554Y108487D01*
X-519394Y108494D01*
X-519311D01*
X-519249Y108487D01*
X-519172Y108480D01*
X-519082Y108473D01*
X-518985Y108459D01*
X-518874Y108439D01*
X-518756Y108418D01*
X-518631Y108390D01*
X-518500Y108355D01*
X-518368Y108321D01*
X-518229Y108272D01*
X-518091Y108217D01*
X-517952Y108154D01*
X-517820Y108078D01*
X-517813Y108071D01*
X-517792Y108057D01*
X-517751Y108036D01*
X-517702Y108002D01*
X-517647Y107960D01*
X-517577Y107905D01*
X-517501Y107842D01*
X-517418Y107773D01*
X-517335Y107697D01*
X-517244Y107606D01*
X-517154Y107509D01*
X-517064Y107405D01*
X-516974Y107295D01*
X-516891Y107177D01*
X-516808Y107045D01*
X-516731Y106906D01*
X-516724Y106899D01*
X-516717Y106872D01*
X-516697Y106830D01*
X-516669Y106774D01*
X-516641Y106698D01*
X-516614Y106615D01*
X-516579Y106518D01*
X-516544Y106407D01*
X-516502Y106282D01*
X-516468Y106150D01*
X-516440Y106012D01*
X-516412Y105859D01*
X-516385Y105707D01*
X-516364Y105540D01*
X-516357Y105367D01*
X-516350Y105193D01*
Y105180D01*
Y105152D01*
Y105103D01*
X-516357Y105034D01*
X-516364Y104951D01*
X-516371Y104854D01*
X-516385Y104743D01*
X-516399Y104618D01*
X-516419Y104493D01*
X-516440Y104354D01*
X-516510Y104063D01*
X-516558Y103918D01*
X-516607Y103765D01*
X-516662Y103612D01*
X-516731Y103467D01*
X-516738Y103460D01*
X-516752Y103432D01*
X-516773Y103391D01*
X-516801Y103342D01*
X-516842Y103273D01*
X-516891Y103196D01*
X-516946Y103120D01*
X-517009Y103030D01*
X-517085Y102933D01*
X-517168Y102836D01*
X-517251Y102739D01*
X-517349Y102642D01*
X-517459Y102544D01*
X-517570Y102454D01*
X-517688Y102364D01*
X-517820Y102288D01*
X-517827Y102281D01*
X-517855Y102267D01*
X-517889Y102253D01*
X-517945Y102226D01*
X-518014Y102191D01*
X-518091Y102156D01*
X-518188Y102122D01*
X-518285Y102080D01*
X-518402Y102045D01*
X-518520Y102011D01*
X-518652Y101976D01*
X-518798Y101941D01*
X-518943Y101913D01*
X-519096Y101900D01*
X-519255Y101886D01*
X-519415Y101879D01*
X-519498D01*
X-519561Y101886D01*
X-519644Y101893D01*
X-519734Y101900D01*
X-519831Y101913D01*
X-519942Y101934D01*
X-520067Y101955D01*
X-520191Y101983D01*
X-520323Y102018D01*
X-520462Y102059D01*
X-520601Y102108D01*
X-520739Y102163D01*
X-520871Y102226D01*
X-521010Y102302D01*
X-521017Y102309D01*
X-521044Y102323D01*
X-521079Y102344D01*
X-521128Y102378D01*
X-521190Y102420D01*
X-521253Y102475D01*
X-521329Y102538D01*
X-521412Y102607D01*
X-521502Y102690D01*
X-521592Y102773D01*
X-521682Y102871D01*
X-521772Y102975D01*
X-521856Y103092D01*
X-521946Y103210D01*
X-522022Y103342D01*
X-522098Y103481D01*
X-522105Y103488D01*
X-522112Y103515D01*
X-522133Y103557D01*
X-522154Y103612D01*
X-522189Y103682D01*
X-522216Y103772D01*
X-522251Y103869D01*
X-522286Y103980D01*
X-522320Y104098D01*
X-522355Y104230D01*
X-522390Y104368D01*
X-522417Y104521D01*
X-522438Y104673D01*
X-522459Y104840D01*
X-522466Y105013D01*
X-522473Y105187D01*
Y105193D01*
Y105221D01*
Y105263D01*
X-522466Y105318D01*
Y105388D01*
X-522459Y105471D01*
X-522452Y105561D01*
X-522445Y105658D01*
X-522431Y105769D01*
X-522411Y105880D01*
X-522369Y106123D01*
X-522313Y106365D01*
X-522230Y106608D01*
Y106615D01*
X-522216Y106636D01*
X-522202Y106670D01*
X-522182Y106712D01*
X-522161Y106768D01*
X-522126Y106830D01*
X-522091Y106906D01*
X-522050Y106982D01*
X-521946Y107156D01*
X-521821Y107336D01*
X-521675Y107523D01*
X-521502Y107704D01*
X-521509Y107711D01*
X-521530Y107724D01*
X-521558Y107745D01*
X-521606Y107773D01*
X-521655Y107801D01*
X-521717Y107842D01*
X-521786Y107884D01*
X-521863Y107932D01*
X-522029Y108029D01*
X-522216Y108127D01*
X-522411Y108224D01*
X-522598Y108300D01*
X-522341Y108882D01*
X-522334D01*
X-522313Y108869D01*
D02*
G37*
G36*
X109090Y529118D02*
X104090D01*
X104104Y529105D01*
X104139Y529070D01*
X104188Y529007D01*
X104257Y528917D01*
X104340Y528813D01*
X104430Y528682D01*
X104527Y528536D01*
X104631Y528370D01*
Y528363D01*
X104645Y528349D01*
X104659Y528328D01*
X104673Y528293D01*
X104701Y528252D01*
X104722Y528203D01*
X104784Y528092D01*
X104846Y527967D01*
X104916Y527829D01*
X104978Y527683D01*
X105034Y527544D01*
X104278D01*
X104271Y527551D01*
X104264Y527572D01*
X104243Y527607D01*
X104222Y527655D01*
X104195Y527711D01*
X104153Y527780D01*
X104111Y527856D01*
X104070Y527933D01*
X103959Y528113D01*
X103827Y528307D01*
X103688Y528508D01*
X103529Y528695D01*
X103522Y528702D01*
X103508Y528716D01*
X103487Y528744D01*
X103453Y528779D01*
X103411Y528813D01*
X103369Y528862D01*
X103251Y528966D01*
X103127Y529084D01*
X102981Y529202D01*
X102829Y529306D01*
X102669Y529396D01*
Y529902D01*
X109090D01*
Y529118D01*
D02*
G37*
G36*
X109582Y525991D02*
Y525984D01*
X109569Y525963D01*
X109555Y525922D01*
X109534Y525873D01*
X109506Y525811D01*
X109478Y525735D01*
X109437Y525651D01*
X109388Y525561D01*
X109340Y525464D01*
X109284Y525353D01*
X109152Y525124D01*
X108993Y524875D01*
X108806Y524618D01*
X108813Y524611D01*
X108820Y524584D01*
X108841Y524549D01*
X108868Y524493D01*
X108896Y524424D01*
X108931Y524348D01*
X108965Y524258D01*
X109000Y524154D01*
X109035Y524043D01*
X109069Y523918D01*
X109104Y523793D01*
X109132Y523654D01*
X109180Y523356D01*
X109187Y523204D01*
X109194Y523044D01*
Y522961D01*
X109187Y522898D01*
X109180Y522822D01*
X109173Y522732D01*
X109159Y522635D01*
X109139Y522524D01*
X109118Y522406D01*
X109090Y522281D01*
X109055Y522150D01*
X109021Y522018D01*
X108972Y521879D01*
X108917Y521740D01*
X108854Y521602D01*
X108778Y521470D01*
X108771Y521463D01*
X108757Y521442D01*
X108736Y521401D01*
X108702Y521352D01*
X108660Y521297D01*
X108605Y521227D01*
X108542Y521151D01*
X108473Y521068D01*
X108397Y520985D01*
X108307Y520895D01*
X108209Y520804D01*
X108105Y520714D01*
X107994Y520624D01*
X107877Y520541D01*
X107745Y520458D01*
X107606Y520381D01*
X107599Y520374D01*
X107571Y520368D01*
X107530Y520347D01*
X107474Y520319D01*
X107398Y520291D01*
X107315Y520263D01*
X107218Y520229D01*
X107107Y520194D01*
X106982Y520153D01*
X106850Y520118D01*
X106712Y520090D01*
X106559Y520062D01*
X106407Y520035D01*
X106240Y520014D01*
X106067Y520007D01*
X105893Y520000D01*
X105880D01*
X105852D01*
X105803D01*
X105734Y520007D01*
X105651Y520014D01*
X105554Y520021D01*
X105443Y520035D01*
X105318Y520048D01*
X105193Y520069D01*
X105054Y520090D01*
X104763Y520159D01*
X104618Y520208D01*
X104465Y520257D01*
X104312Y520312D01*
X104167Y520381D01*
X104160Y520388D01*
X104132Y520402D01*
X104090Y520423D01*
X104042Y520451D01*
X103973Y520492D01*
X103896Y520541D01*
X103820Y520596D01*
X103730Y520659D01*
X103633Y520735D01*
X103536Y520818D01*
X103439Y520901D01*
X103342Y520998D01*
X103245Y521110D01*
X103154Y521220D01*
X103064Y521338D01*
X102988Y521470D01*
X102981Y521477D01*
X102967Y521505D01*
X102953Y521539D01*
X102926Y521595D01*
X102891Y521664D01*
X102856Y521740D01*
X102822Y521838D01*
X102780Y521935D01*
X102745Y522052D01*
X102711Y522170D01*
X102676Y522302D01*
X102641Y522448D01*
X102614Y522593D01*
X102600Y522746D01*
X102586Y522905D01*
X102579Y523065D01*
Y523148D01*
X102586Y523210D01*
X102593Y523294D01*
X102600Y523384D01*
X102614Y523481D01*
X102634Y523592D01*
X102655Y523717D01*
X102683Y523842D01*
X102718Y523973D01*
X102759Y524112D01*
X102808Y524251D01*
X102863Y524389D01*
X102926Y524521D01*
X103002Y524660D01*
X103009Y524667D01*
X103023Y524695D01*
X103043Y524729D01*
X103078Y524778D01*
X103120Y524840D01*
X103175Y524902D01*
X103238Y524979D01*
X103307Y525062D01*
X103390Y525152D01*
X103473Y525242D01*
X103570Y525332D01*
X103674Y525423D01*
X103792Y525506D01*
X103910Y525596D01*
X104042Y525672D01*
X104181Y525748D01*
X104188Y525755D01*
X104215Y525762D01*
X104257Y525783D01*
X104312Y525804D01*
X104382Y525839D01*
X104472Y525866D01*
X104569Y525901D01*
X104680Y525936D01*
X104798Y525970D01*
X104930Y526005D01*
X105068Y526040D01*
X105221Y526067D01*
X105373Y526088D01*
X105540Y526109D01*
X105713Y526116D01*
X105886Y526123D01*
X105893D01*
X105921D01*
X105963D01*
X106018Y526116D01*
X106088D01*
X106171Y526109D01*
X106261Y526102D01*
X106358Y526095D01*
X106469Y526081D01*
X106580Y526060D01*
X106823Y526019D01*
X107065Y525963D01*
X107308Y525880D01*
X107315D01*
X107336Y525866D01*
X107370Y525853D01*
X107412Y525832D01*
X107467Y525811D01*
X107530Y525776D01*
X107606Y525742D01*
X107683Y525700D01*
X107856Y525596D01*
X108036Y525471D01*
X108223Y525326D01*
X108404Y525152D01*
X108411Y525159D01*
X108424Y525180D01*
X108445Y525208D01*
X108473Y525256D01*
X108501Y525305D01*
X108542Y525367D01*
X108584Y525436D01*
X108632Y525513D01*
X108729Y525679D01*
X108827Y525866D01*
X108924Y526060D01*
X109000Y526248D01*
X109582Y525991D01*
D02*
G37*
G36*
X448862Y298608D02*
X448911D01*
X448975Y298603D01*
X449054Y298594D01*
X449137Y298579D01*
X449230Y298554D01*
X449323Y298530D01*
X449426Y298495D01*
X449534Y298456D01*
X449642Y298407D01*
X449755Y298343D01*
X449863Y298275D01*
X449966Y298191D01*
X450069Y298098D01*
X450074Y298093D01*
X450078Y298088D01*
X450093Y298074D01*
X450113Y298054D01*
X450162Y297995D01*
X450221Y297917D01*
X450289Y297819D01*
X450358Y297711D01*
X450431Y297588D01*
X450490Y297451D01*
X450495Y297446D01*
Y297436D01*
X450505Y297417D01*
X450515Y297387D01*
X450539Y297304D01*
X450569Y297196D01*
X450598Y297059D01*
X450628Y296902D01*
X450652Y296730D01*
X450667Y296529D01*
Y296519D01*
X450672Y296505D01*
X450667Y296470D01*
X450672Y296426D01*
Y296367D01*
Y296299D01*
X450677Y296215D01*
X450672Y296122D01*
X450667Y296010D01*
X450662Y295887D01*
Y295750D01*
X450652Y295602D01*
X450647Y295441D01*
X450633Y295269D01*
X450618Y295078D01*
X450603Y294877D01*
Y294867D01*
Y294838D01*
X450593Y294789D01*
Y294730D01*
X450583Y294651D01*
X450578Y294568D01*
X450564Y294377D01*
X450549Y294176D01*
X450544Y293975D01*
X450539Y293881D01*
X450534Y293798D01*
Y293720D01*
Y293661D01*
Y293651D01*
Y293612D01*
X450539Y293558D01*
X450544Y293484D01*
X450549Y293401D01*
X450559Y293313D01*
X450588Y293126D01*
X452819Y295357D01*
X453354Y294823D01*
X450358Y291827D01*
X450348Y291837D01*
X450324Y291861D01*
X450284Y291901D01*
X450240Y291954D01*
X450186Y292018D01*
X450137Y292097D01*
X450083Y292180D01*
X450039Y292273D01*
X450034Y292278D01*
X450029Y292293D01*
X450020Y292312D01*
X450005Y292347D01*
X449995Y292386D01*
X449975Y292435D01*
X449936Y292553D01*
X449892Y292695D01*
X449853Y292862D01*
X449818Y293043D01*
X449799Y293239D01*
Y293249D01*
X449794Y293264D01*
Y293293D01*
Y293342D01*
Y293391D01*
Y293460D01*
X449789Y293533D01*
Y293622D01*
Y293720D01*
X449794Y293823D01*
Y293940D01*
X449804Y294068D01*
X449809Y294200D01*
X449823Y294342D01*
X449833Y294489D01*
X449848Y294651D01*
X449853Y294666D01*
Y294715D01*
X449858Y294779D01*
X449863Y294872D01*
X449873Y294980D01*
X449882Y295107D01*
X449897Y295250D01*
X449902Y295401D01*
X449917Y295720D01*
Y296044D01*
Y296201D01*
X449912Y296353D01*
X449902Y296490D01*
X449887Y296613D01*
Y296622D01*
X449882Y296637D01*
X449877Y296671D01*
X449868Y296711D01*
X449858Y296770D01*
X449843Y296823D01*
X449804Y296961D01*
X449750Y297113D01*
X449681Y297270D01*
X449593Y297417D01*
X449539Y297480D01*
X449485Y297544D01*
X449480Y297549D01*
X449470Y297559D01*
X449451Y297579D01*
X449426Y297593D01*
X449397Y297623D01*
X449353Y297647D01*
X449264Y297706D01*
X449147Y297765D01*
X449010Y297814D01*
X448936Y297838D01*
X448857Y297848D01*
X448779Y297858D01*
X448671D01*
X448647Y297853D01*
X448612Y297848D01*
X448568Y297843D01*
X448519Y297833D01*
X448406Y297809D01*
X448274Y297755D01*
X448132Y297691D01*
X447985Y297593D01*
X447906Y297534D01*
X447798Y297426D01*
X447774Y297392D01*
X447740Y297358D01*
X447710Y297309D01*
X447637Y297206D01*
X447563Y297073D01*
X447499Y296922D01*
X447475Y296838D01*
X447450Y296755D01*
X447440Y296667D01*
X447436Y296573D01*
Y296563D01*
Y296554D01*
X447440Y296529D01*
Y296490D01*
X447450Y296451D01*
X447460Y296402D01*
X447470Y296343D01*
X447490Y296284D01*
X447509Y296215D01*
X447539Y296147D01*
X447617Y295990D01*
X447715Y295833D01*
X447784Y295755D01*
X447857Y295671D01*
X447230Y295161D01*
X447220Y295171D01*
X447205Y295196D01*
X447181Y295230D01*
X447141Y295279D01*
X447097Y295343D01*
X447048Y295421D01*
X446994Y295504D01*
X446945Y295602D01*
X446896Y295701D01*
X446842Y295813D01*
X446803Y295931D01*
X446764Y296049D01*
X446730Y296181D01*
X446710Y296309D01*
X446695Y296441D01*
X446700Y296573D01*
Y296583D01*
X446705Y296608D01*
X446710Y296642D01*
X446715Y296696D01*
X446730Y296760D01*
X446749Y296838D01*
X446774Y296922D01*
X446803Y297020D01*
X446842Y297118D01*
X446891Y297225D01*
X446945Y297338D01*
X447014Y297456D01*
X447087Y297579D01*
X447176Y297696D01*
X447279Y297819D01*
X447391Y297941D01*
X447455Y298005D01*
X447504Y298044D01*
X447563Y298093D01*
X447637Y298147D01*
X447720Y298211D01*
X447808Y298270D01*
X447911Y298334D01*
X448019Y298392D01*
X448137Y298451D01*
X448254Y298500D01*
X448387Y298544D01*
X448519Y298579D01*
X448652Y298603D01*
X448789Y298613D01*
X448818D01*
X448862Y298608D01*
D02*
G37*
G36*
X445391Y294666D02*
X445528Y294656D01*
X445670Y294632D01*
X445817Y294612D01*
X445965Y294573D01*
X446117Y294529D01*
X446126D01*
X446151Y294514D01*
X446195Y294499D01*
X446249Y294475D01*
X446323Y294450D01*
X446406Y294406D01*
X446499Y294362D01*
X446602Y294308D01*
X446710Y294249D01*
X446828Y294181D01*
X446950Y294107D01*
X447078Y294019D01*
X447200Y293926D01*
X447333Y293823D01*
X447460Y293705D01*
X447588Y293587D01*
X447593Y293582D01*
X447612Y293563D01*
X447641Y293533D01*
X447676Y293489D01*
X447725Y293440D01*
X447779Y293376D01*
X447838Y293308D01*
X447901Y293234D01*
X447970Y293146D01*
X448034Y293053D01*
X448176Y292852D01*
X448308Y292641D01*
X448421Y292411D01*
X448426Y292406D01*
X448431Y292381D01*
X448446Y292347D01*
X448460Y292303D01*
X448485Y292249D01*
X448504Y292180D01*
X448534Y292102D01*
X448558Y292018D01*
X448607Y291822D01*
X448647Y291606D01*
X448676Y291371D01*
X448681Y291121D01*
X448691D01*
X448715Y291126D01*
X448750Y291131D01*
X448804Y291145D01*
X448857Y291160D01*
X448931Y291175D01*
X449010Y291194D01*
X449098Y291214D01*
X449284Y291263D01*
X449485Y291327D01*
X449691Y291395D01*
X449877Y291474D01*
X450108Y290881D01*
X450103Y290876D01*
X450078Y290871D01*
X450039Y290851D01*
X449990Y290832D01*
X449926Y290807D01*
X449853Y290773D01*
X449765Y290743D01*
X449666Y290714D01*
X449564Y290680D01*
X449446Y290640D01*
X449191Y290572D01*
X448902Y290508D01*
X448588Y290459D01*
Y290449D01*
X448573Y290425D01*
X448563Y290385D01*
X448544Y290327D01*
X448514Y290258D01*
X448485Y290180D01*
X448446Y290091D01*
X448397Y289993D01*
X448343Y289890D01*
X448279Y289778D01*
X448215Y289665D01*
X448137Y289547D01*
X447960Y289302D01*
X447857Y289189D01*
X447749Y289071D01*
X447691Y289013D01*
X447641Y288973D01*
X447583Y288924D01*
X447514Y288866D01*
X447436Y288807D01*
X447342Y288743D01*
X447244Y288674D01*
X447136Y288606D01*
X447019Y288537D01*
X446901Y288468D01*
X446769Y288405D01*
X446631Y288346D01*
X446489Y288292D01*
X446342Y288253D01*
X446332D01*
X446308Y288248D01*
X446264Y288233D01*
X446205Y288223D01*
X446136Y288213D01*
X446048Y288204D01*
X445950Y288194D01*
X445842Y288184D01*
X445729Y288179D01*
X445602D01*
X445469Y288184D01*
X445332Y288194D01*
X445190Y288208D01*
X445048Y288233D01*
X444896Y288267D01*
X444744Y288311D01*
X444734D01*
X444709Y288326D01*
X444665Y288341D01*
X444606Y288360D01*
X444533Y288395D01*
X444454Y288434D01*
X444361Y288478D01*
X444258Y288532D01*
X444141Y288591D01*
X444023Y288659D01*
X443905Y288738D01*
X443778Y288826D01*
X443650Y288915D01*
X443518Y289018D01*
X443390Y289135D01*
X443263Y289253D01*
X443253Y289263D01*
X443233Y289282D01*
X443199Y289317D01*
X443155Y289370D01*
X443101Y289434D01*
X443037Y289508D01*
X442969Y289596D01*
X442890Y289694D01*
X442817Y289797D01*
X442733Y289910D01*
X442576Y290165D01*
X442508Y290302D01*
X442434Y290444D01*
X442366Y290591D01*
X442312Y290743D01*
Y290753D01*
X442302Y290783D01*
X442287Y290827D01*
X442272Y290881D01*
X442253Y290959D01*
X442233Y291047D01*
X442219Y291141D01*
X442199Y291248D01*
X442184Y291371D01*
X442174Y291499D01*
X442165Y291626D01*
Y291763D01*
X442174Y291910D01*
X442189Y292053D01*
X442209Y292200D01*
X442248Y292347D01*
Y292357D01*
X442258Y292386D01*
X442272Y292420D01*
X442292Y292479D01*
X442317Y292553D01*
X442346Y292631D01*
X442390Y292724D01*
X442429Y292822D01*
X442488Y292930D01*
X442547Y293038D01*
X442616Y293156D01*
X442694Y293283D01*
X442777Y293406D01*
X442876Y293524D01*
X442979Y293646D01*
X443086Y293764D01*
X443145Y293823D01*
X443194Y293862D01*
X443258Y293916D01*
X443327Y293975D01*
X443405Y294034D01*
X443498Y294097D01*
X443601Y294171D01*
X443709Y294239D01*
X443827Y294308D01*
X443954Y294377D01*
X444087Y294440D01*
X444224Y294499D01*
X444361Y294548D01*
X444513Y294592D01*
X444523D01*
X444552Y294602D01*
X444592Y294612D01*
X444650Y294622D01*
X444724Y294637D01*
X444807Y294641D01*
X444906Y294651D01*
X445013Y294661D01*
X445136Y294666D01*
X445258Y294671D01*
X445391Y294666D01*
D02*
G37*
G36*
X-443561Y-290204D02*
X-443429Y-290209D01*
X-443292Y-290218D01*
X-443150Y-290233D01*
X-443007Y-290258D01*
X-442855Y-290292D01*
X-442703Y-290336D01*
X-442694D01*
X-442669Y-290351D01*
X-442625Y-290366D01*
X-442566Y-290385D01*
X-442492Y-290419D01*
X-442414Y-290459D01*
X-442321Y-290503D01*
X-442218Y-290557D01*
X-442100Y-290616D01*
X-441983Y-290684D01*
X-441865Y-290763D01*
X-441737Y-290851D01*
X-441610Y-290939D01*
X-441478Y-291042D01*
X-441350Y-291160D01*
X-441223Y-291278D01*
X-441213Y-291287D01*
X-441193Y-291307D01*
X-441159Y-291341D01*
X-441115Y-291395D01*
X-441061Y-291459D01*
X-440997Y-291532D01*
X-440928Y-291621D01*
X-440850Y-291719D01*
X-440776Y-291822D01*
X-440693Y-291935D01*
X-440536Y-292190D01*
X-440467Y-292327D01*
X-440394Y-292469D01*
X-440325Y-292616D01*
X-440271Y-292768D01*
Y-292778D01*
X-440262Y-292807D01*
X-440247Y-292851D01*
X-440232Y-292905D01*
X-440213Y-292984D01*
X-440193Y-293072D01*
X-440178Y-293165D01*
X-440159Y-293273D01*
X-440144Y-293396D01*
X-440134Y-293523D01*
X-440124Y-293651D01*
Y-293788D01*
X-440134Y-293935D01*
X-440149Y-294077D01*
X-440168Y-294224D01*
X-440208Y-294371D01*
Y-294381D01*
X-440217Y-294411D01*
X-440232Y-294445D01*
X-440252Y-294504D01*
X-440276Y-294577D01*
X-440306Y-294656D01*
X-440350Y-294749D01*
X-440389Y-294847D01*
X-440448Y-294955D01*
X-440507Y-295063D01*
X-440575Y-295180D01*
X-440654Y-295308D01*
X-440737Y-295431D01*
X-440835Y-295548D01*
X-440938Y-295671D01*
X-441046Y-295788D01*
X-441105Y-295847D01*
X-441154Y-295886D01*
X-441218Y-295940D01*
X-441286Y-295999D01*
X-441365Y-296058D01*
X-441458Y-296122D01*
X-441561Y-296195D01*
X-441669Y-296264D01*
X-441786Y-296333D01*
X-441914Y-296401D01*
X-442046Y-296465D01*
X-442184Y-296524D01*
X-442321Y-296573D01*
X-442473Y-296617D01*
X-442483D01*
X-442512Y-296627D01*
X-442551Y-296637D01*
X-442610Y-296646D01*
X-442684Y-296661D01*
X-442767Y-296666D01*
X-442865Y-296676D01*
X-442973Y-296686D01*
X-443096Y-296691D01*
X-443218Y-296696D01*
X-443351Y-296691D01*
X-443488Y-296681D01*
X-443630Y-296656D01*
X-443777Y-296637D01*
X-443924Y-296597D01*
X-444076Y-296553D01*
X-444086D01*
X-444111Y-296539D01*
X-444155Y-296524D01*
X-444209Y-296499D01*
X-444282Y-296475D01*
X-444366Y-296431D01*
X-444459Y-296387D01*
X-444562Y-296333D01*
X-444670Y-296274D01*
X-444787Y-296205D01*
X-444910Y-296132D01*
X-445037Y-296043D01*
X-445160Y-295950D01*
X-445292Y-295847D01*
X-445420Y-295730D01*
X-445547Y-295612D01*
X-445552Y-295607D01*
X-445572Y-295587D01*
X-445601Y-295558D01*
X-445635Y-295514D01*
X-445685Y-295465D01*
X-445738Y-295401D01*
X-445797Y-295333D01*
X-445861Y-295259D01*
X-445930Y-295171D01*
X-445993Y-295077D01*
X-446136Y-294876D01*
X-446268Y-294666D01*
X-446381Y-294435D01*
X-446386Y-294430D01*
X-446391Y-294406D01*
X-446405Y-294371D01*
X-446420Y-294327D01*
X-446445Y-294273D01*
X-446464Y-294205D01*
X-446494Y-294126D01*
X-446518Y-294043D01*
X-446567Y-293847D01*
X-446606Y-293631D01*
X-446636Y-293396D01*
X-446641Y-293146D01*
X-446651D01*
X-446675Y-293151D01*
X-446709Y-293155D01*
X-446763Y-293170D01*
X-446817Y-293185D01*
X-446891Y-293200D01*
X-446969Y-293219D01*
X-447057Y-293239D01*
X-447244Y-293288D01*
X-447445Y-293352D01*
X-447651Y-293420D01*
X-447837Y-293499D01*
X-448068Y-292905D01*
X-448063Y-292901D01*
X-448038Y-292896D01*
X-447999Y-292876D01*
X-447950Y-292856D01*
X-447886Y-292832D01*
X-447812Y-292798D01*
X-447724Y-292768D01*
X-447626Y-292739D01*
X-447523Y-292704D01*
X-447406Y-292665D01*
X-447151Y-292596D01*
X-446861Y-292533D01*
X-446548Y-292484D01*
Y-292474D01*
X-446533Y-292449D01*
X-446523Y-292410D01*
X-446503Y-292351D01*
X-446474Y-292283D01*
X-446445Y-292204D01*
X-446405Y-292116D01*
X-446356Y-292018D01*
X-446302Y-291915D01*
X-446239Y-291802D01*
X-446175Y-291689D01*
X-446096Y-291572D01*
X-445920Y-291327D01*
X-445817Y-291214D01*
X-445709Y-291096D01*
X-445650Y-291037D01*
X-445601Y-290998D01*
X-445542Y-290949D01*
X-445474Y-290890D01*
X-445395Y-290831D01*
X-445302Y-290768D01*
X-445204Y-290699D01*
X-445096Y-290630D01*
X-444978Y-290562D01*
X-444861Y-290493D01*
X-444728Y-290429D01*
X-444591Y-290370D01*
X-444449Y-290317D01*
X-444302Y-290277D01*
X-444292D01*
X-444268Y-290272D01*
X-444223Y-290258D01*
X-444165Y-290248D01*
X-444096Y-290238D01*
X-444008Y-290228D01*
X-443910Y-290218D01*
X-443802Y-290209D01*
X-443689Y-290204D01*
X-443561D01*
D02*
G37*
G36*
X-448367Y-294774D02*
X-448357D01*
X-448322Y-294778D01*
X-448273Y-294788D01*
X-448200Y-294803D01*
X-448112Y-294823D01*
X-448009Y-294857D01*
X-447886Y-294901D01*
X-447749Y-294960D01*
X-447597Y-295024D01*
X-447435Y-295107D01*
X-447263Y-295210D01*
X-447077Y-295328D01*
X-446881Y-295465D01*
X-446680Y-295627D01*
X-446469Y-295808D01*
X-446253Y-296014D01*
X-446248Y-296019D01*
X-446239Y-296029D01*
X-446219Y-296048D01*
X-446194Y-296073D01*
X-446165Y-296102D01*
X-446131Y-296146D01*
X-446091Y-296186D01*
X-446047Y-296240D01*
X-445944Y-296352D01*
X-445832Y-296485D01*
X-445709Y-296637D01*
X-445582Y-296803D01*
X-445454Y-296990D01*
X-445327Y-297176D01*
X-445209Y-297372D01*
X-445101Y-297578D01*
X-445003Y-297784D01*
X-444920Y-297995D01*
X-444866Y-298206D01*
X-444831Y-298407D01*
Y-298417D01*
X-444827Y-298451D01*
Y-298500D01*
Y-298569D01*
Y-298647D01*
X-444836Y-298745D01*
X-444851Y-298848D01*
X-444871Y-298966D01*
X-444900Y-299093D01*
X-444944Y-299226D01*
X-444993Y-299363D01*
X-445057Y-299505D01*
X-445131Y-299647D01*
X-445224Y-299790D01*
X-445327Y-299932D01*
X-445454Y-300069D01*
X-445508Y-300123D01*
X-445547Y-300152D01*
X-445596Y-300192D01*
X-445655Y-300241D01*
X-445724Y-300290D01*
X-445802Y-300339D01*
X-445979Y-300446D01*
X-446072Y-300491D01*
X-446180Y-300540D01*
X-446288Y-300579D01*
X-446400Y-300603D01*
X-446513Y-300628D01*
X-446636Y-300643D01*
X-446646D01*
X-446665D01*
X-446699Y-300648D01*
X-446744Y-300643D01*
X-446802D01*
X-446871Y-300633D01*
X-446950Y-300623D01*
X-447033Y-300608D01*
X-447121Y-300589D01*
X-447219Y-300559D01*
X-447322Y-300525D01*
X-447430Y-300486D01*
X-447538Y-300437D01*
X-447646Y-300378D01*
X-447759Y-300314D01*
X-447871Y-300231D01*
X-447361Y-299633D01*
X-447356Y-299638D01*
X-447342Y-299642D01*
X-447322Y-299652D01*
X-447293Y-299672D01*
X-447219Y-299716D01*
X-447126Y-299760D01*
X-447018Y-299809D01*
X-446900Y-299848D01*
X-446788Y-299883D01*
X-446675Y-299897D01*
X-446665D01*
X-446655D01*
X-446626D01*
X-446596D01*
X-446508Y-299888D01*
X-446395Y-299863D01*
X-446273Y-299829D01*
X-446141Y-299765D01*
X-446003Y-299687D01*
X-445939Y-299633D01*
X-445876Y-299579D01*
X-445832Y-299534D01*
X-445788Y-299471D01*
X-445734Y-299397D01*
X-445680Y-299304D01*
X-445626Y-299201D01*
X-445587Y-299083D01*
X-445557Y-298956D01*
X-445552Y-298951D01*
X-445557Y-298936D01*
X-445552Y-298912D01*
X-445547Y-298878D01*
Y-298789D01*
X-445552Y-298667D01*
X-445562Y-298520D01*
X-445591Y-298353D01*
X-445640Y-298176D01*
X-445704Y-297985D01*
X-445709Y-297980D01*
X-445714Y-297966D01*
X-445729Y-297931D01*
X-445748Y-297892D01*
X-445773Y-297848D01*
X-445807Y-297784D01*
X-445846Y-297715D01*
X-445891Y-297642D01*
X-445944Y-297558D01*
X-446013Y-297470D01*
X-446087Y-297367D01*
X-446165Y-297259D01*
X-446253Y-297152D01*
X-446356Y-297039D01*
X-446469Y-296916D01*
X-446582Y-296794D01*
Y-296794D01*
X-446587Y-296789D01*
X-446582Y-296794D01*
Y-296813D01*
X-446577Y-296838D01*
X-446572Y-296872D01*
X-446562Y-296970D01*
X-446548Y-297093D01*
Y-297240D01*
X-446557Y-297397D01*
X-446582Y-297558D01*
X-446621Y-297725D01*
X-446626Y-297730D01*
X-446631Y-297745D01*
X-446636Y-297769D01*
X-446646Y-297799D01*
X-446665Y-297838D01*
X-446680Y-297882D01*
X-446729Y-297990D01*
X-446798Y-298108D01*
X-446876Y-298235D01*
X-446969Y-298368D01*
X-447082Y-298490D01*
X-447107Y-298515D01*
X-447141Y-298539D01*
X-447180Y-298578D01*
X-447239Y-298618D01*
X-447298Y-298667D01*
X-447376Y-298716D01*
X-447459Y-298770D01*
X-447553Y-298814D01*
X-447656Y-298868D01*
X-447768Y-298912D01*
X-447886Y-298951D01*
X-448018Y-298985D01*
X-448151Y-299010D01*
X-448293Y-299025D01*
X-448440D01*
X-448450D01*
X-448475Y-299020D01*
X-448514D01*
X-448577Y-299015D01*
X-448646Y-299005D01*
X-448725Y-298985D01*
X-448823Y-298966D01*
X-448921Y-298936D01*
X-449029Y-298897D01*
X-449146Y-298858D01*
X-449264Y-298799D01*
X-449391Y-298740D01*
X-449514Y-298667D01*
X-449641Y-298578D01*
X-449764Y-298475D01*
X-449887Y-298363D01*
X-449892Y-298358D01*
X-449906Y-298343D01*
X-449926Y-298323D01*
X-449955Y-298284D01*
X-449990Y-298250D01*
X-450029Y-298201D01*
X-450078Y-298142D01*
X-450122Y-298078D01*
X-450225Y-297936D01*
X-450323Y-297769D01*
X-450416Y-297588D01*
X-450495Y-297382D01*
X-450499Y-297377D01*
Y-297358D01*
X-450509Y-297328D01*
X-450519Y-297289D01*
X-450529Y-297240D01*
X-450544Y-297186D01*
X-450568Y-297044D01*
X-450588Y-296887D01*
X-450593Y-296705D01*
X-450583Y-296509D01*
X-450549Y-296318D01*
X-450544Y-296313D01*
Y-296294D01*
X-450534Y-296264D01*
X-450519Y-296230D01*
X-450504Y-296186D01*
X-450485Y-296137D01*
X-450460Y-296073D01*
X-450431Y-296014D01*
X-450362Y-295867D01*
X-450264Y-295710D01*
X-450146Y-295553D01*
X-450009Y-295396D01*
X-449980Y-295367D01*
X-449936Y-295333D01*
X-449882Y-295288D01*
X-449818Y-295234D01*
X-449735Y-295180D01*
X-449646Y-295122D01*
X-449543Y-295058D01*
X-449426Y-294999D01*
X-449303Y-294935D01*
X-449166Y-294886D01*
X-449024Y-294842D01*
X-448867Y-294803D01*
X-448710Y-294783D01*
X-448538Y-294769D01*
X-448367Y-294774D01*
D02*
G37*
G36*
X-105034Y-518857D02*
X-104951Y-518864D01*
X-104854Y-518871D01*
X-104743Y-518885D01*
X-104618Y-518899D01*
X-104493Y-518919D01*
X-104354Y-518940D01*
X-104063Y-519010D01*
X-103918Y-519058D01*
X-103765Y-519107D01*
X-103612Y-519162D01*
X-103467Y-519231D01*
X-103460Y-519238D01*
X-103432Y-519252D01*
X-103391Y-519273D01*
X-103342Y-519301D01*
X-103273Y-519342D01*
X-103196Y-519391D01*
X-103120Y-519446D01*
X-103030Y-519509D01*
X-102933Y-519585D01*
X-102836Y-519668D01*
X-102739Y-519751D01*
X-102642Y-519849D01*
X-102545Y-519959D01*
X-102455Y-520070D01*
X-102364Y-520188D01*
X-102288Y-520320D01*
X-102281Y-520327D01*
X-102267Y-520355D01*
X-102253Y-520389D01*
X-102226Y-520445D01*
X-102191Y-520514D01*
X-102156Y-520591D01*
X-102122Y-520688D01*
X-102080Y-520785D01*
X-102045Y-520902D01*
X-102011Y-521020D01*
X-101976Y-521152D01*
X-101941Y-521298D01*
X-101914Y-521443D01*
X-101900Y-521596D01*
X-101886Y-521755D01*
X-101879Y-521915D01*
Y-521998D01*
X-101886Y-522061D01*
X-101893Y-522144D01*
X-101900Y-522234D01*
X-101914Y-522331D01*
X-101934Y-522442D01*
X-101955Y-522567D01*
X-101983Y-522691D01*
X-102018Y-522823D01*
X-102059Y-522962D01*
X-102108Y-523101D01*
X-102163Y-523239D01*
X-102226Y-523371D01*
X-102302Y-523510D01*
X-102309Y-523517D01*
X-102323Y-523544D01*
X-102344Y-523579D01*
X-102378Y-523628D01*
X-102420Y-523690D01*
X-102475Y-523753D01*
X-102538Y-523829D01*
X-102607Y-523912D01*
X-102690Y-524002D01*
X-102773Y-524092D01*
X-102871Y-524182D01*
X-102975Y-524272D01*
X-103092Y-524356D01*
X-103210Y-524446D01*
X-103342Y-524522D01*
X-103481Y-524598D01*
X-103488Y-524605D01*
X-103515Y-524612D01*
X-103557Y-524633D01*
X-103612Y-524654D01*
X-103682Y-524689D01*
X-103772Y-524716D01*
X-103869Y-524751D01*
X-103980Y-524786D01*
X-104098Y-524820D01*
X-104230Y-524855D01*
X-104368Y-524890D01*
X-104521Y-524917D01*
X-104673Y-524938D01*
X-104840Y-524959D01*
X-105013Y-524966D01*
X-105187Y-524973D01*
X-105194D01*
X-105221D01*
X-105263D01*
X-105318Y-524966D01*
X-105388D01*
X-105471Y-524959D01*
X-105561Y-524952D01*
X-105658Y-524945D01*
X-105769Y-524931D01*
X-105880Y-524911D01*
X-106123Y-524869D01*
X-106365Y-524813D01*
X-106608Y-524730D01*
X-106615D01*
X-106636Y-524716D01*
X-106670Y-524702D01*
X-106712Y-524682D01*
X-106768Y-524661D01*
X-106830Y-524626D01*
X-106906Y-524591D01*
X-106982Y-524550D01*
X-107156Y-524446D01*
X-107336Y-524321D01*
X-107523Y-524175D01*
X-107704Y-524002D01*
X-107711Y-524009D01*
X-107724Y-524030D01*
X-107745Y-524058D01*
X-107773Y-524106D01*
X-107801Y-524155D01*
X-107842Y-524217D01*
X-107884Y-524286D01*
X-107933Y-524363D01*
X-108030Y-524529D01*
X-108127Y-524716D01*
X-108224Y-524911D01*
X-108300Y-525098D01*
X-108883Y-524841D01*
Y-524834D01*
X-108869Y-524813D01*
X-108855Y-524772D01*
X-108834Y-524723D01*
X-108806Y-524661D01*
X-108778Y-524585D01*
X-108737Y-524501D01*
X-108688Y-524411D01*
X-108640Y-524314D01*
X-108584Y-524203D01*
X-108453Y-523974D01*
X-108293Y-523725D01*
X-108106Y-523468D01*
X-108113Y-523461D01*
X-108120Y-523433D01*
X-108140Y-523399D01*
X-108168Y-523343D01*
X-108196Y-523274D01*
X-108231Y-523198D01*
X-108265Y-523108D01*
X-108300Y-523004D01*
X-108335Y-522893D01*
X-108369Y-522768D01*
X-108404Y-522643D01*
X-108432Y-522504D01*
X-108480Y-522206D01*
X-108487Y-522054D01*
X-108494Y-521894D01*
Y-521811D01*
X-108487Y-521749D01*
X-108480Y-521672D01*
X-108473Y-521582D01*
X-108460Y-521485D01*
X-108439Y-521374D01*
X-108418Y-521256D01*
X-108390Y-521131D01*
X-108356Y-521000D01*
X-108321Y-520868D01*
X-108272Y-520729D01*
X-108217Y-520591D01*
X-108154Y-520452D01*
X-108078Y-520320D01*
X-108071Y-520313D01*
X-108057Y-520292D01*
X-108036Y-520251D01*
X-108002Y-520202D01*
X-107960Y-520147D01*
X-107905Y-520077D01*
X-107842Y-520001D01*
X-107773Y-519918D01*
X-107697Y-519835D01*
X-107607Y-519744D01*
X-107509Y-519654D01*
X-107406Y-519564D01*
X-107295Y-519474D01*
X-107177Y-519391D01*
X-107045Y-519308D01*
X-106906Y-519231D01*
X-106899Y-519224D01*
X-106872Y-519217D01*
X-106830Y-519197D01*
X-106775Y-519169D01*
X-106698Y-519141D01*
X-106615Y-519114D01*
X-106518Y-519079D01*
X-106407Y-519044D01*
X-106282Y-519002D01*
X-106150Y-518968D01*
X-106012Y-518940D01*
X-105859Y-518912D01*
X-105707Y-518885D01*
X-105540Y-518864D01*
X-105367Y-518857D01*
X-105194Y-518850D01*
X-105180D01*
X-105152D01*
X-105103D01*
X-105034Y-518857D01*
D02*
G37*
G36*
X-106650Y-526623D02*
X-106657D01*
X-106677Y-526630D01*
X-106705Y-526637D01*
X-106747Y-526644D01*
X-106795Y-526651D01*
X-106858Y-526672D01*
X-106989Y-526706D01*
X-107135Y-526762D01*
X-107288Y-526838D01*
X-107426Y-526928D01*
X-107489Y-526984D01*
X-107551Y-527039D01*
Y-527046D01*
X-107565Y-527053D01*
X-107579Y-527074D01*
X-107600Y-527102D01*
X-107648Y-527171D01*
X-107697Y-527268D01*
X-107752Y-527386D01*
X-107801Y-527525D01*
X-107835Y-527677D01*
X-107842Y-527760D01*
X-107849Y-527851D01*
Y-527906D01*
X-107842Y-527948D01*
X-107835Y-527996D01*
X-107829Y-528052D01*
X-107794Y-528183D01*
X-107745Y-528336D01*
X-107711Y-528412D01*
X-107669Y-528495D01*
X-107620Y-528579D01*
X-107565Y-528655D01*
X-107503Y-528731D01*
X-107426Y-528807D01*
X-107419Y-528814D01*
X-107406Y-528821D01*
X-107385Y-528842D01*
X-107350Y-528870D01*
X-107302Y-528898D01*
X-107253Y-528932D01*
X-107191Y-528967D01*
X-107121Y-529009D01*
X-107045Y-529043D01*
X-106962Y-529078D01*
X-106865Y-529113D01*
X-106768Y-529140D01*
X-106657Y-529168D01*
X-106539Y-529189D01*
X-106421Y-529196D01*
X-106289Y-529203D01*
X-106282D01*
X-106261D01*
X-106227D01*
X-106178Y-529196D01*
X-106123Y-529189D01*
X-106053Y-529182D01*
X-105984Y-529168D01*
X-105901Y-529154D01*
X-105734Y-529113D01*
X-105554Y-529043D01*
X-105471Y-529002D01*
X-105388Y-528946D01*
X-105304Y-528891D01*
X-105228Y-528821D01*
X-105221Y-528814D01*
X-105214Y-528807D01*
X-105194Y-528780D01*
X-105166Y-528752D01*
X-105138Y-528717D01*
X-105103Y-528669D01*
X-105069Y-528620D01*
X-105027Y-528558D01*
X-104992Y-528489D01*
X-104958Y-528419D01*
X-104895Y-528246D01*
X-104868Y-528156D01*
X-104847Y-528052D01*
X-104840Y-527948D01*
X-104833Y-527837D01*
Y-527774D01*
X-104840Y-527698D01*
X-104854Y-527608D01*
X-104874Y-527497D01*
X-104909Y-527379D01*
X-104951Y-527261D01*
X-105013Y-527143D01*
X-105020Y-527129D01*
X-105041Y-527095D01*
X-105083Y-527039D01*
X-105131Y-526970D01*
X-105200Y-526901D01*
X-105277Y-526817D01*
X-105367Y-526741D01*
X-105464Y-526672D01*
X-105360Y-525937D01*
X-102073Y-526554D01*
Y-529737D01*
X-102822D01*
Y-527178D01*
X-104542Y-526838D01*
X-104535Y-526845D01*
X-104521Y-526866D01*
X-104507Y-526894D01*
X-104479Y-526935D01*
X-104452Y-526991D01*
X-104417Y-527053D01*
X-104375Y-527122D01*
X-104341Y-527206D01*
X-104306Y-527289D01*
X-104264Y-527386D01*
X-104202Y-527587D01*
X-104174Y-527698D01*
X-104153Y-527809D01*
X-104146Y-527927D01*
X-104139Y-528045D01*
Y-528079D01*
X-104146Y-528128D01*
Y-528183D01*
X-104160Y-528253D01*
X-104167Y-528336D01*
X-104188Y-528433D01*
X-104209Y-528530D01*
X-104243Y-528641D01*
X-104278Y-528752D01*
X-104327Y-528870D01*
X-104382Y-528988D01*
X-104452Y-529106D01*
X-104528Y-529224D01*
X-104618Y-529341D01*
X-104722Y-529452D01*
X-104729Y-529459D01*
X-104750Y-529480D01*
X-104784Y-529508D01*
X-104826Y-529543D01*
X-104881Y-529591D01*
X-104958Y-529640D01*
X-105034Y-529688D01*
X-105124Y-529744D01*
X-105228Y-529799D01*
X-105346Y-529848D01*
X-105464Y-529903D01*
X-105603Y-529945D01*
X-105741Y-529979D01*
X-105894Y-530007D01*
X-106053Y-530028D01*
X-106220Y-530035D01*
X-106227D01*
X-106261D01*
X-106303D01*
X-106365Y-530028D01*
X-106442Y-530021D01*
X-106525Y-530007D01*
X-106622Y-529993D01*
X-106733Y-529972D01*
X-106844Y-529945D01*
X-106969Y-529910D01*
X-107093Y-529868D01*
X-107218Y-529820D01*
X-107343Y-529764D01*
X-107475Y-529695D01*
X-107600Y-529619D01*
X-107718Y-529529D01*
X-107724Y-529522D01*
X-107752Y-529501D01*
X-107787Y-529466D01*
X-107835Y-529418D01*
X-107898Y-529355D01*
X-107960Y-529279D01*
X-108036Y-529189D01*
X-108106Y-529085D01*
X-108175Y-528974D01*
X-108251Y-528849D01*
X-108314Y-528710D01*
X-108369Y-528558D01*
X-108425Y-528398D01*
X-108460Y-528225D01*
X-108487Y-528045D01*
X-108494Y-527851D01*
Y-527767D01*
X-108487Y-527705D01*
X-108480Y-527629D01*
X-108466Y-527546D01*
X-108453Y-527448D01*
X-108432Y-527344D01*
X-108411Y-527233D01*
X-108376Y-527116D01*
X-108335Y-526998D01*
X-108286Y-526880D01*
X-108231Y-526762D01*
X-108168Y-526644D01*
X-108092Y-526533D01*
X-108009Y-526422D01*
X-108002Y-526415D01*
X-107988Y-526401D01*
X-107960Y-526374D01*
X-107919Y-526339D01*
X-107870Y-526290D01*
X-107815Y-526242D01*
X-107745Y-526193D01*
X-107662Y-526138D01*
X-107579Y-526082D01*
X-107482Y-526027D01*
X-107371Y-525978D01*
X-107260Y-525930D01*
X-107135Y-525881D01*
X-107003Y-525847D01*
X-106858Y-525819D01*
X-106712Y-525798D01*
X-106650Y-526623D01*
D02*
G37*
G36*
X293788Y-440124D02*
X293935Y-440134D01*
X294077Y-440149D01*
X294224Y-440168D01*
X294371Y-440208D01*
X294381D01*
X294411Y-440217D01*
X294445Y-440232D01*
X294504Y-440252D01*
X294577Y-440276D01*
X294656Y-440306D01*
X294749Y-440350D01*
X294847Y-440389D01*
X294955Y-440448D01*
X295063Y-440507D01*
X295180Y-440575D01*
X295308Y-440654D01*
X295431Y-440737D01*
X295548Y-440835D01*
X295671Y-440938D01*
X295788Y-441046D01*
X295847Y-441105D01*
X295886Y-441154D01*
X295940Y-441218D01*
X295999Y-441286D01*
X296058Y-441365D01*
X296122Y-441458D01*
X296195Y-441561D01*
X296264Y-441669D01*
X296333Y-441786D01*
X296401Y-441914D01*
X296465Y-442046D01*
X296524Y-442184D01*
X296573Y-442321D01*
X296617Y-442473D01*
Y-442483D01*
X296627Y-442512D01*
X296637Y-442551D01*
X296646Y-442610D01*
X296661Y-442684D01*
X296666Y-442767D01*
X296676Y-442865D01*
X296686Y-442973D01*
X296691Y-443096D01*
X296695Y-443218D01*
X296691Y-443351D01*
X296681Y-443488D01*
X296656Y-443630D01*
X296637Y-443777D01*
X296597Y-443924D01*
X296553Y-444076D01*
Y-444086D01*
X296539Y-444111D01*
X296524Y-444155D01*
X296499Y-444209D01*
X296475Y-444282D01*
X296431Y-444366D01*
X296387Y-444459D01*
X296333Y-444562D01*
X296274Y-444669D01*
X296205Y-444787D01*
X296132Y-444910D01*
X296043Y-445037D01*
X295950Y-445160D01*
X295847Y-445292D01*
X295730Y-445420D01*
X295612Y-445547D01*
X295607Y-445552D01*
X295587Y-445572D01*
X295558Y-445601D01*
X295514Y-445635D01*
X295465Y-445685D01*
X295401Y-445738D01*
X295332Y-445797D01*
X295259Y-445861D01*
X295171Y-445930D01*
X295077Y-445993D01*
X294876Y-446136D01*
X294666Y-446268D01*
X294435Y-446381D01*
X294430Y-446386D01*
X294406Y-446391D01*
X294371Y-446405D01*
X294327Y-446420D01*
X294273Y-446445D01*
X294205Y-446464D01*
X294126Y-446493D01*
X294043Y-446518D01*
X293847Y-446567D01*
X293631Y-446606D01*
X293396Y-446636D01*
X293146Y-446641D01*
Y-446650D01*
X293151Y-446675D01*
X293155Y-446709D01*
X293170Y-446763D01*
X293185Y-446817D01*
X293200Y-446891D01*
X293219Y-446969D01*
X293239Y-447057D01*
X293288Y-447244D01*
X293351Y-447445D01*
X293420Y-447651D01*
X293499Y-447837D01*
X292905Y-448068D01*
X292900Y-448063D01*
X292896Y-448038D01*
X292876Y-447999D01*
X292856Y-447950D01*
X292832Y-447886D01*
X292797Y-447812D01*
X292768Y-447724D01*
X292739Y-447626D01*
X292704Y-447523D01*
X292665Y-447406D01*
X292596Y-447151D01*
X292533Y-446861D01*
X292484Y-446548D01*
X292474D01*
X292449Y-446533D01*
X292410Y-446523D01*
X292351Y-446503D01*
X292283Y-446474D01*
X292204Y-446445D01*
X292116Y-446405D01*
X292018Y-446356D01*
X291915Y-446302D01*
X291802Y-446239D01*
X291689Y-446175D01*
X291572Y-446096D01*
X291327Y-445920D01*
X291214Y-445817D01*
X291096Y-445709D01*
X291037Y-445650D01*
X290998Y-445601D01*
X290949Y-445542D01*
X290890Y-445474D01*
X290831Y-445395D01*
X290767Y-445302D01*
X290699Y-445204D01*
X290630Y-445096D01*
X290562Y-444978D01*
X290493Y-444861D01*
X290429Y-444728D01*
X290370Y-444591D01*
X290316Y-444449D01*
X290277Y-444302D01*
Y-444292D01*
X290272Y-444268D01*
X290258Y-444223D01*
X290248Y-444165D01*
X290238Y-444096D01*
X290228Y-444008D01*
X290218Y-443910D01*
X290208Y-443802D01*
X290204Y-443689D01*
Y-443561D01*
X290208Y-443429D01*
X290218Y-443292D01*
X290233Y-443149D01*
X290258Y-443007D01*
X290292Y-442855D01*
X290336Y-442703D01*
Y-442694D01*
X290351Y-442669D01*
X290365Y-442625D01*
X290385Y-442566D01*
X290419Y-442492D01*
X290459Y-442414D01*
X290503Y-442321D01*
X290557Y-442218D01*
X290616Y-442100D01*
X290684Y-441983D01*
X290763Y-441865D01*
X290851Y-441737D01*
X290939Y-441610D01*
X291042Y-441478D01*
X291160Y-441350D01*
X291277Y-441223D01*
X291287Y-441213D01*
X291307Y-441193D01*
X291341Y-441159D01*
X291395Y-441115D01*
X291459Y-441061D01*
X291532Y-440997D01*
X291621Y-440928D01*
X291719Y-440850D01*
X291822Y-440776D01*
X291935Y-440693D01*
X292189Y-440536D01*
X292327Y-440467D01*
X292469Y-440394D01*
X292616Y-440325D01*
X292768Y-440271D01*
X292778D01*
X292807Y-440262D01*
X292851Y-440247D01*
X292905Y-440232D01*
X292984Y-440213D01*
X293072Y-440193D01*
X293165Y-440178D01*
X293273Y-440159D01*
X293396Y-440144D01*
X293523Y-440134D01*
X293651Y-440124D01*
X293788D01*
D02*
G37*
G36*
X300790Y-446204D02*
X297857Y-449136D01*
X298470Y-449749D01*
X297960Y-450259D01*
X297348Y-449646D01*
X296264Y-450730D01*
X295710Y-450176D01*
X296794Y-449092D01*
X294823Y-447121D01*
X295332Y-446611D01*
X300334Y-445748D01*
X300790Y-446204D01*
D02*
G37*
G36*
X526584Y-102476D02*
X526632Y-102483D01*
X526764Y-102497D01*
X526910Y-102524D01*
X527076Y-102566D01*
X527243Y-102622D01*
X527409Y-102698D01*
X527416D01*
X527430Y-102705D01*
X527451Y-102719D01*
X527485Y-102739D01*
X527561Y-102788D01*
X527659Y-102857D01*
X527770Y-102948D01*
X527881Y-103052D01*
X527991Y-103169D01*
X528088Y-103308D01*
Y-103315D01*
X528096Y-103322D01*
X528109Y-103350D01*
X528123Y-103377D01*
X528144Y-103412D01*
X528165Y-103454D01*
X528206Y-103558D01*
X528248Y-103682D01*
X528290Y-103821D01*
X528317Y-103974D01*
X528324Y-104133D01*
Y-104140D01*
Y-104154D01*
Y-104175D01*
Y-104203D01*
X528310Y-104286D01*
X528297Y-104383D01*
X528269Y-104501D01*
X528227Y-104626D01*
X528172Y-104757D01*
X528096Y-104889D01*
Y-104896D01*
X528088Y-104903D01*
X528054Y-104944D01*
X528005Y-105007D01*
X527929Y-105083D01*
X527839Y-105173D01*
X527721Y-105264D01*
X527589Y-105347D01*
X527437Y-105430D01*
X527444D01*
X527464Y-105437D01*
X527492Y-105444D01*
X527534Y-105458D01*
X527575Y-105471D01*
X527631Y-105492D01*
X527763Y-105548D01*
X527901Y-105624D01*
X528047Y-105714D01*
X528192Y-105832D01*
X528317Y-105978D01*
X528324Y-105985D01*
X528331Y-105998D01*
X528345Y-106019D01*
X528366Y-106054D01*
X528394Y-106089D01*
X528421Y-106137D01*
X528449Y-106193D01*
X528477Y-106262D01*
X528505Y-106331D01*
X528532Y-106408D01*
X528588Y-106581D01*
X528623Y-106782D01*
X528636Y-106893D01*
Y-107004D01*
Y-107011D01*
Y-107039D01*
X528629Y-107087D01*
Y-107143D01*
X528615Y-107219D01*
X528602Y-107302D01*
X528588Y-107392D01*
X528560Y-107496D01*
X528525Y-107607D01*
X528484Y-107718D01*
X528435Y-107836D01*
X528373Y-107954D01*
X528303Y-108079D01*
X528220Y-108197D01*
X528130Y-108315D01*
X528019Y-108426D01*
X528012Y-108432D01*
X527991Y-108453D01*
X527957Y-108481D01*
X527908Y-108516D01*
X527853Y-108557D01*
X527776Y-108606D01*
X527693Y-108661D01*
X527596Y-108710D01*
X527492Y-108765D01*
X527374Y-108821D01*
X527249Y-108869D01*
X527111Y-108911D01*
X526965Y-108946D01*
X526813Y-108973D01*
X526653Y-108994D01*
X526480Y-109001D01*
X526445D01*
X526397Y-108994D01*
X526341D01*
X526265Y-108987D01*
X526182Y-108973D01*
X526091Y-108959D01*
X525988Y-108939D01*
X525877Y-108911D01*
X525766Y-108876D01*
X525648Y-108842D01*
X525530Y-108793D01*
X525412Y-108731D01*
X525301Y-108668D01*
X525183Y-108592D01*
X525079Y-108502D01*
X525072Y-108495D01*
X525058Y-108481D01*
X525031Y-108453D01*
X524989Y-108412D01*
X524947Y-108363D01*
X524899Y-108301D01*
X524850Y-108231D01*
X524795Y-108148D01*
X524739Y-108065D01*
X524684Y-107961D01*
X524628Y-107857D01*
X524580Y-107739D01*
X524538Y-107614D01*
X524497Y-107483D01*
X524469Y-107344D01*
X524448Y-107198D01*
X525232Y-107094D01*
Y-107101D01*
X525239Y-107122D01*
X525246Y-107157D01*
X525259Y-107205D01*
X525273Y-107261D01*
X525287Y-107323D01*
X525336Y-107469D01*
X525398Y-107628D01*
X525474Y-107788D01*
X525571Y-107933D01*
X525627Y-107996D01*
X525682Y-108058D01*
X525689D01*
X525696Y-108072D01*
X525717Y-108086D01*
X525738Y-108106D01*
X525807Y-108148D01*
X525904Y-108204D01*
X526022Y-108259D01*
X526154Y-108301D01*
X526313Y-108335D01*
X526480Y-108349D01*
X526535D01*
X526577Y-108342D01*
X526618Y-108335D01*
X526681Y-108328D01*
X526806Y-108301D01*
X526958Y-108259D01*
X527118Y-108190D01*
X527194Y-108141D01*
X527270Y-108093D01*
X527347Y-108037D01*
X527423Y-107968D01*
X527430Y-107961D01*
X527437Y-107947D01*
X527458Y-107926D01*
X527485Y-107899D01*
X527513Y-107864D01*
X527541Y-107815D01*
X527575Y-107767D01*
X527617Y-107704D01*
X527686Y-107566D01*
X527742Y-107406D01*
X527790Y-107219D01*
X527797Y-107122D01*
X527804Y-107018D01*
Y-107011D01*
Y-106997D01*
Y-106962D01*
X527797Y-106928D01*
X527790Y-106879D01*
X527783Y-106831D01*
X527763Y-106706D01*
X527714Y-106560D01*
X527652Y-106415D01*
X527610Y-106338D01*
X527561Y-106269D01*
X527506Y-106200D01*
X527444Y-106130D01*
X527437Y-106123D01*
X527430Y-106116D01*
X527409Y-106096D01*
X527381Y-106075D01*
X527347Y-106047D01*
X527305Y-106019D01*
X527201Y-105950D01*
X527069Y-105888D01*
X526917Y-105832D01*
X526743Y-105791D01*
X526646Y-105784D01*
X526549Y-105777D01*
X526507D01*
X526459Y-105784D01*
X526397D01*
X526313Y-105798D01*
X526223Y-105811D01*
X526112Y-105832D01*
X525994Y-105860D01*
X526078Y-105173D01*
X526091D01*
X526126Y-105180D01*
X526168Y-105187D01*
X526258D01*
X526293Y-105180D01*
X526341D01*
X526390Y-105173D01*
X526507Y-105153D01*
X526646Y-105125D01*
X526799Y-105076D01*
X526958Y-105014D01*
X527111Y-104924D01*
X527118D01*
X527132Y-104910D01*
X527146Y-104896D01*
X527173Y-104875D01*
X527243Y-104813D01*
X527319Y-104723D01*
X527388Y-104612D01*
X527458Y-104473D01*
X527485Y-104397D01*
X527499Y-104307D01*
X527513Y-104216D01*
X527520Y-104119D01*
Y-104112D01*
Y-104099D01*
Y-104078D01*
X527513Y-104043D01*
X527506Y-103967D01*
X527485Y-103863D01*
X527451Y-103752D01*
X527395Y-103634D01*
X527319Y-103509D01*
X527277Y-103454D01*
X527222Y-103398D01*
X527208Y-103384D01*
X527166Y-103357D01*
X527104Y-103308D01*
X527021Y-103253D01*
X526910Y-103204D01*
X526778Y-103155D01*
X526632Y-103128D01*
X526466Y-103114D01*
X526424D01*
X526390Y-103121D01*
X526348D01*
X526306Y-103128D01*
X526195Y-103149D01*
X526078Y-103183D01*
X525946Y-103239D01*
X525821Y-103308D01*
X525696Y-103405D01*
X525682Y-103419D01*
X525648Y-103461D01*
X525592Y-103523D01*
X525537Y-103620D01*
X525467Y-103738D01*
X525405Y-103890D01*
X525350Y-104064D01*
X525308Y-104265D01*
X524524Y-104126D01*
Y-104119D01*
X524531Y-104092D01*
X524538Y-104050D01*
X524552Y-103995D01*
X524573Y-103932D01*
X524594Y-103856D01*
X524621Y-103773D01*
X524656Y-103682D01*
X524746Y-103481D01*
X524795Y-103384D01*
X524857Y-103280D01*
X524926Y-103183D01*
X525003Y-103086D01*
X525086Y-102989D01*
X525176Y-102906D01*
X525183Y-102899D01*
X525197Y-102885D01*
X525232Y-102864D01*
X525266Y-102837D01*
X525322Y-102802D01*
X525377Y-102767D01*
X525447Y-102726D01*
X525530Y-102684D01*
X525613Y-102649D01*
X525710Y-102608D01*
X525814Y-102573D01*
X525925Y-102538D01*
X526050Y-102511D01*
X526175Y-102490D01*
X526306Y-102476D01*
X526445Y-102469D01*
X526535D01*
X526584Y-102476D01*
D02*
G37*
G36*
X520710Y-102386D02*
X520794Y-102393D01*
X520884Y-102400D01*
X520981Y-102414D01*
X521092Y-102434D01*
X521217Y-102455D01*
X521342Y-102483D01*
X521473Y-102518D01*
X521612Y-102559D01*
X521751Y-102608D01*
X521889Y-102663D01*
X522021Y-102726D01*
X522160Y-102802D01*
X522167Y-102809D01*
X522195Y-102823D01*
X522229Y-102844D01*
X522278Y-102878D01*
X522340Y-102920D01*
X522402Y-102975D01*
X522479Y-103038D01*
X522562Y-103107D01*
X522652Y-103190D01*
X522742Y-103273D01*
X522832Y-103371D01*
X522923Y-103475D01*
X523006Y-103592D01*
X523096Y-103710D01*
X523172Y-103842D01*
X523248Y-103981D01*
X523255Y-103988D01*
X523262Y-104015D01*
X523283Y-104057D01*
X523304Y-104112D01*
X523339Y-104182D01*
X523366Y-104272D01*
X523401Y-104369D01*
X523436Y-104480D01*
X523470Y-104598D01*
X523505Y-104730D01*
X523540Y-104868D01*
X523567Y-105021D01*
X523588Y-105173D01*
X523609Y-105340D01*
X523616Y-105513D01*
X523623Y-105687D01*
Y-105693D01*
Y-105721D01*
Y-105763D01*
X523616Y-105818D01*
Y-105888D01*
X523609Y-105971D01*
X523602Y-106061D01*
X523595Y-106158D01*
X523581Y-106269D01*
X523560Y-106380D01*
X523519Y-106623D01*
X523463Y-106865D01*
X523380Y-107108D01*
Y-107115D01*
X523366Y-107136D01*
X523353Y-107170D01*
X523332Y-107212D01*
X523311Y-107268D01*
X523276Y-107330D01*
X523242Y-107406D01*
X523200Y-107483D01*
X523096Y-107656D01*
X522971Y-107836D01*
X522826Y-108023D01*
X522652Y-108204D01*
X522659Y-108211D01*
X522680Y-108224D01*
X522708Y-108245D01*
X522756Y-108273D01*
X522805Y-108301D01*
X522867Y-108342D01*
X522936Y-108384D01*
X523013Y-108432D01*
X523179Y-108530D01*
X523366Y-108627D01*
X523560Y-108724D01*
X523748Y-108800D01*
X523491Y-109382D01*
X523484D01*
X523463Y-109369D01*
X523422Y-109355D01*
X523373Y-109334D01*
X523311Y-109306D01*
X523235Y-109278D01*
X523151Y-109237D01*
X523061Y-109188D01*
X522964Y-109140D01*
X522853Y-109084D01*
X522624Y-108953D01*
X522375Y-108793D01*
X522118Y-108606D01*
X522111Y-108613D01*
X522084Y-108620D01*
X522049Y-108640D01*
X521993Y-108668D01*
X521924Y-108696D01*
X521848Y-108731D01*
X521758Y-108765D01*
X521654Y-108800D01*
X521543Y-108835D01*
X521418Y-108869D01*
X521293Y-108904D01*
X521154Y-108932D01*
X520856Y-108980D01*
X520704Y-108987D01*
X520544Y-108994D01*
X520461D01*
X520398Y-108987D01*
X520322Y-108980D01*
X520232Y-108973D01*
X520135Y-108959D01*
X520024Y-108939D01*
X519906Y-108918D01*
X519781Y-108890D01*
X519650Y-108855D01*
X519518Y-108821D01*
X519379Y-108772D01*
X519240Y-108717D01*
X519102Y-108654D01*
X518970Y-108578D01*
X518963Y-108571D01*
X518942Y-108557D01*
X518901Y-108537D01*
X518852Y-108502D01*
X518797Y-108460D01*
X518727Y-108405D01*
X518651Y-108342D01*
X518568Y-108273D01*
X518485Y-108197D01*
X518395Y-108106D01*
X518304Y-108010D01*
X518214Y-107905D01*
X518124Y-107795D01*
X518041Y-107677D01*
X517958Y-107545D01*
X517881Y-107406D01*
X517874Y-107399D01*
X517868Y-107372D01*
X517847Y-107330D01*
X517819Y-107274D01*
X517791Y-107198D01*
X517763Y-107115D01*
X517729Y-107018D01*
X517694Y-106907D01*
X517653Y-106782D01*
X517618Y-106650D01*
X517590Y-106512D01*
X517562Y-106359D01*
X517535Y-106207D01*
X517514Y-106040D01*
X517507Y-105867D01*
X517500Y-105693D01*
Y-105680D01*
Y-105652D01*
Y-105603D01*
X517507Y-105534D01*
X517514Y-105451D01*
X517521Y-105354D01*
X517535Y-105243D01*
X517548Y-105118D01*
X517569Y-104993D01*
X517590Y-104854D01*
X517659Y-104563D01*
X517708Y-104417D01*
X517757Y-104265D01*
X517812Y-104112D01*
X517881Y-103967D01*
X517888Y-103960D01*
X517902Y-103932D01*
X517923Y-103890D01*
X517951Y-103842D01*
X517992Y-103773D01*
X518041Y-103696D01*
X518096Y-103620D01*
X518159Y-103530D01*
X518235Y-103433D01*
X518318Y-103336D01*
X518401Y-103239D01*
X518498Y-103142D01*
X518610Y-103045D01*
X518720Y-102954D01*
X518838Y-102864D01*
X518970Y-102788D01*
X518977Y-102781D01*
X519005Y-102767D01*
X519039Y-102753D01*
X519095Y-102726D01*
X519164Y-102691D01*
X519240Y-102656D01*
X519338Y-102622D01*
X519435Y-102580D01*
X519552Y-102545D01*
X519670Y-102511D01*
X519802Y-102476D01*
X519948Y-102441D01*
X520093Y-102414D01*
X520246Y-102400D01*
X520405Y-102386D01*
X520565Y-102379D01*
X520648D01*
X520710Y-102386D01*
D02*
G37*
G36*
X403176Y71608D02*
X403259Y71601D01*
X403356Y71587D01*
X403460Y71574D01*
X403578Y71553D01*
X403703Y71525D01*
X403834Y71497D01*
X403966Y71456D01*
X404105Y71407D01*
X404244Y71352D01*
X404375Y71282D01*
X404507Y71213D01*
X404632Y71123D01*
X404639Y71116D01*
X404660Y71102D01*
X404694Y71074D01*
X404736Y71033D01*
X404791Y70984D01*
X404854Y70922D01*
X404916Y70852D01*
X404992Y70769D01*
X405069Y70679D01*
X405145Y70575D01*
X405221Y70464D01*
X405291Y70339D01*
X405367Y70208D01*
X405429Y70062D01*
X405492Y69909D01*
X405547Y69750D01*
X404715Y69556D01*
Y69563D01*
X404701Y69583D01*
X404694Y69625D01*
X404674Y69674D01*
X404653Y69729D01*
X404618Y69791D01*
X404549Y69944D01*
X404459Y70110D01*
X404341Y70284D01*
X404216Y70443D01*
X404140Y70513D01*
X404063Y70575D01*
X404056Y70582D01*
X404043Y70589D01*
X404022Y70603D01*
X403987Y70623D01*
X403945Y70651D01*
X403897Y70679D01*
X403841Y70707D01*
X403772Y70735D01*
X403696Y70762D01*
X403619Y70790D01*
X403439Y70845D01*
X403231Y70880D01*
X403120Y70894D01*
X402933D01*
X402878Y70887D01*
X402815Y70880D01*
X402739Y70873D01*
X402656Y70866D01*
X402572Y70852D01*
X402371Y70804D01*
X402163Y70741D01*
X402059Y70700D01*
X401955Y70651D01*
X401858Y70596D01*
X401761Y70533D01*
X401754Y70526D01*
X401740Y70519D01*
X401713Y70499D01*
X401678Y70471D01*
X401643Y70436D01*
X401595Y70388D01*
X401546Y70339D01*
X401491Y70284D01*
X401435Y70214D01*
X401373Y70145D01*
X401262Y69986D01*
X401158Y69798D01*
X401068Y69583D01*
Y69576D01*
X401061Y69556D01*
X401047Y69521D01*
X401040Y69479D01*
X401026Y69424D01*
X401005Y69362D01*
X400992Y69285D01*
X400971Y69209D01*
X400950Y69119D01*
X400936Y69022D01*
X400901Y68814D01*
X400881Y68592D01*
X400874Y68356D01*
Y68349D01*
Y68321D01*
Y68280D01*
X400881Y68217D01*
Y68148D01*
X400887Y68065D01*
X400894Y67975D01*
X400901Y67871D01*
X400915Y67760D01*
X400929Y67649D01*
X400971Y67406D01*
X401033Y67163D01*
X401109Y66928D01*
Y66921D01*
X401123Y66900D01*
X401137Y66872D01*
X401151Y66831D01*
X401179Y66775D01*
X401213Y66720D01*
X401290Y66588D01*
X401394Y66435D01*
X401519Y66290D01*
X401671Y66144D01*
X401754Y66082D01*
X401844Y66019D01*
X401851D01*
X401865Y66005D01*
X401893Y65992D01*
X401935Y65971D01*
X401983Y65950D01*
X402038Y65922D01*
X402101Y65901D01*
X402170Y65874D01*
X402330Y65818D01*
X402517Y65770D01*
X402718Y65735D01*
X402822Y65728D01*
X402933Y65721D01*
X403002D01*
X403051Y65728D01*
X403113Y65735D01*
X403183Y65742D01*
X403266Y65756D01*
X403349Y65770D01*
X403543Y65818D01*
X403640Y65853D01*
X403744Y65894D01*
X403848Y65943D01*
X403945Y65998D01*
X404043Y66061D01*
X404140Y66130D01*
X404146Y66137D01*
X404160Y66151D01*
X404188Y66172D01*
X404223Y66206D01*
X404258Y66248D01*
X404306Y66304D01*
X404355Y66366D01*
X404410Y66435D01*
X404465Y66519D01*
X404521Y66609D01*
X404576Y66706D01*
X404632Y66817D01*
X404680Y66934D01*
X404729Y67066D01*
X404777Y67205D01*
X404812Y67351D01*
X405658Y67136D01*
Y67122D01*
X405644Y67087D01*
X405630Y67038D01*
X405603Y66962D01*
X405575Y66879D01*
X405533Y66775D01*
X405492Y66664D01*
X405436Y66546D01*
X405374Y66414D01*
X405304Y66290D01*
X405228Y66151D01*
X405138Y66019D01*
X405041Y65894D01*
X404937Y65770D01*
X404819Y65652D01*
X404694Y65541D01*
X404687Y65534D01*
X404660Y65520D01*
X404625Y65492D01*
X404570Y65458D01*
X404507Y65416D01*
X404424Y65367D01*
X404334Y65319D01*
X404223Y65270D01*
X404105Y65222D01*
X403980Y65173D01*
X403841Y65125D01*
X403689Y65083D01*
X403529Y65048D01*
X403363Y65021D01*
X403190Y65007D01*
X403002Y65000D01*
X402905D01*
X402829Y65007D01*
X402746Y65014D01*
X402642Y65021D01*
X402531Y65034D01*
X402406Y65055D01*
X402274Y65076D01*
X402136Y65104D01*
X401997Y65139D01*
X401858Y65173D01*
X401713Y65222D01*
X401574Y65277D01*
X401442Y65340D01*
X401317Y65416D01*
X401310Y65423D01*
X401290Y65437D01*
X401255Y65458D01*
X401213Y65492D01*
X401158Y65541D01*
X401096Y65589D01*
X401026Y65652D01*
X400950Y65728D01*
X400874Y65811D01*
X400790Y65901D01*
X400714Y65998D01*
X400631Y66109D01*
X400548Y66227D01*
X400471Y66352D01*
X400402Y66491D01*
X400333Y66636D01*
X400326Y66643D01*
X400319Y66671D01*
X400305Y66720D01*
X400284Y66775D01*
X400256Y66851D01*
X400229Y66934D01*
X400201Y67038D01*
X400166Y67150D01*
X400139Y67274D01*
X400104Y67406D01*
X400076Y67545D01*
X400055Y67697D01*
X400014Y68016D01*
X400007Y68183D01*
X400000Y68349D01*
Y68363D01*
Y68391D01*
Y68446D01*
X400007Y68516D01*
X400014Y68606D01*
X400021Y68710D01*
X400034Y68821D01*
X400048Y68945D01*
X400069Y69077D01*
X400090Y69216D01*
X400159Y69514D01*
X400208Y69660D01*
X400256Y69805D01*
X400312Y69958D01*
X400381Y70097D01*
X400388Y70103D01*
X400402Y70131D01*
X400423Y70166D01*
X400451Y70221D01*
X400492Y70284D01*
X400541Y70353D01*
X400596Y70429D01*
X400659Y70519D01*
X400735Y70603D01*
X400811Y70700D01*
X400901Y70790D01*
X400998Y70887D01*
X401102Y70977D01*
X401213Y71067D01*
X401338Y71150D01*
X401463Y71227D01*
X401470Y71234D01*
X401498Y71241D01*
X401532Y71262D01*
X401588Y71289D01*
X401650Y71317D01*
X401733Y71352D01*
X401824Y71386D01*
X401921Y71421D01*
X402032Y71456D01*
X402156Y71490D01*
X402281Y71525D01*
X402420Y71553D01*
X402704Y71601D01*
X402857Y71608D01*
X403016Y71615D01*
X403106D01*
X403176Y71608D01*
D02*
G37*
G36*
X409340Y65104D02*
X408557D01*
Y70103D01*
X408543Y70090D01*
X408508Y70055D01*
X408446Y70006D01*
X408356Y69937D01*
X408252Y69854D01*
X408120Y69764D01*
X407974Y69667D01*
X407808Y69563D01*
X407801D01*
X407787Y69549D01*
X407766Y69535D01*
X407732Y69521D01*
X407690Y69493D01*
X407641Y69472D01*
X407530Y69410D01*
X407406Y69348D01*
X407267Y69278D01*
X407121Y69216D01*
X406983Y69160D01*
Y69916D01*
X406990Y69923D01*
X407010Y69930D01*
X407045Y69951D01*
X407094Y69972D01*
X407149Y69999D01*
X407218Y70041D01*
X407295Y70083D01*
X407371Y70124D01*
X407551Y70235D01*
X407745Y70367D01*
X407947Y70506D01*
X408134Y70665D01*
X408141Y70672D01*
X408154Y70686D01*
X408182Y70707D01*
X408217Y70741D01*
X408252Y70783D01*
X408300Y70825D01*
X408404Y70943D01*
X408522Y71067D01*
X408640Y71213D01*
X408744Y71365D01*
X408834Y71525D01*
X409340D01*
Y65104D01*
D02*
G37*
G36*
X425000Y136788D02*
X420000D01*
X420014Y136774D01*
X420049Y136739D01*
X420098Y136677D01*
X420167Y136587D01*
X420250Y136483D01*
X420340Y136351D01*
X420437Y136205D01*
X420541Y136039D01*
Y136032D01*
X420555Y136018D01*
X420569Y135997D01*
X420583Y135962D01*
X420611Y135921D01*
X420631Y135872D01*
X420694Y135761D01*
X420756Y135637D01*
X420826Y135498D01*
X420888Y135352D01*
X420944Y135214D01*
X420188D01*
X420181Y135221D01*
X420174Y135241D01*
X420153Y135276D01*
X420132Y135325D01*
X420104Y135380D01*
X420063Y135449D01*
X420021Y135526D01*
X419980Y135602D01*
X419869Y135782D01*
X419737Y135976D01*
X419598Y136178D01*
X419439Y136365D01*
X419432Y136372D01*
X419418Y136385D01*
X419397Y136413D01*
X419363Y136448D01*
X419321Y136483D01*
X419279Y136531D01*
X419161Y136635D01*
X419037Y136753D01*
X418891Y136871D01*
X418739Y136975D01*
X418579Y137065D01*
Y137571D01*
X425000D01*
Y136788D01*
D02*
G37*
G36*
Y133057D02*
X423669Y132211D01*
X423662Y132204D01*
X423641Y132197D01*
X423613Y132177D01*
X423572Y132149D01*
X423523Y132121D01*
X423468Y132079D01*
X423343Y131996D01*
X423197Y131899D01*
X423052Y131802D01*
X422913Y131698D01*
X422788Y131601D01*
X422781D01*
X422774Y131587D01*
X422739Y131559D01*
X422684Y131518D01*
X422622Y131455D01*
X422552Y131393D01*
X422483Y131317D01*
X422414Y131240D01*
X422365Y131171D01*
X422358Y131164D01*
X422344Y131136D01*
X422323Y131102D01*
X422296Y131053D01*
X422268Y130991D01*
X422240Y130928D01*
X422212Y130859D01*
X422192Y130783D01*
Y130776D01*
X422185Y130755D01*
X422178Y130720D01*
X422171Y130672D01*
Y130602D01*
X422164Y130519D01*
X422157Y130422D01*
Y129333D01*
X425000D01*
Y128488D01*
X418600D01*
Y131462D01*
X418607Y131538D01*
Y131615D01*
X418614Y131705D01*
X418621Y131809D01*
X418641Y132017D01*
X418676Y132232D01*
X418718Y132440D01*
X418745Y132530D01*
X418773Y132620D01*
Y132627D01*
X418780Y132641D01*
X418794Y132662D01*
X418808Y132697D01*
X418849Y132780D01*
X418912Y132877D01*
X418995Y132995D01*
X419106Y133113D01*
X419231Y133230D01*
X419383Y133335D01*
X419390D01*
X419404Y133348D01*
X419425Y133362D01*
X419460Y133376D01*
X419501Y133397D01*
X419550Y133418D01*
X419605Y133445D01*
X419668Y133473D01*
X419813Y133522D01*
X419973Y133563D01*
X420153Y133591D01*
X420347Y133605D01*
X420354D01*
X420375D01*
X420417D01*
X420458Y133598D01*
X420521Y133591D01*
X420590Y133584D01*
X420666Y133570D01*
X420749Y133549D01*
X420930Y133494D01*
X421027Y133459D01*
X421124Y133418D01*
X421221Y133369D01*
X421318Y133307D01*
X421408Y133237D01*
X421498Y133161D01*
X421505Y133154D01*
X421519Y133140D01*
X421540Y133113D01*
X421575Y133078D01*
X421609Y133029D01*
X421651Y132974D01*
X421699Y132905D01*
X421748Y132821D01*
X421796Y132731D01*
X421845Y132634D01*
X421894Y132523D01*
X421942Y132398D01*
X421984Y132267D01*
X422025Y132121D01*
X422060Y131961D01*
X422088Y131795D01*
Y131802D01*
X422095Y131809D01*
X422116Y131851D01*
X422150Y131913D01*
X422192Y131989D01*
X422240Y132072D01*
X422289Y132156D01*
X422351Y132239D01*
X422407Y132308D01*
X422414Y132315D01*
X422421Y132322D01*
X422441Y132343D01*
X422469Y132371D01*
X422504Y132405D01*
X422545Y132447D01*
X422643Y132537D01*
X422767Y132641D01*
X422913Y132759D01*
X423079Y132884D01*
X423260Y133009D01*
X425000Y134118D01*
Y133057D01*
D02*
G37*
%LPC*%
G36*
X434589Y363393D02*
X431133Y359936D01*
X432172Y358897D01*
X432216Y358862D01*
X432260Y358818D01*
X432363Y358725D01*
X432486Y358622D01*
X432618Y358519D01*
X432751Y358426D01*
X432878Y358348D01*
X432883Y358343D01*
X432893D01*
X432912Y358333D01*
X432937Y358318D01*
X433001Y358294D01*
X433084Y358259D01*
X433182Y358230D01*
X433290Y358200D01*
X433408Y358181D01*
X433520Y358176D01*
X433530D01*
X433540D01*
X433594Y358181D01*
X433682Y358191D01*
X433795Y358205D01*
X433927Y358240D01*
X434079Y358284D01*
X434246Y358343D01*
X434422Y358421D01*
X434427Y358426D01*
X434442Y358431D01*
X434467Y358446D01*
X434506Y358465D01*
X434550Y358490D01*
X434604Y358524D01*
X434663Y358563D01*
X434731Y358603D01*
X434800Y358652D01*
X434879Y358710D01*
X434957Y358769D01*
X435045Y358838D01*
X435227Y358990D01*
X435418Y359171D01*
X435428Y359181D01*
X435447Y359201D01*
X435486Y359240D01*
X435531Y359294D01*
X435589Y359353D01*
X435653Y359426D01*
X435717Y359510D01*
X435790Y359603D01*
X435938Y359809D01*
X436080Y360029D01*
X436193Y360260D01*
X436237Y360382D01*
X436271Y360495D01*
Y360505D01*
X436276Y360520D01*
X436281Y360554D01*
X436291Y360603D01*
X436301Y360652D01*
X436305Y360716D01*
X436320Y360858D01*
X436325Y361030D01*
X436310Y361211D01*
X436281Y361397D01*
X436251Y361486D01*
X436217Y361579D01*
X436212Y361584D01*
Y361594D01*
X436202Y361613D01*
X436188Y361638D01*
X436163Y361672D01*
X436144Y361711D01*
X436114Y361760D01*
X436080Y361814D01*
X436036Y361868D01*
X435987Y361937D01*
X435933Y362010D01*
X435869Y362084D01*
X435795Y362167D01*
X435717Y362256D01*
X435634Y362349D01*
X434589Y363393D01*
D02*
G37*
G36*
X362878Y-432613D02*
X361838Y-433652D01*
X361804Y-433696D01*
X361760Y-433741D01*
X361667Y-433843D01*
X361564Y-433966D01*
X361461Y-434098D01*
X361368Y-434231D01*
X361289Y-434358D01*
X361284Y-434363D01*
Y-434373D01*
X361274Y-434393D01*
X361260Y-434417D01*
X361235Y-434481D01*
X361201Y-434564D01*
X361171Y-434662D01*
X361142Y-434770D01*
X361122Y-434888D01*
X361118Y-435001D01*
Y-435010D01*
Y-435020D01*
X361122Y-435074D01*
X361132Y-435162D01*
X361147Y-435275D01*
X361181Y-435407D01*
X361225Y-435560D01*
X361284Y-435726D01*
X361363Y-435903D01*
X361368Y-435908D01*
X361372Y-435922D01*
X361387Y-435947D01*
X361407Y-435986D01*
X361431Y-436030D01*
X361466Y-436084D01*
X361505Y-436143D01*
X361544Y-436212D01*
X361593Y-436280D01*
X361652Y-436359D01*
X361711Y-436437D01*
X361779Y-436525D01*
X361931Y-436707D01*
X362113Y-436898D01*
X362123Y-436908D01*
X362142Y-436927D01*
X362182Y-436967D01*
X362235Y-437011D01*
X362294Y-437070D01*
X362368Y-437133D01*
X362451Y-437197D01*
X362544Y-437271D01*
X362750Y-437418D01*
X362971Y-437560D01*
X363201Y-437673D01*
X363324Y-437717D01*
X363437Y-437751D01*
X363447D01*
X363461Y-437756D01*
X363496Y-437761D01*
X363545Y-437771D01*
X363594Y-437781D01*
X363657Y-437786D01*
X363800Y-437800D01*
X363971Y-437805D01*
X364153Y-437790D01*
X364339Y-437761D01*
X364427Y-437732D01*
X364520Y-437697D01*
X364525Y-437692D01*
X364535D01*
X364555Y-437683D01*
X364579Y-437668D01*
X364613Y-437643D01*
X364653Y-437624D01*
X364702Y-437594D01*
X364756Y-437560D01*
X364810Y-437516D01*
X364878Y-437467D01*
X364952Y-437413D01*
X365025Y-437349D01*
X365109Y-437276D01*
X365197Y-437197D01*
X365290Y-437114D01*
X366334Y-436069D01*
X362878Y-432613D01*
D02*
G37*
G36*
X359838Y-437771D02*
X358411Y-439198D01*
X360451Y-441237D01*
X359838Y-437771D01*
D02*
G37*
G36*
X-48346Y-562193D02*
X-49816D01*
X-49871Y-562200D01*
X-49934D01*
X-50072Y-562207D01*
X-50232Y-562221D01*
X-50398Y-562242D01*
X-50558Y-562270D01*
X-50704Y-562304D01*
X-50710D01*
X-50717Y-562311D01*
X-50738Y-562318D01*
X-50766Y-562325D01*
X-50828Y-562353D01*
X-50911Y-562388D01*
X-51002Y-562436D01*
X-51099Y-562492D01*
X-51196Y-562561D01*
X-51279Y-562637D01*
X-51286Y-562644D01*
X-51293Y-562651D01*
X-51328Y-562693D01*
X-51383Y-562762D01*
X-51452Y-562852D01*
X-51522Y-562970D01*
X-51598Y-563109D01*
X-51674Y-563268D01*
X-51744Y-563448D01*
Y-563455D01*
X-51750Y-563469D01*
X-51757Y-563497D01*
X-51771Y-563539D01*
X-51785Y-563587D01*
X-51799Y-563650D01*
X-51813Y-563719D01*
X-51834Y-563795D01*
X-51848Y-563878D01*
X-51862Y-563975D01*
X-51875Y-564073D01*
X-51889Y-564184D01*
X-51910Y-564419D01*
X-51917Y-564683D01*
Y-564697D01*
Y-564724D01*
Y-564780D01*
X-51910Y-564849D01*
Y-564932D01*
X-51903Y-565029D01*
X-51889Y-565134D01*
X-51875Y-565251D01*
X-51834Y-565501D01*
X-51778Y-565758D01*
X-51695Y-566000D01*
X-51640Y-566118D01*
X-51584Y-566222D01*
X-51577Y-566229D01*
X-51570Y-566243D01*
X-51550Y-566271D01*
X-51522Y-566312D01*
X-51494Y-566354D01*
X-51452Y-566403D01*
X-51362Y-566513D01*
X-51244Y-566638D01*
X-51106Y-566756D01*
X-50953Y-566867D01*
X-50870Y-566909D01*
X-50780Y-566950D01*
X-50773D01*
X-50766Y-566957D01*
X-50745Y-566964D01*
X-50717Y-566971D01*
X-50676Y-566978D01*
X-50634Y-566992D01*
X-50579Y-567006D01*
X-50516Y-567020D01*
X-50447Y-567027D01*
X-50364Y-567040D01*
X-50274Y-567054D01*
X-50177Y-567061D01*
X-50065Y-567068D01*
X-49948Y-567075D01*
X-49823Y-567082D01*
X-48346D01*
Y-562193D01*
D02*
G37*
G36*
X-433748Y-360750D02*
X-433768D01*
X-433821Y-360754D01*
X-433910Y-360764D01*
X-434022Y-360779D01*
X-434155Y-360813D01*
X-434307Y-360857D01*
X-434474Y-360916D01*
X-434650Y-360995D01*
X-434655Y-361000D01*
X-434670Y-361004D01*
X-434694Y-361019D01*
X-434734Y-361039D01*
X-434778Y-361063D01*
X-434832Y-361098D01*
X-434890Y-361137D01*
X-434959Y-361176D01*
X-435028Y-361225D01*
X-435106Y-361284D01*
X-435185Y-361343D01*
X-435273Y-361412D01*
X-435454Y-361563D01*
X-435645Y-361745D01*
X-435655Y-361755D01*
X-435675Y-361774D01*
X-435714Y-361814D01*
X-435758Y-361867D01*
X-435817Y-361926D01*
X-435881Y-362000D01*
X-435945Y-362083D01*
X-436018Y-362176D01*
X-436165Y-362382D01*
X-436307Y-362603D01*
X-436420Y-362833D01*
X-436464Y-362956D01*
X-436499Y-363069D01*
Y-363079D01*
X-436503Y-363093D01*
X-436508Y-363128D01*
X-436518Y-363177D01*
X-436528Y-363226D01*
X-436533Y-363289D01*
X-436548Y-363432D01*
X-436553Y-363603D01*
X-436538Y-363785D01*
X-436508Y-363971D01*
X-436479Y-364059D01*
X-436445Y-364152D01*
X-436440Y-364157D01*
Y-364167D01*
X-436430Y-364187D01*
X-436415Y-364211D01*
X-436391Y-364246D01*
X-436371Y-364285D01*
X-436342Y-364334D01*
X-436307Y-364388D01*
X-436263Y-364442D01*
X-436214Y-364510D01*
X-436160Y-364584D01*
X-436097Y-364657D01*
X-436023Y-364741D01*
X-435945Y-364829D01*
X-435861Y-364922D01*
X-434817Y-365967D01*
X-431360Y-362510D01*
X-432400Y-361470D01*
X-432444Y-361436D01*
X-432488Y-361392D01*
X-432591Y-361299D01*
X-432713Y-361196D01*
X-432846Y-361093D01*
X-432978Y-361000D01*
X-433106Y-360921D01*
X-433111Y-360916D01*
X-433120D01*
X-433140Y-360906D01*
X-433164Y-360892D01*
X-433228Y-360867D01*
X-433312Y-360833D01*
X-433410Y-360803D01*
X-433517Y-360774D01*
X-433635Y-360754D01*
X-433748Y-360750D01*
D02*
G37*
G36*
X-437273Y-356753D02*
X-437381D01*
X-437396Y-356758D01*
X-437425D01*
X-437465Y-356768D01*
X-437514Y-356778D01*
X-437568Y-356793D01*
X-437631Y-356807D01*
X-437705Y-356832D01*
X-437778Y-356856D01*
X-437862Y-356891D01*
X-437945Y-356935D01*
X-438033Y-356984D01*
X-438122Y-357043D01*
X-438220Y-357111D01*
X-438308Y-357190D01*
X-438401Y-357273D01*
X-438406Y-357278D01*
X-438421Y-357293D01*
X-438445Y-357317D01*
X-438475Y-357356D01*
X-438509Y-357401D01*
X-438548Y-357450D01*
X-438592Y-357504D01*
X-438637Y-357567D01*
X-438725Y-357714D01*
X-438803Y-357881D01*
X-438838Y-357974D01*
X-438862Y-358068D01*
X-438877Y-358161D01*
X-438886Y-358259D01*
Y-358269D01*
Y-358278D01*
Y-358308D01*
Y-358347D01*
X-438882Y-358391D01*
X-438877Y-358445D01*
X-438852Y-358568D01*
X-438808Y-358710D01*
X-438744Y-358862D01*
X-438656Y-359019D01*
X-438592Y-359092D01*
X-438529Y-359166D01*
X-438494Y-359200D01*
X-438460Y-359225D01*
X-438426Y-359249D01*
X-438382Y-359283D01*
X-438274Y-359352D01*
X-438136Y-359421D01*
X-437979Y-359480D01*
X-437896Y-359504D01*
X-437808Y-359524D01*
X-437710Y-359534D01*
X-437602D01*
X-437587Y-359529D01*
X-437558D01*
X-437523Y-359524D01*
X-437479Y-359519D01*
X-437421Y-359509D01*
X-437357Y-359494D01*
X-437293Y-359470D01*
X-437224Y-359450D01*
X-437146Y-359421D01*
X-436979Y-359342D01*
X-436813Y-359235D01*
X-436729Y-359161D01*
X-436646Y-359087D01*
X-436641Y-359082D01*
X-436631Y-359073D01*
X-436616Y-359058D01*
X-436597Y-359038D01*
X-436577Y-359009D01*
X-436548Y-358979D01*
X-436484Y-358896D01*
X-436415Y-358798D01*
X-436342Y-358685D01*
X-436273Y-358558D01*
X-436214Y-358420D01*
X-436209Y-358416D01*
Y-358406D01*
X-436204Y-358381D01*
X-436195Y-358352D01*
X-436175Y-358283D01*
X-436155Y-358185D01*
X-436141Y-358072D01*
X-436136Y-357950D01*
Y-357822D01*
X-436155Y-357685D01*
X-436160Y-357680D01*
Y-357670D01*
X-436175Y-357626D01*
X-436195Y-357558D01*
X-436229Y-357474D01*
X-436273Y-357381D01*
X-436327Y-357278D01*
X-436401Y-357175D01*
X-436484Y-357082D01*
X-436518Y-357048D01*
X-436548Y-357028D01*
X-436587Y-356999D01*
X-436626Y-356969D01*
X-436729Y-356905D01*
X-436857Y-356847D01*
X-436935Y-356817D01*
X-437009Y-356793D01*
X-437097Y-356773D01*
X-437180Y-356758D01*
X-437273Y-356753D01*
D02*
G37*
G36*
X-437430Y-360039D02*
X-437436Y-360043D01*
X-437435D01*
X-437430Y-360039D01*
D02*
G37*
G36*
X-562908Y52117D02*
X-562922D01*
X-562950D01*
X-563005D01*
X-563075Y52110D01*
X-563158D01*
X-563255Y52103D01*
X-563359Y52089D01*
X-563477Y52075D01*
X-563726Y52034D01*
X-563983Y51978D01*
X-564226Y51895D01*
X-564343Y51840D01*
X-564448Y51784D01*
X-564454Y51777D01*
X-564468Y51770D01*
X-564496Y51750D01*
X-564538Y51722D01*
X-564579Y51694D01*
X-564628Y51652D01*
X-564739Y51562D01*
X-564864Y51444D01*
X-564981Y51306D01*
X-565092Y51153D01*
X-565134Y51070D01*
X-565176Y50980D01*
Y50973D01*
X-565183Y50966D01*
X-565190Y50945D01*
X-565196Y50917D01*
X-565203Y50876D01*
X-565217Y50834D01*
X-565231Y50779D01*
X-565245Y50716D01*
X-565252Y50647D01*
X-565266Y50564D01*
X-565280Y50474D01*
X-565287Y50377D01*
X-565294Y50266D01*
X-565300Y50148D01*
X-565307Y50023D01*
Y48546D01*
X-560419D01*
Y50016D01*
X-560426Y50071D01*
Y50134D01*
X-560433Y50272D01*
X-560447Y50432D01*
X-560467Y50598D01*
X-560495Y50758D01*
X-560530Y50904D01*
Y50910D01*
X-560537Y50917D01*
X-560544Y50938D01*
X-560550Y50966D01*
X-560578Y51028D01*
X-560613Y51111D01*
X-560662Y51202D01*
X-560717Y51299D01*
X-560786Y51396D01*
X-560863Y51479D01*
X-560869Y51486D01*
X-560876Y51493D01*
X-560918Y51528D01*
X-560987Y51583D01*
X-561077Y51652D01*
X-561195Y51722D01*
X-561334Y51798D01*
X-561494Y51874D01*
X-561674Y51944D01*
X-561681D01*
X-561695Y51951D01*
X-561722Y51958D01*
X-561764Y51971D01*
X-561813Y51985D01*
X-561875Y51999D01*
X-561944Y52013D01*
X-562021Y52034D01*
X-562104Y52048D01*
X-562201Y52062D01*
X-562298Y52075D01*
X-562409Y52089D01*
X-562645Y52110D01*
X-562908Y52117D01*
D02*
G37*
G36*
X-360544Y441118D02*
X-360559Y441113D01*
X-360612Y441108D01*
X-360691Y441099D01*
X-360794Y441074D01*
X-360902Y441035D01*
X-361029Y440976D01*
X-361157Y440897D01*
X-361221Y440853D01*
X-361309Y440765D01*
X-361328Y440736D01*
X-361353Y440711D01*
X-361382Y440672D01*
X-361441Y440584D01*
X-361500Y440476D01*
X-361549Y440348D01*
X-361588Y440211D01*
X-361603Y440059D01*
Y440039D01*
Y439990D01*
X-361588Y439917D01*
X-361569Y439819D01*
X-361539Y439711D01*
X-361485Y439598D01*
X-361417Y439481D01*
X-361324Y439368D01*
X-361319Y439363D01*
X-361309Y439353D01*
X-361294Y439338D01*
X-361265Y439319D01*
X-361235Y439289D01*
X-361201Y439265D01*
X-361113Y439206D01*
X-361005Y439147D01*
X-360882Y439093D01*
X-360745Y439054D01*
X-360598Y439044D01*
X-360578D01*
X-360529Y439054D01*
X-360451Y439064D01*
X-360353Y439093D01*
X-360240Y439127D01*
X-360112Y439186D01*
X-359985Y439275D01*
X-359857Y439382D01*
X-359828Y439412D01*
X-359808Y439441D01*
X-359779Y439471D01*
X-359754Y439505D01*
X-359696Y439593D01*
X-359637Y439701D01*
X-359583Y439824D01*
X-359544Y439961D01*
X-359529Y440113D01*
Y440133D01*
Y440182D01*
X-359544Y440255D01*
X-359563Y440353D01*
X-359593Y440461D01*
X-359651Y440579D01*
X-359720Y440696D01*
X-359813Y440809D01*
X-359818Y440814D01*
X-359828Y440824D01*
X-359843Y440839D01*
X-359872Y440858D01*
X-359931Y440907D01*
X-360019Y440966D01*
X-360122Y441020D01*
X-360250Y441069D01*
X-360387Y441099D01*
X-360461Y441113D01*
X-360539D01*
X-360544Y441118D01*
D02*
G37*
G36*
X-358386Y439314D02*
X-358534D01*
X-358573Y439304D01*
X-358622D01*
X-358671Y439294D01*
X-358735Y439280D01*
X-358798Y439265D01*
X-358945Y439216D01*
X-359102Y439147D01*
X-359264Y439044D01*
X-359338Y438980D01*
X-359416Y438912D01*
X-359455Y438872D01*
X-359475Y438843D01*
X-359504Y438804D01*
X-359539Y438760D01*
X-359612Y438647D01*
X-359686Y438515D01*
X-359749Y438363D01*
X-359774Y438279D01*
X-359794Y438191D01*
X-359804Y438093D01*
X-359808Y438000D01*
Y437990D01*
Y437980D01*
Y437951D01*
X-359804Y437916D01*
X-359794Y437867D01*
X-359784Y437818D01*
X-359774Y437759D01*
X-359759Y437696D01*
X-359715Y437553D01*
X-359642Y437402D01*
X-359544Y437245D01*
X-359485Y437176D01*
X-359416Y437098D01*
X-359411Y437093D01*
X-359406Y437088D01*
X-359377Y437058D01*
X-359323Y437014D01*
X-359254Y436965D01*
X-359176Y436906D01*
X-359078Y436847D01*
X-358965Y436794D01*
X-358847Y436744D01*
X-358833Y436740D01*
X-358793Y436730D01*
X-358720Y436715D01*
X-358637Y436700D01*
X-358534Y436696D01*
X-358426D01*
X-358298Y436705D01*
X-358171Y436735D01*
X-358166Y436740D01*
X-358156D01*
X-358112Y436754D01*
X-358048Y436779D01*
X-357965Y436823D01*
X-357877Y436872D01*
X-357774Y436936D01*
X-357671Y437009D01*
X-357573Y437098D01*
X-357533Y437137D01*
X-357509Y437171D01*
X-357479Y437210D01*
X-357445Y437254D01*
X-357371Y437367D01*
X-357298Y437500D01*
X-357229Y437657D01*
X-357205Y437740D01*
X-357185Y437828D01*
X-357170Y437921D01*
X-357165Y438014D01*
Y438024D01*
Y438034D01*
Y438064D01*
X-357170Y438098D01*
X-357180Y438147D01*
X-357185Y438201D01*
X-357195Y438260D01*
X-357210Y438323D01*
X-357259Y438461D01*
X-357327Y438618D01*
X-357421Y438769D01*
X-357484Y438843D01*
X-357553Y438922D01*
X-357558Y438926D01*
X-357573Y438941D01*
X-357592Y438961D01*
X-357626Y438985D01*
X-357666Y439015D01*
X-357710Y439049D01*
X-357823Y439123D01*
X-357955Y439196D01*
X-358117Y439260D01*
X-358200Y439284D01*
X-358293Y439299D01*
X-358386Y439314D01*
D02*
G37*
G36*
X-364045Y437215D02*
X-364226Y437201D01*
X-364412Y437171D01*
X-364501Y437142D01*
X-364594Y437107D01*
X-364599Y437102D01*
X-364609D01*
X-364628Y437093D01*
X-364653Y437078D01*
X-364687Y437053D01*
X-364726Y437034D01*
X-364775Y437004D01*
X-364829Y436970D01*
X-364883Y436926D01*
X-364952Y436877D01*
X-365025Y436823D01*
X-365099Y436759D01*
X-365182Y436686D01*
X-365271Y436607D01*
X-365364Y436524D01*
X-366408Y435480D01*
X-362951Y432023D01*
X-361912Y433062D01*
X-361878Y433106D01*
X-361833Y433150D01*
X-361740Y433253D01*
X-361637Y433376D01*
X-361534Y433508D01*
X-361441Y433641D01*
X-361363Y433768D01*
X-361358Y433773D01*
Y433783D01*
X-361348Y433803D01*
X-361333Y433827D01*
X-361309Y433891D01*
X-361274Y433974D01*
X-361245Y434072D01*
X-361216Y434180D01*
X-361196Y434298D01*
X-361191Y434411D01*
Y434420D01*
Y434430D01*
X-361196Y434484D01*
X-361206Y434572D01*
X-361221Y434685D01*
X-361255Y434818D01*
X-361299Y434969D01*
X-361358Y435136D01*
X-361436Y435313D01*
X-361441Y435318D01*
X-361446Y435332D01*
X-361461Y435357D01*
X-361480Y435396D01*
X-361505Y435440D01*
X-361539Y435494D01*
X-361578Y435553D01*
X-361618Y435622D01*
X-361667Y435690D01*
X-361726Y435769D01*
X-361784Y435847D01*
X-361853Y435936D01*
X-362005Y436117D01*
X-362186Y436308D01*
X-362196Y436318D01*
X-362216Y436338D01*
X-362255Y436377D01*
X-362309Y436421D01*
X-362368Y436480D01*
X-362441Y436543D01*
X-362525Y436607D01*
X-362618Y436681D01*
X-362824Y436828D01*
X-363045Y436970D01*
X-363275Y437083D01*
X-363397Y437127D01*
X-363510Y437161D01*
X-363520D01*
X-363535Y437166D01*
X-363569Y437171D01*
X-363618Y437181D01*
X-363667Y437191D01*
X-363731Y437196D01*
X-363873Y437210D01*
X-364045Y437215D01*
D02*
G37*
G36*
X50023Y566978D02*
X48546D01*
Y562089D01*
X50016D01*
X50071Y562096D01*
X50134D01*
X50272Y562103D01*
X50432Y562117D01*
X50598Y562138D01*
X50758Y562166D01*
X50904Y562200D01*
X50910D01*
X50917Y562207D01*
X50938Y562214D01*
X50966Y562221D01*
X51028Y562249D01*
X51111Y562284D01*
X51202Y562332D01*
X51299Y562388D01*
X51396Y562457D01*
X51479Y562533D01*
X51486Y562540D01*
X51493Y562547D01*
X51528Y562589D01*
X51583Y562658D01*
X51652Y562748D01*
X51722Y562866D01*
X51798Y563005D01*
X51874Y563164D01*
X51944Y563344D01*
Y563351D01*
X51950Y563365D01*
X51958Y563393D01*
X51971Y563435D01*
X51985Y563483D01*
X51999Y563545D01*
X52013Y563615D01*
X52034Y563691D01*
X52048Y563774D01*
X52062Y563871D01*
X52075Y563969D01*
X52089Y564079D01*
X52110Y564315D01*
X52117Y564579D01*
Y564593D01*
Y564620D01*
Y564676D01*
X52110Y564745D01*
Y564828D01*
X52103Y564925D01*
X52089Y565029D01*
X52075Y565147D01*
X52034Y565397D01*
X51978Y565653D01*
X51895Y565896D01*
X51840Y566014D01*
X51784Y566118D01*
X51777Y566125D01*
X51770Y566139D01*
X51750Y566167D01*
X51722Y566208D01*
X51694Y566250D01*
X51652Y566298D01*
X51562Y566409D01*
X51444Y566534D01*
X51306Y566652D01*
X51153Y566763D01*
X51070Y566805D01*
X50980Y566846D01*
X50973D01*
X50966Y566853D01*
X50945Y566860D01*
X50917Y566867D01*
X50876Y566874D01*
X50834Y566888D01*
X50779Y566902D01*
X50716Y566916D01*
X50647Y566922D01*
X50564Y566936D01*
X50474Y566950D01*
X50377Y566957D01*
X50265Y566964D01*
X50148Y566971D01*
X50023Y566978D01*
D02*
G37*
G36*
X567089Y-48546D02*
X562200D01*
Y-50016D01*
X562207Y-50071D01*
Y-50134D01*
X562214Y-50272D01*
X562228Y-50432D01*
X562249Y-50598D01*
X562276Y-50758D01*
X562311Y-50904D01*
Y-50910D01*
X562318Y-50917D01*
X562325Y-50938D01*
X562332Y-50966D01*
X562360Y-51028D01*
X562394Y-51111D01*
X562443Y-51202D01*
X562498Y-51299D01*
X562568Y-51396D01*
X562644Y-51479D01*
X562651Y-51486D01*
X562658Y-51493D01*
X562700Y-51528D01*
X562769Y-51583D01*
X562859Y-51652D01*
X562977Y-51722D01*
X563116Y-51798D01*
X563275Y-51874D01*
X563455Y-51944D01*
X563462D01*
X563476Y-51950D01*
X563504Y-51958D01*
X563545Y-51971D01*
X563594Y-51985D01*
X563657Y-51999D01*
X563726Y-52013D01*
X563802Y-52034D01*
X563885Y-52048D01*
X563982Y-52062D01*
X564079Y-52075D01*
X564190Y-52089D01*
X564426Y-52110D01*
X564690Y-52117D01*
X564703D01*
X564731D01*
X564787D01*
X564856Y-52110D01*
X564939D01*
X565036Y-52103D01*
X565140Y-52089D01*
X565258Y-52075D01*
X565508Y-52034D01*
X565765Y-51978D01*
X566007Y-51895D01*
X566125Y-51840D01*
X566229Y-51784D01*
X566236Y-51777D01*
X566250Y-51770D01*
X566278Y-51750D01*
X566319Y-51722D01*
X566361Y-51694D01*
X566409Y-51652D01*
X566520Y-51562D01*
X566645Y-51444D01*
X566763Y-51306D01*
X566874Y-51153D01*
X566916Y-51070D01*
X566957Y-50980D01*
Y-50973D01*
X566964Y-50966D01*
X566971Y-50945D01*
X566978Y-50917D01*
X566985Y-50876D01*
X566999Y-50834D01*
X567013Y-50779D01*
X567026Y-50716D01*
X567033Y-50647D01*
X567047Y-50564D01*
X567061Y-50474D01*
X567068Y-50377D01*
X567075Y-50265D01*
X567082Y-50148D01*
X567089Y-50023D01*
Y-48546D01*
D02*
G37*
G36*
X-296251Y450377D02*
X-296300D01*
X-296334Y450372D01*
X-296383Y450362D01*
X-296437Y450357D01*
X-296496Y450347D01*
X-296560Y450333D01*
X-296697Y450284D01*
X-296854Y450215D01*
X-297006Y450122D01*
X-297079Y450058D01*
X-297158Y449989D01*
X-297163Y449984D01*
X-297177Y449970D01*
X-297197Y449950D01*
X-297222Y449916D01*
X-297251Y449877D01*
X-297285Y449832D01*
X-297359Y449720D01*
X-297432Y449587D01*
X-297496Y449426D01*
X-297521Y449342D01*
X-297535Y449249D01*
X-297550Y449156D01*
Y449058D01*
Y449048D01*
Y449038D01*
Y449009D01*
X-297540Y448969D01*
Y448921D01*
X-297530Y448871D01*
X-297516Y448808D01*
X-297501Y448744D01*
X-297452Y448597D01*
X-297383Y448440D01*
X-297280Y448278D01*
X-297217Y448205D01*
X-297148Y448126D01*
X-297109Y448087D01*
X-297079Y448067D01*
X-297040Y448038D01*
X-296996Y448004D01*
X-296883Y447930D01*
X-296751Y447856D01*
X-296599Y447793D01*
X-296515Y447768D01*
X-296427Y447749D01*
X-296329Y447739D01*
X-296236Y447734D01*
X-296187D01*
X-296152Y447739D01*
X-296103Y447749D01*
X-296054Y447758D01*
X-295996Y447768D01*
X-295932Y447783D01*
X-295790Y447827D01*
X-295638Y447901D01*
X-295481Y447999D01*
X-295412Y448058D01*
X-295334Y448126D01*
X-295329Y448131D01*
X-295324Y448136D01*
X-295294Y448165D01*
X-295250Y448219D01*
X-295201Y448288D01*
X-295142Y448366D01*
X-295084Y448465D01*
X-295030Y448577D01*
X-294981Y448695D01*
X-294976Y448710D01*
X-294966Y448749D01*
X-294951Y448822D01*
X-294937Y448906D01*
X-294932Y449009D01*
Y449117D01*
X-294941Y449244D01*
X-294971Y449371D01*
X-294976Y449376D01*
Y449386D01*
X-294991Y449430D01*
X-295015Y449494D01*
X-295059Y449577D01*
X-295108Y449666D01*
X-295172Y449769D01*
X-295245Y449872D01*
X-295334Y449970D01*
X-295373Y450009D01*
X-295407Y450033D01*
X-295446Y450063D01*
X-295491Y450097D01*
X-295603Y450171D01*
X-295736Y450244D01*
X-295893Y450313D01*
X-295976Y450337D01*
X-296064Y450357D01*
X-296157Y450372D01*
X-296251Y450377D01*
D02*
G37*
G36*
X-298349Y448013D02*
X-298418D01*
X-298491Y447999D01*
X-298589Y447979D01*
X-298697Y447950D01*
X-298815Y447891D01*
X-298933Y447822D01*
X-299046Y447729D01*
X-299050Y447724D01*
X-299060Y447714D01*
X-299075Y447700D01*
X-299095Y447670D01*
X-299144Y447611D01*
X-299202Y447523D01*
X-299256Y447420D01*
X-299305Y447293D01*
X-299335Y447155D01*
X-299349Y447082D01*
Y447003D01*
X-299354Y446998D01*
X-299349Y446984D01*
X-299345Y446930D01*
X-299335Y446851D01*
X-299310Y446748D01*
X-299271Y446641D01*
X-299212Y446513D01*
X-299134Y446385D01*
X-299090Y446322D01*
X-299001Y446233D01*
X-298972Y446214D01*
X-298947Y446189D01*
X-298908Y446160D01*
X-298820Y446101D01*
X-298712Y446042D01*
X-298584Y445993D01*
X-298447Y445954D01*
X-298295Y445939D01*
X-298227D01*
X-298153Y445954D01*
X-298055Y445974D01*
X-297947Y446003D01*
X-297834Y446057D01*
X-297717Y446126D01*
X-297604Y446219D01*
X-297599Y446224D01*
X-297589Y446233D01*
X-297575Y446248D01*
X-297555Y446278D01*
X-297525Y446307D01*
X-297501Y446341D01*
X-297442Y446430D01*
X-297383Y446538D01*
X-297329Y446660D01*
X-297290Y446797D01*
X-297280Y446944D01*
Y446964D01*
X-297290Y447013D01*
X-297300Y447092D01*
X-297329Y447190D01*
X-297364Y447302D01*
X-297423Y447430D01*
X-297511Y447557D01*
X-297619Y447685D01*
X-297648Y447714D01*
X-297677Y447734D01*
X-297707Y447763D01*
X-297741Y447788D01*
X-297829Y447847D01*
X-297937Y447906D01*
X-298060Y447959D01*
X-298197Y447999D01*
X-298349Y448013D01*
D02*
G37*
G36*
X-292558Y446322D02*
X-292657D01*
X-292730Y446317D01*
X-292823Y446302D01*
X-292926Y446287D01*
X-293049Y446263D01*
X-293186Y446224D01*
X-293328Y446180D01*
X-293485Y446121D01*
X-293647Y446047D01*
X-293819Y445954D01*
X-293995Y445846D01*
X-294172Y445719D01*
X-294353Y445577D01*
X-294534Y445405D01*
X-294539Y445400D01*
X-294559Y445380D01*
X-294588Y445351D01*
X-294623Y445307D01*
X-294672Y445258D01*
X-294721Y445199D01*
X-294780Y445130D01*
X-294834Y445057D01*
X-294966Y444885D01*
X-295093Y444689D01*
X-295206Y444478D01*
X-295299Y444258D01*
X-295304Y444253D01*
X-295309Y444228D01*
X-295319Y444199D01*
X-295334Y444155D01*
X-295348Y444101D01*
X-295363Y444037D01*
X-295397Y443885D01*
X-295422Y443703D01*
X-295432Y443507D01*
X-295427Y443297D01*
X-295393Y443076D01*
Y443066D01*
X-295388Y443051D01*
X-295378Y443022D01*
X-295363Y442978D01*
X-295348Y442924D01*
X-295329Y442865D01*
X-295304Y442801D01*
X-295275Y442723D01*
X-295236Y442644D01*
X-295196Y442566D01*
X-295098Y442389D01*
X-294971Y442213D01*
X-294897Y442120D01*
X-294785Y442007D01*
X-294745Y441978D01*
X-294696Y441928D01*
X-294633Y441884D01*
X-294554Y441825D01*
X-294466Y441767D01*
X-294368Y441708D01*
X-294255Y441644D01*
X-294137Y441585D01*
X-294005Y441531D01*
X-293868Y441482D01*
X-293725Y441438D01*
X-293573Y441414D01*
X-293412Y441389D01*
X-293206D01*
X-293157Y441399D01*
X-293093Y441404D01*
X-293010Y441418D01*
X-292916Y441443D01*
X-292804Y441468D01*
X-292681Y441512D01*
X-292554Y441561D01*
X-292411Y441624D01*
X-292259Y441698D01*
X-292103Y441786D01*
X-291941Y441889D01*
X-291774Y442017D01*
X-291607Y442154D01*
X-291436Y442316D01*
X-291426Y442326D01*
X-291396Y442355D01*
X-291357Y442404D01*
X-291293Y442468D01*
X-291230Y442551D01*
X-291156Y442644D01*
X-291073Y442747D01*
X-290989Y442870D01*
X-290906Y443002D01*
X-290828Y443140D01*
X-290749Y443287D01*
X-290681Y443444D01*
X-290617Y443605D01*
X-290568Y443772D01*
X-290534Y443934D01*
X-290519Y444105D01*
Y444115D01*
Y444145D01*
Y444194D01*
X-290524Y444258D01*
X-290534Y444336D01*
X-290543Y444424D01*
X-290563Y444532D01*
X-290587Y444645D01*
X-290617Y444762D01*
X-290661Y444895D01*
X-290710Y445022D01*
X-290774Y445155D01*
X-290852Y445292D01*
X-290940Y445429D01*
X-291043Y445562D01*
X-291161Y445689D01*
X-291215Y445743D01*
X-291249Y445768D01*
X-291284Y445802D01*
X-291372Y445871D01*
X-291480Y445949D01*
X-291602Y446032D01*
X-291740Y446111D01*
X-291887Y446180D01*
X-291882Y446175D01*
Y446155D01*
X-291877Y446130D01*
X-291867Y446101D01*
X-291857Y446062D01*
X-291843Y446008D01*
X-291808Y445895D01*
X-291759Y445768D01*
X-291705Y445625D01*
X-291632Y445474D01*
X-291553Y445326D01*
X-292132Y445032D01*
X-292137Y445037D01*
X-292152Y445062D01*
X-292166Y445096D01*
X-292191Y445150D01*
X-292220Y445209D01*
X-292250Y445277D01*
X-292289Y445356D01*
X-292328Y445444D01*
X-292397Y445640D01*
X-292470Y445861D01*
X-292524Y446091D01*
X-292558Y446322D01*
D02*
G37*
G36*
X-519415Y107773D02*
X-519491D01*
X-519533Y107766D01*
X-519581D01*
X-519692Y107752D01*
X-519824Y107731D01*
X-519970Y107704D01*
X-520122Y107662D01*
X-520275Y107606D01*
X-520268D01*
X-520254Y107593D01*
X-520233Y107579D01*
X-520205Y107565D01*
X-520171Y107544D01*
X-520122Y107516D01*
X-520018Y107461D01*
X-519893Y107405D01*
X-519755Y107343D01*
X-519595Y107288D01*
X-519436Y107239D01*
X-519637Y106622D01*
X-519644D01*
X-519672Y106629D01*
X-519706Y106643D01*
X-519762Y106664D01*
X-519824Y106684D01*
X-519893Y106712D01*
X-519977Y106740D01*
X-520067Y106774D01*
X-520254Y106865D01*
X-520462Y106969D01*
X-520663Y107093D01*
X-520850Y107232D01*
X-520857Y107225D01*
X-520885Y107197D01*
X-520920Y107163D01*
X-520968Y107107D01*
X-521024Y107031D01*
X-521086Y106948D01*
X-521155Y106844D01*
X-521225Y106719D01*
X-521294Y106587D01*
X-521363Y106435D01*
X-521426Y106268D01*
X-521481Y106081D01*
X-521530Y105880D01*
X-521564Y105665D01*
X-521592Y105436D01*
X-521599Y105187D01*
Y105180D01*
Y105152D01*
Y105110D01*
X-521592Y105055D01*
Y104985D01*
X-521585Y104909D01*
X-521578Y104819D01*
X-521564Y104729D01*
X-521537Y104514D01*
X-521488Y104285D01*
X-521419Y104056D01*
X-521329Y103834D01*
Y103827D01*
X-521315Y103807D01*
X-521301Y103779D01*
X-521280Y103737D01*
X-521253Y103689D01*
X-521218Y103633D01*
X-521135Y103502D01*
X-521024Y103356D01*
X-520892Y103210D01*
X-520739Y103065D01*
X-520559Y102933D01*
X-520552Y102926D01*
X-520538Y102919D01*
X-520510Y102905D01*
X-520469Y102884D01*
X-520420Y102857D01*
X-520365Y102829D01*
X-520303Y102801D01*
X-520226Y102766D01*
X-520143Y102739D01*
X-520060Y102711D01*
X-519866Y102655D01*
X-519651Y102621D01*
X-519533Y102607D01*
X-519373D01*
X-519325Y102614D01*
X-519255D01*
X-519179Y102628D01*
X-519082Y102642D01*
X-518978Y102662D01*
X-518867Y102690D01*
X-518742Y102725D01*
X-518618Y102766D01*
X-518486Y102822D01*
X-518354Y102884D01*
X-518222Y102954D01*
X-518097Y103044D01*
X-517966Y103141D01*
X-517848Y103259D01*
X-517841Y103266D01*
X-517820Y103287D01*
X-517792Y103328D01*
X-517751Y103377D01*
X-517702Y103446D01*
X-517654Y103529D01*
X-517591Y103626D01*
X-517536Y103744D01*
X-517480Y103869D01*
X-517425Y104015D01*
X-517369Y104174D01*
X-517321Y104347D01*
X-517279Y104535D01*
X-517251Y104743D01*
X-517231Y104958D01*
X-517224Y105193D01*
Y105207D01*
Y105249D01*
X-517231Y105311D01*
Y105401D01*
X-517244Y105506D01*
X-517258Y105623D01*
X-517272Y105755D01*
X-517300Y105901D01*
X-517335Y106053D01*
X-517376Y106206D01*
X-517425Y106365D01*
X-517487Y106525D01*
X-517556Y106684D01*
X-517640Y106837D01*
X-517730Y106975D01*
X-517841Y107107D01*
X-517848Y107114D01*
X-517869Y107135D01*
X-517903Y107170D01*
X-517952Y107211D01*
X-518014Y107260D01*
X-518083Y107315D01*
X-518174Y107378D01*
X-518271Y107440D01*
X-518375Y107502D01*
X-518500Y107565D01*
X-518624Y107620D01*
X-518763Y107669D01*
X-518916Y107711D01*
X-519075Y107745D01*
X-519242Y107766D01*
X-519415Y107773D01*
D02*
G37*
G36*
X105886Y525249D02*
X105880D01*
X105852D01*
X105810D01*
X105755Y525242D01*
X105685D01*
X105609Y525235D01*
X105519Y525228D01*
X105429Y525215D01*
X105214Y525187D01*
X104985Y525138D01*
X104756Y525069D01*
X104534Y524979D01*
X104527D01*
X104507Y524965D01*
X104479Y524951D01*
X104437Y524930D01*
X104389Y524902D01*
X104333Y524868D01*
X104201Y524785D01*
X104056Y524674D01*
X103910Y524542D01*
X103765Y524389D01*
X103633Y524209D01*
X103626Y524202D01*
X103619Y524188D01*
X103605Y524160D01*
X103584Y524119D01*
X103557Y524070D01*
X103529Y524015D01*
X103501Y523952D01*
X103467Y523876D01*
X103439Y523793D01*
X103411Y523710D01*
X103356Y523516D01*
X103321Y523301D01*
X103307Y523183D01*
Y523023D01*
X103314Y522975D01*
Y522905D01*
X103328Y522829D01*
X103342Y522732D01*
X103363Y522628D01*
X103390Y522517D01*
X103425Y522392D01*
X103467Y522267D01*
X103522Y522136D01*
X103584Y522004D01*
X103654Y521872D01*
X103744Y521747D01*
X103841Y521616D01*
X103959Y521498D01*
X103966Y521491D01*
X103987Y521470D01*
X104028Y521442D01*
X104077Y521401D01*
X104146Y521352D01*
X104229Y521304D01*
X104326Y521241D01*
X104444Y521186D01*
X104569Y521130D01*
X104715Y521075D01*
X104874Y521019D01*
X105048Y520971D01*
X105235Y520929D01*
X105443Y520901D01*
X105658Y520881D01*
X105893Y520874D01*
X105907D01*
X105949D01*
X106011Y520881D01*
X106102D01*
X106206Y520895D01*
X106323Y520908D01*
X106455Y520922D01*
X106601Y520950D01*
X106753Y520985D01*
X106906Y521026D01*
X107065Y521075D01*
X107225Y521137D01*
X107384Y521207D01*
X107537Y521290D01*
X107676Y521380D01*
X107807Y521491D01*
X107814Y521498D01*
X107835Y521519D01*
X107870Y521553D01*
X107911Y521602D01*
X107960Y521664D01*
X108015Y521734D01*
X108078Y521824D01*
X108140Y521921D01*
X108202Y522025D01*
X108265Y522150D01*
X108320Y522274D01*
X108369Y522413D01*
X108411Y522566D01*
X108445Y522725D01*
X108466Y522892D01*
X108473Y523065D01*
Y523141D01*
X108466Y523183D01*
Y523231D01*
X108452Y523342D01*
X108431Y523474D01*
X108404Y523620D01*
X108362Y523772D01*
X108307Y523925D01*
Y523918D01*
X108293Y523904D01*
X108279Y523883D01*
X108265Y523855D01*
X108244Y523821D01*
X108216Y523772D01*
X108161Y523668D01*
X108105Y523543D01*
X108043Y523405D01*
X107988Y523245D01*
X107939Y523086D01*
X107322Y523287D01*
Y523294D01*
X107329Y523321D01*
X107343Y523356D01*
X107364Y523412D01*
X107384Y523474D01*
X107412Y523543D01*
X107440Y523627D01*
X107474Y523717D01*
X107565Y523904D01*
X107669Y524112D01*
X107793Y524313D01*
X107932Y524500D01*
X107925Y524507D01*
X107897Y524535D01*
X107863Y524570D01*
X107807Y524618D01*
X107731Y524674D01*
X107648Y524736D01*
X107544Y524805D01*
X107419Y524875D01*
X107287Y524944D01*
X107135Y525013D01*
X106968Y525076D01*
X106781Y525131D01*
X106580Y525180D01*
X106365Y525215D01*
X106136Y525242D01*
X105886Y525249D01*
D02*
G37*
G36*
X445072Y293867D02*
X444861Y293862D01*
X444641Y293827D01*
X444631D01*
X444616Y293823D01*
X444587Y293813D01*
X444543Y293798D01*
X444489Y293783D01*
X444430Y293764D01*
X444366Y293739D01*
X444288Y293710D01*
X444209Y293671D01*
X444131Y293631D01*
X443954Y293533D01*
X443778Y293406D01*
X443685Y293332D01*
X443572Y293220D01*
X443542Y293180D01*
X443493Y293131D01*
X443449Y293067D01*
X443390Y292989D01*
X443332Y292901D01*
X443273Y292803D01*
X443209Y292690D01*
X443150Y292572D01*
X443096Y292440D01*
X443047Y292303D01*
X443003Y292160D01*
X442979Y292008D01*
X442954Y291847D01*
Y291680D01*
Y291670D01*
Y291641D01*
X442964Y291592D01*
X442969Y291528D01*
X442983Y291445D01*
X443008Y291351D01*
X443032Y291239D01*
X443077Y291116D01*
X443126Y290989D01*
X443189Y290846D01*
X443263Y290694D01*
X443351Y290537D01*
X443454Y290376D01*
X443582Y290209D01*
X443719Y290042D01*
X443881Y289871D01*
X443891Y289861D01*
X443920Y289831D01*
X443969Y289792D01*
X444033Y289728D01*
X444116Y289665D01*
X444209Y289591D01*
X444312Y289508D01*
X444435Y289424D01*
X444567Y289341D01*
X444705Y289263D01*
X444852Y289184D01*
X445009Y289116D01*
X445170Y289052D01*
X445337Y289003D01*
X445499Y288968D01*
X445670Y288954D01*
X445759D01*
X445822Y288959D01*
X445901Y288968D01*
X445989Y288978D01*
X446097Y288998D01*
X446210Y289022D01*
X446328Y289052D01*
X446460Y289096D01*
X446587Y289145D01*
X446720Y289209D01*
X446857Y289287D01*
X446994Y289375D01*
X447127Y289478D01*
X447254Y289596D01*
X447308Y289650D01*
X447333Y289684D01*
X447367Y289719D01*
X447436Y289807D01*
X447514Y289915D01*
X447597Y290037D01*
X447676Y290175D01*
X447744Y290322D01*
X447740Y290317D01*
X447720D01*
X447695Y290312D01*
X447666Y290302D01*
X447627Y290292D01*
X447573Y290278D01*
X447460Y290243D01*
X447333Y290194D01*
X447190Y290140D01*
X447038Y290067D01*
X446891Y289988D01*
X446597Y290567D01*
X446602Y290572D01*
X446627Y290586D01*
X446661Y290601D01*
X446715Y290626D01*
X446774Y290655D01*
X446842Y290685D01*
X446921Y290724D01*
X447009Y290763D01*
X447205Y290832D01*
X447426Y290905D01*
X447656Y290959D01*
X447887Y290993D01*
Y291003D01*
Y291042D01*
Y291091D01*
X447882Y291165D01*
X447867Y291258D01*
X447852Y291361D01*
X447828Y291484D01*
X447789Y291621D01*
X447744Y291763D01*
X447686Y291920D01*
X447612Y292082D01*
X447519Y292254D01*
X447411Y292430D01*
X447284Y292607D01*
X447141Y292788D01*
X446970Y292969D01*
X446965Y292974D01*
X446945Y292994D01*
X446916Y293023D01*
X446872Y293058D01*
X446823Y293107D01*
X446764Y293156D01*
X446695Y293215D01*
X446622Y293269D01*
X446450Y293401D01*
X446254Y293528D01*
X446043Y293641D01*
X445822Y293734D01*
X445817Y293739D01*
X445793Y293744D01*
X445764Y293754D01*
X445719Y293769D01*
X445666Y293783D01*
X445602Y293798D01*
X445450Y293832D01*
X445268Y293857D01*
X445072Y293867D01*
D02*
G37*
G36*
X-443718Y-290978D02*
X-443782Y-290983D01*
X-443861Y-290993D01*
X-443949Y-291003D01*
X-444057Y-291022D01*
X-444169Y-291047D01*
X-444287Y-291077D01*
X-444420Y-291121D01*
X-444547Y-291170D01*
X-444679Y-291233D01*
X-444817Y-291312D01*
X-444954Y-291400D01*
X-445086Y-291503D01*
X-445214Y-291621D01*
X-445268Y-291675D01*
X-445292Y-291709D01*
X-445327Y-291743D01*
X-445395Y-291832D01*
X-445474Y-291939D01*
X-445557Y-292062D01*
X-445635Y-292199D01*
X-445704Y-292346D01*
X-445699Y-292341D01*
X-445680D01*
X-445655Y-292337D01*
X-445626Y-292327D01*
X-445587Y-292317D01*
X-445532Y-292302D01*
X-445420Y-292268D01*
X-445292Y-292219D01*
X-445150Y-292165D01*
X-444998Y-292091D01*
X-444851Y-292013D01*
X-444557Y-292592D01*
X-444562Y-292596D01*
X-444586Y-292611D01*
X-444621Y-292626D01*
X-444674Y-292650D01*
X-444733Y-292680D01*
X-444802Y-292709D01*
X-444880Y-292749D01*
X-444969Y-292788D01*
X-445165Y-292856D01*
X-445385Y-292930D01*
X-445616Y-292984D01*
X-445846Y-293018D01*
Y-293028D01*
Y-293067D01*
Y-293116D01*
X-445841Y-293190D01*
X-445827Y-293283D01*
X-445812Y-293386D01*
X-445788Y-293508D01*
X-445748Y-293646D01*
X-445704Y-293788D01*
X-445645Y-293945D01*
X-445572Y-294107D01*
X-445479Y-294278D01*
X-445371Y-294455D01*
X-445243Y-294631D01*
X-445101Y-294813D01*
X-444929Y-294994D01*
X-444925Y-294999D01*
X-444905Y-295019D01*
X-444875Y-295048D01*
X-444831Y-295082D01*
X-444782Y-295131D01*
X-444724Y-295180D01*
X-444655Y-295239D01*
X-444581Y-295293D01*
X-444410Y-295426D01*
X-444214Y-295553D01*
X-444003Y-295666D01*
X-443782Y-295759D01*
X-443777Y-295764D01*
X-443753Y-295769D01*
X-443723Y-295779D01*
X-443679Y-295793D01*
X-443625Y-295808D01*
X-443561Y-295823D01*
X-443409Y-295857D01*
X-443228Y-295882D01*
X-443032Y-295891D01*
X-442821Y-295886D01*
X-442600Y-295852D01*
X-442591D01*
X-442576Y-295847D01*
X-442547Y-295837D01*
X-442502Y-295823D01*
X-442448Y-295808D01*
X-442390Y-295788D01*
X-442326Y-295764D01*
X-442247Y-295735D01*
X-442169Y-295695D01*
X-442090Y-295656D01*
X-441914Y-295558D01*
X-441737Y-295431D01*
X-441644Y-295357D01*
X-441531Y-295244D01*
X-441502Y-295205D01*
X-441453Y-295156D01*
X-441409Y-295092D01*
X-441350Y-295014D01*
X-441291Y-294925D01*
X-441232Y-294827D01*
X-441169Y-294715D01*
X-441110Y-294597D01*
X-441056Y-294465D01*
X-441007Y-294327D01*
X-440963Y-294185D01*
X-440938Y-294033D01*
X-440914Y-293871D01*
Y-293705D01*
Y-293695D01*
Y-293665D01*
X-440924Y-293616D01*
X-440928Y-293553D01*
X-440943Y-293469D01*
X-440968Y-293376D01*
X-440992Y-293263D01*
X-441036Y-293141D01*
X-441085Y-293013D01*
X-441149Y-292871D01*
X-441223Y-292719D01*
X-441311Y-292562D01*
X-441414Y-292400D01*
X-441541Y-292234D01*
X-441679Y-292067D01*
X-441840Y-291895D01*
X-441850Y-291886D01*
X-441880Y-291856D01*
X-441929Y-291817D01*
X-441992Y-291753D01*
X-442076Y-291689D01*
X-442169Y-291616D01*
X-442272Y-291532D01*
X-442394Y-291449D01*
X-442527Y-291366D01*
X-442664Y-291287D01*
X-442811Y-291209D01*
X-442968Y-291140D01*
X-443130Y-291077D01*
X-443297Y-291027D01*
X-443459Y-290993D01*
X-443630Y-290978D01*
X-443640D01*
X-443669D01*
X-443718D01*
D02*
G37*
G36*
X-448803Y-295494D02*
X-448940Y-295514D01*
X-448945Y-295519D01*
X-448955D01*
X-448999Y-295534D01*
X-449068Y-295553D01*
X-449151Y-295587D01*
X-449244Y-295632D01*
X-449347Y-295686D01*
X-449450Y-295759D01*
X-449543Y-295842D01*
X-449578Y-295877D01*
X-449597Y-295906D01*
X-449627Y-295945D01*
X-449656Y-295985D01*
X-449720Y-296088D01*
X-449779Y-296215D01*
X-449808Y-296294D01*
X-449833Y-296367D01*
X-449852Y-296455D01*
X-449867Y-296539D01*
X-449872Y-296632D01*
Y-296730D01*
Y-296740D01*
X-449867Y-296754D01*
Y-296784D01*
X-449857Y-296823D01*
X-449847Y-296872D01*
X-449833Y-296926D01*
X-449818Y-296990D01*
X-449793Y-297063D01*
X-449769Y-297137D01*
X-449735Y-297220D01*
X-449691Y-297304D01*
X-449641Y-297392D01*
X-449583Y-297480D01*
X-449514Y-297578D01*
X-449436Y-297666D01*
X-449352Y-297760D01*
X-449347Y-297764D01*
X-449333Y-297779D01*
X-449308Y-297804D01*
X-449269Y-297833D01*
X-449225Y-297867D01*
X-449176Y-297907D01*
X-449122Y-297951D01*
X-449058Y-297995D01*
X-448911Y-298083D01*
X-448744Y-298162D01*
X-448651Y-298196D01*
X-448558Y-298221D01*
X-448465Y-298235D01*
X-448367Y-298245D01*
X-448357D01*
X-448347D01*
X-448318D01*
X-448278D01*
X-448234Y-298240D01*
X-448180Y-298235D01*
X-448058Y-298211D01*
X-447915Y-298167D01*
X-447763Y-298103D01*
X-447607Y-298015D01*
X-447533Y-297951D01*
X-447459Y-297887D01*
X-447425Y-297853D01*
X-447401Y-297818D01*
X-447376Y-297784D01*
X-447342Y-297740D01*
X-447273Y-297632D01*
X-447205Y-297495D01*
X-447146Y-297338D01*
X-447121Y-297255D01*
X-447102Y-297166D01*
X-447092Y-297068D01*
Y-296970D01*
Y-296960D01*
X-447097Y-296946D01*
Y-296916D01*
X-447102Y-296882D01*
X-447107Y-296838D01*
X-447116Y-296779D01*
X-447131Y-296715D01*
X-447155Y-296651D01*
X-447175Y-296583D01*
X-447205Y-296504D01*
X-447283Y-296338D01*
X-447391Y-296171D01*
X-447464Y-296088D01*
X-447538Y-296004D01*
X-447543Y-295999D01*
X-447553Y-295989D01*
X-447567Y-295975D01*
X-447587Y-295955D01*
X-447616Y-295936D01*
X-447646Y-295906D01*
X-447729Y-295842D01*
X-447827Y-295774D01*
X-447940Y-295700D01*
X-448068Y-295632D01*
X-448205Y-295573D01*
X-448210Y-295568D01*
X-448219D01*
X-448244Y-295563D01*
X-448273Y-295553D01*
X-448342Y-295534D01*
X-448440Y-295514D01*
X-448553Y-295499D01*
X-448675Y-295494D01*
X-448803D01*
D02*
G37*
G36*
X-105194Y-519724D02*
X-105207D01*
X-105249D01*
X-105311Y-519731D01*
X-105401D01*
X-105506Y-519744D01*
X-105623Y-519758D01*
X-105755Y-519772D01*
X-105901Y-519800D01*
X-106053Y-519835D01*
X-106206Y-519876D01*
X-106365Y-519925D01*
X-106525Y-519987D01*
X-106684Y-520056D01*
X-106837Y-520140D01*
X-106976Y-520230D01*
X-107107Y-520341D01*
X-107114Y-520348D01*
X-107135Y-520369D01*
X-107170Y-520403D01*
X-107211Y-520452D01*
X-107260Y-520514D01*
X-107315Y-520583D01*
X-107378Y-520674D01*
X-107440Y-520771D01*
X-107503Y-520875D01*
X-107565Y-521000D01*
X-107620Y-521124D01*
X-107669Y-521263D01*
X-107711Y-521416D01*
X-107745Y-521575D01*
X-107766Y-521742D01*
X-107773Y-521915D01*
Y-521991D01*
X-107766Y-522033D01*
Y-522081D01*
X-107752Y-522192D01*
X-107731Y-522324D01*
X-107704Y-522470D01*
X-107662Y-522622D01*
X-107607Y-522775D01*
Y-522768D01*
X-107593Y-522754D01*
X-107579Y-522733D01*
X-107565Y-522705D01*
X-107544Y-522671D01*
X-107516Y-522622D01*
X-107461Y-522518D01*
X-107406Y-522393D01*
X-107343Y-522255D01*
X-107288Y-522095D01*
X-107239Y-521936D01*
X-106622Y-522137D01*
Y-522144D01*
X-106629Y-522172D01*
X-106643Y-522206D01*
X-106664Y-522262D01*
X-106684Y-522324D01*
X-106712Y-522393D01*
X-106740Y-522477D01*
X-106775Y-522567D01*
X-106865Y-522754D01*
X-106969Y-522962D01*
X-107093Y-523163D01*
X-107232Y-523350D01*
X-107225Y-523357D01*
X-107197Y-523385D01*
X-107163Y-523420D01*
X-107107Y-523468D01*
X-107031Y-523524D01*
X-106948Y-523586D01*
X-106844Y-523655D01*
X-106719Y-523725D01*
X-106587Y-523794D01*
X-106435Y-523863D01*
X-106268Y-523926D01*
X-106081Y-523981D01*
X-105880Y-524030D01*
X-105665Y-524064D01*
X-105436Y-524092D01*
X-105187Y-524099D01*
X-105180D01*
X-105152D01*
X-105110D01*
X-105055Y-524092D01*
X-104985D01*
X-104909Y-524085D01*
X-104819Y-524078D01*
X-104729Y-524064D01*
X-104514Y-524037D01*
X-104285Y-523988D01*
X-104056Y-523919D01*
X-103834Y-523829D01*
X-103827D01*
X-103807Y-523815D01*
X-103779Y-523801D01*
X-103737Y-523780D01*
X-103689Y-523753D01*
X-103633Y-523718D01*
X-103502Y-523635D01*
X-103356Y-523524D01*
X-103210Y-523392D01*
X-103065Y-523239D01*
X-102933Y-523059D01*
X-102926Y-523052D01*
X-102919Y-523038D01*
X-102905Y-523010D01*
X-102884Y-522969D01*
X-102857Y-522920D01*
X-102829Y-522865D01*
X-102801Y-522803D01*
X-102767Y-522726D01*
X-102739Y-522643D01*
X-102711Y-522560D01*
X-102655Y-522366D01*
X-102621Y-522151D01*
X-102607Y-522033D01*
Y-521873D01*
X-102614Y-521825D01*
Y-521755D01*
X-102628Y-521679D01*
X-102642Y-521582D01*
X-102662Y-521478D01*
X-102690Y-521367D01*
X-102725Y-521242D01*
X-102767Y-521118D01*
X-102822Y-520986D01*
X-102884Y-520854D01*
X-102954Y-520722D01*
X-103044Y-520597D01*
X-103141Y-520466D01*
X-103259Y-520348D01*
X-103266Y-520341D01*
X-103287Y-520320D01*
X-103328Y-520292D01*
X-103377Y-520251D01*
X-103446Y-520202D01*
X-103529Y-520154D01*
X-103626Y-520091D01*
X-103744Y-520036D01*
X-103869Y-519980D01*
X-104015Y-519925D01*
X-104174Y-519869D01*
X-104347Y-519821D01*
X-104535Y-519779D01*
X-104743Y-519751D01*
X-104958Y-519731D01*
X-105194Y-519724D01*
D02*
G37*
G36*
X293665Y-440914D02*
X293616Y-440924D01*
X293552Y-440928D01*
X293469Y-440943D01*
X293376Y-440968D01*
X293263Y-440992D01*
X293141Y-441036D01*
X293013Y-441085D01*
X292871Y-441149D01*
X292719Y-441223D01*
X292562Y-441311D01*
X292400Y-441414D01*
X292234Y-441541D01*
X292067Y-441679D01*
X291895Y-441840D01*
X291885Y-441850D01*
X291856Y-441880D01*
X291817Y-441929D01*
X291753Y-441992D01*
X291689Y-442076D01*
X291616Y-442169D01*
X291532Y-442272D01*
X291449Y-442394D01*
X291366Y-442527D01*
X291287Y-442664D01*
X291209Y-442811D01*
X291140Y-442968D01*
X291076Y-443130D01*
X291027Y-443297D01*
X290993Y-443458D01*
X290978Y-443630D01*
Y-443640D01*
Y-443669D01*
Y-443718D01*
X290983Y-443782D01*
X290993Y-443861D01*
X291003Y-443949D01*
X291022Y-444057D01*
X291047Y-444169D01*
X291076Y-444287D01*
X291120Y-444420D01*
X291170Y-444547D01*
X291233Y-444679D01*
X291312Y-444817D01*
X291400Y-444954D01*
X291503Y-445086D01*
X291621Y-445214D01*
X291675Y-445268D01*
X291709Y-445292D01*
X291743Y-445327D01*
X291831Y-445395D01*
X291939Y-445474D01*
X292062Y-445557D01*
X292199Y-445635D01*
X292346Y-445704D01*
X292341Y-445699D01*
Y-445680D01*
X292337Y-445655D01*
X292327Y-445626D01*
X292317Y-445586D01*
X292302Y-445532D01*
X292268Y-445420D01*
X292219Y-445292D01*
X292165Y-445150D01*
X292091Y-444998D01*
X292013Y-444851D01*
X292591Y-444557D01*
X292596Y-444562D01*
X292611Y-444586D01*
X292626Y-444621D01*
X292650Y-444674D01*
X292680Y-444733D01*
X292709Y-444802D01*
X292748Y-444880D01*
X292788Y-444969D01*
X292856Y-445165D01*
X292930Y-445385D01*
X292984Y-445616D01*
X293018Y-445846D01*
X293028D01*
X293067D01*
X293116D01*
X293190Y-445841D01*
X293283Y-445827D01*
X293386Y-445812D01*
X293508Y-445788D01*
X293646Y-445748D01*
X293788Y-445704D01*
X293945Y-445645D01*
X294107Y-445572D01*
X294278Y-445479D01*
X294455Y-445371D01*
X294631Y-445243D01*
X294813Y-445101D01*
X294994Y-444929D01*
X294999Y-444925D01*
X295019Y-444905D01*
X295048Y-444875D01*
X295082Y-444831D01*
X295131Y-444782D01*
X295180Y-444724D01*
X295239Y-444655D01*
X295293Y-444581D01*
X295425Y-444410D01*
X295553Y-444213D01*
X295666Y-444003D01*
X295759Y-443782D01*
X295764Y-443777D01*
X295769Y-443753D01*
X295779Y-443723D01*
X295793Y-443679D01*
X295808Y-443625D01*
X295823Y-443561D01*
X295857Y-443409D01*
X295882Y-443228D01*
X295891Y-443032D01*
X295886Y-442821D01*
X295852Y-442600D01*
Y-442591D01*
X295847Y-442576D01*
X295837Y-442546D01*
X295823Y-442502D01*
X295808Y-442448D01*
X295788Y-442389D01*
X295764Y-442326D01*
X295735Y-442247D01*
X295695Y-442169D01*
X295656Y-442090D01*
X295558Y-441914D01*
X295431Y-441737D01*
X295357Y-441644D01*
X295244Y-441531D01*
X295205Y-441502D01*
X295156Y-441453D01*
X295092Y-441409D01*
X295014Y-441350D01*
X294925Y-441291D01*
X294827Y-441232D01*
X294715Y-441169D01*
X294597Y-441110D01*
X294464Y-441056D01*
X294327Y-441007D01*
X294185Y-440963D01*
X294033Y-440938D01*
X293871Y-440914D01*
X293704D01*
X293695D01*
X293665D01*
D02*
G37*
G36*
X299343Y-446543D02*
X295877Y-447155D01*
X297304Y-448582D01*
X299343Y-446543D01*
D02*
G37*
G36*
X520683Y-103107D02*
X520523D01*
X520475Y-103114D01*
X520405D01*
X520329Y-103128D01*
X520232Y-103142D01*
X520128Y-103162D01*
X520017Y-103190D01*
X519892Y-103225D01*
X519767Y-103266D01*
X519636Y-103322D01*
X519504Y-103384D01*
X519372Y-103454D01*
X519247Y-103544D01*
X519116Y-103641D01*
X518998Y-103759D01*
X518991Y-103766D01*
X518970Y-103786D01*
X518942Y-103828D01*
X518901Y-103877D01*
X518852Y-103946D01*
X518804Y-104029D01*
X518741Y-104126D01*
X518686Y-104244D01*
X518630Y-104369D01*
X518575Y-104515D01*
X518519Y-104674D01*
X518471Y-104847D01*
X518429Y-105035D01*
X518401Y-105243D01*
X518381Y-105458D01*
X518374Y-105693D01*
Y-105707D01*
Y-105749D01*
X518381Y-105811D01*
Y-105901D01*
X518395Y-106005D01*
X518408Y-106123D01*
X518422Y-106255D01*
X518450Y-106401D01*
X518485Y-106553D01*
X518526Y-106706D01*
X518575Y-106865D01*
X518637Y-107025D01*
X518707Y-107184D01*
X518790Y-107337D01*
X518880Y-107476D01*
X518991Y-107607D01*
X518998Y-107614D01*
X519019Y-107635D01*
X519053Y-107670D01*
X519102Y-107711D01*
X519164Y-107760D01*
X519234Y-107815D01*
X519324Y-107878D01*
X519421Y-107940D01*
X519525Y-108003D01*
X519650Y-108065D01*
X519774Y-108120D01*
X519913Y-108169D01*
X520066Y-108211D01*
X520225Y-108245D01*
X520392Y-108266D01*
X520565Y-108273D01*
X520641D01*
X520683Y-108266D01*
X520731D01*
X520842Y-108252D01*
X520974Y-108231D01*
X521120Y-108204D01*
X521272Y-108162D01*
X521425Y-108106D01*
X521418D01*
X521404Y-108093D01*
X521383Y-108079D01*
X521355Y-108065D01*
X521321Y-108044D01*
X521272Y-108016D01*
X521168Y-107961D01*
X521043Y-107905D01*
X520905Y-107843D01*
X520745Y-107788D01*
X520586Y-107739D01*
X520787Y-107122D01*
X520794D01*
X520821Y-107129D01*
X520856Y-107143D01*
X520912Y-107163D01*
X520974Y-107184D01*
X521043Y-107212D01*
X521127Y-107240D01*
X521217Y-107274D01*
X521404Y-107365D01*
X521612Y-107469D01*
X521813Y-107593D01*
X522000Y-107732D01*
X522007Y-107725D01*
X522035Y-107697D01*
X522070Y-107663D01*
X522118Y-107607D01*
X522174Y-107531D01*
X522236Y-107448D01*
X522305Y-107344D01*
X522375Y-107219D01*
X522444Y-107087D01*
X522513Y-106935D01*
X522576Y-106768D01*
X522631Y-106581D01*
X522680Y-106380D01*
X522715Y-106165D01*
X522742Y-105936D01*
X522749Y-105687D01*
Y-105680D01*
Y-105652D01*
Y-105610D01*
X522742Y-105555D01*
Y-105485D01*
X522735Y-105409D01*
X522728Y-105319D01*
X522715Y-105229D01*
X522687Y-105014D01*
X522638Y-104785D01*
X522569Y-104556D01*
X522479Y-104334D01*
Y-104327D01*
X522465Y-104307D01*
X522451Y-104279D01*
X522430Y-104237D01*
X522402Y-104189D01*
X522368Y-104133D01*
X522285Y-104002D01*
X522174Y-103856D01*
X522042Y-103710D01*
X521889Y-103565D01*
X521709Y-103433D01*
X521702Y-103426D01*
X521688Y-103419D01*
X521660Y-103405D01*
X521619Y-103384D01*
X521570Y-103357D01*
X521515Y-103329D01*
X521452Y-103301D01*
X521376Y-103266D01*
X521293Y-103239D01*
X521210Y-103211D01*
X521016Y-103155D01*
X520801Y-103121D01*
X520683Y-103107D01*
D02*
G37*
G36*
X420347Y132731D02*
X420340D01*
X420326D01*
X420306D01*
X420271Y132724D01*
X420236D01*
X420188Y132717D01*
X420084Y132690D01*
X419966Y132648D01*
X419841Y132592D01*
X419723Y132509D01*
X419661Y132454D01*
X419605Y132398D01*
X419598Y132391D01*
X419591Y132385D01*
X419577Y132364D01*
X419557Y132336D01*
X419536Y132301D01*
X419508Y132253D01*
X419481Y132204D01*
X419453Y132142D01*
X419425Y132072D01*
X419404Y131996D01*
X419376Y131913D01*
X419356Y131823D01*
X419335Y131719D01*
X419321Y131608D01*
X419307Y131490D01*
Y129333D01*
X421422D01*
Y131247D01*
X421415Y131296D01*
Y131351D01*
X421408Y131483D01*
X421394Y131629D01*
X421373Y131781D01*
X421346Y131927D01*
X421304Y132059D01*
Y132065D01*
X421297Y132072D01*
X421283Y132114D01*
X421256Y132170D01*
X421214Y132246D01*
X421158Y132322D01*
X421096Y132405D01*
X421013Y132488D01*
X420923Y132558D01*
X420909Y132565D01*
X420874Y132586D01*
X420826Y132613D01*
X420749Y132648D01*
X420666Y132676D01*
X420569Y132704D01*
X420458Y132724D01*
X420347Y132731D01*
D02*
G37*
%LPD*%
D13*
X-292362Y419351D02*
X-265916Y445797D01*
X-286719Y466600D02*
X-265916Y445797D01*
X-313165Y440154D02*
X-286719Y466600D01*
X-313165Y440154D02*
X-292362Y419351D01*
X-501640Y88300D02*
Y125700D01*
X-531060D02*
X-501640D01*
X-531060Y88300D02*
Y125700D01*
Y88300D02*
X-501640D01*
X89000Y505290D02*
X126400D01*
Y534710D01*
X89000D02*
X126400D01*
X89000Y505290D02*
Y534710D01*
X420916Y290797D02*
X447362Y264351D01*
X468165Y285154D01*
X441719Y311600D02*
X468165Y285154D01*
X420916Y290797D02*
X441719Y311600D01*
X-445321Y-266376D02*
X-418876Y-292821D01*
X-466124Y-287179D02*
X-445321Y-266376D01*
X-466124Y-287179D02*
X-439679Y-313624D01*
X-418876Y-292821D01*
X-88300Y-533560D02*
Y-504140D01*
X-125700Y-533560D02*
X-88300D01*
X-125700D02*
Y-504140D01*
X-88300D01*
X266376Y-445321D02*
X292821Y-418876D01*
X266376Y-445321D02*
X287179Y-466124D01*
X313624Y-439679D01*
X292821Y-418876D02*
X313624Y-439679D01*
X502790Y-88800D02*
X532210D01*
Y-126200D02*
Y-88800D01*
X502790Y-126200D02*
X532210D01*
X502790D02*
Y-88800D01*
X356500Y28500D02*
Y101500D01*
Y28500D02*
X443500D01*
Y101500D01*
X356500D02*
X443500D01*
X409209Y105696D02*
X440791D01*
Y151279D01*
X409209D02*
X440791D01*
X409209Y105696D02*
Y151279D01*
M02*
