G04*
G04 #@! TF.GenerationSoftware,Altium Limited,Altium Designer,24.7.2 (38)*
G04*
G04 Layer_Color=0*
%FSLAX44Y44*%
%MOMM*%
G71*
G04*
G04 #@! TF.SameCoordinates,368DA5F4-0558-4B36-8F9D-AB2494F627D1*
G04*
G04*
G04 #@! TF.FilePolarity,Positive*
G04*
G01*
G75*
%ADD44C,0.1000*%
D44*
X430981Y363807D02*
X438053Y356735D01*
X430981D02*
X438053Y363807D01*
X441588Y283196D02*
X448659Y290268D01*
X441588D02*
X448659Y283196D01*
X356735Y-438056D02*
X363806Y-430984D01*
X356735Y-430984D02*
X363806Y-438056D01*
X-52500Y-567000D02*
Y-557000D01*
X-57500Y-562000D02*
X-47500D01*
X-438056Y-363805D02*
X-430984Y-356735D01*
X-438056D02*
X-430984Y-363805D01*
X-567000Y52500D02*
X-557000D01*
X-562000Y47500D02*
Y57500D01*
X-363805Y438055D02*
X-356735Y430985D01*
X-363805D02*
X-356735Y438055D01*
X52500Y557000D02*
Y567000D01*
X47500Y562000D02*
X57500D01*
X562000Y-57500D02*
Y-47500D01*
X557000Y-52500D02*
X567000D01*
X-290265Y441585D02*
X-283195Y448655D01*
X-290265D02*
X-283195Y441585D01*
X-517500Y107000D02*
Y117000D01*
X-522500Y112000D02*
X-512500D01*
X107000Y517500D02*
X117000D01*
X112000Y512500D02*
Y522500D01*
X-448656Y-283194D02*
X-441584Y-290266D01*
X-448656D02*
X-441584Y-283194D01*
X-112000Y-522500D02*
Y-512500D01*
X-117000Y-517500D02*
X-107000D01*
X283195Y-448656D02*
X290265Y-441585D01*
X283195D02*
X290265Y-448656D01*
X512500Y-111998D02*
X522500D01*
X517500Y-116998D02*
Y-106998D01*
X400000Y60000D02*
Y70000D01*
X395000Y65000D02*
X405000D01*
X420000Y128488D02*
X430000D01*
X425000Y123488D02*
Y133488D01*
M02*
